<?xml version="1.0" encoding="utf-8"?>
<!-- Generator: Adobe Illustrator 25.2.1, SVG Export Plug-In . SVG Version: 6.00 Build 0)  -->
<svg version="1.1" id="Layer_1" xmlns="http://www.w3.org/2000/svg" xmlns:xlink="http://www.w3.org/1999/xlink" x="0px" y="0px"
	 viewBox="0 0 48 48" style="enable-background:new 0 0 48 48;" xml:space="preserve">
<style type="text/css">
	.st0{opacity:0.3;}
	.st1{fill:#FECC86;}
	.st2{opacity:0.5;}
	.st3{fill:#3E9896;}
	.st4{fill:#80C4A4;}
	.st5{fill:#FE9F73;}
	.st6{fill:#ED7163;}
	.st7{fill:#D0F6FC;}
	.st8{fill:#0D93B2;}
	.st9{fill:#FFFFFF;}
	.st10{fill:#20111D;}
	.st11{fill:#F78A5E;}
	.st12{fill:#000100;}
	.st13{fill:#F7597F;}
	.st14{opacity:0.1;}
	.st15{fill:#EFA348;}
	.st16{fill:#1D1D1B;}
	.st17{fill:#5AB3BF;}
	.st18{fill:#6095AB;}
	.st19{fill:#CC154A;}
</style>
<g>
	<g class="st0">
		<g>
			<g>
				<g>
					<g>
						<path class="st1" d="M27.7,21.3c0.5,0.3,1,0.5,1.5,0.7l0.2,1.3l0.9,0l0.9,0l0.3-1.3c0.5-0.1,1-0.3,1.5-0.6l1.1,0.8l0.7-0.6
							l0.7-0.6L34.7,20c0.3-0.5,0.5-1,0.7-1.5l1.3-0.2l0-0.9l0-0.9l-1.3-0.3c-0.1-0.5-0.3-1-0.6-1.5l0.8-1.1L35.1,13l-0.6-0.7
							L33.3,13c-0.5-0.3-1-0.5-1.5-0.7L31.7,11l-0.9,0l-0.9,0l-0.3,1.3c-0.5,0.1-1,0.3-1.5,0.6L27,12l-0.7,0.6l-0.7,0.6l0.7,1.1
							c-0.3,0.5-0.5,1-0.7,1.5L24.4,16l0,0.9l0,0.9l1.3,0.3c0.1,0.5,0.3,1,0.6,1.5l-0.8,1.1l0.6,0.7l0.6,0.7L27.7,21.3z M28.2,14.7
							c1.4-1.3,3.5-1.2,4.8,0.2c1.3,1.4,1.2,3.5-0.2,4.8c-1.4,1.3-3.5,1.2-4.8-0.2C26.7,18.1,26.8,16,28.2,14.7z"/>
					</g>
				</g>
			</g>
		</g>
	</g>
	<g class="st2">
		<g>
			<g>
				<g>
					<g>
						<path class="st1" d="M20.5,32.3c-0.5-0.3-0.9-0.4-1.4-0.5l-0.3-1.2l-0.9,0l-0.9,0l-0.2,1.2c-0.5,0.1-1,0.4-1.4,0.6l-1.1-0.7
							l-0.6,0.6l-0.6,0.6l0.8,1c-0.3,0.5-0.4,0.9-0.5,1.4l-1.2,0.3l0,0.9l0,0.9l1.2,0.2c0.1,0.5,0.4,1,0.6,1.4l-0.7,1.1l0.6,0.6
							l0.6,0.6l1-0.8c0.5,0.3,0.9,0.4,1.4,0.5l0.3,1.2l0.9,0l0.9,0l0.2-1.2c0.5-0.1,1-0.4,1.4-0.6L22,41l0.6-0.6l0.6-0.6l-0.8-1
							c0.3-0.5,0.4-0.9,0.5-1.4l1.2-0.3l0-0.9l0-0.9l-1.2-0.2c-0.1-0.5-0.4-1-0.6-1.4l0.7-1.1l-0.6-0.6l-0.6-0.6L20.5,32.3z
							 M20.6,38.6c-1.2,1.3-3.2,1.4-4.5,0.2s-1.4-3.2-0.2-4.5c1.2-1.3,3.2-1.4,4.5-0.2C21.7,35.3,21.8,37.3,20.6,38.6z"/>
					</g>
				</g>
			</g>
		</g>
	</g>
	<g class="st2">
		<g>
			<g>
				<g>
					<g>
						<path class="st1" d="M31.3,40.4c-0.2-0.3-0.4-0.5-0.7-0.7l0.1-0.8l-0.5-0.2l-0.5-0.2l-0.4,0.7c-0.3,0-0.6,0-1,0l-0.4-0.6
							l-0.5,0.2L27,39l0.2,0.8c-0.3,0.2-0.5,0.4-0.7,0.7l-0.8-0.1l-0.2,0.5l-0.2,0.5l0.7,0.4c0,0.3,0,0.6,0,1l-0.6,0.4l0.2,0.5
							l0.2,0.5l0.8-0.2c0.2,0.3,0.4,0.5,0.7,0.7l-0.1,0.8l0.5,0.2l0.5,0.2l0.4-0.7c0.3,0,0.6,0,1,0l0.4,0.6l0.5-0.2l0.5-0.2
							l-0.2-0.8c0.3-0.2,0.5-0.4,0.7-0.7l0.8,0.1l0.2-0.5l0.2-0.5l-0.7-0.4c0-0.3,0-0.6,0-1l0.6-0.4l-0.2-0.5L32,40.2L31.3,40.4z
							 M29.7,44c-1,0.4-2.2,0-2.6-1s0-2.2,1-2.6c1-0.4,2.2,0,2.6,1C31.2,42.4,30.7,43.6,29.7,44z"/>
					</g>
				</g>
			</g>
		</g>
	</g>
	<g>
		<g>
			<g>
				<g>
					<g>
						<g>
							<g>
								<path class="st3" d="M6.6,18.2c0,0-1.5-2.4-5-1.8C1.6,16.4,3.9,19.9,6.6,18.2z"/>
							</g>
						</g>
					</g>
				</g>
			</g>
		</g>
	</g>
	<g>
		<g>
			<g>
				<g>
					<g>
						<g>
							<g>
								<path class="st4" d="M8.9,18.8c0,0-0.4-4.9-6.4-6.6C2.5,12.3,3.5,19.5,8.9,18.8z"/>
							</g>
						</g>
					</g>
				</g>
			</g>
		</g>
	</g>
	<g>
		<g>
			<path class="st5" d="M16,18.2c0,0,1.7-0.4,2.2,0.2c0.5,0.6-0.7,2.4-1.6,2.5C15.6,21,16,18.2,16,18.2z"/>
		</g>
		<g>
			<path class="st6" d="M11.2,41.4c0,0,4.3-2.1,5.1-5c0.8-2.9-4.2-3.3-4.2-3.3c0.1,0-5.1,1.4-5.5,2.2c-0.4,0.8-1.9,4.3-1.3,4.3
				C6,39.7,11.2,41.4,11.2,41.4z"/>
		</g>
		<g>
			<g>
				<g>
					<path class="st7" d="M15,15.1C15,15.1,15,15.1,15,15.1c-0.1-0.2-0.3-0.4-0.5-0.3c0,0,0,0,0,0c0,0,0,0,0,0l-9.4,1.6c0,0,0,0,0,0
						c0,0,0,0,0,0c-0.2,0-0.4,0.2-0.3,0.5c0,0,0,0,0,0c0,0,0,0,0,0L8,36.4c0,0.2,0.2,0.3,0.4,0.3l9.5-1.6c0.2,0,0.3-0.2,0.3-0.4
						L15,15.1C15,15.1,15,15.1,15,15.1z"/>
				</g>
			</g>
			<g>
				<path class="st8" d="M4.6,16.7l0.7-0.7l9.2-1.5l0.9,0.6c0,0,0.1,0.8,0,0.9c0,0-10.7,1.9-10.7,1.8C4.6,17.6,4.6,16.7,4.6,16.7z"
					/>
			</g>
			<g class="st2">
				<g>
					<g>
						<g>
							<g>
								<path class="st9" d="M5.6,17c0,0.1,0,0.1-0.1,0.1c0,0,0,0-0.1,0c0,0,0,0-0.1,0c-0.1,0-0.1-0.1-0.1-0.1c0-0.1,0-0.2,0.1-0.2
									C5.6,16.9,5.6,16.9,5.6,17z"/>
							</g>
						</g>
					</g>
				</g>
				<g>
					<g>
						<g>
							<g>
								<path class="st9" d="M6.1,16.9c0,0.1,0,0.1-0.1,0.1c0,0,0,0-0.1,0c0,0,0,0-0.1,0c-0.1,0-0.1-0.1-0.1-0.1
									c0-0.1,0-0.2,0.1-0.2C6,16.8,6.1,16.9,6.1,16.9z"/>
							</g>
						</g>
					</g>
				</g>
				<g>
					<g>
						<g>
							<g>
								<path class="st9" d="M6.5,16.9c0,0.1,0,0.1-0.1,0.1c0,0,0,0-0.1,0c0,0,0,0-0.1,0c-0.1,0-0.1-0.1-0.1-0.1
									c0-0.1,0-0.2,0.1-0.2C6.4,16.7,6.5,16.8,6.5,16.9z"/>
							</g>
						</g>
					</g>
				</g>
			</g>
			<g>
				<g>
					<g>
						<g>
							<g>
								<path class="st10" d="M18.2,34.5c0.1,0.3-0.2,0.6-0.5,0.7l-9.1,1.5C8.3,36.7,8,36.5,8,36.2L4.8,17c-0.1-0.4,0.2-0.7,0.5-0.7
									l9-1.5c0.4-0.1,0.7,0.2,0.7,0.5L18.2,34.5z M14.2,14.4l-9,1.5c-0.6,0.1-1,0.6-0.9,1.2l3.2,19.3c0.1,0.6,0.6,1,1.2,0.9l9-1.5
									c0.6-0.1,1-0.6,0.9-1.2l-3.2-19.3C15.4,14.7,14.8,14.3,14.2,14.4z"/>
							</g>
						</g>
					</g>
				</g>
			</g>
		</g>
		<g>
			<path class="st5" d="M12.1,40.9L12.1,40.9L12.1,40.9l0,2.5l0,4.2c-1.3-0.3-2.5-0.7-3.4-0.9c-1.5-0.4-3-1.1-4.3-2c0,0,0,0,0,0
				l0.2-5.3c0,0-1.1-5-1-6.2c0.1-1.2,0.9-3.9,1.2-5c0.1-0.3,0.2-0.7,0.2-1.1c0,0,0-0.1,0-0.1c0,0,0,0,0,0c0-0.4,0-0.8,0-1.1
				c0,0,0,0,0,0c0,0,0-0.1,0-0.1c0,0,0,0,0,0c0-0.4,0-0.7,0-0.7C5,25,5,25,5,24.9c0-0.1,0-0.1,0-0.2c0,0,0-0.1,0-0.1
				c0.1-0.2,0.3-0.4,0.4-0.4c0.1,0,0.3,0,0.4,0c0.6,0.2,1.2,0.8,1.4,1.6c0.4,1.4,0,5.4,0,5.4s1,1,1.6,2.9c0.2,0.5,0.3,1.1,0.4,1.7
				c0,0.2,0,0.5,0,0.7c0,0.2,0,0.5,0,0.7c0,0.3-0.1,0.6-0.2,0.8c-0.5,1.2-1.6,1.6-1.6,1.6l0.1,0l1.7,0.5L12.1,40.9L12.1,40.9
				L12.1,40.9z"/>
		</g>
		<g>
			<g>
				<path class="st5" d="M17.6,27.6l0.1,0.7c0,0-1,1-0.7,2.3c0.3,1.3,1.2,1.4,1.2,1.4s1.4-1.8,1.3-2.5C19.5,29,19.5,27.9,17.6,27.6z
					"/>
			</g>
			<g>
				<path class="st11" d="M18.4,31.8c0,0,0.5-0.6,1.1-1.8C19.3,30,19.2,30,19.1,30c-0.3-0.1-0.5,0-0.7,0.2l-0.6,0.9
					c0,0-0.1,0.2,0.1,0.5C18,31.7,18.4,31.8,18.4,31.8z"/>
			</g>
		</g>
		<g>
			<path d="M18.2,32.1L18.2,32.1c-0.5-0.1-0.7-0.5-0.7-0.5c0,0-0.7-0.9-0.6-1.8c0.1-1,0.9-1.7,1-1.8l0.1,0.1c0,0-0.8,0.8-0.9,1.7
				c-0.1,0.9,0.6,1.7,0.6,1.7C17.5,31.6,17.8,31.9,18.2,32.1l0.7-1.2c0.8-1.2,0.4-2.1,0.4-2.1l0.1,0c0,0,0.1,0.2,0.1,0.6
				c0,0.4-0.1,0.9-0.5,1.5L18.2,32.1z"/>
		</g>
		<g>
			<g>
				<path class="st5" d="M18.4,32.5l0.1,0.6c0,0-0.8,0.8-0.5,1.8c0.3,1,0.9,1.1,0.9,1.1s1.1-1.4,1-1.9
					C19.9,33.6,19.9,32.7,18.4,32.5z"/>
			</g>
			<g>
				<path class="st11" d="M19,35.8c0,0,0.4-0.4,0.8-1.4c-0.1,0-0.2-0.1-0.3-0.1c-0.2-0.1-0.4,0-0.5,0.1l-0.5,0.7
					c0,0-0.1,0.2,0.1,0.4C18.7,35.7,19,35.8,19,35.8z"/>
			</g>
		</g>
		<g>
			<path d="M18.9,36L18.9,36c-0.4-0.1-0.6-0.4-0.6-0.4c0,0-0.6-0.7-0.5-1.4c0.1-0.7,0.7-1.3,0.8-1.4l0,0c0,0-0.6,0.6-0.7,1.3
				c-0.1,0.7,0.4,1.4,0.4,1.4C18.3,35.6,18.5,35.9,18.9,36l0.6-0.9c0.6-0.9,0.3-1.6,0.3-1.6l0.1,0c0,0,0.3,0.8-0.3,1.7L18.9,36z"/>
		</g>
		<g>
			<path class="st5" d="M9.2,37.9c0,0-0.7,1.8,0.2,2.2c0.9,0.5-2.1,0.7-2.1,0.6c0-0.1-2.1-2.6-1.5-2.8c0.5-0.1,2.1-0.7,2.5-0.3
				C8.6,38,9.2,37.9,9.2,37.9z"/>
		</g>
		<g>
			<g>
				<path class="st5" d="M16.9,23.4l0.1,0.7c0,0-1,1-0.7,2.3c0.3,1.3,1.2,1.4,1.2,1.4s1.4-1.8,1.3-2.5
					C18.8,24.8,18.8,23.7,16.9,23.4z"/>
			</g>
			<g>
				<path class="st11" d="M17.7,27.6c0,0,0.5-0.6,1.1-1.8c-0.1-0.1-0.2-0.1-0.3-0.1c-0.3-0.1-0.5,0-0.7,0.2l-0.6,0.9
					c0,0-0.1,0.2,0.1,0.5C17.4,27.4,17.7,27.6,17.7,27.6z"/>
			</g>
		</g>
		<g>
			<rect x="10.8" y="42.1" transform="matrix(4.995690e-03 -1 1 4.995690e-03 -30.1233 54.0464)" width="2.5" height="0.1"/>
		</g>
		<g>
			<path d="M11.9,41L11.9,41c1.4-0.7,2.8-2,3.4-2.8c0.6-0.8,0.8-1.4,0.8-1.4l0.1,0c0,0-0.2,0.6-0.8,1.4C14.7,39.1,13.4,40.4,11.9,41
				z"/>
		</g>
		<g>
			<path class="st11" d="M6,24.8c-0.1-0.2-0.7-0.3-0.9-0.2c-0.1,0,0,2.3-0.1,2.4c0,0,0,0,0.3,0c0.3,0,0.6-0.1,0.6-0.1S6,25.1,6,24.8
				z"/>
		</g>
		<g>
			<path d="M17.5,27.9L17.5,27.9c-0.4-0.1-0.7-0.4-0.7-0.5c0,0-0.7-0.9-0.6-1.8c0.1-1,0.9-1.7,1-1.8l0.1,0.1c0,0-0.8,0.8-0.9,1.7
				c-0.1,0.9,0.6,1.7,0.6,1.7C16.9,27.4,17.1,27.7,17.5,27.9l0.7-1.2c0.8-1.2,0.4-2.1,0.4-2.1l0.1,0c0,0,0.1,0.2,0.1,0.6
				c0,0.4-0.1,0.9-0.5,1.5L17.5,27.9z"/>
		</g>
		<g>
			<polygon points="17,24.1 15.6,16.3 15.7,16.2 17,24.1 			"/>
		</g>
		<g>
			<path d="M18,19.7L18,19.7c-0.1-0.1,0.5-0.9,0.1-1.4c-0.4-0.5-2-0.2-2-0.2l0-0.1c0.1,0,1.6-0.4,2.1,0.2C18.6,18.8,18,19.7,18,19.7
				z"/>
		</g>
		<g>
			<g>
				<g>
					<g>
						<g>
							<path class="st12" d="M6.3,38.7C6.3,38.7,6.3,38.7,6.3,38.7c-0.6-0.2-1-1-1.1-1c0,0,0,0,0-0.1c0,0,0,0,0.1,0
								C5.3,37.6,5.8,38.4,6.3,38.7C6.3,38.6,6.3,38.6,6.3,38.7C6.3,38.6,6.3,38.7,6.3,38.7z"/>
						</g>
					</g>
				</g>
			</g>
		</g>
		<g>
			<g>
				<g>
					<g>
						<g>
							<path class="st12" d="M6.9,38.6C6.9,38.6,6.9,38.6,6.9,38.6c-0.6-0.1-1.2-0.7-1.2-0.8c0,0,0,0,0-0.1c0,0,0,0,0.1,0
								C5.7,37.7,6.4,38.4,6.9,38.6C6.9,38.5,6.9,38.5,6.9,38.6C6.9,38.5,6.9,38.6,6.9,38.6z"/>
						</g>
					</g>
				</g>
			</g>
		</g>
		<g>
			<path d="M7.6,39.6L7.6,39.6c0-0.1,0.5-0.3,1-0.8c0.4-0.5,0.9-1.4,0.7-3c-0.2-1.6-0.7-2.7-1.1-3.4c-0.4-0.8-0.8-1.1-0.8-1.2l0,0
				l0,0c0,0,0.4-4.1,0-5.4c-0.2-0.8-1-1.6-1.6-1.6c0,0,0,0,0,0c-0.3,0-0.5,0.2-0.6,0.5C5.1,24.8,5,25,5,25.1c0,0.1,0.1,1.1,0,2
				c0,0.5-0.1,0.8-0.2,1.1c-0.3,1-1.1,3.7-1.2,4.9c-0.1,1.2,1,6.1,1,6.1l-0.1,0c0-0.2-1.1-5-1-6.2c0.1-1.2,0.9-4,1.2-5
				c0.1-0.3,0.2-0.6,0.2-1.1c0.1-1,0-2,0-2l0,0l0,0c0-0.1,0-0.3,0.1-0.4c0.2-0.5,0.5-0.6,0.7-0.6c0,0,0,0,0,0c0.3,0,0.7,0.2,1,0.5
				c0.3,0.3,0.6,0.7,0.7,1.2c0.4,1.4,0.1,5.1,0,5.4c0.1,0.1,0.4,0.5,0.8,1.2c0.4,0.7,0.9,1.9,1.1,3.5c0.1,0.7,0.1,1.3-0.1,1.9
				c-0.1,0.4-0.3,0.8-0.6,1.2C8.2,39.4,7.6,39.6,7.6,39.6z"/>
		</g>
	</g>
	<g>
		<g>
			<path class="st5" d="M31.4,19.4c0,0-1.7-0.1-2.1,0.6c-0.4,0.7,1.1,2.2,2,2.2S31.4,19.4,31.4,19.4z"/>
		</g>
		<g>
			<path class="st6" d="M40.2,41.4c0,0-4.6-1.3-5.9-4c-1.3-2.7,3.6-4,3.5-4c-0.1,0,5.3,0.4,5.8,1.2c0.5,0.8,2.7,3.9,2,4
				C45.1,38.8,40.2,41.4,40.2,41.4z"/>
		</g>
		<g>
			<g>
				<g>
					<path class="st7" d="M31.8,16.3C31.8,16.2,31.8,16.2,31.8,16.3c0-0.2,0.2-0.4,0.4-0.4c0,0,0,0,0,0c0,0,0,0,0,0l9.5-0.2
						c0,0,0,0,0,0c0,0,0,0,0,0c0.2,0,0.4,0.2,0.4,0.4c0,0,0,0,0,0c0,0,0,0,0,0l0.3,19.8c0,0.2-0.2,0.4-0.4,0.4l-9.6,0.2
						c-0.2,0-0.4-0.2-0.4-0.4L31.8,16.3C31.8,16.3,31.8,16.3,31.8,16.3z"/>
				</g>
			</g>
			<g>
				<path class="st8" d="M42.3,16l-0.8-0.5l-9.3,0.2l-0.8,0.7c0,0,0.1,0.8,0.1,0.8c0.1,0,10.8,0,10.8-0.2C42.4,16.8,42.3,16,42.3,16
					z"/>
			</g>
			<g class="st2">
				<g>
					<g>
						<g>
							<g>
								<path class="st9" d="M41.3,16.4c0,0.1,0,0.1,0.1,0.1c0,0,0,0,0.1,0c0,0,0,0,0.1,0c0,0,0.1-0.1,0.1-0.1
									c0-0.1-0.1-0.1-0.1-0.1C41.4,16.3,41.3,16.3,41.3,16.4z"/>
							</g>
						</g>
					</g>
				</g>
				<g>
					<g>
						<g>
							<g>
								<path class="st9" d="M40.9,16.4c0,0.1,0,0.1,0.1,0.1c0,0,0,0,0.1,0c0,0,0,0,0.1,0c0,0,0.1-0.1,0.1-0.1
									c0-0.1-0.1-0.1-0.1-0.1C40.9,16.3,40.9,16.4,40.9,16.4z"/>
							</g>
						</g>
					</g>
				</g>
				<g>
					<g>
						<g>
							<g>
								<path class="st9" d="M40.4,16.4c0,0.1,0,0.1,0.1,0.1c0,0,0,0,0.1,0c0,0,0,0,0.1,0c0,0,0.1-0.1,0.1-0.1
									c0-0.1-0.1-0.1-0.1-0.1C40.5,16.3,40.4,16.4,40.4,16.4z"/>
							</g>
						</g>
					</g>
				</g>
			</g>
			<g>
				<g>
					<g>
						<g>
							<g>
								<path class="st10" d="M31.8,16.5c0-0.4,0.3-0.6,0.6-0.7l9.1-0.1c0.4,0,0.6,0.3,0.7,0.6l0.3,19.4c0,0.3-0.2,0.6-0.6,0.6
									l-9.2,0.2c-0.3,0-0.6-0.2-0.6-0.6L31.8,16.5z M31.3,16.5l0.3,19.6c0,0.6,0.5,1.1,1.1,1l9.1-0.1c0.6,0,1.1-0.5,1-1.1
									l-0.3-19.6c0-0.6-0.5-1.1-1.1-1l-9.1,0.1C31.8,15.4,31.3,15.9,31.3,16.5z"/>
							</g>
						</g>
					</g>
				</g>
			</g>
		</g>
		<g>
			<path class="st5" d="M46.7,44.7c-2.2,1.8-4.8,3.1-7.6,3.9l0-3.8l0-1.3l0.1-2.4v0l0,0l0,0l0,0l0.1,0l2.4-1.2c0,0,0,0,0,0l1.6-0.8
				l0.1,0c0,0-1.1-0.1-1.8-1.3c0,0,0,0,0,0c0,0,0,0,0,0c-0.1-0.2-0.3-0.5-0.3-0.7c-0.1-0.2-0.1-0.4-0.2-0.7l0,0
				c0-0.2-0.1-0.4-0.1-0.7c0-0.4,0-0.7,0-1.1c0-0.2,0-0.5,0.1-0.7v0c0-0.3,0.1-0.5,0.1-0.7c0.1-0.6,0.3-1.2,0.5-1.6
				c0.2-0.5,0.4-0.8,0.4-0.8s-0.2-0.8-0.5-1.9c0-0.1,0-0.2-0.1-0.3c-0.3-1.2-0.5-2.5-0.4-3.2c0.1-0.8,0.6-1.5,1.1-1.8
				c0.1-0.1,0.3-0.1,0.4-0.1c0.2,0,0.4,0.1,0.5,0.3c0,0,0,0.1,0.1,0.1c0,0,0.1,0.1,0.1,0.2c0,0,0,0,0,0c0,0.1,0,0.1,0.1,0.2
				c0,0,0,0.3,0.1,0.7c0,0,0,0,0,0.1c0,0,0,0,0,0.1c0.1,0.3,0.1,0.7,0.2,1.1v0c0,0,0,0,0,0c0,0,0,0,0,0c0,0,0,0.1,0,0.1
				c0.1,0.4,0.2,0.8,0.4,1.1c0.5,1,1.8,3.5,2.1,4.7c0.3,1.2,0.1,6.2,0.1,6.2v0L46.7,44.7z"/>
		</g>
		<g>
			<g>
				<path class="st5" d="M31.5,29l0,0.7c0,0,1.2,0.8,1.1,2.2c-0.1,1.3-0.9,1.6-0.9,1.6S30,32,29.9,31.3C29.8,30.7,29.6,29.6,31.5,29
					z"/>
			</g>
			<g>
				<path class="st11" d="M31.5,33.3c0,0-0.6-0.4-1.4-1.5c0.1-0.1,0.2-0.1,0.3-0.2c0.3-0.1,0.5-0.1,0.7,0.1l0.8,0.8
					c0,0,0.2,0.2-0.1,0.5C31.8,33.1,31.5,33.3,31.5,33.3z"/>
			</g>
		</g>
		<g>
			<path d="M31.7,33.6l-1-1c-0.5-0.5-0.7-1.1-0.8-1.4c-0.1-0.4,0-0.6,0-0.6l0.1,0c0,0-0.2,1,0.8,2l1,0.9c0.4-0.2,0.6-0.5,0.6-0.5
				c0,0,0.5-0.9,0.2-1.8c-0.3-0.9-1.2-1.5-1.2-1.5l0-0.1c0,0,1,0.6,1.3,1.6c0.3,0.9-0.2,1.8-0.2,1.9C32.3,33,32.1,33.4,31.7,33.6
				L31.7,33.6z"/>
		</g>
		<g>
			<g>
				<path class="st5" d="M31.6,33.9l0,0.6c0,0,0.9,0.6,0.8,1.7c-0.1,1-0.7,1.3-0.7,1.3s-1.3-1.2-1.4-1.7
					C30.3,35.3,30.1,34.4,31.6,33.9z"/>
			</g>
			<g>
				<path class="st11" d="M31.6,37.3c0,0-0.5-0.3-1.1-1.2c0.1-0.1,0.2-0.1,0.2-0.1c0.2-0.1,0.4-0.1,0.5,0l0.6,0.6c0,0,0.1,0.2,0,0.4
					C31.8,37.1,31.6,37.3,31.6,37.3z"/>
			</g>
		</g>
		<g>
			<path d="M31.7,37.5L31,36.7c-0.8-0.8-0.7-1.6-0.6-1.6l0.1,0c0,0-0.2,0.8,0.6,1.6L31.7,37.5c0.3-0.2,0.4-0.5,0.4-0.5
				c0,0,0.4-0.7,0.2-1.4c-0.2-0.7-1-1.2-1-1.2l0-0.1c0,0,0.8,0.5,1,1.2c0.2,0.7-0.2,1.4-0.2,1.5C32.2,37.1,32.1,37.4,31.7,37.5
				L31.7,37.5z"/>
		</g>
		<g>
			<path class="st5" d="M41.6,37.6c0,0,1,1.6,0.2,2.2C41,40.4,44,40.1,44,40c0-0.1,1.5-3,1-3c-0.5,0-2.2-0.3-2.5,0.1
				C42.2,37.6,41.6,37.6,41.6,37.6z"/>
		</g>
		<g>
			<g>
				<path class="st5" d="M31.4,24.7l0,0.7c0,0,1.2,0.8,1.1,2.2c-0.1,1.3-0.9,1.6-0.9,1.6s-1.7-1.5-1.8-2.2
					C29.7,26.4,29.5,25.3,31.4,24.7z"/>
			</g>
			<g>
				<path class="st11" d="M31.4,29c0,0-0.6-0.4-1.4-1.5c0.1-0.1,0.2-0.1,0.3-0.2c0.3-0.1,0.5-0.1,0.7,0.1l0.8,0.8
					c0,0,0.2,0.2-0.1,0.5C31.7,28.8,31.4,29,31.4,29z"/>
			</g>
		</g>
		<g>
			
				<rect x="37.3" y="42.9" transform="matrix(2.655385e-02 -0.9996 0.9996 2.655385e-02 -4.7786 81.0427)" width="3.8" height="0.1"/>
		</g>
		<g>
			<path d="M39.5,41.2c-1.6-0.4-3.1-1.4-3.9-2.1c-0.7-0.7-1.1-1.2-1.1-1.2l0.1,0c0,0,0.3,0.5,1,1.2C36.4,39.8,38,40.7,39.5,41.2
				L39.5,41.2z"/>
		</g>
		<g>
			<path class="st11" d="M42.4,24.2c0-0.3,0.6-0.4,0.8-0.4c0.1,0,0.4,2.3,0.5,2.4c0,0,0,0-0.3,0.1c-0.3,0.1-0.6,0-0.6,0
				S42.4,24.4,42.4,24.2z"/>
		</g>
		<g>
			<path d="M31.6,29.3l-1-1c-0.5-0.5-0.7-1.1-0.8-1.4c-0.1-0.4,0-0.6,0-0.6l0.1,0c0,0-0.2,1,0.8,2l1,0.9c0.3-0.2,0.6-0.5,0.6-0.5
				c0,0,0.5-0.9,0.2-1.8c-0.3-0.9-1.2-1.5-1.2-1.5l0-0.1c0,0,1,0.6,1.3,1.6c0.3,0.9-0.2,1.8-0.2,1.9C32.2,28.7,32,29.1,31.6,29.3
				L31.6,29.3z"/>
		</g>
		<g>
			<polygon points="31.4,25.4 31.3,17.5 31.4,17.5 31.5,25.4 			"/>
		</g>
		<g>
			<path d="M29.7,21.3c0,0-0.8-0.8-0.4-1.4c0.4-0.6,2-0.6,2-0.6l0,0.1c0,0-1.6-0.1-1.9,0.5C29,20.6,29.8,21.3,29.7,21.3L29.7,21.3z"
				/>
		</g>
		<g>
			<g>
				<g>
					<g>
						<g>
							<path class="st12" d="M44.6,37.8C44.6,37.8,44.6,37.8,44.6,37.8c0.5-0.3,0.8-1.1,0.9-1.2c0,0,0,0,0-0.1c0,0,0,0-0.1,0
								C45.4,36.6,45,37.5,44.6,37.8C44.6,37.8,44.5,37.8,44.6,37.8C44.6,37.8,44.6,37.8,44.6,37.8z"/>
						</g>
					</g>
				</g>
			</g>
		</g>
		<g>
			<g>
				<g>
					<g>
						<g>
							<path class="st12" d="M44,37.9C44,37.9,44,37.9,44,37.9c0.6-0.2,1.1-0.9,1.1-1c0,0,0,0,0-0.1c0,0,0,0-0.1,0
								C45,36.8,44.5,37.6,44,37.9C43.9,37.8,43.9,37.8,44,37.9C43.9,37.8,43.9,37.8,44,37.9z"/>
						</g>
					</g>
				</g>
			</g>
		</g>
		<g>
			<path d="M43.5,39c0,0-0.6-0.1-1.2-0.5c-0.3-0.3-0.6-0.6-0.8-1c-0.3-0.5-0.4-1.1-0.4-1.9c-0.1-1.6,0.2-2.9,0.5-3.6
				c0.3-0.7,0.5-1.2,0.6-1.3c-0.1-0.3-1.1-4-0.9-5.4c0-0.4,0.2-0.9,0.5-1.3c0.3-0.4,0.6-0.6,0.9-0.7c0.2,0,0.6,0,0.8,0.5
				c0.1,0.1,0.1,0.2,0.1,0.4l0,0c0,0,0.1,1,0.4,2c0.1,0.4,0.3,0.8,0.4,1.1c0.5,0.9,1.8,3.5,2.1,4.7c0.3,1.1,0.1,6,0.1,6.2l-0.1,0
				c0-0.1,0.2-5.1-0.1-6.2c-0.3-1.2-1.6-3.8-2.1-4.6c-0.1-0.3-0.3-0.6-0.4-1.1c-0.3-0.9-0.4-1.9-0.4-2c0-0.1-0.1-0.2-0.1-0.3
				c-0.2-0.3-0.4-0.5-0.7-0.4c-0.6,0.1-1.2,1-1.3,1.8c-0.2,1.4,0.9,5.3,0.9,5.3l0,0l0,0c0,0-0.3,0.5-0.6,1.3c-0.3,0.8-0.6,2-0.5,3.6
				c0.1,1.6,0.7,2.4,1.3,2.8C42.9,38.9,43.5,38.9,43.5,39L43.5,39z"/>
		</g>
	</g>
	<g>
		<g>
			<path class="st13" d="M21.9,28.1L9.5,30.6c-0.2,0-0.5-0.1-0.5-0.3l-1.5-7.5c0-0.2,0.1-0.5,0.3-0.5l12.4-2.5
				c0.2,0,0.5,0.1,0.5,0.3l1.5,7.5C22.2,27.8,22.1,28.1,21.9,28.1z"/>
		</g>
		<g class="st14">
			<circle class="st9" cx="14.8" cy="25.2" r="3"/>
		</g>
		<g>
			<g>
				<path class="st9" d="M9.8,27.7c0,0,0,0.1,0,0.1c0,0,0,0.1-0.1,0.1c0,0-0.1,0-0.1,0c0,0-0.1,0-0.1,0c0,0-0.1,0-0.1,0
					c0,0-0.1-0.1-0.1-0.1c0,0,0-0.1,0-0.1l0-0.1c0-0.1,0-0.1,0-0.2c0,0,0-0.1,0-0.1c0,0,0-0.1,0.1-0.1c0,0,0.1,0,0.1,0
					c0,0,0.1,0,0.1,0c0,0,0.1,0,0.1,0c0,0,0.1,0.1,0.1,0.1c0,0,0,0.1,0,0.1l0,0.1C9.8,27.7,9.8,27.7,9.8,27.7z M9.7,27.5
					c0,0,0-0.1,0-0.1c0,0,0-0.1,0-0.1c0,0,0,0-0.1,0c0,0,0,0-0.1,0c0,0,0,0-0.1,0c0,0,0,0,0,0.1c0,0,0,0,0,0.1c0,0,0,0.1,0,0.1
					l0,0.1c0,0,0,0.1,0,0.1c0,0,0,0.1,0,0.1c0,0,0,0,0.1,0c0,0,0,0,0.1,0c0,0,0,0,0.1,0c0,0,0,0,0-0.1c0,0,0,0,0-0.1
					c0,0,0-0.1,0-0.1L9.7,27.5z"/>
				<path class="st9" d="M10.4,27.6c0,0,0,0.1,0,0.1c0,0,0,0.1-0.1,0.1c0,0-0.1,0-0.1,0c0,0-0.1,0-0.1,0c0,0-0.1,0-0.1,0
					c0,0-0.1-0.1-0.1-0.1c0,0,0-0.1,0-0.1l0-0.1c0-0.1,0-0.1,0-0.2c0,0,0-0.1,0-0.1c0,0,0-0.1,0.1-0.1c0,0,0.1,0,0.1,0
					c0,0,0.1,0,0.1,0c0,0,0.1,0,0.1,0c0,0,0.1,0.1,0.1,0.1c0,0,0,0.1,0,0.1l0,0.1C10.4,27.5,10.4,27.6,10.4,27.6z M10.3,27.3
					c0,0,0-0.1,0-0.1c0,0,0-0.1,0-0.1c0,0,0,0-0.1,0c0,0,0,0-0.1,0c0,0,0,0-0.1,0c0,0,0,0,0,0.1c0,0,0,0,0,0.1c0,0,0,0.1,0,0.1
					l0,0.1c0,0,0,0.1,0,0.1c0,0,0,0.1,0,0.1c0,0,0,0,0.1,0c0,0,0,0,0.1,0c0,0,0,0,0.1,0c0,0,0,0,0-0.1c0,0,0,0,0-0.1
					c0,0,0-0.1,0-0.1L10.3,27.3z"/>
				<path class="st9" d="M11,27.1c0,0,0,0.1,0,0.1c0,0,0,0.1-0.1,0.1l-0.1,0.1c0,0,0,0-0.1,0.1c0,0,0,0,0,0.1c0,0,0,0,0,0.1
					c0,0,0,0,0,0.1l0,0l0.3-0.1c0,0,0,0,0,0c0,0,0,0,0,0l0,0c0,0,0,0,0,0c0,0,0,0,0,0l-0.4,0.1c0,0,0,0,0,0c0,0,0,0,0,0l0-0.1
					c0-0.1,0-0.1,0-0.2c0,0,0-0.1,0.1-0.1l0.1-0.1c0,0,0,0,0,0C10.9,27.2,10.9,27.2,11,27.1C10.9,27.2,10.9,27.1,11,27.1
					C10.9,27.1,10.9,27.1,11,27.1c-0.1,0-0.1,0-0.1-0.1c0,0-0.1,0-0.1,0c0,0-0.1,0-0.1,0c0,0-0.1,0-0.1,0l0,0c0,0,0,0,0,0l0,0
					c0,0,0,0,0,0c0,0,0,0,0,0c0,0,0.1,0,0.1,0c0,0,0.1,0,0.1,0c0.1,0,0.1,0,0.2,0C10.9,27,11,27,11,27.1z"/>
				<path class="st9" d="M11.5,27.6C11.5,27.6,11.5,27.6,11.5,27.6L11.5,27.6C11.5,27.6,11.5,27.6,11.5,27.6
					C11.5,27.6,11.5,27.6,11.5,27.6l-0.2-0.6L11.2,27c0,0,0,0,0,0c0,0,0,0,0,0l0-0.1c0,0,0,0,0,0c0,0,0,0,0,0l0.1-0.1c0,0,0,0,0,0
					l0,0c0,0,0,0,0,0c0,0,0,0,0,0L11.5,27.6C11.6,27.5,11.6,27.6,11.5,27.6z"/>
			</g>
			<g>
				<path class="st9" d="M12.9,27.1c0,0,0,0.1,0,0.1c0,0,0,0.1-0.1,0.1c0,0-0.1,0-0.1,0c0,0-0.1,0-0.1,0c0,0-0.1,0-0.1,0
					c0,0-0.1-0.1-0.1-0.1c0,0,0-0.1,0-0.1l0-0.1c0-0.1,0-0.1,0-0.2c0,0,0-0.1,0-0.1c0,0,0-0.1,0.1-0.1c0,0,0.1,0,0.1,0
					c0,0,0.1,0,0.1,0c0,0,0.1,0,0.1,0c0,0,0.1,0.1,0.1,0.1c0,0,0,0.1,0,0.1l0,0.1C12.9,27,12.9,27.1,12.9,27.1z M12.7,26.8
					c0,0,0-0.1,0-0.1c0,0,0-0.1,0-0.1c0,0,0,0-0.1,0c0,0,0,0-0.1,0c0,0,0,0-0.1,0c0,0,0,0,0,0.1c0,0,0,0,0,0.1c0,0,0,0.1,0,0.1
					l0,0.1c0,0,0,0.1,0,0.1c0,0,0,0.1,0,0.1c0,0,0,0,0.1,0c0,0,0,0,0.1,0c0,0,0,0,0.1,0c0,0,0,0,0-0.1c0,0,0,0,0-0.1
					c0,0,0-0.1,0-0.1L12.7,26.8z"/>
				<path class="st9" d="M13.5,27C13.5,27.1,13.5,27.1,13.5,27c-0.1,0.1-0.1,0.1-0.1,0.1c0,0-0.1,0-0.1,0c0,0-0.1,0-0.1,0
					c0,0-0.1,0-0.1,0c0,0,0,0,0,0c0,0,0,0,0,0l0,0c0,0,0,0,0,0l0,0c0,0,0.1,0,0.1,0c0,0,0.1,0,0.1,0c0.1,0,0.1,0,0.1-0.1
					C13.4,27.1,13.4,27,13.5,27l-0.1-0.1c0,0,0,0,0,0c0,0,0,0,0,0c0,0,0,0,0,0c0,0,0,0-0.1,0l-0.2,0c0,0,0,0,0,0l0,0c0,0,0,0,0,0
					l0.2,0c0,0,0,0,0.1,0c0,0,0,0,0,0c0,0,0,0,0,0c0,0,0,0,0,0l0,0c0,0,0-0.1-0.1-0.1c0,0-0.1,0-0.1,0c0,0-0.1,0-0.1,0
					c0,0-0.1,0-0.1,0l0,0c0,0,0,0,0,0l0,0c0,0,0,0,0,0c0,0,0,0,0,0c0,0,0,0,0.1,0c0,0,0.1,0,0.1,0c0,0,0.1,0,0.1,0c0,0,0.1,0,0.1,0
					c0,0,0,0,0.1,0.1c0,0,0,0.1,0,0.1l0,0c0,0,0,0.1,0,0.1c0,0,0,0.1-0.1,0.1c0,0,0,0,0.1,0c0,0,0,0,0,0c0,0,0,0,0,0c0,0,0,0,0,0
					l0,0C13.5,27,13.5,27,13.5,27z"/>
				<path class="st9" d="M14.1,26.9C14.1,27,14.1,27,14.1,26.9C14,27,14,27,14,27.1c0,0-0.1,0-0.1,0c0,0-0.1,0-0.1,0
					c0,0-0.1,0-0.1,0c0,0,0,0,0,0c0,0,0,0,0,0l0,0c0,0,0,0,0,0l0,0c0,0,0.1,0,0.1,0c0,0,0.1,0,0.1,0c0.1,0,0.1,0,0.1-0.1
					C14,26.9,14,26.9,14.1,26.9L14,26.8c0,0,0,0,0,0c0,0,0,0,0,0c0,0,0,0,0,0c0,0,0,0-0.1,0l-0.2,0c0,0,0,0,0,0l0,0c0,0,0,0,0,0
					l0.2,0c0,0,0,0,0.1,0c0,0,0,0,0,0c0,0,0,0,0,0c0,0,0,0,0,0l0,0c0,0,0-0.1-0.1-0.1c0,0-0.1,0-0.1,0c0,0-0.1,0-0.1,0
					c0,0-0.1,0-0.1,0l0,0c0,0,0,0,0,0l0,0c0,0,0,0,0,0c0,0,0,0,0,0c0,0,0,0,0.1,0c0,0,0.1,0,0.1,0c0,0,0.1,0,0.1,0c0,0,0.1,0,0.1,0
					c0,0,0,0,0.1,0.1c0,0,0,0.1,0,0.1l0,0c0,0,0,0.1,0,0.1c0,0,0,0.1-0.1,0.1c0,0,0,0,0.1,0c0,0,0,0,0,0c0,0,0,0,0,0c0,0,0,0,0,0
					l0,0C14.1,26.9,14.1,26.9,14.1,26.9z"/>
				<path class="st9" d="M14.6,26.9C14.6,26.9,14.6,26.9,14.6,26.9L14.6,26.9C14.5,27,14.5,26.9,14.6,26.9
					C14.5,26.9,14.5,26.9,14.6,26.9l-0.2-0.6l-0.1,0.1c0,0,0,0,0,0c0,0,0,0,0,0l0-0.1c0,0,0,0,0,0c0,0,0,0,0,0l0.1-0.1c0,0,0,0,0,0
					l0,0c0,0,0,0,0,0c0,0,0,0,0,0L14.6,26.9C14.6,26.9,14.6,26.9,14.6,26.9z"/>
			</g>
			<g>
				<path class="st9" d="M15.9,26.4L15.9,26.4l-0.1,0.2c0,0,0,0,0,0c0,0,0,0,0,0l-0.1,0c0,0,0,0,0,0c0,0,0,0,0,0l0-0.2l-0.3,0.1
					c0,0,0,0,0,0c0,0,0,0,0,0l0,0c0,0,0,0,0,0l0.2-0.5c0,0,0,0,0,0c0,0,0,0,0,0l0.1,0c0,0,0,0,0,0l0.1,0.5L15.9,26.4
					C15.9,26.4,15.9,26.4,15.9,26.4C15.9,26.4,15.9,26.4,15.9,26.4L15.9,26.4C16,26.4,16,26.4,15.9,26.4z M15.7,26.1
					C15.7,26.1,15.7,26,15.7,26.1L15.7,26.1C15.7,26.1,15.7,26.1,15.7,26.1l-0.2,0.4c0,0,0,0,0,0c0,0,0,0,0,0l0.2-0.1L15.7,26.1z"/>
				<path class="st9" d="M16.5,26.4c0,0,0,0.1,0,0.1c0,0,0,0.1-0.1,0.1c0,0-0.1,0-0.1,0c0,0-0.1,0-0.1,0c0,0-0.1,0-0.1,0
					c0,0,0,0,0,0c0,0,0,0,0,0l0,0c0,0,0,0,0,0c0,0,0,0,0,0c0,0,0,0,0,0c0,0,0,0,0,0c0,0,0.1,0,0.1,0c0,0,0.1,0,0.1,0
					c0,0,0.1,0,0.1,0c0,0,0,0,0-0.1C16.5,26.4,16.5,26.4,16.5,26.4c-0.1-0.1-0.1-0.1-0.1-0.1l0,0c0,0,0,0-0.1,0c0,0-0.1,0-0.1,0
					c0,0-0.1,0-0.1,0c0,0-0.1,0-0.1,0c0,0,0,0-0.1-0.1c0,0,0-0.1,0-0.1l0,0c0-0.1,0-0.2,0-0.2c0-0.1,0.1-0.1,0.2-0.1
					c0.1,0,0.1,0,0.2,0c0.1,0,0.1,0.1,0.1,0.2l0,0.2C16.5,26.3,16.6,26.3,16.5,26.4z M16.4,26.1c0,0,0-0.1,0-0.1c0,0,0,0,0-0.1
					c0,0,0,0-0.1,0c0,0,0,0-0.1,0c0,0,0,0-0.1,0c0,0,0,0,0,0c0,0,0,0,0,0.1c0,0,0,0.1,0,0.1l0,0c0,0,0,0,0,0.1c0,0,0,0,0,0
					c0,0,0,0,0.1,0c0,0,0,0,0.1,0c0,0,0,0,0,0c0,0,0,0,0,0c0,0,0,0,0,0C16.4,26.2,16.4,26.2,16.4,26.1L16.4,26.1z"/>
				<path class="st9" d="M17.1,25.8c0,0,0,0.1,0,0.1c0,0,0,0.1-0.1,0.1l-0.1,0.1c0,0,0,0-0.1,0.1c0,0,0,0,0,0.1c0,0,0,0,0,0.1
					c0,0,0,0,0,0.1l0,0l0.3-0.1c0,0,0,0,0,0c0,0,0,0,0,0l0,0c0,0,0,0,0,0c0,0,0,0,0,0l-0.4,0.1c0,0,0,0,0,0c0,0,0,0,0,0l0-0.1
					c0-0.1,0-0.1,0-0.2c0,0,0-0.1,0.1-0.1l0.1-0.1c0,0,0,0,0,0C17,25.9,17,25.9,17.1,25.8C17,25.9,17,25.9,17.1,25.8
					C17,25.9,17,25.8,17.1,25.8c-0.1,0-0.1,0-0.1-0.1c0,0-0.1,0-0.1,0c0,0-0.1,0-0.1,0c0,0-0.1,0-0.1,0l0,0c0,0,0,0,0,0l0,0
					c0,0,0,0,0,0c0,0,0,0,0,0c0,0,0.1,0,0.1,0c0,0,0.1,0,0.1,0c0.1,0,0.1,0,0.2,0C17,25.7,17.1,25.7,17.1,25.8z"/>
				<path class="st9" d="M17.7,26.3C17.7,26.3,17.7,26.3,17.7,26.3L17.7,26.3C17.6,26.3,17.6,26.3,17.7,26.3
					C17.6,26.3,17.6,26.3,17.7,26.3l-0.2-0.6l-0.1,0.1c0,0,0,0,0,0c0,0,0,0,0,0l0-0.1c0,0,0,0,0,0c0,0,0,0,0,0l0.1-0.1c0,0,0,0,0,0
					l0,0c0,0,0,0,0,0c0,0,0,0,0,0L17.7,26.3C17.7,26.3,17.7,26.3,17.7,26.3z"/>
			</g>
			<g>
				<path class="st9" d="M18.9,25.4c0,0,0,0.1,0,0.1c0,0,0,0.1-0.1,0.1l-0.1,0.1c0,0,0,0-0.1,0.1c0,0,0,0,0,0.1c0,0,0,0,0,0.1
					c0,0,0,0,0,0.1l0,0L19,26c0,0,0,0,0,0c0,0,0,0,0,0l0,0c0,0,0,0,0,0c0,0,0,0,0,0l-0.4,0.1c0,0,0,0,0,0c0,0,0,0,0,0l0-0.1
					c0-0.1,0-0.1,0-0.2c0,0,0-0.1,0.1-0.1l0.1-0.1c0,0,0,0,0,0C18.8,25.6,18.8,25.6,18.9,25.4C18.8,25.5,18.8,25.5,18.9,25.4
					C18.8,25.5,18.8,25.5,18.9,25.4c-0.1,0-0.1,0-0.1-0.1c0,0-0.1,0-0.1,0c0,0-0.1,0-0.1,0c0,0-0.1,0-0.1,0l0,0c0,0,0,0,0,0l0,0
					c0,0,0,0,0,0c0,0,0,0,0,0c0,0,0.1,0,0.1,0c0,0,0.1,0,0.1,0c0.1,0,0.1,0,0.2,0C18.9,25.3,18.9,25.4,18.9,25.4z"/>
				<path class="st9" d="M19.6,25.7c0,0,0,0.1,0,0.1c0,0,0,0.1-0.1,0.1c0,0-0.1,0-0.1,0c0,0-0.1,0-0.1,0c0,0-0.1,0-0.1,0
					c0,0-0.1-0.1-0.1-0.1c0,0,0-0.1,0-0.1l0-0.1c0-0.1,0-0.1,0-0.2c0,0,0-0.1,0-0.1c0,0,0-0.1,0.1-0.1c0,0,0.1,0,0.1,0
					c0,0,0.1,0,0.1,0c0,0,0.1,0,0.1,0c0,0,0.1,0.1,0.1,0.1c0,0,0,0.1,0,0.1l0,0.1C19.6,25.6,19.6,25.7,19.6,25.7z M19.5,25.5
					c0,0,0-0.1,0-0.1c0,0,0-0.1,0-0.1c0,0,0,0-0.1,0c0,0,0,0-0.1,0c0,0,0,0-0.1,0c0,0,0,0,0,0.1c0,0,0,0,0,0.1c0,0,0,0.1,0,0.1
					l0,0.1c0,0,0,0.1,0,0.1c0,0,0,0.1,0,0.1c0,0,0,0,0.1,0c0,0,0,0,0.1,0c0,0,0,0,0.1,0c0,0,0,0,0-0.1c0,0,0,0,0-0.1
					c0,0,0-0.1,0-0.1L19.5,25.5z"/>
				<path class="st9" d="M20.2,25.2c0,0,0,0.1,0,0.1c0,0,0,0.1-0.1,0.1L20,25.5c0,0,0,0-0.1,0.1c0,0,0,0,0,0.1c0,0,0,0,0,0.1
					c0,0,0,0,0,0.1l0,0l0.3-0.1c0,0,0,0,0,0c0,0,0,0,0,0l0,0c0,0,0,0,0,0c0,0,0,0,0,0l-0.4,0.1c0,0,0,0,0,0c0,0,0,0,0,0l0-0.1
					c0-0.1,0-0.1,0-0.2c0,0,0-0.1,0.1-0.1l0.1-0.1c0,0,0,0,0,0C20,25.3,20,25.3,20.2,25.2C20.1,25.3,20.1,25.3,20.2,25.2
					C20.1,25.2,20.1,25.2,20.2,25.2c-0.1,0-0.1,0-0.1-0.1c0,0-0.1,0-0.1,0c0,0-0.1,0-0.1,0c0,0-0.1,0-0.1,0l0,0c0,0,0,0,0,0l0,0
					c0,0,0,0,0,0c0,0,0,0,0,0c0,0,0.1,0,0.1,0s0.1,0,0.1,0c0.1,0,0.1,0,0.2,0C20.1,25.1,20.1,25.1,20.2,25.2z"/>
				<path class="st9" d="M20.7,25.7C20.7,25.7,20.7,25.7,20.7,25.7L20.7,25.7C20.7,25.7,20.7,25.7,20.7,25.7
					C20.6,25.7,20.6,25.7,20.7,25.7L20.5,25l-0.1,0.1c0,0,0,0,0,0c0,0,0,0,0,0l0-0.1c0,0,0,0,0,0c0,0,0,0,0,0l0.1-0.1c0,0,0,0,0,0
					l0,0c0,0,0,0,0,0c0,0,0,0,0,0L20.7,25.7C20.7,25.7,20.7,25.7,20.7,25.7z"/>
			</g>
		</g>
		<g>
			<rect x="9.5" y="28.3" transform="matrix(0.9797 -0.2005 0.2005 0.9797 -5.5256 2.7106)" class="st9" width="2.2" height="0.6"/>
		</g>
		<g>
			
				<rect x="17.8" y="20.5" transform="matrix(0.9797 -0.2005 0.2005 0.9797 -3.7576 4.2047)" class="st9" width="2.2" height="0.4"/>
		</g>
		<g>
			
				<rect x="16.3" y="21.3" transform="matrix(0.9797 -0.2005 0.2005 0.9797 -3.9355 4.0819)" class="st9" width="3.8" height="0.4"/>
		</g>
		<g>
			<rect x="9.7" y="28.5" transform="matrix(0.9797 -0.2005 0.2005 0.9797 -5.4795 3.4645)" class="st9" width="9.4" height="0.6"/>
		</g>
		<g>
			<path class="st9" d="M20.5,27.5c0,0.2-0.1,0.3-0.2,0.4c-0.2,0-0.3-0.1-0.4-0.2c0-0.2,0.1-0.3,0.2-0.4
				C20.3,27.3,20.5,27.4,20.5,27.5z"/>
		</g>
		<g>
			<path class="st9" d="M21.4,27.4c0,0.2-0.1,0.3-0.2,0.4s-0.3-0.1-0.4-0.2s0.1-0.3,0.2-0.4C21.2,27.1,21.3,27.2,21.4,27.4z"/>
		</g>
		<g>
			<path class="st1" d="M10.2,22.7l0.2,1.1c0,0.1,0,0.1-0.1,0.1l-1.8,0.4c-0.1,0-0.1,0-0.1-0.1l-0.2-1.1c0-0.1,0-0.1,0.1-0.1
				l1.8-0.4C10.1,22.6,10.1,22.6,10.2,22.7z"/>
		</g>
		<g>
			<polygon class="st15" points="9.2,23.4 8.3,23.6 8.3,23.5 9.1,23.3 9.1,23 9.1,23 			"/>
		</g>
		<g>
			<polygon class="st15" points="9.5,24 9.5,24 9.4,23.6 10.3,23.4 10.3,23.4 9.4,23.6 			"/>
		</g>
		<g>
			
				<rect x="9.5" y="22.7" transform="matrix(0.9797 -0.2005 0.2005 0.9797 -4.4177 2.3789)" class="st15" width="0.1" height="0.5"/>
		</g>
		<g>
			
				<rect x="9.5" y="22.9" transform="matrix(0.9797 -0.2005 0.2005 0.9797 -4.4032 2.4449)" class="st15" width="0.7" height="0.1"/>
		</g>
		<g>
			<polygon class="st15" points="8.9,23.9 8.9,23.9 8.8,23.8 8.3,23.9 8.3,23.8 8.9,23.7 			"/>
		</g>
		<g>
			<path class="st16" d="M21.9,28.1L9.4,30.7c-0.2,0-0.4-0.1-0.5-0.3l-1.5-7.6c0-0.2,0.1-0.4,0.3-0.5l12.5-2.5
				c0.2,0,0.4,0.1,0.5,0.3l1.5,7.6C22.3,27.9,22.1,28.1,21.9,28.1z M7.7,22.4c-0.2,0-0.3,0.2-0.3,0.4L9,30.3c0,0.2,0.2,0.3,0.4,0.3
				l12.5-2.5c0.2,0,0.3-0.2,0.3-0.4l-1.5-7.6c0-0.2-0.2-0.3-0.4-0.3L7.7,22.4z"/>
		</g>
	</g>
	<g>
		<g>
			<circle class="st9" cx="37.1" cy="26" r="3.7"/>
		</g>
		<g>
			<g>
				<path class="st17" d="M36.4,27.9L35,25.9c-0.1-0.1,0-0.2,0-0.3c0.1-0.1,0.2,0,0.3,0l1.1,1.5l2.7-3.4c0.1-0.1,0.2-0.1,0.3,0
					c0.1,0.1,0.1,0.2,0,0.3L36.4,27.9z"/>
			</g>
		</g>
	</g>
	<polygon class="st9" points="38.3,29 39.8,30.5 39.2,28.1 	"/>
	<rect x="34" y="32.5" class="st9" width="6.3" height="0.3"/>
	<rect x="34" y="33.8" class="st9" width="6.3" height="0.3"/>
	<g>
		<g>
			<path class="st18" d="M20.7,15.3c-0.3,0-0.6-0.1-0.9-0.3l0.1-0.2c0.3,0.1,0.6,0.2,0.9,0.2L20.7,15.3z M21.6,15.3l0-0.2
				c0.3-0.1,0.6-0.2,0.8-0.4l0.1,0.1C22.2,15,21.9,15.2,21.6,15.3z M19,14.5c-0.2-0.2-0.4-0.5-0.6-0.7l0.1-0.1
				c0.2,0.3,0.4,0.5,0.6,0.7L19,14.5z M23.2,14.2L23,14.1c0.2-0.2,0.3-0.5,0.4-0.8l0.2,0.1C23.5,13.7,23.4,13.9,23.2,14.2z
				 M9.8,13.9l-0.2,0c0-0.3,0.1-0.6,0.1-0.9l0.2,0C9.8,13.2,9.8,13.6,9.8,13.9z M18,12.9c-0.1-0.3-0.2-0.6-0.3-0.9l0.2,0
				c0.1,0.3,0.2,0.6,0.3,0.9L18,12.9z M23.8,12.4l-0.2,0c0-0.1,0-0.2,0-0.2c0-0.2,0-0.4-0.1-0.7l0.2,0c0,0.2,0.1,0.5,0.1,0.7
				C23.8,12.3,23.8,12.3,23.8,12.4z M10.1,12.1L9.9,12c0.1-0.3,0.2-0.6,0.3-0.9l0.2,0.1C10.3,11.5,10.2,11.8,10.1,12.1z M17.6,11.1
				c0-0.3-0.1-0.6-0.1-0.9l0.2,0c0,0.3,0,0.6,0.1,0.9L17.6,11.1z M23.3,10.6c-0.1-0.3-0.2-0.6-0.4-0.8l0.1-0.1
				c0.2,0.3,0.3,0.6,0.4,0.8L23.3,10.6z M10.8,10.4l-0.1-0.1c0.2-0.3,0.3-0.5,0.5-0.8l0.1,0.1C11.2,9.8,11,10.1,10.8,10.4z
				 M38.9,10.4l-0.2-0.1c0.1-0.3,0.2-0.6,0.2-0.9l0.2,0C39.1,9.8,39,10.1,38.9,10.4z M17.7,9.2l-0.2,0c0-0.3,0-0.6,0.1-0.9l0.2,0
				C17.7,8.6,17.7,8.9,17.7,9.2z M22.4,9.1c-0.2-0.2-0.4-0.4-0.6-0.7l0.1-0.1c0.2,0.2,0.5,0.4,0.7,0.7L22.4,9.1z M11.9,8.9l-0.1-0.1
				c0.2-0.2,0.4-0.5,0.7-0.7l0.1,0.1C12.3,8.4,12.1,8.7,11.9,8.9z M39.3,8.5l-0.2,0c0,0,0-0.1,0-0.1c0-0.3,0-0.5-0.1-0.8l0.2,0
				c0,0.3,0.1,0.6,0.1,0.8C39.3,8.4,39.3,8.5,39.3,8.5z M21,7.9c-0.2-0.1-0.4-0.3-0.7-0.4c0,0-0.1,0-0.1-0.1l0.1-0.2
				c0,0,0.1,0,0.1,0.1c0.2,0.1,0.5,0.3,0.7,0.4L21,7.9z M13.3,7.7l-0.1-0.1c0.3-0.2,0.5-0.3,0.8-0.5l0.1,0.2
				C13.8,7.4,13.6,7.5,13.3,7.7z M17.8,7.4l-0.2,0c0.1-0.3,0.1-0.6,0.2-0.9l0.2,0C18,6.8,17.9,7.1,17.8,7.4z M19.4,7
				c-0.3-0.1-0.6-0.2-0.9-0.3l0-0.2c0.3,0.1,0.6,0.2,0.9,0.3L19.4,7z M14.9,6.9l-0.1-0.2c0.3-0.1,0.6-0.2,0.9-0.2l0,0.2
				C15.5,6.7,15.2,6.8,14.9,6.9z M38.8,6.7c-0.1-0.3-0.2-0.6-0.3-0.8l0.2-0.1c0.1,0.3,0.3,0.6,0.4,0.9L38.8,6.7z M17.6,6.5
				c-0.3,0-0.6,0-0.9,0l0-0.2c0.3,0,0.6,0,0.9,0L17.6,6.5z M18.4,5.7l-0.2-0.1c0.1-0.3,0.3-0.6,0.4-0.8l0.2,0.1
				C18.6,5.1,18.5,5.4,18.4,5.7z M38,5.1c-0.2-0.2-0.4-0.5-0.6-0.7l0.1-0.1C37.8,4.5,38,4.7,38.2,5L38,5.1z M19.3,4.1L19.1,4
				c0.2-0.3,0.4-0.5,0.6-0.7l0.1,0.1C19.7,3.6,19.5,3.8,19.3,4.1z M36.8,3.7c-0.2-0.2-0.5-0.4-0.7-0.6L36.2,3
				c0.3,0.2,0.5,0.4,0.7,0.6L36.8,3.7z M20.5,2.7l-0.1-0.1c0.2-0.2,0.5-0.4,0.8-0.6l0.1,0.1C21,2.3,20.8,2.5,20.5,2.7z M35.3,2.6
				c-0.3-0.2-0.5-0.3-0.8-0.5L34.6,2c0.3,0.1,0.6,0.3,0.8,0.5L35.3,2.6z M33.7,1.7c-0.3-0.1-0.6-0.2-0.9-0.3l0.1-0.2
				c0.3,0.1,0.6,0.2,0.9,0.3L33.7,1.7z M22.1,1.7L22,1.6c0.3-0.1,0.6-0.3,0.8-0.4l0.1,0.2C22.6,1.4,22.3,1.6,22.1,1.7z M32,1.1
				c-0.3-0.1-0.6-0.2-0.9-0.2l0-0.2c0.3,0.1,0.6,0.2,0.9,0.2L32,1.1z M23.8,1l-0.1-0.2c0.3-0.1,0.6-0.2,0.9-0.2l0,0.2
				C24.3,0.8,24,0.9,23.8,1z M30.2,0.7c-0.3-0.1-0.6-0.1-0.9-0.1l0-0.2c0.3,0,0.6,0.1,0.9,0.1L30.2,0.7z M25.6,0.6l0-0.2
				c0.3,0,0.6-0.1,0.9-0.1l0,0.2C26.2,0.5,25.9,0.6,25.6,0.6z M28.3,0.5c-0.3,0-0.6,0-0.9,0l0-0.2c0.3,0,0.6,0,0.9,0L28.3,0.5z"/>
		</g>
		<g>
			<path class="st18" d="M38.4,11.7l-0.2-0.1c0.1-0.1,0.1-0.3,0.2-0.4l0.2,0.1C38.5,11.4,38.5,11.5,38.4,11.7z"/>
		</g>
	</g>
	<g>
		<g>
			<g>
				<g>
					<g>
						<g>
							<g>
								<g>
									<g>
										<path class="st19" d="M36.9,12.6l-1,1.6c0,0,1.4-1.1,1.4-1.1c0,0,1.3-1.8,1.3-1.8l0.5-0.2l-0.9-0.2L36.9,12.6z"/>
									</g>
								</g>
							</g>
						</g>
					</g>
				</g>
			</g>
		</g>
		<g>
			<g>
				<g>
					<g>
						<g>
							<g>
								<g>
									<g>
										<polygon class="st13" points="38.3,10.9 37.7,10.3 35.9,14.2 										"/>
									</g>
								</g>
							</g>
						</g>
					</g>
				</g>
			</g>
		</g>
		<g>
			<g>
				<g>
					<g>
						<g>
							<g>
								<g>
									<g>
										<polygon class="st13" points="39.4,12 38.6,11.3 35.9,14.2 										"/>
									</g>
								</g>
							</g>
						</g>
					</g>
				</g>
			</g>
		</g>
	</g>
</g>
</svg>
