<?xml version="1.0" encoding="utf-8"?>
<!-- Generator: Adobe Illustrator 25.2.1, SVG Export Plug-In . SVG Version: 6.00 Build 0)  -->
<svg version="1.1" id="Layer_1" xmlns="http://www.w3.org/2000/svg" xmlns:xlink="http://www.w3.org/1999/xlink" x="0px" y="0px"
	 viewBox="0 0 48 48" style="enable-background:new 0 0 48 48;" xml:space="preserve">
<style type="text/css">
	.st0{opacity:0.37;fill:#FECA57;}
	.st1{fill:#EE5253;}
	.st2{fill:#222F3E;}
	.st3{opacity:0.37;clip-path:url(#XMLID_5_);fill:#0B1014;}
	.st4{opacity:0.37;clip-path:url(#XMLID_8_);fill:#0B1014;}
	.st5{opacity:0.37;clip-path:url(#XMLID_28_);fill:#0B1014;}
	.st6{fill:#E8F1F7;}
	.st7{opacity:0.1;clip-path:url(#XMLID_29_);fill:#FCF1D4;}
	.st8{fill:#FFFFFF;}
	.st9{font-family:'Montserrat-Bold';}
	.st10{font-size:1.511px;}
	.st11{fill:#E04F56;}
	.st12{fill:#C9474D;}
	.st13{fill:none;stroke:#EE5253;stroke-width:0.25;stroke-miterlimit:10;}
	.st14{fill:#FF9F43;}
	.st15{fill:#FF6B6B;}
	.st16{font-size:1.6345px;}
	.st17{opacity:0.2;clip-path:url(#XMLID_30_);fill:#FCF1D4;}
	.st18{fill:#FECA57;}
	.st19{font-size:1.3868px;}
	.st20{opacity:0.1;clip-path:url(#XMLID_32_);fill:#FCF1D4;}
	.st21{clip-path:url(#XMLID_33_);fill:#283949;}
	.st22{fill:#EE5153;}
	.st23{clip-path:url(#XMLID_34_);fill:#E8F1F7;}
	.st24{clip-path:url(#XMLID_35_);fill:#FCB72B;stroke:#FCB72B;stroke-width:0.25;stroke-miterlimit:10;}
	.st25{fill:#BADC58;}
	.st26{fill:#6AB04C;}
	.st27{font-size:1.854px;}
	.st28{clip-path:url(#XMLID_36_);fill:#6AB04C;}
	.st29{clip-path:url(#XMLID_37_);fill:#6AB04C;}
	.st30{opacity:0.2;clip-path:url(#XMLID_38_);fill:#FCF1D4;}
	.st31{clip-path:url(#XMLID_39_);fill:#FCB932;}
	.st32{font-size:2.0654px;}
	.st33{opacity:0.2;clip-path:url(#XMLID_40_);fill:#FCF1D4;}
	.st34{clip-path:url(#XMLID_41_);fill:#FCB932;}
	.st35{opacity:0.2;clip-path:url(#XMLID_42_);fill:#FCF1D4;}
	.st36{clip-path:url(#XMLID_43_);fill:#FCB932;}
	.st37{fill:#BF3E11;}
	
		.st38{clip-path:url(#XMLID_44_);fill:none;stroke:#C14F1E;stroke-width:0.25;stroke-linecap:round;stroke-linejoin:round;stroke-miterlimit:10;stroke-dasharray:2.0647,4.1294;}
	.st39{opacity:0.3;clip-path:url(#XMLID_44_);fill:#C45620;}
	.st40{fill:#C14F1E;}
	.st41{clip-path:url(#XMLID_45_);fill:#FCBA35;}
	.st42{opacity:0.2;clip-path:url(#XMLID_46_);fill:#FCF1D4;}
	.st43{clip-path:url(#XMLID_47_);fill:#FCB932;}
	.st44{opacity:0.2;clip-path:url(#XMLID_48_);fill:#FCF1D4;}
	.st45{clip-path:url(#XMLID_49_);fill:#FCB932;}
	.st46{opacity:0.2;clip-path:url(#XMLID_50_);fill:#FCF1D4;}
	.st47{clip-path:url(#XMLID_51_);fill:#FCB932;}
	.st48{fill:none;stroke:#FECA57;stroke-width:0.25;stroke-linecap:round;stroke-linejoin:round;stroke-miterlimit:10;}
	.st49{fill:#FCC047;}
</style>
<g>
	<ellipse id="shadow" class="st0" cx="23.8" cy="37.2" rx="9.7" ry="1.4"/>
	<g id="phone_1_">
		<polygon class="st1" points="33,31.7 31.4,32.7 31.3,31 		"/>
		<polygon class="st1" points="14.6,16.5 16.2,15.5 16.3,17.2 		"/>
		<path class="st2" d="M26,36.9h-4.5c-3.3,0-6-2.7-6-6v-15c0-3.3,2.7-6,6-6H26c3.3,0,6,2.7,6,6v15C32,34.2,29.3,36.9,26,36.9z"/>
		<g>
			<defs>
				<circle id="XMLID_1_" cx="23.7" cy="35.1" r="1.2"/>
			</defs>
			<use xlink:href="#XMLID_1_"  style="overflow:visible;fill:#18212B;"/>
			<clipPath id="XMLID_5_">
				<use xlink:href="#XMLID_1_"  style="overflow:visible;"/>
			</clipPath>
			<path class="st3" d="M24.1,34c0.2,0.2,0.4,0.5,0.4,0.9c0,0.7-0.5,1.2-1.2,1.2c-0.1,0-0.3,0-0.4-0.1c0.2,0.2,0.5,0.3,0.8,0.3
				c0.7,0,1.2-0.5,1.2-1.2C24.9,34.6,24.6,34.1,24.1,34z"/>
		</g>
		<g>
			<g>
				<defs>
					<path id="XMLID_2_" d="M22.4,11.5c0,0.2-0.2,0.4-0.4,0.4s-0.4-0.2-0.4-0.4s0.2-0.4,0.4-0.4S22.4,11.3,22.4,11.5z"/>
				</defs>
				<use xlink:href="#XMLID_2_"  style="overflow:visible;fill:#18212B;"/>
				<clipPath id="XMLID_8_">
					<use xlink:href="#XMLID_2_"  style="overflow:visible;"/>
				</clipPath>
				<path class="st4" d="M22.1,11.1c0.1,0.1,0.1,0.2,0.1,0.3c0,0.2-0.2,0.4-0.4,0.4c0,0-0.1,0-0.1,0c0.1,0.1,0.2,0.1,0.3,0.1
					c0.2,0,0.4-0.2,0.4-0.4C22.4,11.3,22.3,11.2,22.1,11.1z"/>
			</g>
			<g>
				<defs>
					<path id="XMLID_3_" d="M25.5,11.8H23c-0.2,0-0.3-0.2-0.3-0.3l0,0c0-0.2,0.2-0.3,0.3-0.3h2.6c0.2,0,0.3,0.2,0.3,0.3l0,0
						C25.9,11.7,25.7,11.8,25.5,11.8z"/>
				</defs>
				<use xlink:href="#XMLID_3_"  style="overflow:visible;fill:#18212B;"/>
				<clipPath id="XMLID_28_">
					<use xlink:href="#XMLID_3_"  style="overflow:visible;"/>
				</clipPath>
				<path class="st5" d="M25.7,11.2c0,0.1,0.1,0.1,0.1,0.2c0,0.2-0.2,0.3-0.3,0.3h-2.6c-0.1,0-0.1,0-0.2-0.1
					c0.1,0.1,0.2,0.2,0.3,0.2h2.6c0.2,0,0.3-0.2,0.3-0.3C25.9,11.4,25.8,11.3,25.7,11.2z"/>
			</g>
		</g>
		<rect x="16.5" y="12.6" class="st6" width="14.5" height="20.6"/>
		<g>
			<defs>
				<path id="XMLID_6_" d="M22.6,16.5h-7.9v-3h7.9c0.2,0,0.3,0.1,0.4,0.2l0.7,1.1c0.1,0.1,0.1,0.3,0,0.5l-0.7,1
					C22.9,16.4,22.7,16.5,22.6,16.5z"/>
			</defs>
			<use xlink:href="#XMLID_6_"  style="overflow:visible;fill:#FF6B6B;"/>
			<clipPath id="XMLID_29_">
				<use xlink:href="#XMLID_6_"  style="overflow:visible;"/>
			</clipPath>
			<rect x="15" y="11.8" transform="matrix(0.9422 0.3351 -0.3351 0.9422 5.7376 -4.2401)" class="st7" width="0.3" height="5.4"/>
			
				<rect x="15.6" y="12.1" transform="matrix(0.9422 0.3351 -0.3351 0.9422 5.8554 -4.4497)" class="st7" width="0.3" height="5.4"/>
			<rect x="13.6" y="11.3" transform="matrix(0.9422 0.3351 -0.3351 0.9422 5.5021 -3.821)" class="st7" width="0.3" height="5.4"/>
			
				<rect x="14.3" y="11.6" transform="matrix(0.9422 0.3351 -0.3351 0.9422 5.6201 -4.0307)" class="st7" width="0.3" height="5.4"/>
			
				<rect x="17.6" y="12.8" transform="matrix(0.9422 0.3351 -0.3351 0.9422 6.2096 -5.0788)" class="st7" width="0.3" height="5.4"/>
			<rect x="18.3" y="13" transform="matrix(0.9422 0.3351 -0.3351 0.9422 6.3276 -5.2885)" class="st7" width="0.3" height="5.4"/>
			
				<rect x="16.3" y="12.3" transform="matrix(0.9422 0.3351 -0.3351 0.9422 5.9734 -4.6594)" class="st7" width="0.3" height="5.4"/>
			<rect x="17" y="12.5" transform="matrix(0.9422 0.3351 -0.3351 0.9422 6.0915 -4.8691)" class="st7" width="0.3" height="5.4"/>
			
				<rect x="20.8" y="12.2" transform="matrix(0.9422 0.3351 -0.3351 0.9422 6.1916 -6.1734)" class="st7" width="0.3" height="5.4"/>
			
				<rect x="21.5" y="12.4" transform="matrix(0.9422 0.3351 -0.3351 0.9422 6.3094 -6.3829)" class="st7" width="0.3" height="5.4"/>
			
				<rect x="19.5" y="11.7" transform="matrix(0.9422 0.3351 -0.3351 0.9422 5.9562 -5.7544)" class="st7" width="0.3" height="5.4"/>
			
				<rect x="20.1" y="11.9" transform="matrix(0.9422 0.3351 -0.3351 0.9422 6.0742 -5.9641)" class="st7" width="0.3" height="5.4"/>
			
				<rect x="23.5" y="13.1" transform="matrix(0.9422 0.3351 -0.3351 0.9422 6.6636 -7.0121)" class="st7" width="0.3" height="5.4"/>
			
				<rect x="24.1" y="13.4" transform="matrix(0.9422 0.3351 -0.3351 0.9422 6.7816 -7.2218)" class="st7" width="0.3" height="5.4"/>
			
				<rect x="22.1" y="12.6" transform="matrix(0.9422 0.3351 -0.3351 0.9422 6.4274 -6.5926)" class="st7" width="0.3" height="5.4"/>
			
				<rect x="22.8" y="12.9" transform="matrix(0.9422 0.3351 -0.3351 0.9422 6.5456 -6.8024)" class="st7" width="0.3" height="5.4"/>
		</g>
		<g>
			
				<image style="overflow:visible;opacity:0.34;" width="11" height="5" xlink:href="58F77251.png"  transform="matrix(1 0 0 1 14.5705 12.5705)">
			</image>
			<g>
				<text transform="matrix(1 -7.120032e-03 7.120032e-03 1 15.7425 15.6223)" class="st8 st9 st10">INSTANT</text>
			</g>
		</g>
		<g>
			<path class="st11" d="M20.6,26.2l-3.4,0c-0.1,0-0.1-0.1-0.1-0.2l1.1-1.3c0,0,0-0.1,0-0.1l-1.1-1.4c-0.1-0.1,0-0.2,0.1-0.2l3.4,0
				c0.1,0,0.1,0,0.1,0.1l0,2.9C20.7,26.2,20.7,26.2,20.6,26.2z"/>
			<polygon class="st12" points="18.1,25.5 20.7,26.2 20.8,24.5 			"/>
			<path class="st11" d="M26.5,26.2l3.4,0c0.1,0,0.1-0.1,0.1-0.2l-1.1-1.3c0,0,0-0.1,0-0.1l1.1-1.4c0.1-0.1,0-0.2-0.1-0.2l-3.4,0
				c-0.1,0-0.1,0-0.1,0.1l0,2.9C26.4,26.2,26.5,26.2,26.5,26.2z"/>
			<polygon class="st12" points="29.1,25.4 26.4,26.2 26.4,24.5 			"/>
			<path class="st13" d="M24.9,17.5L24.9,17.5L24.9,17.5c0.4-0.6,1.3-0.3,1.3,0.4l0,0l0,0c0.6-0.4,1.4,0.1,1.1,0.8l0,0h0
				c0.7-0.2,1.2,0.6,0.8,1.1l0,0l0,0c0.7,0,1,0.9,0.4,1.3l0,0l0,0c0.7,0.2,0.7,1.2,0,1.4l0,0l0,0c0.6,0.4,0.3,1.3-0.4,1.3l0,0l0,0
				c0.4,0.6-0.1,1.4-0.8,1.1h0h0c0.2,0.7-0.6,1.2-1.1,0.8l0,0l0,0c0,0.7-0.9,1-1.3,0.4l0,0l0,0c-0.2,0.7-1.2,0.7-1.4,0l0,0l0,0
				c-0.4,0.6-1.3,0.3-1.3-0.4l0,0l0,0c-0.6,0.4-1.4-0.1-1.1-0.8l0,0l0,0c-0.7,0.2-1.2-0.6-0.8-1.1h0h0c-0.7,0-1-0.9-0.4-1.3l0,0l0,0
				c-0.7-0.2-0.7-1.2,0-1.4l0,0l0,0c-0.6-0.4-0.3-1.3,0.4-1.3h0h0c-0.4-0.6,0.1-1.4,0.8-1.1l0,0v0c-0.2-0.7,0.6-1.2,1.1-0.8l0,0l0,0
				c0-0.7,0.9-1,1.3-0.4l0,0l0,0C23.8,16.9,24.7,16.9,24.9,17.5z"/>
			<g>
				
					<image style="overflow:visible;opacity:0.34;" width="13" height="13" xlink:href="58F77253.png"  transform="matrix(1 0 0 1 17.2098 16.2098)">
				</image>
				<g>
					<path class="st1" d="M24.2,18L24.2,18L24.2,18c0.4-0.6,1.3-0.3,1.3,0.4l0,0l0,0c0.6-0.4,1.4,0.1,1.1,0.8h0h0
						c0.7-0.2,1.2,0.6,0.8,1.1l0,0l0,0c0.7,0,1,0.9,0.4,1.3l0,0l0,0c0.7,0.2,0.7,1.2,0,1.4l0,0l0,0c0.6,0.4,0.3,1.3-0.4,1.3l0,0v0
						c0.4,0.6-0.1,1.4-0.8,1.1h0h0c0.2,0.7-0.6,1.2-1.1,0.8l0,0l0,0c0,0.7-0.9,1-1.3,0.4l0,0l0,0c-0.2,0.7-1.2,0.7-1.4,0l0,0l0,0
						c-0.4,0.6-1.3,0.3-1.3-0.4l0,0l0,0c-0.6,0.4-1.4-0.1-1.1-0.8l0,0l0,0c-0.7,0.2-1.2-0.6-0.8-1.1l0,0h0c-0.7,0-1-0.9-0.4-1.3l0,0
						l0,0c-0.7-0.2-0.7-1.2,0-1.4l0,0l0,0c-0.6-0.4-0.3-1.3,0.4-1.3h0h0c-0.4-0.6,0.1-1.4,0.8-1.1l0,0l0,0c-0.2-0.7,0.6-1.2,1.1-0.8
						l0,0l0,0c0-0.7,0.9-1,1.3-0.4l0,0l0,0C23,17.3,24,17.3,24.2,18z"/>
				</g>
			</g>
			
				<ellipse transform="matrix(0.1584 -0.9874 0.9874 0.1584 -2.4062 42.0864)" class="st14" cx="23.5" cy="22.5" rx="3.9" ry="3.9"/>
			<circle class="st1" cx="23.5" cy="22.5" r="3.5"/>
			
				<rect x="18.1" y="22.5" transform="matrix(1 -5.057808e-03 5.057808e-03 1 -0.1208 0.1195)" class="st15" width="10.9" height="3"/>
			<g>
				
					<image style="overflow:visible;opacity:0.34;" width="13" height="5" xlink:href="58F77256.png"  transform="matrix(1 0 0 1 17.4535 21.4535)">
				</image>
				<g>
					<text transform="matrix(0.9999 -1.217995e-02 1.217995e-02 0.9999 18.6289 24.5532)" class="st8 st9 st16">CASH BACK</text>
				</g>
			</g>
			<g>
				<g>
					<defs>
						<path id="XMLID_9_" d="M24.9,21c0,0.7-0.7,1.3-1.4,1.2s-1.3-0.7-1.2-1.4c0-0.7,0.7-1.3,1.4-1.2c0.4,0,0.7,0.2,0.9,0.4
							C24.8,20.3,24.9,20.6,24.9,21z"/>
					</defs>
					<use xlink:href="#XMLID_9_"  style="overflow:visible;fill:#FF9F43;"/>
					<clipPath id="XMLID_30_">
						<use xlink:href="#XMLID_9_"  style="overflow:visible;"/>
					</clipPath>
					
						<rect x="23" y="19.3" transform="matrix(0.8424 0.5388 -0.5388 0.8424 14.7435 -9.1685)" class="st17" width="0.2" height="2.7"/>
					
						<rect x="23.3" y="19.5" transform="matrix(0.8424 0.5388 -0.5388 0.8424 14.8914 -9.2975)" class="st17" width="0.2" height="2.7"/>
					
						<rect x="22.4" y="18.9" transform="matrix(0.8424 0.5388 -0.5388 0.8424 14.4487 -8.9108)" class="st17" width="0.2" height="2.7"/>
					
						<rect x="22.7" y="19.1" transform="matrix(0.8424 0.5388 -0.5388 0.8424 14.5956 -9.0395)" class="st17" width="0.2" height="2.7"/>
					
						<rect x="24.1" y="20.1" transform="matrix(0.8424 0.5388 -0.5388 0.8424 15.3361 -9.6848)" class="st17" width="0.2" height="2.7"/>
					
						<rect x="24.4" y="20.2" transform="matrix(0.8424 0.5388 -0.5388 0.8424 15.4829 -9.8135)" class="st17" width="0.2" height="2.7"/>
					
						<rect x="23.6" y="19.7" transform="matrix(0.8424 0.5388 -0.5388 0.8424 15.0393 -9.4265)" class="st17" width="0.2" height="2.7"/>
					
						<rect x="23.8" y="19.9" transform="matrix(0.8424 0.5388 -0.5388 0.8424 15.1871 -9.5555)" class="st17" width="0.2" height="2.7"/>
				</g>
				<path class="st18" d="M24.6,21c0,0.6-0.5,1-1.1,1c-0.6,0-1-0.5-1-1.1c0-0.6,0.5-1,1.1-1c0.3,0,0.6,0.2,0.7,0.4
					C24.5,20.4,24.6,20.7,24.6,21z"/>
				<text transform="matrix(0.9982 6.026017e-02 -6.026017e-02 0.9982 23.0742 21.3534)" class="st8 st9 st19">$</text>
			</g>
		</g>
		<g>
			<defs>
				<path id="XMLID_7_" d="M24.2,28.7h8.7v3h-8.7c-0.2,0-0.3-0.1-0.4-0.2l-0.7-1.1c-0.1-0.1-0.1-0.3,0-0.5l0.7-1
					C23.9,28.8,24.1,28.7,24.2,28.7z"/>
			</defs>
			<use xlink:href="#XMLID_7_"  style="overflow:visible;fill:#FF6B6B;"/>
			<clipPath id="XMLID_32_">
				<use xlink:href="#XMLID_7_"  style="overflow:visible;"/>
			</clipPath>
			
				<rect x="23.9" y="27" transform="matrix(0.9422 0.3351 -0.3351 0.9422 11.3304 -6.3528)" class="st20" width="0.3" height="5.4"/>
			
				<rect x="24.6" y="27.2" transform="matrix(0.9422 0.3351 -0.3351 0.9422 11.448 -6.5623)" class="st20" width="0.3" height="5.4"/>
			
				<rect x="22.6" y="26.5" transform="matrix(0.9422 0.3351 -0.3351 0.9422 11.0954 -5.9338)" class="st20" width="0.3" height="5.4"/>
			
				<rect x="23.2" y="26.7" transform="matrix(0.9422 0.3351 -0.3351 0.9422 11.2134 -6.1435)" class="st20" width="0.3" height="5.4"/>
			
				<rect x="26.6" y="27.9" transform="matrix(0.9422 0.3351 -0.3351 0.9422 11.8024 -7.1915)" class="st20" width="0.3" height="5.4"/>
			
				<rect x="27.2" y="28.2" transform="matrix(0.9422 0.3351 -0.3351 0.9422 11.9204 -7.4012)" class="st20" width="0.3" height="5.4"/>
			
				<rect x="25.2" y="27.4" transform="matrix(0.9422 0.3351 -0.3351 0.9422 11.566 -6.772)" class="st20" width="0.3" height="5.4"/>
			
				<rect x="25.9" y="27.7" transform="matrix(0.9422 0.3351 -0.3351 0.9422 11.6844 -6.9818)" class="st20" width="0.3" height="5.4"/>
			
				<rect x="29.7" y="27.3" transform="matrix(0.9422 0.3351 -0.3351 0.9422 11.7845 -8.286)" class="st20" width="0.3" height="5.4"/>
			
				<rect x="30.4" y="27.6" transform="matrix(0.9422 0.3351 -0.3351 0.9422 11.9021 -8.4955)" class="st20" width="0.3" height="5.4"/>
			
				<rect x="28.4" y="26.8" transform="matrix(0.9422 0.3351 -0.3351 0.9422 11.5496 -7.8672)" class="st20" width="0.3" height="5.4"/>
			
				<rect x="29.1" y="27.1" transform="matrix(0.9422 0.3351 -0.3351 0.9422 11.6676 -8.0769)" class="st20" width="0.3" height="5.4"/>
			
				<rect x="32.4" y="28.3" transform="matrix(0.9422 0.3351 -0.3351 0.9422 12.2565 -9.1248)" class="st20" width="0.3" height="5.4"/>
			
				<rect x="33.1" y="28.5" transform="matrix(0.9422 0.3351 -0.3351 0.9422 12.3745 -9.3344)" class="st20" width="0.3" height="5.4"/>
			
				<rect x="31.1" y="27.8" transform="matrix(0.9422 0.3351 -0.3351 0.9422 12.0201 -8.7052)" class="st20" width="0.3" height="5.4"/>
			
				<rect x="31.7" y="28" transform="matrix(0.9422 0.3351 -0.3351 0.9422 12.1384 -8.9151)" class="st20" width="0.3" height="5.4"/>
		</g>
		<g>
			
				<image style="overflow:visible;opacity:0.34;" width="12" height="6" xlink:href="58F77257.png"  transform="matrix(1 0 0 1 22.5705 27.5705)">
			</image>
			<g>
				<text transform="matrix(1 -7.120032e-03 7.120032e-03 1 24.1244 30.6792)" class="st8 st9 st10">UP TO 50%</text>
			</g>
		</g>
	</g>
	<g id="credit_card">
		<g>
			<g>
				<defs>
					<path id="XMLID_12_" d="M13.5,30.5L5.3,33c-1.7,0.5-3.5-0.5-4-2.1L0,26.5c-0.2-0.6,0.2-1.2,0.8-1.4L11,22L13.5,30.5z"/>
				</defs>
				<use xlink:href="#XMLID_12_"  style="overflow:visible;fill:#EE5253;"/>
				<clipPath id="XMLID_33_">
					<use xlink:href="#XMLID_12_"  style="overflow:visible;"/>
				</clipPath>
				<rect x="-0.7" y="24.9" transform="matrix(0.957 -0.29 0.29 0.957 -7.1501 2.7516)" class="st21" width="12.9" height="1.2"/>
			</g>
			<rect x="1.3" y="26.8" transform="matrix(0.957 -0.29 0.29 0.957 -7.73 3.0727)" class="st6" width="10.4" height="1.6"/>
			<g>
				<rect x="9.2" y="26.3" transform="matrix(0.957 -0.29 0.29 0.957 -7.3211 3.9316)" class="st22" width="0.8" height="0.8"/>
				<rect x="10.2" y="26" transform="matrix(0.957 -0.29 0.29 0.957 -7.19 4.2091)" class="st22" width="0.8" height="0.8"/>
			</g>
		</g>
		<g>
			<g>
				<defs>
					<path id="XMLID_10_" d="M13.7,35H5.5c-1.7,0-3-1.4-3-3v-2.3c0-1.7,1.4-3,3-3h5.1c1.7,0,3,1.4,3,3V35z"/>
				</defs>
				<use xlink:href="#XMLID_10_"  style="overflow:visible;fill:#283949;"/>
				<clipPath id="XMLID_34_">
					<use xlink:href="#XMLID_10_"  style="overflow:visible;"/>
				</clipPath>
				<rect x="1.3" y="27.9" class="st23" width="12.9" height="1.2"/>
			</g>
			<g>
				<defs>
					<path id="XMLID_11_" d="M4.4,32.6H3.6c-0.2,0-0.3,0.1-0.3,0.3v0.9c0,0.2,0.1,0.3,0.3,0.3h1.3c0.2,0,0.3-0.1,0.3-0.3v-0.5
						c0-0.1-0.1-0.2-0.1-0.3l-0.5-0.3C4.5,32.6,4.5,32.6,4.4,32.6z"/>
				</defs>
				<use xlink:href="#XMLID_11_"  style="overflow:visible;fill:#FECA57;"/>
				<clipPath id="XMLID_35_">
					<use xlink:href="#XMLID_11_"  style="overflow:visible;"/>
				</clipPath>
				<rect x="3.5" y="32.3" class="st24" width="0.1" height="1.8"/>
				
					<rect x="4.4" y="32.2" transform="matrix(-1.836970e-16 1 -1 -1.836970e-16 37.5337 28.6917)" class="st24" width="0.1" height="1.8"/>
				
					<rect x="4.4" y="32.7" transform="matrix(-1.836970e-16 1 -1 -1.836970e-16 38.024 29.1066)" class="st24" width="0.1" height="1.8"/>
			</g>
			<rect x="3.3" y="31.3" class="st6" width="5.7" height="0.7"/>
			<rect x="3.3" y="30.3" class="st6" width="6.8" height="0.7"/>
			<g>
				<circle class="st1" cx="11.4" cy="33.3" r="0.6"/>
				<circle class="st14" cx="12.2" cy="33.3" r="0.6"/>
			</g>
		</g>
	</g>
	<g id="wallet">
		<g>
			
				<rect x="37.1" y="25.5" transform="matrix(0.8013 -0.5982 0.5982 0.8013 -8.2922 30.8556)" class="st25" width="10.4" height="4.8"/>
			<circle class="st26" cx="42.3" cy="28" r="1.5"/>
			<text transform="matrix(0.7656 -0.6433 0.6433 0.7656 42.3203 28.9638)" class="st8 st9 st27">$</text>
			<g>
				<defs>
					
						<rect id="XMLID_22_" x="37.4" y="25.7" transform="matrix(0.8013 -0.5982 0.5982 0.8013 -8.2837 30.8737)" width="9.9" height="4.3"/>
				</defs>
				<clipPath id="XMLID_36_">
					<use xlink:href="#XMLID_22_"  style="overflow:visible;"/>
				</clipPath>
				<path class="st28" d="M38.2,28.3c0.4,0.5,0.3,1.3-0.3,1.7c-0.5,0.4-1.3,0.3-1.7-0.3c-0.4-0.5-0.3-1.3,0.3-1.7
					C37,27.6,37.8,27.7,38.2,28.3z"/>
				<circle class="st28" cx="39.9" cy="32.6" r="1.2"/>
				<path class="st28" d="M45.8,22.7c0.4,0.5,0.3,1.3-0.3,1.7c-0.5,0.4-1.3,0.3-1.7-0.3c-0.4-0.5-0.3-1.3,0.3-1.7
					C44.6,22,45.4,22.1,45.8,22.7z"/>
				
					<ellipse transform="matrix(6.335912e-02 -0.998 0.998 6.335912e-02 17.5117 72.6919)" class="st28" cx="47.5" cy="27" rx="1.2" ry="1.2"/>
				<use xlink:href="#XMLID_22_"  style="overflow:visible;fill:none;stroke:#6AB04C;stroke-width:0.25;stroke-miterlimit:10;"/>
			</g>
			<path class="st26" d="M44.5,26.4c0.2,0.2,0.1,0.5-0.1,0.7c-0.2,0.2-0.5,0.1-0.7-0.1c-0.2-0.2-0.1-0.5,0.1-0.7
				C44.1,26.1,44.4,26.2,44.5,26.4z"/>
			<path class="st26" d="M40.9,29.1c0.2,0.2,0.1,0.5-0.1,0.7c-0.2,0.2-0.5,0.1-0.7-0.1C40,29.4,40,29.1,40.2,29
				C40.4,28.8,40.7,28.9,40.9,29.1z"/>
		</g>
		<g>
			
				<rect x="36.5" y="21.9" transform="matrix(0.5924 -0.8056 0.8056 0.5924 -2.5624 43.4529)" class="st25" width="10.4" height="4.8"/>
			<circle class="st26" cx="41.7" cy="24.3" r="1.5"/>
			<text transform="matrix(0.5451 -0.8384 0.8384 0.5451 41.9853 25.2608)" class="st8 st9 st27">$</text>
			<g>
				<defs>
					
						<rect id="XMLID_21_" x="36.8" y="22.1" transform="matrix(0.5924 -0.8056 0.8056 0.5924 -2.5403 43.4711)" width="9.9" height="4.3"/>
				</defs>
				<clipPath id="XMLID_37_">
					<use xlink:href="#XMLID_21_"  style="overflow:visible;"/>
				</clipPath>
				<circle class="st29" cx="37.1" cy="26.8" r="1.2"/>
				<circle class="st29" cx="40.7" cy="29.4" r="1.2"/>
				<circle class="st29" cx="42.7" cy="19.2" r="1.2"/>
				<path class="st29" d="M47.1,20.9c0.5,0.4,0.7,1.2,0.3,1.7c-0.4,0.5-1.2,0.7-1.7,0.3c-0.5-0.4-0.7-1.2-0.3-1.7
					C45.8,20.6,46.5,20.5,47.1,20.9z"/>
				<use xlink:href="#XMLID_21_"  style="overflow:visible;fill:none;stroke:#6AB04C;stroke-width:0.25;stroke-miterlimit:10;"/>
			</g>
			<path class="st26" d="M43.3,22.1c0.2,0.2,0.3,0.4,0.1,0.6C43.3,23,43,23,42.8,22.9c-0.2-0.2-0.3-0.4-0.1-0.6
				C42.8,22,43.1,22,43.3,22.1z"/>
			<path class="st26" d="M40.6,25.8c0.2,0.2,0.3,0.4,0.1,0.6c-0.2,0.2-0.4,0.3-0.6,0.1c-0.2-0.2-0.3-0.4-0.1-0.6
				C40.2,25.7,40.4,25.6,40.6,25.8z"/>
		</g>
		<g>
			<g>
				<defs>
					<path id="XMLID_20_" d="M41,23.4c0.5,1,0,2.1-0.9,2.6c-1,0.5-2.1,0-2.6-0.9c-0.5-1,0-2.1,0.9-2.6c0.5-0.2,1-0.2,1.5-0.1
						C40.4,22.5,40.8,22.9,41,23.4z"/>
				</defs>
				<use xlink:href="#XMLID_20_"  style="overflow:visible;fill:#FCBD3D;"/>
				<clipPath id="XMLID_38_">
					<use xlink:href="#XMLID_20_"  style="overflow:visible;"/>
				</clipPath>
				
					<rect x="38.3" y="22.2" transform="matrix(0.9975 7.033471e-02 -7.033471e-02 0.9975 1.798 -2.641)" class="st30" width="0.3" height="3.9"/>
				
					<rect x="38.8" y="22.3" transform="matrix(0.9975 7.033471e-02 -7.033471e-02 0.9975 1.8019 -2.6775)" class="st30" width="0.3" height="3.9"/>
				
					<rect x="37.2" y="22.2" transform="matrix(0.9975 7.037632e-02 -7.037632e-02 0.9975 1.7914 -2.5696)" class="st30" width="0.3" height="3.9"/>
				
					<rect x="37.8" y="22.2" transform="matrix(0.9975 7.037632e-02 -7.037632e-02 0.9975 1.7952 -2.6061)" class="st30" width="0.3" height="3.9"/>
				
					<rect x="40.4" y="22.4" transform="matrix(0.9975 7.033471e-02 -7.033471e-02 0.9975 1.8134 -2.7868)" class="st30" width="0.3" height="3.9"/>
				
					<rect x="40.9" y="22.4" transform="matrix(0.9975 7.033177e-02 -7.033177e-02 0.9975 1.8172 -2.8231)" class="st30" width="0.3" height="3.9"/>
				
					<rect x="39.3" y="22.3" transform="matrix(0.9975 7.033441e-02 -7.033441e-02 0.9975 1.8057 -2.7139)" class="st30" width="0.3" height="3.9"/>
				
					<rect x="39.8" y="22.3" transform="matrix(0.9975 7.033471e-02 -7.033471e-02 0.9975 1.8096 -2.7503)" class="st30" width="0.3" height="3.9"/>
			</g>
			<g>
				<defs>
					<path id="XMLID_17_" d="M40.7,23.5c0.4,0.8,0,1.7-0.8,2.1c-0.8,0.4-1.7,0-2.1-0.8c-0.4-0.8,0-1.7,0.8-2.1
						c0.4-0.2,0.8-0.2,1.2-0.1C40.2,22.9,40.5,23.1,40.7,23.5z"/>
				</defs>
				<use xlink:href="#XMLID_17_"  style="overflow:visible;fill:#FECA57;"/>
				<clipPath id="XMLID_39_">
					<use xlink:href="#XMLID_17_"  style="overflow:visible;"/>
				</clipPath>
				<path class="st31" d="M40.8,23.7c-0.2-0.4-0.5-0.6-0.8-0.8c0.2,0.2,0.4,0.4,0.5,0.6c0.4,0.8,0,1.7-0.8,2.1
					c-0.4,0.2-0.9,0.2-1.3,0c0.5,0.3,1.1,0.4,1.6,0.2C40.9,25.4,41.2,24.4,40.8,23.7z"/>
			</g>
			<text transform="matrix(0.9055 -0.4244 0.4244 0.9055 38.957 25.152)" class="st8 st9 st32">$</text>
		</g>
		<g>
			<g>
				<defs>
					<path id="XMLID_16_" d="M41.9,26.8c0,1.1-1,1.9-2.1,1.9c-1.1,0-1.9-1-1.9-2.1c0-1.1,1-1.9,2.1-1.9c0.5,0,1,0.3,1.4,0.6
						C41.7,25.8,41.9,26.3,41.9,26.8z"/>
				</defs>
				<use xlink:href="#XMLID_16_"  style="overflow:visible;fill:#FCBD3D;"/>
				<clipPath id="XMLID_40_">
					<use xlink:href="#XMLID_16_"  style="overflow:visible;"/>
				</clipPath>
				
					<rect x="39" y="24.4" transform="matrix(0.8501 0.5267 -0.5267 0.8501 19.7355 -16.6727)" class="st33" width="0.3" height="3.9"/>
				
					<rect x="39.5" y="24.6" transform="matrix(0.8501 0.5267 -0.5267 0.8501 19.9461 -16.8646)" class="st33" width="0.3" height="3.9"/>
				
					<rect x="38.1" y="23.8" transform="matrix(0.8501 0.5267 -0.5267 0.8501 19.3139 -16.2887)" class="st33" width="0.3" height="3.9"/>
				
					<rect x="38.6" y="24.1" transform="matrix(0.8501 0.5267 -0.5267 0.8501 19.5247 -16.4807)" class="st33" width="0.3" height="3.9"/>
				
					<rect x="40.8" y="25.4" transform="matrix(0.8501 0.5267 -0.5267 0.8501 20.577 -17.4399)" class="st33" width="0.3" height="3.9"/>
				
					<rect x="41.2" y="25.7" transform="matrix(0.8501 0.5267 -0.5267 0.8501 20.7878 -17.6318)" class="st33" width="0.3" height="3.9"/>
				
					<rect x="39.9" y="24.9" transform="matrix(0.8501 0.5267 -0.5267 0.8501 20.157 -17.0566)" class="st33" width="0.3" height="3.9"/>
				
					<rect x="40.3" y="25.2" transform="matrix(0.8501 0.5267 -0.5267 0.8501 20.3678 -17.2486)" class="st33" width="0.3" height="3.9"/>
			</g>
			<g>
				<defs>
					<path id="XMLID_13_" d="M41.5,26.8c0,0.9-0.8,1.6-1.7,1.5s-1.6-0.8-1.5-1.7c0-0.9,0.8-1.6,1.7-1.5c0.4,0,0.8,0.2,1.1,0.5
						S41.5,26.4,41.5,26.8z"/>
				</defs>
				<use xlink:href="#XMLID_13_"  style="overflow:visible;fill:#FECA57;"/>
				<clipPath id="XMLID_41_">
					<use xlink:href="#XMLID_13_"  style="overflow:visible;"/>
				</clipPath>
				<path class="st34" d="M41.6,27c0-0.4-0.1-0.8-0.4-1.1c0.1,0.2,0.2,0.5,0.2,0.8c0,0.9-0.8,1.6-1.7,1.5c-0.5,0-0.9-0.2-1.1-0.6
					c0.2,0.5,0.8,0.9,1.4,0.9C40.8,28.5,41.5,27.8,41.6,27z"/>
			</g>
			<text transform="matrix(0.9989 4.598010e-02 -4.598010e-02 0.9989 39.2075 27.4094)" class="st8 st9 st32">$</text>
		</g>
		<g>
			<g>
				<defs>
					<path id="XMLID_19_" d="M38.9,26.2c0,1.1-1,1.9-2.1,1.9c-1.1,0-1.9-1-1.9-2.1s1-1.9,2.1-1.9c0.5,0,1,0.3,1.4,0.6
						S38.9,25.6,38.9,26.2z"/>
				</defs>
				<use xlink:href="#XMLID_19_"  style="overflow:visible;fill:#FCBD3D;"/>
				<clipPath id="XMLID_42_">
					<use xlink:href="#XMLID_19_"  style="overflow:visible;"/>
				</clipPath>
				
					<rect x="36.1" y="23.7" transform="matrix(0.8501 0.5267 -0.5267 0.8501 18.9559 -15.2221)" class="st35" width="0.3" height="3.9"/>
				
					<rect x="36.5" y="24" transform="matrix(0.8501 0.5267 -0.5267 0.8501 19.1667 -15.4141)" class="st35" width="0.3" height="3.9"/>
				
					<rect x="35.2" y="23.2" transform="matrix(0.8501 0.5267 -0.5267 0.8501 18.5344 -14.8382)" class="st35" width="0.3" height="3.9"/>
				
					<rect x="35.6" y="23.4" transform="matrix(0.8501 0.5267 -0.5267 0.8501 18.7452 -15.0302)" class="st35" width="0.3" height="3.9"/>
				
					<rect x="37.9" y="24.8" transform="matrix(0.8501 0.5267 -0.5267 0.8501 19.7991 -15.9901)" class="st35" width="0.3" height="3.9"/>
				
					<rect x="38.3" y="25.1" transform="matrix(0.8501 0.5267 -0.5267 0.8501 20.0098 -16.182)" class="st35" width="0.3" height="3.9"/>
				
					<rect x="37" y="24.3" transform="matrix(0.8501 0.5267 -0.5267 0.8501 19.3775 -15.6061)" class="st35" width="0.3" height="3.9"/>
				
					<rect x="37.4" y="24.5" transform="matrix(0.8501 0.5267 -0.5267 0.8501 19.5883 -15.7981)" class="st35" width="0.3" height="3.9"/>
			</g>
			<g>
				<defs>
					<path id="XMLID_18_" d="M38.5,26.2c0,0.9-0.8,1.6-1.7,1.5c-0.9,0-1.6-0.8-1.5-1.7s0.8-1.6,1.7-1.5c0.4,0,0.8,0.2,1.1,0.5
						C38.4,25.3,38.6,25.7,38.5,26.2z"/>
				</defs>
				<use xlink:href="#XMLID_18_"  style="overflow:visible;fill:#FECA57;"/>
				<clipPath id="XMLID_43_">
					<use xlink:href="#XMLID_18_"  style="overflow:visible;"/>
				</clipPath>
				<path class="st36" d="M38.6,26.3c0-0.4-0.1-0.8-0.4-1.1c0.1,0.2,0.2,0.5,0.2,0.8c0,0.9-0.8,1.6-1.7,1.5c-0.5,0-0.9-0.2-1.1-0.6
					c0.2,0.5,0.8,0.9,1.4,0.9C37.8,27.9,38.6,27.2,38.6,26.3z"/>
			</g>
			<text transform="matrix(0.9989 4.598010e-02 -4.598010e-02 0.9989 36.2721 26.766)" class="st8 st9 st32">$</text>
		</g>
		<g>
			<path class="st37" d="M45.6,30.1c0,0,2.5-0.1,2.4,1.7C48,33.6,44.1,32.3,45.6,30.1z"/>
			<g>
				<defs>
					<polygon id="XMLID_14_" points="47.1,36.5 34.1,36.5 34.1,26.5 34.1,26.5 47.1,26.5 47.1,26.5 					"/>
				</defs>
				<use xlink:href="#XMLID_14_"  style="overflow:visible;fill:#C66936;"/>
				<clipPath id="XMLID_44_">
					<use xlink:href="#XMLID_14_"  style="overflow:visible;"/>
				</clipPath>
				<path class="st38" d="M43.3,36.2l-5.4,0c-1.8,0-3.3-1.5-3.3-3.3l0-2.5c0-1.8,1.5-3.3,3.3-3.3l5.4,0c1.8,0,3.3,1.5,3.3,3.3l0,2.5
					C46.6,34.7,45.1,36.2,43.3,36.2z"/>
				<rect x="33.7" y="25.8" class="st39" width="3.2" height="12.1"/>
			</g>
			<path class="st40" d="M47,32.8l-2.4,0c-0.6,0-1-0.5-1-1l0,0c0-0.6,0.5-1,1-1l2.4,0c0.6,0,1,0.5,1,1l0,0
				C48.1,32.3,47.6,32.8,47,32.8z"/>
			<g>
				<defs>
					<path id="XMLID_15_" d="M45.3,31.8c0,0.3-0.2,0.5-0.5,0.5c-0.3,0-0.5-0.2-0.5-0.5c0-0.3,0.2-0.5,0.5-0.5
						C45.1,31.3,45.3,31.5,45.3,31.8z"/>
				</defs>
				<use xlink:href="#XMLID_15_"  style="overflow:visible;fill:#FECA57;"/>
				<clipPath id="XMLID_45_">
					<use xlink:href="#XMLID_15_"  style="overflow:visible;"/>
				</clipPath>
				<path class="st41" d="M45,31.3c0.1,0.1,0.2,0.2,0.2,0.4c0,0.3-0.2,0.5-0.5,0.5c-0.1,0-0.1,0-0.2,0c0.1,0.1,0.2,0.1,0.3,0.1
					c0.3,0,0.5-0.2,0.5-0.5C45.3,31.6,45.2,31.4,45,31.3z"/>
			</g>
		</g>
		<g>
			<g>
				<defs>
					<path id="XMLID_24_" d="M43.3,15.5c0.5,1,0,2.1-0.9,2.6c-1,0.5-2.1,0-2.6-0.9c-0.5-1,0-2.1,0.9-2.6c0.5-0.2,1-0.2,1.5-0.1
						C42.7,14.6,43.1,15,43.3,15.5z"/>
				</defs>
				<use xlink:href="#XMLID_24_"  style="overflow:visible;fill:#FCBD3D;"/>
				<clipPath id="XMLID_46_">
					<use xlink:href="#XMLID_24_"  style="overflow:visible;"/>
				</clipPath>
				
					<rect x="40.5" y="14.3" transform="matrix(0.9975 7.033177e-02 -7.033177e-02 0.9975 1.2472 -2.8205)" class="st42" width="0.3" height="3.9"/>
				
					<rect x="41.1" y="14.4" transform="matrix(0.9975 7.033177e-02 -7.033177e-02 0.9975 1.2511 -2.8569)" class="st42" width="0.3" height="3.9"/>
				
					<rect x="39.5" y="14.3" transform="matrix(0.9975 7.033177e-02 -7.033177e-02 0.9975 1.2395 -2.7476)" class="st42" width="0.3" height="3.9"/>
				
					<rect x="40" y="14.3" transform="matrix(0.9975 7.033207e-02 -7.033207e-02 0.9975 1.2434 -2.7841)" class="st42" width="0.3" height="3.9"/>
				
					<rect x="42.6" y="14.5" transform="matrix(0.9975 7.033177e-02 -7.033177e-02 0.9975 1.2627 -2.9662)" class="st42" width="0.3" height="3.9"/>
				
					<rect x="43.1" y="14.5" transform="matrix(0.9975 7.033177e-02 -7.033177e-02 0.9975 1.2665 -3.0026)" class="st42" width="0.3" height="3.9"/>
				
					<rect x="41.6" y="14.4" transform="matrix(0.9975 7.033177e-02 -7.033177e-02 0.9975 1.2549 -2.8933)" class="st42" width="0.3" height="3.9"/>
				
					<rect x="42.1" y="14.4" transform="matrix(0.9975 7.033146e-02 -7.033146e-02 0.9975 1.2588 -2.9298)" class="st42" width="0.3" height="3.9"/>
			</g>
			<g>
				<defs>
					<path id="XMLID_23_" d="M43,15.6c0.4,0.8,0,1.7-0.8,2.1s-1.7,0-2.1-0.8c-0.4-0.8,0-1.7,0.8-2.1c0.4-0.2,0.8-0.2,1.2-0.1
						C42.4,15,42.8,15.2,43,15.6z"/>
				</defs>
				<use xlink:href="#XMLID_23_"  style="overflow:visible;fill:#FECA57;"/>
				<clipPath id="XMLID_47_">
					<use xlink:href="#XMLID_23_"  style="overflow:visible;"/>
				</clipPath>
				<path class="st43" d="M43.1,15.7c-0.2-0.4-0.5-0.6-0.8-0.8c0.2,0.2,0.4,0.4,0.5,0.6c0.4,0.8,0,1.7-0.8,2.1
					c-0.4,0.2-0.9,0.2-1.3,0c0.5,0.3,1.1,0.4,1.6,0.2C43.1,17.5,43.5,16.5,43.1,15.7z"/>
			</g>
			<text transform="matrix(0.9055 -0.4244 0.4244 0.9055 41.2315 17.2407)" class="st8 st9 st32">$</text>
		</g>
		<g>
			<g>
				<defs>
					<path id="XMLID_26_" d="M39,15.2c-0.2,1.1-1.2,1.8-2.3,1.6c-1.1-0.2-1.8-1.2-1.6-2.3c0.2-1.1,1.2-1.8,2.3-1.6
						c0.5,0.1,1,0.4,1.3,0.8C39,14.1,39.1,14.7,39,15.2z"/>
				</defs>
				<use xlink:href="#XMLID_26_"  style="overflow:visible;fill:#FCBD3D;"/>
				<clipPath id="XMLID_48_">
					<use xlink:href="#XMLID_26_"  style="overflow:visible;"/>
				</clipPath>
				
					<rect x="36.2" y="12.4" transform="matrix(0.7765 0.6301 -0.6301 0.7765 17.1764 -19.7067)" class="st44" width="0.3" height="3.9"/>
				
					<rect x="36.6" y="12.7" transform="matrix(0.7765 0.6301 -0.6301 0.7765 17.4743 -19.8886)" class="st44" width="0.3" height="3.9"/>
				
					<rect x="35.4" y="11.7" transform="matrix(0.7765 0.6301 -0.6301 0.7765 16.5821 -19.3437)" class="st44" width="0.3" height="3.9"/>
				
					<rect x="35.8" y="12.1" transform="matrix(0.7765 0.6301 -0.6301 0.7765 16.8783 -19.5246)" class="st44" width="0.3" height="3.9"/>
				
					<rect x="37.9" y="13.7" transform="matrix(0.7765 0.6301 -0.6301 0.7765 18.3655 -20.4329)" class="st44" width="0.3" height="3.9"/>
				
					<rect x="38.3" y="14" transform="matrix(0.7765 0.6301 -0.6301 0.7765 18.6605 -20.6132)" class="st44" width="0.3" height="3.9"/>
				
					<rect x="37" y="13" transform="matrix(0.7765 0.6301 -0.6301 0.7765 17.7704 -20.0695)" class="st44" width="0.3" height="3.9"/>
				
					<rect x="37.5" y="13.4" transform="matrix(0.7765 0.6301 -0.6301 0.7765 18.0675 -20.2509)" class="st44" width="0.3" height="3.9"/>
			</g>
			<g>
				<defs>
					<path id="XMLID_25_" d="M38.6,15.1c-0.2,0.9-1,1.4-1.8,1.3c-0.9-0.2-1.4-1-1.3-1.8c0.2-0.9,1-1.4,1.8-1.3
						c0.4,0.1,0.8,0.3,1,0.7C38.6,14.3,38.7,14.7,38.6,15.1z"/>
				</defs>
				<use xlink:href="#XMLID_25_"  style="overflow:visible;fill:#FECA57;"/>
				<clipPath id="XMLID_49_">
					<use xlink:href="#XMLID_25_"  style="overflow:visible;"/>
				</clipPath>
				<path class="st45" d="M38.7,15.3c0.1-0.4,0-0.8-0.2-1.1c0.1,0.2,0.1,0.5,0.1,0.8c-0.2,0.9-1,1.4-1.8,1.3
					c-0.5-0.1-0.8-0.4-1.1-0.7c0.2,0.5,0.6,0.9,1.2,1C37.7,16.7,38.5,16.2,38.7,15.3z"/>
			</g>
			<text transform="matrix(0.9851 0.1721 -0.1721 0.9851 35.9629 15.4488)" class="st8 st9 st32">€</text>
		</g>
		<g>
			<g>
				<defs>
					<path id="XMLID_31_" d="M44.4,11.5c-0.5,0.9-1.7,1.3-2.7,0.8c-0.9-0.5-1.3-1.7-0.8-2.7c0.5-0.9,1.7-1.3,2.7-0.8
						c0.5,0.3,0.8,0.7,0.9,1.2C44.7,10.5,44.7,11,44.4,11.5z"/>
				</defs>
				<use xlink:href="#XMLID_31_"  style="overflow:visible;fill:#FCBD3D;"/>
				<clipPath id="XMLID_50_">
					<use xlink:href="#XMLID_31_"  style="overflow:visible;"/>
				</clipPath>
				
					<rect x="42.1" y="7.9" transform="matrix(0.5281 0.8492 -0.8492 0.5281 28.2608 -31.2035)" class="st46" width="0.3" height="3.9"/>
				
					<rect x="42.4" y="8.3" transform="matrix(0.5281 0.8492 -0.8492 0.5281 28.7671 -31.2287)" class="st46" width="0.3" height="3.9"/>
				
					<rect x="41.5" y="7" transform="matrix(0.5281 0.8492 -0.8492 0.5281 27.2491 -31.1534)" class="st46" width="0.3" height="3.9"/>
				
					<rect x="41.8" y="7.4" transform="matrix(0.5281 0.8492 -0.8492 0.5281 27.7542 -31.1782)" class="st46" width="0.3" height="3.9"/>
				
					<rect x="43.2" y="9.6" transform="matrix(0.5281 0.8492 -0.8492 0.5281 30.2814 -31.3029)" class="st46" width="0.3" height="3.9"/>
				
					<rect x="43.5" y="10.1" transform="matrix(0.5281 0.8492 -0.8492 0.5281 30.7852 -31.3273)" class="st46" width="0.3" height="3.9"/>
				
					<rect x="42.6" y="8.7" transform="matrix(0.5281 0.8492 -0.8492 0.5281 29.2712 -31.2532)" class="st46" width="0.3" height="3.9"/>
				
					<rect x="42.9" y="9.2" transform="matrix(0.5281 0.8492 -0.8492 0.5281 29.7764 -31.2781)" class="st46" width="0.3" height="3.9"/>
			</g>
			<g>
				<defs>
					<path id="XMLID_27_" d="M44.1,11.3c-0.4,0.8-1.4,1-2.2,0.6c-0.8-0.4-1-1.4-0.6-2.2c0.4-0.8,1.4-1,2.2-0.6
						c0.4,0.2,0.6,0.6,0.8,1S44.3,10.9,44.1,11.3z"/>
				</defs>
				<use xlink:href="#XMLID_27_"  style="overflow:visible;fill:#FECA57;"/>
				<clipPath id="XMLID_51_">
					<use xlink:href="#XMLID_27_"  style="overflow:visible;"/>
				</clipPath>
				<path class="st47" d="M44.1,11.5c0.2-0.4,0.2-0.8,0.2-1.1c0,0.3-0.1,0.5-0.2,0.8c-0.4,0.8-1.4,1-2.2,0.6c-0.4-0.2-0.7-0.6-0.8-1
					c0,0.6,0.3,1.1,0.8,1.4C42.7,12.5,43.7,12.2,44.1,11.5z"/>
			</g>
			<text transform="matrix(0.8748 0.4844 -0.4844 0.8748 41.7699 10.8286)" class="st8 st9 st32">£</text>
		</g>
	</g>
	<g id="arrow">
		<path class="st48" d="M38.7,38.2c-3.5,4.3-9.2,6.6-15.2,6.6c-6.2,0-11.7-3-15.2-7.6"/>
		<path class="st49" d="M7.9,37c0-0.1,0.1-0.2,0.2-0.2l0.7,0.2l0.7,0.2c0.1,0,0.1,0.2,0,0.2l-0.6,0.5l-0.6,0.5
			c-0.1,0.1-0.2,0-0.2-0.1l-0.2-0.8L7.9,37z"/>
	</g>
	<g id="arrow_1_">
		<path class="st48" d="M8.8,9.8C12.3,5.5,18,3.2,24,3.2c6.2,0,11.7,3,15.2,7.6"/>
		<path class="st49" d="M39.6,11c0,0.1-0.1,0.2-0.2,0.2l-0.7-0.2l-0.7-0.2c-0.1,0-0.1-0.2,0-0.2l0.6-0.5L39,9.4
			c0.1-0.1,0.2,0,0.2,0.1l0.2,0.8L39.6,11z"/>
	</g>
</g>
</svg>
