<?xml version="1.0" encoding="utf-8"?>
<!-- Generator: Adobe Illustrator 25.2.1, SVG Export Plug-In . SVG Version: 6.00 Build 0)  -->
<svg version="1.1" id="Layer_1" xmlns="http://www.w3.org/2000/svg" xmlns:xlink="http://www.w3.org/1999/xlink" x="0px" y="0px"
	 viewBox="0 0 48 48" style="enable-background:new 0 0 48 48;" xml:space="preserve">
<style type="text/css">
	.st0{fill:#FDBAA0;}
	.st1{opacity:0.5;}
	.st2{fill:#F18E7B;}
	.st3{opacity:0.5;fill:#F07B7E;}
	.st4{fill:#FFFFFF;}
	.st5{fill:#383463;}
	.st6{fill:#84C874;}
	.st7{fill:#9BD78E;}
	.st8{fill:#FFC6B2;}
	.st9{fill:#CFE6FF;}
	.st10{fill:#FF6576;}
	.st11{fill:#FF536A;}
	.st12{fill:#F07B7E;}
</style>
<g>
	<g>
		<g>
			<g>
				<g>
					<g>
						<g>
							<g>
								<path class="st0" d="M34.1,16c-1.7,1.5-5.8,3.4-6.4,6.2c-1.8,8.4-4.5,7.6-5.2,8.6c-1.3,1.8,0.4,16.5,0.2,17.6H11
									c0.1-0.3,1.5-19.3,0.4-22.5c-0.7-2-0.3-2-0.4-4.9c0,0,1.7-0.7,3.7-2.8c2-2.1,3.3-4.6,4.1-7.3c0.6-2,1.8-2.9,2.7-4.2
									c0.9-1.3,1.9-2.6,2.8-3.7c1.5-1.8,3.1-0.5,2.4,1.2c-1.3,3.2-5,8.6-4.3,8.6c0.4,0,2.7-2.4,4.4-5.4c1.4-2.5,4.1-6.1,5.4-5.2
									c1,0.7,0.7,1.7-2.8,6.8c-2.1,3-4.7,6.8-4.2,6.9c0.4,0.1,2.5-2.7,4.4-4.8c1.7-2,3.8-5.7,4.9-4.8c1.4,1.2-0.2,2.8-3.1,6.9
									c-1.8,2.5-4.2,5.1-3.4,5.1c1.4,0,5.2-6.6,7.2-5C35.3,13.4,35.9,14.4,34.1,16z"/>
							</g>
						</g>
					</g>
				</g>
			</g>
		</g>
		<g class="st1">
			<g>
				<path class="st2" d="M20.7,27.7c1.6-0.4,5.2-0.2,5.2-0.2l0,0c0.3-0.6,0.6-1.2,0.9-2l-0.9-0.5L20.7,27.7z"/>
			</g>
		</g>
		<g>
			<g>
				<g>
					<path class="st2" d="M23.8,29.9c-0.7,0.4-1.5,0.6-2.3,0.6c-0.1,0-0.1-0.1,0-0.1C22.3,30.4,23.1,30.2,23.8,29.9
						C23.8,29.8,23.8,29.9,23.8,29.9L23.8,29.9z"/>
				</g>
			</g>
		</g>
		<g>
			<path class="st0" d="M11.2,25.6c-1.2-1.8-0.3-5.6,0-9.2c0.2-2.5,0.3-3.2,1.1-4.4c0.6-0.9,0.9-2.7,0.9-3.7c0,0,0-0.1,0-0.1
				c0.1-0.6,1.3-0.5,2,0.8c0.7,1.3,0,3.8,0,3.8c0.1,0.7-0.3,2.5-0.5,3.1c-0.2,0.6,1.4,3.5,1.7,7C16.6,26.4,12.7,28,11.2,25.6z"/>
		</g>
	</g>
	<path class="st3" d="M22,30.5L22,30.5L22,30.5l-6.3-13.4c-0.2,0.2-0.3,0.4-0.5,0.6c0-0.1-0.1-0.3-0.1-0.4c-0.1,0.3-0.2,0.6-0.3,0.9
		c0,0,0,0,0,0c-0.4,0.8-0.8,2-0.4,3.9c0.1,0.7,0.2,2.4,0.2,4.4c0.1,3.4,0.2,7.6,0.9,8.8c0.9,1.7,5.2,2.6,6.6,2.9
		c-0.1-2.9-0.2-5.7,0.2-6.9L22,30.5z"/>
	<g>
		<path class="st4" d="M26.6,35.7h-3.9c-4,0-7.2-3.2-7.2-7.2V11.6c0-4,3.2-7.2,7.2-7.2h3.9c4,0,7.2,3.2,7.2,7.2v16.9
			C33.8,32.5,30.5,35.7,26.6,35.7z"/>
	</g>
	<g>
		<g>
			<path class="st5" d="M31.9,35.9H17.3c-1.2,0-2.1-1-2.1-2.1V6.3c0-1.2,1-2.1,2.1-2.1h14.5c1.2,0,2.1,1,2.1,2.1v27.5
				C34,35,33,35.9,31.9,35.9z M17.3,4.6c-0.9,0-1.6,0.7-1.6,1.6v27.5c0,0.9,0.7,1.6,1.6,1.6h14.5c0.9,0,1.6-0.7,1.6-1.6V6.3
				c0-0.9-0.7-1.6-1.6-1.6H17.3z"/>
		</g>
	</g>
	<g>
		<g>
			<path class="st5" d="M31.8,35.9H17.3c-1.2,0-2.1-1-2.1-2.1V6.2c0-1.2,1-2.1,2.1-2.1h14.5c1.2,0,2.1,1,2.1,2.1v27.5
				C34,34.9,33,35.9,31.8,35.9z M17.3,4.6c-0.9,0-1.6,0.7-1.6,1.6v27.5c0,0.9,0.7,1.6,1.6,1.6h14.5c0.9,0,1.6-0.7,1.6-1.6V6.2
				c0-0.9-0.7-1.6-1.6-1.6H17.3z"/>
		</g>
	</g>
	<g>
		<path class="st6" d="M28.3,27.5h-8.2c-1,0-1.9-0.8-1.9-1.9v-1c0-1,0.8-1.9,1.9-1.9h8.2c1,0,1.9,0.8,1.9,1.9v1
			C30.2,26.7,29.3,27.5,28.3,27.5z"/>
	</g>
	<g>
		<path class="st7" d="M28.7,27.5h-8.2c-1,0-1.9-0.8-1.9-1.9v-1c0-1,0.8-1.9,1.9-1.9h8.2c1,0,1.9,0.8,1.9,1.9v1
			C30.6,26.7,29.8,27.5,28.7,27.5z"/>
	</g>
	<g>
		<g>
			<path class="st2" d="M10.8,24.9c0.2,0.6,0.6,1.1,1.1,1.5c0.6,0.5,1.3,0.6,2,0.8c0,0,0.1-0.1,0-0.1c-0.7-0.1-1.4-0.3-1.9-0.7
				C11.5,26,11.1,25.4,10.8,24.9C10.9,24.8,10.8,24.8,10.8,24.9L10.8,24.9z"/>
		</g>
	</g>
	<g>
		<g>
			<path class="st2" d="M14,15.9c0.2,0.1,0.4,0.2,0.6,0.2c0,0,0,0,0-0.1c-0.1,0.1-0.3,0.2-0.5,0.3c0,0,0,0.1,0,0.1
				c0.2-0.1,0.3-0.2,0.5-0.3c0,0,0,0,0-0.1C14.4,16,14.2,15.9,14,15.9C14,15.8,13.9,15.9,14,15.9L14,15.9z"/>
		</g>
	</g>
	<g>
		<path class="st8" d="M13.7,11c-0.2,0.1-0.6,0-0.9-0.1c0-1.5,0.2-2.4,0.4-2.6c0.2,0.1,0.4,0.2,0.5,0.4C13.8,9,14,10.8,13.7,11z"/>
	</g>
	<g>
		<path class="st9" d="M33.5,21.4H18.1c-0.5,0-0.9-0.4-0.9-1V8.8c0-0.5,0.4-1,0.9-1h4.3l10.9,4.3L33.5,21.4z"/>
	</g>
	<g>
		<path class="st10" d="M39.7,8.4v11.2c0,0.5-0.4,0.9-0.9,0.9H18.1c-0.5,0-0.9-0.4-0.9-0.9V8.4c0-0.5,0.4-0.9,0.9-0.9h20.7
			C39.3,7.5,39.7,7.9,39.7,8.4z"/>
	</g>
	<g>
		<path class="st11" d="M36.9,20.5H18.1c-0.5,0-0.9-0.4-0.9-0.9V8.4c0-0.5,0.4-0.9,0.9-0.9h4.3L36.9,20.5z"/>
	</g>
	<g>
		<g>
			<path class="st5" d="M13.9,5.4L13,5.2c0.2-0.9,0.7-1.7,1.5-2.2c0.7-0.5,1.5-0.8,2.4-0.8l0,0.9c-0.7,0-1.3,0.2-1.9,0.6
				C14.4,4.1,14,4.7,13.9,5.4z"/>
		</g>
		<g>
			<path class="st5" d="M12,4.9l-0.9-0.2c0.3-1.3,1.1-2.5,2.2-3.3c1-0.8,2.3-1.2,3.6-1.2l0,0.9c-1.1,0-2.1,0.3-3,1
				C12.9,2.8,12.3,3.8,12,4.9z"/>
		</g>
		<g>
			<path class="st5" d="M10.2,4.4L9.3,4.2c0.4-1.7,1.4-3.3,2.9-4.3c1.4-1,3-1.6,4.7-1.6c0,0,0,0,0.1,0l0,0.9c-1.5,0-3,0.5-4.2,1.4
				C11.4,1.6,10.5,2.9,10.2,4.4z"/>
		</g>
	</g>
	<g>
		<g>
			<g>
				<path class="st4" d="M22.4,9.4v2.8c0,0.3-0.2,0.5-0.5,0.5h-2.8c-0.3,0-0.5-0.2-0.5-0.5V9.4c0-0.3,0.2-0.5,0.5-0.5h2.8
					C22.2,8.9,22.4,9.1,22.4,9.4z"/>
			</g>
		</g>
		<g>
			<g>
				<path class="st10" d="M20.2,8.9v0.7c0,0.5-0.4,0.9-0.9,0.9h-0.7V10h0.7c0.3,0,0.5-0.2,0.5-0.5V8.9H20.2z"/>
			</g>
		</g>
		<g>
			<g>
				<path class="st10" d="M22.4,10.6V11H22c-0.2,0-0.4,0.2-0.4,0.4v1.2h-0.4v-1.2c0-0.5,0.4-0.8,0.8-0.8H22.4z"/>
			</g>
		</g>
		<g>
			<g>
				<path class="st10" d="M22.4,9.6V10h-0.8c-0.5,0-0.9,0.4-0.9,0.9c0,0.5-0.4,1-1,1h-1.1v-0.4h1.1c0.3,0,0.6-0.2,0.6-0.6
					c0-0.7,0.6-1.3,1.3-1.3H22.4z"/>
			</g>
		</g>
	</g>
	<g>
		<g>
			<path class="st4" d="M25.2,18.3h-6.3c-0.1,0-0.2-0.1-0.2-0.2l0,0c0-0.1,0.1-0.2,0.2-0.2h6.3c0.1,0,0.2,0.1,0.2,0.2l0,0
				C25.4,18.2,25.3,18.3,25.2,18.3z"/>
		</g>
		<g>
			<path class="st4" d="M22.4,19h-3.5c-0.1,0-0.1,0-0.1-0.1l0,0c0-0.1,0-0.1,0.1-0.1h3.5c0.1,0,0.1,0,0.1,0.1l0,0
				C22.5,19,22.4,19,22.4,19z"/>
		</g>
		<g>
			<path class="st4" d="M26.4,19H23c-0.1,0-0.1,0-0.1-0.1l0,0c0-0.1,0-0.1,0.1-0.1h3.5c0.1,0,0.1,0,0.1,0.1l0,0
				C26.6,19,26.5,19,26.4,19z"/>
		</g>
	</g>
	<g>
		<g>
			<path class="st4" d="M23,24.3c0-0.1,0-0.1,0.1-0.1c0.1,0,0.2,0,0.3,0c0.2,0,0.3,0,0.4,0.1c0.1,0.1,0.1,0.2,0.1,0.3
				c0,0.1,0,0.2-0.1,0.3c-0.1,0.1-0.3,0.1-0.4,0.1c0,0,0,0,0,0c-0.1,0-0.1,0-0.1,0.1v0.3c0,0.1,0,0.1-0.1,0.1h-0.1
				c-0.1,0-0.1,0-0.1-0.1V24.3z M23.3,24.7c0,0.1,0,0.1,0.1,0.1c0,0,0,0,0,0c0.2,0,0.3-0.1,0.3-0.2c0-0.1-0.1-0.2-0.2-0.2
				c0,0,0,0,0,0c-0.1,0-0.1,0-0.1,0.1V24.7z"/>
		</g>
		<g>
			<path class="st4" d="M24.5,25.3l-0.1,0.2c0,0-0.1,0.1-0.1,0.1h-0.1c-0.1,0-0.1-0.1-0.1-0.1l0.3-1.1c0,0,0.1-0.1,0.1-0.1h0.3
				c0,0,0.1,0,0.1,0.1l0.4,1.1c0,0.1,0,0.1-0.1,0.1h-0.1c0,0-0.1,0-0.1-0.1L25,25.3c0,0-0.1-0.1-0.1-0.1L24.5,25.3
				C24.6,25.2,24.5,25.2,24.5,25.3z M24.8,25c0.1,0,0.1-0.1,0.1-0.1l0-0.2c0-0.1,0-0.2-0.1-0.3h0c0,0.1,0,0.2-0.1,0.3l0,0.2
				C24.6,24.9,24.7,25,24.8,25L24.8,25z"/>
		</g>
		<g>
			<path class="st4" d="M25.9,25.5V25c0,0,0,0,0,0l-0.3-0.6c0-0.1,0-0.1,0.1-0.1h0.1c0,0,0.1,0,0.1,0.1l0.1,0.3
				c0,0.1,0.1,0.2,0.1,0.3h0c0-0.1,0.1-0.2,0.1-0.3l0.1-0.3c0,0,0.1-0.1,0.1-0.1h0.1c0.1,0,0.1,0.1,0.1,0.2L26.2,25c0,0,0,0,0,0v0.4
				c0,0.1,0,0.1-0.1,0.1H26C25.9,25.6,25.9,25.5,25.9,25.5z"/>
		</g>
	</g>
	<g>
		<path class="st9" d="M25.1,35.4c0,0-1.6-6-1.2-8c0.5-2,4.1,8,4.1,8L25.1,35.4z"/>
	</g>
	<g>
		<g>
			<g>
				<g>
					<g>
						<g>
							<path class="st0" d="M44.5,48.4H31.4c-0.3-0.3-0.7-0.6-1.1-0.9c0,0-0.1-0.1-0.1-0.1c-1.3-1.4-0.2-4.5,0.7-4.5
								c-0.7-1.3-1.9-3.6-2.8-5.7c-0.8-1.7-1.3-3.2-2-4.5c-0.6-1.3-1.2-2.5-1.8-3.7c-1.5-2.9,0.4-3.8,1.4-2.4c2,2.6,5.2,9.1,5.5,8.5
								c0.2-0.3-0.2-2.1,1.9-2c1.1,0,1.6,1.7,1.9,1.3c0.3-0.4-0.1-1.4,1.6-1.6c1-0.1,1.5,0.7,1.6,0.5c0.6-0.7,1.1-0.6,1.7-0.4
								c1.3,0.4,1.4,2.7,2.6,6.5C43.2,41.2,44,46.6,44.5,48.4z"/>
						</g>
					</g>
				</g>
			</g>
		</g>
		<g>
			<g>
				<path class="st8" d="M24,26.7c0,0,0.3,1.2,0.7,1.4c0.5,0.2,1.2-0.3,1.2-0.5c0-0.2-0.7-1.3-0.8-1.4C25,26.1,24.2,26.4,24,26.7z"
					/>
			</g>
		</g>
		<g>
			<g>
				<g>
					<path class="st2" d="M30.7,42.6c0.5,0.7,0.9,1.4,1.2,2.2c0,0,0.1,0,0.1,0C31.7,44,31.3,43.3,30.7,42.6
						C30.8,42.5,30.7,42.6,30.7,42.6L30.7,42.6z"/>
				</g>
			</g>
		</g>
		<g>
			<path class="st0" d="M36.7,48.4h-5.4c-1.3-1.1-2.7-2.5-3.5-3.7c-1.4-1.8-1.7-2.3-1.9-3.5c-0.3-1.2-1.9-2.9-1.9-2.9
				c-0.4-0.4,0.4-1.2,1.7-0.9c1.2,0.3,2.5,2.3,2.5,2.3c0.5,0.4,1.5,1.6,1.7,2.1c0.1,0.1,0.3,0.3,0.8,0.5h0c0.6,0.3,2.9,1.1,4.8,2.6
				C36.7,45.9,37,47.3,36.7,48.4z"/>
		</g>
		<g>
			<g>
				<path class="st2" d="M30.1,41.5c0.6,1.1,1.1,2.3,1.5,3.5c0,0,0.1,0,0.1,0C31.3,43.7,30.8,42.6,30.1,41.5
					C30.2,41.4,30.1,41.4,30.1,41.5L30.1,41.5z"/>
			</g>
		</g>
		<g>
			<g>
				<path class="st2" d="M28.1,39.7c-0.2,0-0.4,0-0.6,0.1c0,0,0,0.1,0,0.1C27.7,39.8,27.9,39.8,28.1,39.7
					C28.1,39.8,28.1,39.7,28.1,39.7L28.1,39.7z"/>
			</g>
		</g>
		<g>
			<g>
				<path class="st2" d="M28,39.8c-0.1,0.1-0.1,0.1-0.2,0.2c0,0,0,0.1,0,0C27.9,40,28,39.9,28,39.8C28.1,39.8,28,39.8,28,39.8
					L28,39.8z"/>
			</g>
		</g>
		<g>
			<g>
				<path class="st2" d="M30.1,42.1C30,42.1,29.9,42,29.8,42c0,0,0,0.1,0,0.1C29.9,42.1,30,42.1,30.1,42.1
					C30.1,42.2,30.2,42.2,30.1,42.1L30.1,42.1z"/>
			</g>
		</g>
		<g>
			<g>
				<path class="st2" d="M31,34.9c0.2,0.2,0.4,0.5,0.7,0.7c0,0,0.1,0,0,0C31.5,35.3,31.2,35.1,31,34.9C31,34.8,30.9,34.9,31,34.9
					L31,34.9z"/>
			</g>
		</g>
		<g>
			<g>
				<path class="st2" d="M34.8,34.4c0.2,0.1,0.3,0.2,0.5,0.2c0,0,0.1-0.1,0-0.1C35.1,34.5,35,34.4,34.8,34.4
					C34.8,34.3,34.7,34.3,34.8,34.4L34.8,34.4z"/>
			</g>
		</g>
		<g>
			<g>
				<path class="st2" d="M38.1,33.2c0.2,0.2,0.4,0.3,0.6,0.4c0,0,0.1-0.1,0-0.1C38.5,33.5,38.3,33.4,38.1,33.2
					C38.1,33.1,38,33.2,38.1,33.2L38.1,33.2z"/>
			</g>
		</g>
		<g>
			<path class="st8" d="M25.5,39.4c0,0.2-0.2,0.4-0.3,0.5c-0.8-0.8-1.3-1.5-1.3-1.5l0,0c0,0,0.2-0.4,0.5-0.2
				C24.7,38.4,25.5,39,25.5,39.4z"/>
		</g>
		<g>
			<g>
				<path class="st2" d="M27.1,32.4c0.3-0.2,0.6-0.4,1-0.4c0,0,0-0.1,0-0.1C27.7,32,27.4,32.2,27.1,32.4
					C27.1,32.4,27.1,32.5,27.1,32.4L27.1,32.4z"/>
			</g>
		</g>
		<g>
			<g>
				<path class="st2" d="M27.6,32.6c0.1,0,0.2-0.1,0.3-0.1c0,0,0-0.1,0-0.1C27.8,32.4,27.7,32.5,27.6,32.6
					C27.5,32.5,27.5,32.6,27.6,32.6L27.6,32.6z"/>
			</g>
		</g>
		<g class="st1">
			<path class="st12" d="M29.9,41.9c-0.5,0.1-2.4-1.8-3.2-3c-0.7-1.2-2.4-1.3-2.4-1.3c0.3-0.1,0.8-0.2,1.3-0.1
				c1.2,0.3,2.5,2.3,2.5,2.3C28.6,40.1,29.6,41.4,29.9,41.9z"/>
		</g>
	</g>
	<g>
		<g>
			<g>
				<path class="st4" d="M19,15.8L19,15.8c-0.2,0-0.3-0.1-0.3-0.3v-0.9c0-0.2,0.1-0.3,0.3-0.3l0,0c0.2,0,0.3,0.1,0.3,0.3v0.9
					C19.3,15.6,19.2,15.8,19,15.8z"/>
			</g>
			<g>
				<path class="st4" d="M20,15.8L20,15.8c-0.2,0-0.3-0.1-0.3-0.3v-0.9c0-0.2,0.1-0.3,0.3-0.3l0,0c0.2,0,0.3,0.1,0.3,0.3v0.9
					C20.3,15.6,20.1,15.8,20,15.8z"/>
			</g>
			<g>
				<path class="st4" d="M21,15.8h-0.1c-0.1,0-0.2-0.1-0.2-0.2v-1c0-0.1,0.1-0.2,0.2-0.2H21c0.1,0,0.2,0.1,0.2,0.2v1
					C21.2,15.7,21.1,15.8,21,15.8z"/>
			</g>
			<g>
				<path class="st4" d="M21.9,15.8L21.9,15.8c-0.2,0-0.3-0.1-0.3-0.3v-0.9c0-0.2,0.1-0.3,0.3-0.3l0,0c0.2,0,0.3,0.1,0.3,0.3v0.9
					C22.2,15.6,22,15.8,21.9,15.8z"/>
			</g>
		</g>
		<g>
			<g>
				<path class="st4" d="M24.4,15.8L24.4,15.8c-0.2,0-0.3-0.1-0.3-0.3v-0.9c0-0.2,0.1-0.3,0.3-0.3l0,0c0.2,0,0.3,0.1,0.3,0.3v0.9
					C24.7,15.6,24.6,15.8,24.4,15.8z"/>
			</g>
			<g>
				<path class="st4" d="M25.3,15.8L25.3,15.8c-0.2,0-0.3-0.1-0.3-0.3v-0.9c0-0.2,0.1-0.3,0.3-0.3l0,0c0.2,0,0.3,0.1,0.3,0.3v0.9
					C25.6,15.6,25.5,15.8,25.3,15.8z"/>
			</g>
			<g>
				<path class="st4" d="M26.3,15.8L26.3,15.8c-0.2,0-0.3-0.1-0.3-0.3v-0.9c0-0.2,0.1-0.3,0.3-0.3l0,0c0.2,0,0.3,0.1,0.3,0.3v0.9
					C26.6,15.6,26.4,15.8,26.3,15.8z"/>
			</g>
			<g>
				<path class="st4" d="M27.2,15.8L27.2,15.8c-0.2,0-0.3-0.1-0.3-0.3v-0.9c0-0.2,0.1-0.3,0.3-0.3l0,0c0.2,0,0.3,0.1,0.3,0.3v0.9
					C27.5,15.6,27.4,15.8,27.2,15.8z"/>
			</g>
		</g>
		<g>
			<g>
				<path class="st4" d="M35.1,15.8L35.1,15.8c-0.2,0-0.3-0.1-0.3-0.3v-0.9c0-0.2,0.1-0.3,0.3-0.3l0,0c0.2,0,0.3,0.1,0.3,0.3v0.9
					C35.4,15.6,35.3,15.8,35.1,15.8z"/>
			</g>
			<g>
				<path class="st4" d="M36.1,15.8L36.1,15.8c-0.2,0-0.3-0.1-0.3-0.3v-0.9c0-0.2,0.1-0.3,0.3-0.3l0,0c0.2,0,0.3,0.1,0.3,0.3v0.9
					C36.3,15.6,36.2,15.8,36.1,15.8z"/>
			</g>
			<g>
				<path class="st4" d="M37,15.8L37,15.8c-0.2,0-0.3-0.1-0.3-0.3v-0.9c0-0.2,0.1-0.3,0.3-0.3l0,0c0.2,0,0.3,0.1,0.3,0.3v0.9
					C37.3,15.6,37.2,15.8,37,15.8z"/>
			</g>
			<g>
				<path class="st4" d="M38,15.8h-0.1c-0.1,0-0.2-0.1-0.2-0.2v-1c0-0.1,0.1-0.2,0.2-0.2H38c0.1,0,0.2,0.1,0.2,0.2v1
					C38.2,15.7,38.1,15.8,38,15.8z"/>
			</g>
		</g>
		<g>
			<g>
				<path class="st4" d="M29.8,15.8L29.8,15.8c-0.2,0-0.3-0.1-0.3-0.3v-0.9c0-0.2,0.1-0.3,0.3-0.3l0,0c0.2,0,0.3,0.1,0.3,0.3v0.9
					C30,15.6,29.9,15.8,29.8,15.8z"/>
			</g>
			<g>
				<path class="st4" d="M30.7,15.8L30.7,15.8c-0.2,0-0.3-0.1-0.3-0.3v-0.9c0-0.2,0.1-0.3,0.3-0.3l0,0c0.2,0,0.3,0.1,0.3,0.3v0.9
					C31,15.6,30.9,15.8,30.7,15.8z"/>
			</g>
			<g>
				<path class="st4" d="M31.6,15.8L31.6,15.8c-0.2,0-0.3-0.1-0.3-0.3v-0.9c0-0.2,0.1-0.3,0.3-0.3l0,0c0.2,0,0.3,0.1,0.3,0.3v0.9
					C31.9,15.6,31.8,15.8,31.6,15.8z"/>
			</g>
			<g>
				<path class="st4" d="M32.6,15.8L32.6,15.8c-0.2,0-0.3-0.1-0.3-0.3v-0.9c0-0.2,0.1-0.3,0.3-0.3l0,0c0.2,0,0.3,0.1,0.3,0.3v0.9
					C32.9,15.6,32.7,15.8,32.6,15.8z"/>
			</g>
		</g>
	</g>
</g>
</svg>
