<?xml version="1.0" encoding="utf-8"?>
<!-- Generator: Adobe Illustrator 25.2.1, SVG Export Plug-In . SVG Version: 6.00 Build 0)  -->
<svg version="1.1" id="Layer_1" xmlns="http://www.w3.org/2000/svg" xmlns:xlink="http://www.w3.org/1999/xlink" x="0px" y="0px"
	 viewBox="0 0 48 48" style="enable-background:new 0 0 48 48;" xml:space="preserve">
<style type="text/css">
	.st0{fill:#0271B0;}
	.st1{fill:#454545;}
	.st2{fill:#909697;}
	.st3{opacity:0.5;}
	.st4{opacity:0.7;}
	.st5{fill:#B4B8BA;}
	.st6{opacity:0.5;fill:#B4B8BA;}
	.st7{opacity:0.5;fill:#909697;}
	.st8{fill:#B8D424;}
	.st9{fill:#FFFFFF;}
</style>
<g>
	<path class="st0" d="M29.5,18.7c0,0-0.5,5.3-3,9.6c-2.5,4.2-5.2,6.9-5.2,10.5c0,3.7,3.6,5.2,8.8,4.8c5.2-0.4,8.2-2.2,7.1-6.9
		c-0.9-3.8-4.3-6.8-5.5-10.1C30.4,23.3,29.5,18.7,29.5,18.7z"/>
	<g>
		<g>
			<path class="st1" d="M29.9,23c-1.1,0-2-0.2-2.3-0.2c-0.5-0.1-0.4-1-0.4-2c0-0.6,0.1-1.2,0-1.7c-0.2-1-0.8-1.3-0.9-1.4
				c-0.9,0-1.7,0.3-2.6,0.8c-0.7,0.3-1.5,0.7-2.5,0.9c-1.6,0.3-3.3-0.4-4.5-0.9c-0.4-0.2-0.7-0.3-0.9-0.3c-0.7-0.1-1.1,0.2-1.1,0.2
				c-0.1,0.1-0.2,0-0.2,0c0,0,0-0.1,0-0.2c0,0,0,0,0-0.1c0,0-0.1-1.4-0.1-2.9c-0.1-2.9,0.1-3.1,0.1-3.2c0.2-0.2,0.5-0.1,0.9,0
				c0.4,0.1,0.9,0.3,1.5,0.2c0.6-0.1,0.8-2.4,0.7-3.8c0,0,0-0.1,0-0.1c0,0,0.1-0.1,0.1-0.1h5.3c0.1,0,0.1,0.1,0.1,0.2
				c0,0,0,2.2,0.3,3.3c0.1,0.4,0.8,0.5,1.7,0.5c1.2,0.1,2.9,0.2,4.6,1.2c3.1,1.9,2.9,8.2,2.9,8.5c0,0,0,0.1,0,0.1
				C32.1,22.8,30.9,23,29.9,23z"/>
			<path class="st2" d="M26.3,17.3c0,0,0.1,0,0.1,0c0,0,0,0,0,0c0,0,0.9,0.3,1.1,1.6c0.1,0.5,0,1.2,0,1.8c0,0.7-0.1,1.6,0.1,1.6
				c0.8,0.2,3.8,0.5,4.6-0.4c0-0.7,0-6.4-2.7-8.1c-1.6-1-3.2-1.1-4.4-1.2c-1-0.1-1.8-0.1-1.9-0.8c-0.2-1-0.3-2.7-0.3-3.2h-5
				c0,0.8,0.1,3.7-0.9,3.9c-0.6,0.1-1.2-0.1-1.6-0.2c-0.2-0.1-0.5-0.2-0.6-0.1c-0.1,0.3-0.1,3.1,0,5.7c0.2-0.1,0.6-0.2,1.1-0.1
				c0.2,0,0.5,0.2,0.9,0.3c1.1,0.5,2.8,1.2,4.3,0.9c0.9-0.2,1.7-0.5,2.4-0.9C24.5,17.7,25.4,17.3,26.3,17.3z"/>
			<g class="st3">
				<path class="st2" d="M29.8,21.9c-1.9-0.9-0.6-3.3-1.2-4.9c-0.3-0.9-0.9-1.7-1.8-1.9c-0.6-0.2-1.2-0.2-1.8-0.5
					c-0.5-0.2-0.8-0.8-0.6-1.3c0.1-0.2,0.2-0.4,0.4-0.5c-0.9-0.1-1.5-0.2-1.6-0.7c-0.2-1-0.3-2.7-0.3-3.2h-5c0,0.8,0.1,3.7-0.9,3.9
					c-0.6,0.1-1.2-0.1-1.6-0.2c-0.2-0.1-0.5-0.2-0.6-0.1c-0.1,0.3-0.1,3.1,0,5.7c0.2-0.1,0.6-0.2,1.1-0.1c0.2,0,0.5,0.2,0.9,0.3
					c1.1,0.5,2.8,1.2,4.3,0.9c0.9-0.2,1.7-0.5,2.4-0.9c0.9-0.4,1.7-0.8,2.6-0.8c0,0,0.1,0,0.1,0c0,0,0,0,0,0c0,0,0.9,0.3,1.1,1.6
					c0.1,0.5,0,1.2,0,1.8c0,0.7-0.1,1.6,0.1,1.6c0.8,0.2,3.8,0.5,4.6-0.4c0,0,0-0.1,0-0.1C31.6,22.3,30.5,22.2,29.8,21.9z"/>
			</g>
			<g class="st3">
				<path class="st2" d="M23.2,17.6c-1,0.4-2,1-3.1,0.8c-1.7-0.4-3.3-2.3-2.5-4.2c0.4-1,1.5-1.6,1.8-2.7c0.2-0.9,0.3-1.9,0.3-2.8
					h-1.7c0,0.8,0.1,3.7-0.9,3.9c-0.6,0.1-1.2-0.1-1.6-0.2c-0.2-0.1-0.5-0.2-0.6-0.1c-0.1,0.3-0.1,3.1,0,5.7
					c0.2-0.1,0.6-0.2,1.1-0.1c0.2,0,0.5,0.2,0.9,0.3c1.1,0.5,2.8,1.2,4.3,0.9c0.9-0.2,1.7-0.5,2.4-0.9c0.7-0.3,1.4-0.6,2.1-0.7
					C24.9,17.2,23.9,17.3,23.2,17.6z"/>
			</g>
			<path class="st1" d="M20.5,8.4h-0.2c-0.6,0-1.1-0.3-1.1-0.7V3.2c0-0.4,0.5-0.7,1.1-0.7h0.2c0.6,0,1.1,0.3,1.1,0.7v4.5
				C21.6,8.1,21.1,8.4,20.5,8.4z"/>
			<path class="st2" d="M20.3,2.8c-0.5,0-0.8,0.2-0.8,0.4v4.5c0,0.2,0.3,0.4,0.8,0.4h0.2c0.5,0,0.8-0.2,0.8-0.4V3.2
				c0-0.2-0.3-0.4-0.8-0.4H20.3z"/>
			<g class="st3">
				<path class="st2" d="M20.3,2.8c-0.5,0-0.8,0.2-0.8,0.4v4.5c0,0.2,0.3,0.4,0.8,0.4h0.2c0.5,0,0.8-0.2,0.8-0.4V3.2
					c0-0.2-0.3-0.4-0.8-0.4H20.3z"/>
			</g>
			<g class="st4">
				<path class="st2" d="M20.9,6.8c0.1,0,0.2,0,0.3,0c0,0,0,0,0,0V4.5c-0.1,0-0.2,0-0.3,0C21,5.2,21,6,20.9,6.8z"/>
			</g>
			<g class="st4">
				<path class="st2" d="M19.8,6.7c0.1-0.8,0-1.5,0-2.3c-0.1,0-0.2,0-0.3,0v2.3C19.6,6.7,19.7,6.7,19.8,6.7z"/>
			</g>
			<g>
				<path class="st1" d="M16.1,18.1c0,0.6-0.4,1-0.9,1h-2.3c-0.5,0-0.9-0.4-0.9-1v-5.9c0-0.6,0.4-1,0.9-1h2.3c0.5,0,0.9,0.4,0.9,1
					V18.1z"/>
				<path class="st5" d="M15.9,17.8c0,0.5-0.4,0.9-0.8,0.9H13c-0.5,0-0.8-0.4-0.8-0.9v-5.4c0-0.5,0.4-0.9,0.8-0.9h2.1
					c0.5,0,0.8,0.4,0.8,0.9V17.8z"/>
				<path class="st6" d="M15.8,17.1c-0.3,0.3-0.9,0.2-1.2-0.2c-0.5-0.7-0.5-1.3-0.5-2.1c0-1.1,0-2.2,0-3.3H13
					c-0.5,0-0.8,0.4-0.8,0.9v5.4c0,0.5,0.4,0.9,0.8,0.9h2.1c0.5,0,0.8-0.4,0.8-0.9V17C15.9,17,15.9,17.1,15.8,17.1z"/>
			</g>
			<g>
				<path class="st1" d="M13.5,19.1c0,0.7-0.5,1.3-1.2,1.3h-3c-0.7,0-1.2-0.6-1.2-1.3v-7.7c0-0.7,0.5-1.3,1.2-1.3h3
					c0.7,0,1.2,0.6,1.2,1.3V19.1z"/>
				<path class="st5" d="M13.3,18.7c0,0.7-0.5,1.2-1.1,1.2H9.4c-0.6,0-1.1-0.5-1.1-1.2v-7.1c0-0.7,0.5-1.2,1.1-1.2h2.8
					c0.6,0,1.1,0.5,1.1,1.2V18.7z"/>
			</g>
			<g>
				<path class="st1" d="M23.4,9.8h-6c-0.5,0-0.9-0.5-0.9-1V8.6c0-0.6,0.4-1,0.9-1h6c0.5,0,0.9,0.5,0.9,1v0.2
					C24.4,9.3,23.9,9.8,23.4,9.8z"/>
				<path class="st5" d="M17.4,7.9c-0.3,0-0.6,0.3-0.6,0.7v0.2c0,0.4,0.3,0.7,0.6,0.7h6c0.3,0,0.6-0.3,0.6-0.7V8.6
					c0-0.4-0.3-0.7-0.6-0.7H17.4z"/>
				<path class="st6" d="M18.8,8.9c0.7,0,2.7,0,3.4,0c0.5,0,1.4,0,1.7-0.6c-0.1-0.2-0.3-0.3-0.5-0.3h-6c-0.3,0-0.6,0.3-0.6,0.6
					C17,8.9,17.9,8.9,18.8,8.9z"/>
				<path class="st6" d="M18.4,8.5c0.7,0,1.4,0,2.1,0c0.7,0,1.5,0,2.1,0c0.4,0,0.9-0.1,1.1-0.5c-0.1-0.1-0.2-0.1-0.3-0.1h-6
					c-0.2,0-0.3,0.1-0.4,0.2C17.2,8.6,17.9,8.5,18.4,8.5z"/>
				<path class="st1" d="M22.5,8.3H18c-0.4,0-0.7-0.4-0.7-0.8V7.4c0-0.4,0.3-0.8,0.7-0.8h4.6c0.4,0,0.7,0.4,0.7,0.8v0.1
					C23.3,7.9,22.9,8.3,22.5,8.3z"/>
				<path class="st5" d="M18,6.9c-0.2,0-0.4,0.2-0.4,0.5v0.1C17.5,7.8,17.7,8,18,8h4.6C22.8,8,23,7.8,23,7.5V7.4
					c0-0.3-0.2-0.5-0.4-0.5H18z"/>
				<path class="st6" d="M17.6,7.2c0,0.1,0,0.1,0,0.2v0.1C17.5,7.8,17.7,8,18,8h4.6C22.8,8,23,7.8,23,7.5V7.4c0,0,0-0.1,0-0.1
					C22.3,7.6,17.9,7.7,17.6,7.2z"/>
				<path class="st6" d="M22.4,7.7c-0.3,0-0.6,0.1-0.7,0.1c-0.3,0-0.5,0-0.8,0c-0.3,0-0.7,0-1,0c-0.1,0-0.2,0-0.3,0
					c-0.3,0-0.6,0-0.9,0c-0.4-0.1-0.9,0-1.1-0.4v0.1C17.5,7.8,17.7,8,18,8h4.6c0.2,0,0.4-0.1,0.4-0.3C22.8,7.7,22.6,7.7,22.4,7.7z"
					/>
			</g>
			<g>
				<path class="st1" d="M25.5,4.2H15.3c-0.4,0-0.7-0.3-0.7-0.8V2.6c0-0.4,0.3-0.8,0.7-0.8h10.3c0.4,0,0.7,0.3,0.7,0.8v0.7
					C26.3,3.8,25.9,4.2,25.5,4.2z"/>
				<path class="st5" d="M15.3,2.1c-0.3,0-0.5,0.2-0.5,0.5v0.7c0,0.3,0.2,0.5,0.5,0.5h10.3c0.3,0,0.5-0.2,0.5-0.5V2.6
					c0-0.3-0.2-0.5-0.5-0.5H15.3z"/>
				<path class="st5" d="M25.5,2.1h-1.2c-0.2,0.6-0.6,1-1.3,1c-0.7,0-1.1-0.5-1.3-1H19c-0.2,0.6-0.6,1-1.3,1c-0.7,0-1.1-0.4-1.3-1
					h-1.1c-0.3,0-0.5,0.2-0.5,0.5v0.7c0,0.3,0.2,0.5,0.5,0.5h10.3c0.3,0,0.5-0.2,0.5-0.5V2.6C26,2.4,25.8,2.1,25.5,2.1z"/>
				<path class="st1" d="M15.2,5.2c-1.1,0-2-1-2-2.2c0-1.2,0.9-2.2,2-2.2c1.1,0,2,1,2,2.2C17.2,4.2,16.3,5.2,15.2,5.2z"/>
				<path class="st2" d="M15.2,1.1c-1,0-1.7,0.9-1.7,1.9c0,1.1,0.8,1.9,1.7,1.9c1,0,1.7-0.9,1.7-1.9C16.9,2,16.2,1.1,15.2,1.1z"/>
				<path class="st7" d="M16.4,1.7c0.3,0.9-0.1,2.2-1.3,2.2c-1.1,0-1.6-1.2-1.3-2.1c-0.2,0.3-0.4,0.7-0.4,1.2c0,1.1,0.8,1.9,1.7,1.9
					c1,0,1.7-0.9,1.7-1.9C16.9,2.5,16.8,2,16.4,1.7z"/>
				<path class="st1" d="M25.6,5.2c-1.1,0-2-1-2-2.2c0-1.2,0.9-2.2,2-2.2c1.1,0,2,1,2,2.2C27.6,4.2,26.7,5.2,25.6,5.2z"/>
				<path class="st2" d="M25.6,1.1c-1,0-1.7,0.9-1.7,1.9c0,1.1,0.8,1.9,1.7,1.9c1,0,1.7-0.9,1.7-1.9C27.3,2,26.6,1.1,25.6,1.1z"/>
				<path class="st1" d="M20.4,5.2c-1.1,0-2-1-2-2.2c0-1.2,0.9-2.2,2-2.2c1.1,0,2,1,2,2.2C22.4,4.2,21.5,5.2,20.4,5.2z"/>
				<path class="st2" d="M20.4,1.1c-1,0-1.7,0.9-1.7,1.9c0,1.1,0.8,1.9,1.7,1.9c1,0,1.7-0.9,1.7-1.9C22.1,2,21.4,1.1,20.4,1.1z"/>
				<path class="st7" d="M21.6,1.7c0.3,0.9-0.1,2.2-1.3,2.2c-1.1,0-1.6-1.2-1.3-2.1c-0.2,0.3-0.4,0.7-0.4,1.2c0,1,0.8,1.9,1.7,1.9
					c1,0,1.7-0.9,1.7-1.9C22.1,2.5,21.9,2,21.6,1.7z"/>
				<path class="st7" d="M26.8,1.7c0.3,0.9-0.1,2.2-1.3,2.2c-1.1,0-1.6-1.2-1.3-2.1C24,2.1,23.8,2.6,23.8,3c0,1.1,0.8,1.9,1.7,1.9
					c1,0,1.7-0.9,1.7-1.9C27.3,2.5,27.1,2,26.8,1.7z"/>
			</g>
		</g>
		<g class="st3">
			<path class="st5" d="M12.7,18.2c-0.4,0.4-0.9,0.5-1.3,0.2c-0.6-0.4-0.9-1.9-1-2.3c-0.1-1.1-0.2-2.3-0.1-3.3c0-0.7,0-1.6,0.3-2.3
				c0,0,0,0,0,0c0,0,0-0.1,0-0.1H9.4c-0.6,0-1.1,0.5-1.1,1.2v7.1c0,0.7,0.5,1.2,1.1,1.2h2.8c0.6,0,1.1-0.5,1.1-1.2V17
				C13.2,17.5,13.1,17.9,12.7,18.2z"/>
		</g>
		<g>
			<path class="st5" d="M12.5,10.8c-0.4-0.2-0.9-0.1-1.3,0c0,0,0,0.1,0,0.1c0.3,0.1,0.6,0.1,0.9,0.2c0.2,0,0.4,0.2,0.5,0.4
				c0.1,0.2,0.1,0.4,0.2,0.5c0.1,0.1,0.3,0.1,0.3-0.1C13.3,11.5,12.9,11,12.5,10.8z"/>
			<path class="st5" d="M13.1,15c0-0.7,0-1.5,0-2.2c0-0.1-0.1-0.1-0.1,0c-0.1,0.6-0.2,1.3-0.2,1.9c0,0.8-0.2,1.7,0,2.5
				c0,0.1,0.2,0.1,0.2,0C13.2,16.6,13.1,15.7,13.1,15z"/>
			<path class="st5" d="M15.5,12.9c0-0.4,0-1.1-0.5-1.2c0,0-0.1,0.1,0,0.1c0.4,0.2,0.3,1.5,0.3,1.9c0,0.8,0.1,1.7,0.2,2.5
				c0,0.1,0.1,0.1,0.1,0C15.7,15.1,15.6,14,15.5,12.9z"/>
			<path class="st5" d="M18.3,2.3c-0.1-0.1-0.3-0.1-0.4-0.1c-0.1,0-0.2,0-0.3,0c-0.1,0-0.2,0-0.3,0c0,0,0,0,0,0
				c0.2,0.1,0.4,0.1,0.6,0.1C18,2.4,18.2,2.4,18.3,2.3C18.3,2.3,18.3,2.3,18.3,2.3z"/>
			<path class="st5" d="M23.6,2.3c-0.2-0.1-0.3-0.1-0.5-0.1c-0.2,0-0.5,0-0.7,0c0,0,0,0.1,0,0.1c0.2,0,0.4,0,0.7,0.1
				C23.3,2.4,23.4,2.4,23.6,2.3C23.6,2.3,23.6,2.3,23.6,2.3z"/>
			<path class="st5" d="M26.5,1.6C26,0.9,24.7,1.2,24.4,2c0,0,0,0,0,0c0.3-0.3,0.5-0.4,0.9-0.5C25.7,1.5,26.1,1.5,26.5,1.6
				C26.5,1.7,26.5,1.6,26.5,1.6z"/>
			<path class="st5" d="M21.2,1.6c-0.5-0.7-1.8-0.3-2.1,0.4c0,0,0,0,0,0c0.3-0.3,0.5-0.4,0.9-0.5C20.5,1.5,20.8,1.5,21.2,1.6
				C21.2,1.7,21.3,1.6,21.2,1.6z"/>
			<path class="st5" d="M16,1.6C15.5,0.9,14.3,1.2,14,2c0,0,0,0,0,0c0.3-0.3,0.5-0.4,0.9-0.5C15.3,1.5,15.6,1.5,16,1.6
				C16,1.7,16.1,1.6,16,1.6z"/>
			<path class="st5" d="M30.7,15.2c-0.5-0.8-1.1-1.4-2-1.6c-0.4-0.1-0.9-0.2-1.3-0.3c-0.5,0-0.9-0.2-1.4-0.2c0,0,0,0,0,0
				c0.4,0.1,0.7,0.3,1.1,0.4c0.4,0.1,0.8,0.1,1.1,0.3c0.5,0.2,0.9,0.3,1.3,0.6c0.3,0.3,0.6,0.6,0.9,1c0.6,0.8,0.9,1.8,1.1,2.8
				c0.1,0.6,0.2,1.1,0.2,1.7c0,0.5,0,1.1,0.1,1.6c0,0.1,0.1,0.1,0.1,0C32.2,19.4,31.9,17,30.7,15.2z"/>
			<path class="st5" d="M22.4,7c-0.7,0-1.3-0.1-2-0.1c-0.4,0-0.8,0-1.1,0c-0.4,0-0.8,0.1-1.2,0.1c0,0,0,0,0,0
				C19.5,7.5,21,7.2,22.4,7C22.4,7,22.4,7,22.4,7z"/>
			<path class="st5" d="M23,9c-0.5,0-1,0-1.5,0.1c-0.5,0-1,0-1.5,0c-0.5,0-1,0-1.4,0c-0.5,0-1,0-1.5,0c0,0,0,0,0,0
				c0.4,0.2,0.8,0.1,1.2,0.1c0.5,0.1,1.1,0.1,1.6,0.1C20.9,9.3,22.1,9.4,23,9C23.1,9,23.1,9,23,9z"/>
		</g>
	</g>
	<g>
		<path class="st0" d="M37.4,39c0,4.5-3.6,8.1-8.1,8.1c-4.5,0-8.1-3.6-8.1-8.1c0-4.5,3.6-8.1,8.1-8.1C33.8,31,37.4,34.6,37.4,39z"/>
		<g>
			<path class="st8" d="M24.9,32.5c0.1,0,0.1-0.1,0.2-0.1c0,0,0.1-0.1,0.1-0.1c0.1-0.1,0.2-0.1,0.4,0c0.1,0,0.2,0.1,0.1,0.2
				c0,0,0,0.1,0,0.1c0,0,0,0,0,0.1c0,0-0.1,0.1-0.1,0.1c0.1,0.1,0.1,0.2,0.1,0.4c0.1,0,0.1,0,0.1-0.1c0,0,0-0.1,0-0.1
				c0,0,0.1-0.1,0.2-0.1c0.1,0,0.1,0.1,0.2,0c0,0,0,0,0,0c0,0.1,0,0.2,0,0.2c-0.1,0.1-0.1,0.1-0.2,0.1c0,0.1,0,0.1-0.1,0.2
				c0,0,0,0.1-0.1,0.1c0,0-0.1,0-0.1,0c-0.1,0-0.1,0-0.2,0c0,0,0,0.1-0.1,0.1c0,0-0.1,0-0.1,0c0,0,0,0-0.1,0c0,0,0,0,0,0.1
				c0,0,0,0.1,0,0.1c0,0,0,0.1-0.1,0.1c0,0,0,0-0.1,0c0,0,0,0,0,0.1c0,0.1,0,0.3,0,0.4c0,0-0.1,0.1-0.1,0.1c0,0.1,0,0.1,0,0.2
				c0,0.1,0,0.2,0,0.3c0-0.1,0.1-0.1,0.1-0.2c0,0,0,0,0,0C25,34.9,25,35,25.1,35c0,0,0,0,0,0c0,0.1,0,0.1,0,0.2c0,0,0,0,0.1,0
				c0,0,0,0,0,0c0,0.1-0.1,0.2-0.1,0.3c0,0.1,0,0,0,0.1c0,0,0,0,0,0c0.1,0.1,0.1,0.2,0,0.3c0,0,0,0,0,0c0,0-0.1,0,0,0c0,0,0,0,0,0.1
				c0,0,0.1,0.1,0.1,0.1c0,0,0.1,0.1,0.1,0.1c0,0,0,0,0,0c0,0,0,0,0,0c0,0,0,0,0,0c0.1,0.1,0.1,0.2,0.1,0.3c0,0,0,0,0,0.1
				c0,0,0,0,0.1,0c0,0,0.1,0.1,0.1,0.1c-0.1-0.1-0.1-0.3-0.1-0.4c0-0.1-0.1-0.3-0.1-0.4c0-0.1,0-0.1-0.1-0.2c0,0,0-0.1,0-0.1
				c0-0.1,0.1-0.2,0.1-0.2c0,0,0,0,0,0c0,0,0.1,0,0.1,0c0,0,0,0,0-0.1c0,0,0,0,0,0c0.1,0.1,0.1,0.3,0.1,0.5c0,0,0,0.1,0.1,0.1
				c0,0,0,0,0.1,0c0,0,0,0,0,0.1c0,0,0,0.1,0,0.1c0,0,0,0,0,0.1c0,0,0.1,0,0.1,0c0,0,0,0,0,0c0,0,0,0.1,0,0.1c0,0,0,0,0,0
				c0,0,0,0,0,0c0,0.1,0.1,0.2,0.1,0.3c0,0.1,0.1,0.1,0.1,0.2c0,0,0,0,0.1,0c0,0,0,0.1,0.1,0.1c0,0,0,0,0,0c0,0.1,0,0.2,0,0.3
				c0,0.1,0,0.2,0,0.2c0,0.1,0,0.2-0.1,0.3c0,0-0.1,0.1-0.1,0.1c0,0.1,0.1,0.1,0.1,0.1c0.1,0,0.3,0,0.4,0c0.1,0,0.2,0,0.3,0.1
				c0,0,0.1,0.1,0.2,0.1c0.1,0,0.1,0,0.2-0.1c0,0,0.1-0.1,0.1-0.1c0,0,0.1,0,0.1,0c0.2,0,0.4,0.1,0.5,0.3c0,0,0,0,0,0
				c0,0,0,0-0.1,0.1c0.1,0,0.2,0.1,0.3,0.1c0.1,0.1,0.2,0.1,0.3,0.2c0.1,0.1,0.3,0.1,0.4,0.1c0,0,0.1,0,0.1,0c0,0,0.1,0,0.1,0
				c0,0,0.1,0.1,0.1,0.1c0,0,0.1,0.1,0.1,0.1c0.1,0.1,0.2,0.3,0.3,0.5c0.1,0,0.2,0,0.3,0.1c0,0,0.1,0.1,0.1,0.1c0.1,0,0.1,0,0.2,0
				c0,0,0,0,0,0c0,0.1,0.1,0.2,0.2,0.2c0.1,0,0.1-0.1,0.1-0.1c0.1-0.1,0.1-0.2,0.2-0.2c0,0,0,0,0,0c0,0,0,0,0,0c0,0,0,0,0,0
				c0,0,0,0,0,0c0,0,0,0,0,0c0.1,0,0.2,0.2,0.3,0.3c0.1,0.1,0.1,0.3,0,0.4c0.1,0.1,0.1,0.2,0.1,0.2c0,0.1,0,0.2,0,0.2
				c0,0-0.1,0-0.1,0c0,0-0.1,0-0.1,0c-0.1,0-0.2,0.1-0.2,0.2c-0.1,0.1-0.1,0.2-0.2,0.3c0,0.1-0.1,0.2-0.1,0.3c0,0.1,0,0.2-0.1,0.3
				c0,0.1-0.1,0.1-0.1,0.2c0.1,0.1,0.2,0.2,0.3,0.3c0.1,0.1,0.1,0.3,0.2,0.4c0.1,0.1,0.2,0.3,0.2,0.4c0,0.1,0.1,0.2,0,0.3
				c0.1,0.1,0.2,0.1,0.3,0.2c0.1,0,0.1,0.1,0.2,0.1c0.1,0,0.1,0,0.2,0c0.1,0,0.2,0,0.2,0.1c0,0.1,0.1,0.1,0.1,0.2
				c0,0.2,0,0.4-0.1,0.6c0,0.1,0,0.2-0.1,0.2c0,0.1-0.1,0.2-0.2,0.2c-0.1,0.1-0.2,0.2-0.3,0.4c-0.1,0.2-0.1,0.3-0.1,0.5
				c0,0.1-0.1,0.2-0.1,0.3c0,0,0,0.2,0,0.2c0.1,0,0.2,0,0.3-0.1c0.1-0.1,0.2-0.1,0.3-0.2c0.1-0.1,0.2-0.2,0.3-0.2
				c0.1,0,0.1-0.1,0.2-0.1c0,0,0,0,0,0c0,0,0,0,0,0c0,0,0,0,0.1,0c0,0,0,0,0,0c0,0,0,0,0.1,0c0,0,0,0,0,0c0,0,0,0,0,0c0,0,0,0,0,0
				c0.1,0,0.2-0.1,0.2-0.1c0.2-0.1,0.3-0.3,0.4-0.4c0.2-0.2,0.4-0.3,0.6-0.4c0.2-0.1,0.4-0.3,0.5-0.5c0,0-0.1,0-0.1,0c0,0,0,0,0,0
				c0,0,0-0.1,0.1-0.1c0,0,0.1-0.1,0.1-0.1c0.1-0.1,0.3-0.2,0.4-0.3c0.1-0.1,0.3-0.2,0.4-0.3c0.2-0.2,0.3-0.3,0.2-0.6c0,0,0,0,0,0
				c0.1-0.1,0.2-0.2,0.2-0.3c0-0.1,0.1-0.2,0.1-0.4c0-0.1,0.1-0.2,0.2-0.3c0.1,0,0.1-0.1,0.2-0.2c0-0.1,0.1-0.1,0.1-0.2
				c0-0.1,0-0.3,0.1-0.4c0,0,0-0.1,0-0.1c0,0,0-0.1,0-0.1c0,0,0-0.1,0-0.1c-0.1,0-0.2-0.1-0.3-0.1c0,0,0,0,0-0.1c0,0-0.1,0-0.1,0
				c-0.1,0-0.1,0-0.2,0c0,0-0.1,0-0.1-0.1c0,0,0-0.1-0.1-0.1c-0.1,0-0.2,0.1-0.3,0c-0.1-0.1-0.1-0.1-0.1-0.2c0,0,0-0.1,0-0.1
				c0,0-0.1,0-0.1-0.1c0,0,0,0,0,0c0,0,0,0,0,0c0,0,0,0,0,0c0,0,0,0,0,0c0,0,0-0.1,0-0.1c0,0,0,0,0,0c0,0-0.1-0.1-0.1-0.1
				c-0.1-0.1-0.2-0.2-0.3-0.3c-0.1,0-0.1,0-0.2,0c0,0-0.1,0-0.1,0c-0.1,0-0.1,0-0.2-0.1c0,0,0,0-0.1-0.1c0,0,0-0.1,0-0.1
				c-0.1,0-0.2-0.1-0.3-0.2c0,0-0.1-0.1-0.1-0.1c0,0,0,0-0.1,0c-0.1,0-0.1,0-0.2,0c-0.1,0-0.1,0-0.2,0c-0.2,0-0.3,0-0.5,0
				c0,0,0,0,0,0c0,0,0,0,0-0.1c0,0,0,0,0,0c0,0-0.1,0-0.1,0c0,0-0.1-0.1-0.1-0.1c0,0-0.1,0.1-0.1,0.1c0,0,0,0,0,0
				c-0.1,0-0.1,0-0.2,0c0,0,0,0,0,0c0,0,0,0,0.1-0.1c0,0,0,0,0,0c0,0-0.1,0-0.1,0c-0.1,0-0.1,0.1-0.2,0.1c-0.1,0.1-0.2,0.1-0.3,0.1
				c0,0-0.1,0-0.1,0c0,0,0,0-0.1,0.1c0,0-0.1,0.1-0.1,0.1c0,0,0,0,0,0c0,0,0,0,0,0c0,0,0,0,0,0c0,0,0,0,0,0c0,0,0,0,0,0c0,0,0,0,0,0
				c0,0,0,0,0,0c0,0,0,0,0,0c0,0,0,0,0,0c0,0,0,0.1,0,0.1c0,0-0.1,0-0.1,0c0,0.1-0.2,0.2-0.3,0.1c0,0-0.1,0-0.1-0.1c0,0,0,0,0,0
				c0,0,0,0-0.1,0c-0.1,0-0.2,0-0.3,0.1c0,0.2-0.4,0.1-0.4-0.1c0,0,0,0,0,0c0,0-0.1,0-0.1,0c0,0,0,0,0,0c0-0.1-0.1-0.2-0.1-0.3
				c0-0.1,0-0.1,0-0.2c0-0.1,0-0.2,0-0.3c0-0.1,0-0.1,0-0.2c0-0.1-0.2-0.1-0.3-0.1c-0.1,0-0.2,0.1-0.4,0.1c-0.1,0-0.2,0-0.3-0.1
				c0-0.1,0-0.2,0-0.2c0.1-0.1,0.1-0.2,0.2-0.3c0-0.1,0-0.2,0-0.3c0,0,0-0.1,0.1-0.1c0,0,0,0,0.1-0.1c0,0,0.1,0,0-0.1
				c-0.1-0.1-0.2,0-0.3,0c-0.1,0-0.1,0-0.2,0.1c0,0-0.1,0-0.1,0.1c0,0,0,0.1,0,0.1c0,0.1-0.1,0.2-0.1,0.3c-0.1,0.1-0.2,0.1-0.3,0
				c-0.1,0-0.2-0.1-0.3-0.1c-0.1,0-0.2,0-0.2,0c-0.1,0-0.1,0-0.1-0.1c0-0.1,0-0.1,0.1-0.2c-0.1,0-0.1-0.1-0.2-0.2
				c0-0.1-0.1-0.3-0.1-0.4c0-0.1,0.1-0.2,0.1-0.3c0,0,0.1-0.1,0.1-0.1c0-0.1,0-0.1-0.1-0.2c0,0,0,0,0,0c0.1-0.1,0.1-0.1,0.2-0.1
				c0,0,0.1,0,0.1,0c0,0,0,0,0,0c0,0,0,0,0.1,0c0,0,0,0,0.1-0.1c0,0,0,0,0,0c0,0,0,0,0,0c0.1,0,0.1-0.1,0.2-0.1
				c0.1,0,0.2-0.1,0.3-0.1c0,0,0.1,0,0.1,0.1c0,0,0,0.1,0,0.1c0,0,0.1,0,0.1,0c0.2,0,0.4,0.1,0.5-0.1c0,0-0.1,0-0.1,0c0,0,0,0,0,0
				c0.1-0.1,0.4,0,0.5,0c0,0,0,0,0,0c0,0,0,0.1,0,0.1c0,0,0,0,0.1,0c0.1,0,0.1,0,0.1-0.1c0,0,0,0,0,0c0.1,0.1,0.2,0.2,0.3,0.4
				c0,0,0,0,0,0c0,0-0.1,0-0.1,0c0.1,0.1,0.2,0.3,0.3,0.3c0,0,0,0,0,0c0,0.1-0.1,0.1-0.1,0.2c0,0,0.1,0,0.1,0c0,0,0.1,0,0.1-0.1
				c0,0,0-0.1,0.1-0.1c0,0,0,0,0,0c0,0,0,0,0,0c0,0,0,0,0,0c0,0,0,0,0,0c0,0,0,0,0,0c0,0,0,0,0,0c0-0.1-0.1-0.1-0.1-0.2
				c-0.1-0.1-0.1-0.1,0-0.2c0,0,0,0,0,0c0,0,0,0,0,0c0,0,0,0,0-0.1c0,0,0-0.1,0-0.1c0,0,0,0,0,0c0,0,0,0,0,0c0,0,0,0,0,0
				c0,0,0,0,0,0c0,0,0,0,0,0c0,0,0,0,0,0c0,0,0-0.1,0-0.1c0-0.1,0-0.1,0.1-0.2c0-0.1,0.1-0.1,0.2-0.1c0.1,0,0.2-0.1,0.2-0.2
				c-0.1-0.1,0.1-0.2,0.1-0.2c0.1,0,0.1-0.1,0.2-0.1c0.1,0,0.2-0.1,0.2-0.2c-0.1,0-0.1,0-0.2,0c0,0,0-0.1,0-0.1c0-0.1,0-0.1-0.1-0.2
				c0,0,0,0,0,0c0.1-0.1,0.2-0.2,0.3-0.2c0.1,0,0.1,0,0.2-0.1c0,0,0-0.1,0-0.1c0,0-0.1-0.1-0.1-0.1c0,0,0,0,0,0c0,0,0,0,0,0
				c-0.1,0-0.2,0.1-0.3,0c-0.1,0-0.3-0.1-0.4-0.1c-0.1,0-0.2,0.1-0.4,0.1c-0.1,0-0.2-0.1-0.2-0.2c-0.1,0-0.1,0.1-0.1,0.1
				c0,0,0,0-0.1,0c-0.2,0-0.2-0.2-0.2-0.3c0,0,0,0,0,0c0.1-0.1,0.3,0.2,0.4,0c0,0,0,0,0,0c0.1,0.1,0.2,0.2,0.2,0.2
				c0.1,0,0.1,0,0.2,0c0,0,0.1,0,0.1,0c0,0,0,0,0.1,0c0,0,0,0,0,0c0.1,0,0.2,0,0.2,0.1c0.1,0,0.2,0,0.3,0c0.1,0,0.1-0.1,0.2-0.1
				c0.1,0,0.1,0,0.2,0c0.1,0,0.1,0,0.2,0c0.1,0,0.1,0,0.2,0c0.1,0,0.3-0.1,0.3-0.2c0,0,0,0,0,0c0,0,0.1,0,0.1,0
				c0.1-0.2-0.5-0.2-0.3-0.4c0,0,0,0,0,0c0.1,0,0.1,0.1,0.2,0.1c0.1,0,0.2,0,0.3,0c0.1,0,0.2,0.1,0.3,0.1c0,0,0.1,0,0.1,0
				c0,0,0.1,0,0.1,0c0,0,0,0,0,0c0-0.1-0.1-0.1-0.2-0.2c-0.1,0-0.1,0-0.1-0.1c0,0-0.1-0.1-0.1-0.1c0,0-0.1,0-0.1-0.1
				c0,0-0.1,0-0.1-0.1c0,0,0,0-0.1,0.1c0,0,0,0,0,0c0,0-0.1-0.1-0.1-0.1c0,0-0.1,0-0.1,0c-0.1,0-0.1,0-0.2-0.1c0,0,0-0.1,0-0.1
				c0,0,0-0.1,0-0.1c0,0-0.1-0.1-0.2-0.1c-0.1,0-0.1,0-0.2,0c-0.1,0-0.2-0.1-0.2-0.1c0,0,0,0-0.1,0c-0.1,0-0.1,0-0.2,0
				c-0.1,0-0.1,0-0.2-0.1c-0.1,0-0.1,0-0.2,0c-0.1,0-0.3-0.1-0.4-0.1c0,0,0,0,0,0c-0.1,0-0.1,0-0.2,0c-0.1,0-0.2,0-0.3,0
				c-0.1,0-0.2-0.1-0.3-0.1c-0.1,0-0.2-0.1-0.2-0.1c0,0,0,0,0,0c0.2-0.2,0.4,0,0.6,0.1c0.1,0.1,0.3,0.1,0.4,0.1c0.1,0,0.3,0,0.4,0
				c0,0-0.1-0.1-0.1-0.1c0,0,0,0,0,0c0.4-0.1,0.7,0.2,1.1,0.1c0,0,0,0-0.1,0c0,0,0,0,0,0c0.1-0.1,0.2,0,0.4,0
				c0.2,0.1,0.4,0.1,0.5,0.1c0.1,0,0.1,0,0.2,0C32,31.3,30.7,31,29.4,31c-1.7,0-3.2,0.5-4.5,1.4C24.9,32.4,24.9,32.5,24.9,32.5z"/>
		</g>
	</g>
	<path class="st9" d="M24.7,44.9c0.2-0.3,0.4-0.6,0.5-0.9c0,0,0-0.1,0.1-0.1c-0.8-0.6-1.3-1.4-1.7-2.3c-0.5-1.1-0.7-2.3-0.7-3.5
		c0-1.5,0.6-2.8,1.1-4.1c0-0.1-0.1-0.2-0.2-0.1c-0.8,1.3-1.6,2.6-1.9,4.2c-0.3,1.3,0.1,2.8,0.6,4C23,43.1,23.7,44.2,24.7,44.9z"/>
	<path class="st9" d="M26,44.3c0,0.1-0.1,0.1-0.1,0.2c-0.2,0.3-0.3,0.6-0.5,0.8c1.1,0.6,2.3,0.9,3.5,0.8c0.1-0.3,0.1-0.5,0.2-0.8
		C28,45.1,26.9,44.8,26,44.3z"/>
	<path class="st9" d="M36.1,35c-0.7-1.4-1.8-2.7-2.7-4c-1-1.3-1.7-2.7-2.3-4.3c-0.3-0.8-0.5-1.6-0.7-2.4c-0.2-0.9-0.5-1.8-0.7-2.6
		c0,0,0,0,0,0c0.2,0.8,0.3,1.6,0.4,2.4c0.1,0.8,0.3,1.6,0.5,2.3c0.5,1.6,1.2,3,2.2,4.4c0.9,1.3,1.8,2.5,2.6,3.9
		c0.4,0.7,0.8,1.4,1.1,2.1c0.4,0.8,0.5,1.7,0.5,2.6c0,0.1,0.1,0.1,0.1,0C37,37.9,36.8,36.3,36.1,35z"/>
</g>
</svg>
