<?xml version="1.0" encoding="utf-8"?>
<!-- Generator: Adobe Illustrator 25.2.1, SVG Export Plug-In . SVG Version: 6.00 Build 0)  -->
<svg version="1.1" id="Layer_1" xmlns="http://www.w3.org/2000/svg" xmlns:xlink="http://www.w3.org/1999/xlink" x="0px" y="0px"
	 viewBox="0 0 48 48" style="enable-background:new 0 0 48 48;" xml:space="preserve">
<style type="text/css">
	.st0{fill:#34989D;}
	.st1{fill:#FFFFFF;}
	.st2{fill:#8A8B8A;}
	.st3{fill:#616362;}
	.st4{fill:#393257;}
	.st5{fill:#322C4D;}
	.st6{fill:#2A2440;}
	.st7{fill:#2E2745;}
	.st8{fill:#706E6F;}
	.st9{fill:#595355;}
	.st10{fill:#494445;}
	.st11{fill:#DEDEDE;}
	.st12{fill:#4E4D4D;}
	.st13{fill:#5F5D5E;}
	.st14{fill:#516CA1;}
	.st15{fill:#C0C7CF;}
	.st16{fill:#09908E;}
	.st17{fill:#036866;}
	.st18{fill:#68C1C3;}
	.st19{fill:#54B5BA;}
	.st20{fill:#C4C4C4;}
	.st21{fill:#F8AD31;}
	.st22{fill:#F18E30;}
	.st23{fill:#383135;}
	.st24{fill:#2D2729;}
</style>
<g>
	<path class="st0" d="M30.7,45.2C30.7,45.2,30.7,45.2,30.7,45.2l-0.2,0H10.3h-0.1c-0.5,0-1-0.4-1-0.9c0,0-0.1,0-0.1,0l-0.6,1.3
		l-0.1,0l0,0c0,0-0.1,0.3-0.2,0.3c-0.1,0-0.1-0.4-0.1-0.4l0,0l-0.1-1c-1.7,0.3-2.7,0.7-2.7,1c0,1.1,7.5,1.9,16.8,1.9
		S39,46.6,39,45.6c0-0.5-1.9-1-5-1.4l-2.3,1.7L30.7,45.2z"/>
	<path class="st1" d="M20.4,15.2c0.5,0,0.8-0.4,0.8-0.8c0-0.5-0.4-0.8-0.8-0.8c-0.5,0-0.8,0.4-0.8,0.8C19.6,14.8,20,15.2,20.4,15.2z
		"/>
	<path class="st2" d="M32,0.8C32,0.8,32,0.8,32,0.8C32,0.8,32,0.8,32,0.8z"/>
	<path class="st2" d="M32,0.7C32,0.7,32,0.7,32,0.7C32,0.7,32,0.7,32,0.7z"/>
	<path class="st2" d="M32,0.7c0-0.1-0.1-0.1-0.2-0.2C31.9,0.6,31.9,0.6,32,0.7z"/>
	<path class="st2" d="M32,0.9C32,0.9,32,0.9,32,0.9C32,0.9,32,0.9,32,0.9z"/>
	<path class="st2" d="M29.4,13.4L29.4,13.4L29.4,13.4l-0.6,3.9h0.3c0.2-1.4,0.5-2.8,0.7-4.1c-0.2,0-0.3,0-0.5-0.1l-0.7,4.2h0.2
		L29.4,13.4z"/>
	<path class="st2" d="M31.2,2c0.1,0,0.2,0,0.3,0c0,0,0,0,0,0c0,0,0,0,0,0c0,0,0,0,0,0c0,0,0,0,0,0c0,0,0,0,0,0c0,0,0,0,0,0
		c0,0,0.1,0,0.1,0c0.1-0.9,0.2-1.4,0.2-1.4c0,0,0-0.1,0-0.1c0,0-0.1,0-0.1,0c-0.2,0-0.4,0.1-0.4,0.3L31.2,2C31.1,2,31.1,2,31.2,2z"
		/>
	<path class="st3" d="M29.8,13.3c-0.2,1.4-0.5,2.8-0.7,4.1h0.2c0.2-1.4,0.4-2.7,0.7-4.1C29.9,13.3,29.9,13.3,29.8,13.3
		C29.8,13.3,29.8,13.3,29.8,13.3z"/>
	<path class="st3" d="M31.8,0.7c0,0-0.1,0.5-0.2,1.4c0.1,0,0.2,0,0.2,0C32,1.4,32,0.9,32,0.9c0,0,0,0,0-0.1c0,0,0,0,0,0c0,0,0,0,0,0
		c0,0,0,0,0,0c0,0,0,0,0,0c0,0,0,0,0,0c0,0,0,0,0,0c0-0.1-0.1-0.1-0.2-0.2c0,0,0,0,0,0c0,0,0,0,0,0C31.8,0.6,31.8,0.6,31.8,0.7z"/>
	<path class="st4" d="M32.3,2.3c3.4,2,2.8,12.5,2.8,12.9l1.4-0.2c1.7-0.3,3.5,0,5.1,0.8c0,0,0,0,0,0C41.9,9.7,38,4.2,32.3,2.3z"/>
	<path class="st4" d="M41.8,16c0.1,0.1,0.2,0.1,0.3,0.2C42,16.1,41.9,16,41.8,16z"/>
	<path class="st4" d="M31.1,2c-0.1,0-0.1,0-0.2,0C31,2,31.1,2,31.1,2C31.1,2,31.1,2,31.1,2c-6.8-0.9-13.2,3.5-14.9,10.2L17,12
		c1.9-0.4,3.7-0.2,5.4,0.6l1.9,0.9C24.4,13.3,26.9,1.9,31.1,2z M17.3,10.5l0.2-0.5c0.1-0.2,0.1-0.3,0.2-0.4c0.2-0.3,0.3-0.6,0.5-0.9
		c0.1-0.1,0.2-0.3,0.3-0.4l0.3-0.4L19,7.7l0.2-0.2l0.3-0.4l0.3-0.4c0.1-0.1,0.1-0.1,0.2-0.2l0.2-0.2c0.5-0.5,1-0.9,1.5-1.4
		c0.1-0.1,0.3-0.2,0.4-0.3l0.4-0.3l0.4-0.3C23,4,23.1,3.9,23.3,3.8c0.6-0.3,1.2-0.6,1.8-0.8c0.6-0.2,1.3-0.4,1.9-0.6
		c0.7-0.1,1.3-0.2,2-0.2l0,0l0,0c-0.7,0-1.3,0.1-2,0.3c-0.7,0.1-1.3,0.3-1.9,0.6c-0.6,0.2-1.2,0.5-1.8,0.9C23.1,4,23,4.1,22.9,4.1
		l-0.4,0.3L22,4.7c-0.1,0.1-0.3,0.2-0.4,0.3c-0.5,0.4-1,0.9-1.5,1.4L20,6.5c-0.1,0.1-0.1,0.1-0.2,0.2l-0.3,0.4l-0.3,0.4L19,7.7
		l-0.1,0.2l-0.3,0.4c-0.1,0.1-0.2,0.3-0.3,0.4C18.2,9,18,9.3,17.8,9.6c-0.1,0.1-0.2,0.3-0.2,0.4L17.3,10.5c-0.1,0.3-0.2,0.6-0.4,0.9
		l0,0l0,0C17.1,11.1,17.2,10.8,17.3,10.5z"/>
	<path class="st4" d="M35.1,15.2L35.1,15.2L35.1,15.2L35.1,15.2C35.1,15.2,35.1,15.2,35.1,15.2z"/>
	<path class="st4" d="M29.8,13.3c-0.7-0.1-1.4-0.1-2.1-0.1l-3.4,0.3l0,0l3.4-0.3c0.5,0,1,0,1.5,0C29.4,13.2,29.6,13.2,29.8,13.3
		C29.8,13.3,29.8,13.3,29.8,13.3z"/>
	<polygon class="st5" points="31.4,2 31.4,2 31.5,2 	"/>
	<path class="st5" d="M29.8,13.3c0.1,0,0.1,0,0.2,0c0.6,0.1,1.2,0.3,1.8,0.5l3.3,1.4c0,0,0,0,0,0c0,0,0,0,0,0l-0.8-0.3
		c0-0.8,0.5-10.6-2.6-12.8c-0.2,0-0.3-0.1-0.5-0.1c-4.2-0.1-6.8,11.3-6.8,11.5c0,0,0,0,0,0l0,0l3.4-0.3
		C28.4,13.1,29.1,13.2,29.8,13.3z M27,7.2l-0.1,0.2l-0.1,0.2l-0.1,0.3c-0.1,0.2-0.2,0.5-0.3,0.7l-0.3,0.7C26,9.6,25.9,9.8,25.9,10
		l-0.2,0.7c-0.1,0.2-0.2,0.5-0.2,0.7c-0.1,0.5-0.3,1-0.4,1.4l0,0l0,0c0.1-0.5,0.3-1,0.4-1.5l0-0.2l0.1-0.2l0.1-0.4l0.2-0.7
		c0.1-0.2,0.2-0.5,0.3-0.7l0.3-0.7c0.1-0.2,0.2-0.5,0.3-0.7l0.2-0.3l0.1-0.2L27,7.2l0.3-0.7c0.1-0.1,0.1-0.2,0.2-0.3l0.2-0.3
		l0.2-0.3L28,5.2l0.2-0.3c0.1-0.1,0.1-0.2,0.2-0.3l0.2-0.3c0.1-0.1,0.2-0.2,0.2-0.3c0.1-0.1,0.2-0.2,0.2-0.3l0.3-0.3
		c0,0,0.1-0.1,0.1-0.1l0.1-0.1c0,0,0.1-0.1,0.1-0.1l0.1-0.1c0.2-0.2,0.4-0.3,0.6-0.4l0,0l0,0l0,0c-0.2,0.1-0.4,0.3-0.6,0.4L29.8,3
		c0,0-0.1,0.1-0.1,0.1l-0.1,0.1c0,0-0.1,0.1-0.1,0.1l-0.3,0.3C29,3.8,29,3.9,28.9,4c-0.1,0.1-0.2,0.2-0.2,0.3l-0.2,0.3
		c-0.1,0.1-0.1,0.2-0.2,0.3L28,5.2l-0.2,0.3l-0.2,0.3l-0.2,0.3c-0.1,0.1-0.1,0.2-0.2,0.3L27,7.2z"/>
	<path class="st6" d="M31.5,2C31.5,2,31.5,2,31.5,2C31.5,2,31.5,2,31.5,2C31.5,2,31.5,2,31.5,2z"/>
	<path class="st6" d="M32.3,2.3c-0.2-0.1-0.5-0.1-0.7-0.2c3.2,2.2,2.7,12,2.6,12.8l0.8,0.3l0,0l0,0c0,0,0,0,0,0
		C35.1,14.8,35.7,4.3,32.3,2.3z"/>
	<path class="st7" d="M31.6,2.1C31.6,2,31.5,2,31.6,2.1c-0.1,0-0.1,0-0.1,0c0,0,0,0,0,0c0,0,0,0,0,0c0,0,0,0,0,0c-0.1,0-0.2,0-0.3,0
		c-0.1,0-0.2,0-0.3,0C31,2,31,2,31.1,2C31.3,2,31.4,2.1,31.6,2.1c0.2,0.1,0.5,0.2,0.7,0.3c5.7,1.9,9.5,7.4,9.2,13.5c0,0,0,0,0,0
		c0.1,0,0.2,0.1,0.3,0.1c0.1,0.1,0.2,0.1,0.3,0.2l0.5,0.3c0-0.1,0-0.2,0-0.3c0.4-6.1-3.4-11.6-9-13.6c-0.6-0.2-1.2-0.4-1.8-0.5
		C31.8,2.1,31.7,2.1,31.6,2.1z"/>
	<path class="st1" d="M17,11.4c0.1-0.3,0.3-0.6,0.4-0.9l0.2-0.4c0.1-0.1,0.1-0.3,0.2-0.4C18,9.3,18.2,9,18.3,8.7
		c0.1-0.1,0.2-0.3,0.3-0.4l0.3-0.4L19,7.7l0.2-0.2l0.3-0.4l0.3-0.4c0.1-0.1,0.1-0.1,0.2-0.2l0.2-0.2c0.4-0.5,0.9-0.9,1.5-1.4
		c0.1-0.1,0.3-0.2,0.4-0.3l0.4-0.3l0.4-0.3C23,4.1,23.1,4,23.3,3.9c0.6-0.3,1.2-0.6,1.8-0.9c0.6-0.2,1.3-0.4,1.9-0.6
		c0.7-0.1,1.3-0.2,2-0.3l0,0l0,0c-0.7,0-1.3,0.1-2,0.2c-0.7,0.1-1.3,0.3-1.9,0.6c-0.6,0.2-1.2,0.5-1.8,0.8C23.1,3.9,23,4,22.8,4.1
		l-0.4,0.3L22,4.6c-0.1,0.1-0.3,0.2-0.4,0.3c-0.5,0.4-1,0.9-1.5,1.4l-0.2,0.2c-0.1,0.1-0.1,0.1-0.2,0.2l-0.3,0.4l-0.3,0.4L19,7.7
		l-0.1,0.2l-0.3,0.4c-0.1,0.1-0.2,0.3-0.3,0.4c-0.2,0.3-0.3,0.6-0.5,0.9c-0.1,0.1-0.2,0.3-0.2,0.4l-0.2,0.5
		C17.2,10.8,17.1,11.1,17,11.4L17,11.4L17,11.4z"/>
	<path class="st1" d="M27.5,6.2l0.2-0.3l0.2-0.3L28,5.2l0.2-0.3c0.1-0.1,0.1-0.2,0.2-0.3l0.2-0.3c0.1-0.1,0.2-0.2,0.2-0.3
		C29,3.9,29,3.8,29.1,3.7l0.3-0.3c0,0,0.1-0.1,0.1-0.1l0.1-0.1c0,0,0.1-0.1,0.1-0.1l0.1-0.1c0.2-0.2,0.4-0.3,0.6-0.4l0,0l0,0l0,0
		c-0.2,0.1-0.4,0.3-0.6,0.4L29.8,3c0,0-0.1,0.1-0.1,0.1l-0.1,0.1c0,0-0.1,0.1-0.1,0.1l-0.3,0.3C29,3.8,28.9,3.9,28.8,4
		c-0.1,0.1-0.2,0.2-0.2,0.3l-0.2,0.3c-0.1,0.1-0.1,0.2-0.2,0.3L28,5.2l-0.2,0.3l-0.2,0.3L27.5,6.2c-0.1,0.1-0.2,0.2-0.2,0.3
		l-0.3,0.7l-0.1,0.2l-0.1,0.2l-0.2,0.3c-0.1,0.2-0.2,0.5-0.3,0.7L26,9.3c-0.1,0.2-0.2,0.5-0.3,0.7l-0.2,0.7l-0.1,0.4l-0.1,0.2l0,0.2
		c-0.1,0.5-0.3,1-0.4,1.5l0,0l0,0c0.2-0.5,0.3-1,0.4-1.4c0.1-0.2,0.2-0.5,0.2-0.7l0.2-0.7c0.1-0.2,0.2-0.5,0.3-0.7l0.3-0.7
		c0.1-0.2,0.2-0.5,0.3-0.7l0.1-0.3l0.1-0.2L27,7.2l0.3-0.7C27.3,6.4,27.4,6.3,27.5,6.2z"/>
	<polygon class="st1" points="29.4,13.4 29.4,13.4 28.8,17.4 28.8,17.4 29.4,13.4 	"/>
	<path class="st8" d="M21.4,16.8h1.4l-0.7-0.7c0.2-0.3,0.3-0.7,0.3-1.1c0-1.1-0.9-2-2-2c-1.1,0-2,0.9-2,2c0,0.4,0.1,0.8,0.3,1.1
		l-0.7,0.7h1.4H21.4z M20.4,13.5c0.5,0,0.8,0.4,0.8,0.8c0,0.5-0.4,0.8-0.8,0.8c-0.5,0-0.8-0.4-0.8-0.8C19.6,13.9,20,13.5,20.4,13.5z
		 M18.8,15c0,0.1,0,0.2,0.1,0.4c0,0.1,0.1,0.2,0.1,0.4c0,0.1,0.1,0.2,0.1,0.3l0,0l0,0l0,0C19,16,19,15.9,18.9,15.8
		c0-0.1,0-0.1-0.1-0.2c0-0.1-0.1-0.1-0.1-0.2l0-0.2l0,0l0,0L18.8,15c-0.1-0.1-0.1-0.2-0.1-0.4c0-0.3,0.1-0.5,0.3-0.7
		c0.1-0.2,0.3-0.4,0.6-0.5l0,0l0,0c-0.2,0.1-0.4,0.3-0.5,0.5c-0.1,0.2-0.2,0.4-0.3,0.7C18.8,14.8,18.8,14.9,18.8,15z"/>
	<path class="st9" d="M30.5,45.2h0.1c0,0,0.1,0,0.1,0l0,0C30.6,45.2,30.6,45.2,30.5,45.2z"/>
	<path class="st9" d="M9.3,44.6c0.2,0.1,0.4,0.2,0.6,0.2h20.2c0,0,0,0,0,0l-0.6-0.4H10.2v-6.5l-0.7,4.7l0,1.3l0,0l0,0l0-1l-0.1,0.7
		l0,0l-0.2,0.5v0.1c0,0.1,0,0.1,0,0.2c0.1,0.5,0.5,0.9,1,0.9h0.1C9.9,45.2,9.5,45,9.3,44.6z"/>
	<path class="st9" d="M9.5,31.2l0-12.7l0,0l0,0L9.5,31.2l0.6-3.6h0l0.1-0.4h0l0-0.2c0,0,0,0,0-0.1c0,0,0,0,0-0.1c0,0,0-0.1,0-0.1
		v-8.9h2.5c0.2-0.2,0.4-0.4,0.7-0.4c0,0,0,0,0-0.1h-3.2c-0.6,0-1,0.5-1,1v15.5l0.3-2.2L9.5,31.2z"/>
	<path class="st9" d="M27.4,17.4C27.4,17.4,27.4,17.4,27.4,17.4c0.3,0.1,0.5,0.2,0.7,0.4h2.5v7.9l0.6-0.2v-7.4
		c0-0.2-0.1-0.4-0.1-0.5c0.3,0.2,0.5,0.6,0.5,1v-0.1c0-0.6-0.5-1-1-1h-1.3h-0.2h-0.3h0h-0.2L27.4,17.4
		C27.4,17.4,27.4,17.4,27.4,17.4C27.4,17.4,27.4,17.4,27.4,17.4z"/>
	<path class="st10" d="M30.2,44.8C30.2,44.8,30.2,44.8,30.2,44.8l-20.2,0c-0.2,0-0.5-0.1-0.6-0.2c0.2,0.4,0.6,0.6,1,0.6h20.2
		c0.1,0,0.1,0,0.2,0L30.2,44.8z"/>
	<path class="st10" d="M31.2,17.6c0.1,0.2,0.1,0.3,0.1,0.5v7.4l0.4-0.1v-6.9C31.7,18.1,31.5,17.8,31.2,17.6z"/>
	<path class="st1" d="M13.8,40.9c0,0-0.1,0.1-0.1,0.1l0,0c0,0-0.1,0-0.1-0.1l-0.6-0.6c-0.1-0.1-0.1-0.2,0-0.3c0.1-0.1,0.2-0.1,0.3,0
		l0.5,0.5l1-1.4c-0.1,0-0.2-0.1-0.3-0.1H13c-0.3,0-0.5,0.2-0.5,0.5v1.5c0,0.3,0.2,0.5,0.5,0.5h1.5c0.3,0,0.5-0.2,0.5-0.5v-1.5
		c0,0,0,0,0,0L13.8,40.9z"/>
	<path class="st1" d="M12.9,35.1c-0.2,0-0.4,0.2-0.4,0.4V37c0,0.2,0.2,0.4,0.4,0.4h1.6c0.2,0,0.4-0.2,0.4-0.4v-1.6l-1.1,1.5
		c0,0-0.1,0.1-0.1,0.1l0,0c0,0-0.1,0-0.1-0.1l-0.6-0.6c-0.1-0.1-0.1-0.2,0-0.3c0.1-0.1,0.2-0.1,0.3,0l0.5,0.5l1-1.4
		c-0.1,0-0.1,0-0.2,0H12.9z"/>
	<path class="st1" d="M12.8,18.7c0,0.5,0.4,0.8,0.8,0.8h13.5c0.5,0,0.8-0.4,0.8-0.8c0-0.3-0.2-0.6-0.5-0.7c-0.1,0.6-0.5,1-1.1,1h-12
		c0,0,0,0,0,0c-0.6,0-1-0.4-1.1-1C13,18.1,12.8,18.4,12.8,18.7z"/>
	<path class="st1" d="M12,28.1c-0.1,0-0.1-0.1-0.1-0.1c0,0,0,0,0,0l-0.3,0l-0.8,5.9C11.3,33.1,11.8,30.4,12,28.1
		C12,28.2,12,28.1,12,28.1z"/>
	<path class="st1" d="M18,22.5h-0.2v0.3H18c0.1,0,0.1,0,0.1,0c0,0,0.1,0,0.1-0.1c0,0,0-0.1,0-0.1c0,0,0-0.1,0-0.1
		C18.1,22.5,18.1,22.5,18,22.5z"/>
	<path class="st1" d="M19,22.5C18.9,22.5,18.9,22.6,19,22.5c-0.1,0.1-0.1,0.1-0.2,0.2c0,0.1,0,0.1,0,0.2c0,0.1,0,0.1,0,0.2
		c0,0.1,0,0.1,0.1,0.1c0,0,0.1,0.1,0.1,0.1c0,0,0.1,0,0.1,0c0.1,0,0.1,0,0.2,0c0,0,0.1-0.1,0.1-0.1c0-0.1,0-0.1,0-0.2
		c0-0.1,0-0.2,0-0.2c0-0.1-0.1-0.1-0.1-0.1c0,0-0.1,0-0.2,0C19.1,22.5,19,22.5,19,22.5z"/>
	<path class="st1" d="M20.2,21.3C20.2,21.3,20.3,21.3,20.2,21.3c0.1-0.1,0.1-0.1,0.1-0.1c0,0,0-0.1,0-0.1c0,0,0,0-0.1-0.1
		c0,0-0.1,0-0.2,0h-0.2v0.3h0.2C20.1,21.3,20.2,21.3,20.2,21.3z"/>
	<path class="st1" d="M11,26.4c0.4,0.1,0.7,0.4,0.7,0.8c0,0,0,0,0,0.1c0,0,0,0,0,0.1l0,0.2l0.3,0c0.1,0,0.2,0.1,0.3,0.1h5.7
		c0.1,0,0.3,0.1,0.3,0.3c0,0.1-0.1,0.3-0.3,0.3h-5.4c0,0,0,0.1,0,0.1c-0.1,0.5-0.1,1.2-0.3,1.9h7.8c0.2,0,0.3,0.1,0.3,0.3
		c0,0.2-0.1,0.3-0.3,0.3h-7.9c-0.2,1.4-0.6,2.9-1.1,3.5c-0.1,0.1-0.1,0.1-0.2,0.1c0,0-0.1,0-0.1-0.1c0,0,0,0,0,0l-0.5,3.7v6.5
		l4.8-1.1c2.8-0.7,5.3-1.9,7.5-3.6h-6.3c-0.1,0-0.2-0.1-0.2-0.2c0-0.1,0.1-0.2,0.2-0.2H23c0.3-0.3,0.6-0.6,0.9-0.9
		c-0.3-0.9-0.6-1.8-0.7-2.7h-7.1c-0.1,0-0.2-0.1-0.2-0.2c0-0.1,0.1-0.2,0.2-0.2h7.1c0-0.2,0-0.4,0-0.6v-1.1h-3.9
		c-0.1,0-0.3-0.1-0.3-0.3c0-0.1,0.1-0.3,0.3-0.3h3.9V32h-1.1c-0.1,0-0.3-0.1-0.3-0.3c0-0.1,0.1-0.3,0.3-0.3h1.1v-0.8h-1.4
		c-0.2,0-0.3-0.1-0.3-0.3c0-0.2,0.1-0.3,0.3-0.3h1.4v-0.8h-7.3c-0.1,0-0.3-0.1-0.3-0.3c0-0.1,0.1-0.3,0.3-0.3h7.3v-0.7l0.1,0h-4
		c-0.1,0-0.3-0.1-0.3-0.3c0-0.1,0.1-0.3,0.3-0.3h5.6l2.7-0.9h-5.4c-0.1,0-0.3-0.1-0.3-0.3c0-0.1,0.1-0.3,0.3-0.3h6.4
		c0.1,0,0.2,0,0.2,0.1l0.8-0.3l1.1-8.3h-2.5c0.2,0.2,0.3,0.5,0.3,0.9c0,0.7-0.6,1.3-1.3,1.3H13.7c-0.7,0-1.3-0.6-1.3-1.3
		c0-0.3,0.1-0.6,0.3-0.9h-2.5v8.9C10.3,26.5,10.7,26.3,11,26.4z M13.9,31.5h2c0.1,0,0.3,0.1,0.3,0.3c0,0.1-0.1,0.3-0.3,0.3h-2
		c-0.1,0-0.3-0.1-0.3-0.3C13.7,31.6,13.8,31.5,13.9,31.5z M15.3,35.4V37c0,0.4-0.3,0.8-0.8,0.8h-1.6c-0.4,0-0.8-0.3-0.8-0.8v-1.6
		c0-0.4,0.3-0.8,0.8-0.8h1.6c0.1,0,0.3,0,0.4,0.1l0.6-0.8c0.1-0.1,0.2-0.1,0.3,0c0.1,0.1,0.1,0.2,0,0.3l-0.6,0.8
		C15.2,35.2,15.3,35.3,15.3,35.4z M15.3,40.8c0,0.5-0.4,0.8-0.8,0.8H13c-0.5,0-0.8-0.4-0.8-0.8v-1.5c0-0.5,0.4-0.8,0.8-0.8h1.5
		c0.2,0,0.3,0.1,0.5,0.2l0.5-0.7c0.1-0.1,0.2-0.1,0.3,0c0.1,0.1,0.1,0.2,0,0.3L15.2,39c0.1,0.1,0.1,0.3,0.1,0.4V40.8z M16.1,40.3
		h4.2c0.1,0,0.2,0.1,0.2,0.2s-0.1,0.2-0.2,0.2h-4.2c-0.1,0-0.2-0.1-0.2-0.2S16,40.3,16.1,40.3z M16.1,36.2h4.2
		c0.1,0,0.2,0.1,0.2,0.2c0,0.1-0.1,0.2-0.2,0.2h-4.2c-0.1,0-0.2-0.1-0.2-0.2C15.9,36.3,16,36.2,16.1,36.2z M17.9,33.4h-5.8
		c-0.1,0-0.3-0.1-0.3-0.3c0-0.1,0.1-0.3,0.3-0.3h5.8c0.1,0,0.3,0.1,0.3,0.3C18.2,33.3,18,33.4,17.9,33.4z M20.9,31.8
		c0,0.1-0.1,0.3-0.3,0.3h-3.4c-0.1,0-0.3-0.1-0.3-0.3c0-0.1,0.1-0.3,0.3-0.3h3.4C20.8,31.5,20.9,31.6,20.9,31.8z M21,23.3
		c0,0,0,0.1,0,0.1c0,0,0,0-0.1,0c0,0-0.1,0-0.1,0c0,0,0-0.1,0-0.1v-0.9c0,0,0-0.1,0-0.1c0,0,0,0,0.1,0c0,0,0.1,0,0.1,0
		c0,0,0,0.1,0,0.1V23.3z M24.2,21C24.2,21,24.2,20.9,24.2,21c0-0.1,0-0.1,0.1-0.1c0,0,0,0,0.1,0h0.6c0,0,0.1,0,0.1,0c0,0,0,0,0,0.1
		c0,0,0,0,0,0.1c0,0,0,0-0.1,0h-0.5v0.3h0.5c0,0,0.1,0,0.1,0c0,0,0,0,0,0.1c0,0,0,0,0,0.1c0,0,0,0-0.1,0h-0.5v0.3H25
		c0,0,0.1,0,0.1,0c0,0,0,0,0,0.1c0,0,0,0,0,0.1c0,0,0,0-0.1,0h-0.6c0,0-0.1,0-0.1,0c0,0,0-0.1,0-0.1V21z M23.1,21.2
		c0-0.1,0.1-0.1,0.1-0.2c0-0.1,0.1-0.1,0.2-0.1c0.1,0,0.1,0,0.2,0c0.1,0,0.2,0,0.2,0.1c0.1,0,0.1,0.1,0.2,0.1c0,0.1,0.1,0.1,0.1,0.2
		c0,0,0,0,0,0.1c0,0,0,0-0.1,0c0,0-0.1,0-0.1,0c0,0,0,0,0-0.1c0-0.1-0.1-0.1-0.1-0.1c0,0-0.1,0-0.1,0c-0.1,0-0.2,0-0.2,0.1
		c-0.1,0.1-0.1,0.2-0.1,0.3c0,0.1,0,0.2,0,0.2c0,0.1,0.1,0.1,0.1,0.1c0,0,0.1,0,0.2,0c0.1,0,0.1,0,0.2,0c0,0,0.1-0.1,0.1-0.1
		c0,0,0-0.1,0-0.1c0,0,0,0,0.1,0c0,0,0,0,0.1,0c0,0,0,0,0,0.1c0,0,0,0.1,0,0.1c0,0,0,0.1-0.1,0.1c0,0-0.1,0.1-0.1,0.1
		c-0.1,0-0.1,0-0.2,0c-0.1,0-0.1,0-0.2,0c0,0-0.1,0-0.1-0.1c0,0-0.1-0.1-0.1-0.1c0,0-0.1-0.1-0.1-0.1c0,0,0-0.1,0-0.1
		c0,0,0-0.1,0-0.2C23,21.3,23,21.3,23.1,21.2z M23,22.4C23,22.4,23.1,22.4,23,22.4C23.1,22.4,23.1,22.3,23,22.4
		c0.1-0.1,0.1-0.1,0.1-0.1c0,0,0.1,0,0.1,0c0,0,0,0,0,0.1c0,0,0,0,0,0.1c0,0,0,0,0,0.1L22.9,23v0.4c0,0,0,0.1,0,0.1c0,0,0,0-0.1,0
		c0,0-0.1,0-0.1,0c0,0,0-0.1,0-0.1V23l-0.3-0.4c0,0,0-0.1-0.1-0.1c0,0,0,0,0-0.1c0,0,0,0,0-0.1c0,0,0,0,0.1,0c0,0,0.1,0,0.1,0
		c0,0,0,0.1,0.1,0.1l0.2,0.3L23,22.4C23,22.4,23,22.4,23,22.4z M21.9,21C21.9,21,21.9,20.9,21.9,21c0-0.1,0-0.1,0.1-0.1
		c0,0,0,0,0.1,0c0,0,0,0,0.1,0c0,0,0,0,0,0c0,0,0,0,0,0c0,0,0,0,0,0.1l0.4,0.7V21c0,0,0-0.1,0-0.1c0,0,0,0,0.1,0c0,0,0.1,0,0.1,0
		c0,0,0,0.1,0,0.1v0.9c0,0.1,0,0.1-0.1,0.1c0,0,0,0-0.1,0c0,0,0,0,0,0c0,0,0,0,0,0c0,0,0,0,0-0.1l-0.4-0.6v0.7c0,0,0,0.1,0,0.1
		c0,0,0,0-0.1,0c0,0-0.1,0-0.1,0c0,0,0-0.1,0-0.1V21z M22,22.4c0.1,0,0.1,0.1,0.2,0.1c0,0.1,0.1,0.1,0.1,0.2c0,0,0,0,0,0.1
		c0,0,0,0-0.1,0c0,0-0.1,0-0.1,0c0,0,0,0,0-0.1c0-0.1-0.1-0.1-0.1-0.1c0,0-0.1,0-0.1,0c-0.1,0-0.2,0-0.2,0.1
		c-0.1,0.1-0.1,0.2-0.1,0.3c0,0.1,0,0.2,0,0.2c0,0.1,0.1,0.1,0.1,0.1c0,0,0.1,0,0.2,0c0.1,0,0.1,0,0.2,0c0,0,0.1-0.1,0.1-0.1
		c0,0,0-0.1,0-0.1c0,0,0,0,0.1,0c0,0,0,0,0.1,0c0,0,0,0,0,0.1c0,0,0,0.1,0,0.1c0,0,0,0.1-0.1,0.1c0,0-0.1,0.1-0.1,0.1
		c-0.1,0-0.1,0-0.2,0c-0.1,0-0.1,0-0.2,0c0,0-0.1,0-0.1-0.1c0,0-0.1-0.1-0.1-0.1c0,0-0.1-0.1-0.1-0.1c0,0,0-0.1,0-0.1
		c0,0,0-0.1,0-0.2c0-0.1,0-0.2,0-0.2c0-0.1,0.1-0.1,0.1-0.2c0-0.1,0.1-0.1,0.2-0.1c0.1,0,0.1,0,0.2,0C21.9,22.3,21.9,22.3,22,22.4z
		 M20.7,21.8C20.7,21.8,20.7,21.8,20.7,21.8l0.3-0.8c0,0,0,0,0-0.1c0,0,0-0.1,0-0.1c0,0,0,0,0.1,0c0,0,0,0,0.1,0c0,0,0.1,0,0.1,0
		c0,0,0,0,0.1,0c0,0,0,0,0,0.1c0,0,0,0.1,0,0.1l0.3,0.7c0,0.1,0,0.1,0,0.1c0,0,0,0,0,0.1c0,0,0,0-0.1,0c0,0,0,0,0,0c0,0,0,0,0,0
		c0,0,0,0,0-0.1c0,0,0,0,0-0.1l-0.1-0.1H21l-0.1,0.1c0,0.1,0,0.1-0.1,0.1c0,0,0,0-0.1,0c0,0-0.1,0-0.1,0
		C20.7,21.9,20.7,21.9,20.7,21.8C20.7,21.9,20.7,21.9,20.7,21.8z M20.6,23.4C20.6,23.4,20.6,23.4,20.6,23.4c0,0.1-0.1,0.1-0.1,0.1
		H20c0,0-0.1,0-0.1,0c0,0,0-0.1,0-0.1v-0.9c0,0,0-0.1,0-0.1c0,0,0,0,0.1,0c0,0,0.1,0,0.1,0c0,0,0,0.1,0,0.1v0.8h0.5
		C20.6,23.3,20.6,23.3,20.6,23.4C20.6,23.3,20.6,23.3,20.6,23.4z M19.6,21c0,0,0-0.1,0-0.1c0,0,0.1,0,0.1,0h0.4c0.1,0,0.1,0,0.1,0
		c0,0,0.1,0,0.1,0c0,0,0.1,0,0.1,0.1c0,0,0,0.1,0.1,0.1c0,0,0,0.1,0,0.1c0,0.1,0,0.1-0.1,0.2c0,0-0.1,0.1-0.2,0.1
		c0,0,0.1,0.1,0.1,0.1c0,0,0.1,0.1,0.1,0.1c0,0,0.1,0.1,0.1,0.1c0,0,0,0.1,0,0.1c0,0,0,0,0,0c0,0,0,0,0,0c0,0,0,0-0.1,0
		c0,0,0,0-0.1,0c0,0,0,0,0,0c0,0,0,0-0.1-0.1l-0.1-0.2c0-0.1-0.1-0.1-0.1-0.1c0,0-0.1,0-0.1-0.1c0,0-0.1,0-0.1,0h-0.1v0.4
		c0,0,0,0.1,0,0.1c0,0,0,0-0.1,0c0,0-0.1,0-0.1,0c0,0,0-0.1,0-0.1V21z M19.6,22.6c0,0.1,0.1,0.2,0.1,0.3c0,0.1,0,0.2,0,0.2
		c0,0.1-0.1,0.1-0.1,0.2c0,0.1-0.1,0.1-0.2,0.1c-0.1,0-0.1,0-0.2,0c-0.1,0-0.2,0-0.2,0c-0.1,0-0.1-0.1-0.2-0.1
		c0-0.1-0.1-0.1-0.1-0.2c0-0.1,0-0.1,0-0.2c0-0.1,0-0.2,0-0.2c0-0.1,0.1-0.1,0.1-0.2c0-0.1,0.1-0.1,0.2-0.1c0.1,0,0.1,0,0.2,0
		c0.1,0,0.2,0,0.3,0.1C19.5,22.4,19.6,22.5,19.6,22.6z M18.5,21c0,0,0-0.1,0-0.1c0,0,0,0,0.1,0c0,0,0.1,0,0.1,0c0,0,0,0.1,0,0.1v0.5
		c0,0.1,0,0.1,0,0.2c0,0,0,0.1,0.1,0.1c0,0,0.1,0,0.1,0c0.1,0,0.2,0,0.2-0.1c0,0,0.1-0.1,0.1-0.2V21c0,0,0-0.1,0-0.1c0,0,0,0,0.1,0
		c0,0,0.1,0,0.1,0c0,0,0,0.1,0,0.1v0.5c0,0.1,0,0.2,0,0.2c0,0.1,0,0.1-0.1,0.2c0,0-0.1,0.1-0.1,0.1c-0.1,0-0.1,0-0.2,0
		c-0.1,0-0.2,0-0.2,0c-0.1,0-0.1,0-0.2-0.1c0,0-0.1-0.1-0.1-0.1c0-0.1,0-0.1,0-0.2V21z M18.4,22.5c0,0,0,0.1,0,0.1
		c0,0.1,0,0.2-0.1,0.3C18.3,23,18.2,23,18,23h-0.2v0.3c0,0,0,0.1,0,0.1c0,0,0,0-0.1,0c0,0-0.1,0-0.1,0c0,0,0-0.1,0-0.1v-0.9
		c0,0,0-0.1,0-0.1c0,0,0.1,0,0.1,0H18c0.1,0,0.2,0,0.2,0c0,0,0.1,0,0.1,0.1C18.4,22.5,18.4,22.5,18.4,22.5z M18,21.6
		C18,21.6,18,21.5,18,21.6c-0.1-0.1-0.2-0.1-0.2-0.1c-0.1,0-0.1,0-0.2-0.1c-0.1,0-0.1-0.1-0.1-0.1c0,0,0-0.1,0-0.2
		c0-0.1,0-0.1,0.1-0.2c0,0,0.1-0.1,0.1-0.1c0.1,0,0.1,0,0.2,0c0.1,0,0.1,0,0.2,0c0,0,0.1,0,0.1,0.1c0,0,0.1,0.1,0.1,0.1
		c0,0,0,0.1,0,0.1c0,0,0,0.1,0,0.1c0,0,0,0-0.1,0c0,0,0,0-0.1,0c0,0,0,0,0-0.1c0,0,0-0.1-0.1-0.1c0,0-0.1,0-0.1,0
		c-0.1,0-0.1,0-0.1,0c0,0-0.1,0.1-0.1,0.1c0,0,0,0,0,0.1c0,0,0,0,0.1,0c0,0,0,0,0.1,0c0,0,0.1,0,0.1,0c0.1,0,0.1,0,0.2,0
		c0.1,0,0.1,0,0.1,0.1c0,0,0.1,0.1,0.1,0.1c0,0,0,0.1,0,0.1c0,0.1,0,0.1-0.1,0.2c0,0.1-0.1,0.1-0.2,0.1c-0.1,0-0.1,0-0.2,0
		c-0.1,0-0.2,0-0.3-0.1c-0.1,0-0.1-0.1-0.1-0.1c0,0,0-0.1,0-0.1c0,0,0-0.1,0-0.1c0,0,0,0,0.1,0c0,0,0,0,0.1,0c0,0,0,0,0,0.1
		c0,0,0,0.1,0,0.1c0,0,0,0,0.1,0.1c0,0,0.1,0,0.1,0c0.1,0,0.1,0,0.2,0C18,21.8,18,21.7,18,21.6C18,21.6,18,21.6,18,21.6z M20.7,26.3
		c0.1,0,0.3,0.1,0.3,0.3c0,0.1-0.1,0.3-0.3,0.3h-3.4c-0.1,0-0.3-0.1-0.3-0.3c0-0.1,0.1-0.3,0.3-0.3H20.7z M16.2,21
		C16.2,21,16.2,20.9,16.2,21c0-0.1,0-0.1,0.1-0.1c0,0,0,0,0.1,0c0,0,0,0,0.1,0c0,0,0,0,0,0c0,0,0,0,0,0c0,0,0,0,0,0.1l0.4,0.7V21
		c0,0,0-0.1,0-0.1c0,0,0,0,0.1,0c0,0,0.1,0,0.1,0c0,0,0,0.1,0,0.1v0.9c0,0.1,0,0.1-0.1,0.1c0,0,0,0-0.1,0c0,0,0,0,0,0c0,0,0,0,0,0
		c0,0,0,0,0-0.1l-0.4-0.6v0.7c0,0,0,0.1,0,0.1c0,0,0,0-0.1,0c0,0-0.1,0-0.1,0c0,0,0-0.1,0-0.1V21z M15.8,21c0,0,0-0.1,0-0.1
		c0,0,0,0,0.1,0c0,0,0.1,0,0.1,0c0,0,0,0.1,0,0.1v0.9c0,0,0,0.1,0,0.1c0,0,0,0-0.1,0c0,0-0.1,0-0.1,0c0,0,0-0.1,0-0.1V21z M14,26.3
		h2c0.1,0,0.3,0.1,0.3,0.3c0,0.1-0.1,0.3-0.3,0.3h-2c-0.1,0-0.3-0.1-0.3-0.3C13.7,26.4,13.8,26.3,14,26.3z"/>
	<polygon class="st1" points="21.2,21.1 21,21.5 21.4,21.5 	"/>
	<polygon class="st11" points="29.6,26.1 30.6,25.8 30.6,17.9 	"/>
	<path class="st11" d="M15,43.3l-4.8,1.1h19.4l-2-1.4h-6.9c-0.1,0-0.1,0-0.1-0.1c0-0.1,0-0.1,0.1-0.1h6.6c-1.2-0.9-2.1-1.9-2.8-3.2
		h-2.1C20.3,41.3,17.8,42.6,15,43.3z"/>
	<path class="st11" d="M24.3,39.2c-0.1-0.3-0.3-0.6-0.4-0.9c-0.3,0.3-0.6,0.6-0.9,0.9H24.3z"/>
	<path class="st12" d="M13.7,20h13.5c0.7,0,1.3-0.6,1.3-1.3c0-0.3-0.1-0.6-0.3-0.9c-0.2-0.2-0.4-0.4-0.7-0.4c0,0,0,0,0,0.1
		c0,0,0,0,0,0c0,0,0,0.1,0,0.1c0,0,0,0,0,0c0,0,0,0.1,0,0.1c0,0,0,0,0,0c0,0,0,0.1,0,0.1c0,0,0,0.1,0,0.1c0.3,0.1,0.5,0.4,0.5,0.7
		c0,0.5-0.4,0.8-0.8,0.8H13.7c-0.5,0-0.8-0.4-0.8-0.8c0-0.3,0.2-0.6,0.5-0.7c0,0,0-0.1,0-0.1c0-0.1,0-0.3,0.1-0.4
		c-0.3,0.1-0.5,0.2-0.7,0.4c-0.2,0.2-0.3,0.5-0.3,0.9C12.4,19.4,13,20,13.7,20z M12.6,18.7L12.6,18.7c0-0.2,0.1-0.3,0.1-0.4
		c0.1-0.2,0.2-0.4,0.4-0.5l0,0l0,0l0,0c-0.2,0.1-0.3,0.3-0.4,0.5C12.7,18.4,12.6,18.5,12.6,18.7L12.6,18.7L12.6,18.7
		c0,0.1,0,0.2,0,0.3c0,0,0,0.1,0,0.1c0,0,0,0.1,0,0.1c0,0.1,0,0.1,0.1,0.1c0.1,0.1,0.1,0.2,0.2,0.2c0.2,0.1,0.4,0.2,0.6,0.3l2.3,0
		c0.4,0,0.8,0,1.2,0c0.4,0,0.8,0,1.2,0l0,0l0,0c-0.4,0-0.8,0-1.2,0c-0.4,0-0.8,0-1.2,0l-2.3,0h0l0,0c-0.2-0.1-0.4-0.1-0.6-0.3
		c0,0-0.1-0.1-0.1-0.1c0,0-0.1-0.1-0.1-0.1c0,0-0.1-0.1-0.1-0.2c0,0,0-0.1,0-0.1c0,0,0-0.1,0-0.1C12.6,18.9,12.6,18.9,12.6,18.7
		L12.6,18.7z"/>
	<path class="st8" d="M27.3,17.1C27.3,17.2,27.3,17.2,27.3,17.1C27.3,17.2,27.3,17.2,27.3,17.1z"/>
	<path class="st8" d="M27.2,17.1C27.2,17.1,27.2,17.1,27.2,17.1C27.2,17.1,27.2,17.1,27.2,17.1z"/>
	<path class="st8" d="M27.3,17.2C27.3,17.3,27.4,17.3,27.3,17.2C27.4,17.3,27.3,17.3,27.3,17.2z"/>
	<path class="st8" d="M27.4,17.4C27.4,17.4,27.4,17.4,27.4,17.4C27.4,17.4,27.4,17.3,27.4,17.4C27.4,17.3,27.4,17.4,27.4,17.4z"/>
	<path class="st8" d="M27.4,17.4C27.5,17.4,27.5,17.5,27.4,17.4C27.5,17.5,27.5,17.5,27.4,17.4C27.4,17.4,27.4,17.4,27.4,17.4z"/>
	<path class="st8" d="M13.3,17.9c0,0,0,0.1,0,0.1c0.1,0.5,0.5,1,1.1,1c0.1,0,11.8-0.3,11.8-0.3c0.6,0,1.1-0.5,1.1-1.1
		c0-0.2,0-0.3-0.1-0.5c-0.2-0.2-0.5-0.3-0.7-0.3h-3.7h-1.4h-1.9h-1.4h-3.7c-0.4,0-0.8,0.2-1,0.6c0,0,0,0,0,0.1
		C13.3,17.6,13.3,17.7,13.3,17.9z M13.7,17.3c0.1-0.1,0.2-0.2,0.3-0.2c0.1,0,0.1,0,0.2-0.1l0.1,0l0.1,0c0.1,0,0.1,0,0.2,0l0.2,0
		l0.3,0l0.7,0c0.4,0,0.9,0,1.3,0c0.4,0,0.9,0,1.3,0.1l0,0l0,0c-0.4,0-0.9,0-1.3,0c-0.4,0-0.9,0-1.3,0L15,17l-0.3,0l-0.2,0
		c-0.1,0-0.1,0-0.2,0l-0.1,0l-0.1,0c-0.1,0-0.1,0-0.2,0C13.9,17.2,13.8,17.2,13.7,17.3c-0.1,0.2-0.2,0.4-0.2,0.6l0,0l0,0
		C13.5,17.7,13.6,17.5,13.7,17.3z"/>
	<path class="st8" d="M27.5,17.6C27.5,17.6,27.5,17.6,27.5,17.6C27.5,17.6,27.5,17.6,27.5,17.6z"/>
	<path class="st8" d="M27.5,17.9c0,0,0-0.1,0-0.1C27.5,17.8,27.5,17.8,27.5,17.9z"/>
	<path class="st8" d="M27.5,17.7C27.5,17.7,27.5,17.7,27.5,17.7C27.5,17.7,27.5,17.7,27.5,17.7z"/>
	<path class="st13" d="M27.3,17.5c0,0.6-0.5,1.1-1.1,1.1c0,0-11.7,0.3-11.8,0.3c0,0,0,0,0,0h12c0.6,0,1-0.4,1.1-1c0,0,0-0.1,0-0.1
		c0,0,0-0.1,0-0.1c0,0,0,0,0,0c0,0,0-0.1,0-0.1c0,0,0,0,0,0c0,0,0-0.1,0-0.1c0,0,0,0,0,0c0,0,0-0.1,0-0.1c0,0,0,0,0,0
		c0,0,0-0.1,0-0.1c0,0,0,0,0,0c0,0,0-0.1-0.1-0.1c0,0,0,0,0,0c0,0,0-0.1-0.1-0.1c0,0,0,0,0,0c0,0-0.1-0.1-0.1-0.1c0,0,0,0,0,0
		c0,0,0,0,0,0C27.2,17.2,27.3,17.4,27.3,17.5z"/>
	<path class="st14" d="M15.9,22C15.9,22,15.9,22,15.9,22c0.1-0.1,0.1-0.1,0.1-0.1V21c0,0,0-0.1,0-0.1c0,0,0,0-0.1,0c0,0-0.1,0-0.1,0
		c0,0,0,0.1,0,0.1v0.9C15.8,21.9,15.8,21.9,15.9,22C15.8,22,15.8,22,15.9,22z"/>
	<path class="st14" d="M16.3,22C16.4,22,16.4,22,16.3,22c0.1-0.1,0.1-0.1,0.1-0.1v-0.7l0.4,0.6c0,0,0,0,0,0.1c0,0,0,0,0,0
		c0,0,0,0,0,0c0,0,0,0,0.1,0c0.1,0,0.1,0,0.1-0.1V21c0,0,0-0.1,0-0.1c0,0,0,0-0.1,0c0,0-0.1,0-0.1,0c0,0,0,0.1,0,0.1v0.7L16.5,21
		c0,0,0,0,0-0.1c0,0,0,0,0,0c0,0,0,0,0,0c0,0,0,0-0.1,0c0,0,0,0-0.1,0c0,0,0,0,0,0.1c0,0,0,0,0,0.1v0.9C16.2,21.9,16.3,21.9,16.3,22
		C16.3,22,16.3,22,16.3,22z"/>
	<path class="st14" d="M18,21.8c0,0-0.1,0-0.2,0c0,0-0.1,0-0.1,0c0,0-0.1,0-0.1-0.1c0,0,0-0.1,0-0.1c0,0,0-0.1,0-0.1c0,0,0,0-0.1,0
		c0,0-0.1,0-0.1,0c0,0,0,0,0,0.1c0,0,0,0.1,0,0.1c0,0,0.1,0.1,0.1,0.1c0.1,0,0.2,0.1,0.3,0.1c0.1,0,0.2,0,0.2,0
		c0.1,0,0.1-0.1,0.2-0.1c0-0.1,0.1-0.1,0.1-0.2c0-0.1,0-0.1,0-0.1c0,0,0-0.1-0.1-0.1c0,0-0.1,0-0.1-0.1c-0.1,0-0.1,0-0.2,0
		c-0.1,0-0.1,0-0.1,0c0,0,0,0-0.1,0c0,0,0,0-0.1,0c0,0,0,0,0-0.1c0,0,0-0.1,0.1-0.1c0,0,0.1,0,0.1,0c0.1,0,0.1,0,0.1,0
		c0,0,0.1,0.1,0.1,0.1c0,0,0,0.1,0,0.1c0,0,0,0,0.1,0c0,0,0.1,0,0.1,0c0,0,0,0,0-0.1c0,0,0-0.1,0-0.1c0,0,0-0.1-0.1-0.1
		c0,0-0.1-0.1-0.1-0.1c0,0-0.1,0-0.2,0c-0.1,0-0.2,0-0.2,0c-0.1,0-0.1,0.1-0.1,0.1c0,0-0.1,0.1-0.1,0.2c0,0.1,0,0.1,0,0.2
		c0,0,0.1,0.1,0.1,0.1c0.1,0,0.1,0,0.2,0.1c0.1,0,0.1,0,0.1,0c0,0,0.1,0,0.1,0.1c0,0,0,0.1,0,0.1C18,21.7,18,21.8,18,21.8z"/>
	<path class="st14" d="M18.6,21.9c0,0,0.1,0.1,0.2,0.1c0.1,0,0.1,0,0.2,0c0.1,0,0.1,0,0.2,0c0.1,0,0.1,0,0.1-0.1
		c0,0,0.1-0.1,0.1-0.2c0-0.1,0-0.1,0-0.2V21c0,0,0-0.1,0-0.1c0,0,0,0-0.1,0c0,0-0.1,0-0.1,0c0,0,0,0.1,0,0.1v0.6
		c0,0.1,0,0.2-0.1,0.2c0,0-0.1,0.1-0.2,0.1c-0.1,0-0.1,0-0.1,0c0,0-0.1-0.1-0.1-0.1c0,0,0-0.1,0-0.2V21c0,0,0-0.1,0-0.1
		c0,0,0,0-0.1,0c0,0-0.1,0-0.1,0c0,0,0,0.1,0,0.1v0.5c0,0.1,0,0.2,0,0.2C18.5,21.8,18.5,21.8,18.6,21.9z"/>
	<path class="st14" d="M19.8,22C19.8,22,19.8,22,19.8,22c0.1-0.1,0.1-0.1,0.1-0.1v-0.4h0.1c0,0,0.1,0,0.1,0c0,0,0.1,0,0.1,0.1
		c0,0,0.1,0.1,0.1,0.1l0.1,0.2c0,0,0,0.1,0.1,0.1c0,0,0,0,0,0c0,0,0,0,0.1,0c0,0,0,0,0.1,0c0,0,0,0,0,0c0,0,0,0,0,0c0,0,0,0,0-0.1
		c0,0,0-0.1-0.1-0.1c0,0-0.1-0.1-0.1-0.1c0,0-0.1-0.1-0.1-0.1c0.1,0,0.2-0.1,0.2-0.1c0,0,0.1-0.1,0.1-0.2c0,0,0-0.1,0-0.1
		c0,0,0-0.1-0.1-0.1c0,0-0.1,0-0.1-0.1c0,0-0.1,0-0.1,0c0,0-0.1,0-0.1,0h-0.4c0,0-0.1,0-0.1,0c0,0,0,0.1,0,0.1v0.9
		C19.6,21.9,19.7,21.9,19.8,22C19.7,22,19.7,22,19.8,22z M19.9,21h0.2c0.1,0,0.1,0,0.2,0c0,0,0,0,0.1,0.1c0,0,0,0.1,0,0.1
		c0,0,0,0.1,0,0.1c0,0,0,0-0.1,0c0,0-0.1,0-0.1,0h-0.2V21z"/>
	<path class="st14" d="M20.8,22C20.8,22,20.8,22,20.8,22c0.1,0,0.1-0.1,0.1-0.1l0.1-0.1h0.5l0.1,0.1c0,0,0,0,0,0.1c0,0,0,0,0,0.1
		c0,0,0,0,0,0c0,0,0,0,0,0c0,0,0.1,0,0.1,0c0,0,0,0,0-0.1c0,0,0-0.1,0-0.1l-0.3-0.7c0,0,0-0.1,0-0.1c0,0,0,0,0-0.1c0,0,0,0-0.1,0
		c0,0,0,0-0.1,0c0,0-0.1,0-0.1,0c0,0,0,0-0.1,0c0,0,0,0,0,0.1c0,0,0,0.1,0,0.1l-0.3,0.7c0,0,0,0.1,0,0.1c0,0,0,0,0,0
		C20.7,21.9,20.7,21.9,20.8,22C20.7,22,20.8,22,20.8,22z M21.2,21.1l0.2,0.5H21L21.2,21.1z"/>
	<path class="st14" d="M22,22C22,22,22,22,22,22c0.1-0.1,0.1-0.1,0.1-0.1v-0.7l0.4,0.6c0,0,0,0,0,0.1c0,0,0,0,0,0c0,0,0,0,0,0
		c0,0,0,0,0.1,0c0.1,0,0.1,0,0.1-0.1V21c0,0,0-0.1,0-0.1c0,0,0,0-0.1,0c0,0-0.1,0-0.1,0c0,0,0,0.1,0,0.1v0.7L22.2,21c0,0,0,0,0-0.1
		c0,0,0,0,0,0c0,0,0,0,0,0c0,0,0,0-0.1,0c0,0,0,0-0.1,0c0,0,0,0,0,0.1c0,0,0,0,0,0.1v0.9C21.9,21.9,21.9,21.9,22,22
		C21.9,22,22,22,22,22z"/>
	<path class="st14" d="M23.1,21.7c0,0,0,0.1,0.1,0.1c0,0,0.1,0.1,0.1,0.1c0,0,0.1,0,0.1,0.1c0,0,0.1,0,0.2,0c0.1,0,0.1,0,0.2,0
		c0.1,0,0.1-0.1,0.1-0.1c0,0,0.1-0.1,0.1-0.1c0,0,0-0.1,0-0.1c0,0,0-0.1,0-0.1c0,0,0,0-0.1,0c0,0-0.1,0-0.1,0c0,0,0,0,0,0.1
		c0,0.1-0.1,0.1-0.1,0.1c0,0-0.1,0-0.2,0c-0.1,0-0.1,0-0.2,0c0,0-0.1-0.1-0.1-0.1c0-0.1,0-0.1,0-0.2c0-0.1,0-0.2,0.1-0.3
		c0.1-0.1,0.1-0.1,0.2-0.1c0.1,0,0.1,0,0.1,0c0,0,0.1,0.1,0.1,0.1c0,0,0,0.1,0,0.1c0,0,0,0,0.1,0c0,0,0,0,0.1,0c0,0,0,0,0-0.1
		c0,0,0-0.1-0.1-0.2c0-0.1-0.1-0.1-0.2-0.1c-0.1,0-0.2-0.1-0.2-0.1c-0.1,0-0.1,0-0.2,0c-0.1,0-0.1,0.1-0.2,0.1
		c0,0.1-0.1,0.1-0.1,0.2c0,0.1,0,0.2,0,0.2c0,0.1,0,0.1,0,0.2C23,21.6,23.1,21.7,23.1,21.7z"/>
	<path class="st14" d="M24.3,22H25c0,0,0.1,0,0.1,0c0,0,0,0,0-0.1c0,0,0,0,0-0.1c0,0,0,0-0.1,0h-0.5v-0.3h0.5c0,0,0.1,0,0.1,0
		c0,0,0,0,0-0.1c0,0,0,0,0-0.1c0,0,0,0-0.1,0h-0.5V21h0.5c0,0,0.1,0,0.1,0c0,0,0,0,0-0.1c0,0,0,0,0-0.1c0,0,0,0-0.1,0h-0.6
		c0,0-0.1,0-0.1,0c0,0,0,0,0,0c0,0,0,0,0,0.1v0.8c0,0,0,0.1,0,0.1C24.3,22,24.3,22,24.3,22z"/>
	<path class="st14" d="M18,22.3h-0.3c0,0-0.1,0-0.1,0c0,0,0,0.1,0,0.1v0.9c0,0,0,0.1,0,0.1c0,0,0,0,0.1,0c0,0,0.1,0,0.1,0
		c0,0,0-0.1,0-0.1V23H18c0.1,0,0.2,0,0.3-0.1c0.1-0.1,0.1-0.1,0.1-0.3c0-0.1,0-0.1,0-0.1c0,0,0-0.1-0.1-0.1c0,0-0.1-0.1-0.1-0.1
		C18.2,22.4,18.1,22.3,18,22.3z M18.2,22.8C18.2,22.8,18.1,22.8,18.2,22.8c-0.1,0.1-0.2,0.1-0.2,0.1h-0.2v-0.3H18c0.1,0,0.2,0,0.2,0
		C18.2,22.6,18.2,22.6,18.2,22.8C18.2,22.7,18.2,22.8,18.2,22.8z"/>
	<path class="st14" d="M18.9,22.4c-0.1,0-0.1,0.1-0.2,0.1c0,0.1-0.1,0.1-0.1,0.2c0,0.1,0,0.1,0,0.2c0,0.1,0,0.2,0,0.2
		c0,0.1,0.1,0.1,0.1,0.2c0,0.1,0.1,0.1,0.2,0.1c0.1,0,0.1,0,0.2,0c0.1,0,0.2,0,0.2,0c0.1,0,0.1-0.1,0.2-0.1c0-0.1,0.1-0.1,0.1-0.2
		c0-0.1,0-0.1,0-0.2c0-0.1,0-0.2-0.1-0.3c0-0.1-0.1-0.2-0.2-0.2c-0.1,0-0.2-0.1-0.3-0.1C19,22.3,19,22.3,18.9,22.4z M19.4,22.7
		c0,0.1,0,0.1,0,0.2c0,0.1,0,0.2,0,0.2c0,0.1-0.1,0.1-0.1,0.1c0,0-0.1,0-0.2,0c0,0-0.1,0-0.1,0c0,0-0.1,0-0.1-0.1
		c0,0-0.1-0.1-0.1-0.1c0-0.1,0-0.1,0-0.2c0-0.1,0-0.1,0-0.2c0-0.1,0-0.1,0.1-0.1c0,0,0.1-0.1,0.1-0.1c0,0,0.1,0,0.1,0
		c0.1,0,0.1,0,0.2,0C19.3,22.6,19.4,22.6,19.4,22.7z"/>
	<path class="st14" d="M20.1,23.3v-0.8c0,0,0-0.1,0-0.1c0,0,0,0-0.1,0c0,0-0.1,0-0.1,0c0,0,0,0.1,0,0.1v0.9c0,0,0,0.1,0,0.1
		c0,0,0.1,0,0.1,0h0.5c0,0,0.1,0,0.1,0c0,0,0,0,0-0.1c0,0,0,0,0-0.1c0,0,0,0-0.1,0H20.1z"/>
	<path class="st14" d="M20.9,22.3C20.9,22.3,20.9,22.3,20.9,22.3c-0.1,0.1-0.1,0.1-0.1,0.1v0.9c0,0,0,0.1,0,0.1c0,0,0,0,0.1,0
		c0,0,0.1,0,0.1,0c0,0,0-0.1,0-0.1v-0.9C21,22.4,21,22.4,20.9,22.3C21,22.3,20.9,22.3,20.9,22.3z"/>
	<path class="st14" d="M21.4,22.5c0,0.1-0.1,0.1-0.1,0.2c0,0.1,0,0.2,0,0.2c0,0.1,0,0.1,0,0.2c0,0,0,0.1,0,0.1c0,0,0,0.1,0.1,0.1
		c0,0,0.1,0.1,0.1,0.1c0,0,0.1,0,0.1,0.1c0,0,0.1,0,0.2,0c0.1,0,0.1,0,0.2,0c0.1,0,0.1-0.1,0.1-0.1c0,0,0.1-0.1,0.1-0.1
		c0,0,0-0.1,0-0.1c0,0,0-0.1,0-0.1c0,0,0,0-0.1,0c0,0-0.1,0-0.1,0c0,0,0,0,0,0.1c0,0.1-0.1,0.1-0.1,0.1c0,0-0.1,0-0.2,0
		c-0.1,0-0.1,0-0.2,0c0,0-0.1-0.1-0.1-0.1c0-0.1,0-0.1,0-0.2c0-0.1,0-0.2,0.1-0.3c0.1-0.1,0.1-0.1,0.2-0.1c0.1,0,0.1,0,0.1,0
		c0,0,0.1,0.1,0.1,0.1c0,0,0,0.1,0,0.1c0,0,0,0,0.1,0c0,0,0,0,0.1,0c0,0,0,0,0-0.1c0,0,0-0.1-0.1-0.2c0-0.1-0.1-0.1-0.2-0.1
		c-0.1,0-0.2-0.1-0.2-0.1c-0.1,0-0.1,0-0.2,0C21.5,22.4,21.4,22.4,21.4,22.5z"/>
	<path class="st14" d="M22.6,22.5c0-0.1-0.1-0.1-0.1-0.1c0,0,0,0-0.1,0c0,0-0.1,0-0.1,0c0,0,0,0,0,0.1c0,0,0,0,0,0.1
		c0,0,0,0.1,0.1,0.1l0.3,0.4v0.4c0,0,0,0.1,0,0.1c0,0,0,0,0.1,0c0,0,0.1,0,0.1,0c0,0,0-0.1,0-0.1V23l0.3-0.4c0,0,0-0.1,0-0.1
		c0,0,0,0,0-0.1c0,0,0,0,0-0.1c0,0,0,0-0.1,0c0,0,0,0,0,0c0,0,0,0,0,0c0,0,0,0,0,0c0,0,0,0,0,0.1l-0.2,0.3L22.6,22.5z"/>
	<path class="st15" d="M14,26.8h2c0.1,0,0.3-0.1,0.3-0.3c0-0.1-0.1-0.3-0.3-0.3h-2c-0.1,0-0.3,0.1-0.3,0.3
		C13.7,26.7,13.8,26.8,14,26.8z"/>
	<path class="st15" d="M17.1,26.5c0,0.1,0.1,0.3,0.3,0.3h3.4c0.1,0,0.3-0.1,0.3-0.3c0-0.1-0.1-0.3-0.3-0.3h-3.4
		C17.2,26.3,17.1,26.4,17.1,26.5z"/>
	<path class="st15" d="M28.6,26.3h-6.4c-0.1,0-0.3,0.1-0.3,0.3c0,0.1,0.1,0.3,0.3,0.3h5.4l1.3-0.4C28.7,26.3,28.7,26.3,28.6,26.3z"
		/>
	<path class="st15" d="M12.5,28c0,0,0,0.1,0,0.2h5.4c0.1,0,0.3-0.1,0.3-0.3c0-0.1-0.1-0.3-0.3-0.3h-5.7C12.4,27.7,12.5,27.8,12.5,28
		z"/>
	<path class="st15" d="M12,28.1c0-0.1-0.1-0.1-0.1-0.1C11.9,28,12,28.1,12,28.1z"/>
	<path class="st15" d="M19,27.9c0,0.1,0.1,0.3,0.3,0.3h4l1.6-0.5h-5.6C19.2,27.6,19,27.7,19,27.9z"/>
	<path class="st15" d="M13.9,32h2c0.1,0,0.3-0.1,0.3-0.3c0-0.1-0.1-0.3-0.3-0.3h-2c-0.1,0-0.3,0.1-0.3,0.3
		C13.7,31.9,13.8,32,13.9,32z"/>
	<path class="st15" d="M17.1,31.8c0,0.1,0.1,0.3,0.3,0.3h3.4c0.1,0,0.3-0.1,0.3-0.3c0-0.1-0.1-0.3-0.3-0.3h-3.4
		C17.2,31.5,17.1,31.6,17.1,31.8z"/>
	<path class="st15" d="M22.1,31.5c-0.1,0-0.3,0.1-0.3,0.3c0,0.1,0.1,0.3,0.3,0.3h1.1v-0.5H22.1z"/>
	<path class="st15" d="M17.9,32.9h-5.8c-0.1,0-0.3,0.1-0.3,0.3c0,0.1,0.1,0.3,0.3,0.3h5.8c0.1,0,0.3-0.1,0.3-0.3
		C18.2,33,18,32.9,17.9,32.9z"/>
	<path class="st15" d="M19,33.2c0,0.1,0.1,0.3,0.3,0.3h3.9v-0.5h-3.9C19.1,32.9,19,33,19,33.2z"/>
	<path class="st15" d="M15.9,28.9c-0.1,0-0.3,0.1-0.3,0.3c0,0.1,0.1,0.3,0.3,0.3h7.3v-0.5H15.9z"/>
	<path class="st15" d="M20.1,30.8c0.2,0,0.3-0.1,0.3-0.3c0-0.2-0.1-0.3-0.3-0.3h-7.8c0,0.2-0.1,0.4-0.1,0.6H20.1z"/>
	<path class="st15" d="M21.7,30.2c-0.2,0-0.3,0.1-0.3,0.3c0,0.2,0.1,0.3,0.3,0.3h1.4v-0.6H21.7z"/>
	<path class="st14" d="M14.9,37c0,0.2-0.2,0.4-0.4,0.4h-1.6c-0.2,0-0.4-0.2-0.4-0.4v-1.6c0-0.2,0.2-0.4,0.4-0.4h1.6
		c0.1,0,0.1,0,0.2,0l0.2-0.3c-0.1-0.1-0.3-0.1-0.4-0.1h-1.6c-0.4,0-0.8,0.3-0.8,0.8V37c0,0.4,0.3,0.8,0.8,0.8h1.6
		c0.4,0,0.8-0.3,0.8-0.8v-1.6c0-0.1,0-0.3-0.1-0.4l-0.3,0.4V37z"/>
	<path class="st14" d="M15.2,39l-0.3,0.4c0,0,0,0,0,0v1.5c0,0.3-0.2,0.5-0.5,0.5H13c-0.3,0-0.5-0.2-0.5-0.5v-1.5
		c0-0.2,0.2-0.5,0.5-0.5h1.5c0.1,0,0.2,0,0.3,0.1l0.2-0.3c-0.1-0.1-0.3-0.2-0.5-0.2H13c-0.5,0-0.8,0.4-0.8,0.8v1.5
		c0,0.5,0.4,0.8,0.8,0.8h1.5c0.5,0,0.8-0.4,0.8-0.8v-1.5C15.3,39.2,15.2,39.1,15.2,39z"/>
	<path class="st14" d="M20.7,42.9C20.7,43,20.7,43,20.7,42.9l7,0.1l-0.2-0.2c0,0,0,0,0,0L20.7,42.9C20.7,42.8,20.7,42.9,20.7,42.9z"
		/>
	<path class="st15" d="M15.9,35.4c0,0.1,0.1,0.2,0.2,0.2h7.1c0-0.2,0-0.3,0-0.5h-7.1C16,35.1,15.9,35.2,15.9,35.4z"/>
	<path class="st15" d="M16.1,36.7h4.2c0.1,0,0.2-0.1,0.2-0.2c0-0.1-0.1-0.2-0.2-0.2h-4.2c-0.1,0-0.2,0.1-0.2,0.2
		C15.9,36.6,16,36.7,16.1,36.7z"/>
	<path class="st15" d="M16.1,39.2c-0.1,0-0.2,0.1-0.2,0.2c0,0.1,0.1,0.2,0.2,0.2h6.3h2.1c-0.1-0.2-0.2-0.3-0.2-0.5H23H16.1z"/>
	<path class="st15" d="M16.1,40.7h4.2c0.1,0,0.2-0.1,0.2-0.2s-0.1-0.2-0.2-0.2h-4.2c-0.1,0-0.2,0.1-0.2,0.2S16,40.7,16.1,40.7z"/>
	<path class="st14" d="M15.7,34c-0.1-0.1-0.2,0-0.3,0l-0.6,0.8l-0.2,0.3l-1,1.4l-0.5-0.5c-0.1-0.1-0.2-0.1-0.3,0
		c-0.1,0.1-0.1,0.2,0,0.3l0.6,0.6c0,0,0.1,0.1,0.1,0.1l0,0c0.1,0,0.1,0,0.1-0.1l1.1-1.5l0.3-0.4l0.6-0.8C15.8,34.2,15.8,34,15.7,34z
		"/>
	<path class="st14" d="M13.6,40.4L13.2,40c-0.1-0.1-0.2-0.1-0.3,0c-0.1,0.1-0.1,0.2,0,0.3l0.6,0.6c0,0,0.1,0.1,0.1,0.1l0,0
		c0.1,0,0.1,0,0.1-0.1l1.1-1.5l0.3-0.4l0.6-0.8c0.1-0.1,0-0.2,0-0.3c-0.1-0.1-0.2,0-0.3,0l-0.5,0.7L14.7,39L13.6,40.4z"/>
	<path class="st1" d="M19.1,14c0.1-0.2,0.3-0.4,0.5-0.5l0,0l0,0C19.4,13.6,19.2,13.7,19.1,14c-0.2,0.2-0.3,0.4-0.3,0.7
		c0,0.1,0,0.3,0,0.4l0,0.1l0,0l0,0l0,0.2c0,0.1,0,0.1,0.1,0.2c0,0.1,0,0.1,0.1,0.2c0.1,0.1,0.1,0.2,0.2,0.3l0,0l0,0l0,0
		c0-0.1-0.1-0.2-0.1-0.3c0-0.1-0.1-0.2-0.1-0.4c0-0.1-0.1-0.2-0.1-0.4c0-0.1,0-0.2,0-0.4C18.8,14.4,18.9,14.2,19.1,14z"/>
	<path class="st1" d="M13.5,17.9L13.5,17.9L13.5,17.9c0-0.2,0.1-0.5,0.2-0.6c0.1-0.1,0.2-0.2,0.3-0.2c0.1,0,0.1,0,0.2,0l0.1,0l0.1,0
		c0.1,0,0.1,0,0.2,0l0.2,0l0.3,0l0.7,0c0.4,0,0.9,0,1.3,0c0.4,0,0.9,0,1.3,0l0,0l0,0c-0.4,0-0.9,0-1.3-0.1c-0.4,0-0.9,0-1.3,0L15,17
		l-0.3,0l-0.2,0c-0.1,0-0.1,0-0.2,0l-0.1,0l-0.1,0c-0.1,0-0.1,0-0.2,0.1c-0.1,0.1-0.2,0.1-0.3,0.2C13.6,17.5,13.5,17.7,13.5,17.9z"
		/>
	<polygon class="st1" points="9.5,43.9 9.5,43.9 9.5,43.9 9.5,42.6 9.5,42.9 	"/>
	<polygon class="st1" points="9.5,18.5 9.5,18.5 9.5,31.2 9.5,31.8 9.5,31.2 9.5,18.5 	"/>
	<path class="st1" d="M12.6,19C12.6,19,12.6,19,12.6,19c0,0.1,0,0.1,0,0.2c0,0.1,0,0.1,0.1,0.2c0,0.1,0.1,0.1,0.1,0.1
		c0,0,0.1,0.1,0.1,0.1c0.2,0.1,0.4,0.2,0.6,0.3l0,0h0l2.3,0c0.4,0,0.8,0,1.2,0c0.4,0,0.8,0,1.2,0l0,0l0,0c-0.4,0-0.8,0-1.2,0
		c-0.4,0-0.8,0-1.2,0l-2.3,0c-0.2,0-0.4-0.1-0.6-0.3c-0.1-0.1-0.2-0.1-0.2-0.2c0,0-0.1-0.1-0.1-0.1C12.6,19.1,12.6,19.1,12.6,19
		C12.6,19,12.6,19,12.6,19c0-0.1,0-0.1,0-0.2l0-0.1l0-0.1c0-0.1,0-0.2,0.1-0.3c0.1-0.2,0.2-0.4,0.4-0.5l0,0l0,0l0,0
		c-0.2,0.1-0.3,0.3-0.4,0.5c0,0.1-0.1,0.2-0.1,0.3l0,0.1l0,0.1C12.6,18.9,12.6,18.9,12.6,19z"/>
	<path class="st16" d="M30.6,25.8l-1.1,0.3l-0.8,0.3l-1.3,0.4l-2.7,0.9l-1.6,0.5l-0.1,0v0.7v0.5v0.8v0.6v0.8V32v0.9v0.5v1.1
		c0,0.2,0,0.4,0,0.6c0,0.2,0,0.3,0,0.5c0.1,0.9,0.3,1.9,0.7,2.7c0.1,0.3,0.2,0.6,0.4,0.9c0.1,0.2,0.2,0.3,0.2,0.5
		c0.7,1.2,1.7,2.3,2.8,3.2c0,0,0,0,0,0l0.2,0.2l2,1.4l0.6,0.4l0.5,0.4l0,0l0.9,0.7l-0.3-0.2l4.3-3.1c2.7-1.9,4.2-5,4.2-8.3v-6.2
		l0.3,0.1l-8.5-2.7l-0.4,0.1L30.6,25.8z M34.2,26.7l2.6,0.9c0.4,0.1,0.9,0.3,1.3,0.4c0.4,0.2,0.9,0.3,1.3,0.5l0,0l0,0
		c-0.4-0.1-0.9-0.3-1.3-0.4c-0.4-0.1-0.9-0.3-1.3-0.4L34.2,26.7L34.2,26.7L34.2,26.7z M32.8,26.8C32.8,26.8,32.8,26.8,32.8,26.8
		l6.5,2.1v5.7c0,3-1.4,5.7-3.8,7.5l-3.8,2.8l-3.8-2.8c-2.4-1.7-3.8-4.5-3.8-7.5v-5.7l7.6-2.4L32.8,26.8z M31.4,25.9L31.4,25.9
		l-7.8,2.6l0,3.8l0,1.9l0,0.5c0,0.2,0,0.3,0,0.5c0,0.3,0.1,0.6,0.1,0.9c0.1,0.3,0.1,0.6,0.2,0.9c0.1,0.3,0.2,0.6,0.3,0.9
		c0.2,0.6,0.5,1.2,0.8,1.7c0.2,0.3,0.3,0.5,0.5,0.8c0.2,0.3,0.4,0.5,0.6,0.7c0.4,0.5,0.9,0.9,1.4,1.2l0,0l0,0
		c-1.1-0.7-2-1.7-2.6-2.8c-0.3-0.6-0.6-1.1-0.8-1.7c-0.1-0.3-0.2-0.6-0.3-0.9c-0.1-0.3-0.2-0.6-0.2-0.9c-0.1-0.3-0.1-0.6-0.1-0.9
		c0-0.2,0-0.3,0-0.5l0-0.5l0-1.9l0-3.8l0,0L31.4,25.9L31.4,25.9z"/>
	<path class="st17" d="M40.1,28.2l-0.3-0.1v6.2c0,3.3-1.6,6.4-4.2,8.3l-4.3,3.1l0.3,0.2l2.3-1.7l1.9-1.4c1.8-1.3,3.2-3.3,3.8-5.4
		c0.3-0.9,0.4-1.9,0.4-2.9V28.2z"/>
	<path class="st18" d="M24,28.9v5.7c0,3,1.4,5.7,3.8,7.5l3.8,2.8l-0.5-0.3c0.6-0.7,1.1-1.5,1.6-2.3c1.5-2.5,2.4-5.5,2.3-8.5
		l-4.1,6.5c-0.1,0.2-0.3,0.3-0.6,0.3c0,0-0.1,0-0.1,0c0,0,0,0,0,0c0,0,0,0,0,0c-0.2,0-0.4-0.1-0.5-0.2l-2.2-2.3
		c-0.3-0.3-0.3-0.8,0-1.1c0.3-0.3,0.8-0.3,1.1,0l1.5,1.6l4.6-7.3c-0.2-1.1-0.6-2.2-1.1-3.2c-0.3-0.5-0.6-0.9-0.9-1.3c0,0,0,0,0-0.1
		l-1.1-0.4L24,28.9z M28.4,42c0.3,0.3,0.7,0.5,1.1,0.8c0.2,0.1,0.4,0.2,0.6,0.4l0.6,0.3l0,0l0,0L30,43.2c-0.2-0.1-0.4-0.2-0.6-0.3
		C29.1,42.6,28.7,42.3,28.4,42l-0.3-0.2l-0.2-0.2l-0.1-0.1c0,0-0.1-0.1-0.1-0.1l-0.2-0.2c-0.1-0.1-0.2-0.2-0.2-0.2L27,40.8
		c0,0-0.1-0.1-0.1-0.1l-0.2-0.2l-0.2-0.3c-0.3-0.3-0.5-0.7-0.8-1.1c-0.2-0.4-0.4-0.8-0.6-1.2c-0.2-0.4-0.3-0.8-0.4-1.3
		c-0.1-0.2-0.1-0.4-0.1-0.6c0-0.2-0.1-0.4-0.1-0.7l0,0l0,0c0,0.2,0,0.4,0.1,0.7c0,0.2,0.1,0.4,0.1,0.6c0.1,0.4,0.2,0.8,0.4,1.2
		c0.2,0.4,0.4,0.8,0.6,1.2c0.2,0.4,0.5,0.7,0.8,1.1l0.2,0.3l0.2,0.2c0,0,0.1,0.1,0.1,0.1l0.1,0.1c0.1,0.1,0.2,0.2,0.2,0.2l0.2,0.2
		c0,0,0.1,0.1,0.1,0.1l0.1,0.1l0.2,0.2L28.4,42z"/>
	<path class="st19" d="M33.8,28.2c0.6,1,0.9,2.1,1.1,3.2l0.8-1.2c0.2-0.4,0.7-0.5,1-0.2c0,0,0,0,0,0c0,0,0,0,0,0c0,0,0,0,0,0
		c0,0,0.1,0.1,0.1,0.1c0,0,0,0,0,0c0,0,0.1,0.1,0.1,0.1c0,0,0,0,0,0c0,0,0,0.1,0.1,0.1c0,0,0,0,0,0c0,0,0,0.1,0,0.1c0,0,0,0,0,0
		c0,0,0,0.1,0,0.1c0,0,0,0,0,0c0,0,0,0.1,0,0.1c0,0,0,0,0,0c0,0,0,0.1,0,0.1c0,0,0,0,0,0c0,0,0,0.1-0.1,0.1c0,0,0,0,0,0l-1.8,2.8
		c0.1,3-0.8,5.9-2.3,8.5c-0.5,0.8-1,1.6-1.6,2.3l0.5,0.3l3.8-2.8c2.4-1.7,3.8-4.5,3.8-7.5v-5.7l-6.5-2.1c0,0,0,0,0,0c0,0,0,0,0,0.1
		C33.2,27.3,33.5,27.8,33.8,28.2z"/>
	<path class="st1" d="M29.8,40.4c0.1,0.1,0.3,0.2,0.5,0.2c0,0,0,0,0.1,0c0.2,0,0.4-0.2,0.6-0.3l5.9-9.4c0.2-0.3,0.1-0.6,0-0.8
		c0,0,0,0,0,0c-0.4-0.2-0.8-0.1-1,0.2l-0.8,1.2l-4.6,7.3l-1.5-1.6c-0.3-0.3-0.8-0.3-1.1,0c-0.3,0.3-0.3,0.8,0,1.1l2.2,2.3
		c0.1,0.2,0.3,0.2,0.5,0.2c0,0,0,0,0,0c-0.2,0-0.4-0.1-0.5-0.2L29.8,40.4z"/>
	<path class="st1" d="M36.9,30.2c0,0,0,0.1,0.1,0.1C37,30.3,37,30.2,36.9,30.2z"/>
	<path class="st1" d="M36.7,30c0,0,0.1,0.1,0.1,0.1C36.8,30,36.8,30,36.7,30z"/>
	<path class="st1" d="M36.9,30.1c0,0,0.1,0.1,0.1,0.1C36.9,30.1,36.9,30.1,36.9,30.1z"/>
	<path class="st1" d="M37,30.5c0,0,0,0.1,0,0.1C37.1,30.5,37,30.5,37,30.5z"/>
	<path class="st1" d="M37,30.9c0,0,0,0.1-0.1,0.1C37,30.9,37,30.9,37,30.9z"/>
	<path class="st1" d="M37,30.7c0,0,0,0.1,0,0.1C37,30.8,37,30.8,37,30.7z"/>
	<path class="st1" d="M37.1,30.6c0,0,0,0.1,0,0.1C37.1,30.7,37.1,30.6,37.1,30.6z"/>
	<path class="st1" d="M37,30.3c0,0,0,0.1,0,0.1C37,30.4,37,30.4,37,30.3z"/>
	<path class="st20" d="M36.9,31c0,0,0-0.1,0.1-0.1c0,0,0,0,0,0c0,0,0-0.1,0-0.1c0,0,0,0,0,0c0,0,0-0.1,0-0.1c0,0,0,0,0,0
		c0,0,0-0.1,0-0.1c0,0,0,0,0,0c0,0,0-0.1,0-0.1c0,0,0,0,0,0c0,0,0-0.1-0.1-0.1c0,0,0,0,0,0c0,0-0.1-0.1-0.1-0.1c0,0,0,0,0,0
		c0,0-0.1-0.1-0.1-0.1c0,0,0,0,0,0c0,0,0,0,0,0c0.2,0.2,0.2,0.6,0,0.8l-5.9,9.4c-0.1,0.2-0.3,0.3-0.6,0.3c0,0-0.1,0-0.1,0
		c-0.2,0-0.3-0.1-0.5-0.2l0.1,0.1c0.1,0.2,0.3,0.2,0.5,0.2c0,0,0,0,0,0c0,0,0,0,0.1,0c0.2,0,0.4-0.2,0.6-0.3l4.1-6.5L36.9,31
		C36.9,31,36.9,31,36.9,31z"/>
	<path class="st1" d="M23.6,28.5L23.6,28.5l0,3.8l0,1.9l0,0.5c0,0.2,0,0.3,0,0.5c0,0.3,0.1,0.6,0.1,0.9c0.1,0.3,0.1,0.6,0.2,0.9
		c0.1,0.3,0.2,0.6,0.3,0.9c0.2,0.6,0.5,1.2,0.8,1.7c0.6,1.1,1.5,2.1,2.6,2.8l0,0l0,0c-0.5-0.4-1-0.8-1.4-1.2
		c-0.2-0.2-0.4-0.5-0.6-0.7c-0.2-0.3-0.4-0.5-0.5-0.8c-0.3-0.5-0.6-1.1-0.8-1.7c-0.1-0.3-0.2-0.6-0.3-0.9c-0.1-0.3-0.2-0.6-0.2-0.9
		c-0.1-0.3-0.1-0.6-0.1-0.9c0-0.2,0-0.3,0-0.5l0-0.5l0-1.9L23.6,28.5l7.8-2.6l0,0l0,0L23.6,28.5z"/>
	<path class="st1" d="M27.8,41.5c0,0-0.1-0.1-0.1-0.1l-0.2-0.2c-0.1-0.1-0.2-0.2-0.2-0.2l-0.1-0.1c0,0-0.1-0.1-0.1-0.1l-0.2-0.2
		l-0.2-0.3c-0.3-0.3-0.5-0.7-0.8-1.1c-0.2-0.4-0.4-0.8-0.6-1.2c-0.2-0.4-0.3-0.8-0.4-1.2c-0.1-0.2-0.1-0.4-0.1-0.6
		c0-0.2-0.1-0.4-0.1-0.7l0,0l0,0c0,0.2,0,0.4,0.1,0.7c0,0.2,0.1,0.4,0.1,0.6c0.1,0.4,0.2,0.8,0.4,1.3c0.2,0.4,0.4,0.8,0.6,1.2
		c0.2,0.4,0.5,0.7,0.8,1.1l0.2,0.3l0.2,0.2c0,0,0.1,0.1,0.1,0.1l0.1,0.1c0.1,0.1,0.2,0.2,0.2,0.2l0.2,0.2
		C27.7,41.4,27.7,41.5,27.8,41.5l0.1,0.2l0.2,0.2l0.3,0.2c0.3,0.3,0.7,0.5,1.1,0.8c0.2,0.1,0.4,0.2,0.6,0.3l0.6,0.3l0,0l0,0L30,43.1
		c-0.2-0.1-0.4-0.2-0.6-0.4c-0.4-0.2-0.7-0.5-1.1-0.8l-0.3-0.2l-0.2-0.2L27.8,41.5z"/>
	<path class="st1" d="M36.7,27.6c0.4,0.2,0.9,0.3,1.3,0.4c0.4,0.1,0.9,0.3,1.3,0.4l0,0l0,0c-0.4-0.2-0.8-0.3-1.3-0.5
		C37.6,27.9,37.2,27.7,36.7,27.6l-2.6-0.9l0,0l0,0L36.7,27.6z"/>
	<path class="st21" d="M10.9,34.3c0.1,0,0.2,0,0.2-0.1c0.5-0.6,0.8-2.1,1.1-3.5c0-0.2,0.1-0.4,0.1-0.6c0.1-0.8,0.2-1.5,0.3-1.9
		c0,0,0-0.1,0-0.1c0-0.1,0-0.1,0-0.2c0,0.1,0,0.2,0,0.3c-0.2,1.5-0.6,5-1.4,6C11,34.3,10.9,34.3,10.9,34.3L10.9,34.3
		c0,0,0.1,0,0.1-0.1c0.8-1,1.3-4.5,1.4-6c0-0.4-0.2-0.7-0.6-0.7l-0.2,0l0,0l0,0l0,0l0,0l0,0l-0.1,0.4l0,0l0,0.1l0.3,0c0,0,0,0,0,0
		c0.1,0,0.1,0.1,0.1,0.1c0,0,0,0,0,0.1c-0.2,2.3-0.7,4.9-1.3,5.7l-0.1,0.4c0,0,0,0,0,0C10.8,34.3,10.8,34.3,10.9,34.3z M11.5,32.4
		c0.1-0.2,0.1-0.4,0.2-0.7c0.1-0.2,0.1-0.5,0.2-0.7c0.1-0.5,0.2-0.9,0.2-1.4c0.1-0.5,0.1-0.9,0.2-1.4l0,0l0,0c0,0.5-0.1,0.9-0.1,1.4
		c-0.1,0.5-0.1,0.9-0.2,1.4c0,0.2-0.1,0.5-0.1,0.7C11.6,31.9,11.6,32.2,11.5,32.4c-0.1,0.5-0.2,0.9-0.4,1.3l0,0l0,0
		C11.2,33.3,11.3,32.8,11.5,32.4z"/>
	<path class="st22" d="M11.6,27.5l0.2,0c0.4,0.1,0.6,0.4,0.6,0.7c-0.2,1.5-0.6,5-1.4,6c0,0.1-0.1,0.1-0.2,0.1l0,0
		c0.1,0,0.2,0,0.2-0.1c0.8-1,1.3-4.5,1.4-6c0-0.1,0-0.2,0-0.3c0-0.1-0.1-0.3-0.3-0.4c-0.1-0.1-0.2-0.1-0.3-0.1L11.6,27.5L11.6,27.5z
		"/>
	<polygon class="st23" points="10.1,36.9 9,36.8 9,37.3 8.7,39.2 8.5,41 8.3,42 8.2,42.9 8.2,42.9 8.2,42.9 8.3,42 8.4,41 8.7,39.2 
		8.9,37.3 9,36.8 8.8,36.8 8.8,36.5 7.8,43.4 9.1,43.6 	"/>
	<polygon class="st23" points="9.2,35.4 10.2,28 10.2,28 10.2,28 9.2,35.4 9.1,36.4 10.1,36.6 11.3,27.8 10,27.7 9.5,31.2 9.5,31.8 
		9.2,33.9 8.9,35.6 8.8,36.4 9,36.4 	"/>
	<path class="st23" d="M11.4,27.5l0-0.2l-1.3-0.2c0,0,0,0,0,0l0,0.2L11.4,27.5z"/>
	<rect x="11.6" y="27.5" transform="matrix(0.9757 -0.219 0.219 0.9757 -5.7401 3.2153)" class="st23" width="0" height="0"/>
	<polygon class="st24" points="9.4,43.6 9.5,42.9 9.5,42.6 10.2,37.9 10.7,34.2 10.7,33.9 11.6,27.9 11.6,27.9 11.6,27.9 11.6,27.9 
		11.3,27.8 10.1,36.6 10.4,36.6 10.3,37 10.1,36.9 9.1,43.6 9.4,43.6 9.4,43.6 	"/>
	<path class="st24" d="M11.6,27.5L11.6,27.5L11.6,27.5l0-0.2c0,0,0,0,0,0l-0.2,0l0,0.2L11.6,27.5L11.6,27.5L11.6,27.5z"/>
	<path class="st21" d="M11.7,27.1C11.7,27.1,11.7,27.1,11.7,27.1c0-0.4-0.3-0.7-0.6-0.7c-0.3,0-0.7,0.1-0.8,0.4c0,0,0,0.1,0,0.1
		c0,0,0,0,0,0L11.7,27.1z M10.5,26.5c0.1,0,0.1-0.1,0.2-0.1l0.1,0c0,0,0,0,0.1,0c0,0,0.1,0,0.1,0l0,0l0,0h0c-0.1,0-0.1,0-0.2,0
		C10.7,26.5,10.6,26.5,10.5,26.5c0,0.1-0.1,0.1-0.1,0.2c-0.1,0.1-0.1,0.1-0.1,0.2l0,0l0,0C10.3,26.7,10.4,26.6,10.5,26.5z"/>
	<path class="st21" d="M8.2,45.6L8.2,45.6L8.2,45.6l1.1-2l0.1,0l-0.3,0l-1.3-0.2L8,44.5L8.2,45.6L8.2,45.6z M8,44.1
		c0-0.2,0-0.3,0-0.5l0,0l0,0C8,43.7,8,43.9,8,44.1c0.1,0.1,0.1,0.3,0.1,0.5c0,0.3,0.1,0.6,0.1,0.9l0,0l0,0c-0.1-0.3-0.1-0.6-0.2-0.9
		C8,44.4,8,44.2,8,44.1z"/>
	<polygon class="st22" points="9.4,43.6 9.4,43.6 9.2,43.6 8.3,45.6 8.4,45.6 8.5,45.6 9.1,44.4 9.2,44.1 	"/>
	<path class="st21" d="M11.6,27.9L11.6,27.9l0.1-0.4l0,0h0l-0.2,0l-1.3-0.2h0L10,27.7h0l1.3,0.2L11.6,27.9z M11.2,27.6
		c-0.1,0-0.2,0-0.3-0.1c-0.2,0-0.5-0.1-0.7-0.1l0,0l0,0c0.2,0,0.5,0,0.7,0.1C11,27.5,11.1,27.5,11.2,27.6c0.1,0,0.2,0,0.4,0l0,0l0,0
		C11.4,27.6,11.3,27.6,11.2,27.6z"/>
	<polygon class="st21" points="9,36.8 9,36.4 8.8,36.4 8.8,36.4 8.8,36.5 8.8,36.8 	"/>
	<polygon class="st21" points="10.3,37 10.4,36.6 10.1,36.6 9.1,36.4 9,36.8 10.1,36.9 	"/>
	<path class="st23" d="M8.3,45.6L8.3,45.6L8.3,45.6c-0.1,0-0.1,0.3,0,0.3c0.1,0,0.2-0.3,0.2-0.3l0,0L8.3,45.6z"/>
	<path class="st21" d="M11.4,27.2l0.2,0c0,0,0,0,0,0c0,0,0,0,0-0.1c0,0,0-0.1,0-0.1c0,0,0,0,0,0l-1.5-0.2c0,0,0,0,0,0c0,0,0,0,0,0.1
		c0,0,0,0.1,0,0.1c0,0,0,0,0,0L11.4,27.2z"/>
	<polygon class="st1" points="9.2,35.4 10.2,28 10.2,28 10.2,28 9.2,35.4 9,36.4 9,36.8 8.9,37.3 8.7,39.2 8.4,41 8.3,42 8.2,42.9 
		8.2,42.9 8.2,42.9 8.3,42 8.5,41 8.7,39.2 9,37.3 9,36.8 9.1,36.4 	"/>
	<path class="st1" d="M8.2,45.5L8.2,45.5c0-0.3-0.1-0.6-0.1-0.9c0-0.2,0-0.3-0.1-0.5C8,43.9,8,43.7,8,43.6l0,0l0,0
		c0,0.2,0,0.3,0,0.5c0,0.2,0,0.3,0.1,0.5C8.1,44.8,8.2,45.1,8.2,45.5L8.2,45.5z"/>
	<path class="st1" d="M10.2,26.9c0-0.1,0.1-0.1,0.1-0.2c0.1-0.1,0.1-0.1,0.2-0.1c0.1,0,0.1-0.1,0.2-0.1c0.1,0,0.1,0,0.2,0h0l0,0l0,0
		c0,0-0.1,0-0.1,0c0,0,0,0-0.1,0l-0.1,0c-0.1,0-0.1,0.1-0.2,0.1C10.4,26.6,10.3,26.7,10.2,26.9L10.2,26.9L10.2,26.9z"/>
	<path class="st1" d="M11.5,27.6L11.5,27.6L11.5,27.6c-0.1,0-0.2-0.1-0.3-0.1c-0.1,0-0.2,0-0.3,0c-0.2,0-0.5-0.1-0.7-0.1l0,0l0,0
		c0.2,0,0.5,0.1,0.7,0.1c0.1,0,0.2,0,0.3,0.1C11.3,27.6,11.4,27.6,11.5,27.6z"/>
	<path class="st1" d="M11,33.7c0.2-0.4,0.4-0.9,0.5-1.3c0.1-0.2,0.1-0.5,0.2-0.7c0.1-0.2,0.1-0.5,0.1-0.7c0.1-0.5,0.2-0.9,0.2-1.4
		c0.1-0.5,0.1-0.9,0.1-1.4l0,0l0,0c0,0.5-0.1,0.9-0.2,1.4c-0.1,0.5-0.1,0.9-0.2,1.4c-0.1,0.2-0.1,0.5-0.2,0.7
		c-0.1,0.2-0.1,0.5-0.2,0.7C11.3,32.8,11.2,33.3,11,33.7L11,33.7L11,33.7z"/>
</g>
</svg>
