<?xml version="1.0" encoding="utf-8"?>
<!-- Generator: Adobe Illustrator 25.2.1, SVG Export Plug-In . SVG Version: 6.00 Build 0)  -->
<svg version="1.1" id="Layer_1" xmlns="http://www.w3.org/2000/svg" xmlns:xlink="http://www.w3.org/1999/xlink" x="0px" y="0px"
	 viewBox="0 0 48 48" style="enable-background:new 0 0 48 48;" xml:space="preserve">
<style type="text/css">
	.st0{fill:url(#SVGID_1_);}
	.st1{fill:url(#SVGID_2_);}
	.st2{fill:url(#SVGID_3_);}
	.st3{fill:url(#SVGID_4_);}
	.st4{fill:url(#SVGID_5_);}
	.st5{fill:url(#SVGID_6_);}
	.st6{fill:url(#SVGID_7_);}
	.st7{fill:url(#SVGID_8_);}
	.st8{fill:url(#SVGID_9_);}
	.st9{fill:url(#SVGID_10_);}
	.st10{fill:url(#SVGID_11_);}
	.st11{fill:url(#SVGID_12_);}
	.st12{fill:url(#SVGID_13_);}
	.st13{fill:url(#SVGID_14_);}
	.st14{fill:url(#SVGID_15_);}
	.st15{fill:url(#SVGID_16_);}
	.st16{fill:url(#SVGID_17_);}
	.st17{fill:url(#SVGID_18_);}
</style>
<g>
	<g>
		<linearGradient id="SVGID_1_" gradientUnits="userSpaceOnUse" x1="5.1944" y1="17.1876" x2="42.8752" y2="17.1876">
			<stop  offset="0" style="stop-color:#FFCE00"/>
			<stop  offset="1" style="stop-color:#FFB41A"/>
		</linearGradient>
		<path class="st0" d="M42.3,23.9c-0.1,0-0.1,0-0.2,0c-0.2,0-0.4-0.2-0.6-0.3c0,0.2-0.1,0.4-0.1,0.5v0c-1,3.7-3.2,6.9-6.1,9.3
			c-0.2,0.1-0.3,0.3-0.5,0.4c0,0,0,0,0,0c0.3,0,0.6,0.2,0.8,0.4c0,0,0,0,0,0.1c0.1-0.1,0.2-0.2,0.4-0.3c3-2.4,5.2-5.7,6.3-9.5
			C42.3,24.2,42.3,24,42.3,23.9C42.3,23.9,42.3,23.9,42.3,23.9z M42.8,17c-0.5-4.2-2.3-8-5.1-10.9c-0.1-0.1-0.3-0.3-0.4-0.4
			c-0.1,0.3-0.3,0.6-0.5,0.7c0.1,0.1,0.2,0.2,0.3,0.4c2.6,2.8,4.3,6.4,4.8,10.3c0,0.2,0,0.3,0,0.5c0.2-0.1,0.3-0.2,0.5-0.2
			c0,0,0,0,0.1,0c0.1,0,0.2,0,0.3,0C42.9,17.3,42.8,17.1,42.8,17z M12.8,33.3C9.9,31,7.7,27.7,6.6,24c0-0.2-0.1-0.4-0.1-0.5
			c0,0,0,0,0,0c-0.1,0.2-0.4,0.4-0.6,0.4c-0.1,0-0.1,0-0.2,0c0,0.2,0.1,0.3,0.1,0.5c1.1,3.8,3.3,7.1,6.2,9.5
			c0.1,0.1,0.2,0.2,0.4,0.3c0,0,0,0,0,0c0.2-0.3,0.5-0.4,0.8-0.4c0,0,0,0,0.1,0C13.1,33.6,13,33.4,12.8,33.3z M30.5,1.4
			c-0.2-0.1-0.3-0.1-0.5-0.2c-1.9-0.6-3.9-1-6-1C14.3,0.2,6.3,7.5,5.2,17c0,0.2,0,0.3,0,0.5c0.1,0,0.1,0,0.2,0c0,0,0,0,0.1,0
			c0.2,0,0.4,0.1,0.6,0.3c0-0.2,0-0.4,0.1-0.5c1-9,8.6-16.1,17.9-16.1c2,0,3.9,0.3,5.8,0.9v0c0.2,0.1,0.3,0.1,0.5,0.2
			c0-0.1,0-0.1,0-0.2C30.3,1.8,30.4,1.5,30.5,1.4z"/>
		<linearGradient id="SVGID_2_" gradientUnits="userSpaceOnUse" x1="19.5485" y1="46.3894" x2="28.1618" y2="46.6558">
			<stop  offset="0" style="stop-color:#365363"/>
			<stop  offset="1" style="stop-color:#162032"/>
		</linearGradient>
		<path class="st1" d="M25.3,47.8h-2.5c-0.3,0-0.5-0.2-0.5-0.5v-1.5c0-0.3,0.2-0.5,0.5-0.5h2.5c0.3,0,0.5,0.2,0.5,0.5v1.5
			C25.8,47.6,25.6,47.8,25.3,47.8z"/>
		<linearGradient id="SVGID_3_" gradientUnits="userSpaceOnUse" x1="18.928" y1="44.1421" x2="32.2017" y2="44.9333">
			<stop  offset="0" style="stop-color:#365363"/>
			<stop  offset="1" style="stop-color:#162032"/>
		</linearGradient>
		<path class="st2" d="M26.1,46.3H22c-1,0-1.8-0.8-1.8-1.8l0,0c0-1,0.8-1.8,1.8-1.8h4.2c1,0,1.8,0.8,1.8,1.8l0,0
			C28,45.5,27.2,46.3,26.1,46.3z"/>
		<linearGradient id="SVGID_4_" gradientUnits="userSpaceOnUse" x1="4.6931" y1="25.2174" x2="35.7259" y2="9.9617">
			<stop  offset="0" style="stop-color:#FFCE00"/>
			<stop  offset="1" style="stop-color:#FFB41A"/>
		</linearGradient>
		<path class="st3" d="M19.2,20.8l-2.9,12.3c-0.4-0.6-0.9-1.2-1.5-1.7c0,0,0,0,0,0c-2.3-1.7-4.1-4.1-5.1-6.8c-0.7-1.7-1-3.6-1-5.5
			c0-8.5,6.9-15.4,15.3-15.4c2.3,0,4.4,0.5,6.4,1.4l-21,15.7H19.2z"/>
		<linearGradient id="SVGID_5_" gradientUnits="userSpaceOnUse" x1="28.7419" y1="14.5328" x2="37.5537" y2="10.2009">
			<stop  offset="0" style="stop-color:#FFCE00"/>
			<stop  offset="1" style="stop-color:#FFB41A"/>
		</linearGradient>
		<path class="st4" d="M30.3,14.6l3.3-7.5c0.1,0,0.1,0.1,0.2,0.2c2.3,1.9,4,4.4,4.9,7.3H30.3z"/>
		<linearGradient id="SVGID_6_" gradientUnits="userSpaceOnUse" x1="12.0678" y1="39.0213" x2="45.5597" y2="22.5567">
			<stop  offset="0" style="stop-color:#FFCE00"/>
			<stop  offset="1" style="stop-color:#FFB41A"/>
		</linearGradient>
		<path class="st5" d="M39.4,19.2c0,4.8-2.2,9.1-5.7,12c-0.1,0.1-0.2,0.2-0.4,0.3c-2,1.8-3.4,4.8-3.4,6.4c0,1.6,0,2.3,0,2.3
			S28.5,42,24.1,42v0H24v0c-4.4,0-5.8-1.9-5.8-1.9s0-0.7,0-2.3c0-0.5-0.2-1.2-0.4-1.9l21.1-20.3C39.2,16.8,39.4,17.9,39.4,19.2z"/>
		<linearGradient id="SVGID_7_" gradientUnits="userSpaceOnUse" x1="29.7874" y1="2.0272" x2="32.6881" y2="2.0272">
			<stop  offset="0" style="stop-color:#FFCE00"/>
			<stop  offset="1" style="stop-color:#FFB41A"/>
		</linearGradient>
		<path class="st6" d="M31.2,0.6c-0.5,0-0.9,0.2-1.2,0.6c-0.2,0.2-0.3,0.5-0.3,0.8v0c0,0.8,0.7,1.5,1.5,1.5s1.4-0.7,1.4-1.5
			C32.7,1.2,32,0.6,31.2,0.6z M31.2,3c-0.5,0-0.9-0.3-1-0.8c0-0.1,0-0.1,0-0.2c0-0.3,0.1-0.5,0.3-0.7C30.7,1.2,31,1,31.2,1
			c0.5,0,1,0.4,1,1C32.2,2.6,31.8,3,31.2,3z"/>
		<linearGradient id="SVGID_8_" gradientUnits="userSpaceOnUse" x1="34.9446" y1="5.5442" x2="37.8452" y2="5.5442">
			<stop  offset="0" style="stop-color:#FFCE00"/>
			<stop  offset="1" style="stop-color:#FFB41A"/>
		</linearGradient>
		<path class="st7" d="M36.4,4.1c-0.8,0-1.5,0.6-1.5,1.5S35.6,7,36.4,7c0.3,0,0.5-0.1,0.8-0.2c0.3-0.2,0.5-0.4,0.6-0.7
			c0.1-0.2,0.1-0.4,0.1-0.6C37.8,4.7,37.2,4.1,36.4,4.1z M36.8,6.4c-0.1,0.1-0.3,0.1-0.4,0.1c-0.5,0-1-0.4-1-1c0-0.5,0.4-1,1-1
			c0.5,0,1,0.4,1,1c0,0.1,0,0.1,0,0.2C37.3,6,37.1,6.3,36.8,6.4z"/>
		<linearGradient id="SVGID_9_" gradientUnits="userSpaceOnUse" x1="3.9457" y1="18.4158" x2="6.8468" y2="18.4158">
			<stop  offset="0" style="stop-color:#FFCE00"/>
			<stop  offset="1" style="stop-color:#FFB41A"/>
		</linearGradient>
		<path class="st8" d="M6.1,17.2C5.9,17,5.7,17,5.5,17c-0.1,0-0.2,0-0.2,0C4.5,17,4,17.6,3.9,18.3c0,0.8,0.6,1.5,1.4,1.5
			c0.8,0,1.5-0.6,1.5-1.4C6.9,17.9,6.6,17.4,6.1,17.2z M5.4,19.4C5.4,19.4,5.4,19.4,5.4,19.4c-0.3,0-0.6-0.1-0.7-0.3
			c-0.2-0.2-0.3-0.4-0.2-0.7c0-0.5,0.4-0.8,0.8-0.9c0.1,0,0.1,0,0.2,0c0,0,0,0,0.1,0c0.2,0,0.4,0.1,0.6,0.3c0,0,0,0,0.1,0.1
			c0.2,0.2,0.3,0.4,0.2,0.7C6.3,19,5.9,19.4,5.4,19.4z"/>
		<linearGradient id="SVGID_10_" gradientUnits="userSpaceOnUse" x1="4.2409" y1="22.8873" x2="7.1425" y2="22.8873">
			<stop  offset="0" style="stop-color:#FFCE00"/>
			<stop  offset="1" style="stop-color:#FFB41A"/>
		</linearGradient>
		<path class="st9" d="M7.1,22.6c-0.1-0.8-0.9-1.3-1.7-1.2c-0.8,0.1-1.3,0.9-1.2,1.7c0.1,0.7,0.8,1.3,1.6,1.2c0,0,0.1,0,0.1,0
			c0.3,0,0.5-0.2,0.7-0.3C7,23.7,7.2,23.1,7.1,22.6z M6.5,23.4C6.5,23.4,6.5,23.4,6.5,23.4c-0.2,0.2-0.4,0.4-0.6,0.4
			c-0.1,0-0.1,0-0.2,0h0c-0.5,0-0.9-0.3-1-0.8c-0.1-0.5,0.3-1,0.8-1.1c0.1,0,0.1,0,0.2,0c0.5,0,0.9,0.3,1,0.8
			C6.7,23,6.6,23.2,6.5,23.4z"/>
		<linearGradient id="SVGID_11_" gradientUnits="userSpaceOnUse" x1="11.7798" y1="34.6852" x2="14.6809" y2="34.6852">
			<stop  offset="0" style="stop-color:#FFCE00"/>
			<stop  offset="1" style="stop-color:#FFB41A"/>
		</linearGradient>
		<path class="st10" d="M14.1,33.5c-0.4-0.3-0.9-0.3-1.3-0.2c-0.3,0.1-0.5,0.3-0.7,0.5c-0.5,0.7-0.3,1.6,0.3,2
			c0.7,0.5,1.6,0.3,2-0.3C14.9,34.9,14.7,34,14.1,33.5z M14,35.3c-0.2,0.3-0.5,0.4-0.8,0.4c-0.2,0-0.4-0.1-0.6-0.2
			c-0.4-0.3-0.5-0.9-0.2-1.3c0,0,0,0,0,0c0.2-0.3,0.5-0.4,0.8-0.4c0,0,0,0,0.1,0c0,0,0,0,0,0c0.2,0,0.3,0.1,0.5,0.2
			C14.2,34.2,14.3,34.8,14,35.3z"/>
		<linearGradient id="SVGID_12_" gradientUnits="userSpaceOnUse" x1="41.1534" y1="18.4157" x2="44.0543" y2="18.4157">
			<stop  offset="0" style="stop-color:#FFCE00"/>
			<stop  offset="1" style="stop-color:#FFB41A"/>
		</linearGradient>
		<path class="st11" d="M44.1,18.3c0-0.7-0.6-1.3-1.2-1.4c-0.1,0-0.2,0-0.3,0c-0.2,0-0.4,0.1-0.6,0.2c-0.5,0.2-0.8,0.8-0.8,1.4
			c0,0.8,0.7,1.4,1.5,1.4C43.5,19.8,44.1,19.1,44.1,18.3z M43.3,19.1c-0.2,0.2-0.4,0.3-0.7,0.3c0,0,0,0-0.1,0c-0.5,0-0.9-0.4-1-0.9
			c0-0.3,0.1-0.6,0.4-0.8c0.2-0.1,0.3-0.2,0.5-0.2c0,0,0,0,0.1,0c0.1,0,0.2,0,0.3,0c0.4,0.1,0.7,0.5,0.7,0.9
			C43.6,18.6,43.5,18.9,43.3,19.1z"/>
		<linearGradient id="SVGID_13_" gradientUnits="userSpaceOnUse" x1="40.8578" y1="22.8861" x2="43.7591" y2="22.8861">
			<stop  offset="0" style="stop-color:#FFCE00"/>
			<stop  offset="1" style="stop-color:#FFB41A"/>
		</linearGradient>
		<path class="st12" d="M42.6,21.5c-0.8-0.1-1.5,0.4-1.7,1.2c-0.1,0.6,0.1,1.1,0.5,1.4v0c0.2,0.1,0.4,0.2,0.6,0.3c0.1,0,0.1,0,0.2,0
			c0.7,0,1.4-0.5,1.5-1.2C43.9,22.4,43.4,21.6,42.6,21.5z M43.3,23.1c-0.1,0.4-0.5,0.8-0.9,0.8c0,0,0,0-0.1,0c-0.1,0-0.1,0-0.2,0
			c-0.2,0-0.4-0.2-0.6-0.3c0,0,0,0,0-0.1c-0.1-0.2-0.2-0.5-0.2-0.7c0.1-0.5,0.5-0.8,1-0.8c0.1,0,0.1,0,0.2,0
			C43,22,43.4,22.5,43.3,23.1z"/>
		<linearGradient id="SVGID_14_" gradientUnits="userSpaceOnUse" x1="33.3201" y1="34.6853" x2="36.22" y2="34.6853">
			<stop  offset="0" style="stop-color:#FFCE00"/>
			<stop  offset="1" style="stop-color:#FFB41A"/>
		</linearGradient>
		<path class="st13" d="M36,33.9C36,33.9,36,33.9,36,33.9c-0.2-0.3-0.4-0.5-0.7-0.6c-0.4-0.2-0.9-0.1-1.3,0.2
			c-0.7,0.5-0.8,1.4-0.3,2c0.5,0.7,1.4,0.8,2,0.3C36.3,35.4,36.4,34.5,36,33.9z M35.3,35.5c-0.2,0.1-0.4,0.2-0.6,0.2
			c-0.3,0-0.6-0.2-0.8-0.4c-0.2-0.2-0.2-0.5-0.2-0.7c0-0.3,0.2-0.5,0.4-0.6c0.2-0.1,0.4-0.2,0.6-0.2c0,0,0,0,0,0
			c0.3,0,0.6,0.2,0.8,0.4c0,0,0,0,0,0.1C35.9,34.6,35.8,35.2,35.3,35.5z"/>
		<linearGradient id="SVGID_15_" gradientUnits="userSpaceOnUse" x1="15.3132" y1="40.9871" x2="34.2234" y2="41.694">
			<stop  offset="0" style="stop-color:#365363"/>
			<stop  offset="1" style="stop-color:#162032"/>
		</linearGradient>
		<path class="st14" d="M29.8,37.8c0,0-1.1,0.8-5.8,0.8c-4.7,0-5.8-0.8-5.8-0.8s-0.7,0.1-0.7,0.6s0,1.9,0,3.2S19.2,45,24,45l0,0l0,0
			l0,0l0,0c4.8,0,6.5-2.1,6.5-3.3s0-2.7,0-3.2S29.8,37.8,29.8,37.8z"/>
		<linearGradient id="SVGID_16_" gradientUnits="userSpaceOnUse" x1="11.6012" y1="33.9201" x2="33.8899" y2="11.0847">
			<stop  offset="0" style="stop-color:#365363"/>
			<stop  offset="1" style="stop-color:#162032"/>
		</linearGradient>
		<polygon class="st15" points="16.7,35.7 37.6,15.6 21.4,15.6 		"/>
		<linearGradient id="SVGID_17_" gradientUnits="userSpaceOnUse" x1="12.2531" y1="17.743" x2="37.614" y2="17.743">
			<stop  offset="0" style="stop-color:#162032"/>
			<stop  offset="1" style="stop-color:#365363"/>
		</linearGradient>
		<polygon class="st16" points="26.9,19.9 37.6,15.6 21.4,15.6 12.3,19.9 		"/>
		<linearGradient id="SVGID_18_" gradientUnits="userSpaceOnUse" x1="13.4005" y1="23.9068" x2="41.7389" y2="3.7909">
			<stop  offset="0" style="stop-color:#365363"/>
			<stop  offset="1" style="stop-color:#162032"/>
		</linearGradient>
		<polygon class="st17" points="34.1,3.6 26.9,19.9 12.3,19.9 		"/>
	</g>
</g>
</svg>
