<?xml version="1.0" encoding="utf-8"?>
<!-- Generator: Adobe Illustrator 25.2.1, SVG Export Plug-In . SVG Version: 6.00 Build 0)  -->
<svg version="1.1" id="bold" xmlns="http://www.w3.org/2000/svg" xmlns:xlink="http://www.w3.org/1999/xlink" x="0px" y="0px"
	 viewBox="0 0 68.5 68.5" style="enable-background:new 0 0 68.5 68.5;" xml:space="preserve">
<style type="text/css">
	.st0{fill:#FC573B;}
	.st1{fill:#FD907E;}
	.st2{fill:#FFAC96;}
	.st3{fill:#FFBCAB;}
	.st4{fill:#006DF0;}
	.st5{fill:#D80027;}
	.st6{fill:#BD0022;}
	.st7{fill:#F1F2F2;}
	.st8{fill:#858585;}
	.st9{fill:#57A5FF;}
	.st10{fill:#4481C7;}
	.st11{fill:#FFD45A;}
	.st12{fill:#FFFFFF;}
	.st13{fill:#D64528;}
	.st14{fill:#FF914D;}
	.st15{fill:#3449A3;}
	.st16{fill:#2E872B;}
	.st17{fill:#D97B41;}
	.st18{fill:#226320;}
	.st19{fill:#2A3B85;}
	.st20{fill:#B53A22;}
	.st21{fill:url(#SVGID_1_);}
	.st22{fill:url(#SVGID_2_);}
	.st23{fill:url(#SVGID_3_);}
	.st24{fill:url(#SVGID_4_);}
	.st25{fill:url(#SVGID_5_);}
	.st26{opacity:0.5;fill:url(#SVGID_6_);enable-background:new    ;}
	.st27{fill:url(#SVGID_7_);}
	.st28{opacity:0.5;fill:url(#SVGID_8_);enable-background:new    ;}
	.st29{fill:url(#SVGID_9_);}
	.st30{fill:url(#SVGID_10_);}
	.st31{opacity:0.6;fill:url(#SVGID_11_);enable-background:new    ;}
	.st32{fill:url(#SVGID_12_);}
	.st33{fill:url(#SVGID_13_);}
	.st34{fill:url(#SVGID_14_);}
	.st35{fill:url(#SVGID_15_);}
	.st36{fill:url(#SVGID_16_);}
	.st37{opacity:0.5;fill:url(#SVGID_17_);enable-background:new    ;}
	.st38{fill:url(#SVGID_18_);}
	.st39{opacity:0.6;fill:url(#SVGID_19_);enable-background:new    ;}
	.st40{fill:url(#SVGID_20_);}
	.st41{fill:url(#SVGID_21_);}
	.st42{fill:url(#SVGID_22_);}
	.st43{opacity:0.3;fill:url(#SVGID_23_);enable-background:new    ;}
	.st44{fill:#23292E;}
	.st45{fill:#2E373D;}
	.st46{fill:#CECECE;}
	.st47{fill:#525E65;}
	.st48{fill:#627681;}
	.st49{fill:#E33400;}
	.st50{fill:#872E02;}
	.st51{fill:#82A5B9;}
	.st52{fill-rule:evenodd;clip-rule:evenodd;fill:#F9AC00;}
	.st53{fill-rule:evenodd;clip-rule:evenodd;fill:#FDC72E;}
	.st54{fill:#F9C795;}
	.st55{fill-rule:evenodd;clip-rule:evenodd;fill:#FDD7AD;}
	.st56{fill-rule:evenodd;clip-rule:evenodd;fill:#E6B17C;}
	.st57{fill:#2A92FA;}
	.st58{fill-rule:evenodd;clip-rule:evenodd;fill:#0E82F5;}
	.st59{fill-rule:evenodd;clip-rule:evenodd;fill:#F0414A;}
	.st60{fill-rule:evenodd;clip-rule:evenodd;fill:#FB545C;}
	.st61{fill-rule:evenodd;clip-rule:evenodd;fill:#3BD97D;}
	.st62{fill-rule:evenodd;clip-rule:evenodd;fill:#4FE88E;}
	.st63{fill-rule:evenodd;clip-rule:evenodd;fill:#2A92FA;}
	.st64{fill:#DDD3D3;}
	.st65{fill:#DB2C2C;}
	.st66{fill:#F13B3B;}
	.st67{fill:#CEC4C4;}
	.st68{fill:#332522;}
	.st69{fill:#47342F;}
	.st70{fill:#604843;}
	.st71{fill:#E5E3E3;}
	.st72{opacity:0.3;fill:#FFFFFF;}
	.st73{fill:#F8F8FF;}
	.st74{fill:#D8D7F9;}
	.st75{fill:#B889E0;}
	.st76{fill:#EFC7F9;}
	.st77{fill:#2D1164;}
	.st78{fill:#FFB6B1;}
	.st79{fill:#F47382;}
	.st80{fill:#C64F60;}
	.st81{opacity:0.33;}
	.st82{fill:#B9B9EA;}
	.st83{fill:#D3D3F4;}
	.st84{fill:#E8E8FC;}
	.st85{fill:#7E4DC4;}
	.st86{fill:#5642AD;}
	.st87{fill:#FEA046;}
	.st88{fill:#E15254;}
	.st89{opacity:0.53;}
	.st90{fill:#FFD1AB;}
	.st91{fill:#322277;}
	.st92{fill:#8AC9FE;}
	.st93{fill:#BFBFBF;}
	.st94{fill:#F8F6F6;}
	.st95{fill:#E2E2E2;}
	.st96{fill:#FE646F;}
	.st97{fill:#FD4755;}
	.st98{fill:#FED2A4;}
	.st99{fill:#FFBD86;}
	.st100{fill:#FFE5C2;}
	.st101{fill:#9C9C9C;}
	.st102{fill:#838383;}
	.st103{fill:#26A6FE;}
	.st104{fill:#0593FC;}
	.st105{fill:#EAF6FF;}
	.st106{fill:#0172FB;}
	.st107{fill:#25303F;}
	.st108{fill:#D33D48;}
	.st109{fill:#394456;}
	.st110{fill:#F4D72F;}
	.st111{fill:#FFA488;}
	.st112{fill:#E27466;}
	.st113{fill:#FFC4B6;}
	.st114{fill:#CC9D19;}
	.st115{fill:#EFCC3C;}
	.st116{fill:#FCE275;}
	.st117{fill:#EFBE35;}
	.st118{fill:#E0B52B;}
	.st119{fill:#76D6C4;}
	.st120{fill:#5B6A7F;}
	.st121{fill:#528432;}
	.st122{fill:#80BC50;}
	.st123{fill:#B2B8BF;}
	.st124{fill:#E2F2FA;}
	.st125{fill:#5BB3FF;}
	.st126{fill:#5CA7D9;}
	.st127{fill:#FF9D43;}
	.st128{fill:#00477F;}
	.st129{fill:#B6E0F4;}
	.st130{fill:#1C90CF;}
	.st131{fill:url(#SVGID_24_);}
	.st132{fill:#FFBCA5;}
	.st133{fill:#F8FBFF;}
	.st134{fill:#E0EFFF;}
	.st135{fill:#FFB59E;}
	.st136{fill:none;stroke:#000000;stroke-width:0.75;stroke-linecap:round;stroke-linejoin:round;stroke-miterlimit:10;}
	.st137{fill:#BEE9EB;}
	.st138{fill:#FFF6BC;}
	.st139{fill:#FF6E15;}
	.st140{fill:#7FCEED;}
	.st141{fill:#212121;}
	.st142{fill:#383838;}
	.st143{fill:#2A2A2A;}
	.st144{fill:#F5B0A6;}
	.st145{opacity:0.6;}
	.st146{fill:#F18A8B;}
	.st147{fill:#D37A7F;}
	.st148{fill:#0F0F0F;}
	.st149{fill:#202020;}
	.st150{fill:#1D1D1D;}
	.st151{fill:#2E6857;}
	.st152{fill:#255144;}
	.st153{fill:#40947E;}
	.st154{fill:#6FC183;}
	.st155{fill:#7A8DB0;}
	.st156{opacity:0.41;}
	.st157{fill:#243354;}
	.st158{fill:#EAEAEA;}
	.st159{fill:#2F4171;}
	.st160{fill:#2C4DA2;}
	.st161{fill:#99B1DA;}
	.st162{fill:#B5CAE8;}
	.st163{fill:#EDA9A2;}
	.st164{fill:#3D5891;}
	.st165{fill:#5681BF;}
	.st166{fill:#D1DBED;}
	.st167{opacity:0.35;}
	.st168{fill:#233F7C;}
	.st169{fill:#D2D2D2;}
	.st170{fill:#F19A6D;}
	.st171{fill:#7A7A7A;}
	.st172{fill:#F3CE90;}
	.st173{opacity:0.31;}
	.st174{fill:#292929;}
	.st175{fill:#515151;}
	.st176{fill:#3F3F3F;}
	.st177{fill-rule:evenodd;clip-rule:evenodd;fill:#D1DBED;}
	.st178{fill-rule:evenodd;clip-rule:evenodd;fill:#FFFFFF;}
	.st179{opacity:0.79;}
	.st180{opacity:0.28;}
	.st181{fill:#393939;}
	.st182{opacity:0.55;}
	.st183{fill:#A8A8A8;}
	.st184{fill:#B7B7B7;}
	.st185{fill:#EF7C59;}
	.st186{fill:#A0A0A0;}
	.st187{fill:#B9B9B9;}
	.st188{fill-rule:evenodd;clip-rule:evenodd;fill:#3D5891;}
	.st189{fill-rule:evenodd;clip-rule:evenodd;fill:#5681BF;}
	.st190{fill-rule:evenodd;clip-rule:evenodd;fill:#B5CAE8;}
	.st191{opacity:0.45;}
	.st192{fill-rule:evenodd;clip-rule:evenodd;fill:#99B1DA;}
	.st193{fill:#F0F0F0;}
	.st194{fill:#EACDB0;}
	.st195{fill:#A1BDCC;}
	.st196{fill:#8C9498;}
	.st197{fill:#3A3029;}
	.st198{fill:#59595B;}
	.st199{opacity:0.26;}
	.st200{fill:none;}
	.st201{fill:#6596C1;}
	.st202{fill:#5A8FB7;}
	.st203{fill:#C2969C;}
	.st204{fill:#754C3D;}
	.st205{fill:#F2D263;}
	.st206{fill:#AECCDC;}
	.st207{fill:#DEC2A7;}
	.st208{fill:#8AAD9F;}
	.st209{fill:#9E6652;}
	.st210{fill:#514943;}
	.st211{fill:#CAB5A1;}
	.st212{fill:#BCAC98;}
	.st213{fill:#D3C2A4;}
	.st214{fill:#37454D;}
	.st215{fill:#4F3C22;}
	.st216{fill:#DACAAF;}
	.st217{fill:#B26650;}
	.st218{fill:#2E4661;}
	.st219{fill:#FFFFF1;}
	.st220{fill:#FFD3A4;}
	.st221{fill:#FFBE84;}
	.st222{fill:#D65A2F;}
	.st223{fill:#A03914;}
	.st224{fill:#FFAF3E;}
	.st225{fill:#314652;}
	.st226{fill:#3C3A41;}
	.st227{fill:#FF9500;}
	.st228{fill:#E9336D;}
</style>
<g>
	<path class="st44" d="M6.2,12.9l-0.6,0.6L0,20l1.4,1l9-5.1L6.2,12.9z"/>
	<path class="st45" d="M8.3,15.1l-3.9,2.4l-3,3.4L0,20l5.6-6.5L8.3,15.1z"/>
	<path class="st46" d="M60,55c-0.7,0-1.3-0.4-1.4-1.1L49,19.7c-0.2-0.8,0.3-1.6,1.1-1.8c0.8-0.2,1.6,0.2,1.8,1l9.5,34.3
		c0.2,0.8-0.3,1.6-1.1,1.8C60.3,55,60.1,55,60,55z"/>
	<path class="st44" d="M17.7,13.9c-2.3-1.3-4.3-1.3-5.9-0.3l-4,2.3c-2.1,0.9-3.4,3.4-3.4,7.1c0,6.3,3.9,13.6,8.7,16.4
		c2.2,1.3,4.3,1.3,5.8,0.4l4.3-2.4c1.9-1,3.2-3.5,3.2-7C26.4,23.9,22.5,16.6,17.7,13.9z"/>
	<path class="st45" d="M21.9,32.8c0,6.3-3.9,9.2-8.7,6.5c-4.8-2.7-8.7-10.1-8.7-16.4c0-6.3,3.9-9.2,8.7-6.5
		C18,19.1,21.9,26.5,21.9,32.8z"/>
	<path class="st46" d="M18.5,30.9c0,3.9-2.4,5.7-5.4,4c-3-1.7-5.4-6.2-5.4-10.1s2.4-5.7,5.4-4C16.1,22.5,18.5,27,18.5,30.9z"/>
	<path class="st44" d="M32.6,34.3l-16.8-9.5c-1-0.5-2.2-0.6-3.1,0c-0.8,0.2-1.5,0.9-1.5,1.8c0,1.8,1,3.5,2.6,4.4l18.9,10.7
		L32.6,34.3z"/>
	<path class="st46" d="M20.7,20.8v5.3c0,1.1,0.6,2.1,1.6,2.7l5.9,3.4c1.6,1,2.5,2.6,2.5,4.4v2.8c0,1.7,0.9,3.3,2.4,4.1l4.8,2.7
		c0.6,0.4,1.3,0.3,1.9,0l9.9-5.6c0,0,0.1,0,0.1-0.1h0c0.5-0.3,0.9-0.9,0.9-1.5c0-1.7,0.3-3.3,0.8-4.9l1.7-4.7L20.7,20.8z"/>
	<path class="st47" d="M28.2,26.4l-7.5-4.3v3.9c0,1.1,0.6,2.1,1.6,2.7l5.9,3.4V26.4z"/>
	<path class="st47" d="M35.7,37.3L13.9,25c-1.3-0.7-2.8,0.2-2.8,1.6c0,1.8,1,3.5,2.6,4.4l22,12.5V37.3z"/>
	<path class="st48" d="M25.8,8l-1.4-2.5c-0.7-1.2-1.7-2.2-2.9-2.8l-4.2-2.4c-1-0.6-2.1-0.4-2.9,0.2L4.8,5.9C3.9,6.3,3.2,7.2,3.2,8.3
		c0,2.5,1.3,4.7,3.5,5.9l16.5,9.4l12.4-9.8L25.8,8z"/>
	<path class="st45" d="M25.6,19.4l-9.9-5.8l-1.4-2.5C13.6,10,12.6,9,11.4,8.3L7.2,6c-1.8-1-4,0.3-4,2.3c0,2.5,1.3,4.7,3.5,5.9
		l16.5,9.4L25.6,19.4z"/>
	<path class="st47" d="M15.7,13.7L25.8,8l9.9,5.8l-10.1,5.6L15.7,13.7z"/>
	<path class="st49" d="M46.4,13.9c-3.4-2-7.7-2-11.1-0.1c-0.1,0.1-8.8,5-9.6,5.5c-0.1,0.1-0.2,0.1-0.4,0.2c-1.3,0.7-2,2-2,3.5v0.5
		l20,11.4l10-5.7v-3.6C53.3,20.9,50.7,16.4,46.4,13.9z"/>
	<path class="st50" d="M23.2,23.6l20,11.4v-3.6c0-4.8-2.6-9.3-6.9-11.8c-3.4-2-7.7-2-11.1-0.1c-1.3,0.7-2,2-2,3.5V23.6z"/>
	<path class="st51" d="M28.2,26.4l15,8.5l-1.7,4.7c-0.6,1.6-0.8,3.2-0.8,4.9c0,1.4-1.5,2.3-2.8,1.6l-4.8-2.7
		c-1.5-0.9-2.4-2.4-2.4-4.1v-2.8c0-1.8-0.9-3.5-2.5-4.4V26.4z"/>
	<path class="st44" d="M59.8,42.1c-2.3-1.3-4.3-1.3-5.9-0.3l-4,2.3c-2.1,0.9-3.4,3.4-3.4,7.1c0,6.3,3.9,13.6,8.7,16.4
		c2.2,1.3,4.3,1.3,5.8,0.4l4.3-2.4c1.9-1,3.2-3.5,3.2-7C68.5,52.2,64.6,44.8,59.8,42.1z"/>
	<path class="st49" d="M60.8,39.9c-2.7-1.5-5.1-1.5-6.9-0.2l-5.3,3c-2.2,1.1-3.6,3.9-3.6,8c0,3.1,0.8,6.3,2.2,9.3l0.6-0.3
		c1.3-0.6,1.9-2,1.5-3.4c-0.3-1.2-0.5-2.4-0.5-3.5c0-4.4,2.7-6.5,6.1-4.5c0.7,0.4,1.3,0.9,2,1.5c1,1,2.7,0.9,3.7-0.2l0.3-0.4
		l3.7-2.1c0.7,0,1.4-0.3,1.9-0.9l0.3-0.4C65.1,43.3,63.1,41.2,60.8,39.9z"/>
	<path class="st45" d="M64,61c0,6.3-3.9,9.2-8.7,6.5c-4.8-2.7-8.7-10.1-8.7-16.4s3.9-9.2,8.7-6.5C60.1,47.4,64,54.7,64,61z"/>
	<path class="st46" d="M60.6,59.1c0,3.9-2.4,5.7-5.4,4c-3-1.7-5.4-6.2-5.4-10.1s2.4-5.7,5.4-4C58.2,50.7,60.6,55.2,60.6,59.1z"/>
	<path class="st48" d="M57.6,57.4c0,1.7-1,2.5-2.3,1.7c-1.3-0.7-2.3-2.7-2.3-4.4c0-1.7,1-2.5,2.3-1.7C56.5,53.8,57.6,55.7,57.6,57.4
		z"/>
	<path class="st50" d="M48.8,52.8c0-4.4,2.7-6.5,6.1-4.5c0.7,0.4,1.3,0.9,2,1.5c1,1,2.7,0.9,3.7-0.2l0.3-0.4c-1.7-2.6-3.7-4.7-5.9-6
		c-5.5-3.1-9.9,0.2-9.9,7.4c0,3.1,0.8,6.3,2.2,9.3l0.6-0.3c1.3-0.6,1.9-2,1.5-3.4C49,55.1,48.8,53.9,48.8,52.8z"/>
	<path class="st46" d="M55.1,57.9c-0.7,0-1.3-0.4-1.4-1.1l-9.5-34.3c-0.2-0.8,0.3-1.6,1.1-1.8c0.8-0.2,1.6,0.2,1.8,1L56.6,56
		c0.2,0.8-0.3,1.6-1.1,1.8C55.4,57.9,55.3,57.9,55.1,57.9z"/>
	<path class="st45" d="M50.8,8c-0.5,0-1-0.3-1.3-0.7c-0.4-0.7-0.2-1.6,0.5-2L53.9,3c0.7-0.4,1.6-0.2,2.1,0.5c0.4,0.7,0.2,1.6-0.6,2
		l-3.9,2.2C51.3,7.9,51,8,50.8,8z"/>
	<path class="st45" d="M56.5,7.5h-5c-0.4,0-0.8-0.4-0.8-0.8c0-0.4,0.4-0.8,0.8-0.8h5c0.4,0,0.8,0.4,0.8,0.8
		C57.3,7.1,57,7.5,56.5,7.5z"/>
	<path class="st46" d="M42.5,24.5c-2.1,0-4.1-0.8-5.7-2.3l-4.7-4.7c-0.6-0.6-0.6-1.5,0-2.1c0.6-0.6,1.5-0.6,2.1,0l4.7,4.7
		c1.6,1.6,4,1.9,6,0.8l4.8-2.7c1.1-0.6,1.6-1.8,1.4-3l-1.8-8.4C49.1,6,49.6,5.2,50.5,5c0.8-0.2,1.6,0.3,1.8,1.1l1.8,8.4
		c0.5,2.5-0.6,5-2.8,6.2l-4.8,2.7C45.3,24.2,43.9,24.5,42.5,24.5z"/>
	<path class="st45" d="M28.3,20.8c-0.5,0-1-0.3-1.3-0.7c-0.4-0.7-0.2-1.6,0.5-2l5-2.8c0.7-0.4,1.6-0.2,2.1,0.5
		c0.4,0.7,0.2,1.6-0.6,2l-5,2.8C28.8,20.7,28.6,20.8,28.3,20.8z"/>
	<path class="st51" d="M56.9,18.4l-2.6-1.5c-2.4-1.4-5.4-1.4-7.9,0c-4.5,2.6-4.5,8.9,0,11.5l4.6,2.7c0.8,0.5,1.9,0.5,3.1-0.2
		c2.6-1.5,4.6-5.3,4.6-8.7C58.9,20.2,58.1,18.8,56.9,18.4z"/>
	<path class="st46" d="M58.9,22.2c0,3.4-2.1,7.2-4.6,8.7c-2.6,1.5-4.6-0.1-4.6-3.4s2.1-7.2,4.6-8.7C56.8,17.4,58.9,18.9,58.9,22.2z"
		/>
	<path class="st12" d="M57.5,23c0,2.4-1.5,5.1-3.3,6.2c-1.8,1-3.3-0.1-3.3-2.4c0-2.4,1.5-5.1,3.3-6.2C56.1,19.5,57.5,20.6,57.5,23z"
		/>
	<path class="st12" d="M32.8,38.3c0,2.1,1.3,4.4,2.8,5.3c1.6,0.9,2.8-0.1,2.8-2.1c0-2.1-1.3-4.4-2.8-5.3
		C34.1,35.3,32.8,36.3,32.8,38.3z"/>
	<path class="st45" d="M32.6,23.3c-0.1,0-0.1,0-0.2,0c-0.4-0.1-0.7-0.5-0.6-1l1.3-5.4c0.1-0.4,0.5-0.7,1-0.6c0.4,0.1,0.7,0.5,0.6,1
		l-1.3,5.4C33.3,23,32.9,23.3,32.6,23.3z"/>
</g>
</svg>
