<?xml version="1.0" encoding="utf-8"?>
<!-- Generator: Adobe Illustrator 25.2.1, SVG Export Plug-In . SVG Version: 6.00 Build 0)  -->
<svg version="1.1" id="bold" xmlns="http://www.w3.org/2000/svg" xmlns:xlink="http://www.w3.org/1999/xlink" x="0px" y="0px"
	 viewBox="0 0 68.5 68.5" style="enable-background:new 0 0 68.5 68.5;" xml:space="preserve">
<style type="text/css">
	.st0{fill:#FC573B;}
	.st1{fill:#FD907E;}
	.st2{fill:#FFAC96;}
	.st3{fill:#FFBCAB;}
	.st4{fill:#006DF0;}
	.st5{fill:#D80027;}
	.st6{fill:#BD0022;}
	.st7{fill:#F1F2F2;}
	.st8{fill:#858585;}
	.st9{fill:#57A5FF;}
	.st10{fill:#4481C7;}
	.st11{fill:#FFD45A;}
	.st12{fill:#FFFFFF;}
	.st13{fill:#D64528;}
	.st14{fill:#FF914D;}
	.st15{fill:#3449A3;}
	.st16{fill:#2E872B;}
	.st17{fill:#D97B41;}
	.st18{fill:#226320;}
	.st19{fill:#2A3B85;}
	.st20{fill:#B53A22;}
	.st21{fill:url(#SVGID_1_);}
	.st22{fill:url(#SVGID_2_);}
	.st23{fill:url(#SVGID_3_);}
	.st24{fill:url(#SVGID_4_);}
	.st25{fill:url(#SVGID_5_);}
	.st26{opacity:0.5;fill:url(#SVGID_6_);enable-background:new    ;}
	.st27{fill:url(#SVGID_7_);}
	.st28{opacity:0.5;fill:url(#SVGID_8_);enable-background:new    ;}
	.st29{fill:url(#SVGID_9_);}
	.st30{fill:url(#SVGID_10_);}
	.st31{opacity:0.6;fill:url(#SVGID_11_);enable-background:new    ;}
	.st32{fill:url(#SVGID_12_);}
	.st33{fill:url(#SVGID_13_);}
	.st34{fill:url(#SVGID_14_);}
	.st35{fill:url(#SVGID_15_);}
	.st36{fill:url(#SVGID_16_);}
	.st37{opacity:0.5;fill:url(#SVGID_17_);enable-background:new    ;}
	.st38{fill:url(#SVGID_18_);}
	.st39{opacity:0.6;fill:url(#SVGID_19_);enable-background:new    ;}
	.st40{fill:url(#SVGID_20_);}
	.st41{fill:url(#SVGID_21_);}
	.st42{fill:url(#SVGID_22_);}
	.st43{opacity:0.3;fill:url(#SVGID_23_);enable-background:new    ;}
	.st44{fill:#23292E;}
	.st45{fill:#2E373D;}
	.st46{fill:#CECECE;}
	.st47{fill:#525E65;}
	.st48{fill:#627681;}
	.st49{fill:#E33400;}
	.st50{fill:#872E02;}
	.st51{fill:#82A5B9;}
	.st52{fill-rule:evenodd;clip-rule:evenodd;fill:#F9AC00;}
	.st53{fill-rule:evenodd;clip-rule:evenodd;fill:#FDC72E;}
	.st54{fill:#F9C795;}
	.st55{fill-rule:evenodd;clip-rule:evenodd;fill:#FDD7AD;}
	.st56{fill-rule:evenodd;clip-rule:evenodd;fill:#E6B17C;}
	.st57{fill:#2A92FA;}
	.st58{fill-rule:evenodd;clip-rule:evenodd;fill:#0E82F5;}
	.st59{fill-rule:evenodd;clip-rule:evenodd;fill:#F0414A;}
	.st60{fill-rule:evenodd;clip-rule:evenodd;fill:#FB545C;}
	.st61{fill-rule:evenodd;clip-rule:evenodd;fill:#3BD97D;}
	.st62{fill-rule:evenodd;clip-rule:evenodd;fill:#4FE88E;}
	.st63{fill-rule:evenodd;clip-rule:evenodd;fill:#2A92FA;}
	.st64{fill:#DDD3D3;}
	.st65{fill:#DB2C2C;}
	.st66{fill:#F13B3B;}
	.st67{fill:#CEC4C4;}
	.st68{fill:#332522;}
	.st69{fill:#47342F;}
	.st70{fill:#604843;}
	.st71{fill:#E5E3E3;}
	.st72{opacity:0.3;fill:#FFFFFF;}
	.st73{fill:#F8F8FF;}
	.st74{fill:#D8D7F9;}
	.st75{fill:#B889E0;}
	.st76{fill:#EFC7F9;}
	.st77{fill:#2D1164;}
	.st78{fill:#FFB6B1;}
	.st79{fill:#F47382;}
	.st80{fill:#C64F60;}
	.st81{opacity:0.33;}
	.st82{fill:#B9B9EA;}
	.st83{fill:#D3D3F4;}
	.st84{fill:#E8E8FC;}
	.st85{fill:#7E4DC4;}
	.st86{fill:#5642AD;}
	.st87{fill:#FEA046;}
	.st88{fill:#E15254;}
	.st89{opacity:0.53;}
	.st90{fill:#FFD1AB;}
	.st91{fill:#322277;}
	.st92{fill:#8AC9FE;}
	.st93{fill:#BFBFBF;}
	.st94{fill:#F8F6F6;}
	.st95{fill:#E2E2E2;}
	.st96{fill:#FE646F;}
	.st97{fill:#FD4755;}
	.st98{fill:#FED2A4;}
	.st99{fill:#FFBD86;}
	.st100{fill:#FFE5C2;}
	.st101{fill:#9C9C9C;}
	.st102{fill:#838383;}
	.st103{fill:#26A6FE;}
	.st104{fill:#0593FC;}
	.st105{fill:#EAF6FF;}
	.st106{fill:#0172FB;}
	.st107{fill:#25303F;}
	.st108{fill:#D33D48;}
	.st109{fill:#394456;}
	.st110{fill:#F4D72F;}
	.st111{fill:#FFA488;}
	.st112{fill:#E27466;}
	.st113{fill:#FFC4B6;}
	.st114{fill:#CC9D19;}
	.st115{fill:#EFCC3C;}
	.st116{fill:#FCE275;}
	.st117{fill:#EFBE35;}
	.st118{fill:#E0B52B;}
	.st119{fill:#76D6C4;}
	.st120{fill:#5B6A7F;}
	.st121{fill:#528432;}
	.st122{fill:#80BC50;}
	.st123{fill:#B2B8BF;}
	.st124{fill:#E2F2FA;}
	.st125{fill:#5BB3FF;}
	.st126{fill:#5CA7D9;}
	.st127{fill:#FF9D43;}
	.st128{fill:#00477F;}
	.st129{fill:#B6E0F4;}
	.st130{fill:#1C90CF;}
	.st131{fill:url(#SVGID_24_);}
	.st132{fill:#FFBCA5;}
	.st133{fill:#F8FBFF;}
	.st134{fill:#E0EFFF;}
	.st135{fill:#FFB59E;}
	.st136{fill:none;stroke:#000000;stroke-width:0.75;stroke-linecap:round;stroke-linejoin:round;stroke-miterlimit:10;}
	.st137{fill:#BEE9EB;}
	.st138{fill:#FFF6BC;}
	.st139{fill:#FF6E15;}
	.st140{fill:#7FCEED;}
	.st141{fill:#212121;}
	.st142{fill:#383838;}
	.st143{fill:#2A2A2A;}
	.st144{fill:#F5B0A6;}
	.st145{opacity:0.6;}
	.st146{fill:#F18A8B;}
	.st147{fill:#D37A7F;}
	.st148{fill:#0F0F0F;}
	.st149{fill:#202020;}
	.st150{fill:#1D1D1D;}
	.st151{fill:#2E6857;}
	.st152{fill:#255144;}
	.st153{fill:#40947E;}
	.st154{fill:#6FC183;}
	.st155{fill:#7A8DB0;}
	.st156{opacity:0.41;}
	.st157{fill:#243354;}
	.st158{fill:#EAEAEA;}
	.st159{fill:#2F4171;}
	.st160{fill:#2C4DA2;}
	.st161{fill:#99B1DA;}
	.st162{fill:#B5CAE8;}
	.st163{fill:#EDA9A2;}
	.st164{fill:#3D5891;}
	.st165{fill:#5681BF;}
	.st166{fill:#D1DBED;}
	.st167{opacity:0.35;}
	.st168{fill:#233F7C;}
	.st169{fill:#D2D2D2;}
	.st170{fill:#F19A6D;}
	.st171{fill:#7A7A7A;}
	.st172{fill:#F3CE90;}
	.st173{opacity:0.31;}
	.st174{fill:#292929;}
	.st175{fill:#515151;}
	.st176{fill:#3F3F3F;}
	.st177{fill-rule:evenodd;clip-rule:evenodd;fill:#D1DBED;}
	.st178{fill-rule:evenodd;clip-rule:evenodd;fill:#FFFFFF;}
	.st179{opacity:0.79;}
	.st180{opacity:0.28;}
	.st181{fill:#393939;}
	.st182{opacity:0.55;}
	.st183{fill:#A8A8A8;}
	.st184{fill:#B7B7B7;}
	.st185{fill:#EF7C59;}
	.st186{fill:#A0A0A0;}
	.st187{fill:#B9B9B9;}
	.st188{fill-rule:evenodd;clip-rule:evenodd;fill:#3D5891;}
	.st189{fill-rule:evenodd;clip-rule:evenodd;fill:#5681BF;}
	.st190{fill-rule:evenodd;clip-rule:evenodd;fill:#B5CAE8;}
	.st191{opacity:0.45;}
	.st192{fill-rule:evenodd;clip-rule:evenodd;fill:#99B1DA;}
	.st193{fill:#F0F0F0;}
	.st194{fill:#EACDB0;}
	.st195{fill:#A1BDCC;}
	.st196{fill:#8C9498;}
	.st197{fill:#3A3029;}
	.st198{fill:#59595B;}
	.st199{opacity:0.26;}
	.st200{fill:none;}
	.st201{fill:#6596C1;}
	.st202{fill:#5A8FB7;}
	.st203{fill:#C2969C;}
	.st204{fill:#754C3D;}
	.st205{fill:#F2D263;}
	.st206{fill:#AECCDC;}
	.st207{fill:#DEC2A7;}
	.st208{fill:#8AAD9F;}
	.st209{fill:#9E6652;}
	.st210{fill:#514943;}
	.st211{fill:#CAB5A1;}
	.st212{fill:#BCAC98;}
	.st213{fill:#D3C2A4;}
	.st214{fill:#37454D;}
	.st215{fill:#4F3C22;}
	.st216{fill:#DACAAF;}
	.st217{fill:#B26650;}
	.st218{fill:#2E4661;}
	.st219{fill:#FFFFF1;}
	.st220{fill:#FFD3A4;}
	.st221{fill:#FFBE84;}
	.st222{fill:#D65A2F;}
	.st223{fill:#A03914;}
	.st224{fill:#FFAF3E;}
	.st225{fill:#314652;}
	.st226{fill:#3C3A41;}
	.st227{fill:#FF9500;}
	.st228{fill:#E9336D;}
</style>
<g id="healthcare-covid19-coronavirus-hand-hearth">
	<path class="st2" d="M14.9,32.2L9.5,16.7C9,14.9,7.1,13.7,5.2,14c-1.9,0.4-3.2,2.3-2.8,4.2c0,0.1,0,0.1,0,0.2l5.6,17L14.9,32.2z"/>
	<path class="st2" d="M53.7,32.2l5.4-15.4c0.5-1.9,2.3-3.1,4.2-2.7c1.9,0.4,3.2,2.3,2.8,4.2c0,0.1,0,0.1,0,0.2l-5.6,17L53.7,32.2z"
		/>
	<path class="st3" d="M26,38.6l-10.5-6.1c-1.5-0.9-3.4-0.5-4.5,0.8L7.1,21.5c-0.5-1.9-2.3-3.1-4.2-2.7C0.9,19.1-0.3,21,0.1,23
		c0,0.1,0,0.1,0,0.2l5.2,19.2C5.5,43.2,6,44,6.7,44.6l8.1,7.1c1,0.9,1.6,2.2,1.6,3.5v3.8h14.3V46.8C30.7,43.4,28.9,40.3,26,38.6z"/>
	<path class="st3" d="M65.7,18.7c-1.9-0.3-3.8,0.9-4.2,2.7l-3.8,11.8c-1.1-1.3-3-1.7-4.5-0.8l-10.5,6.1c-2.9,1.7-4.7,4.8-4.7,8.2
		v12.3h14.3v-3.8c0-1.4,0.6-2.6,1.6-3.5l8.1-7.1c0.7-0.6,1.2-1.4,1.4-2.3l5.2-19.2c0.5-1.9-0.6-3.8-2.5-4.3
		C65.8,18.8,65.8,18.7,65.7,18.7L65.7,18.7z"/>
	<path class="st4" d="M36.7,59.1v9.5h16.7v-9.5h-1.2H37.8H36.7z"/>
	<path class="st4" d="M31.9,59.1h-1.2H16.4h-1.2v9.5h16.7V59.1z"/>
	<path class="st5" d="M50.3,18.3l-0.8,0.8L34.3,34.2L19.1,19.2l-0.8-0.8C14,14.3,13.8,7.5,17.9,3.3S28.8-1.1,33.1,3
		c0.1,0.1,0.2,0.2,0.3,0.3l0.8,0.8l0.8-0.8C39.2-1,46-1.1,50.3,3s4.4,10.8,0.3,15.1C50.5,18.1,50.4,18.2,50.3,18.3z"/>
	<path class="st6" d="M50.3,3.3C48,1,44.7-0.1,41.5,0.2C47.4,0.9,51.6,6.1,51,12c-0.3,2.4-1.4,4.6-3.1,6.4l-0.8,0.8L33.1,33l1.2,1.2
		l15.2-15.1l0.8-0.8C54.5,14.2,54.5,7.4,50.3,3.3z"/>
	<path class="st7" d="M36.7,22.4v-4.7h4.8v-4.7h-4.8V8.2h-4.8v4.7h-4.8v4.7h4.8v4.7H36.7z"/>
	<g>
		<path class="st2" d="M56.7,36.2l-8,4.4c-0.5,0.3-0.7,0.9-0.4,1.3c0.3,0.5,0.9,0.7,1.4,0.5c0,0,0,0,0.1,0l6.9-3.8
			c1.5-0.9,2.2-2.7,1.6-4.3C58,35.1,57.4,35.8,56.7,36.2L56.7,36.2z"/>
		<path class="st2" d="M11.9,36.2l8,4.4c0.5,0.3,0.7,0.9,0.4,1.3c-0.3,0.5-0.9,0.7-1.4,0.5c0,0,0,0-0.1,0l-6.9-3.8
			c-1.5-0.9-2.2-2.7-1.6-4.3C10.6,35.1,11.1,35.8,11.9,36.2L11.9,36.2z"/>
	</g>
</g>
</svg>
