<?xml version="1.0" encoding="utf-8"?>
<!-- Generator: Adobe Illustrator 25.2.1, SVG Export Plug-In . SVG Version: 6.00 Build 0)  -->
<svg version="1.1" id="bold" xmlns="http://www.w3.org/2000/svg" xmlns:xlink="http://www.w3.org/1999/xlink" x="0px" y="0px"
	 viewBox="0 0 68.5 57.7" style="enable-background:new 0 0 68.5 57.7;" xml:space="preserve">
<style type="text/css">
	.st0{fill:#FFFFFF;}
	.st1{opacity:0.5;fill:#FFFFFF;enable-background:new    ;}
	.st2{opacity:0.6;fill:#FFFFFF;enable-background:new    ;}
	.st3{opacity:0.3;fill:#FFFFFF;enable-background:new    ;}
	.st4{fill-rule:evenodd;clip-rule:evenodd;fill:#FFFFFF;}
	.st5{opacity:0.3;fill:#FFFFFF;}
	.st6{opacity:0.33;}
	.st7{opacity:0.53;}
	.st8{opacity:0.6;}
	.st9{opacity:0.41;}
	.st10{opacity:0.35;}
	.st11{opacity:0.31;}
	.st12{opacity:0.79;}
	.st13{opacity:0.28;}
	.st14{opacity:0.55;}
	.st15{opacity:0.45;}
	.st16{opacity:0.26;fill:#FFFFFF;}
</style>
<g>
	<g>
		<path class="st0" d="M16.1,37.5L11,42.9l8.7,9.7l5.1-5.4c0.9,0.5,1.9,0.9,2.9,1.3l0,7.8l12.5,0l0-7.8c0.9-0.3,1.8-0.7,2.6-1.2
			l5.1,5.5l8.8-9.6l-5.1-5.5c0.4-0.8,0.7-1.7,1-2.6l7.1,0.1l0.1-13.5L53,21.6c-0.3-1-0.7-2-1.1-2.9l5.1-5.4l-8.7-9.7L43.2,9
			c-0.9-0.5-1.9-1-3-1.4l0-7.6L27.7,0l0,7.6C26.8,8,25.9,8.4,25,8.9l-5-5.4L11.2,13l5,5.4c-0.4,0.9-0.7,1.8-1,2.7L8.1,21L7.9,34.5
			l7.1,0.1C15.4,35.6,15.7,36.6,16.1,37.5z M18.4,28.1c0-4.5,1.6-8.7,4.6-11.9c2.9-3.2,6.9-4.9,11-4.9c4.2,0,8.1,1.7,11,4.9
			c3,3.2,4.6,7.4,4.6,11.9c0,4.5-1.6,8.7-4.6,11.9c-2.9,3.2-6.9,4.9-11,4.9c-4.2,0-8.1-1.7-11-4.9C20,36.9,18.4,32.6,18.4,28.1z"/>
		<path class="st0" d="M20,28.1c0,8.3,6.3,15.1,14,15.1c7.7,0,14-6.8,14-15.1S41.7,13,34,13C26.3,13,20,19.8,20,28.1z M24.3,28.1
			c0-5.8,4.3-10.5,9.7-10.5c5.3,0,9.7,4.7,9.7,10.4c0,5.8-4.3,10.5-9.7,10.5C28.7,38.6,24.3,33.9,24.3,28.1z"/>
	</g>
	<g>
		<g>
			
				<image style="overflow:visible;" width="19" height="13" xlink:href="A54D6091.png"  transform="matrix(1 0 0 1 50.1744 36.5202)">
			</image>
			<ellipse class="st0" cx="67.1" cy="38.2" rx="0.5" ry="0.5"/>
			<path class="st0" d="M65.2,38.7c-0.3,0-0.5-0.2-0.5-0.5c0-0.3,0.2-0.5,0.5-0.5c0.3,0,0.5,0.2,0.5,0.5
				C65.7,38.5,65.5,38.7,65.2,38.7z"/>
			<ellipse class="st0" cx="63.4" cy="38.2" rx="0.5" ry="0.5"/>
			<path class="st0" d="M61.6,38.7c-0.3,0-0.5-0.2-0.5-0.5c0-0.3,0.2-0.5,0.5-0.5c0.3,0,0.5,0.2,0.5,0.5
				C62.1,38.5,61.8,38.7,61.6,38.7z"/>
			<path class="st0" d="M59.8,38.7c-0.3,0-0.5-0.2-0.5-0.5c0-0.3,0.2-0.5,0.5-0.5c0.3,0,0.5,0.2,0.5,0.5
				C60.2,38.4,60,38.7,59.8,38.7z"/>
			<path class="st0" d="M57.9,38.7c-0.3,0-0.5-0.2-0.5-0.5c0-0.3,0.2-0.5,0.5-0.5c0.3,0,0.5,0.2,0.5,0.5
				C58.4,38.4,58.2,38.7,57.9,38.7z"/>
			<path class="st0" d="M56.1,38.6c-0.3,0-0.5-0.2-0.5-0.5c0-0.3,0.2-0.5,0.5-0.5c0.3,0,0.5,0.2,0.5,0.5
				C56.6,38.4,56.4,38.6,56.1,38.6z"/>
			<path class="st0" d="M54.3,38.6c-0.3,0-0.5-0.2-0.5-0.5c0-0.3,0.2-0.5,0.5-0.5c0.3,0,0.5,0.2,0.5,0.5
				C54.8,38.4,54.5,38.6,54.3,38.6z"/>
			<path class="st0" d="M52.5,38.6c-0.3,0-0.5-0.2-0.5-0.5c0-0.3,0.2-0.5,0.5-0.5c0.3,0,0.5,0.2,0.5,0.5
				C52.9,38.4,52.7,38.6,52.5,38.6z"/>
			<path class="st0" d="M66.8,38.2l0-2.2c0,0,0,0,0,0l0.5,0c0,0,0,0,0,0l0,2.2c0,0,0,0,0,0L66.8,38.2C66.9,38.2,66.8,38.2,66.8,38.2
				z"/>
			<path class="st0" d="M65,38.2l0-2.2c0,0,0,0,0,0l0.5,0c0,0,0,0,0,0l0,2.2c0,0,0,0,0,0L65,38.2C65,38.2,65,38.2,65,38.2z"/>
			<path class="st0" d="M63.1,38.1l0-2.2c0,0,0,0,0,0l0.5,0c0,0,0,0,0,0l0,2.2c0,0,0,0,0,0L63.1,38.1C63.1,38.2,63.1,38.2,63.1,38.1
				z"/>
			<path class="st0" d="M61.3,38.1l0-2.2c0,0,0,0,0,0l0.5,0c0,0,0,0,0,0l0,2.2c0,0,0,0,0,0L61.3,38.1C61.3,38.2,61.3,38.2,61.3,38.1
				z"/>
			<path class="st0" d="M59.5,38.1l0-2.2c0,0,0,0,0,0l0.5,0c0,0,0,0,0,0l0,2.2c0,0,0,0,0,0L59.5,38.1C59.5,38.2,59.5,38.1,59.5,38.1
				z"/>
			<path class="st0" d="M57.7,38.1l0-2.2c0,0,0,0,0,0l0.5,0c0,0,0,0,0,0l0,2.2c0,0,0,0,0,0L57.7,38.1C57.7,38.1,57.7,38.1,57.7,38.1
				z"/>
			<path class="st0" d="M55.8,38.1l0-2.2c0,0,0,0,0,0l0.5,0c0,0,0,0,0,0l0,2.2c0,0,0,0,0,0L55.8,38.1C55.8,38.1,55.8,38.1,55.8,38.1
				z"/>
			<path class="st0" d="M54,38.1l0-2.2c0,0,0,0,0,0l0.5,0c0,0,0,0,0,0l0,2.2c0,0,0,0,0,0L54,38.1C54,38.1,54,38.1,54,38.1z"/>
			<path class="st0" d="M52.2,38.2l0-2.2c0,0,0,0,0,0l0.5,0c0,0,0,0,0,0l0,2.2c0,0,0,0,0,0L52.2,38.2C52.2,38.2,52.2,38.2,52.2,38.2
				z"/>
			<g>
				<g>
					<g>
						<path class="st0" d="M53.7,41.2l-1.4,0c0,0-0.1,0-0.1-0.1l0-1.2c0,0,0-0.1,0.1-0.1l1.4,0c0,0,0.1,0,0.1,0.1L53.7,41.2
							C53.8,41.2,53.7,41.2,53.7,41.2z"/>
						<path class="st0" d="M56,41.2l-1.4,0c0,0-0.1,0-0.1-0.1l0-1.2c0,0,0-0.1,0.1-0.1l1.4,0c0,0,0.1,0,0.1,0.1L56,41.2
							C56,41.2,56,41.2,56,41.2z"/>
						<path class="st0" d="M58.2,41.2l-1.4,0c0,0-0.1,0-0.1-0.1l0-1.2c0,0,0-0.1,0.1-0.1l1.4,0c0,0,0.1,0,0.1,0.1L58.2,41.2
							C58.3,41.1,58.3,41.2,58.2,41.2z"/>
						<path class="st0" d="M60.5,41.1l-1.4,0c0,0-0.1,0-0.1-0.1l0-1.2c0,0,0-0.1,0.1-0.1l1.4,0c0,0,0.1,0,0.1,0.1L60.5,41.1
							C60.6,41.1,60.6,41.1,60.5,41.1z"/>
						<path class="st0" d="M62.8,41.1l-1.4,0c0,0-0.1,0-0.1-0.1l0-1.2c0,0,0-0.1,0.1-0.1l1.4,0c0,0,0.1,0,0.1,0.1L62.8,41.1
							C62.9,41.1,62.8,41.1,62.8,41.1z"/>
						<path class="st0" d="M65.1,41.1l-1.4,0c0,0-0.1,0-0.1-0.1l0-1.2c0,0,0-0.1,0.1-0.1l1.4,0c0,0,0.1,0,0.1,0.1L65.1,41.1
							C65.1,41.1,65.1,41.1,65.1,41.1z"/>
						<path class="st0" d="M67.4,41.1l-1.4,0c0,0-0.1,0-0.1-0.1l0-1.2c0,0,0-0.1,0.1-0.1l1.4,0c0,0,0.1,0,0.1,0.1L67.4,41.1
							C67.4,41,67.4,41.1,67.4,41.1z"/>
					</g>
					<g>
						<path class="st0" d="M53.7,43.3l-1.4,0c0,0-0.1,0-0.1-0.1l0-1.2c0,0,0-0.1,0.1-0.1l1.4,0c0,0,0.1,0,0.1,0.1L53.7,43.3
							C53.7,43.2,53.7,43.3,53.7,43.3z"/>
						<path class="st0" d="M55.9,43.2l-1.4,0c0,0-0.1,0-0.1-0.1l0-1.2c0,0,0-0.1,0.1-0.1l1.4,0c0,0,0.1,0,0.1,0.1L55.9,43.2
							C56,43.2,56,43.2,55.9,43.2z"/>
						<path class="st0" d="M58.2,43.2l-1.4,0c0,0-0.1,0-0.1-0.1l0-1.2c0,0,0-0.1,0.1-0.1l1.4,0c0,0,0.1,0,0.1,0.1L58.2,43.2
							C58.3,43.2,58.3,43.2,58.2,43.2z"/>
						<path class="st0" d="M60.5,43.2l-1.4,0c0,0-0.1,0-0.1-0.1l0-1.2c0,0,0-0.1,0.1-0.1l1.4,0c0,0,0.1,0,0.1,0.1L60.5,43.2
							C60.6,43.2,60.5,43.2,60.5,43.2z"/>
						<path class="st0" d="M62.8,43.2l-1.4,0c0,0-0.1,0-0.1-0.1l0-1.2c0,0,0-0.1,0.1-0.1l1.4,0c0,0,0.1,0,0.1,0.1L62.8,43.2
							C62.8,43.1,62.8,43.2,62.8,43.2z"/>
						<path class="st0" d="M65.1,43.1l-1.4,0c0,0-0.1,0-0.1-0.1l0-1.2c0,0,0-0.1,0.1-0.1l1.4,0c0,0,0.1,0,0.1,0.1L65.1,43.1
							C65.1,43.1,65.1,43.1,65.1,43.1z"/>
						<path class="st0" d="M67.3,43.1l-1.4,0c0,0-0.1,0-0.1-0.1l0-1.2c0,0,0-0.1,0.1-0.1l1.4,0c0,0,0.1,0,0.1,0.1L67.3,43.1
							C67.4,43.1,67.4,43.1,67.3,43.1z"/>
					</g>
					<g>
						<g>
							<g>
								<path class="st0" d="M53.6,45.3l-1.4,0c0,0-0.1,0-0.1-0.1l0-1.2c0,0,0-0.1,0.1-0.1l1.4,0c0,0,0.1,0,0.1,0.1L53.6,45.3
									C53.7,45.3,53.7,45.3,53.6,45.3z"/>
							</g>
							<g>
								<path class="st0" d="M55.9,45.3l-1.4,0c0,0-0.1,0-0.1-0.1l0-1.2c0,0,0-0.1,0.1-0.1l1.4,0c0,0,0.1,0,0.1,0.1L55.9,45.3
									C56,45.3,56,45.3,55.9,45.3z"/>
							</g>
							<g>
								<path class="st0" d="M58.2,45.3l-1.4,0c0,0-0.1,0-0.1-0.1l0-1.2c0,0,0-0.1,0.1-0.1l1.4,0c0,0,0.1,0,0.1,0.1L58.2,45.3
									C58.3,45.2,58.2,45.3,58.2,45.3z"/>
							</g>
							<g>
								<path class="st0" d="M60.5,45.2l-1.4,0c0,0-0.1,0-0.1-0.1l0-1.2c0,0,0-0.1,0.1-0.1l1.4,0c0,0,0.1,0,0.1,0.1L60.5,45.2
									C60.5,45.2,60.5,45.2,60.5,45.2z"/>
							</g>
							<g>
								<path class="st0" d="M62.8,45.2l-1.4,0c0,0-0.1,0-0.1-0.1l0-1.2c0,0,0-0.1,0.1-0.1l1.4,0c0,0,0.1,0,0.1,0.1L62.8,45.2
									C62.8,45.2,62.8,45.2,62.8,45.2z"/>
							</g>
							<g>
								<path class="st0" d="M65,45.2l-1.4,0c0,0-0.1,0-0.1-0.1l0-1.2c0,0,0-0.1,0.1-0.1l1.4,0c0,0,0.1,0,0.1,0.1L65,45.2
									C65.1,45.2,65.1,45.2,65,45.2z"/>
							</g>
							<g>
								<path class="st0" d="M67.3,45.2l-1.4,0c0,0-0.1,0-0.1-0.1l0-1.2c0,0,0-0.1,0.1-0.1l1.4,0c0,0,0.1,0,0.1,0.1L67.3,45.2
									C67.4,45.1,67.3,45.2,67.3,45.2z"/>
							</g>
						</g>
					</g>
					<g>
						<g>
							<g>
								<path class="st0" d="M53.6,47.4l-1.4,0c0,0-0.1,0-0.1-0.1l0-1.2c0,0,0-0.1,0.1-0.1l1.4,0c0,0,0.1,0,0.1,0.1L53.6,47.4
									C53.7,47.3,53.7,47.4,53.6,47.4z"/>
							</g>
							<g>
								<path class="st0" d="M55.9,47.3l-1.4,0c0,0-0.1,0-0.1-0.1l0-1.2c0,0,0-0.1,0.1-0.1l1.4,0c0,0,0.1,0,0.1,0.1L55.9,47.3
									C56,47.3,55.9,47.3,55.9,47.3z"/>
							</g>
							<g>
								<path class="st0" d="M58.2,47.3l-1.4,0c0,0-0.1,0-0.1-0.1l0-1.2c0,0,0-0.1,0.1-0.1l1.4,0c0,0,0.1,0,0.1,0.1L58.2,47.3
									C58.2,47.3,58.2,47.3,58.2,47.3z"/>
							</g>
							<g>
								<path class="st0" d="M60.5,47.3l-1.4,0c0,0-0.1,0-0.1-0.1l0-1.2c0,0,0-0.1,0.1-0.1l1.4,0c0,0,0.1,0,0.1,0.1L60.5,47.3
									C60.5,47.3,60.5,47.3,60.5,47.3z"/>
							</g>
							<g>
								<path class="st0" d="M62.7,47.3l-1.4,0c0,0-0.1,0-0.1-0.1l0-1.2c0,0,0-0.1,0.1-0.1l1.4,0c0,0,0.1,0,0.1,0.1L62.7,47.3
									C62.8,47.2,62.8,47.3,62.7,47.3z"/>
							</g>
							<g>
								<path class="st0" d="M65,47.2l-1.4,0c0,0-0.1,0-0.1-0.1l0-1.2c0,0,0-0.1,0.1-0.1l1.4,0c0,0,0.1,0,0.1,0.1L65,47.2
									C65.1,47.2,65,47.2,65,47.2z"/>
							</g>
							<g>
								<path class="st0" d="M67.3,47.2l-1.4,0c0,0-0.1,0-0.1-0.1l0-1.2c0,0,0-0.1,0.1-0.1l1.4,0c0,0,0.1,0,0.1,0.1L67.3,47.2
									C67.3,47.2,67.3,47.2,67.3,47.2z"/>
							</g>
						</g>
					</g>
				</g>
			</g>
		</g>
		<g>
			<g>
				<path class="st0" d="M0.6,49.5c-0.1,0-0.3-0.1-0.4-0.2C0.1,49.2,0,49,0,48.8V29.7c0-0.2,0.1-0.3,0.2-0.4
					c0.1-0.1,0.2-0.2,0.4-0.2h12.7c0.1,0,0.3,0.1,0.4,0.2c0.1,0.1,0.2,0.3,0.2,0.4v19.2c0,0.2-0.1,0.3-0.2,0.4
					c-0.1,0.1-0.2,0.2-0.4,0.2H0.6z"/>
				<g>
					<rect x="1.3" y="30.8" class="st0" width="11.4" height="15.7"/>
				</g>
				<g>
					<g>
						<g>
							<path class="st0" d="M8.1,48.3H5.7c-0.2,0-0.4-0.2-0.4-0.4l0,0c0-0.2,0.2-0.4,0.4-0.4h2.4c0.2,0,0.4,0.2,0.4,0.4l0,0
								C8.5,48.1,8.3,48.3,8.1,48.3z"/>
						</g>
					</g>
				</g>
				<g>
					<g>
						
							<image style="overflow:visible;" width="12" height="15" xlink:href="A54D6097.png"  transform="matrix(1 0 0 1 1.1744 30.5202)">
						</image>
						<rect x="1.2" y="30.4" class="st0" width="11.4" height="2.3"/>
						<rect x="2.4" y="38.9" class="st0" width="4.1" height="0.3"/>
						<rect x="2.4" y="39.5" class="st0" width="2.8" height="0.3"/>
						<g>
							<g>
								<rect x="4.5" y="33.6" class="st0" width="7.1" height="0.3"/>
								<rect x="4.5" y="34.1" class="st0" width="4.9" height="0.3"/>
								<rect x="2" y="33" class="st0" width="1.5" height="2.1"/>
							</g>
						</g>
						<rect x="2" y="36.8" class="st0" width="9.8" height="0.4"/>
						<rect x="2" y="36.1" class="st0" width="9.8" height="0.4"/>
						<rect x="2" y="35.5" class="st0" width="9.8" height="0.4"/>
						<rect x="2.1" y="42.4" class="st0" width="9.8" height="0.4"/>
						<rect x="2.1" y="43.3" class="st0" width="9.8" height="0.4"/>
						<rect x="2.1" y="44.2" class="st0" width="9.8" height="0.4"/>
						<rect x="2" y="37.5" class="st0" width="9.8" height="0.4"/>
						<g>
							<g>
								<path class="st0" d="M11.8,40.6H2v-2.3h9.8V40.6z M2.1,40.4h9.5v-2H2.1V40.4z"/>
							</g>
						</g>
						<rect x="2" y="41.1" class="st0" width="2" height="0.5"/>
						<rect x="4.6" y="41.2" class="st0" width="1.9" height="0.5"/>
						<rect x="7.1" y="41.2" class="st0" width="1.9" height="0.5"/>
						<rect x="9.8" y="41.2" class="st0" width="2" height="0.5"/>
					</g>
					<g>
						<rect x="10" y="38.6" class="st0" width="1.5" height="1.6"/>
						<path class="st0" d="M11.2,39c-0.1,0.1-0.1,0.2-0.2,0.3l-0.3,0.4c0,0,0,0,0,0c0,0-0.1-0.1-0.1-0.2c0-0.1-0.1-0.1-0.1-0.2
							c0-0.1-0.1-0.1-0.1-0.2c0,0.1,0,0.2,0,0.2c0,0.1,0,0.2,0.1,0.2c0,0.1,0.1,0.1,0.1,0.2c0,0.1,0.1,0.1,0.2,0.2
							c0.1,0.1,0.1,0.1,0.2,0l0,0c0.1-0.2,0.3-0.4,0.4-0.6c0-0.1,0.1-0.2,0.1-0.3c0-0.1,0.1-0.2,0.1-0.3
							C11.3,38.8,11.2,38.9,11.2,39z"/>
					</g>
					<g>
						<path class="st0" d="M2.9,32.2c-0.1,0-0.1,0-0.1,0c0,0-0.1,0-0.1-0.1c0,0,0-0.1-0.1-0.1c0,0,0-0.1,0-0.1c0,0,0-0.1,0-0.1v-0.3
							c0-0.1,0-0.1,0-0.1c0,0,0-0.1,0-0.1c0,0,0-0.1,0.1-0.1c0,0,0.1,0,0.1-0.1c0,0,0.1,0,0.1,0c0.1,0,0.1,0,0.2,0
							c0,0,0.1,0,0.1,0.1c0,0,0,0.1,0.1,0.1c0,0,0,0.1,0,0.1c0,0,0,0,0,0H3.1v0c0,0,0,0,0-0.1c0,0,0,0,0-0.1c0,0,0,0,0,0
							c0,0,0,0,0,0c0,0,0,0,0,0c0,0,0,0-0.1,0c0,0-0.1,0-0.1,0c0,0,0,0,0,0c0,0,0,0,0,0.1c0,0,0,0,0,0.1c0,0,0,0,0,0.1v0.4
							c0,0,0,0.1,0,0.1c0,0,0,0,0,0.1c0,0,0,0,0,0.1c0,0,0,0,0,0c0,0,0,0,0.1,0s0.1,0,0.1,0c0,0,0,0,0,0c0,0,0,0,0-0.1
							c0,0,0,0,0-0.1c0,0,0,0,0-0.1v0h0.2v0c0,0.1,0,0.1,0,0.2c0,0,0,0.1-0.1,0.1c0,0-0.1,0.1-0.1,0.1C3.1,32.2,3,32.2,2.9,32.2z"/>
						<path class="st0" d="M3.4,32.2v-1.2h0.2c0.1,0,0.2,0,0.3,0.1c0.1,0,0.1,0.1,0.1,0.2c0,0.1,0,0.1,0,0.2c0,0-0.1,0.1-0.1,0.1
							l0.2,0.6H3.9l-0.2-0.5H3.6v0.5H3.4z M3.6,31.6L3.6,31.6c0.1,0,0.2,0,0.2,0c0,0,0.1-0.1,0.1-0.1c0-0.1,0-0.1-0.1-0.1
							c0,0-0.1,0-0.2,0h0V31.6z"/>
						<path class="st0" d="M4.2,32.2v-1.2h0.5v0.1H4.4v0.4h0.2v0.1H4.4v0.4h0.3v0.1H4.2z"/>
						<path class="st0" d="M4.8,32.2v-1.2h0.3c0.1,0,0.2,0,0.3,0.1c0.1,0.1,0.1,0.1,0.1,0.3v0.5c0,0.1,0,0.2-0.1,0.3
							c-0.1,0.1-0.2,0.1-0.3,0.1H4.8z M5,32.1h0.1c0,0,0.1,0,0.1,0c0,0,0,0,0.1,0c0,0,0,0,0,0c0,0,0,0,0-0.1c0,0,0,0,0-0.1
							c0,0,0,0,0-0.1c0,0,0,0,0,0v-0.4c0,0,0,0,0-0.1c0,0,0,0,0,0c0,0,0,0,0,0c0,0,0,0,0,0c0,0,0,0,0,0c0,0,0,0,0,0c0,0,0,0,0,0
							c0,0,0,0,0,0c0,0,0,0-0.1,0H5V32.1z"/>
						<path class="st0" d="M5.6,32.2v-1.2h0.2v1.2H5.6z"/>
						<path class="st0" d="M6.2,32.2v-1H5.9v-0.1h0.6v0.1H6.3v1H6.2z"/>
						<path class="st0" d="M7,32.2v-1.2h0.2c0.1,0,0.2,0,0.3,0.1c0.1,0,0.1,0.1,0.1,0.2c0,0.1,0,0.1,0,0.2c0,0-0.1,0.1-0.1,0.1
							l0.2,0.6H7.5l-0.2-0.5H7.1v0.5H7z M7.1,31.6L7.1,31.6c0.1,0,0.2,0,0.2,0c0,0,0.1-0.1,0.1-0.1c0-0.1,0-0.1-0.1-0.1
							c0,0-0.1,0-0.2,0h0V31.6z"/>
						<path class="st0" d="M7.8,32.2v-1.2h0.5v0.1H7.9v0.4h0.2v0.1H7.9v0.4h0.3v0.1H7.8z"/>
						<path class="st0" d="M8.4,32.2v-1.2h0.3c0.2,0,0.3,0.1,0.3,0.3c0,0.1,0,0.2-0.1,0.2c-0.1,0.1-0.1,0.1-0.2,0.1H8.6v0.5H8.4z
							 M8.6,31.6L8.6,31.6c0.1,0,0.1,0,0.1,0c0,0,0,0,0.1,0c0,0,0,0,0-0.1c0,0,0-0.1,0-0.1c0,0,0-0.1,0-0.1c0,0,0,0,0-0.1
							c0,0,0,0-0.1,0c0,0-0.1,0-0.1,0h0V31.6z"/>
						<path class="st0" d="M9.5,32.2c-0.1,0-0.1,0-0.2,0c0,0-0.1,0-0.1-0.1c0,0,0-0.1-0.1-0.1c0,0,0-0.1,0-0.2v-0.4
							c0-0.1,0-0.1,0-0.2c0,0,0-0.1,0.1-0.1c0,0,0.1-0.1,0.1-0.1c0,0,0.1,0,0.2,0c0.1,0,0.2,0,0.3,0.1c0.1,0.1,0.1,0.2,0.1,0.3v0.4
							c0,0.1,0,0.1,0,0.2c0,0,0,0.1-0.1,0.1c0,0-0.1,0.1-0.1,0.1C9.6,32.2,9.5,32.2,9.5,32.2z M9.3,32.1c0,0,0.1,0.1,0.1,0.1
							c0.1,0,0.1,0,0.1-0.1c0,0,0-0.1,0-0.2v-0.5c0-0.1,0-0.1,0-0.2c0,0-0.1-0.1-0.1-0.1c-0.1,0-0.1,0-0.1,0.1c0,0,0,0.1,0,0.2v0.5
							C9.3,32,9.3,32,9.3,32.1z"/>
						<path class="st0" d="M10,32.2v-1.2h0.2c0.1,0,0.2,0,0.3,0.1c0.1,0,0.1,0.1,0.1,0.2c0,0.1,0,0.1,0,0.2c0,0-0.1,0.1-0.1,0.1
							l0.2,0.6h-0.2l-0.2-0.5h-0.1v0.5H10z M10.1,31.6L10.1,31.6c0.1,0,0.2,0,0.2,0c0,0,0.1-0.1,0.1-0.1c0-0.1,0-0.1-0.1-0.1
							c0,0-0.1,0-0.2,0h0V31.6z"/>
						<path class="st0" d="M10.9,32.2v-1h-0.2v-0.1h0.6v0.1h-0.2v1H10.9z"/>
					</g>
				</g>
			</g>
		</g>
		<g>
			<g>
				<path class="st0" d="M30.6,56c0-0.3-0.3-0.4-0.4-0.4c-0.5-0.2-1.4-0.5-1.7-0.6c-0.1,0.1-0.7,0.7-1.6,0.2c-0.2,0.6,0,1.1,0,1.1
					l0.6,0l0-0.3l0.7,0.3l1.9,0.1C30.5,56.4,30.6,56.2,30.6,56z"/>
				<path class="st0" d="M23.9,55.1L23.9,55.1c-0.4,0.1-1.1,0.4-1.5,0.6c-0.1,0-0.4,0.2-0.4,0.4c0,0.2,0.1,0.4,0.5,0.4l1.9-0.1
					L25,56l0,0.3l0.6,0c0,0,0.2-0.5-0.1-1.2C24.5,55.5,23.9,55.1,23.9,55.1z"/>
				<path class="st0" d="M23.9,55.1L23.9,55.1c-0.4,0.1-1.1,0.4-1.5,0.6c-0.1,0-0.4,0.2-0.4,0.4c0,0.2,0.1,0.4,0.5,0.4l1.9-0.1
					L25,56l0,0.3l0.6,0c0,0,0.2-0.5-0.1-1.2C24.5,55.5,23.9,55.1,23.9,55.1z"/>
				<path class="st0" d="M29.1,40.2L28.6,55c0,0-0.6,0.8-1.7,0.1l-0.7-12.2l-0.3-1.6C25.8,41.3,27.9,41.5,29.1,40.2z"/>
				<path class="st0" d="M22.4,40.8l1.5,14.3c0,0,0.6,0.5,1.7,0l0.6-12.1c0,0,0.6,0.2,0.6-1.6C26.7,41.3,25.3,41.6,22.4,40.8z"/>
				<path class="st0" d="M23.2,29.6l1.5-0.4l3,0l1.2,0.7c0,0,1,6,0.2,10.4c0,0-1.2,2.2-6.9,0.5C22.2,40.7,21.1,31.8,23.2,29.6z"/>
				<g>
					<g>
						<path class="st0" d="M23.2,29.6c-2.2,0.1-2.2,1.6-2.2,1.6c-0.4,5.3,0.2,6.1,0.3,6.3v-0.1c0-0.4,0.3-0.7,0.7-0.7
							c0.3,0,0.6,0.3,0.7,0.6c0,0.1,0.1,0.1,0.1,0.1C24,37.5,23.2,29.6,23.2,29.6z"/>
					</g>
				</g>
				<g>
					<path class="st0" d="M28.1,26.7c0,1.4-0.9,2.6-1.9,2.6c-1.1,0-1.9-1.1-1.9-2.6c0-1.5,0.9-2.6,1.9-2.6
						C27.3,24.1,28.1,25.3,28.1,26.7z"/>
					<path class="st0" d="M25.7,24.1c-0.1,0.1-0.2,0.2-0.3,0.3c0,0.2,0,0.4,0.2,0.7c0,0,0.3,0.3,0.1,0.6c0,0,0.3-0.2,0.4-0.4
						c0,0,0.1,0.2,0,0.4c0,0,0.3-0.2,0.4-0.5c0,0,0.2,0.3,0.2,0.5c0,0,0.5-0.5,0.4-1.4c0-0.1-0.1-0.2-0.1-0.2
						C26.7,24,26.2,23.8,25.7,24.1z"/>
					<path class="st0" d="M24.3,26.5c0,0,0-0.1-0.1-0.2c-0.1,0-0.2,0-0.2,0c-0.1,0.1-0.1,0.2,0,0.4C24,27,24,27.1,24,27.2
						c0,0.2,0.2,0.4,0.4,0.2C24.4,27.4,24.2,26.8,24.3,26.5z"/>
					<g>
						<path class="st0" d="M24.2,26.3c0.1,0.1,0.1,0.2,0.1,0.3c0-0.1-0.1-1,0.6-1.7c0,0-0.9,0.2-0.9,1.5
							C24,26.3,24.1,26.3,24.2,26.3z"/>
					</g>
					<g>
						<path class="st0" d="M28.2,26.3c-0.1,0.1-0.1,0.2-0.1,0.2c0,0.1,0,0.3,0,0.4c0,0,0,0.1,0,0.1c0-0.2,0.1-1-0.5-2.1
							c0,0,0.9,0.2,0.9,1.4C28.4,26.3,28.3,26.3,28.2,26.3z"/>
					</g>
					<path class="st0" d="M28.2,26.5l-0.1-0.2l-0.5,0.2c0-0.2-0.1-0.3-0.3-0.3h-0.6c-0.2,0-0.3,0.1-0.3,0.3c-0.2-0.1-0.4,0-0.6,0
						c0-0.2-0.1-0.3-0.3-0.3H25c-0.2,0-0.3,0.1-0.3,0.3l-0.4-0.1l0,0.2l0.4,0.1v0.2c0,0.2,0.1,0.3,0.3,0.3h0.6
						c0.2,0,0.3-0.1,0.3-0.3v-0.1c0.1,0,0.3-0.1,0.6,0v0.1c0,0.2,0.1,0.3,0.3,0.3h0.6c0.2,0,0.3-0.1,0.3-0.3v-0.1L28.2,26.5z
						 M25.7,26.8c0,0.1-0.1,0.1-0.1,0.1H25c-0.1,0-0.1-0.1-0.1-0.1v-0.3c0-0.1,0.1-0.1,0.1-0.1h0.6c0.1,0,0.1,0.1,0.1,0.1V26.8z
						 M27.5,26.8c0,0.1-0.1,0.1-0.1,0.1h-0.6c-0.1,0-0.1-0.1-0.1-0.1v-0.3c0-0.1,0.1-0.1,0.1-0.1h0.6c0.1,0,0.1,0.1,0.1,0.1V26.8z"
						/>
					<path class="st0" d="M28.1,26.3c0,0,0-0.1,0.1-0.2c0.1,0,0.2,0,0.2,0c0.1,0.1,0.1,0.2,0,0.4c-0.1,0.2-0.1,0.3-0.1,0.4
						c0,0.2-0.1,0.4-0.4,0.2C28,27.3,28.1,26.7,28.1,26.3z"/>
					<path class="st0" d="M24.6,28.2c0,0-0.5,1.2-0.5,1.6c0,0.4,0.1,1.3,1.6,1.6c0,0,2.3,0.3,2.4-1.4c0-0.2,0-0.3-0.1-0.5
						c-0.1-0.3-0.2-1-0.2-1.4c0,0-1.2,0.7-1.6-0.1C26.1,28,26.1,28.7,24.6,28.2z"/>
					<path class="st0" d="M26.3,27.6c-0.1-0.1-0.4,0.4-1,0.4c-0.2,0-0.3-0.1-0.5-0.2c0,0,0.4,1.1,1.5,0.4c0,0,0.6,0.7,1.3-0.3
						C27.6,27.9,26.9,28.1,26.3,27.6z"/>
				</g>
			</g>
			<path class="st0" d="M23.2,36.9C23.2,36.8,23.2,36.8,23.2,36.9c-0.1-0.4-0.4-0.7-0.7-0.8c-1.4-0.4-1.8,0.8-1.8,1.2
				c0,0,0,0.1,0,0.1v19.3c0,0.2,0.1,0.4,0.3,0.4h0c0.2,0,0.3-0.2,0.3-0.4V37.4c0.1-0.6,0.5-0.7,0.7-0.6c0.2,0.1,0.4,0.3,0.4,0.6
				v18.9c0,0.2,0.1,0.4,0.3,0.4c0.2,0,0.3-0.2,0.3-0.4V37C23.2,36.9,23.2,36.9,23.2,36.9z"/>
			<path class="st0" d="M22.1,39L22.1,39c-0.4,0-0.7-0.3-0.7-0.7v-0.9c0-0.4,0.3-0.7,0.7-0.7l0,0c0.4,0,0.7,0.3,0.7,0.7v0.9
				C22.8,38.7,22.5,39,22.1,39z"/>
			<path class="st0" d="M28.9,37c0.1-0.5,0.4-0.7,0.4-0.7c1.7-0.6,2,0.7,2,1.1c0,0,0,0.1,0,0.1v18.9c0,0.2-0.1,0.4-0.3,0.4h0
				c-0.2,0-0.3-0.2-0.3-0.4V37.5c-0.3-1-0.8-0.7-1.1-0.4V56c0,0.2-0.1,0.4-0.3,0.4c-0.2,0-0.3-0.2-0.3-0.4L28.9,37
				C28.9,37.1,28.9,37,28.9,37z"/>
			<g>
				<path class="st0" d="M29.9,39.2L29.9,39.2c0.4,0,0.7-0.3,0.7-0.7v-1c0-0.4-0.3-0.7-0.7-0.7h0c-0.4,0-0.7,0.3-0.7,0.7v1
					C29.2,38.9,29.6,39.2,29.9,39.2z"/>
				<path class="st0" d="M28.8,29.7c2.2,0.1,2.2,1.6,2.2,1.6c0.4,5.3-0.2,6.1-0.3,6.3v-0.1c0-0.4-0.3-0.7-0.7-0.7
					c-0.3,0-0.6,0.3-0.7,0.6c0,0.1-0.1,0.1-0.1,0.1C28,37.7,28.8,29.7,28.8,29.7z"/>
				<path class="st0" d="M28.9,36.5c0.1-0.1,0.2-0.1,0.3,0l0.3,0.4c-0.1,0.1-0.2,0.2-0.3,0.3c0,0,0,0,0,0l-0.4-0.4
					C28.9,36.7,28.9,36.6,28.9,36.5z"/>
			</g>
			<path class="st0" d="M30.5,40.8h-9.2c-0.2,0-0.4-0.2-0.4-0.4l0,0c0-0.2,0.2-0.4,0.4-0.4h9.2c0.2,0,0.4,0.2,0.4,0.4v0
				C30.9,40.6,30.8,40.8,30.5,40.8z"/>
			<path class="st0" d="M30.6,49.4h-9.2c-0.2,0-0.4-0.2-0.4-0.4v0c0-0.2,0.2-0.4,0.4-0.4h9.2c0.2,0,0.4,0.2,0.4,0.4v0
				C31,49.2,30.8,49.4,30.6,49.4z"/>
			<path class="st0" d="M30.8,53.3h-9.2c-0.2,0-0.4-0.2-0.4-0.4v0c0-0.2,0.2-0.4,0.4-0.4h9.2c0.2,0,0.4,0.2,0.4,0.4l0,0
				C31.2,53.1,31,53.3,30.8,53.3z"/>
			<path class="st0" d="M41.9,28.8v-1c0-0.9-0.7-1.7-1.6-1.7h0c-0.9,0-1.6,0.8-1.6,1.7v1c0,0.7,0.4,1.4,1,1.6l-0.4,0.7
				c0.2,0.3,0.5,0.6,0.9,0.6c0.5,0.1,0.9-0.2,1.2-0.6l0,0L41,30.3C41.5,30,41.9,29.4,41.9,28.8z"/>
			<path class="st0" d="M38.8,27.7c0,0,0.9,0.5,1.8,0.2l0.2-0.6L41,28c0,0,0.4,0.1,0.9-0.1c0,0,0.2,1.5-0.3,2c0,0,0.8,0.4,1.4-0.1
				c0,0-0.3-0.8-0.3-1.9c0-0.5-0.1-0.9-0.2-1.4c-0.2-0.6-0.7-1.1-1.9-1.1c0,0-2.2-0.2-2.3,2.5c0,0-0.1,1.5-0.3,1.9
				c0,0,0.6,0.8,1.3,0.2C39.1,29.8,38.6,29.3,38.8,27.7z"/>
			<path class="st0" d="M41.9,28.5l0-0.1l-0.3,0.1c0-0.2-0.2-0.3-0.4-0.3h-0.2c-0.2,0-0.3,0.1-0.4,0.3c-0.2,0-0.4,0-0.5,0
				c0-0.2-0.2-0.3-0.4-0.3h-0.2c-0.2,0-0.3,0.1-0.4,0.3l-0.4-0.1l0,0.1l0.4,0.1c0,0.2,0.2,0.3,0.4,0.3h0.2c0.2,0,0.4-0.2,0.4-0.4
				c0.1,0,0.3-0.1,0.5,0c0,0.2,0.2,0.4,0.4,0.4h0.2c0.2,0,0.4-0.2,0.4-0.4L41.9,28.5z M39.7,28.8h-0.2c-0.1,0-0.3-0.1-0.3-0.3
				c0-0.1,0.1-0.3,0.3-0.3h0.2c0.1,0,0.3,0.1,0.3,0.3C39.9,28.7,39.8,28.8,39.7,28.8z M41.1,28.8h-0.2c-0.1,0-0.3-0.1-0.3-0.3
				c0-0.1,0.1-0.3,0.3-0.3h0.2c0.1,0,0.3,0.1,0.3,0.3C41.4,28.7,41.3,28.8,41.1,28.8z"/>
			<path class="st0" d="M45.6,42.9l0.3,14.1l0.5,0l-0.2-13.5c0-0.5,0.2-1,0.7-1.1c0.1,0,0.1,0,0.2,0c0.4,0,0.7,0.3,0.9,0.7
				c0,0.2,0,0.4,0,0.6c0,0.1,0,0.2,0.1,0.3c0.1,0.1,0.1,0.1,0.3,0c0.1-0.1,0.1-0.2,0.1-0.3c0-0.1,0-0.3,0-0.5c0-0.8-0.6-1.1-0.8-1.2
				c-0.1-0.1-0.5-0.2-0.9-0.1c-0.5,0.1-0.8,0.3-1,0.5C45.7,42.4,45.6,42.7,45.6,42.9z"/>
			<path class="st0" d="M45.3,41.8l-0.2,0.5c0,0.1,0,0.2,0,0.3l0.2,0.7c0,0,0.4,0.2,0.4-0.3l0-0.5c0,0,0.4-0.5,0.6,0l0.3,0.5
				c0,0,0.2,0.6,0.7,0.5l0.1,0l0,0c0.3,0,0.5-0.4,0.5-0.7l-0.1-0.4c0-0.2-0.1-0.3-0.3-0.4l-0.8-0.5C46.7,41.3,45.9,41.9,45.3,41.8z"
				/>
			<rect x="45.6" y="55.7" class="st0" width="0.9" height="1.5"/>
			<polygon class="st0" points="39.4,55 39,55.6 40.4,55.6 40.3,55 			"/>
			<path class="st0" d="M39,55.6l-0.9,0.6c0,0-0.9,0.1-1,0.5c0,0,0,0.1,0.1,0.1l2.6-0.1l0.3-0.3l0.1,0.3l0.5,0c0,0,0.1-0.5-0.1-1
				L39,55.6z"/>
			<path class="st0" d="M41.6,55v0.5c0.2,0.3,0.5,0.4,0.7,0.3c0.2-0.1,0.3-0.3,0.3-0.3c0,0-0.1-0.1-0.2-0.3c0-0.1,0-0.2,0-0.3
				C42.2,55,41.9,55,41.6,55z"/>
			<polygon class="st0" points="40.5,41.6 36.3,41.8 39.2,55 40.8,55 40.6,42.9 41.2,55 42.7,55 44.3,41.5 40.5,41.6 			"/>
			<path class="st0" d="M41.6,55.5c0,0-0.3,0.4-0.2,1.1c0,0,0.1,0.1,0.2,0.1c0.1,0,0.2,0,0.2,0c0.1,0.1,0.3,0.2,0.4,0.4
				c0.2,0.2,0.5,0.4,0.7,0.5c0.3,0.2,0.8,0.3,1,0c0.1-0.2,0-0.5-0.2-0.7c-0.3-0.4-0.8-0.9-1.1-1.4C42.7,55.5,42.3,56.1,41.6,55.5z"
				/>
			<path class="st0" d="M40.4,31.7c0,0-0.1,0-0.1,0c-0.4-0.1-0.7-0.3-0.9-0.6l0,0l-2.2,0.7l0,0c0.3,0.6,0.8,1.9,0.4,3.1l-1.2,6.8
				l0,0l4.2-0.1L40.4,31.7z"/>
			<path class="st0" d="M37.1,31.9l-2.8,3.2l-4,0.3c0,0,0.3,0.7,0.3,1.5l4.7-0.1l2.3-2l0,0.1C37.9,33.8,37.4,32.4,37.1,31.9z"/>
			<path class="st0" d="M43.3,31.6l-1.8-0.6c-0.3,0.4-0.7,0.6-1.1,0.6l0.1,9.9l3.8-0.1l0-0.1l-1.6-6.8c0,0.2,0.1,0.4,0.1,0.4
				s0-0.1-0.1-0.4l0-0.1l0,0C42.6,33.9,42.5,32.5,43.3,31.6z"/>
			<path class="st0" d="M43.4,31.7L43.4,31.7c-0.9,0.9-0.9,2.6-0.6,3.2l2.4,7c0,0,1,0.3,1.6-0.7L43.4,31.7z"/>
			<path class="st0" d="M30.4,35.6c0,0-1.5-0.3-1.9,1.2c0,0-0.1,0.9,0.8,0.6c0,0,0.3-0.9,1.3-0.5L30.4,35.6z"/>
			<path class="st0" d="M22.9,37.2L22.9,37.2c-0.1-0.1,0-0.3,0.1-0.3l0.2-0.1c0.1-0.1,0.2,0,0.3,0.1v0c0.1,0.1,0,0.3-0.1,0.3
				l-0.2,0.1C23.1,37.3,23,37.3,22.9,37.2z"/>
		</g>
	</g>
	<g>
		<g>
			<path class="st0" d="M50.8,14.8c1.1-1.3,1-3.3-0.2-4.5c-1.2-1.2-3.1-1.1-4.2,0.2c-0.7,0.8-0.9,1.8-0.7,2.8c0.1,0.6,0,1.2-0.4,1.6
				l0,0l1.5,1.5l0,0c0.4-0.4,0.9-0.6,1.4-0.6C49.1,16,50.1,15.6,50.8,14.8z"/>
			<g>
				<g>
					<polygon class="st0" points="45.9,15.8 47.7,11.8 47.8,11.9 46.1,15.4 49.3,13.4 49.4,13.5 					"/>
				</g>
				<g>
					<polygon class="st0" points="46,15.7 46,15.6 48.5,12.6 48.6,12.7 					"/>
				</g>
			</g>
			<g>
				<path class="st0" d="M47.9,12c-0.1,0.1-0.2,0.1-0.3,0c-0.1-0.1-0.1-0.3,0-0.4s0.2-0.1,0.3,0C48,11.7,48,11.9,47.9,12z"/>
				<ellipse class="st0" cx="48.5" cy="12.6" rx="0.2" ry="0.3"/>
				<path class="st0" d="M49.5,13.6c-0.1,0.1-0.2,0.1-0.3,0c-0.1-0.1-0.1-0.3,0-0.4c0.1-0.1,0.2-0.1,0.3,0
					C49.6,13.3,49.6,13.5,49.5,13.6z"/>
			</g>
			<g>
				<path class="st0" d="M44.3,16.1c-0.2,0.4-0.1,0.9,0.3,1.3c0.4,0.4,0.9,0.4,1.2,0.2L44.3,16.1z"/>
				<path class="st0" d="M45.8,17.6l-1.5-1.5c-0.1-0.1-0.1-0.2,0-0.2l0,0c0.1-0.1,0.1-0.1,0.2,0l1.5,1.5c0.1,0.1,0.1,0.2,0,0.2l0,0
					C46,17.7,45.9,17.7,45.8,17.6z"/>
				<path class="st0" d="M46.2,17.1l-1.5-1.5c-0.1-0.1-0.1-0.2,0-0.2l0,0c0.1-0.1,0.1-0.1,0.2,0l1.5,1.5c0.1,0.1,0.1,0.2,0,0.2l0,0
					C46.4,17.2,46.3,17.2,46.2,17.1z"/>
				<path class="st0" d="M46.6,16.7l-1.5-1.5c-0.1-0.1-0.1-0.2,0-0.2l0,0c0.1-0.1,0.1-0.1,0.2,0l1.5,1.5c0.1,0.1,0.1,0.2,0,0.2l0,0
					C46.8,16.7,46.7,16.7,46.6,16.7z"/>
				<polygon class="st0" points="46,17.4 44.5,15.9 44.7,15.6 46.2,17.2 				"/>
				<polygon class="st0" points="46.4,16.9 44.9,15.4 45.1,15.1 46.6,16.7 				"/>
			</g>
		</g>
		<g>
			<g>
				<g>
					<polygon class="st0" points="45.6,10.4 44.2,9.2 44.4,9 45.7,10.2 					"/>
				</g>
				<g>
					<polygon class="st0" points="46.7,9.3 45.9,7.6 46.1,7.5 46.9,9.2 					"/>
				</g>
				<g>
					<polygon class="st0" points="48.1,8.7 48.1,6.9 48.3,6.9 48.3,8.7 					"/>
				</g>
				<g>
					<polygon class="st0" points="49.8,9 49.6,8.9 50.3,7.2 50.5,7.3 					"/>
				</g>
				<g>
					<polygon class="st0" points="51.1,9.9 50.9,9.7 52.2,8.5 52.4,8.7 					"/>
				</g>
				<g>
					<polygon class="st0" points="51.9,11.3 51.8,11 53.5,10.5 53.5,10.7 					"/>
				</g>
				<g>
					<polygon class="st0" points="52.1,12.9 52.1,12.7 53.8,12.9 53.8,13.1 					"/>
				</g>
				<g>
					<polygon class="st0" points="53.1,15.4 51.7,14.5 51.8,14.3 53.2,15.2 					"/>
				</g>
				<g>
					<polygon class="st0" points="51.6,17.2 50.7,15.7 50.8,15.6 51.8,17.1 					"/>
				</g>
			</g>
		</g>
	</g>
	<g>
		<g>
			<rect x="5.8" y="19" class="st0" width="3.6" height="3"/>
			<g>
				<g>
					<g>
						
							<rect x="5.7" y="21.4" transform="matrix(-1 -1.224647e-16 1.224647e-16 -1 15.1358 43.3974)" class="st0" width="3.6" height="0.7"/>
						
							<rect x="8.1" y="21.4" transform="matrix(-1 -1.224647e-16 1.224647e-16 -1 17.537 43.3974)" class="st0" width="1.2" height="0.7"/>
						
							<rect x="6.9" y="21.4" transform="matrix(-1 -1.224647e-16 1.224647e-16 -1 15.0796 43.3772)" class="st0" width="1.2" height="0.7"/>
					</g>
					<g>
						
							<rect x="5.7" y="20.6" transform="matrix(-1 -1.224647e-16 1.224647e-16 -1 15.1358 41.8407)" class="st0" width="3.6" height="0.7"/>
						
							<rect x="8.1" y="20.6" transform="matrix(-1 -1.224647e-16 1.224647e-16 -1 17.537 41.8407)" class="st0" width="1.2" height="0.7"/>
						
							<rect x="6.9" y="20.6" transform="matrix(-1 -1.224647e-16 1.224647e-16 -1 15.0796 41.8412)" class="st0" width="1.2" height="0.7"/>
					</g>
					<g>
						
							<rect x="5.7" y="19.8" transform="matrix(-1 -1.224647e-16 1.224647e-16 -1 15.1358 40.2596)" class="st0" width="3.6" height="0.7"/>
						
							<rect x="8.1" y="19.8" transform="matrix(-1 -1.224647e-16 1.224647e-16 -1 17.537 40.2596)" class="st0" width="1.2" height="0.7"/>
						
							<rect x="6.9" y="19.8" transform="matrix(-1 -1.224647e-16 1.224647e-16 -1 15.1358 40.2663)" class="st0" width="1.2" height="0.7"/>
					</g>
				</g>
				<g>
					<g>
						
							<rect x="5.8" y="19" transform="matrix(-1 -1.224647e-16 1.224647e-16 -1 15.1896 38.6766)" class="st0" width="3.6" height="0.7"/>
						
							<rect x="8.2" y="19" transform="matrix(-1 -1.224647e-16 1.224647e-16 -1 17.5908 38.6766)" class="st0" width="1.2" height="0.7"/>
						
							<rect x="6.9" y="19" transform="matrix(-1 -1.224647e-16 1.224647e-16 -1 15.1334 38.6563)" class="st0" width="1.2" height="0.7"/>
					</g>
				</g>
			</g>
			<rect x="10.1" y="15.3" class="st0" width="3.7" height="6.7"/>
			<g>
				<g>
					<g>
						
							<rect x="10.1" y="21.4" transform="matrix(-1 -1.224647e-16 1.224647e-16 -1 23.8781 43.3917)" class="st0" width="3.7" height="0.6"/>
						
							<rect x="12.5" y="21.4" transform="matrix(-1 -1.224647e-16 1.224647e-16 -1 26.3436 43.3917)" class="st0" width="1.3" height="0.6"/>
						
							<rect x="11.3" y="21.4" transform="matrix(-1 -1.224647e-16 1.224647e-16 -1 23.8204 43.372)" class="st0" width="1.3" height="0.6"/>
					</g>
					<g>
						
							<rect x="10.1" y="20.6" transform="matrix(-1 -1.224647e-16 1.224647e-16 -1 23.8781 41.8765)" class="st0" width="3.7" height="0.6"/>
						
							<rect x="12.5" y="20.6" transform="matrix(-1 -1.224647e-16 1.224647e-16 -1 26.3436 41.8765)" class="st0" width="1.3" height="0.6"/>
						
							<rect x="11.3" y="20.6" transform="matrix(-1 -1.224647e-16 1.224647e-16 -1 23.8204 41.877)" class="st0" width="1.3" height="0.7"/>
					</g>
					<g>
						
							<rect x="10.1" y="19.8" transform="matrix(-1 -1.224647e-16 1.224647e-16 -1 23.8781 40.3376)" class="st0" width="3.7" height="0.6"/>
						
							<rect x="12.5" y="19.8" transform="matrix(-1 -1.224647e-16 1.224647e-16 -1 26.3436 40.3376)" class="st0" width="1.3" height="0.6"/>
						
							<rect x="11.3" y="19.8" transform="matrix(-1 -1.224647e-16 1.224647e-16 -1 23.8781 40.344)" class="st0" width="1.3" height="0.6"/>
					</g>
				</g>
				<g>
					<g>
						
							<rect x="10.1" y="19.1" transform="matrix(-1 -1.224647e-16 1.224647e-16 -1 23.9334 38.7968)" class="st0" width="3.7" height="0.6"/>
						
							<rect x="12.6" y="19.1" transform="matrix(-1 -1.224647e-16 1.224647e-16 -1 26.3989 38.7968)" class="st0" width="1.3" height="0.6"/>
						
							<rect x="11.3" y="19.1" transform="matrix(-1 -1.224647e-16 1.224647e-16 -1 23.8756 38.7771)" class="st0" width="1.3" height="0.6"/>
					</g>
					<g>
						
							<rect x="10.1" y="18.3" transform="matrix(-1 -1.224647e-16 1.224647e-16 -1 23.9334 37.2816)" class="st0" width="3.7" height="0.6"/>
						
							<rect x="12.6" y="18.3" transform="matrix(-1 -1.224647e-16 1.224647e-16 -1 26.3989 37.2816)" class="st0" width="1.3" height="0.6"/>
						
							<rect x="11.3" y="18.3" transform="matrix(-1 -1.224647e-16 1.224647e-16 -1 23.8756 37.2821)" class="st0" width="1.3" height="0.7"/>
					</g>
					<g>
						
							<rect x="10.1" y="17.6" transform="matrix(-1 -1.224647e-16 1.224647e-16 -1 23.9334 35.7427)" class="st0" width="3.7" height="0.6"/>
						
							<rect x="12.6" y="17.6" transform="matrix(-1 -1.224647e-16 1.224647e-16 -1 26.3989 35.7427)" class="st0" width="1.3" height="0.6"/>
						
							<rect x="11.3" y="17.6" transform="matrix(-1 -1.224647e-16 1.224647e-16 -1 23.9334 35.7492)" class="st0" width="1.3" height="0.6"/>
					</g>
				</g>
				<g>
					<g>
						
							<rect x="10.1" y="16.8" transform="matrix(-1 -1.224647e-16 1.224647e-16 -1 23.9058 34.1673)" class="st0" width="3.7" height="0.6"/>
						
							<rect x="12.5" y="16.8" transform="matrix(-1 -1.224647e-16 1.224647e-16 -1 26.3713 34.1673)" class="st0" width="1.3" height="0.6"/>
						
							<rect x="11.3" y="16.8" transform="matrix(-1 -1.224647e-16 1.224647e-16 -1 23.848 34.1476)" class="st0" width="1.3" height="0.6"/>
					</g>
					<g>
						
							<rect x="10.1" y="16" transform="matrix(-1 -1.224647e-16 1.224647e-16 -1 23.9058 32.6522)" class="st0" width="3.7" height="0.6"/>
						
							<rect x="12.5" y="16" transform="matrix(-1 -1.224647e-16 1.224647e-16 -1 26.3713 32.6522)" class="st0" width="1.3" height="0.6"/>
						
							<rect x="11.3" y="16" transform="matrix(-1 -1.224647e-16 1.224647e-16 -1 23.848 32.6526)" class="st0" width="1.3" height="0.7"/>
					</g>
					<g>
						
							<rect x="10.1" y="15.2" transform="matrix(-1 -1.224647e-16 1.224647e-16 -1 23.9058 31.1132)" class="st0" width="3.7" height="0.6"/>
						
							<rect x="12.5" y="15.2" transform="matrix(-1 -1.224647e-16 1.224647e-16 -1 26.3713 31.1132)" class="st0" width="1.3" height="0.6"/>
						
							<rect x="11.3" y="15.2" transform="matrix(-1 -1.224647e-16 1.224647e-16 -1 23.9058 31.1197)" class="st0" width="1.3" height="0.6"/>
					</g>
				</g>
			</g>
			<g>
				<g>
					<g id="XMLID_9_">
						<g>
							<polygon class="st0" points="14.6,17.5 18.3,17.5 18.3,18.2 17.1,18.2 17.1,18.2 15.8,18.2 15.8,18.2 14.6,18.2 							"/>
							<polygon class="st0" points="14.6,15.2 18.3,15.2 18.3,15.9 17.1,15.9 17.1,15.9 15.8,15.9 15.8,15.9 14.6,15.9 							"/>
							<polygon class="st0" points="14.6,19.8 18.3,19.8 18.3,20.5 17.1,20.5 17.1,20.5 15.8,20.5 15.8,20.5 14.6,20.5 							"/>
							<polygon class="st0" points="14.6,12.9 18.3,12.9 18.3,13.5 17.1,13.5 17.1,13.5 15.8,13.5 15.8,13.5 14.6,13.5 							"/>
							<polygon class="st0" points="18.3,19.7 14.6,19.7 14.6,19.1 15.8,19.1 15.8,19 17.1,19 17.1,19.1 18.3,19.1 							"/>
							<polygon class="st0" points="18.3,18.9 17.1,18.9 17.1,19 15.8,19 15.8,18.9 14.6,18.9 14.6,18.3 15.8,18.3 15.8,18.3 
								17.1,18.3 17.1,18.3 18.3,18.3 							"/>
							<polygon class="st0" points="18.3,12.7 14.6,12.7 14.6,12.1 15.8,12.1 15.8,12.1 17.1,12.1 17.1,12.1 18.3,12.1 							"/>
							<polygon class="st0" points="18.3,17.4 14.6,17.4 14.6,16.7 15.8,16.7 15.8,16.7 17.1,16.7 17.1,16.7 18.3,16.7 							"/>
							<polygon class="st0" points="18.3,16.6 17.1,16.6 17.1,16.6 15.8,16.6 15.8,16.6 14.6,16.6 14.6,16 15.8,16 15.8,16 17.1,16 
								17.1,16 18.3,16 							"/>
							<polygon class="st0" points="18.3,22 14.6,22 14.6,21.4 15.8,21.4 15.8,21.3 17,21.3 17,21.4 18.3,21.4 							"/>
							<polygon class="st0" points="18.3,21.2 17,21.2 17,21.2 15.8,21.2 15.8,21.2 14.6,21.2 14.6,20.6 15.8,20.6 15.8,20.6 
								17,20.6 17,20.6 18.3,20.6 							"/>
							<polygon class="st0" points="18.3,15.1 14.6,15.1 14.6,14.4 15.8,14.4 15.8,14.4 17,14.4 17,14.4 18.3,14.4 							"/>
							<polygon class="st0" points="18.3,14.3 17,14.3 17,14.3 15.8,14.3 15.8,14.3 14.6,14.3 14.6,13.6 15.8,13.6 15.8,13.6 
								17,13.6 17,13.6 18.3,13.6 							"/>
						</g>
					</g>
				</g>
			</g>
			<rect x="14.6" y="12.1" class="st0" width="3.7" height="9.9"/>
			<g>
				<g>
					<g>
						<g>
							
								<rect x="14.6" y="14.4" transform="matrix(-1 -1.224647e-16 1.224647e-16 -1 32.8723 29.5035)" class="st0" width="3.7" height="0.7"/>
							
								<rect x="17" y="14.4" transform="matrix(-1 -1.224647e-16 1.224647e-16 -1 35.3378 29.5035)" class="st0" width="1.3" height="0.7"/>
							
								<rect x="15.8" y="14.4" transform="matrix(-1 -1.224647e-16 1.224647e-16 -1 32.8145 29.4832)" class="st0" width="1.3" height="0.7"/>
						</g>
						<g>
							
								<rect x="14.6" y="13.6" transform="matrix(-1 -1.224647e-16 1.224647e-16 -1 32.8723 27.9468)" class="st0" width="3.7" height="0.7"/>
							
								<rect x="17" y="13.6" transform="matrix(-1 -1.224647e-16 1.224647e-16 -1 35.3378 27.9468)" class="st0" width="1.3" height="0.7"/>
							
								<rect x="15.8" y="13.6" transform="matrix(-1 -1.224647e-16 1.224647e-16 -1 32.8145 27.9472)" class="st0" width="1.3" height="0.7"/>
						</g>
						<g>
							
								<rect x="14.6" y="12.9" transform="matrix(-1 -1.224647e-16 1.224647e-16 -1 32.8723 26.3656)" class="st0" width="3.7" height="0.7"/>
							
								<rect x="17" y="12.9" transform="matrix(-1 -1.224647e-16 1.224647e-16 -1 35.3378 26.3656)" class="st0" width="1.3" height="0.7"/>
							
								<rect x="15.8" y="12.9" transform="matrix(-1 -1.224647e-16 1.224647e-16 -1 32.8723 26.3723)" class="st0" width="1.3" height="0.7"/>
						</g>
					</g>
					<g>
						<g>
							
								<rect x="14.6" y="12.1" transform="matrix(-1 -1.224647e-16 1.224647e-16 -1 32.9275 24.7826)" class="st0" width="3.7" height="0.7"/>
							
								<rect x="17.1" y="12.1" transform="matrix(-1 -1.224647e-16 1.224647e-16 -1 35.393 24.7826)" class="st0" width="1.3" height="0.7"/>
							
								<rect x="15.8" y="12.1" transform="matrix(-1 -1.224647e-16 1.224647e-16 -1 32.8697 24.7624)" class="st0" width="1.3" height="0.7"/>
						</g>
					</g>
				</g>
				<g>
					<g>
						<g>
							
								<rect x="14.6" y="21.4" transform="matrix(-1 -1.224647e-16 1.224647e-16 -1 32.8723 43.3473)" class="st0" width="3.7" height="0.6"/>
							
								<rect x="17" y="21.4" transform="matrix(-1 -1.224647e-16 1.224647e-16 -1 35.3378 43.3473)" class="st0" width="1.3" height="0.6"/>
							
								<rect x="15.8" y="21.3" transform="matrix(-1 -1.224647e-16 1.224647e-16 -1 32.8145 43.3277)" class="st0" width="1.3" height="0.6"/>
						</g>
						<g>
							
								<rect x="14.6" y="20.6" transform="matrix(-1 -1.224647e-16 1.224647e-16 -1 32.8723 41.8322)" class="st0" width="3.7" height="0.6"/>
							
								<rect x="17" y="20.6" transform="matrix(-1 -1.224647e-16 1.224647e-16 -1 35.3378 41.8322)" class="st0" width="1.3" height="0.6"/>
							
								<rect x="15.8" y="20.6" transform="matrix(-1 -1.224647e-16 1.224647e-16 -1 32.8145 41.8327)" class="st0" width="1.3" height="0.7"/>
						</g>
						<g>
							
								<rect x="14.6" y="19.8" transform="matrix(-1 -1.224647e-16 1.224647e-16 -1 32.8723 40.2933)" class="st0" width="3.7" height="0.6"/>
							
								<rect x="17" y="19.8" transform="matrix(-1 -1.224647e-16 1.224647e-16 -1 35.3378 40.2933)" class="st0" width="1.3" height="0.6"/>
							
								<rect x="15.8" y="19.8" transform="matrix(-1 -1.224647e-16 1.224647e-16 -1 32.8723 40.2997)" class="st0" width="1.3" height="0.6"/>
						</g>
					</g>
					<g>
						<g>
							
								<rect x="14.6" y="19.1" transform="matrix(-1 -1.224647e-16 1.224647e-16 -1 32.9275 38.7525)" class="st0" width="3.7" height="0.6"/>
							
								<rect x="17.1" y="19.1" transform="matrix(-1 -1.224647e-16 1.224647e-16 -1 35.393 38.7525)" class="st0" width="1.3" height="0.6"/>
							
								<rect x="15.8" y="19" transform="matrix(-1 -1.224647e-16 1.224647e-16 -1 32.8697 38.7328)" class="st0" width="1.3" height="0.6"/>
						</g>
						<g>
							
								<rect x="14.6" y="18.3" transform="matrix(-1 -1.224647e-16 1.224647e-16 -1 32.9275 37.2373)" class="st0" width="3.7" height="0.6"/>
							
								<rect x="17.1" y="18.3" transform="matrix(-1 -1.224647e-16 1.224647e-16 -1 35.393 37.2373)" class="st0" width="1.3" height="0.6"/>
							
								<rect x="15.8" y="18.3" transform="matrix(-1 -1.224647e-16 1.224647e-16 -1 32.8697 37.2378)" class="st0" width="1.3" height="0.7"/>
						</g>
						<g>
							
								<rect x="14.6" y="17.5" transform="matrix(-1 -1.224647e-16 1.224647e-16 -1 32.9275 35.6984)" class="st0" width="3.7" height="0.6"/>
							
								<rect x="17.1" y="17.5" transform="matrix(-1 -1.224647e-16 1.224647e-16 -1 35.393 35.6984)" class="st0" width="1.3" height="0.6"/>
							
								<rect x="15.8" y="17.5" transform="matrix(-1 -1.224647e-16 1.224647e-16 -1 32.9275 35.7049)" class="st0" width="1.3" height="0.6"/>
						</g>
					</g>
					<g>
						<g>
							
								<rect x="14.6" y="16.7" transform="matrix(-1 -1.224647e-16 1.224647e-16 -1 32.8999 34.123)" class="st0" width="3.7" height="0.6"/>
							
								<rect x="17" y="16.7" transform="matrix(-1 -1.224647e-16 1.224647e-16 -1 35.3654 34.123)" class="st0" width="1.3" height="0.6"/>
							
								<rect x="15.8" y="16.7" transform="matrix(-1 -1.224647e-16 1.224647e-16 -1 32.8421 34.1033)" class="st0" width="1.3" height="0.6"/>
						</g>
						<g>
							
								<rect x="14.6" y="16" transform="matrix(-1 -1.224647e-16 1.224647e-16 -1 32.8999 32.6079)" class="st0" width="3.7" height="0.6"/>
							
								<rect x="17" y="16" transform="matrix(-1 -1.224647e-16 1.224647e-16 -1 35.3654 32.6079)" class="st0" width="1.3" height="0.6"/>
							
								<rect x="15.8" y="16" transform="matrix(-1 -1.224647e-16 1.224647e-16 -1 32.8421 32.6083)" class="st0" width="1.3" height="0.7"/>
						</g>
						<g>
							
								<rect x="14.6" y="15.2" transform="matrix(-1 -1.224647e-16 1.224647e-16 -1 32.8999 31.0689)" class="st0" width="3.7" height="0.6"/>
							
								<rect x="17" y="15.2" transform="matrix(-1 -1.224647e-16 1.224647e-16 -1 35.3654 31.0689)" class="st0" width="1.3" height="0.6"/>
							
								<rect x="15.8" y="15.2" transform="matrix(-1 -1.224647e-16 1.224647e-16 -1 32.8999 31.0754)" class="st0" width="1.3" height="0.6"/>
						</g>
					</g>
				</g>
			</g>
		</g>
		<path class="st0" d="M16.4,8.6c-0.5,0-0.8,0.4-0.8,0.9c0,0.1,0,0.2,0,0.3l-3,2.3c-0.2-0.2-0.4-0.3-0.6-0.3c-0.5,0-0.8,0.4-0.8,0.9
			c0,0.1,0,0.3,0.1,0.4L8,15.4c-0.2-0.2-0.4-0.3-0.6-0.3c-0.4,0-0.8,0.3-0.8,0.8l-2.2,0l0,0.3l2.2,0c0.1,0.4,0.4,0.7,0.8,0.7
			c0.5,0,0.8-0.4,0.8-0.9c0-0.1,0-0.3-0.1-0.4l3.2-2.3c0.2,0.2,0.4,0.3,0.6,0.3c0.5,0,0.8-0.4,0.8-0.9c0-0.1,0-0.3-0.1-0.4l3-2.3
			c0.2,0.2,0.4,0.4,0.7,0.4c0.5,0,0.8-0.4,0.8-0.9C17.2,9,16.9,8.6,16.4,8.6z"/>
	</g>
</g>
</svg>
