<?xml version="1.0" encoding="utf-8"?>
<!-- Generator: Adobe Illustrator 25.2.1, SVG Export Plug-In . SVG Version: 6.00 Build 0)  -->
<svg version="1.1" id="bold" xmlns="http://www.w3.org/2000/svg" xmlns:xlink="http://www.w3.org/1999/xlink" x="0px" y="0px"
	 viewBox="0 0 68.5 68.5" style="enable-background:new 0 0 68.5 68.5;" xml:space="preserve">
<style type="text/css">
	.st0{fill:#FC573B;}
	.st1{fill:#FD907E;}
	.st2{fill:#FFAC96;}
	.st3{fill:#FFBCAB;}
	.st4{fill:#006DF0;}
	.st5{fill:#D80027;}
	.st6{fill:#BD0022;}
	.st7{fill:#F1F2F2;}
	.st8{fill:#858585;}
	.st9{fill:#57A5FF;}
	.st10{fill:#4481C7;}
	.st11{fill:#FFD45A;}
	.st12{fill:#FFFFFF;}
	.st13{fill:#D64528;}
	.st14{fill:#FF914D;}
	.st15{fill:#3449A3;}
	.st16{fill:#2E872B;}
	.st17{fill:#D97B41;}
	.st18{fill:#226320;}
	.st19{fill:#2A3B85;}
	.st20{fill:#B53A22;}
	.st21{fill:url(#SVGID_1_);}
	.st22{fill:url(#SVGID_2_);}
	.st23{fill:url(#SVGID_3_);}
	.st24{fill:url(#SVGID_4_);}
	.st25{fill:url(#SVGID_5_);}
	.st26{opacity:0.5;fill:url(#SVGID_6_);enable-background:new    ;}
	.st27{fill:url(#SVGID_7_);}
	.st28{opacity:0.5;fill:url(#SVGID_8_);enable-background:new    ;}
	.st29{fill:url(#SVGID_9_);}
	.st30{fill:url(#SVGID_10_);}
	.st31{opacity:0.6;fill:url(#SVGID_11_);enable-background:new    ;}
	.st32{fill:url(#SVGID_12_);}
	.st33{fill:url(#SVGID_13_);}
	.st34{fill:url(#SVGID_14_);}
	.st35{fill:url(#SVGID_15_);}
	.st36{fill:url(#SVGID_16_);}
	.st37{opacity:0.5;fill:url(#SVGID_17_);enable-background:new    ;}
	.st38{fill:url(#SVGID_18_);}
	.st39{opacity:0.6;fill:url(#SVGID_19_);enable-background:new    ;}
	.st40{fill:url(#SVGID_20_);}
	.st41{fill:url(#SVGID_21_);}
	.st42{fill:url(#SVGID_22_);}
	.st43{opacity:0.3;fill:url(#SVGID_23_);enable-background:new    ;}
	.st44{fill:#23292E;}
	.st45{fill:#2E373D;}
	.st46{fill:#CECECE;}
	.st47{fill:#525E65;}
	.st48{fill:#627681;}
	.st49{fill:#E33400;}
	.st50{fill:#872E02;}
	.st51{fill:#82A5B9;}
	.st52{fill-rule:evenodd;clip-rule:evenodd;fill:#F9AC00;}
	.st53{fill-rule:evenodd;clip-rule:evenodd;fill:#FDC72E;}
	.st54{fill:#F9C795;}
	.st55{fill-rule:evenodd;clip-rule:evenodd;fill:#FDD7AD;}
	.st56{fill-rule:evenodd;clip-rule:evenodd;fill:#E6B17C;}
	.st57{fill:#2A92FA;}
	.st58{fill-rule:evenodd;clip-rule:evenodd;fill:#0E82F5;}
	.st59{fill-rule:evenodd;clip-rule:evenodd;fill:#F0414A;}
	.st60{fill-rule:evenodd;clip-rule:evenodd;fill:#FB545C;}
	.st61{fill-rule:evenodd;clip-rule:evenodd;fill:#3BD97D;}
	.st62{fill-rule:evenodd;clip-rule:evenodd;fill:#4FE88E;}
	.st63{fill-rule:evenodd;clip-rule:evenodd;fill:#2A92FA;}
	.st64{fill:#DDD3D3;}
	.st65{fill:#DB2C2C;}
	.st66{fill:#F13B3B;}
	.st67{fill:#CEC4C4;}
	.st68{fill:#332522;}
	.st69{fill:#47342F;}
	.st70{fill:#604843;}
	.st71{fill:#E5E3E3;}
	.st72{opacity:0.3;fill:#FFFFFF;}
	.st73{fill:#F8F8FF;}
	.st74{fill:#D8D7F9;}
	.st75{fill:#B889E0;}
	.st76{fill:#EFC7F9;}
	.st77{fill:#2D1164;}
	.st78{fill:#FFB6B1;}
	.st79{fill:#F47382;}
	.st80{fill:#C64F60;}
	.st81{opacity:0.33;}
	.st82{fill:#B9B9EA;}
	.st83{fill:#D3D3F4;}
	.st84{fill:#E8E8FC;}
	.st85{fill:#7E4DC4;}
	.st86{fill:#5642AD;}
	.st87{fill:#FEA046;}
	.st88{fill:#E15254;}
	.st89{opacity:0.53;}
	.st90{fill:#FFD1AB;}
	.st91{fill:#322277;}
	.st92{fill:#8AC9FE;}
	.st93{fill:#BFBFBF;}
	.st94{fill:#F8F6F6;}
	.st95{fill:#E2E2E2;}
	.st96{fill:#FE646F;}
	.st97{fill:#FD4755;}
	.st98{fill:#FED2A4;}
	.st99{fill:#FFBD86;}
	.st100{fill:#FFE5C2;}
	.st101{fill:#9C9C9C;}
	.st102{fill:#838383;}
	.st103{fill:#26A6FE;}
	.st104{fill:#0593FC;}
	.st105{fill:#EAF6FF;}
	.st106{fill:#0172FB;}
	.st107{fill:#25303F;}
	.st108{fill:#D33D48;}
	.st109{fill:#394456;}
	.st110{fill:#F4D72F;}
	.st111{fill:#FFA488;}
	.st112{fill:#E27466;}
	.st113{fill:#FFC4B6;}
	.st114{fill:#CC9D19;}
	.st115{fill:#EFCC3C;}
	.st116{fill:#FCE275;}
	.st117{fill:#EFBE35;}
	.st118{fill:#E0B52B;}
	.st119{fill:#76D6C4;}
	.st120{fill:#5B6A7F;}
	.st121{fill:#528432;}
	.st122{fill:#80BC50;}
	.st123{fill:#B2B8BF;}
	.st124{fill:#E2F2FA;}
	.st125{fill:#5BB3FF;}
	.st126{fill:#5CA7D9;}
	.st127{fill:#FF9D43;}
	.st128{fill:#00477F;}
	.st129{fill:#B6E0F4;}
	.st130{fill:#1C90CF;}
	.st131{fill:url(#SVGID_24_);}
	.st132{fill:#FFBCA5;}
	.st133{fill:#F8FBFF;}
	.st134{fill:#E0EFFF;}
	.st135{fill:#FFB59E;}
	.st136{fill:none;stroke:#000000;stroke-width:0.75;stroke-linecap:round;stroke-linejoin:round;stroke-miterlimit:10;}
	.st137{fill:#BEE9EB;}
	.st138{fill:#FFF6BC;}
	.st139{fill:#FF6E15;}
	.st140{fill:#7FCEED;}
	.st141{fill:#212121;}
	.st142{fill:#383838;}
	.st143{fill:#2A2A2A;}
	.st144{fill:#F5B0A6;}
	.st145{opacity:0.6;}
	.st146{fill:#F18A8B;}
	.st147{fill:#D37A7F;}
	.st148{fill:#0F0F0F;}
	.st149{fill:#202020;}
	.st150{fill:#1D1D1D;}
	.st151{fill:#2E6857;}
	.st152{fill:#255144;}
	.st153{fill:#40947E;}
	.st154{fill:#6FC183;}
	.st155{fill:#7A8DB0;}
	.st156{opacity:0.41;}
	.st157{fill:#243354;}
	.st158{fill:#EAEAEA;}
	.st159{fill:#2F4171;}
	.st160{fill:#2C4DA2;}
	.st161{fill:#99B1DA;}
	.st162{fill:#B5CAE8;}
	.st163{fill:#EDA9A2;}
	.st164{fill:#3D5891;}
	.st165{fill:#5681BF;}
	.st166{fill:#D1DBED;}
	.st167{opacity:0.35;}
	.st168{fill:#233F7C;}
	.st169{fill:#D2D2D2;}
	.st170{fill:#F19A6D;}
	.st171{fill:#7A7A7A;}
	.st172{fill:#F3CE90;}
	.st173{opacity:0.31;}
	.st174{fill:#292929;}
	.st175{fill:#515151;}
	.st176{fill:#3F3F3F;}
	.st177{fill-rule:evenodd;clip-rule:evenodd;fill:#D1DBED;}
	.st178{fill-rule:evenodd;clip-rule:evenodd;fill:#FFFFFF;}
	.st179{opacity:0.79;}
	.st180{opacity:0.28;}
	.st181{fill:#393939;}
	.st182{opacity:0.55;}
	.st183{fill:#A8A8A8;}
	.st184{fill:#B7B7B7;}
	.st185{fill:#EF7C59;}
	.st186{fill:#A0A0A0;}
	.st187{fill:#B9B9B9;}
	.st188{fill-rule:evenodd;clip-rule:evenodd;fill:#3D5891;}
	.st189{fill-rule:evenodd;clip-rule:evenodd;fill:#5681BF;}
	.st190{fill-rule:evenodd;clip-rule:evenodd;fill:#B5CAE8;}
	.st191{opacity:0.45;}
	.st192{fill-rule:evenodd;clip-rule:evenodd;fill:#99B1DA;}
	.st193{fill:#F0F0F0;}
	.st194{fill:#EACDB0;}
	.st195{fill:#A1BDCC;}
	.st196{fill:#8C9498;}
	.st197{fill:#3A3029;}
	.st198{fill:#59595B;}
	.st199{opacity:0.26;}
	.st200{fill:none;}
	.st201{fill:#6596C1;}
	.st202{fill:#5A8FB7;}
	.st203{fill:#C2969C;}
	.st204{fill:#754C3D;}
	.st205{fill:#F2D263;}
	.st206{fill:#AECCDC;}
	.st207{fill:#DEC2A7;}
	.st208{fill:#8AAD9F;}
	.st209{fill:#9E6652;}
	.st210{fill:#514943;}
	.st211{fill:#CAB5A1;}
	.st212{fill:#BCAC98;}
	.st213{fill:#D3C2A4;}
	.st214{fill:#37454D;}
	.st215{fill:#4F3C22;}
	.st216{fill:#DACAAF;}
	.st217{fill:#B26650;}
	.st218{fill:#2E4661;}
	.st219{fill:#FFFFF1;}
	.st220{fill:#FFD3A4;}
	.st221{fill:#FFBE84;}
	.st222{fill:#D65A2F;}
	.st223{fill:#A03914;}
	.st224{fill:#FFAF3E;}
	.st225{fill:#314652;}
	.st226{fill:#3C3A41;}
	.st227{fill:#FF9500;}
	.st228{fill:#E9336D;}
</style>
<g>
	<path class="st92" d="M34.3,2.9C15.3,2.9,0,17.6,0,35.7c0,9.5,4.2,18.1,11,24.1l0.1-0.1v-2.9c0-0.3,0.3-0.6,0.6-0.6h16.7
		c0.3,0,0.6,0.3,0.6,0.6V68l0.1,0.2c1.6,0.2,3.3,0.3,5,0.3c18.9,0,34.3-14.7,34.3-32.8S53.2,2.9,34.3,2.9z"/>
	<g>
		<g>
			<path class="st46" d="M40.7,0.4v5.8L41,6.3h6.2l0.4-0.1V0.4c0-0.2-0.2-0.4-0.4-0.4h-6C40.9,0,40.7,0.2,40.7,0.4z"/>
		</g>
		<path class="st93" d="M43.5,0.4c0-0.2,0.2-0.4,0.4-0.4h-2.8c-0.2,0-0.4,0.2-0.4,0.4v5.8h2.8V0.4z"/>
		<path class="st94" d="M40.7,6.2h6.8v12.6h-6.8V6.2z"/>
		<path class="st95" d="M40.7,6.2h2.8v12.6h-2.8V6.2z"/>
		<g>
			<g>
				<g>
					<path class="st96" d="M10.8,5.7L8.5,9.4c-1.2,1.9,0.3,4.3,2.6,4.3s3.8-2.4,2.6-4.3l-2.3-3.8C11.3,5.4,10.9,5.4,10.8,5.7z"/>
				</g>
				<path class="st97" d="M10.8,9.4L12.3,7l-0.8-1.3c-0.2-0.3-0.5-0.3-0.7,0L8.5,9.4c-1.2,1.9,0.3,4.3,2.6,4.3
					c0.4,0,0.8-0.1,1.1-0.2C10.6,13,9.8,11,10.8,9.4z"/>
			</g>
			<g>
				<g>
					<g>
						<path class="st98" d="M26.5,44.7v-5.8h-4.5v-2.1c0-0.6-0.5-1-1.1-1H9.9c-1.8,0-3.2,1.4-3.2,3.1v8.3c0,1.4,0.6,2.6,1.5,3.6
							l3.4,3.2c0.6,0.6,1.1,1.4,1.3,2.2h14.4c0.2-0.8,0.7-1.6,1.4-2.2l0.9-0.9C27.7,50.8,26.5,47.9,26.5,44.7L26.5,44.7z"/>
						<path class="st98" d="M26.5,25.7C26,24.9,25,24.5,24,24.5c-1.8,0-3.2,1.4-3.2,3.1v-1.2c0-1.7-1.4-3.1-3.2-3.1
							c-1.8,0-3.2,1.4-3.2,3.1v-8c0-1.7-1.4-3.1-3.2-3.1s-3.2,1.4-3.2,3.1v18.3c0.5-0.5,1.2-0.7,2-0.7H21c0.5,0,0.9,0.4,0.9,0.9V39
							c0,0.6-0.2,1.1-0.5,1.5c0.6,0.7,1.5,1.2,2.6,1.2c1,0,1.9-0.5,2.5-1.2L26.5,25.7L26.5,25.7z"/>
						<g>
							<path class="st99" d="M17.5,35.8v-9.4c0-1.1,0.7-2.1,1.6-2.7c-0.5-0.3-1-0.4-1.6-0.4c-1.8,0-3.2,1.4-3.2,3.1v9.4L17.5,35.8
								L17.5,35.8z"/>
						</g>
						<g>
							<path class="st99" d="M24,38.7V27.6c0-1.1,0.7-2.1,1.6-2.7c-0.5-0.3-1-0.4-1.6-0.4c-1.8,0-3.2,1.4-3.2,3.1v8.3H21
								c0.6,0,1.1,0.5,1.1,1v2.1V39c0,0.6-0.2,1.2-0.5,1.7c0.6,0.7,1.5,1.1,2.5,1.1c0.6,0,1.1-0.2,1.6-0.4
								C24.7,40.8,24,39.9,24,38.7L24,38.7z"/>
							<path class="st99" d="M9.9,35.8h1.2V18.4c0-1.2,0.7-2.2,1.6-2.7c-0.5-0.3-1-0.4-1.6-0.4c-1.8,0-3.2,1.4-3.2,3.1v18.1
								C8.5,36.1,9.2,35.8,9.9,35.8L9.9,35.8z"/>
						</g>
					</g>
					<g>
						<path class="st96" d="M28.5,56.2H11.8c-0.4,0-0.8,0.3-0.8,0.7v2.9c5,4.4,11.3,7.4,18.3,8.4V56.9
							C29.3,56.5,28.9,56.2,28.5,56.2L28.5,56.2z"/>
					</g>
					<g>
						<path class="st97" d="M11,56.9v2.9c1.8,1.6,3.9,3.1,6.1,4.3v-7.2c0-0.4,0.3-0.7,0.8-0.7h-6.1C11.3,56.2,11,56.5,11,56.9z"/>
					</g>
				</g>
				<g>
					<g>
						<ellipse class="st97" cx="11.1" cy="18.6" rx="1.2" ry="1.2"/>
					</g>
				</g>
				<g>
					<path class="st100" d="M21,35.8H9.9c-1.8,0-3.2,1.4-3.2,3.1v8.3c0,1.4,0.6,2.6,1.5,3.6l3.4,3.2h1.3c3.4,0,6.1-2.6,6.1-5.8
						c0-1.9-1.1-3.6-2.8-4.5L12.8,42H19c1.7,0,3.1-1.3,3.1-3v-0.1v-2.1C22.1,36.3,21.6,35.8,21,35.8L21,35.8z"/>
				</g>
			</g>
		</g>
		<g>
			<g>
				<path class="st101" d="M47.2,58.6H41c-8,0-14.6-6.2-14.6-13.9V25.6c0-3.8,3.3-7,7.3-7h20.8c4,0,7.3,3.1,7.3,7v19.1
					C61.8,52.4,55.3,58.6,47.2,58.6z"/>
			</g>
			<path class="st102" d="M30.1,44.7V25.6c0-1.9,1.6-3.5,3.6-3.5h2.4c1.3-2.1,3.6-3.5,6.3-3.5h-8.7c-4,0-7.3,3.1-7.3,7v19.1
				c0,7.7,6.5,13.9,14.6,13.9h6.3c0.4,0,0.8,0,1.2,0c-3.2-0.3-6.2-1.5-8.5-3.5C34.4,54.6,30.1,50.1,30.1,44.7L30.1,44.7z"/>
			<g>
				<path class="st46" d="M41,55.1c-6,0-10.9-4.7-10.9-10.5V25.6c0-1.9,1.6-3.5,3.6-3.5h20.8c2,0,3.6,1.6,3.6,3.5v19.1
					c0,5.8-4.9,10.5-10.9,10.5L41,55.1z"/>
			</g>
			<path class="st93" d="M37.3,44.7v-1.8h-2.9c-0.8,0-1.5-0.6-1.5-1.4V27.8c0-0.8,0.7-1.4,1.5-1.4h2.9v-0.8c0-1.9,1.6-3.5,3.6-3.5
				h-7.3c-2,0-3.6,1.6-3.6,3.5v19.1c0,5.8,4.9,10.5,10.9,10.5h6.3c0.2,0,0.3,0,0.5,0C42,54.9,37.3,50.3,37.3,44.7L37.3,44.7z"/>
			<g>
				<g>
					<path class="st96" d="M37.9,50.8h-0.4c-1.6,0-2.9-1.2-2.9-2.8c0-1.5,1.3-2.8,2.9-2.8h0.4c1.6,0,2.9,1.2,2.9,2.8
						C40.8,49.6,39.5,50.8,37.9,50.8z"/>
				</g>
				<path class="st97" d="M37.5,48c0-1.1,0.7-2.1,1.7-2.5c-0.4-0.2-0.8-0.3-1.2-0.3h-0.4c-1.6,0-2.9,1.2-2.9,2.8
					c0,1.5,1.3,2.8,2.9,2.8h0.4c0.4,0,0.9-0.1,1.2-0.3C38.2,50.1,37.5,49.1,37.5,48z"/>
				<g>
					<path class="st103" d="M50.7,50.8h-0.4c-1.6,0-2.9-1.2-2.9-2.8c0-1.5,1.3-2.8,2.9-2.8h0.4c1.6,0,2.9,1.2,2.9,2.8
						C53.7,49.6,52.3,50.8,50.7,50.8z"/>
				</g>
				<path class="st104" d="M50.2,48c0-1.1,0.7-2.1,1.7-2.5c-0.4-0.2-0.8-0.3-1.2-0.3h-0.4c-1.6,0-2.9,1.2-2.9,2.8
					c0,1.5,1.3,2.8,2.9,2.8h0.4c0.4,0,0.8-0.1,1.2-0.3C50.9,50.1,50.2,49.2,50.2,48z"/>
			</g>
			<g>
				<path class="st12" d="M53.8,42.9H34.4c-0.8,0-1.5-0.6-1.5-1.4V27.8c0-0.8,0.7-1.4,1.5-1.4h19.4c0.8,0,1.5,0.6,1.5,1.4v13.8
					C55.3,42.3,54.6,42.9,53.8,42.9L53.8,42.9z"/>
			</g>
			<g>
				<path class="st105" d="M38.8,41.5V27.8c0-0.8,0.7-1.4,1.5-1.4h-5.8c-0.8,0-1.5,0.6-1.5,1.4v13.8c0,0.8,0.7,1.4,1.5,1.4h5.8
					C39.5,42.9,38.8,42.3,38.8,41.5z"/>
			</g>
		</g>
		<g>
			<g>
				<ellipse class="st103" cx="52.8" cy="40.6" rx="1" ry="1"/>
			</g>
			<g>
				<ellipse class="st103" cx="35.4" cy="40.6" rx="1" ry="1"/>
			</g>
			<g>
				<ellipse class="st97" cx="35.4" cy="37.8" rx="1" ry="1"/>
			</g>
		</g>
		<g>
			<path class="st106" d="M42.1,29.8H40c-1,0-1.7,0.7-1.7,1.7v2.4c0,0.9,0.8,1.7,1.7,1.7h1.7v1.7h-2.1c-0.6,0-1,0.4-1,1
				c0,0.6,0.5,1,1,1h2.5c1,0,1.7-0.7,1.7-1.7v-6.2C43.8,30.5,43.1,29.8,42.1,29.8L42.1,29.8z M41.7,33.5h-1.4v-1.7h1.4V33.5z"/>
			<g>
				<path class="st106" d="M48.2,39.3h-2.1c-1,0-1.7-0.7-1.7-1.7v-6.2c0-0.9,0.8-1.7,1.7-1.7h2.1c1,0,1.7,0.7,1.7,1.7v6.2
					C49.9,38.5,49.2,39.3,48.2,39.3z M46.5,37.3h1.4v-5.5h-1.4V37.3z"/>
			</g>
		</g>
	</g>
</g>
</svg>
