<?xml version="1.0" encoding="utf-8"?>
<!-- Generator: Adobe Illustrator 25.2.1, SVG Export Plug-In . SVG Version: 6.00 Build 0)  -->
<svg version="1.1" id="bold" xmlns="http://www.w3.org/2000/svg" xmlns:xlink="http://www.w3.org/1999/xlink" x="0px" y="0px"
	 viewBox="0 0 68.5 64.9" style="enable-background:new 0 0 68.5 64.9;" xml:space="preserve">
<style type="text/css">
	.st0{fill:#FFFFFF;}
	.st1{opacity:0.5;fill:#FFFFFF;enable-background:new    ;}
	.st2{opacity:0.6;fill:#FFFFFF;enable-background:new    ;}
	.st3{opacity:0.3;fill:#FFFFFF;enable-background:new    ;}
	.st4{fill-rule:evenodd;clip-rule:evenodd;fill:#FFFFFF;}
	.st5{opacity:0.3;fill:#FFFFFF;}
	.st6{opacity:0.33;}
	.st7{opacity:0.53;}
	.st8{opacity:0.6;}
	.st9{opacity:0.41;}
	.st10{opacity:0.35;}
	.st11{opacity:0.31;}
	.st12{opacity:0.79;}
	.st13{opacity:0.28;}
	.st14{opacity:0.55;}
	.st15{opacity:0.45;}
	.st16{opacity:0.26;fill:#FFFFFF;}
</style>
<g>
	<path class="st0" d="M60.4,20.6c0,2.5-1.7,4.7-4.1,5.4c-0.8,6.6-6.7,11.7-13.9,11.7h-8c-7.2,0-13.1-5.1-13.9-11.7
		c-2.4-0.8-4.1-2.9-4.1-5.4c0-2.9,2.2-5.2,5.1-5.6C23.6,8.5,29.7,4,36.9,3.4l1.4,0.4l10.4,2.7c3.1,2.1,5.4,5,6.6,8.4
		C58.2,15.3,60.4,17.7,60.4,20.6z"/>
	<path class="st0" d="M60.4,20.6c0,2.5-1.7,4.7-4.1,5.4c-0.8,6.6-6.7,11.7-13.9,11.7h-4V3.8l10.4,2.7c3.1,2.1,5.4,5,6.6,8.4
		C58.2,15.3,60.4,17.7,60.4,20.6z"/>
	<path class="st0" d="M39.4,0.8l-1.1,0.6l-4.7,2.5c-0.9,0.5-1.3,1.5-0.9,2.4c0.4,0.9,1.4,1.4,2.4,1.1c1.1-0.3,2.2-0.1,3.2,0.4
		c1.5,0.9,2.4,2.6,1.8,4.3c-0.6,1.7,1.4,3.1,3,2.2l3.4-2.1c2.3-1.4,3.5-3.9,3.2-6.4C49.1,1.1,43.7-1.4,39.4,0.8z"/>
	<path class="st0" d="M38.3,7.8V1.4l1.1-0.6c4.3-2.2,9.7,0.3,10.3,5c0.3,2.6-0.9,5-3.2,6.4l-3.4,2.1c-1.6,0.9-3.5-0.5-3-2.2
		C40.7,10.3,39.8,8.7,38.3,7.8z"/>
	<path class="st0" d="M45.7,27.6c-2,1.9-4.6,2.9-7.4,2.9c-2.8,0-5.5-1-7.4-2.9c-0.8-0.7-0.8-1.9,0-2.7c0.8-0.8,2-0.8,2.8,0
		c1.2,1.2,2.9,1.8,4.6,1.8c1.7,0,3.4-0.6,4.6-1.8c0.8-0.8,2-0.8,2.8,0C46.5,25.7,46.5,26.9,45.7,27.6z"/>
	<ellipse class="st0" cx="30.3" cy="20.6" rx="2" ry="1.9"/>
	<ellipse class="st0" cx="46.3" cy="20.6" rx="2" ry="1.9"/>
	<path class="st0" d="M68.5,44c0,1.3-0.4,2.4-1.2,3.4l-9.6,12.2c-2.7,3.4-6.8,5.3-11.2,5.3H8l0.2-21.3c4.9-7,14.9-8,21.1-2.8
		c0.8,0.6,1.3,1.3,2.3,1.3h12.8c2.2,0,4,1.7,4,3.8c0,2.1-1.8,3.8-4,3.8H30.1c-1.1,0-2,0.8-2,1.9c0,1.1,0.9,1.9,2,1.9h17.7
		c1.7,0,3.3-0.6,4.4-1.8l9.9-10.1c1-1.1,2.7-1.4,4.1-0.9C67.6,41.2,68.5,42.5,68.5,44z"/>
	<path class="st0" d="M44.4,49.7h-6.2v-7.6h6.2c2.2,0,4,1.7,4,3.8C48.5,48,46.7,49.7,44.4,49.7z"/>
	<path class="st0" d="M45.7,27.6c-2,1.9-4.6,2.9-7.4,2.9v-3.9c1.7,0,3.4-0.6,4.6-1.8c0.8-0.8,2-0.8,2.8,0
		C46.5,25.7,46.5,26.9,45.7,27.6z"/>
	<path class="st0" d="M68.5,44c0,1.3-0.4,2.4-1.2,3.4l-9.6,12.2c-2.7,3.4-6.8,5.3-11.2,5.3h-8.2V53.5h9.5c1.7,0,3.3-0.6,4.4-1.8
		l9.9-10.1c1-1.1,2.7-1.4,4.1-0.9C67.6,41.2,68.5,42.5,68.5,44z"/>
	<path class="st0" d="M12,63c0,1.1-0.9,1.9-2,1.9H2c-1.1,0-2-0.9-2-1.9V40.1c0-1.1,0.9-1.9,2-1.9h4c3.3,0,6,2.6,6,5.7V63z"/>
</g>
</svg>
