<?xml version="1.0" encoding="utf-8"?>
<!-- Generator: Adobe Illustrator 25.2.1, SVG Export Plug-In . SVG Version: 6.00 Build 0)  -->
<svg version="1.1" id="bold" xmlns="http://www.w3.org/2000/svg" xmlns:xlink="http://www.w3.org/1999/xlink" x="0px" y="0px"
	 viewBox="0 0 68.5 68.5" style="enable-background:new 0 0 68.5 68.5;" xml:space="preserve">
<style type="text/css">
	.st0{fill:#FFFFFF;}
	.st1{opacity:0.5;fill:#FFFFFF;enable-background:new    ;}
	.st2{opacity:0.6;fill:#FFFFFF;enable-background:new    ;}
	.st3{opacity:0.3;fill:#FFFFFF;enable-background:new    ;}
	.st4{fill-rule:evenodd;clip-rule:evenodd;fill:#FFFFFF;}
	.st5{opacity:0.3;fill:#FFFFFF;}
	.st6{opacity:0.33;}
	.st7{opacity:0.53;}
	.st8{opacity:0.6;}
	.st9{opacity:0.41;}
	.st10{opacity:0.35;}
	.st11{opacity:0.31;}
	.st12{opacity:0.79;}
	.st13{opacity:0.28;}
	.st14{opacity:0.55;}
	.st15{opacity:0.45;}
	.st16{opacity:0.26;fill:#FFFFFF;}
</style>
<g>
	<path class="st0" d="M6.2,12.9l-0.6,0.6L0,20l1.4,1l9-5.1L6.2,12.9z"/>
	<path class="st0" d="M8.3,15.1l-3.9,2.4l-3,3.4L0,20l5.6-6.5L8.3,15.1z"/>
	<path class="st0" d="M60,55c-0.7,0-1.3-0.4-1.4-1.1L49,19.7c-0.2-0.8,0.3-1.6,1.1-1.8c0.8-0.2,1.6,0.2,1.8,1l9.5,34.3
		c0.2,0.8-0.3,1.6-1.1,1.8C60.3,55,60.1,55,60,55z"/>
	<path class="st0" d="M17.7,13.9c-2.3-1.3-4.3-1.3-5.9-0.3l-4,2.3c-2.1,0.9-3.4,3.4-3.4,7.1c0,6.3,3.9,13.6,8.7,16.4
		c2.2,1.3,4.3,1.3,5.8,0.4l4.3-2.4c1.9-1,3.2-3.5,3.2-7C26.4,23.9,22.5,16.6,17.7,13.9z"/>
	<path class="st0" d="M21.9,32.8c0,6.3-3.9,9.2-8.7,6.5c-4.8-2.7-8.7-10.1-8.7-16.4c0-6.3,3.9-9.2,8.7-6.5
		C18,19.1,21.9,26.5,21.9,32.8z"/>
	<path class="st0" d="M18.5,30.9c0,3.9-2.4,5.7-5.4,4c-3-1.7-5.4-6.2-5.4-10.1s2.4-5.7,5.4-4C16.1,22.5,18.5,27,18.5,30.9z"/>
	<path class="st0" d="M32.6,34.3l-16.8-9.5c-1-0.5-2.2-0.6-3.1,0c-0.8,0.2-1.5,0.9-1.5,1.8c0,1.8,1,3.5,2.6,4.4l18.9,10.7L32.6,34.3
		z"/>
	<path class="st0" d="M20.7,20.8v5.3c0,1.1,0.6,2.1,1.6,2.7l5.9,3.4c1.6,1,2.5,2.6,2.5,4.4v2.8c0,1.7,0.9,3.3,2.4,4.1l4.8,2.7
		c0.6,0.4,1.3,0.3,1.9,0l9.9-5.6c0,0,0.1,0,0.1-0.1h0c0.5-0.3,0.9-0.9,0.9-1.5c0-1.7,0.3-3.3,0.8-4.9l1.7-4.7L20.7,20.8z"/>
	<path class="st0" d="M28.2,26.4l-7.5-4.3v3.9c0,1.1,0.6,2.1,1.6,2.7l5.9,3.4V26.4z"/>
	<path class="st0" d="M35.7,37.3L13.9,25c-1.3-0.7-2.8,0.2-2.8,1.6c0,1.8,1,3.5,2.6,4.4l22,12.5V37.3z"/>
	<path class="st0" d="M25.8,8l-1.4-2.5c-0.7-1.2-1.7-2.2-2.9-2.8l-4.2-2.4c-1-0.6-2.1-0.4-2.9,0.2L4.8,5.9C3.9,6.3,3.2,7.2,3.2,8.3
		c0,2.5,1.3,4.7,3.5,5.9l16.5,9.4l12.4-9.8L25.8,8z"/>
	<path class="st0" d="M25.6,19.4l-9.9-5.8l-1.4-2.5C13.6,10,12.6,9,11.4,8.3L7.2,6c-1.8-1-4,0.3-4,2.3c0,2.5,1.3,4.7,3.5,5.9
		l16.5,9.4L25.6,19.4z"/>
	<path class="st0" d="M15.7,13.7L25.8,8l9.9,5.8l-10.1,5.6L15.7,13.7z"/>
	<path class="st0" d="M46.4,13.9c-3.4-2-7.7-2-11.1-0.1c-0.1,0.1-8.8,5-9.6,5.5c-0.1,0.1-0.2,0.1-0.4,0.2c-1.3,0.7-2,2-2,3.5v0.5
		l20,11.4l10-5.7v-3.6C53.3,20.9,50.7,16.4,46.4,13.9z"/>
	<path class="st0" d="M23.2,23.6l20,11.4v-3.6c0-4.8-2.6-9.3-6.9-11.8c-3.4-2-7.7-2-11.1-0.1c-1.3,0.7-2,2-2,3.5V23.6z"/>
	<path class="st0" d="M28.2,26.4l15,8.5l-1.7,4.7c-0.6,1.6-0.8,3.2-0.8,4.9c0,1.4-1.5,2.3-2.8,1.6l-4.8-2.7
		c-1.5-0.9-2.4-2.4-2.4-4.1v-2.8c0-1.8-0.9-3.5-2.5-4.4V26.4z"/>
	<path class="st0" d="M59.8,42.5c-2.3-1.3-4.3-1.3-5.9-0.3l-4,2.3c-2.1,0.9-3.4,3.4-3.4,7.1c0,6.3,3.9,13.6,8.7,16.4
		c2.2,1.3,4.3,1.3,5.8,0.4l4.3-2.4c1.9-1,3.2-3.5,3.2-7C68.5,52.6,64.6,45.2,59.8,42.5z"/>
	<path class="st0" d="M60.8,39.9c-2.7-1.5-5.1-1.5-6.9-0.2l-5.3,3c-2.2,1.1-3.6,3.9-3.6,8c0,3.1,0.8,6.3,2.2,9.3l0.6-0.3
		c1.3-0.6,1.9-2,1.5-3.4c-0.3-1.2-0.5-2.4-0.5-3.5c0-4.4,2.7-6.5,6.1-4.5c0.7,0.4,1.3,0.9,2,1.5c1,1,2.7,0.9,3.7-0.2l0.3-0.4
		l3.7-2.1c0.7,0,1.4-0.3,1.9-0.9l0.3-0.4C65.1,43.3,63.1,41.2,60.8,39.9z"/>
	<path class="st0" d="M64,61c0,6.3-3.9,9.2-8.7,6.5c-4.8-2.7-8.7-10.1-8.7-16.4s3.9-9.2,8.7-6.5C60.1,47.4,64,54.7,64,61z"/>
	<path class="st0" d="M60.6,59.1c0,3.9-2.4,5.7-5.4,4c-3-1.7-5.4-6.2-5.4-10.1s2.4-5.7,5.4-4C58.2,50.7,60.6,55.2,60.6,59.1z"/>
	<path class="st0" d="M57.6,57.4c0,1.7-1,2.5-2.3,1.7c-1.3-0.7-2.3-2.7-2.3-4.4c0-1.7,1-2.5,2.3-1.7C56.5,53.8,57.6,55.7,57.6,57.4z
		"/>
	<path class="st0" d="M48.8,52.8c0-4.4,2.7-6.5,6.1-4.5c0.7,0.4,1.3,0.9,2,1.5c1,1,2.7,0.9,3.7-0.2l0.3-0.4c-1.7-2.6-3.7-4.7-5.9-6
		c-5.5-3.1-9.9,0.2-9.9,7.4c0,3.1,0.8,6.3,2.2,9.3l0.6-0.3c1.3-0.6,1.9-2,1.5-3.4C49,55.1,48.8,53.9,48.8,52.8z"/>
	<path class="st0" d="M55.1,57.9c-0.7,0-1.3-0.4-1.4-1.1l-9.5-34.3c-0.2-0.8,0.3-1.6,1.1-1.8c0.8-0.2,1.6,0.2,1.8,1L56.6,56
		c0.2,0.8-0.3,1.6-1.1,1.8C55.4,57.9,55.3,57.9,55.1,57.9z"/>
	<path class="st0" d="M50.8,8c-0.5,0-1-0.3-1.3-0.7c-0.4-0.7-0.2-1.6,0.5-2L53.9,3c0.7-0.4,1.6-0.2,2.1,0.5c0.4,0.7,0.2,1.6-0.6,2
		l-3.9,2.2C51.3,7.9,51,8,50.8,8z"/>
	<path class="st0" d="M56.5,7.5h-5c-0.4,0-0.8-0.4-0.8-0.8c0-0.4,0.4-0.8,0.8-0.8h5c0.4,0,0.8,0.4,0.8,0.8C57.3,7.1,57,7.5,56.5,7.5
		z"/>
	<path class="st0" d="M42.5,24.5c-2.1,0-4.1-0.8-5.7-2.3l-4.7-4.7c-0.6-0.6-0.6-1.5,0-2.1c0.6-0.6,1.5-0.6,2.1,0l4.7,4.7
		c1.6,1.6,4,1.9,6,0.8l4.8-2.7c1.1-0.6,1.6-1.8,1.4-3l-1.8-8.4C49.1,6,49.6,5.2,50.5,5c0.8-0.2,1.6,0.3,1.8,1.1l1.8,8.4
		c0.5,2.5-0.6,5-2.8,6.2l-4.8,2.7C45.3,24.2,43.9,24.5,42.5,24.5z"/>
	<path class="st0" d="M28.3,20.8c-0.5,0-1-0.3-1.3-0.7c-0.4-0.7-0.2-1.6,0.5-2l5-2.8c0.7-0.4,1.6-0.2,2.1,0.5c0.4,0.7,0.2,1.6-0.6,2
		l-5,2.8C28.8,20.7,28.6,20.8,28.3,20.8z"/>
	<path class="st0" d="M56.9,18.4l-2.6-1.5c-2.4-1.4-5.4-1.4-7.9,0c-4.5,2.6-4.5,8.9,0,11.5l4.6,2.7c0.8,0.5,1.9,0.5,3.1-0.2
		c2.6-1.5,4.6-5.3,4.6-8.7C58.9,20.2,58.1,18.8,56.9,18.4z"/>
	<path class="st0" d="M58.9,22.2c0,3.4-2.1,7.2-4.6,8.7c-2.6,1.5-4.6-0.1-4.6-3.4s2.1-7.2,4.6-8.7C56.8,17.4,58.9,18.9,58.9,22.2z"
		/>
	<path class="st0" d="M57.5,23c0,2.4-1.5,5.1-3.3,6.2c-1.8,1-3.3-0.1-3.3-2.4c0-2.4,1.5-5.1,3.3-6.2C56.1,19.5,57.5,20.6,57.5,23z"
		/>
	<path class="st0" d="M32.8,38.3c0,2.1,1.3,4.4,2.8,5.3c1.6,0.9,2.8-0.1,2.8-2.1c0-2.1-1.3-4.4-2.8-5.3
		C34.1,35.3,32.8,36.3,32.8,38.3z"/>
	<path class="st0" d="M32.6,23.3c-0.1,0-0.1,0-0.2,0c-0.4-0.1-0.7-0.5-0.6-1l1.3-5.4c0.1-0.4,0.5-0.7,1-0.6c0.4,0.1,0.7,0.5,0.6,1
		l-1.3,5.4C33.3,23,32.9,23.3,32.6,23.3z"/>
</g>
</svg>
