<?xml version="1.0" encoding="utf-8"?>
<!-- Generator: Adobe Illustrator 25.2.1, SVG Export Plug-In . SVG Version: 6.00 Build 0)  -->
<svg version="1.1" id="bold" xmlns="http://www.w3.org/2000/svg" xmlns:xlink="http://www.w3.org/1999/xlink" x="0px" y="0px"
	 viewBox="0 0 68.5 68.5" style="enable-background:new 0 0 68.5 68.5;" xml:space="preserve">
<style type="text/css">
	.st0{fill:#FC573B;}
	.st1{fill:#FD907E;}
	.st2{fill:#FFAC96;}
	.st3{fill:#FFBCAB;}
	.st4{fill:#006DF0;}
	.st5{fill:#D80027;}
	.st6{fill:#BD0022;}
	.st7{fill:#F1F2F2;}
	.st8{fill:#858585;}
	.st9{fill:#57A5FF;}
	.st10{fill:#4481C7;}
	.st11{fill:#FFD45A;}
	.st12{fill:#FFFFFF;}
	.st13{fill:#D64528;}
	.st14{fill:#FF914D;}
	.st15{fill:#3449A3;}
	.st16{fill:#2E872B;}
	.st17{fill:#D97B41;}
	.st18{fill:#226320;}
	.st19{fill:#2A3B85;}
	.st20{fill:#B53A22;}
	.st21{fill:url(#SVGID_1_);}
	.st22{fill:url(#SVGID_2_);}
	.st23{fill:url(#SVGID_3_);}
	.st24{fill:url(#SVGID_4_);}
	.st25{fill:url(#SVGID_5_);}
	.st26{opacity:0.5;fill:url(#SVGID_6_);enable-background:new    ;}
	.st27{fill:url(#SVGID_7_);}
	.st28{opacity:0.5;fill:url(#SVGID_8_);enable-background:new    ;}
	.st29{fill:url(#SVGID_9_);}
	.st30{fill:url(#SVGID_10_);}
	.st31{opacity:0.6;fill:url(#SVGID_11_);enable-background:new    ;}
	.st32{fill:url(#SVGID_12_);}
	.st33{fill:url(#SVGID_13_);}
	.st34{fill:url(#SVGID_14_);}
	.st35{fill:url(#SVGID_15_);}
	.st36{fill:url(#SVGID_16_);}
	.st37{opacity:0.5;fill:url(#SVGID_17_);enable-background:new    ;}
	.st38{fill:url(#SVGID_18_);}
	.st39{opacity:0.6;fill:url(#SVGID_19_);enable-background:new    ;}
	.st40{fill:url(#SVGID_20_);}
	.st41{fill:url(#SVGID_21_);}
	.st42{fill:url(#SVGID_22_);}
	.st43{opacity:0.3;fill:url(#SVGID_23_);enable-background:new    ;}
	.st44{fill:#23292E;}
	.st45{fill:#2E373D;}
	.st46{fill:#CECECE;}
	.st47{fill:#525E65;}
	.st48{fill:#627681;}
	.st49{fill:#E33400;}
	.st50{fill:#872E02;}
	.st51{fill:#82A5B9;}
	.st52{fill-rule:evenodd;clip-rule:evenodd;fill:#F9AC00;}
	.st53{fill-rule:evenodd;clip-rule:evenodd;fill:#FDC72E;}
	.st54{fill:#F9C795;}
	.st55{fill-rule:evenodd;clip-rule:evenodd;fill:#FDD7AD;}
	.st56{fill-rule:evenodd;clip-rule:evenodd;fill:#E6B17C;}
	.st57{fill:#2A92FA;}
	.st58{fill-rule:evenodd;clip-rule:evenodd;fill:#0E82F5;}
	.st59{fill-rule:evenodd;clip-rule:evenodd;fill:#F0414A;}
	.st60{fill-rule:evenodd;clip-rule:evenodd;fill:#FB545C;}
	.st61{fill-rule:evenodd;clip-rule:evenodd;fill:#3BD97D;}
	.st62{fill-rule:evenodd;clip-rule:evenodd;fill:#4FE88E;}
	.st63{fill-rule:evenodd;clip-rule:evenodd;fill:#2A92FA;}
	.st64{fill:#DDD3D3;}
	.st65{fill:#DB2C2C;}
	.st66{fill:#F13B3B;}
	.st67{fill:#CEC4C4;}
	.st68{fill:#332522;}
	.st69{fill:#47342F;}
	.st70{fill:#604843;}
	.st71{fill:#E5E3E3;}
	.st72{opacity:0.3;fill:#FFFFFF;}
	.st73{fill:#F8F8FF;}
	.st74{fill:#D8D7F9;}
	.st75{fill:#B889E0;}
	.st76{fill:#EFC7F9;}
	.st77{fill:#2D1164;}
	.st78{fill:#FFB6B1;}
	.st79{fill:#F47382;}
	.st80{fill:#C64F60;}
	.st81{opacity:0.33;}
	.st82{fill:#B9B9EA;}
	.st83{fill:#D3D3F4;}
	.st84{fill:#E8E8FC;}
	.st85{fill:#7E4DC4;}
	.st86{fill:#5642AD;}
	.st87{fill:#FEA046;}
	.st88{fill:#E15254;}
	.st89{opacity:0.53;}
	.st90{fill:#FFD1AB;}
	.st91{fill:#322277;}
	.st92{fill:#8AC9FE;}
	.st93{fill:#BFBFBF;}
	.st94{fill:#F8F6F6;}
	.st95{fill:#E2E2E2;}
	.st96{fill:#FE646F;}
	.st97{fill:#FD4755;}
	.st98{fill:#FED2A4;}
	.st99{fill:#FFBD86;}
	.st100{fill:#FFE5C2;}
	.st101{fill:#9C9C9C;}
	.st102{fill:#838383;}
	.st103{fill:#26A6FE;}
	.st104{fill:#0593FC;}
	.st105{fill:#EAF6FF;}
	.st106{fill:#0172FB;}
	.st107{fill:#25303F;}
	.st108{fill:#D33D48;}
	.st109{fill:#394456;}
	.st110{fill:#F4D72F;}
	.st111{fill:#FFA488;}
	.st112{fill:#E27466;}
	.st113{fill:#FFC4B6;}
	.st114{fill:#CC9D19;}
	.st115{fill:#EFCC3C;}
	.st116{fill:#FCE275;}
	.st117{fill:#EFBE35;}
	.st118{fill:#E0B52B;}
	.st119{fill:#76D6C4;}
	.st120{fill:#5B6A7F;}
	.st121{fill:#528432;}
	.st122{fill:#80BC50;}
	.st123{fill:#B2B8BF;}
	.st124{fill:#E2F2FA;}
	.st125{fill:#5BB3FF;}
	.st126{fill:#5CA7D9;}
	.st127{fill:#FF9D43;}
	.st128{fill:#00477F;}
	.st129{fill:#B6E0F4;}
	.st130{fill:#1C90CF;}
	.st131{fill:url(#SVGID_24_);}
	.st132{fill:#FFBCA5;}
	.st133{fill:#F8FBFF;}
	.st134{fill:#E0EFFF;}
	.st135{fill:#FFB59E;}
	.st136{fill:none;stroke:#000000;stroke-width:0.75;stroke-linecap:round;stroke-linejoin:round;stroke-miterlimit:10;}
	.st137{fill:#BEE9EB;}
	.st138{fill:#FFF6BC;}
	.st139{fill:#FF6E15;}
	.st140{fill:#7FCEED;}
	.st141{fill:#212121;}
	.st142{fill:#383838;}
	.st143{fill:#2A2A2A;}
	.st144{fill:#F5B0A6;}
	.st145{opacity:0.6;}
	.st146{fill:#F18A8B;}
	.st147{fill:#D37A7F;}
	.st148{fill:#0F0F0F;}
	.st149{fill:#202020;}
	.st150{fill:#1D1D1D;}
	.st151{fill:#2E6857;}
	.st152{fill:#255144;}
	.st153{fill:#40947E;}
	.st154{fill:#6FC183;}
	.st155{fill:#7A8DB0;}
	.st156{opacity:0.41;}
	.st157{fill:#243354;}
	.st158{fill:#EAEAEA;}
	.st159{fill:#2F4171;}
	.st160{fill:#2C4DA2;}
	.st161{fill:#99B1DA;}
	.st162{fill:#B5CAE8;}
	.st163{fill:#EDA9A2;}
	.st164{fill:#3D5891;}
	.st165{fill:#5681BF;}
	.st166{fill:#D1DBED;}
	.st167{opacity:0.35;}
	.st168{fill:#233F7C;}
	.st169{fill:#D2D2D2;}
	.st170{fill:#F19A6D;}
	.st171{fill:#7A7A7A;}
	.st172{fill:#F3CE90;}
	.st173{opacity:0.31;}
	.st174{fill:#292929;}
	.st175{fill:#515151;}
	.st176{fill:#3F3F3F;}
	.st177{fill-rule:evenodd;clip-rule:evenodd;fill:#D1DBED;}
	.st178{fill-rule:evenodd;clip-rule:evenodd;fill:#FFFFFF;}
	.st179{opacity:0.79;}
	.st180{opacity:0.28;}
	.st181{fill:#393939;}
	.st182{opacity:0.55;}
	.st183{fill:#A8A8A8;}
	.st184{fill:#B7B7B7;}
	.st185{fill:#EF7C59;}
	.st186{fill:#A0A0A0;}
	.st187{fill:#B9B9B9;}
	.st188{fill-rule:evenodd;clip-rule:evenodd;fill:#3D5891;}
	.st189{fill-rule:evenodd;clip-rule:evenodd;fill:#5681BF;}
	.st190{fill-rule:evenodd;clip-rule:evenodd;fill:#B5CAE8;}
	.st191{opacity:0.45;}
	.st192{fill-rule:evenodd;clip-rule:evenodd;fill:#99B1DA;}
	.st193{fill:#F0F0F0;}
	.st194{fill:#EACDB0;}
	.st195{fill:#A1BDCC;}
	.st196{fill:#8C9498;}
	.st197{fill:#3A3029;}
	.st198{fill:#59595B;}
	.st199{opacity:0.26;}
	.st200{fill:none;}
	.st201{fill:#6596C1;}
	.st202{fill:#5A8FB7;}
	.st203{fill:#C2969C;}
	.st204{fill:#754C3D;}
	.st205{fill:#F2D263;}
	.st206{fill:#AECCDC;}
	.st207{fill:#DEC2A7;}
	.st208{fill:#8AAD9F;}
	.st209{fill:#9E6652;}
	.st210{fill:#514943;}
	.st211{fill:#CAB5A1;}
	.st212{fill:#BCAC98;}
	.st213{fill:#D3C2A4;}
	.st214{fill:#37454D;}
	.st215{fill:#4F3C22;}
	.st216{fill:#DACAAF;}
	.st217{fill:#B26650;}
	.st218{fill:#2E4661;}
	.st219{fill:#FFFFF1;}
	.st220{fill:#FFD3A4;}
	.st221{fill:#FFBE84;}
	.st222{fill:#D65A2F;}
	.st223{fill:#A03914;}
	.st224{fill:#FFAF3E;}
	.st225{fill:#314652;}
	.st226{fill:#3C3A41;}
	.st227{fill:#FF9500;}
	.st228{fill:#E9336D;}
</style>
<g>
	<path class="st12" d="M45.1,23.3c0,0-0.3-7-0.2-10.1c0.1-1.7,0.4-2.4,1.4-2.9c0.6-0.3,1.4,0.1,2.4,1.4c2.1,2.7,4.5,6.3,4.5,6.3
		L45.1,23.3z"/>
	<g>
		<path class="st64" d="M47.3,21.6c0,0-0.4-3.4-0.7-6.3c-0.3-3,0.8-4.7,0.9-4.7l0.2,0.1c0,0-1.2,1.7-0.9,4.6c0.3,3,0.7,6.3,0.7,6.3
			L47.3,21.6z"/>
	</g>
	<g>
		<path class="st64" d="M51.5,20.6c0,0-2.1-3.2-2.8-5.2c-0.5-1.3-0.4-2,0.3-3.3l0.1,0.2c-0.8,1.2-0.8,1.8-0.3,3
			c0.7,2,2.8,5.1,2.8,5.2L51.5,20.6z"/>
	</g>
	<g>
		<path class="st65" d="M52.1,60.2c0.3-1.9-0.6-3.7-1.8-4.3c-1.2-0.6-3.9,1.4-4.8,2.1c-1.1,0.9-4.2,4-4.2,4l2.2,6.4
			c0,0,2.9-1.7,5.4-3.6C50.2,63.7,51.7,62.3,52.1,60.2z"/>
		<path class="st66" d="M44,66.5c0,1.7-0.7,2.5-1.7,1.7c-0.9-0.7-1.7-2.7-1.7-4.4c0-1.7,0.7-2.5,1.7-1.7C43.2,62.9,44,64.8,44,66.5z
			"/>
		<g>
			<path class="st67" d="M43.8,61c-0.3-0.3-0.8-0.6-1.1-0.4c-0.1,0-0.1,0.1-0.2,0.2c0.2-0.1,0.7,0.1,1.2,0.5
				c0.9,0.7,1.6,2.7,1.6,4.4c0,0.8-0.1,1.3-0.4,1.7c-0.1,0.2-0.4,0.4-0.5,0.5c0.3-0.1,0.7-0.3,0.8-0.5c0.2-0.4,0.3-1,0.3-1.7
				C45.5,63.9,44.7,61.8,43.8,61z"/>
		</g>
		<path class="st68" d="M42.6,67.5c-0.7-0.6-1.3-2.1-1.3-3.4c0-0.7,0.2-1.2,0.5-1.5c-0.4,0-0.7,0.6-0.7,1.6c0,1.3,0.6,2.9,1.3,3.4
			c0.3,0.3,0.6,0.3,0.8,0.1C43,67.7,42.8,67.6,42.6,67.5z"/>
		<g>
			<path class="st69" d="M42.8,66.7c-0.5-0.4-1-1.6-1-2.5c0-0.9,0.3-1.3,0.8-1.1c-0.1-0.1-0.2-0.2-0.3-0.3c-0.2-0.2-0.4-0.2-0.6-0.2
				c-0.3,0.2-0.5,0.7-0.5,1.5c0,1.3,0.6,2.9,1.3,3.4c0.2,0.2,0.4,0.2,0.6,0.2c0.3-0.2,0.4-0.6,0.5-1.3C43.5,66.9,43.1,67,42.8,66.7z
				"/>
			<path class="st70" d="M41.8,64.2c0,1,0.4,2.1,1,2.5c0.4,0.3,0.7,0.2,0.8-0.3c0-0.1,0-0.1,0-0.2c0-1.2-0.4-2.5-1-3.2
				C42.1,62.8,41.8,63.3,41.8,64.2z"/>
		</g>
	</g>
	<g>
		<path class="st65" d="M40,55.3c0.3-1.9-0.6-3.7-1.8-4.3c-1.2-0.6-3.9,1.4-4.8,2.1c-1.1,0.9-4.2,4-4.2,4l2.2,6.4
			c0,0,2.9-1.7,5.4-3.6C38.2,58.7,39.7,57.4,40,55.3z"/>
		<path class="st66" d="M31.9,61.6c0,1.7-0.7,2.5-1.7,1.7c-0.9-0.7-1.7-2.7-1.7-4.4c0-1.7,0.7-2.5,1.7-1.7
			C31.2,57.9,31.9,59.9,31.9,61.6z"/>
		<g>
			<path class="st67" d="M31.7,56.1c-0.3-0.3-0.8-0.6-1.1-0.4c-0.1,0-0.1,0.1-0.2,0.2c0.2-0.1,0.7,0.1,1.2,0.5
				c0.9,0.7,1.6,2.7,1.6,4.4c0,0.8-0.1,1.3-0.4,1.7c-0.1,0.2-0.4,0.4-0.5,0.5c0.3-0.1,0.7-0.3,0.8-0.5c0.2-0.4,0.3-1,0.3-1.7
				C33.4,58.9,32.7,56.8,31.7,56.1z"/>
		</g>
		<path class="st68" d="M30.5,62.5c-0.7-0.6-1.3-2.1-1.3-3.4c0-0.7,0.2-1.2,0.5-1.5c-0.4,0-0.7,0.6-0.7,1.6c0,1.3,0.6,2.9,1.3,3.4
			c0.3,0.3,0.6,0.3,0.8,0.1C30.9,62.8,30.7,62.7,30.5,62.5z"/>
		<g>
			<path class="st69" d="M30.7,61.7c-0.5-0.4-1-1.6-1-2.5c0-0.9,0.3-1.3,0.8-1.1c-0.1-0.1-0.2-0.2-0.3-0.3c-0.2-0.2-0.4-0.2-0.6-0.2
				c-0.3,0.2-0.5,0.7-0.5,1.5c0,1.3,0.6,2.9,1.3,3.4c0.2,0.2,0.4,0.2,0.6,0.2c0.3-0.2,0.4-0.6,0.5-1.3C31.4,61.9,31.1,62,30.7,61.7z
				"/>
			<path class="st70" d="M29.7,59.2c0,1,0.4,2.1,1,2.5c0.4,0.3,0.7,0.2,0.8-0.3c0-0.1,0-0.1,0-0.2c0-1.2-0.4-2.5-1-3.2
				C30.1,57.9,29.7,58.3,29.7,59.2z"/>
		</g>
	</g>
	<g>
		<path class="st65" d="M19.1,38.6c0.3-1.9-0.6-3.7-1.8-4.3c-1.2-0.6-3.9,1.4-4.8,2.1c-1.1,0.9-4.2,4-4.2,4l2.2,6.4
			c0,0,2.9-1.7,5.4-3.6C17.3,42.1,18.8,40.8,19.1,38.6z"/>
		<path class="st66" d="M11,44.9c0,1.7-0.7,2.5-1.7,1.7c-0.9-0.7-1.7-2.7-1.7-4.4c0-1.7,0.7-2.5,1.7-1.7C10.3,41.3,11,43.2,11,44.9z
			"/>
		<g>
			<path class="st67" d="M10.8,39.4c-0.3-0.3-0.8-0.6-1.1-0.4c-0.1,0-0.1,0.1-0.2,0.2c0.2-0.1,0.7,0.1,1.2,0.5
				c0.9,0.7,1.6,2.7,1.6,4.4c0,0.8-0.1,1.3-0.4,1.7c-0.1,0.2-0.4,0.4-0.5,0.5c0.3-0.1,0.7-0.3,0.8-0.5c0.2-0.4,0.3-1,0.3-1.7
				C12.6,42.3,11.8,40.2,10.8,39.4z"/>
		</g>
		<path class="st68" d="M9.6,45.9c-0.7-0.6-1.3-2.1-1.3-3.4c0-0.7,0.2-1.2,0.5-1.5c-0.4,0-0.7,0.6-0.7,1.6c0,1.3,0.6,2.9,1.3,3.4
			c0.3,0.3,0.6,0.3,0.8,0.1C10,46.1,9.8,46.1,9.6,45.9z"/>
		<g>
			<path class="st69" d="M9.8,45.1c-0.5-0.4-1-1.6-1-2.5c0-0.9,0.3-1.3,0.8-1.1c-0.1-0.1-0.2-0.2-0.3-0.3C9.2,41,9,41,8.8,41
				c-0.3,0.2-0.5,0.7-0.5,1.5c0,1.3,0.6,2.9,1.3,3.4c0.2,0.2,0.4,0.2,0.6,0.2c0.3-0.2,0.4-0.6,0.5-1.3C10.5,45.3,10.2,45.4,9.8,45.1
				z"/>
			<path class="st70" d="M8.8,42.6c0,1,0.4,2.1,1,2.5c0.4,0.3,0.7,0.2,0.8-0.3c0-0.1,0-0.1,0-0.2c0-1.2-0.4-2.5-1-3.2
				C9.2,41.2,8.8,41.7,8.8,42.6z"/>
		</g>
	</g>
	<g>
		<path class="st65" d="M13.4,28.4c0.3-1.9-0.6-3.7-1.8-4.3c-1.2-0.6-3.9,1.4-4.8,2.1c-1.1,0.9-4.2,4-4.2,4l2.2,6.4
			c0,0,2.9-1.7,5.4-3.6C11.6,31.9,13.1,30.6,13.4,28.4z"/>
		<path class="st66" d="M5.3,34.7c0,1.7-0.7,2.5-1.7,1.7C2.7,35.7,2,33.8,2,32.1c0-1.7,0.7-2.5,1.7-1.7C4.6,31.1,5.3,33,5.3,34.7z"
			/>
		<g>
			<path class="st67" d="M5.1,29.2c-0.3-0.3-0.8-0.6-1.1-0.4c-0.1,0-0.1,0.1-0.2,0.2C4,28.9,4.5,29.1,5,29.4
				c0.9,0.7,1.6,2.7,1.6,4.4c0,0.8-0.1,1.3-0.4,1.7c-0.1,0.2-0.4,0.4-0.5,0.5c0.3-0.1,0.7-0.3,0.8-0.5c0.2-0.4,0.3-1,0.3-1.7
				C6.8,32.1,6.1,30,5.1,29.2z"/>
		</g>
		<path class="st68" d="M3.9,35.7c-0.7-0.6-1.3-2.1-1.3-3.4c0-0.7,0.2-1.2,0.5-1.5c-0.4,0-0.7,0.6-0.7,1.6c0,1.3,0.6,2.9,1.3,3.4
			c0.3,0.3,0.6,0.3,0.8,0.1C4.3,35.9,4.1,35.9,3.9,35.7z"/>
		<g>
			<path class="st69" d="M4.1,34.9c-0.5-0.4-1-1.6-1-2.5c0-0.9,0.3-1.3,0.8-1.1c-0.1-0.1-0.2-0.2-0.3-0.3c-0.2-0.2-0.4-0.2-0.6-0.2
				c-0.3,0.2-0.5,0.7-0.5,1.5c0,1.3,0.6,2.9,1.3,3.4c0.2,0.2,0.4,0.2,0.6,0.2c0.3-0.2,0.4-0.6,0.5-1.3C4.8,35.1,4.5,35.2,4.1,34.9z"
				/>
			<path class="st70" d="M3.1,32.4c0,1,0.4,2.1,1,2.5c0.4,0.3,0.7,0.2,0.8-0.3c0-0.1,0-0.1,0-0.2c0-1.2-0.4-2.5-1-3.2
				C3.5,31.1,3.1,31.5,3.1,32.4z"/>
		</g>
	</g>
	<g>
		<path class="st67" d="M6.6,12.5C5.7,11.7,4,10.3,3.2,10c-0.9-0.3-1.8-0.1-2.5,1.1C0.4,11.5,0,11.6,0,11.6v2.2l0,0
			c0,1.5,0.4,3.5,1.3,6.5c1,3.3,13.3,25,13.3,25l13.2-10.6C27.8,34.7,8.2,14.2,6.6,12.5z"/>
		<path class="st12" d="M14.6,43.4c0,0-12.3-21.7-13.3-25c-1.6-5.4-1.7-7.5-0.7-9.2C1.4,8,2.3,7.9,3.2,8.1C4,8.4,5.7,9.8,6.6,10.6
			c1.7,1.7,21.2,22.1,21.2,22.1L14.6,43.4z"/>
		<g>
			<path class="st64" d="M19.1,41.1c0,0-0.6-0.7-3-4c-2-2.7-5.1-7.3-8.6-13.6c-2.6-4.6-3.9-8.1-4.2-10.8c-0.2-2,0.2-3.7,0.4-4.2
				c0.1,0,0.1,0.1,0.2,0.1c-0.1,0.4-0.5,2.2-0.4,4.1c0.2,2.7,1.6,6.2,4.1,10.7c3.5,6.3,6.6,10.9,8.6,13.6c2.4,3.3,3,4,3,4L19.1,41.1
				z"/>
		</g>
		<g>
			<path class="st64" d="M22.2,37.4c-1.5-1.7-6.8-7.9-9.7-12c-3-4.1-3.5-5.4-4.7-8.7l0-0.1c-1.1-3.1-1-5-1-5.5c0-0.1,0-0.2,0-0.2
				L6.9,11c0,0,0,0,0,0.1c0,0.5-0.1,2.4,1,5.3l0,0.1c1.2,3.4,1.6,4.5,4.6,8.6c3,4.1,8.2,10.3,9.7,12L22.2,37.4z"/>
		</g>
		<g>
			<path class="st64" d="M11.3,23.6C11.3,23.6,11.3,23.6,11.3,23.6l4.4-3.5L15.5,20l-4.3,3.5C11.2,23.5,11.3,23.6,11.3,23.6z"/>
		</g>
		<g>
			<polygon class="st64" points="19.7,34.5 19.6,34.3 25,29.9 25.2,30.1 			"/>
		</g>
		<g>
			<path class="st71" d="M16.9,57.7c3.2-2,11.5-8.7,19.5-15.6c-1.1-0.7-2.2-1.6-3.2-2.7c-1.1-1.2-3.3-3.8-4.8-4.9
				c-0.6-0.4-1.1-0.8-1.6-1.1c-7.6,5.5-14.6,11-17.3,14.5C4,54.8,4.8,60.7,4.8,60.7S10.6,61.7,16.9,57.7z"/>
			<path class="st64" d="M16.9,57.7c-6.4,4-12.1,2.9-12.1,2.9s2.6,3.5,7.2,2.1c5.4-1.6,15.4-9.4,22.4-15.3c1-0.8,2.6-2.3,4.6-4.1
				c-0.9-0.3-1.8-0.7-2.7-1.3C28.4,49,20.2,55.7,16.9,57.7z"/>
			<path class="st66" d="M30.4,42.4c1.3-0.2,4.9-0.9,6-0.2c7.7-6.6,15.3-13.5,17.8-16.5c1.5-1.8,2.8-3.6,3.9-5.2
				c0-0.4,0.1-1.4-0.2-2.2C57.4,17,56.1,15.8,53,17C48.5,18.9,32.2,29.3,22,36.9c0.5,0.3,0.9,0.4,1.5,0.9c0.9,0.7,2,1.8,2.9,2.9
				C27.2,41.5,29.2,42.6,30.4,42.4z"/>
			<path class="st65" d="M55.6,26c2.4-3.4,2.5-4.7,2.5-5.5c-1,1.6-2.3,3.3-3.9,5.2c-2.6,3-10.1,9.9-17.8,16.5c0.9,0.5,1.8,1,2.7,1.3
				c2-1.8,4.4-4,6.7-6.2C49.8,33.5,53.4,29.2,55.6,26z"/>
			<path class="st72" d="M4.8,60.7c0,0,1.4-5.5,10-12.7C24.7,39.5,47,23,50.8,20.5c5.4-3.7,6.7-2.9,6.7-2.9s-1.2-2.8-8.6,2.1
				c-2.5,1.6-9.6,6.7-17,11.8c-10.5,7.2-21,15.2-23,17.7c-1,1.2-1.7,2.5-2.5,4.1C5.4,55.7,4.5,58.5,4.8,60.7z"/>
			<path class="st68" d="M5.9,54C5.8,55.1,7,56.5,9,56.6c1.9,0.1,3.6-1,3.6,0.2c0,1.1-0.6,1.9-3.5,2.1c-2.9,0.2-4-2.2-4-2.2
				S5.2,55.5,5.9,54z"/>
		</g>
		<g>
			<path class="st67" d="M68.5,64v-1.2h-0.7c-0.7-0.7-1.8-1.5-2.6-2c-2.1-1.3-27.5-17.1-27.5-17.1l-11.3,9.1l0-0.4L24.6,53v1.3
				c0,0,26.9,9.9,31,10.7c6.7,1.3,9.3,1.4,11.4,0.6C68.2,65.1,68.6,64.6,68.5,64z"/>
			<path class="st12" d="M24.6,53c0,0,26.9,9.9,31,10.7C62.4,65,65,65,67.1,64.2c1.5-0.6,1.7-1.3,1.3-2c-0.3-0.7-2.1-2.1-3.1-2.7
				c-2.1-1.3-27.5-17.1-27.5-17.1L24.6,53z"/>
		</g>
		<g>
			<path class="st64" d="M63.9,60.9c-0.7,0-1.6,0-2.6-0.1c-3.1-0.3-10.1-2-15.6-3.8c-7.7-2.5-17.4-6.9-17.5-6.9l0.2-0.2
				c0.1,0,9.6,4.3,17.3,6.9c5.5,1.8,12.4,3.5,15.5,3.8c3.6,0.4,5.3-0.1,5.3-0.1l0.2,0.2C66.8,60.6,66,60.9,63.9,60.9z"/>
		</g>
		<g>
			<path class="st64" d="M59.5,56.5c-1.7,0-5-0.2-8.4-1c-3.3-0.8-7.7-2.7-10.4-3.8c-0.6-0.2-1.1-0.5-1.5-0.6
				c-2.3-0.9-7.9-3.4-7.9-3.4l0.2-0.2c0.1,0,5.5,2.4,7.8,3.4c0.4,0.2,0.9,0.4,1.5,0.6c2.6,1.1,7,3,10.3,3.8c4.1,1,7.9,1.1,9,1
				l0.4,0.2C60.3,56.5,59.9,56.5,59.5,56.5z"/>
		</g>
		<g>
			<polygon class="st64" points="35.1,49.2 35,49 40.8,44.3 41,44.4 			"/>
		</g>
		<g>
			<polygon class="st64" points="45.5,53.5 45.4,53.3 49.8,49.8 50,49.9 			"/>
		</g>
	</g>
	<path class="st12" d="M49.1,26.4c-0.4-0.2-0.6,0.2-0.8,0.7c-0.4-0.4-1-0.7-1.4-0.7c-0.6,0.1-1.2,0.5-1.4,1.3
		c-0.1,0.5-0.1,1-0.1,1.5c0,0.4,0,0.7,0,1.1c-0.2-0.3-0.6-0.4-0.9-0.2c-0.3,0.2-0.5,0.7-0.5,1.2c-0.1,1,0.1,2,0.1,3.1
		c0,2.2,0.4,2.9,1.1,2.4c0.5-0.4,0.9-1.2,0.8-2.2c0.4,0.4,0.8,0.4,1.6,0c1.2-0.8,1.9-2.4,2.2-4C49.9,29.5,50,26.8,49.1,26.4z"/>
	<path class="st67" d="M43.5,37.3L43.5,37.3c-0.4,0.3-0.7,0-0.7-0.7v-1.8c0-0.7,0.3-1.6,0.7-1.9l0,0c0.4-0.3,0.7,0,0.7,0.7v1.8
		C44.2,36.1,43.9,37,43.5,37.3z"/>
	<path class="st66" d="M18.6,57.6L18.6,57.6c-0.4,0.3-0.7,0-0.7-0.7v-1.8c0-0.7,0.3-1.6,0.7-1.9l0,0c0.4-0.3,0.7,0,0.7,0.7v1.8
		C19.4,56.5,19,57.3,18.6,57.6z"/>
	<g>
		<path class="st68" d="M47.5,28.2C47.5,28.2,47.5,28.2,47.5,28.2c0,0.1,0,0.2,0,0.2c0,0.3,0,0.5,0,0.7c0,0.2,0,0.3,0,0.5
			c0,0.1,0,0.2,0,0.3c0,0.1,0,0.2,0,0.3c0,0.1,0,0.2,0,0.4c0,0.1,0,0.3,0,0.5c0,0,0,0,0,0.1c0,0,0,0,0,0c0,0,0,0,0,0c0,0,0,0,0,0
			c0,0,0,0,0,0c0,0,0,0,0,0c0,0,0,0.1,0,0.1c0,0.1,0,0.1,0,0.2c0,0,0,0,0,0c0,0,0,0,0,0c0,0,0,0,0,0c0,0,0,0,0,0c0,0,0,0.1,0,0.1
			c0,0.1,0,0.2,0,0.3c0,0.1,0,0.2,0,0.4c0,0.1,0,0.3,0,0.4c0,0.1,0,0.2,0,0.3c0,0.1,0,0.2,0.1,0.2c0,0,0,0.1,0,0.1
			c0,0,0,0.1-0.1,0.1c0,0-0.1,0.1-0.1,0.1c0,0,0,0-0.1,0c0,0-0.1,0-0.1-0.1c0-0.1,0-0.2,0-0.3c0-0.1,0-0.3,0-0.4c0-0.2,0-0.3,0-0.4
			c0-0.1,0-0.2,0-0.3c0-0.1,0-0.1-0.1-0.1c0,0.1-0.1,0.1-0.1,0.1c0,0-0.1,0.1-0.1,0.1c0,0-0.1,0.1-0.1,0.2c0,0.1-0.1,0.1-0.1,0.2
			c0,0.1-0.1,0.2-0.1,0.3c0,0.1-0.1,0.2-0.1,0.3c0,0.1-0.1,0.2-0.1,0.3c0,0.1-0.1,0.2-0.1,0.3c0,0,0,0-0.1,0c0,0-0.1,0-0.1,0
			c0,0,0,0,0-0.1c0,0,0-0.1,0-0.1c0,0,0-0.1,0.1-0.1c0-0.1,0-0.1,0.1-0.2c0-0.1,0-0.1,0-0.2c0-0.1,0-0.1,0-0.1c0,0,0-0.1,0-0.1
			c0,0,0,0,0,0c0-0.1,0-0.1,0-0.2c0,0,0.1-0.1,0.1-0.1c0.1-0.3,0.1-0.5,0.2-0.8c0.1-0.3,0.1-0.6,0.2-0.9c0.1-0.3,0.1-0.6,0.2-0.9
			c0.1-0.3,0.1-0.6,0.1-0.8c0-0.2,0.1-0.4,0.1-0.5c0-0.1,0.1-0.2,0.1-0.2L47.5,28.2z M46.7,31.8C46.7,31.8,46.7,31.9,46.7,31.8
			C46.7,31.9,46.7,31.9,46.7,31.8c0.1,0,0.1-0.1,0.2-0.2c0.1-0.1,0.1-0.1,0.2-0.2c0,0,0,0,0-0.1c0,0,0-0.1,0-0.1c0-0.1,0-0.3,0-0.4
			c0-0.2,0-0.3,0-0.5c0-0.2,0-0.3,0-0.4c0-0.1,0-0.2,0-0.3c0,0,0-0.1,0-0.1c0,0,0,0,0,0.1L46.7,31.8z"/>
		<path class="st68" d="M48.5,29.6C48.5,29.6,48.5,29.6,48.5,29.6C48.5,29.6,48.5,29.6,48.5,29.6c0,0.2,0,0.3-0.1,0.4
			c0,0.1,0,0.2-0.1,0.4c0,0.1,0,0.2-0.1,0.4c0,0.1-0.1,0.2-0.1,0.3c0,0.1-0.1,0.2-0.1,0.3c0,0.1-0.1,0.1-0.1,0.2
			c-0.1,0-0.1,0.1-0.1,0c0,0-0.1-0.1-0.1-0.1c0-0.1,0-0.1-0.1-0.2c0-0.1,0-0.2,0-0.2c0,0,0,0,0-0.1c0-0.1,0-0.1,0-0.2
			c0-0.1,0-0.2,0-0.3c0-0.1,0-0.2,0-0.3c0-0.1,0-0.2,0-0.3c0-0.1,0-0.1,0-0.2c0,0,0-0.1,0.1-0.1c0,0,0,0,0.1,0c0,0,0,0,0.1,0.1
			c0,0,0,0.1,0,0.1c0,0,0,0,0,0.1c0,0.1,0,0.1,0,0.2c0,0.1,0,0.2,0,0.3c0,0.1,0,0.2,0,0.3c0,0.1,0,0.2,0,0.2c0,0.1,0,0.1,0,0.1
			c0,0,0,0,0,0.1c0,0,0,0.1,0,0.1c0,0,0,0,0,0c0,0,0,0,0.1,0c0,0,0-0.1,0-0.1c0-0.1,0-0.2,0.1-0.3c0-0.1,0-0.2,0.1-0.3
			c0-0.1,0-0.2,0.1-0.3c0-0.1,0-0.2,0.1-0.3C48.4,29.7,48.4,29.6,48.5,29.6C48.4,29.6,48.5,29.6,48.5,29.6
			C48.5,29.6,48.5,29.6,48.5,29.6z M47.9,28.9C47.9,28.9,47.9,28.9,47.9,28.9c0-0.2,0-0.2,0-0.3c0-0.1,0-0.1,0-0.2
			c0-0.1,0-0.1,0-0.1c0,0,0.1-0.1,0.1-0.1c0,0,0.1,0,0.1,0c0,0,0,0,0.1,0.1c0,0,0,0.1,0,0.1c0,0,0,0.1,0,0.1c0,0,0,0.1,0,0.1
			c0,0,0,0.1,0,0.1c0,0,0,0.1,0,0.1c0,0,0,0,0,0c0,0,0,0-0.1,0C48,28.9,48,28.9,47.9,28.9C47.9,28.9,47.9,28.9,47.9,28.9z"/>
		<path class="st68" d="M48.8,28.2c0,0,0,0.1,0,0.1c0,0.1,0,0.2,0,0.3c0,0.1,0,0.2-0.1,0.3c0,0.1,0,0.2,0,0.2c0,0,0,0,0,0
			c0,0,0,0,0,0c0,0,0,0,0.1,0c0,0,0.1,0,0.1,0c0,0,0,0,0.1,0.1c0,0,0,0.1,0,0.1c0,0.1,0,0.1,0,0.3c0,0.1,0,0.3,0,0.4
			c0,0.2,0,0.3-0.1,0.5c0,0.2,0,0.3-0.1,0.4c0,0.1,0,0.2,0,0.3c0,0.1,0,0.1,0,0.1c0,0,0-0.1,0.1-0.2c0-0.1,0.1-0.2,0.1-0.4
			c0-0.1,0.1-0.3,0.1-0.5c0-0.2,0.1-0.4,0.1-0.5c0-0.2,0.1-0.3,0.1-0.5c0-0.1,0-0.3,0.1-0.4c0,0,0,0,0,0c0,0,0,0,0,0c0,0,0,0,0,0
			c0,0,0,0,0,0.1c0,0.1,0,0.2-0.1,0.4c0,0.2-0.1,0.3-0.1,0.5c0,0.2-0.1,0.4-0.1,0.6c0,0.2-0.1,0.4-0.1,0.6c0,0.2-0.1,0.3-0.1,0.4
			c0,0.1-0.1,0.2-0.1,0.2c0,0-0.1,0-0.1,0c0,0-0.1,0-0.1,0c0,0-0.1,0-0.1-0.1c0,0,0-0.1,0-0.2c0-0.1,0-0.3,0-0.4
			c0-0.2,0-0.3,0.1-0.5c0-0.1,0-0.3,0.1-0.4c0-0.1,0-0.2,0-0.2c0-0.1,0-0.1,0-0.1c0,0,0-0.1,0-0.1c0,0,0,0-0.1,0c0,0-0.1,0-0.1-0.1
			c0,0-0.1-0.1-0.1-0.1c0,0-0.1-0.1-0.1-0.2c0-0.1,0-0.2,0-0.3c0-0.1,0-0.3,0.1-0.4c0-0.2,0.1-0.3,0.1-0.4c0-0.1,0.1-0.2,0.1-0.3
			c0,0,0,0,0.1,0c0,0,0,0,0,0C48.8,28,48.8,28.1,48.8,28.2C48.8,28.1,48.8,28.1,48.8,28.2z M48.5,29.1
			C48.5,29.1,48.5,29.1,48.5,29.1C48.5,29.1,48.6,29.1,48.5,29.1C48.6,29.1,48.6,29.1,48.5,29.1C48.6,29.1,48.6,29.1,48.5,29.1
			c0.1-0.1,0.1-0.1,0.1-0.1c0,0,0-0.1,0-0.1c0-0.1,0-0.2,0-0.2c0,0,0,0,0,0.1c0,0.1,0,0.1,0,0.2C48.6,28.9,48.5,29,48.5,29.1z"/>
	</g>
	<g>
		<path class="st68" d="M20.2,55.4L20.2,55.4c-0.2,0.2-0.4,0-0.4-0.5v-1.1c0-0.5,0.2-1,0.4-1.2l0,0c0.2-0.2,0.4,0,0.4,0.5v1.1
			C20.6,54.6,20.4,55.2,20.2,55.4z"/>
		<path class="st68" d="M18.6,56.4L18.6,56.4c-0.2,0.2-0.4,0-0.4-0.5v-1.1c0-0.5,0.2-1,0.4-1.2l0,0c0.2-0.2,0.4,0,0.4,0.5v1.1
			C19.1,55.7,18.9,56.2,18.6,56.4z"/>
		<path class="st68" d="M21.5,54.4L21.5,54.4c-0.2,0.2-0.4,0-0.4-0.5v-1.1c0-0.5,0.2-1,0.4-1.2l0,0c0.2-0.2,0.4,0,0.4,0.5v1.1
			C22,53.7,21.8,54.2,21.5,54.4z"/>
		<path class="st68" d="M22.9,53.3L22.9,53.3c-0.2,0.2-0.4,0-0.4-0.5v-1.1c0-0.5,0.2-1,0.4-1.2l0,0c0.2-0.2,0.4,0,0.4,0.5v1.1
			C23.4,52.6,23.2,53.1,22.9,53.3z"/>
		<path class="st68" d="M24.3,52.3L24.3,52.3c-0.2,0.2-0.4,0-0.4-0.5v-1.1c0-0.5,0.2-1,0.4-1.2l0,0c0.2-0.2,0.4,0,0.4,0.5v1.1
			C24.7,51.6,24.5,52.1,24.3,52.3z"/>
	</g>
	<g>
		<path class="st68" d="M25.7,51.2L25.7,51.2c-0.2,0.2-0.4,0-0.4-0.5v-1.1c0-0.5,0.2-1,0.4-1.2l0,0c0.2-0.2,0.4,0,0.4,0.5V50
			C26.1,50.4,25.9,51,25.7,51.2z"/>
		<path class="st68" d="M27,50.1L27,50.1c-0.2,0.2-0.4,0-0.4-0.5v-1.1c0-0.5,0.2-1,0.4-1.2l0,0c0.2-0.2,0.4,0,0.4,0.5v1.1
			C27.5,49.3,27.3,49.9,27,50.1z"/>
		<path class="st68" d="M28.4,48.9L28.4,48.9c-0.2,0.2-0.4,0-0.4-0.5v-1.1c0-0.5,0.2-1,0.4-1.2l0,0c0.2-0.2,0.4,0,0.4,0.5v1.1
			C28.8,48.2,28.6,48.7,28.4,48.9z"/>
		<path class="st68" d="M29.8,47.8L29.8,47.8c-0.2,0.2-0.4,0-0.4-0.5v-1.1c0-0.5,0.2-1,0.4-1.2l0,0c0.2-0.2,0.4,0,0.4,0.5v1.1
			C30.2,47.1,30,47.6,29.8,47.8z"/>
	</g>
	<g>
		<path class="st68" d="M31.1,46.6L31.1,46.6c-0.2,0.2-0.4,0-0.4-0.5V45c0-0.5,0.2-1,0.4-1.2l0,0c0.2-0.2,0.4,0,0.4,0.5v1.1
			C31.6,45.9,31.4,46.4,31.1,46.6z"/>
		<path class="st68" d="M32.5,45.5L32.5,45.5c-0.2,0.2-0.4,0-0.4-0.5v-1.1c0-0.5,0.2-1,0.4-1.2l0,0c0.2-0.2,0.4,0,0.4,0.5v1.1
			C33,44.7,32.8,45.3,32.5,45.5z"/>
		<path class="st68" d="M33.9,44.3L33.9,44.3c-0.2,0.2-0.4,0-0.4-0.5v-1.1c0-0.5,0.2-1,0.4-1.2l0,0c0.2-0.2,0.4,0,0.4,0.5v1.1
			C34.3,43.6,34.1,44.1,33.9,44.3z"/>
		<path class="st68" d="M35.2,43.2L35.2,43.2c-0.2,0.2-0.4,0-0.4-0.5v-1.1c0-0.5,0.2-1,0.4-1.2l0,0c0.2-0.2,0.4,0,0.4,0.5V42
			C35.7,42.5,35.5,43,35.2,43.2z"/>
	</g>
	<g>
		<path class="st68" d="M36.6,42L36.6,42c-0.2,0.2-0.4,0-0.4-0.5v-1.1c0-0.5,0.2-1,0.4-1.2l0,0c0.2-0.2,0.4,0,0.4,0.5v1.1
			C37.1,41.3,36.9,41.8,36.6,42z"/>
		<path class="st68" d="M38,40.8L38,40.8c-0.2,0.2-0.4,0-0.4-0.5v-1.1c0-0.5,0.2-1,0.4-1.2l0,0c0.2-0.2,0.4,0,0.4,0.5v1.1
			C38.4,40.1,38.2,40.6,38,40.8z"/>
		<path class="st68" d="M39.4,39.7L39.4,39.7c-0.2,0.2-0.4,0-0.4-0.5v-1.1c0-0.5,0.2-1,0.4-1.2l0,0c0.2-0.2,0.4,0,0.4,0.5v1.1
			C39.8,39,39.6,39.5,39.4,39.7z"/>
		<path class="st68" d="M40.7,38.5L40.7,38.5c-0.2,0.2-0.4,0-0.4-0.5v-1.1c0-0.5,0.2-1,0.4-1.2l0,0c0.2-0.2,0.4,0,0.4,0.5v1.1
			C41.2,37.8,41,38.3,40.7,38.5z"/>
	</g>
	<g>
		<path class="st68" d="M40.7,38.5L40.7,38.5c-0.2,0.2-0.4,0-0.4-0.5v-1.1c0-0.5,0.2-1,0.4-1.2l0,0c0.2-0.2,0.4,0,0.4,0.5v1.1
			C41.2,37.8,41,38.3,40.7,38.5z"/>
		<path class="st68" d="M42.1,37.3L42.1,37.3c-0.2,0.2-0.4,0-0.4-0.5v-1.1c0-0.5,0.2-1,0.4-1.2l0,0c0.2-0.2,0.4,0,0.4,0.5v1.1
			C42.5,36.6,42.3,37.1,42.1,37.3z"/>
		<path class="st68" d="M43.5,36L43.5,36c-0.2,0.2-0.4,0-0.4-0.5v-1.1c0-0.5,0.2-1,0.4-1.2l0,0c0.2-0.2,0.4,0,0.4,0.5v1.1
			C43.9,35.3,43.7,35.8,43.5,36z"/>
		<path class="st68" d="M44.8,34.8L44.8,34.8c-0.2,0.2-0.4,0-0.4-0.5v-1.1c0-0.5,0.2-1,0.4-1.2l0,0c0.2-0.2,0.4,0,0.4,0.5v1.1
			C45.3,34.1,45.1,34.6,44.8,34.8z"/>
	</g>
	<path class="st67" d="M66.8,27.6v-0.7l-0.4,0.1c-0.3-0.3-0.8-0.6-1.5-1c-3.3-1.7-7.7-3.6-7.7-3.6s-0.7,0.7-3.2,3.3
		c-0.5,0.5-1.5,1.4-2.3,2.1v-0.2l-1.3,0.6v0.7c0,0,8.7,0.3,12.6,0.2c2.1,0,3-0.4,3.6-1.1C66.8,27.8,66.8,27.7,66.8,27.6z"/>
	<path class="st12" d="M50.5,28.1c0,0,8.7,0.3,12.6,0.2c2.1,0,3-0.4,3.6-1.1c0.4-0.5-0.2-1.1-1.7-1.9c-3.3-1.7-7.7-3.6-7.7-3.6
		s-0.7,0.7-3.2,3.3C53.3,25.9,50.5,28.1,50.5,28.1z"/>
	<g>
		<path class="st65" d="M55.1,0.5L54.6,0c0,0,0,0,0,0l0,0l0,0c-0.2-0.1-0.4,0.1-0.8,0.7c-0.6,0.9-1.4,3-2.5,8.6
			c-0.8,4.3-1.6,10.6-1.6,10.6l0.6,0.5l0.3-1c0.7-0.4,1.5-1,1.9-1.2c0.6-0.3,2.4-1.3,2.4-1.3s0-8.9,0-12.5c0-1,0-1.9,0-2.5l0,0
			L55.1,0.5z"/>
		<path class="st65" d="M54.3,1.2c-0.6,0.9-1.4,3-2.5,8.6C51,14,50.2,20.3,50.2,20.3s2.1-1.4,2.8-1.8c0.6-0.3,2.4-1.3,2.4-1.3
			s0-8.9,0-12.5C55.5,0.4,55.4-0.3,54.3,1.2z"/>
	</g>
	<g>
		<path class="st64" d="M59.5,26.4c-0.1,0-0.1,0-0.2,0c-2.8,0-6.4-0.2-6.5-0.2l0.3-0.3c0,0,3.4,0.2,6.2,0.2c3,0,4.9-0.5,5.8-0.8
			l0.3,0.1C64.5,25.9,62.4,26.4,59.5,26.4z"/>
	</g>
	<g>
		<path class="st64" d="M59.5,24.5c-0.1,0-0.3,0-0.4,0c-1-0.1-3.3-1.1-3.4-1.1l0.2-0.2c0,0,2.3,0.9,3.3,1c1.5,0.2,2.5-0.7,2.5-0.7
			l0.2,0.1C61.7,23.8,60.8,24.5,59.5,24.5z"/>
	</g>
	<g>
		<path class="st12" d="M53.2,18.5c0.2-4.9,0.7-9.2,0.9-10.2c0.3-1.8,0.9-2.6,1.3-3c0,0.1,0,0.3,0,0.4c-0.4,0.4-0.9,1.1-1.2,2.7
			c-0.2,1-0.6,5.2-0.9,10C53.3,18.5,53.4,18.4,53.2,18.5z"/>
	</g>
</g>
</svg>
