<?xml version="1.0" encoding="utf-8"?>
<!-- Generator: Adobe Illustrator 25.2.1, SVG Export Plug-In . SVG Version: 6.00 Build 0)  -->
<svg version="1.1" id="bold" xmlns="http://www.w3.org/2000/svg" xmlns:xlink="http://www.w3.org/1999/xlink" x="0px" y="0px"
	 viewBox="0 0 68.5 68.5" style="enable-background:new 0 0 68.5 68.5;" xml:space="preserve">
<style type="text/css">
	.st0{fill:#FC573B;}
	.st1{fill:#FD907E;}
	.st2{fill:#FFAC96;}
	.st3{fill:#FFBCAB;}
	.st4{fill:#006DF0;}
	.st5{fill:#D80027;}
	.st6{fill:#BD0022;}
	.st7{fill:#F1F2F2;}
	.st8{fill:#858585;}
	.st9{fill:#57A5FF;}
	.st10{fill:#4481C7;}
	.st11{fill:#FFD45A;}
	.st12{fill:#FFFFFF;}
	.st13{fill:#D64528;}
	.st14{fill:#FF914D;}
	.st15{fill:#3449A3;}
	.st16{fill:#2E872B;}
	.st17{fill:#D97B41;}
	.st18{fill:#226320;}
	.st19{fill:#2A3B85;}
	.st20{fill:#B53A22;}
	.st21{fill:url(#SVGID_1_);}
	.st22{fill:url(#SVGID_2_);}
	.st23{fill:url(#SVGID_3_);}
	.st24{fill:url(#SVGID_4_);}
	.st25{fill:url(#SVGID_5_);}
	.st26{opacity:0.5;fill:url(#SVGID_6_);enable-background:new    ;}
	.st27{fill:url(#SVGID_7_);}
	.st28{opacity:0.5;fill:url(#SVGID_8_);enable-background:new    ;}
	.st29{fill:url(#SVGID_9_);}
	.st30{fill:url(#SVGID_10_);}
	.st31{opacity:0.6;fill:url(#SVGID_11_);enable-background:new    ;}
	.st32{fill:url(#SVGID_12_);}
	.st33{fill:url(#SVGID_13_);}
	.st34{fill:url(#SVGID_14_);}
	.st35{fill:url(#SVGID_15_);}
	.st36{fill:url(#SVGID_16_);}
	.st37{opacity:0.5;fill:url(#SVGID_17_);enable-background:new    ;}
	.st38{fill:url(#SVGID_18_);}
	.st39{opacity:0.6;fill:url(#SVGID_19_);enable-background:new    ;}
	.st40{fill:url(#SVGID_20_);}
	.st41{fill:url(#SVGID_21_);}
	.st42{fill:url(#SVGID_22_);}
	.st43{opacity:0.3;fill:url(#SVGID_23_);enable-background:new    ;}
	.st44{fill:#23292E;}
	.st45{fill:#2E373D;}
	.st46{fill:#CECECE;}
	.st47{fill:#525E65;}
	.st48{fill:#627681;}
	.st49{fill:#E33400;}
	.st50{fill:#872E02;}
	.st51{fill:#82A5B9;}
	.st52{fill-rule:evenodd;clip-rule:evenodd;fill:#F9AC00;}
	.st53{fill-rule:evenodd;clip-rule:evenodd;fill:#FDC72E;}
	.st54{fill:#F9C795;}
	.st55{fill-rule:evenodd;clip-rule:evenodd;fill:#FDD7AD;}
	.st56{fill-rule:evenodd;clip-rule:evenodd;fill:#E6B17C;}
	.st57{fill:#2A92FA;}
	.st58{fill-rule:evenodd;clip-rule:evenodd;fill:#0E82F5;}
	.st59{fill-rule:evenodd;clip-rule:evenodd;fill:#F0414A;}
	.st60{fill-rule:evenodd;clip-rule:evenodd;fill:#FB545C;}
	.st61{fill-rule:evenodd;clip-rule:evenodd;fill:#3BD97D;}
	.st62{fill-rule:evenodd;clip-rule:evenodd;fill:#4FE88E;}
	.st63{fill-rule:evenodd;clip-rule:evenodd;fill:#2A92FA;}
	.st64{fill:#DDD3D3;}
	.st65{fill:#DB2C2C;}
	.st66{fill:#F13B3B;}
	.st67{fill:#CEC4C4;}
	.st68{fill:#332522;}
	.st69{fill:#47342F;}
	.st70{fill:#604843;}
	.st71{fill:#E5E3E3;}
	.st72{opacity:0.3;fill:#FFFFFF;}
	.st73{fill:#F8F8FF;}
	.st74{fill:#D8D7F9;}
	.st75{fill:#B889E0;}
	.st76{fill:#EFC7F9;}
	.st77{fill:#2D1164;}
	.st78{fill:#FFB6B1;}
	.st79{fill:#F47382;}
	.st80{fill:#C64F60;}
	.st81{opacity:0.33;}
	.st82{fill:#B9B9EA;}
	.st83{fill:#D3D3F4;}
	.st84{fill:#E8E8FC;}
	.st85{fill:#7E4DC4;}
	.st86{fill:#5642AD;}
	.st87{fill:#FEA046;}
	.st88{fill:#E15254;}
	.st89{opacity:0.53;}
	.st90{fill:#FFD1AB;}
	.st91{fill:#322277;}
	.st92{fill:#8AC9FE;}
	.st93{fill:#BFBFBF;}
	.st94{fill:#F8F6F6;}
	.st95{fill:#E2E2E2;}
	.st96{fill:#FE646F;}
	.st97{fill:#FD4755;}
	.st98{fill:#FED2A4;}
	.st99{fill:#FFBD86;}
	.st100{fill:#FFE5C2;}
	.st101{fill:#9C9C9C;}
	.st102{fill:#838383;}
	.st103{fill:#26A6FE;}
	.st104{fill:#0593FC;}
	.st105{fill:#EAF6FF;}
	.st106{fill:#0172FB;}
	.st107{fill:#25303F;}
	.st108{fill:#D33D48;}
	.st109{fill:#394456;}
	.st110{fill:#F4D72F;}
	.st111{fill:#FFA488;}
	.st112{fill:#E27466;}
	.st113{fill:#FFC4B6;}
	.st114{fill:#CC9D19;}
	.st115{fill:#EFCC3C;}
	.st116{fill:#FCE275;}
	.st117{fill:#EFBE35;}
	.st118{fill:#E0B52B;}
	.st119{fill:#76D6C4;}
	.st120{fill:#5B6A7F;}
	.st121{fill:#528432;}
	.st122{fill:#80BC50;}
	.st123{fill:#B2B8BF;}
	.st124{fill:#E2F2FA;}
	.st125{fill:#5BB3FF;}
	.st126{fill:#5CA7D9;}
	.st127{fill:#FF9D43;}
	.st128{fill:#00477F;}
	.st129{fill:#B6E0F4;}
	.st130{fill:#1C90CF;}
	.st131{fill:url(#SVGID_24_);}
	.st132{fill:#FFBCA5;}
	.st133{fill:#F8FBFF;}
	.st134{fill:#E0EFFF;}
	.st135{fill:#FFB59E;}
	.st136{fill:none;stroke:#000000;stroke-width:0.75;stroke-linecap:round;stroke-linejoin:round;stroke-miterlimit:10;}
	.st137{fill:#BEE9EB;}
	.st138{fill:#FFF6BC;}
	.st139{fill:#FF6E15;}
	.st140{fill:#7FCEED;}
	.st141{fill:#212121;}
	.st142{fill:#383838;}
	.st143{fill:#2A2A2A;}
	.st144{fill:#F5B0A6;}
	.st145{opacity:0.6;}
	.st146{fill:#F18A8B;}
	.st147{fill:#D37A7F;}
	.st148{fill:#0F0F0F;}
	.st149{fill:#202020;}
	.st150{fill:#1D1D1D;}
	.st151{fill:#2E6857;}
	.st152{fill:#255144;}
	.st153{fill:#40947E;}
	.st154{fill:#6FC183;}
	.st155{fill:#7A8DB0;}
	.st156{opacity:0.41;}
	.st157{fill:#243354;}
	.st158{fill:#EAEAEA;}
	.st159{fill:#2F4171;}
	.st160{fill:#2C4DA2;}
	.st161{fill:#99B1DA;}
	.st162{fill:#B5CAE8;}
	.st163{fill:#EDA9A2;}
	.st164{fill:#3D5891;}
	.st165{fill:#5681BF;}
	.st166{fill:#D1DBED;}
	.st167{opacity:0.35;}
	.st168{fill:#233F7C;}
	.st169{fill:#D2D2D2;}
	.st170{fill:#F19A6D;}
	.st171{fill:#7A7A7A;}
	.st172{fill:#F3CE90;}
	.st173{opacity:0.31;}
	.st174{fill:#292929;}
	.st175{fill:#515151;}
	.st176{fill:#3F3F3F;}
	.st177{fill-rule:evenodd;clip-rule:evenodd;fill:#D1DBED;}
	.st178{fill-rule:evenodd;clip-rule:evenodd;fill:#FFFFFF;}
	.st179{opacity:0.79;}
	.st180{opacity:0.28;}
	.st181{fill:#393939;}
	.st182{opacity:0.55;}
	.st183{fill:#A8A8A8;}
	.st184{fill:#B7B7B7;}
	.st185{fill:#EF7C59;}
	.st186{fill:#A0A0A0;}
	.st187{fill:#B9B9B9;}
	.st188{fill-rule:evenodd;clip-rule:evenodd;fill:#3D5891;}
	.st189{fill-rule:evenodd;clip-rule:evenodd;fill:#5681BF;}
	.st190{fill-rule:evenodd;clip-rule:evenodd;fill:#B5CAE8;}
	.st191{opacity:0.45;}
	.st192{fill-rule:evenodd;clip-rule:evenodd;fill:#99B1DA;}
	.st193{fill:#F0F0F0;}
	.st194{fill:#EACDB0;}
	.st195{fill:#A1BDCC;}
	.st196{fill:#8C9498;}
	.st197{fill:#3A3029;}
	.st198{fill:#59595B;}
	.st199{opacity:0.26;}
	.st200{fill:none;}
	.st201{fill:#6596C1;}
	.st202{fill:#5A8FB7;}
	.st203{fill:#C2969C;}
	.st204{fill:#754C3D;}
	.st205{fill:#F2D263;}
	.st206{fill:#AECCDC;}
	.st207{fill:#DEC2A7;}
	.st208{fill:#8AAD9F;}
	.st209{fill:#9E6652;}
	.st210{fill:#514943;}
	.st211{fill:#CAB5A1;}
	.st212{fill:#BCAC98;}
	.st213{fill:#D3C2A4;}
	.st214{fill:#37454D;}
	.st215{fill:#4F3C22;}
	.st216{fill:#DACAAF;}
	.st217{fill:#B26650;}
	.st218{fill:#2E4661;}
	.st219{fill:#FFFFF1;}
	.st220{fill:#FFD3A4;}
	.st221{fill:#FFBE84;}
	.st222{fill:#D65A2F;}
	.st223{fill:#A03914;}
	.st224{fill:#FFAF3E;}
	.st225{fill:#314652;}
	.st226{fill:#3C3A41;}
	.st227{fill:#FF9500;}
	.st228{fill:#E9336D;}
</style>
<g>
	<g>
		
			<linearGradient id="SVGID_1_" gradientUnits="userSpaceOnUse" x1="-589.9582" y1="286.661" x2="-589.9582" y2="286.229" gradientTransform="matrix(10.6667 0 0 -10.6667 6356.7744 3091.8499)">
			<stop  offset="0" style="stop-color:#5F5F60"/>
			<stop  offset="1" style="stop-color:#282828"/>
		</linearGradient>
		<path class="st21" d="M63.5,34.2c-1.2,0.7-1,2.9-1,2.9l1.1,0.2h-4.4v1.4c0.8,0,1.8,0,2.7,0h0l0,0c3.3-0.1,6.5-0.5,6.6-1.9
			C68.7,34,64.7,33.5,63.5,34.2z"/>
		
			<linearGradient id="SVGID_2_" gradientUnits="userSpaceOnUse" x1="-490.8423" y1="286.661" x2="-490.8423" y2="286.229" gradientTransform="matrix(-10.6667 0 0 -10.6667 -5230.9985 3091.8499)">
			<stop  offset="0" style="stop-color:#5F5F60"/>
			<stop  offset="1" style="stop-color:#282828"/>
		</linearGradient>
		<path class="st22" d="M5.1,34.2c1.2,0.7,1,2.9,1,2.9l-1.1,0.2h4.4v1.4c-0.8,0-1.8,0-2.7,0h0l0,0c-3.3-0.1-6.5-0.5-6.6-1.9
			C-0.1,34,3.8,33.5,5.1,34.2L5.1,34.2z"/>
		
			<linearGradient id="SVGID_3_" gradientUnits="userSpaceOnUse" x1="-589.7524" y1="286.6667" x2="-589.8669" y2="286.4846" gradientTransform="matrix(10.6667 0 0 -10.6667 6356.7744 3091.8499)">
			<stop  offset="0" style="stop-color:#FFFFFF"/>
			<stop  offset="0.9974" style="stop-color:#FFFFFF;stop-opacity:0"/>
		</linearGradient>
		<ellipse class="st23" cx="65.3" cy="35.3" rx="1.9" ry="1.2"/>
		
			<linearGradient id="SVGID_4_" gradientUnits="userSpaceOnUse" x1="-489.0818" y1="286.6668" x2="-489.1963" y2="286.4847" gradientTransform="matrix(-10.6667 0 0 -10.6667 -5214.3374 3091.8499)">
			<stop  offset="0" style="stop-color:#FFFFFF"/>
			<stop  offset="0.9974" style="stop-color:#FFFFFF;stop-opacity:0"/>
		</linearGradient>
		<ellipse class="st24" cx="3.3" cy="35.3" rx="1.9" ry="1.2"/>
		
			<linearGradient id="SVGID_5_" gradientUnits="userSpaceOnUse" x1="-590.452" y1="284.1474" x2="-590.452" y2="283.4271" gradientTransform="matrix(10.6667 0 0 -10.6667 6356.7744 3091.8499)">
			<stop  offset="0" style="stop-color:#5F5F60"/>
			<stop  offset="1" style="stop-color:#282828"/>
		</linearGradient>
		<path class="st25" d="M52.3,60.6V66c0,1.4,1.3,2.6,2.9,2.6H62c1.6,0,2.9-1.2,2.9-2.6v-5.4H52.3z"/>
		
			<linearGradient id="SVGID_6_" gradientUnits="userSpaceOnUse" x1="-590.4442" y1="284.1474" x2="-590.4442" y2="283.4271" gradientTransform="matrix(10.6667 0 0 -10.6667 6356.7744 3091.8499)">
			<stop  offset="0" style="stop-color:#5F5F60"/>
			<stop  offset="1" style="stop-color:#282828"/>
		</linearGradient>
		<path class="st26" d="M63.1,60.6c0,3.5-3.2,6.4-7.2,6.4h-2.5c-0.3,0-0.6-0.1-0.9-0.2c0.4,1,1.5,1.8,2.7,1.8H62
			c1.6,0,2.9-1.2,2.9-2.6v-5.4L63.1,60.6L63.1,60.6z"/>
		
			<linearGradient id="SVGID_7_" gradientUnits="userSpaceOnUse" x1="-595.0177" y1="284.1474" x2="-595.0177" y2="283.4271" gradientTransform="matrix(10.6667 0 0 -10.6667 6356.7744 3091.8499)">
			<stop  offset="0" style="stop-color:#5F5F60"/>
			<stop  offset="1" style="stop-color:#282828"/>
		</linearGradient>
		<path class="st27" d="M3.6,60.6V66c0,1.4,1.3,2.6,2.9,2.6h6.8c1.6,0,2.9-1.2,2.9-2.6v-5.4H3.6z"/>
		
			<linearGradient id="SVGID_8_" gradientUnits="userSpaceOnUse" x1="-595.0099" y1="284.1474" x2="-595.0099" y2="283.4271" gradientTransform="matrix(10.6667 0 0 -10.6667 6356.7744 3091.8499)">
			<stop  offset="0" style="stop-color:#5F5F60"/>
			<stop  offset="1" style="stop-color:#282828"/>
		</linearGradient>
		<path class="st28" d="M14.4,60.6c0,3.5-3.2,6.4-7.2,6.4H4.7c-0.3,0-0.6-0.1-0.9-0.2c0.4,1,1.5,1.8,2.7,1.8h6.8
			c1.6,0,2.9-1.2,2.9-2.6v-5.4L14.4,60.6L14.4,60.6z"/>
		
			<linearGradient id="SVGID_9_" gradientUnits="userSpaceOnUse" x1="-592.7348" y1="286.2015" x2="-592.7348" y2="284.2761" gradientTransform="matrix(10.6667 0 0 -10.6667 6356.7744 3091.8499)">
			<stop  offset="0" style="stop-color:#76CCF8"/>
			<stop  offset="1" style="stop-color:#4981F8"/>
		</linearGradient>
		<path class="st29" d="M6.8,38.2h54.9l5.7,6.5c0.8,0.9,1.2,2.1,1.2,3.2v11.1c0,2.6-2.4,4.7-5.3,4.7h-58c-2.9,0-5.3-2.1-5.3-4.7V48
			c0-1.2,0.4-2.3,1.2-3.2L6.8,38.2z"/>
		
			<linearGradient id="SVGID_10_" gradientUnits="userSpaceOnUse" x1="-592.7391" y1="286.3015" x2="-592.7391" y2="287.705" gradientTransform="matrix(10.6667 0 0 -10.6667 6356.7744 3091.8499)">
			<stop  offset="0" style="stop-color:#76CCF8"/>
			<stop  offset="1" style="stop-color:#4981F8"/>
		</linearGradient>
		<path class="st30" d="M6.8,38.2l6.5-13.8c0.7-1.3,2.2-2.2,3.8-2.2h34.3c1.6,0,3.1,0.8,3.8,2.2l6.4,13.8L6.8,38.2L6.8,38.2z"/>
		<path class="st12" d="M58.2,34.9l-4.3-9.9c-0.2-0.5-0.7-0.7-1.2-0.7h-37c-0.5,0-1,0.3-1.2,0.7l-4.3,9.9c-0.4,0.8,0.3,1.7,1.2,1.7
			h45.6C58,36.6,58.6,35.7,58.2,34.9L58.2,34.9z"/>
		
			<linearGradient id="SVGID_11_" gradientUnits="userSpaceOnUse" x1="-594.9933" y1="287.0044" x2="-590.4803" y2="287.0044" gradientTransform="matrix(10.6667 0 0 -10.6667 6356.7744 3091.8499)">
			<stop  offset="0" style="stop-color:#EEF4FF"/>
			<stop  offset="1" style="stop-color:#5BDBFD"/>
		</linearGradient>
		<path class="st31" d="M58.2,34.9l-4.3-9.9c-0.2-0.5-0.7-0.7-1.2-0.7h-3.2c1.9,4.4-1.4,9.3-6.3,9.3H10.9l-0.6,1.3
			c-0.4,0.8,0.3,1.7,1.2,1.7h45.6C58,36.6,58.6,35.7,58.2,34.9z"/>
		<g>
			<g>
				<path class="st12" d="M52.8,52.6c1.5-1,5.6-3.4,9.2-3.6c1.7-0.1,3.2,1,3.4,2.4c0.1,0.8,0,1.8-0.8,2.5c-1.4,1.3-8,1.2-11,1.1
					c-0.8,0-1.5-0.6-1.5-1.4C52.2,53.3,52.4,52.9,52.8,52.6L52.8,52.6z"/>
				
					<linearGradient id="SVGID_12_" gradientUnits="userSpaceOnUse" x1="-555.6976" y1="284.8758" x2="-554.5099" y2="284.8758" gradientTransform="matrix(-10.6667 0 0 -10.6667 -5862.5933 3091.8499)">
					<stop  offset="0" style="stop-color:#D0E4FF"/>
					<stop  offset="1" style="stop-color:#C2CFFD"/>
				</linearGradient>
				<path class="st32" d="M52.8,52.6c0.5-0.4,1.4-0.9,2.4-1.4c-0.3,0.2-0.6,0.3-0.8,0.5c-0.4,0.3-0.6,0.7-0.6,1.1
					c0,0.7,0.6,1.3,1.5,1.4c2.4,0.1,7,0.2,9.5-0.5c-0.1,0.1-0.1,0.2-0.2,0.3c-1.4,1.3-8,1.2-11,1.1c-0.8,0-1.5-0.6-1.5-1.4
					C52.2,53.3,52.4,52.9,52.8,52.6L52.8,52.6z"/>
			</g>
			<g>
				<path class="st12" d="M15.7,52.6c-1.5-1-5.6-3.4-9.2-3.6c-1.7-0.1-3.2,1-3.4,2.4c-0.1,0.8,0,1.8,0.8,2.5c1.4,1.3,8,1.2,11,1.1
					c0.8,0,1.5-0.6,1.5-1.4C16.4,53.3,16.1,52.9,15.7,52.6L15.7,52.6z"/>
				
					<linearGradient id="SVGID_13_" gradientUnits="userSpaceOnUse" x1="-595.6015" y1="284.8758" x2="-594.4138" y2="284.8758" gradientTransform="matrix(10.6667 0 0 -10.6667 6356.7744 3091.8499)">
					<stop  offset="0" style="stop-color:#D0E4FF"/>
					<stop  offset="1" style="stop-color:#C2CFFD"/>
				</linearGradient>
				<path class="st33" d="M15.7,52.6c-0.5-0.4-1.4-0.9-2.4-1.4c0.3,0.2,0.6,0.3,0.8,0.5c0.4,0.3,0.6,0.7,0.6,1.1
					c0,0.7-0.6,1.3-1.5,1.4c-2.4,0.1-7,0.2-9.5-0.5c0.1,0.1,0.1,0.2,0.2,0.3c1.4,1.3,8,1.2,11,1.1c0.8,0,1.5-0.6,1.5-1.4
					C16.4,53.3,16.1,52.9,15.7,52.6L15.7,52.6z"/>
			</g>
		</g>
		
			<linearGradient id="SVGID_14_" gradientUnits="userSpaceOnUse" x1="-592.7348" y1="286.4311" x2="-592.7348" y2="285.4838" gradientTransform="matrix(10.6667 0 0 -10.6667 6356.7744 3091.8499)">
			<stop  offset="0" style="stop-color:#197BFF"/>
			<stop  offset="0.3295" style="stop-color:#257CFD;stop-opacity:0.671"/>
			<stop  offset="0.9218" style="stop-color:#4480F9;stop-opacity:7.800000e-02"/>
			<stop  offset="1" style="stop-color:#4981F8;stop-opacity:0"/>
		</linearGradient>
		<path class="st34" d="M62.9,42.6l-1.8-2.3c-0.4-0.5-1.1-0.8-1.8-0.8H9.1c-0.8,0-1.5,0.3-1.9,0.9l-1.6,2.2
			c-0.6,1.1-0.1,2.5,0.9,2.8l8.2,2.8c1.6,0.5,3.2,0.8,4.9,0.8h13.8h1.8h13.8c1.7,0,3.3-0.3,4.9-0.8l8.2-2.8
			C63,45,63.5,43.6,62.9,42.6L62.9,42.6z"/>
		
			<linearGradient id="SVGID_15_" gradientUnits="userSpaceOnUse" x1="-592.5069" y1="286.74" x2="-592.7275" y2="285.8055" gradientTransform="matrix(10.6667 0 0 -10.6667 6356.7744 3091.8499)">
			<stop  offset="0" style="stop-color:#FFFFFF"/>
			<stop  offset="0.9974" style="stop-color:#FFFFFF;stop-opacity:0"/>
		</linearGradient>
		<path class="st35" d="M19.6,48.3c-1.6,0-3.1-0.3-4.7-0.8l-8.2-2.8c-0.2-0.1-0.4-0.3-0.5-0.6c-0.2-0.4-0.2-1,0.1-1.4l1.5-2.2
			c0.3-0.4,0.7-0.6,1.3-0.6h50.1c0.5,0,0.9,0.2,1.2,0.6l1.8,2.3c0.2,0.3,0.2,0.9,0,1.3c-0.1,0.3-0.3,0.5-0.5,0.6l-8.2,2.8
			c-1.5,0.5-3.1,0.8-4.7,0.8H19.6z"/>
		
			<linearGradient id="SVGID_16_" gradientUnits="userSpaceOnUse" x1="-592.7348" y1="285.2472" x2="-592.7348" y2="284.7961" gradientTransform="matrix(10.6667 0 0 -10.6667 6356.7744 3091.8499)">
			<stop  offset="0" style="stop-color:#5F5F60"/>
			<stop  offset="1" style="stop-color:#282828"/>
		</linearGradient>
		<path class="st36" d="M48.3,48.9H35.6h-2.7H20.3c-0.6,0-1,0.5-0.7,1l3.1,6.2c0.1,0.3,0.4,0.4,0.7,0.4h9.5h2.7h9.5
			c0.3,0,0.6-0.2,0.7-0.4l3.1-6.2C49.2,49.4,48.9,48.9,48.3,48.9L48.3,48.9z"/>
		
			<linearGradient id="SVGID_17_" gradientUnits="userSpaceOnUse" x1="-592.6205" y1="285.2472" x2="-592.6205" y2="284.7961" gradientTransform="matrix(10.6667 0 0 -10.6667 6356.7744 3091.8499)">
			<stop  offset="0" style="stop-color:#5F5F60"/>
			<stop  offset="1" style="stop-color:#282828"/>
		</linearGradient>
		<path class="st37" d="M48.3,48.9h-2.3c-1.7,3.5-5.7,5.7-10,5.7h-3h-2.7h-8.4l0.7,1.5c0.1,0.3,0.4,0.4,0.7,0.4h9.5h2.7h9.5
			c0.3,0,0.6-0.2,0.7-0.4l3.1-6.2C49.2,49.4,48.9,48.9,48.3,48.9L48.3,48.9z"/>
		
			<linearGradient id="SVGID_18_" gradientUnits="userSpaceOnUse" x1="-592.7348" y1="284.2472" x2="-592.7348" y2="284.1593" gradientTransform="matrix(10.6667 0 0 -10.6667 6356.7744 3091.8499)">
			<stop  offset="0" style="stop-color:#5F5F60"/>
			<stop  offset="1" style="stop-color:#282828"/>
		</linearGradient>
		<path class="st38" d="M59.2,59.8H9.4l-0.5,0.5c-0.4,0.4,0,1,0.5,1h24.9h24.9c0.6,0,0.9-0.6,0.5-1L59.2,59.8z"/>
		
			<linearGradient id="SVGID_19_" gradientUnits="userSpaceOnUse" x1="-592.7348" y1="286.2015" x2="-592.7348" y2="284.2761" gradientTransform="matrix(10.6667 0 0 -10.6667 6356.7744 3091.8499)">
			<stop  offset="0" style="stop-color:#EEF4FF"/>
			<stop  offset="1" style="stop-color:#5BDBFD"/>
		</linearGradient>
		<path class="st39" d="M67.3,44.8l-5.7-6.5h-0.3l1.5,1.7c0.8,0.9,1.3,2.1,1.3,3.3c0,8.7-8,15.8-17.8,15.8H0.8c-0.3,0-0.5,0-0.8-0.1
			v0.2c0,2.6,2.4,4.7,5.3,4.7h58c2.9,0,5.3-2.1,5.3-4.7V48C68.5,46.8,68.1,45.7,67.3,44.8L67.3,44.8z"/>
	</g>
	
		<linearGradient id="SVGID_20_" gradientUnits="userSpaceOnUse" x1="-594.4357" y1="288.3348" x2="-591.0339" y2="288.3348" gradientTransform="matrix(10.6667 0 0 -10.6667 6356.7744 3091.8499)">
		<stop  offset="0" style="stop-color:#FFC200"/>
		<stop  offset="0.268" style="stop-color:#FFBB00"/>
		<stop  offset="0.659" style="stop-color:#FFA801"/>
		<stop  offset="1" style="stop-color:#FF9102"/>
	</linearGradient>
	<path class="st40" d="M52.4,6.9c0-1-0.8-1.9-1.9-2.2L36,0.3c-1.1-0.3-2.3-0.3-3.4,0L18.1,4.6c-1.2,0.4-1.9,1.2-1.9,2.2
		c0,5,1.4,19.6,18.1,25.7c0,0,0,0,0,0c0,0,0,0,0,0C51.1,26.5,52.4,11.8,52.4,6.9z"/>
	
		<linearGradient id="SVGID_21_" gradientUnits="userSpaceOnUse" x1="-594.0578" y1="288.3567" x2="-591.4119" y2="288.3567" gradientTransform="matrix(10.6667 0 0 -10.6667 6356.7744 3091.8499)">
		<stop  offset="0" style="stop-color:#EEF4FF"/>
		<stop  offset="1" style="stop-color:#DEF6FC"/>
	</linearGradient>
	<path class="st41" d="M33,28.4C22.1,23.4,20.4,13.8,20.2,9.1c0-0.9,0.7-1.8,1.8-2.1l11.4-3.4c0.6-0.2,1.3-0.2,1.9,0L46.6,7
		c1.1,0.3,1.8,1.2,1.8,2.1c-0.2,4.6-2,14.3-12.8,19.3C34.8,28.7,33.8,28.7,33,28.4z"/>
	<g>
		
			<linearGradient id="SVGID_22_" gradientUnits="userSpaceOnUse" x1="-593.0681" y1="288.2188" x2="-592.2117" y2="288.9616" gradientTransform="matrix(10.6667 0 0 -10.6667 6356.7744 3091.8499)">
			<stop  offset="1.300000e-03" style="stop-color:#00CE2C"/>
			<stop  offset="1" style="stop-color:#0CA529"/>
		</linearGradient>
		<path class="st42" d="M33.2,19.7c-0.6,0-1.2-0.2-1.7-0.6l-2.7-2.3c-0.9-0.8-0.9-2.1,0-2.8c0.9-0.8,2.4-0.8,3.3,0l1,0.9l4.5-3.8
			c0.9-0.8,2.4-0.8,3.3,0c0.9,0.8,0.9,2.1,0,2.8l-6.2,5.2C34.4,19.5,33.8,19.7,33.2,19.7L33.2,19.7z"/>
	</g>
	
		<linearGradient id="SVGID_23_" gradientUnits="userSpaceOnUse" x1="-592.9744" y1="288.3356" x2="-591.0339" y2="288.3356" gradientTransform="matrix(10.6667 0 0 -10.6667 6356.7744 3091.8499)">
		<stop  offset="0" style="stop-color:#FFC200"/>
		<stop  offset="0.268" style="stop-color:#FFBB00"/>
		<stop  offset="0.659" style="stop-color:#FFA801"/>
		<stop  offset="1" style="stop-color:#FF9102"/>
	</linearGradient>
	<path class="st43" d="M50.5,4.6L36,0.3c-1.1-0.3-2.3-0.3-3.4,0c0,0-0.8,0.2-0.8,0.2c0.4-0.1,1.9,0.7,2.3,0.9
		c1.8,0.8,3.4,1.9,4.8,3.1c6.9,5.9,7.1,17.4,0.7,23.7c-0.6,0.6-4.9,4.5-5.9,4.1c0.2,0.1,0.4,0.2,0.7,0.3c16.7-6,18.1-20.7,18.1-25.7
		C52.4,5.9,51.6,5,50.5,4.6z"/>
</g>
</svg>
