<?xml version="1.0" encoding="utf-8"?>
<!-- Generator: Adobe Illustrator 25.2.1, SVG Export Plug-In . SVG Version: 6.00 Build 0)  -->
<svg version="1.1" id="bold" xmlns="http://www.w3.org/2000/svg" xmlns:xlink="http://www.w3.org/1999/xlink" x="0px" y="0px"
	 viewBox="0 0 68.5 50.5" style="enable-background:new 0 0 68.5 50.5;" xml:space="preserve">
<style type="text/css">
	.st0{fill:#FC573B;}
	.st1{fill:#FD907E;}
	.st2{fill:#FFAC96;}
	.st3{fill:#FFBCAB;}
	.st4{fill:#006DF0;}
	.st5{fill:#D80027;}
	.st6{fill:#BD0022;}
	.st7{fill:#F1F2F2;}
	.st8{fill:#858585;}
	.st9{fill:#57A5FF;}
	.st10{fill:#4481C7;}
	.st11{fill:#FFD45A;}
	.st12{fill:#FFFFFF;}
	.st13{fill:#D64528;}
	.st14{fill:#FF914D;}
	.st15{fill:#3449A3;}
	.st16{fill:#2E872B;}
	.st17{fill:#D97B41;}
	.st18{fill:#226320;}
	.st19{fill:#2A3B85;}
	.st20{fill:#B53A22;}
	.st21{fill:url(#SVGID_1_);}
	.st22{fill:url(#SVGID_2_);}
	.st23{fill:url(#SVGID_3_);}
	.st24{fill:url(#SVGID_4_);}
	.st25{fill:url(#SVGID_5_);}
	.st26{opacity:0.5;fill:url(#SVGID_6_);enable-background:new    ;}
	.st27{fill:url(#SVGID_7_);}
	.st28{opacity:0.5;fill:url(#SVGID_8_);enable-background:new    ;}
	.st29{fill:url(#SVGID_9_);}
	.st30{fill:url(#SVGID_10_);}
	.st31{opacity:0.6;fill:url(#SVGID_11_);enable-background:new    ;}
	.st32{fill:url(#SVGID_12_);}
	.st33{fill:url(#SVGID_13_);}
	.st34{fill:url(#SVGID_14_);}
	.st35{fill:url(#SVGID_15_);}
	.st36{fill:url(#SVGID_16_);}
	.st37{opacity:0.5;fill:url(#SVGID_17_);enable-background:new    ;}
	.st38{fill:url(#SVGID_18_);}
	.st39{opacity:0.6;fill:url(#SVGID_19_);enable-background:new    ;}
	.st40{fill:url(#SVGID_20_);}
	.st41{fill:url(#SVGID_21_);}
	.st42{fill:url(#SVGID_22_);}
	.st43{opacity:0.3;fill:url(#SVGID_23_);enable-background:new    ;}
	.st44{fill:#23292E;}
	.st45{fill:#2E373D;}
	.st46{fill:#CECECE;}
	.st47{fill:#525E65;}
	.st48{fill:#627681;}
	.st49{fill:#E33400;}
	.st50{fill:#872E02;}
	.st51{fill:#82A5B9;}
	.st52{fill-rule:evenodd;clip-rule:evenodd;fill:#F9AC00;}
	.st53{fill-rule:evenodd;clip-rule:evenodd;fill:#FDC72E;}
	.st54{fill:#F9C795;}
	.st55{fill-rule:evenodd;clip-rule:evenodd;fill:#FDD7AD;}
	.st56{fill-rule:evenodd;clip-rule:evenodd;fill:#E6B17C;}
	.st57{fill:#2A92FA;}
	.st58{fill-rule:evenodd;clip-rule:evenodd;fill:#0E82F5;}
	.st59{fill-rule:evenodd;clip-rule:evenodd;fill:#F0414A;}
	.st60{fill-rule:evenodd;clip-rule:evenodd;fill:#FB545C;}
	.st61{fill-rule:evenodd;clip-rule:evenodd;fill:#3BD97D;}
	.st62{fill-rule:evenodd;clip-rule:evenodd;fill:#4FE88E;}
	.st63{fill-rule:evenodd;clip-rule:evenodd;fill:#2A92FA;}
	.st64{fill:#DDD3D3;}
	.st65{fill:#DB2C2C;}
	.st66{fill:#F13B3B;}
	.st67{fill:#CEC4C4;}
	.st68{fill:#332522;}
	.st69{fill:#47342F;}
	.st70{fill:#604843;}
	.st71{fill:#E5E3E3;}
	.st72{opacity:0.3;fill:#FFFFFF;}
	.st73{fill:#F8F8FF;}
	.st74{fill:#D8D7F9;}
	.st75{fill:#B889E0;}
	.st76{fill:#EFC7F9;}
	.st77{fill:#2D1164;}
	.st78{fill:#FFB6B1;}
	.st79{fill:#F47382;}
	.st80{fill:#C64F60;}
	.st81{opacity:0.33;}
	.st82{fill:#B9B9EA;}
	.st83{fill:#D3D3F4;}
	.st84{fill:#E8E8FC;}
	.st85{fill:#7E4DC4;}
	.st86{fill:#5642AD;}
	.st87{fill:#FEA046;}
	.st88{fill:#E15254;}
	.st89{opacity:0.53;}
	.st90{fill:#FFD1AB;}
	.st91{fill:#322277;}
	.st92{fill:#8AC9FE;}
	.st93{fill:#BFBFBF;}
	.st94{fill:#F8F6F6;}
	.st95{fill:#E2E2E2;}
	.st96{fill:#FE646F;}
	.st97{fill:#FD4755;}
	.st98{fill:#FED2A4;}
	.st99{fill:#FFBD86;}
	.st100{fill:#FFE5C2;}
	.st101{fill:#9C9C9C;}
	.st102{fill:#838383;}
	.st103{fill:#26A6FE;}
	.st104{fill:#0593FC;}
	.st105{fill:#EAF6FF;}
	.st106{fill:#0172FB;}
	.st107{fill:#25303F;}
	.st108{fill:#D33D48;}
	.st109{fill:#394456;}
	.st110{fill:#F4D72F;}
	.st111{fill:#FFA488;}
	.st112{fill:#E27466;}
	.st113{fill:#FFC4B6;}
	.st114{fill:#CC9D19;}
	.st115{fill:#EFCC3C;}
	.st116{fill:#FCE275;}
	.st117{fill:#EFBE35;}
	.st118{fill:#E0B52B;}
	.st119{fill:#76D6C4;}
	.st120{fill:#5B6A7F;}
	.st121{fill:#528432;}
	.st122{fill:#80BC50;}
	.st123{fill:#B2B8BF;}
	.st124{fill:#E2F2FA;}
	.st125{fill:#5BB3FF;}
	.st126{fill:#5CA7D9;}
	.st127{fill:#FF9D43;}
	.st128{fill:#00477F;}
	.st129{fill:#B6E0F4;}
	.st130{fill:#1C90CF;}
	.st131{fill:url(#SVGID_24_);}
	.st132{fill:#FFBCA5;}
	.st133{fill:#F8FBFF;}
	.st134{fill:#E0EFFF;}
	.st135{fill:#FFB59E;}
	.st136{fill:none;stroke:#000000;stroke-width:0.75;stroke-linecap:round;stroke-linejoin:round;stroke-miterlimit:10;}
	.st137{fill:#BEE9EB;}
	.st138{fill:#FFF6BC;}
	.st139{fill:#FF6E15;}
	.st140{fill:#7FCEED;}
	.st141{fill:#212121;}
	.st142{fill:#383838;}
	.st143{fill:#2A2A2A;}
	.st144{fill:#F5B0A6;}
	.st145{opacity:0.6;}
	.st146{fill:#F18A8B;}
	.st147{fill:#D37A7F;}
	.st148{fill:#0F0F0F;}
	.st149{fill:#202020;}
	.st150{fill:#1D1D1D;}
	.st151{fill:#2E6857;}
	.st152{fill:#255144;}
	.st153{fill:#40947E;}
	.st154{fill:#6FC183;}
	.st155{fill:#7A8DB0;}
	.st156{opacity:0.41;}
	.st157{fill:#243354;}
	.st158{fill:#EAEAEA;}
	.st159{fill:#2F4171;}
	.st160{fill:#2C4DA2;}
	.st161{fill:#99B1DA;}
	.st162{fill:#B5CAE8;}
	.st163{fill:#EDA9A2;}
	.st164{fill:#3D5891;}
	.st165{fill:#5681BF;}
	.st166{fill:#D1DBED;}
	.st167{opacity:0.35;}
	.st168{fill:#233F7C;}
	.st169{fill:#D2D2D2;}
	.st170{fill:#F19A6D;}
	.st171{fill:#7A7A7A;}
	.st172{fill:#F3CE90;}
	.st173{opacity:0.31;}
	.st174{fill:#292929;}
	.st175{fill:#515151;}
	.st176{fill:#3F3F3F;}
	.st177{fill-rule:evenodd;clip-rule:evenodd;fill:#D1DBED;}
	.st178{fill-rule:evenodd;clip-rule:evenodd;fill:#FFFFFF;}
	.st179{opacity:0.79;}
	.st180{opacity:0.28;}
	.st181{fill:#393939;}
	.st182{opacity:0.55;}
	.st183{fill:#A8A8A8;}
	.st184{fill:#B7B7B7;}
	.st185{fill:#EF7C59;}
	.st186{fill:#A0A0A0;}
	.st187{fill:#B9B9B9;}
	.st188{fill-rule:evenodd;clip-rule:evenodd;fill:#3D5891;}
	.st189{fill-rule:evenodd;clip-rule:evenodd;fill:#5681BF;}
	.st190{fill-rule:evenodd;clip-rule:evenodd;fill:#B5CAE8;}
	.st191{opacity:0.45;}
	.st192{fill-rule:evenodd;clip-rule:evenodd;fill:#99B1DA;}
	.st193{fill:#F0F0F0;}
	.st194{fill:#EACDB0;}
	.st195{fill:#A1BDCC;}
	.st196{fill:#8C9498;}
	.st197{fill:#3A3029;}
	.st198{fill:#59595B;}
	.st199{opacity:0.26;}
	.st200{fill:none;}
	.st201{fill:#6596C1;}
	.st202{fill:#5A8FB7;}
	.st203{fill:#C2969C;}
	.st204{fill:#754C3D;}
	.st205{fill:#F2D263;}
	.st206{fill:#AECCDC;}
	.st207{fill:#DEC2A7;}
	.st208{fill:#8AAD9F;}
	.st209{fill:#9E6652;}
	.st210{fill:#514943;}
	.st211{fill:#CAB5A1;}
	.st212{fill:#BCAC98;}
	.st213{fill:#D3C2A4;}
	.st214{fill:#37454D;}
	.st215{fill:#4F3C22;}
	.st216{fill:#DACAAF;}
	.st217{fill:#B26650;}
	.st218{fill:#2E4661;}
	.st219{fill:#FFFFF1;}
	.st220{fill:#FFD3A4;}
	.st221{fill:#FFBE84;}
	.st222{fill:#D65A2F;}
	.st223{fill:#A03914;}
	.st224{fill:#FFAF3E;}
	.st225{fill:#314652;}
	.st226{fill:#3C3A41;}
	.st227{fill:#FF9500;}
	.st228{fill:#E9336D;}
</style>
<g>
	<g>
		<g>
			<g>
				<path d="M18.7,9.8c-0.2,1.4-1.1,2.3-1.5,2.5c-0.9,0.2-2.9,0.3-3.9,0.2c-1.6,0-3.8-2.1-2.9-4.7c0.4-1.1,1.2-2.8,1.6-4.7
					c0.1-0.5,0.6-0.7,0.7-1.2c0.2-0.8,1.1,0.4,1.8-0.1c0.4-0.3,0.6,0.2,1,0.4c1,0.4,0.3-1.4,0.3-0.5c0,0.9,1.4,1.5,1.7,2.3
					C18.1,5.5,19.1,8.2,18.7,9.8z"/>
			</g>
			<g>
				<path class="st141" d="M14.4,5c-1.7,0.5-3.1,1.6-4.1,2.9c0.4-1.1,1.2-2.8,1.6-4.7c0.1-0.2,0.2-0.5,0.2-0.7
					C13.5,2.7,14.2,3.9,14.4,5z"/>
			</g>
			<g>
				<g>
					<path class="st142" d="M12.2,3.1c0.6,2.7-3.1,4.5-2.5,7.3C8.9,7.5,12.5,5.8,12.2,3.1z"/>
				</g>
				<g>
					<path class="st142" d="M16,2.8c0.8,2.8,3.3,4,3.3,7.4c-0.2-1.3-0.7-2.6-1.5-3.8C17.1,5.4,16.1,4.2,16,2.8z"/>
				</g>
			</g>
			<g>
				<path d="M13.4,0.8c0.4-0.6,1.4-1,2-0.3c0.2,0.2,0.3,0.4,0.3,0.7c0.1,0.3,0,0.5-0.3,0.6c-0.5,0.2-2,0.7-2.5,0.3
					C13,1.6,13.1,1.1,13.4,0.8z"/>
			</g>
			<g>
				<path d="M17.5,4.5c-0.3,1.2-1.5,1.5-2.8,1.4c-0.5,0-1,0-1.5-0.2c-2.8-1.1-1-5.1,1.6-5.1C16.8,0.7,18,2.9,17.5,4.5z"/>
			</g>
			<g>
				<path class="st143" d="M17.5,4.5c-0.3,1.2-1.5,1.5-2.8,1.4c-0.5,0-1,0-1.5-0.2c-1.4-0.5-1.7-2-1.1-3.2c0.1,0.2,0.3,0.4,0.5,0.6
					c-0.2-0.4-0.2-0.8-0.1-1.2c0,0.3,0.2,0.5,0.4,0.8c-0.1-0.3-0.1-0.6,0-0.9c0,0.2,0.1,0.4,0.3,0.4c-0.1-0.2,0-0.4,0-0.6
					c0,0.2,0.2,0.4,0.4,0.6C14,2.1,14.7,2,15.3,2.1c0-0.4,0-0.7-0.2-1c0.2,0.3,0.4,0.7,0.5,1.1c0.1-0.3,0.1-0.5,0.2-0.8
					c0.1,0.3,0.1,0.6,0.1,0.9c0.2,0.1,0.5,0.2,0.7,0.3c0.1-0.2,0.1-0.5,0.1-0.7c0.2,0.2,0.1,0.6,0,0.8c0.2-0.1,0.4-0.2,0.6-0.3
					c0.1,0.1,0.1,0.3,0.2,0.4c-0.2,0.4-0.4,0.7-0.7,1c0.3-0.2,0.6-0.3,0.8-0.5c0,0.1,0,0.1,0,0.2c-0.2,0.2-0.3,0.3-0.5,0.4
					c0.2,0,0.3-0.1,0.5-0.1C17.6,4,17.6,4.3,17.5,4.5z"/>
			</g>
		</g>
		<g>
			<g>
				<g>
					<path d="M30.2,1.4c0,0-0.7,0.6-0.5,1.4c0.2,0.8,0.1,1.3,0.1,1.3s0,0.9,1.5,1.1c1.5,0.1,3.4,0.1,3.4,0.1s0.4-0.3,0.4-0.5
						c0.1-0.2,0.4-0.8,0.4-0.8S35.2,3.8,35.4,3c0.2-0.8,0.1-1-0.1-1.4s-1.9-0.3-2.2-0.3C32.8,1.3,30.2,1.4,30.2,1.4z"/>
				</g>
				<g>
					<g>
						<path class="st144" d="M34.1,6.6V9c0,0.4-0.3,0.7-0.7,0.8c-0.2,0-0.4,0.1-0.7,0.1c-0.3,0-0.5,0-0.7,0
							c-0.4-0.1-0.7-0.4-0.7-0.8V6.3L34.1,6.6z"/>
					</g>
					<g class="st145">
						<path class="st146" d="M34.1,6.6v0.8c0,0,0,0,0,0s-0.3,0.8-1.4,0.8c-0.9,0-1.2-0.6-1.3-0.8V6.3L34.1,6.6z"/>
					</g>
					<g>
						<g>
							<ellipse class="st144" cx="30.4" cy="4.8" rx="0.9" ry="0.9"/>
						</g>
						<g>
							<path class="st146" d="M30.7,5.1C30.7,5.1,30.7,5.1,30.7,5.1l-0.6-0.6c0,0,0-0.1,0-0.1c0,0,0.1,0,0.1,0L30.7,5.1
								C30.8,5.1,30.8,5.1,30.7,5.1C30.8,5.1,30.8,5.1,30.7,5.1z"/>
						</g>
					</g>
					<g>
						<g>
							<path class="st144" d="M36,4.8c0,0.5-0.4,0.9-0.9,0.9c-0.5,0-0.9-0.4-0.9-0.9c0-0.5,0.4-0.9,0.9-0.9C35.6,4,36,4.3,36,4.8z"
								/>
						</g>
						<g>
							<path class="st146" d="M34.7,5.2C34.8,5.2,34.8,5.2,34.7,5.2l0.6-0.6c0,0,0-0.1,0-0.1c0,0-0.1,0-0.1,0L34.7,5.2
								C34.7,5.1,34.7,5.2,34.7,5.2C34.7,5.2,34.7,5.2,34.7,5.2z"/>
						</g>
					</g>
					<g>
						<path class="st144" d="M31.4,1.5l-0.9,1.3v3.5c0,0.2,0.1,0.3,0.2,0.4c0,0,1,1,2.1,1.1c1.1-0.1,2.1-1.1,2.1-1.1
							c0.1-0.1,0.2-0.2,0.2-0.4V2.8L34.3,2L31.4,1.5z"/>
					</g>
					<g>
						<path class="st147" d="M33.1,5.6h-0.6c0,0-0.1,0-0.1-0.1c0,0,0-0.1,0.1-0.1H33L32.9,4c0,0,0-0.1,0-0.1C33,4,33,4,33,4
							L33.1,5.6C33.2,5.6,33.2,5.6,33.1,5.6C33.1,5.6,33.1,5.6,33.1,5.6z"/>
					</g>
					<g>
						<path class="st148" d="M31.9,3.5c0,0.2-0.7,0.3-0.7,0.2C31.1,3.4,32,3.2,31.9,3.5z"/>
					</g>
					<g>
						<path class="st148" d="M34.3,3.7c-0.1,0.2-0.7,0-0.7-0.2C33.8,3.2,34.5,3.4,34.3,3.7z"/>
					</g>
					<g class="st145">
						<ellipse class="st146" cx="31.3" cy="5.6" rx="0.7" ry="0.7"/>
					</g>
					<g class="st145">
						<ellipse class="st146" cx="34.2" cy="5.5" rx="0.7" ry="0.7"/>
					</g>
					<g>
						<path class="st149" d="M32,4.7c0,0.1-0.1,0.3-0.2,0.3c-0.1,0-0.2-0.1-0.1-0.3c0-0.1,0.1-0.3,0.2-0.3C32,4.4,32.1,4.5,32,4.7z"
							/>
					</g>
					<g>
						<path class="st149" d="M33.9,4.5c0,0.1-0.1,0.3-0.2,0.3c-0.1,0-0.2-0.1-0.1-0.3c0-0.1,0.1-0.3,0.2-0.3
							C33.8,4.3,33.9,4.4,33.9,4.5z"/>
					</g>
				</g>
				<g>
					<g>
						<g>
							<path d="M35.3,3.9c0-0.2,0-0.3,0-0.5c0-0.2,0.1-0.3,0.1-0.5c0.2-0.3,0.1-0.8-0.1-1.1C35.3,1.5,35,1.2,34.7,1
								c-0.1-0.1-0.2-0.1-0.3-0.2c-0.1,0-0.2-0.1-0.3,0c0.1-0.1,0.2-0.2,0.3-0.4c0,0.1-0.5,0-0.5,0c-0.2,0-0.3-0.1-0.5-0.1
								c-0.2-0.1-0.4-0.2-0.7-0.2c-0.5-0.1-0.9,0.1-1.3,0.3c-0.2,0.1-0.3,0.2-0.4,0.4c0,0.1-0.1,0.2-0.1,0.3c0,0,0,0.2,0,0.2
								c-0.2,0-0.5,0.1-0.7,0.2C30,1.6,29.9,1.8,29.9,2c0,0.3,0.1,0.6,0.1,0.9C30,3.1,30,3.4,30,3.7c0,0,0.3,0,0.3,0V3.1
								c0-0.8,0.7-1.5,1.6-1.5c0,0,1.6,0,1.6,0c0.5,0,0.9,0.2,1.2,0.6C34.9,2.4,35,2.7,35,3c0,0.1,0,0.3,0,0.4c0,0.1,0,0.1,0,0.2
								c0,0.1,0,0.1,0,0.2c0,0.1,0,0.2,0,0.3L35.3,3.9z"/>
						</g>
					</g>
					<g>
						<g>
							<path d="M30.4,3.9c0-0.1,0.1-0.3,0.2-0.4c0.1-0.1,0.2-0.1,0.3-0.2C31,3.2,31,3.2,31.1,3.1c0-0.1,0.1-0.2,0.1-0.3
								c0,0,0.1,0.1,0.2,0.1c0.1,0,0.1,0.1,0.2,0.1c0.1,0.1,0.3,0.1,0.4,0.2c0.3,0.1,0.7,0.2,1,0.1c0.2,0,0.4-0.1,0.5-0.2
								C33.6,3,33.8,2.8,34,2.8c0.2,0,0.6,0,0.6,0.3c0.1,0.2,0,0.5,0.1,0.7c0,0,0.1,0.1,0.1,0.1C35,4,35,4.1,35,4.3
								c0-0.1,0.1-0.2,0.1-0.3c0-0.1,0.2-0.1,0.2-0.2c0-0.2-0.1-0.7-0.1-0.9c0-0.1,0-0.2-0.1-0.4c0-0.1,0-0.2-0.1-0.3
								C35,2,34.9,1.9,34.7,1.7c-0.5-0.4-1.3-0.5-2-0.5c-2.6,0-2.6,1.6-2.6,1.6c0,0.2-0.2,0.4-0.1,0.6c0,0.1,0,0.2,0,0.3
								c0,0.1,0,0.1,0,0.2L30.4,3.9z"/>
						</g>
					</g>
				</g>
				<g>
					<path class="st150" d="M30.8,3.4c0,0-0.3,0.6-0.2,0.8c0.1,0.2-0.3-0.2-0.3-0.2s-0.2-0.6-0.1-0.7c0.1-0.1,0.5-0.4,0.5-0.4
						L30.8,3.4z"/>
				</g>
			</g>
			<g>
				<g>
					<path d="M33.4,6.5C33.4,6.5,33.4,6.5,33.4,6.5c-0.2,0.2-0.5,0.3-0.7,0.3c-0.1,0-0.2-0.1-0.3-0.1c-0.1-0.1-0.2-0.2-0.3-0.4
						c0-0.1,0-0.2,0.1-0.2c0,0,0,0,0.1,0c0,0,0.1,0,0.1,0c0.2,0,0.4,0,0.7,0c0.1,0,0.2,0,0.2,0c0.1,0,0.1,0,0.1,0.1
						C33.5,6.2,33.5,6.4,33.4,6.5z"/>
				</g>
				<g>
					<path class="st12" d="M33.3,6c0,0.1,0,0.1,0,0.1c0,0-0.1,0.1-0.2,0.1c-0.2,0-0.4,0-0.6,0c0,0-0.1,0-0.1-0.1c0,0,0-0.1,0-0.1
						c0,0,0.1,0,0.1,0c0.2,0,0.4,0,0.7,0C33.1,6,33.2,6,33.3,6z"/>
				</g>
				<g>
					<path class="st147" d="M33.3,6.5c-0.2,0.2-0.4,0.2-0.6,0.2c-0.1,0-0.2-0.1-0.3-0.1c0.1-0.1,0.2-0.2,0.4-0.2
						C32.9,6.4,33.2,6.4,33.3,6.5z"/>
				</g>
			</g>
		</g>
		<g>
			<g>
				<g>
					<path class="st151" d="M13.2,47.6C13.2,47.6,13.2,47.6,13.2,47.6c0.2-0.5,0.6-1.1,1.2-1.5c3-1.5-0.3-2.7,1.8-4.1
						c2.5-1.6,2.5-4.8,0.8-4.5c-4,2.2-3.4,1.4-3.8,4c-0.3,0.8-1,0.7-1.7,1.3c-1,1.2,0.7,3-0.8,4.4C11.4,47.4,12.6,47.5,13.2,47.6z"
						/>
				</g>
			</g>
			<g>
				<g>
					<path class="st152" d="M12,47.4c1-3.1,2.3-6.1,4.6-8.6c-2,2.3-3.5,5.6-4.3,8.7L12,47.4z"/>
				</g>
			</g>
			<g>
				<g>
					<path class="st153" d="M7.5,48.1C7.5,48.1,7.4,48.1,7.5,48.1c-0.3-0.5-1-1.1-1.7-1.4c-3.8-0.9,0-3.1-3-4.2
						c-3.1-1.1-3.6-4.6-1.8-4.7c5.2,1.3,4.3,0.9,5.2,3.4c0.4,0.8,1.2,0.6,2.1,1c1.7,1-0.6,3.5,1.1,4.9C8.8,47.4,8.1,47.7,7.5,48.1z"
						/>
				</g>
			</g>
			<g>
				<g>
					<path class="st152" d="M8.7,47.4c-1.7-3.2-3.8-6.2-7-8.4c2.8,2,5.1,5.4,6.6,8.6L8.7,47.4z"/>
				</g>
			</g>
			<g>
				<g>
					<path class="st154" d="M8.9,47.2C8.9,47.2,8.9,47.2,8.9,47.2c0-0.9-0.3-1.9-1-2.7C5.8,41.8,10.2,42,8,39
						c-1.9-2.7-0.3-6.5,1.5-5c3.4,4.4,3,2.8,2.3,6.3c0,1,1,1.4,1.4,2.4c0.4,1.8-2.7,2.6-1.9,4.8C10.5,47.4,9.7,47.3,8.9,47.2z"/>
				</g>
			</g>
			<g>
				<g>
					<path class="st152" d="M10.4,47.4c0.4-3.9,0.2-8.1-1.3-11.9c1.3,3.7,1.3,7.9,0.8,11.9L10.4,47.4z"/>
				</g>
			</g>
		</g>
		<g>
			<g>
				<g>
					<path class="st153" d="M60.2,48.2C60.2,48.2,60.2,48.2,60.2,48.2c0.4-0.6,1.1-1.3,1.9-1.7c4.2-1.4-0.1-3.5,3.2-4.9
						c3.7-1.6,4-5.4,2.2-5.5c-6,1.8-5.1,1.6-5.9,4.1c-0.5,1.1-1.6,1-2.6,1.6c-1.5,1.4,0.5,3.6-1.9,5.4
						C57.9,47.5,59.4,47.8,60.2,48.2z"/>
				</g>
			</g>
			<g>
				<g>
					<path class="st152" d="M58.7,47.5c1.9-3.8,4.3-7.3,7.8-10c-3.2,2.6-5.7,6.4-7.4,10.2L58.7,47.5z"/>
				</g>
			</g>
			<g>
				<g>
					<path class="st151" d="M52.7,47.5C52.7,47.5,52.7,47.5,52.7,47.5c-0.3-0.7-1-1.5-1.7-2c-4.9-2.1,0.5-3.9-2.9-6
						c-4.2-2.5-3.5-6.9-1.4-6.5c6.3,2.8,5.2,1.9,5.8,5.4c0.4,1.2,1.6,1.2,2.6,1.9c1.7,1.6-1.6,4.3,0.3,6.4
						C54.6,46.9,53.7,47.2,52.7,47.5z"/>
				</g>
			</g>
			<g>
				<g>
					<path class="st152" d="M54.5,46.9c-1.5-4.5-3.6-8.8-7.1-12.2c3.2,3.3,5.3,7.9,6.6,12.4L54.5,46.9z"/>
				</g>
			</g>
			<g>
				<g>
					<path class="st154" d="M54.8,46.7C54.8,46.7,54.8,46.7,54.8,46.7c0.2-1.2,0-2.5-0.6-3.7c-2.2-4.2,3.4-2.4,1.2-7
						c-1.8-4.2,1.2-8,2.9-6.1c3.5,6.3,3.4,4.8,1.8,8.5c-0.5,1.4,0.9,2.2,1.2,3.6c0.1,2.5-3.9,2.5-3.5,5.7
						C56.8,47.3,55.8,47,54.8,46.7z"/>
				</g>
			</g>
			<g>
				<g>
					<path class="st152" d="M56.7,47.3c1.4-5,2-10.3,1-15.6c0.8,5,0,10.5-1.6,15.4L56.7,47.3z"/>
				</g>
			</g>
		</g>
		<g>
			<path class="st155" d="M61,48.2c-1,3.1-52.9,2.9-55.4,0.2C3.2,45.2,61,45.2,61,48.2z"/>
		</g>
		<g>
			<g class="st156">
				<path class="st157" d="M41.3,48.5C41,46.3,25.2,46.4,24,48.2C22.5,50.7,41.4,50.7,41.3,48.5z"/>
			</g>
			<g>
				<g>
					<polygon class="st158" points="30.3,36.1 36.4,36 32.5,26 					"/>
				</g>
				<g>
					<path class="st154" d="M27.6,16.6c0.1,1.1,0.7,4.4,1,6c-0.5,1.9,3.5,4.6,8.2-0.5c-0.1-2.2,0.5-7.4,1.2-9.5
						c0.9-2.8,1-1.8,0.3-2.6c-4.1-2.9-8.9-0.7-9.8-0.6C26,10.3,27.7,15.5,27.6,16.6z"/>
				</g>
				<g>
					<path class="st151" d="M32.1,10.7c-1.3-0.4-0.9,1.2-1.6,3.7c-0.5,3.7-1.5,7,0.2,8.7l1.2-1.3C31.9,21.8,31.1,12.8,32.1,10.7z"/>
				</g>
				<g>
					<path class="st159" d="M24.5,49c1.5,0.3,3.2,0.1,4.7-0.4c0.2,0.2,1.6,0.6,2.1,0.1c0.7-2.8-1.3-3.9-4.2-1.3
						C25.4,48.4,24.5,48.3,24.5,49z"/>
				</g>
				<g>
					<path class="st159" d="M36.2,49.6c5.7,0.8,0.2-6.1-0.6-0.7C35.5,49.3,35.7,49.5,36.2,49.6z"/>
				</g>
				<g>
					<path class="st160" d="M27.8,46.9c1.2,0.2,2.4,0.3,3.6,1c-0.2-12,2.1-19.7,0.2-23.1c-0.7-1.8-3.2-2.6-3.7-2.1
						c-1.2,5.1-0.4,12-0.1,14c0.7,4.3-0.5,7.4,0.2,8.7C27.3,45.5,27.8,46.4,27.8,46.9z"/>
				</g>
				<g>
					<path class="st151" d="M32.8,9.5l-0.7,1.1l-0.6-0.1C30.9,8.9,32,9.7,32.8,9.5z"/>
				</g>
				<g>
					<path class="st153" d="M33.4,10.9c0,0-1.1-0.8-1.4-1.3c-0.8,0.2-1,0.4-1.6,0.9c-0.4-1,0.4-2.2,0.5-2.1c0.1,0.3,0.2,0.7,0.8,0.9
						c2.7,0.2,2.2-2.4,3.4-0.6C34.7,9,33.6,10.4,33.4,10.9z"/>
				</g>
				<g>
					<path class="st160" d="M30.7,26.1c0.5,3.5,1.4,1.5,1.5,3.5c2.3,9.5,3.2,6.4,3.2,18.1c0.8,0.1,2.5-0.3,3.1,0.6
						c0.7-0.4,0.4-1.2,0.2-1.8c0.3-0.8,0.3-1.3,0.1-2.2c-0.1-2,0.4-3.8,0-5.7c-2.7-7.4-0.9-9.2-2.3-15.2c-0.4-3.4-4,0.4-5.6-0.2
						C30.3,23,30.5,23.2,30.7,26.1z"/>
				</g>
				<g>
					<path class="st12" d="M34.8,8.3c0,0-0.8,3.5-2.8,7c-0.2,2.1,1.6,22.1,1.6,22.1s5.6-0.2,6.4-0.6c-1.4-20.6-3-9.9-0.9-27.1
						C39,9.8,37.6,9,34.8,8.3z"/>
				</g>
				<g>
					<path class="st12" d="M30.7,8.5c-0.9,2.3-0.7,6.6-0.7,6.6s-1.7,6.8-0.1,21.8c-1.4,0.3-3.1-0.1-3.1-0.1
						c-0.2-0.2-0.1-10,0.6-17.4C27.5,9.6,25.9,10.1,30.7,8.5z"/>
				</g>
				<g>
					<path class="st158" d="M26.8,23c0,1.4-0.2,2.4-0.2,3.8c0.2,0.2,0.2,0.4,0.6,0.3c0-1.1,0-2.9,0-4C27.2,23,26.9,23.1,26.8,23z"/>
				</g>
				<g>
					<g>
						
							<rect x="25" y="17.8" transform="matrix(0.602 -0.7985 0.7985 0.602 -5.2891 32.5433)" class="st161" width="9.9" height="7.5"/>
					</g>
					<g>
						
							<rect x="25.8" y="18.4" transform="matrix(0.602 -0.7985 0.7985 0.602 -5.2891 32.5433)" class="st12" width="8.4" height="6.3"/>
					</g>
					<g>
						<polygon class="st162" points="30.8,17.3 33.3,19.2 33,18.5 33.5,17.9 31.9,16.7 31.4,17.3 						"/>
					</g>
				</g>
				<g>
					<path class="st163" d="M29.5,21.1c0.6,0.9,1.3,0.4,2.2,0.8c1.7,0.7,1.4,1.1,0.1,0.6c0,0.3,2.2,2,1.3,2c0.1,0.3,0,0.5-0.3,0.3
						c0,0.3-0.4,0.2-0.5,0.1c-0.9,0.4-1.7-0.9-3.1-1.9c-2.7-1.3-2.4-2.1-1.6-2.3C28.2,20.4,29,20.6,29.5,21.1z"/>
				</g>
				<g>
					<path class="st154" d="M37,18.5c-1.1,0.8-3.8,2.6-4.5,3.2c0,0.6,0.7,1.2,1,2.2c3.1-1,5.3-3,6.2-4.1C42.6,6.6,35.5,6,37,18.5z"
						/>
				</g>
				<g>
					<g>
						<path class="st144" d="M30.8,24.3c1.7,0.1,1.6-0.7,2.4-0.9c-0.1-0.6-0.4-1.2-0.8-1.7c-0.4,0.3-1.1-0.6-1.8-0.2
							c-0.4,0.4-1.9,1.7-1.1,1.8c0,0.2-0.1,0.4,0.4,0.4c0,0.2,0,0.3,0.4,0.3C30.2,24.3,30.6,24.4,30.8,24.3z"/>
					</g>
				</g>
				<g>
					<path class="st154" d="M29.1,23.7c-1.7-1.3-4.4-4.5-4-4.8c-0.1-2,0-8.4,2.9-9.5c-1.6,1.5-0.3,5.9-0.3,8.8
						c0.2,0.2,2.5,2.8,2.9,3.1C29.6,22,29.1,22.6,29.1,23.7z"/>
				</g>
				<g>
					<path class="st146" d="M29.6,23.4c0,0.1,0.4-0.2,0.5-0.1C29.9,23.3,30,23.4,29.6,23.4z"/>
				</g>
				<g>
					<path class="st146" d="M29.9,23.8c0.3,0.1,0.3-0.1,0.7-0.1C30.6,23.8,30.5,23.8,29.9,23.8z"/>
				</g>
				<g>
					<path class="st146" d="M30.4,24.1c-0.1,0,1.1-0.1,0.5,0.1C30.7,24.1,30.8,24.1,30.4,24.1z"/>
				</g>
				<g>
					<path class="st146" d="M32.6,23.9c0.1,0.1,0,0,0.5,0.5C33,24.4,32.3,24,32.6,23.9z"/>
				</g>
				<g>
					<path class="st146" d="M32.2,24.2c0,0.1,0,0.1,0.5,0.5C32.7,24.7,31.9,24.3,32.2,24.2z"/>
				</g>
				<g>
					<path class="st146" d="M31.6,24.3c0.2,0.2,0.2,0.2,0.6,0.4C32.1,24.8,31.4,24.4,31.6,24.3z"/>
				</g>
				<g>
					<g>
						<g>
							<path class="st157" d="M34.7,14.9c0.7-2.8,0.5-5.6-0.4-7.2C35.8,9,35.3,14.1,34.7,14.9z"/>
						</g>
					</g>
					<g>
						<path class="st164" d="M35.3,15.4c-0.3,0.9-1.8,0.6-1.6-0.4C34,14,35.5,14.3,35.3,15.4z"/>
					</g>
					<g>
						<path class="st165" d="M35,15.3c-0.1,0.5-1.1,0.4-0.9-0.3C34.2,14.5,35.1,14.6,35,15.3z"/>
					</g>
				</g>
				<g>
					<path class="st166" d="M34.5,23.1c0.1,1.3,0.3,2.8,0.3,4.1c5.7-0.2,3.4-0.5,3.6-4.4C37.3,23.1,35.9,23.2,34.5,23.1z"/>
				</g>
				<g>
					<g>
						<g>
							<path class="st157" d="M30,12.5l-0.2,0C30,10.9,28,11,28,12.5l-0.2,0C27.8,10.7,30.2,10.8,30,12.5z"/>
						</g>
					</g>
					<g>
						<g>
							<g>
								<path class="st164" d="M29,15.6c-0.8,0-0.9-3.2-1.1-3.1l0.1,0c0.7,2.3,0.1,3.5,1.9,2.9l0,0.1C29.8,15.5,29.1,15.6,29,15.6z"
									/>
							</g>
						</g>
						<g>
							<path class="st164" d="M30.1,15.3C30,15.2,29.9,15.2,30.1,15.3C30.2,15.4,29.6,15.6,30.1,15.3z"/>
						</g>
					</g>
					<g>
						<g>
							<g>
								<path class="st164" d="M28.6,15.6c0,0-0.8-0.2-1-0.3l0-0.1c1.8,1.1,1.7-1.8,2.2-2.7l0.1,0C29.6,12.8,29.5,15.3,28.6,15.6z"
									/>
							</g>
						</g>
						<g>
							<path class="st164" d="M27.4,15.1C27.5,15,27.6,15,27.4,15.1C27.3,15.2,27.9,15.5,27.4,15.1z"/>
						</g>
					</g>
				</g>
				<g>
					<g>
						<path class="st157" d="M29,11.2c-0.3-0.6,1.5-3.6,2-2.8C29.9,8.6,29.4,10.3,29,11.2z"/>
					</g>
				</g>
			</g>
		</g>
		<g>
			<path class="st144" d="M34.3,8.1L31,8.4C31.5,10.5,34.2,8.7,34.3,8.1z"/>
		</g>
		<g>
			<g>
				<polygon points="14.2,47.8 14.2,48.3 8.8,48.2 8.9,47.8 				"/>
			</g>
			<g>
				<path class="st159" d="M14.2,47.8c-0.2,0-4.2,0.2-5.2,0c3.6-1,2.9-1.9,2.6-4l1.7-0.2C13.7,44.1,14,47.2,14.2,47.8z"/>
			</g>
			<g>
				<path class="st144" d="M13.9,45.6l-2-0.1c-0.1-0.7-0.3-1.7-0.3-1.7l2.1-0.1C13.7,43.7,13.8,44.8,13.9,45.6z"/>
			</g>
			<g>
				<g>
					<path class="st12" d="M12.8,45.6c0,0-0.3-0.4-0.9,0.7c-0.1-0.9-2-0.9-0.1,0.1c0,0,0,0,0,0c0,0.2,1,0.4,0.2,0
						C12.2,46.3,12.8,46.2,12.8,45.6z M11.4,46.1c-0.7-0.3-0.3-1,0.4,0.2C11.7,46.2,11.6,46.2,11.4,46.1z M12.7,45.8
						c-0.2,0.2,0,0.3-0.8,0.5C11.9,46.3,12.7,45,12.7,45.8z"/>
				</g>
				<g>
					<path class="st12" d="M12.1,46.9c-0.1-0.1-0.9-0.4-0.3-0.1C11.8,46.8,12.2,47.1,12.1,46.9z"/>
				</g>
				<g>
					<path class="st12" d="M12,47.3c-0.1,0-0.4-0.4-0.6-0.4C11.3,46.8,11.9,47.5,12,47.3z"/>
				</g>
				<g>
					<path class="st12" d="M11.4,47.4c0,0-0.7-0.7-0.3-0.1C11.1,47.3,11.5,47.7,11.4,47.4z"/>
				</g>
				<g>
					<path class="st164" d="M10.9,47.9c-0.8,0.1-1.6,0.1-2-0.1c0.5-0.1,1-0.3,1.4-0.5C10.5,47.5,10.7,47.6,10.9,47.9z"/>
				</g>
				<g>
					<path class="st12" d="M12.9,47.1c0.4,0.2,0.8-0.6,0.1-0.6C12.8,46.6,12.6,46.9,12.9,47.1z"/>
				</g>
			</g>
		</g>
		<g>
			<g>
				<polygon points="17.2,47.9 17.2,48.5 22.7,48.1 22.5,47.7 				"/>
			</g>
			<g>
				<path class="st159" d="M17.2,47.9c0.2,0,4.2,0,5.2-0.2c-3.7-0.9-3-1.8-2.8-3.9l-1.7-0.1C17.5,44.1,17.3,47.3,17.2,47.9z"/>
			</g>
			<g>
				<path class="st144" d="M17.4,45.7l2-0.1c0-0.7,0.2-1.8,0.2-1.8l-2.1-0.1C17.5,43.8,17.4,44.9,17.4,45.7z"/>
			</g>
			<g>
				<g>
					<path class="st12" d="M18.5,45.9c0.2,0.2,0.1,0.3,0.9,0.6c-0.2,0-0.6,0.6,0.2,0c1-0.1,1-1.9-0.1-0.1
						C19.4,46.1,18.5,44.9,18.5,45.9z M19.5,46.3c0,0,0.7-1.2,0.7-0.5C20.1,45.9,20,46.1,19.5,46.3z M18.6,45.6
						c0.2-0.1,0.3-0.1,0.8,0.7C19.2,46.2,18.5,46.2,18.6,45.6z"/>
				</g>
				<g>
					<path class="st12" d="M19.3,46.9c0.1-0.1,0.9-0.5,0.3-0.1C19.5,46.8,19.2,47.1,19.3,46.9z"/>
				</g>
				<g>
					<path class="st12" d="M19.4,47.3c0.1,0,0.4-0.5,0.6-0.4C20,46.8,19.5,47.5,19.4,47.3z"/>
				</g>
				<g>
					<path class="st12" d="M20,47.4c0,0,0.7-0.7,0.3-0.2C20.2,47.3,19.9,47.7,20,47.4z"/>
				</g>
				<g>
					<path class="st164" d="M20.5,47.9c0.8,0.1,1.6,0,2-0.2c-0.5-0.1-1-0.2-1.5-0.4C20.9,47.4,20.7,47.6,20.5,47.9z"/>
				</g>
				<g>
					<path class="st12" d="M18.5,47.2c-0.4,0.2-0.8-0.5-0.2-0.6C18.5,46.6,18.8,47,18.5,47.2z"/>
				</g>
			</g>
		</g>
		<g>
			<g>
				<g>
					<path class="st160" d="M15.7,17.1c0.8,3.6-0.3,7.2-0.9,10.7c-1,5.7,0.6,11.2-0.6,16.8c-1.3,0.2-2.6,0.3-3.6,0
						C10.5,33,9.4,25.9,11.3,20.2C12.8,15.7,11.8,16.9,15.7,17.1L15.7,17.1z"/>
				</g>
				<g class="st167">
					<path class="st168" d="M13.5,43.6c0.2-2.2-1.3-4.2-0.3-6.6c0.4-1.5-1.3-2.2-1.2-3.7c1.2-3.6,5.2-9.9-1.3-10.3
						c0.6-2.8,1.7-6.1,1.9-6.2c0.1-0.1,1.8,0.1,3.3,0.2c0.8,3.6-0.3,7.2-0.9,10.7c-1,5.7,0.6,11.2-0.6,16.8
						c-0.5,0.1-1.3,0.1-1.6,0.1C13,44.4,13.4,44.1,13.5,43.6L13.5,43.6z"/>
				</g>
			</g>
		</g>
		<g>
			<g>
				<g>
					<path class="st160" d="M18.9,18c1.7,5.4,1.7,10.9,1,16.5c0,11.1,3.8,10.5-3.1,10.6c-1.6-8.4-1.9-19-2.2-27.2
						C15.8,18,17.7,18,18.9,18L18.9,18z"/>
				</g>
				<g class="st167">
					<path class="st168" d="M18.7,32.7c-1.7-3.5,3.7-9.4-4-8.9c-0.1-2.5-0.1-5.2-0.1-5.9c1.2,0.1,3.1,0.1,4.3,0.1
						c2.9,10.1,0.5,14.3,1.1,19.3c0.5,6.9,2.2,7.5-0.8,7.8c2.4-1-0.4-2.8-0.4-4.4c0.2-3.3,1.6-2.2,0.1-5.6
						C19.2,34.3,19.4,33.6,18.7,32.7L18.7,32.7z"/>
				</g>
			</g>
		</g>
		<g>
			<path class="st12" d="M16.9,17c0-0.4-1.1-0.1-0.3,0.2C16.7,17.2,16.8,17.2,16.9,17L16.9,17z"/>
		</g>
		<g>
			<path class="st12" d="M15.5,16.7c0-0.4-1.1-0.1-0.3,0.2C15.3,16.9,15.4,16.9,15.5,16.7L15.5,16.7z"/>
		</g>
		<g>
			<g>
				<path class="st169" d="M9.6,20.1l1.5,1.8c1.7-2.2,0.4-2.1-0.3-3.7L9.6,20.1z"/>
			</g>
			<g>
				<path class="st170" d="M12.6,8.7c-2.4-0.2-4.9,5.8-5.8,7.1c-0.7,1.2,2,4.4,2.2,4.9c0.5-0.4,1.8-1.3,2.1-2.1l-1.5-2.4l2.8-4.1
					L12.6,8.7z"/>
			</g>
			<g>
				<path class="st171" d="M12.6,8.7c-2.2-0.6-4.2,4.6-4.9,5.3c0,0,0.1,0.8,2.3,1.9l2.4-2.7L12.6,8.7z"/>
			</g>
			<g>
				<path class="st172" d="M12.6,8.7c-2.2-0.6-4.2,4.6-4.9,5.3c0,0,0.1,0.8,2.3,1.9l2.4-2.7L12.6,8.7z"/>
			</g>
		</g>
		<g id="XMLID_1201_">
			<g id="XMLID_1202_">
				<g id="XMLID_1219_">
					<path class="st171" d="M11.1,14.4c0.3,2.2-0.4,6.7-0.4,7.2c3.5,1.8,8.6,0.3,9.3-0.4c-0.3-2.2-1-3.6-1.5-4.9l0.9-3.8
						c0,0-1.5-1.2-1.4-3.7c-1.6-0.3-3.8-0.2-5.4-0.1C11.1,10,9.2,12.5,11.1,14.4z"/>
				</g>
			</g>
		</g>
		<g id="XMLID_2030_">
			<g id="XMLID_2045_">
				<g id="XMLID_2046_">
					<path class="st172" d="M11.1,14.4c0.3,2.2-0.4,6.7-0.4,7.2c3.5,1.8,8.6,0.3,9.3-0.4c-0.3-2.2-1-3.6-1.5-4.9l0.9-3.8
						c0,0-1.5-1.2-1.4-3.7c-1.6-0.3-3.8-0.2-5.4-0.1C11.1,10,9.2,12.5,11.1,14.4z"/>
				</g>
			</g>
		</g>
		<g class="st173">
			<path class="st170" d="M13.8,14.3c1.3,1.1,3.1,0.3,3.4-0.8C17,15.5,14.3,15.5,13.8,14.3z"/>
		</g>
		<g id="XMLID_1074_">
			<g>
				<path class="st170" d="M14.9,8.8c-1,0-0.9,0.2-1.4,0.1c-0.2,0.3-0.1,2,0.4,2.7c1.5-0.3,2.2-1.7,2.3-2.9
					C16,9.1,15.7,8.8,14.9,8.8z"/>
			</g>
		</g>
		<g>
			<path class="st171" d="M16.4,8.6c0.4,0,0.5,2.6,0.3,4.1l0.2,0c0-1.3,0.4-4.5-0.8-4.3v0.2L16.4,8.6z"/>
		</g>
		<g>
			<path class="st159" d="M16.4,8.6c0.4,0,0.5,2.6,0.3,4.1l0.2,0c0-1.3,0.4-4.5-0.8-4.3v0.2L16.4,8.6z"/>
		</g>
		<g>
			<g>
				<g>
					<path class="st164" d="M16.7,17.2c-0.2,0.1-0.5,0.2-0.6,0.2l0-0.1c0.1,0,0.3,0,0.5-0.1c-1-0.8-1.2-4,0.3-4.6
						c1.4,0.7,1,3.8-0.1,4.6c0.2,0.1,0.3,0.2,0.5,0.2l0,0.1C17.1,17.5,17,17.4,16.7,17.2z M16,13.9c-0.1,0.8-0.1,2.7,0.7,3.2
						C18.5,15.7,17.3,10.5,16,13.9z"/>
				</g>
			</g>
			<g>
				<g>
					<path class="st174" d="M15.8,17.3c0,0.4,0.8,0.1,0.2-0.2C16,17.2,15.9,17.2,15.8,17.3z"/>
				</g>
			</g>
			<g>
				<g>
					<path class="st174" d="M17.1,17.4c0,0.4,0.8,0.1,0.2-0.2C17.2,17.2,17.1,17.2,17.1,17.4z"/>
				</g>
			</g>
			<g>
				<g>
					<g>
						<path class="st171" d="M15.8,14.7c0.8-2.9,1.5-2.4,1.9,0.1C18.1,11.6,15.4,12.2,15.8,14.7z"/>
					</g>
				</g>
			</g>
			<g>
				<g>
					<g>
						<path class="st164" d="M15.8,14.7c0.8-2.9,1.5-2.4,1.9,0.1C18.1,11.6,15.4,12.2,15.8,14.7z"/>
					</g>
				</g>
			</g>
		</g>
		<g>
			<g>
				<path class="st171" d="M13.7,8.3c-2.7,0.6-2.3,6.4-2.2,7.6h0.3c-0.1-1.6-0.4-6.4,1.9-7.3L13.7,8.3z"/>
			</g>
			<g>
				<path class="st159" d="M13.7,8.3c-2.7,0.6-2.3,6.4-2.2,7.6h0.3c-0.1-1.6-0.4-6.4,1.9-7.3L13.7,8.3z"/>
			</g>
			<g>
				<path class="st175" d="M12.5,16c0,1-1.6,1.1-1.7,0C10.8,15,12.4,14.9,12.5,16z"/>
			</g>
			<g>
				<path class="st176" d="M12.2,16c0,0.5-0.9,0.7-1,0C11.2,15.5,12.1,15.3,12.2,16z"/>
			</g>
		</g>
		<g>
			<g>
				<path class="st177" d="M27.6,3.5c-0.1-0.5-0.3-1.1-1.1-1.5c-0.9-0.4-1.6-0.2-2,0.1c-0.3,0.2-0.5,0.4-0.6,0.6
					c-0.1-0.2-0.3-0.4-0.6-0.6c-0.4-0.3-1.1-0.6-2-0.1c-0.8,0.4-1.1,1.1-1.1,1.5c-0.1,0.9,0.3,2,1,2.6c0.9,0.8,2.6,2.2,2.6,2.3
					c0,0,0.1,0,0.1,0c0,0,0.1,0,0.1,0c0,0,1.7-1.5,2.6-2.3C27.3,5.4,27.7,4.4,27.6,3.5z"/>
			</g>
			<g>
				<path class="st178" d="M21.6,4.9C21.7,4.9,21.7,4.9,21.6,4.9l0.2-0.4l0.3,1.6c0,0,0,0.1,0.1,0.1c0,0,0.1,0,0.1-0.1l0.4-2.2
					L23,5.2c0,0,0,0.1,0.1,0.1c0,0,0.1,0,0.1-0.1l0.2-0.5l0.1,0.2c0,0,0,0,0.1,0h0.6c0,0,0.1,0,0.1-0.1l0.1-0.4l0.3,1.6
					c0,0,0,0.1,0.1,0.1c0,0,0,0,0,0c0,0,0.1,0,0.1-0.1l0.4-2.2l0.3,1.3c0,0,0,0.1,0.1,0.1c0,0,0.1,0,0.1-0.1l0.2-0.5l0.1,0.2
					c0,0,0,0,0.1,0h1.4l0,0c0-0.1,0-0.1,0.1-0.2h-1.4l-0.2-0.4c0,0,0,0-0.1,0c0,0,0,0,0,0c0,0-0.1,0-0.1,0.1l-0.2,0.5l-0.3-1.4
					c0,0,0-0.1-0.1-0.1c0,0-0.1,0-0.1,0.1l-0.4,2.1l-0.3-1.4c0,0,0-0.1-0.1-0.1c0,0-0.1,0-0.1,0.1l-0.2,0.6h-0.5l-0.2-0.4
					c0,0,0,0-0.1,0c0,0,0,0,0,0c0,0-0.1,0-0.1,0.1l-0.2,0.5l-0.3-1.4c0,0,0-0.1-0.1-0.1c0,0-0.1,0-0.1,0.1l-0.4,2.1l-0.3-1.4
					c0,0,0-0.1-0.1-0.1c0,0-0.1,0-0.1,0.1l-0.2,0.6c0,0-0.9,0-1.3,0c0,0.1,0,0.1,0.1,0.2C20.8,4.9,21.6,4.9,21.6,4.9z"/>
			</g>
		</g>
		<g>
			<g>
				<path class="st165" d="M15.7,16.2l-0.7,0.1c-0.2,0-0.5-0.1-0.6-0.3l-0.6-1.2l-4.9,2.5l0.6,1.2c0.1,0.2,0.1,0.5-0.1,0.7L9,19.7
					c-0.5,0.6-0.6,1.4-0.2,2l4.4,8.2c0.3,0.6,1.1,0.8,1.7,0.5l6.6-3.4c0.6-0.3,0.9-1.1,0.5-1.7l-4.4-8.2
					C17.2,16.5,16.5,16.2,15.7,16.2z"/>
			</g>
			<g>
				<g class="st179">
					<path class="st166" d="M15.8,16.9L15.1,17c-0.5,0.1-1-0.2-1.3-0.7l-0.3-0.6l-1.3,0.7l0.3,0.6c0.3,0.5,0.8,0.7,1.3,0.7l0.7-0.1
						c0.5-0.1,0.9,0.2,1.2,0.6l4.4,8.2c0.1,0.3,0,0.6-0.2,0.8l1.3-0.7c0.3-0.1,0.4-0.5,0.2-0.8L17,17.5
						C16.7,17.1,16.3,16.9,15.8,16.9z"/>
				</g>
				<g>
					<path class="st166" d="M20,26.4l-4.4-8.2c-0.2-0.4-0.7-0.7-1.2-0.6l-0.7,0.1c-0.5,0.1-1-0.2-1.3-0.7l-0.3-0.6l-2.3,1.2l0.3,0.6
						c0.3,0.5,0.2,1-0.2,1.4l-0.4,0.5c-0.3,0.4-0.4,0.9-0.2,1.3l4.4,8.2c0.1,0.3,0.5,0.4,0.8,0.2l5.2-2.7C20,27,20.2,26.7,20,26.4z"
						/>
				</g>
			</g>
			<g class="st167">
				<polygon class="st159" points="14.4,15.9 9.5,18.4 9.1,17.6 14,15.1 				"/>
			</g>
			<g>
				<g>
					<g>
						<path class="st159" d="M12.9,12.8l-1.5,0.7c0.2-0.1,0.5,0,0.6,0.2l0.8,1.5c0.1,0.2,0,0.4-0.2,0.6l1.4-0.7l0.4-0.2l-1-1.9
							C13.3,12.7,13.1,12.7,12.9,12.8z"/>
					</g>
					<g>
						<path class="st164" d="M7.6,16l1,1.9L9,17.7l3.8-2l0.4-0.2l-1-1.9c-0.1-0.2-0.4-0.3-0.6-0.2l-3.9,2C7.5,15.5,7.5,15.8,7.6,16z
							"/>
					</g>
				</g>
				<g>
					<g>
						<path class="st165" d="M14.4,14.2L13,15l0.3,0.7l1.4-0.7c0.1,0,0.1-0.2,0.1-0.2l-0.2-0.3C14.6,14.2,14.5,14.2,14.4,14.2z"/>
					</g>
					<g>
						<path class="st165" d="M8,17.7L8.2,18c0,0.1,0.2,0.1,0.2,0.1l4.9-2.5L12.9,15l-4.9,2.5C8,17.5,8,17.6,8,17.7z"/>
					</g>
					<g class="st167">
						<polygon class="st159" points="8,16.8 8.3,17.3 13.3,14.7 13,14.2 						"/>
					</g>
				</g>
			</g>
			<g>
				<path class="st12" d="M14.3,27.5c-0.2,0.1-0.3,0.2-0.4,0.4c-0.2,0.3-0.2,0.7,0,1.1c0.3,0.5,1,0.7,1.5,0.4
					c0.4-0.2,0.6-0.6,0.6-0.9c0-0.2,0-0.4-0.1-0.5C15.6,27.4,14.9,27.2,14.3,27.5z"/>
			</g>
			<g>
				<path class="st12" d="M15.6,25.7c-0.2,0.1-0.3,0.2-0.4,0.4c-0.2,0.3-0.2,0.7,0,1.1c0.3,0.5,1,0.7,1.5,0.4
					c0.4-0.2,0.6-0.6,0.6-0.9c0-0.2,0-0.4-0.1-0.5C16.9,25.6,16.2,25.4,15.6,25.7z"/>
			</g>
			<g>
				<path class="st12" d="M17.8,25.7c-0.2,0.1-0.3,0.2-0.4,0.4c-0.2,0.3-0.2,0.7,0,1.1c0.3,0.5,1,0.7,1.5,0.4
					c0.4-0.2,0.6-0.6,0.6-0.9c0-0.2,0-0.4-0.1-0.5C19.1,25.6,18.4,25.4,17.8,25.7z"/>
			</g>
			<g>
				<path class="st12" d="M19,23.8c-0.2,0.1-0.3,0.2-0.4,0.4c-0.2,0.3-0.2,0.7,0,1.1c0.3,0.5,1,0.7,1.5,0.4c0.4-0.2,0.6-0.6,0.6-0.9
					c0-0.2,0-0.4-0.1-0.5C20.3,23.7,19.6,23.5,19,23.8z"/>
			</g>
			<g>
				<path class="st12" d="M12.6,20c-0.2,0.1-0.3,0.2-0.4,0.4c-0.2,0.3-0.2,0.7,0,1.1c0.3,0.5,1,0.7,1.5,0.4c0.4-0.2,0.6-0.6,0.6-0.9
					c0-0.2,0-0.4-0.1-0.5C13.8,19.9,13.1,19.7,12.6,20z"/>
			</g>
			<g>
				<path class="st12" d="M13.1,18.1c-0.2,0.1-0.3,0.2-0.4,0.4c-0.2,0.3-0.2,0.7,0,1.1c0.3,0.5,1,0.7,1.5,0.4
					c0.4-0.2,0.6-0.6,0.6-0.9c0-0.2,0-0.4-0.1-0.5C14.3,18,13.6,17.8,13.1,18.1z"/>
			</g>
			<g>
				<path class="st12" d="M15.3,18.1c-0.2,0.1-0.3,0.2-0.4,0.4c-0.2,0.3-0.2,0.7,0,1.1c0.3,0.5,1,0.7,1.5,0.4
					c0.4-0.2,0.6-0.6,0.6-0.9c0-0.2,0-0.4-0.1-0.5C16.5,18,15.8,17.8,15.3,18.1z"/>
			</g>
			<g>
				<path class="st12" d="M13.4,25.5c-0.2,0.1-0.3,0.2-0.4,0.4c-0.2,0.3-0.2,0.7,0,1.1c0.3,0.5,1,0.7,1.5,0.4
					c0.4-0.2,0.6-0.6,0.6-0.9c0-0.2,0-0.4-0.1-0.5C14.7,25.4,14,25.2,13.4,25.5z"/>
			</g>
			<g>
				<path class="st12" d="M17.3,23.6c-0.2,0.1-0.3,0.2-0.4,0.4c-0.2,0.3-0.2,0.7,0,1.1c0.3,0.5,1,0.7,1.5,0.4
					c0.4-0.2,0.6-0.6,0.6-0.9c0-0.2,0-0.4-0.1-0.5C18.5,23.5,17.8,23.3,17.3,23.6z"/>
			</g>
			<g>
				<polygon class="st162" points="9.3,22.7 12.1,27.9 19,24.4 16.2,19.1 				"/>
			</g>
			<g>
				<polygon class="st161" points="19,24.4 20.9,23.4 18.1,18.2 16.2,19.1 				"/>
			</g>
			<g class="st180">
				<path class="st12" d="M12.7,25.6c0.1,0.3,0.5,0.4,0.8,0.2c0.3-0.1,0.4-0.5,0.2-0.7l-2-3.6l-1,0.5L12.7,25.6z"/>
			</g>
			<g class="st180">
				<path class="st12" d="M11.3,20.7c-0.1-0.3-0.5-0.4-0.8-0.2c-0.3,0.1-0.4,0.5-0.2,0.7l0.4,0.8l1-0.5L11.3,20.7z"/>
			</g>
			<g>
				<path class="st166" d="M16.6,22.4l-3,1.5c-0.1,0-0.2,0-0.3-0.1c-0.1-0.1,0-0.2,0.1-0.3l3-1.5c0.1,0,0.2,0,0.3,0.1
					C16.8,22.2,16.7,22.3,16.6,22.4z"/>
			</g>
			<g>
				<path class="st166" d="M16,21.1l-3,1.5c-0.1,0-0.2,0-0.3-0.1c-0.1-0.1,0-0.2,0.1-0.3l3-1.5c0.1,0,0.2,0,0.3,0.1
					C16.1,21,16.1,21.1,16,21.1z"/>
			</g>
			<g>
				<path class="st166" d="M17.3,23.6l-3,1.5c-0.1,0-0.2,0-0.3-0.1c-0.1-0.1,0-0.2,0.1-0.3l3-1.5c0.1,0,0.2,0,0.3,0.1
					C17.4,23.5,17.4,23.6,17.3,23.6z"/>
			</g>
		</g>
		<g>
			<g>
				<path class="st170" d="M22.5,20.7c2.5-3,2.9-4.1,2.2-5.2c-4.3-6.3-4.3-6.2-6.5-6.7c-1.6,3,2.6,5.7,3.9,7.8
					c-0.3,0.7-1.3,2.5-1.6,3C20.5,19.6,21.4,20.4,22.5,20.7z"/>
			</g>
			<g>
				<path class="st171" d="M18,8.8c2.8-0.4,5.1,4.5,5.8,5.2c0,0-0.6,1.7-2.8,2.2C19.4,13.8,16.9,12.5,18,8.8z"/>
			</g>
			<g>
				<path class="st172" d="M18,8.8c2.8-0.4,5.1,4.5,5.8,5.2c0,0-0.6,1.7-2.8,2.2C19.4,13.8,16.9,12.5,18,8.8z"/>
			</g>
		</g>
		<g>
			<g>
				<g>
					<g>
						<g>
							<g>
								<path class="st12" d="M14.7,6.5L14.7,6.5c0.4-0.1,0.6-0.4,0.5-0.8l0,0L14,6.1l0,0C14.1,6.4,14.4,6.6,14.7,6.5z"/>
							</g>
						</g>
					</g>
				</g>
			</g>
		</g>
		<g>
			<g>
				<g>
					<path class="st144" d="M16.1,6.9V9c0,0.4-0.3,0.7-0.6,0.7c-0.2,0-0.4,0.1-0.7,0.1c-0.3,0-0.5,0-0.7,0c-0.4-0.1-0.6-0.4-0.6-0.7
						V6.5L16.1,6.9z"/>
				</g>
				<g class="st145">
					<path class="st146" d="M16.1,6.9v0.7c0,0,0,0,0,0s-0.2,0.7-1.3,0.8c-0.8,0-1.1-0.5-1.2-0.8v-1L16.1,6.9z"/>
				</g>
				<g>
					<g>
						<ellipse class="st144" cx="12.7" cy="5.2" rx="0.8" ry="0.8"/>
					</g>
					<g>
						<path class="st146" d="M13,5.5C13,5.5,13,5.5,13,5.5L12.4,5c0,0,0,0,0-0.1c0,0,0.1,0,0.1,0L13,5.5C13.1,5.4,13.1,5.4,13,5.5
							C13.1,5.5,13.1,5.5,13,5.5z"/>
					</g>
				</g>
				<g>
					<g>
						<path class="st144" d="M17.8,5.2C17.8,5.6,17.5,6,17,6s-0.8-0.4-0.8-0.8c0-0.4,0.4-0.8,0.8-0.8S17.8,4.8,17.8,5.2z"/>
					</g>
					<g>
						<path class="st146" d="M16.7,5.6C16.7,5.6,16.7,5.5,16.7,5.6L17.3,5c0,0,0,0,0-0.1c0,0-0.1,0-0.1,0L16.7,5.6
							C16.6,5.5,16.6,5.5,16.7,5.6C16.7,5.5,16.7,5.6,16.7,5.6z"/>
					</g>
				</g>
				<g>
					<path class="st144" d="M13.6,2.2l-0.8,1.2v3.2c0,0.1,0.1,0.3,0.2,0.4c0,0,0.9,0.9,1.9,1c1-0.1,1.9-1,1.9-1
						C16.9,6.9,17,6.8,17,6.6V3.4l-0.7-0.7L13.6,2.2z"/>
				</g>
				<g>
					<path class="st147" d="M15.3,5.9h-0.5c0,0-0.1,0-0.1-0.1c0,0,0-0.1,0.1-0.1h0.5l-0.1-1.4c0,0,0-0.1,0-0.1c0,0,0.1,0,0.1,0
						L15.3,5.9C15.4,5.8,15.4,5.8,15.3,5.9C15.3,5.8,15.3,5.9,15.3,5.9z"/>
				</g>
				<g>
					<path class="st148" d="M14.1,4c0,0.2-0.6,0.3-0.7,0.1C13.4,3.9,14.1,3.7,14.1,4z"/>
				</g>
				<g>
					<path class="st148" d="M16.4,4.1c-0.1,0.2-0.7,0-0.6-0.2C15.8,3.7,16.5,3.9,16.4,4.1z"/>
				</g>
				<g class="st145">
					<ellipse class="st146" cx="13.5" cy="5.8" rx="0.7" ry="0.7"/>
				</g>
				<g class="st145">
					<ellipse class="st146" cx="16.2" cy="5.8" rx="0.7" ry="0.7"/>
				</g>
				<g>
					<path class="st149" d="M14.1,4.8C14.1,4.9,14,5,14,5c-0.1,0-0.1-0.1-0.1-0.2c0-0.1,0.1-0.2,0.1-0.2C14.1,4.5,14.1,4.7,14.1,4.8
						z"/>
				</g>
				<g>
					<path class="st149" d="M16,4.8C16,4.9,15.9,5,15.9,5c-0.1,0-0.1-0.1-0.1-0.2c0-0.1,0.1-0.2,0.1-0.2C15.9,4.5,16,4.6,16,4.8z"/>
				</g>
			</g>
			<g>
				<g>
					<path class="st181" d="M15.5,6.7C15.5,6.7,15.5,6.7,15.5,6.7c-0.2,0.2-0.4,0.3-0.6,0.2c-0.1,0-0.2,0-0.3-0.1
						c-0.1-0.1-0.2-0.2-0.2-0.3c0-0.1,0-0.2,0.1-0.2c0,0,0,0,0.1,0c0,0,0.1,0,0.1,0c0.2,0,0.4,0,0.6,0c0.1,0,0.1,0,0.2,0
						c0.1,0,0.1,0,0.1,0.1C15.6,6.5,15.5,6.6,15.5,6.7z"/>
				</g>
				<g>
					<path class="st12" d="M15.4,6.3c0,0,0,0.1,0,0.1c0,0-0.1,0.1-0.1,0.1c-0.2,0-0.4,0-0.6,0c0,0-0.1,0-0.1-0.1c0,0,0-0.1,0-0.1
						c0,0,0.1,0,0.1,0c0.2,0,0.4,0,0.6,0C15.3,6.3,15.3,6.3,15.4,6.3z"/>
				</g>
				<g>
					<path class="st147" d="M15.4,6.7c-0.1,0.1-0.4,0.2-0.6,0.2c-0.1,0-0.2,0-0.3-0.1c0.1-0.1,0.2-0.1,0.3-0.2
						C15.1,6.6,15.3,6.6,15.4,6.7z"/>
				</g>
			</g>
		</g>
		<g>
			<path d="M12.8,4.3c0,0,0.9-1,1.1-1.7c0,0,2.7,0.7,3.1,1.7c0,0,0.3-0.3,0.3-0.4c0-0.1-0.3-1.2-0.3-1.2c0-0.1-1.7-0.4-1.7-0.4
				l-0.9-0.1l-0.7-0.1c0,0-1.1,0.9-1.1,0.9C12.5,3.1,12.6,4.2,12.8,4.3z"/>
		</g>
		<g>
			<path class="st142" d="M17.3,2.5C16.2,0.5,14,1,14,1c0,0-1.1,0.3-1.5,1l0,0c0.4-0.7,1.5-1,1.5-1C14,0.9,16.2,0.5,17.3,2.5
				L17.3,2.5z"/>
		</g>
		<g>
			<path class="st142" d="M17.4,4.5C16.5,2.1,13.8,2,13.7,2c-1.1,0.2-1.2,2.3-1.2,2.4l0,0c0-0.1,0.1-2.2,1.2-2.4
				C13.8,2,16.5,2,17.4,4.5L17.4,4.5z"/>
		</g>
		<g>
			<path class="st142" d="M12.2,4.5c0,0-0.2-0.5,0-1.2c0.1-0.6,0.5-1.4,1.7-2l0,0c0,0,0.6-0.1,1.3,0.2c0.7,0.3,1.7,0.9,2.4,2.3l0,0
				c-0.7-1.4-1.7-2-2.4-2.3c-0.7-0.3-1.3-0.2-1.3-0.2C11.6,2.4,12.3,4.4,12.2,4.5L12.2,4.5z"/>
		</g>
		<g>
			<g>
				<g>
					<g>
						<g>
							<g>
								<g>
									<path class="st144" d="M18,23.4c-0.1,0.2-0.1,0.4,0.1,0.5c0.2,0.1,0.4-0.3,0.6-0.6c-0.1,0.3-0.2,0.5,0,0.6
										c0.4,0.1,0.4-1,1.3-1.3c0.6-0.3,0.9-0.5,1.1-0.7c0.1-0.2,0.2-0.3,0.3-0.4c-0.3-0.4-0.8-0.7-1.2-0.9
										c-0.2,0.1-0.4,0.2-0.6,0.3c-0.2,0.1-0.5,0.3-0.8,0.4c-0.3,0.2-0.8,0.4-1,0.6c-0.3,0.3-1.2,1.5-0.9,1.8
										c0.2,0.1,0.5-0.3,0.7-0.6c-0.2,0.4-0.4,0.9-0.2,1C17.7,23.9,17.9,23.7,18,23.4z"/>
								</g>
								<g>
									<path class="st169" d="M19.1,22.7c0,0-0.2,0.3-0.3,0.6C18.9,23,19.1,22.7,19.1,22.7z"/>
								</g>
								<g>
									<path class="st169" d="M17.7,22.9c0.1-0.2,0.2-0.3,0.2-0.3C17.9,22.5,17.8,22.7,17.7,22.9z"/>
								</g>
								<g>
									<path class="st169" d="M18.5,22.6c0,0-0.3,0.5-0.4,0.9C18.3,23.1,18.5,22.6,18.5,22.6z"/>
								</g>
								<g>
									<g>
										<path class="st146" d="M18.2,22.1c-0.1,0.1-0.2,0.3-0.3,0.4c-0.1,0.1-0.2,0.3-0.2,0.4c-0.2,0.4-0.2,0.6-0.2,0.6
											c0.1-0.4,0.4-0.9,0.5-1C18,22.4,18.1,22.2,18.2,22.1C18.2,22.1,18.2,22.1,18.2,22.1z"/>
									</g>
									<g>
										<path class="st146" d="M18.7,22.4c-0.2,0.2-0.5,0.7-0.6,1.1c0,0,0,0,0,0C18.2,23.3,18.6,22.6,18.7,22.4
											C18.7,22.4,18.7,22.4,18.7,22.4z"/>
									</g>
									<g>
										<path class="st146" d="M19.2,22.6c-0.2,0.2-0.4,0.5-0.5,0.8c0,0,0,0,0,0C18.9,23.1,19,22.9,19.2,22.6
											C19.2,22.6,19.2,22.6,19.2,22.6z"/>
									</g>
								</g>
							</g>
							<g>
								<path class="st144" d="M19.4,20.8c0,0-1.4,0.4-1.7,0.3c-0.2-0.1-0.5,0.1-0.2,0.3c0.2,0.2,0.4,0.3,0.4,0.3
									C18,21.6,19,21.1,19.4,20.8z"/>
							</g>
						</g>
					</g>
				</g>
			</g>
		</g>
		<g>
			<path class="st144" d="M20.2,20.4l0.5-0.7c0,0,0.5,0.5,1.4,0.8l-0.8,0.8L20.2,20.4z"/>
		</g>
		<g>
			<g>
				<g>
					<g class="st182">
						<path class="st183" d="M10,19.2C9.9,19.2,9.9,19.3,10,19.2c0,0.1,0.1,0.1,0.1,0.1c0,0,0-0.1,0-0.1C10,19.2,10,19.2,10,19.2z"
							/>
					</g>
					<g>
						<path class="st183" d="M10.6,19.5C10.6,19.5,10.6,19.5,10.6,19.5l-0.2-0.1c-0.1,0-0.1-0.1-0.1-0.1c0-0.1,0.1-0.1,0.1-0.1
							l0.2,0.1c0.1,0,0.1,0.1,0.1,0.1C10.7,19.5,10.7,19.5,10.6,19.5z"/>
					</g>
				</g>
			</g>
			<g>
				<g>
					<g>
						<g>
							<path class="st144" d="M9.5,20.7c-0.3,0.8-1,0.8-1.1-0.2c-0.2-1.4,1-1.9,1.3-1.9c0.3,0,0.9,0,1.1,0c0.2,0,0.3,0.4-0.1,0.4
								c-0.4,0-0.6,0.1-0.6,0.1s0.5,0.1,0.7,0.1c0.2,0,0.2,0.3,0,0.3c-0.2,0-0.9,0.1-0.9,0.1s0.6,0.1,0.8,0.1c0.2,0,0.2,0.3-0.2,0.3
								c-0.4,0-0.8,0.1-0.8,0.1s0.4,0.1,0.6,0.1c0.2,0,0.1,0.3-0.1,0.3C10,20.6,9.5,20.7,9.5,20.7z"/>
						</g>
					</g>
					<g>
						<g>
							<g>
								<path class="st146" d="M9.7,19.1C9.7,19.1,9.7,19.1,9.7,19.1C9.7,19.1,9.7,19.2,9.7,19.1c0.2,0.1,0.3,0.1,0.4,0.1
									c0,0,0.1,0,0.1,0c0,0,0-0.1,0-0.1C10,19.1,9.8,19.1,9.7,19.1C9.7,19.1,9.7,19.1,9.7,19.1z"/>
							</g>
						</g>
						<g>
							<g>
								<path class="st146" d="M9.5,19.6C9.5,19.6,9.5,19.6,9.5,19.6C9.5,19.6,9.5,19.6,9.5,19.6l0.5,0.1c0,0,0.1,0,0.1,0
									c0,0,0-0.1,0-0.1L9.5,19.6C9.5,19.5,9.5,19.5,9.5,19.6z"/>
							</g>
						</g>
						<g>
							<g>
								<path class="st146" d="M9.4,20.1C9.4,20.1,9.4,20.1,9.4,20.1C9.4,20.2,9.4,20.2,9.4,20.1l0.4,0.1c0,0,0.1,0,0.1-0.1
									c0,0,0-0.1-0.1-0.1L9.4,20.1C9.4,20.1,9.4,20.1,9.4,20.1z"/>
							</g>
						</g>
					</g>
				</g>
			</g>
		</g>
		<g>
			<g>
				<g>
					<g>
						<polygon points="51.5,48.3 51.4,48.9 57.1,49 57,48.5 						"/>
					</g>
					<g>
						<path class="st159" d="M51.5,48.3c0,0,1.7,0.2,3.3,0.2c0.9,0,1.7,0.1,2.1,0c-0.5-0.2-1-0.4-1.5-0.6c-1.3-0.6-1.7-1.1-1.6-2.1
							c0.1-0.8,0.4-2,0.4-2l-1.9-0.3c0,0-0.2,1.3-0.3,2.3C52,46.4,51.6,48,51.5,48.3z"/>
					</g>
					<g>
						<path class="st144" d="M52.1,45.7l1.8,0c0.1-0.8,0.4-2,0.4-2l-1.9-0.3C52.3,43.4,52.2,44.7,52.1,45.7z"/>
					</g>
					<g>
						<g>
							<path class="st12" d="M52.8,45.9c0.1,0.2,0.3,0.4,0.4,0.5c0.1,0.1,0.2,0.1,0.3,0.2c0.1,0,0.2,0.1,0.2,0.1c0,0-0.1,0-0.1,0.1
								c-0.1,0-0.1,0.1-0.2,0.1c0,0-0.1,0.1-0.1,0.1c0,0,0.1,0,0.1,0c0.1-0.1,0.3-0.2,0.4-0.2c0,0,0,0,0-0.1c0,0,0,0,0,0
								c0,0,0,0,0,0c0.2-0.1,0.4-0.2,0.6-0.3c0.1-0.1,0.2-0.1,0.2-0.2c0.1-0.1,0.1-0.1,0.2-0.2c0-0.2-0.1-0.3-0.3-0.3
								c-0.1,0-0.2,0.1-0.3,0.1c-0.1,0.1-0.2,0.1-0.2,0.2c-0.1,0.1-0.1,0.2-0.2,0.3c0,0-0.1,0.1-0.1,0.1c0,0,0,0,0,0
								c-0.1-0.2-0.2-0.4-0.3-0.5c-0.1-0.1-0.1-0.2-0.2-0.3c-0.1-0.1-0.2-0.1-0.3-0.1c-0.1,0-0.2,0-0.2,0.1
								C52.7,45.7,52.8,45.8,52.8,45.9z M53.9,46.5C53.9,46.5,53.9,46.5,53.9,46.5c0.1-0.1,0.1-0.2,0.1-0.2c0.1-0.1,0.1-0.2,0.2-0.2
								c0.1-0.1,0.1-0.1,0.2-0.2c0.1-0.1,0.1-0.1,0.2-0.1c0.1,0,0.2,0,0.2,0.1c0.1,0.1,0,0.2-0.1,0.2c-0.1,0.1-0.3,0.2-0.4,0.3
								C54.2,46.4,54,46.5,53.9,46.5z M52.9,45.6c0.1-0.1,0.2,0,0.3,0c0.1,0.1,0.1,0.1,0.2,0.2c0.1,0.1,0.1,0.2,0.2,0.3
								c0.1,0.1,0.2,0.3,0.2,0.4c-0.1,0-0.2,0-0.2-0.1c-0.1,0-0.2-0.1-0.3-0.1c-0.1-0.1-0.3-0.2-0.4-0.4
								C52.8,45.8,52.8,45.7,52.9,45.6z"/>
						</g>
						<g>
							<path class="st12" d="M53.5,47.2C53.5,47.2,53.5,47.2,53.5,47.2c0.1-0.1,0.2-0.1,0.2-0.1c0.1-0.1,0.2-0.1,0.3-0.2
								c0,0,0.1,0,0,0.1c-0.1,0.1-0.2,0.1-0.3,0.2c0,0-0.1,0.1-0.1,0.1c0,0-0.1,0.1-0.2,0.1C53.5,47.3,53.4,47.3,53.5,47.2
								C53.4,47.2,53.5,47.2,53.5,47.2z"/>
						</g>
						<g>
							<path class="st12" d="M53.6,47.7c0.1-0.1,0.2-0.2,0.3-0.2c0.1-0.1,0.2-0.2,0.4-0.2c0,0,0.1,0,0,0c-0.1,0.1-0.2,0.2-0.3,0.3
								c-0.1,0.1-0.2,0.2-0.3,0.2c0,0-0.1,0.1-0.2,0.1C53.5,47.8,53.6,47.7,53.6,47.7z"/>
						</g>
						<g>
							<path class="st12" d="M54.2,47.9c0.1-0.1,0.1-0.1,0.2-0.2c0.1-0.1,0.2-0.1,0.2-0.2c0,0,0.1,0,0,0.1c-0.1,0.1-0.3,0.3-0.4,0.4
								c0,0-0.1,0.1-0.1,0.1C54.2,48,54.2,48,54.2,47.9C54.2,47.9,54.2,47.9,54.2,47.9z"/>
						</g>
						<g>
							<path class="st164" d="M54.8,48.5c0.8,0.2,1.8,0.2,2.2,0c-0.5-0.2-1.1-0.4-1.6-0.6c-0.2,0.1-0.4,0.3-0.5,0.5
								C54.9,48.4,54.8,48.4,54.8,48.5z"/>
						</g>
						<g>
							<path class="st12" d="M52.6,47.5c-0.1,0.1-0.3,0-0.4-0.1c-0.3-0.2-0.1-0.8,0.3-0.7C52.8,46.8,53,47.3,52.6,47.5z"/>
						</g>
					</g>
				</g>
				<g>
					<g>
						<polygon points="46.2,48.5 46.2,49.1 40.6,48.4 40.7,48 						"/>
					</g>
					<g>
						<path class="st159" d="M46.2,48.5c0,0-1.7-0.1-3.3-0.2c-0.9-0.1-1.7-0.2-2.1-0.3c0.5-0.1,1-0.3,1.6-0.4
							c1.4-0.5,1.9-0.8,1.9-1.9c0-0.8-0.1-2.1-0.1-2.1l1.9,0c0,0,0,1.3,0,2.3C46,46.5,46.1,48.2,46.2,48.5z"/>
					</g>
					<g>
						<path class="st144" d="M46,45.9l-1.8-0.2c0-0.8-0.1-2.1-0.1-2.1l1.9,0C46,43.6,46,44.9,46,45.9z"/>
					</g>
					<g>
						<g>
							<path class="st12" d="M45.3,45.7c0-0.1-0.1-0.1-0.2-0.2c-0.1,0-0.2,0-0.3,0.1c-0.1,0.1-0.2,0.2-0.2,0.2
								c-0.1,0.2-0.3,0.3-0.4,0.5c0,0,0,0,0,0c0-0.1,0-0.1-0.1-0.2c0-0.1-0.1-0.2-0.2-0.3c-0.1-0.1-0.1-0.2-0.2-0.3
								c-0.1-0.1-0.1-0.1-0.2-0.2c-0.2,0-0.3,0-0.3,0.2c0,0.1,0.1,0.2,0.1,0.3c0.1,0.1,0.1,0.2,0.2,0.2c0.2,0.1,0.3,0.3,0.5,0.3
								c0,0,0,0,0,0c0,0,0,0,0,0c0,0,0,0.1,0,0.1c0.1,0.1,0.3,0.2,0.4,0.3c0,0,0.1,0.1,0.1,0c0.1,0,0-0.1,0-0.1
								c-0.1,0-0.1-0.1-0.2-0.1c0,0-0.1-0.1-0.1-0.1c0.1,0,0.2,0,0.3-0.1c0.1,0,0.2-0.1,0.3-0.1c0.2-0.1,0.4-0.2,0.5-0.4
								C45.3,45.9,45.3,45.8,45.3,45.7z M43.7,46.2c-0.1-0.1-0.3-0.2-0.4-0.4c0-0.1-0.1-0.2,0-0.2c0.1-0.1,0.1-0.1,0.2,0
								c0.1,0,0.1,0.1,0.2,0.2c0.1,0.1,0.1,0.1,0.2,0.2c0.1,0.1,0.1,0.2,0.1,0.3c0,0,0,0.1,0.1,0.1c0,0,0,0,0,0.1
								C44,46.4,43.8,46.3,43.7,46.2z M45.2,46c-0.1,0.1-0.3,0.3-0.4,0.4c-0.1,0-0.2,0.1-0.3,0.1c-0.1,0-0.2,0-0.2,0
								c0.1-0.1,0.2-0.3,0.3-0.4c0.1-0.1,0.1-0.2,0.2-0.2c0.1-0.1,0.1-0.1,0.2-0.2c0.1,0,0.2-0.1,0.3,0C45.2,45.8,45.2,45.9,45.2,46
								z"/>
						</g>
						<g>
							<path class="st12" d="M44.4,47.2C44.4,47.1,44.3,47.1,44.4,47.2c-0.1-0.1-0.2-0.1-0.2-0.2c-0.1-0.1-0.2-0.1-0.3-0.2
								c0,0-0.1,0-0.1,0.1c0.1,0.1,0.2,0.2,0.3,0.2c0,0,0.1,0.1,0.1,0.1c0,0,0.1,0.1,0.2,0.1C44.4,47.3,44.4,47.3,44.4,47.2
								C44.4,47.2,44.4,47.2,44.4,47.2z"/>
						</g>
						<g>
							<path class="st12" d="M44.2,47.6c-0.1-0.1-0.2-0.2-0.3-0.3c-0.1-0.1-0.2-0.2-0.3-0.3c0,0-0.1,0,0,0c0.1,0.1,0.2,0.2,0.3,0.3
								c0.1,0.1,0.2,0.2,0.3,0.3c0,0,0.1,0.1,0.1,0.1C44.3,47.7,44.2,47.6,44.2,47.6z"/>
						</g>
						<g>
							<path class="st12" d="M43.6,47.7c-0.1-0.1-0.1-0.2-0.2-0.2c-0.1-0.1-0.1-0.2-0.2-0.2c0,0-0.1,0-0.1,0
								c0.1,0.2,0.2,0.3,0.3,0.5c0,0,0.1,0.1,0.1,0.1C43.6,47.9,43.6,47.8,43.6,47.7C43.6,47.8,43.6,47.8,43.6,47.7z"/>
						</g>
						<g>
							<path class="st164" d="M42.9,48.3c-0.9,0.1-1.8-0.1-2.2-0.3c0.5-0.1,1.1-0.2,1.6-0.4c0.2,0.1,0.3,0.3,0.5,0.5
								C42.9,48.1,42.9,48.2,42.9,48.3z"/>
						</g>
						<g>
							<path class="st12" d="M45.2,47.5c0.1,0.1,0.3,0.1,0.4,0c0.3-0.2,0.2-0.7-0.2-0.7C45.1,46.8,44.9,47.3,45.2,47.5z"/>
						</g>
					</g>
				</g>
				<g>
					<path class="st160" d="M49.6,19.7l0.2,5.9c0,0.2,0,0.3,0,0.5c0.1,3.2,0.3,6.4,0.6,9.4c0.3,3.4,0.8,6.7,1.3,9.9h3.4
						c0.5-7.1,1.2-15.6-0.2-23.3L54.1,20L49.6,19.7z"/>
				</g>
				<g>
					<path class="st160" d="M44.9,22.3c-0.9,7-1.6,14.9-1.3,22.3l3.7,0.7c1-6.1,2.8-14,3-21.1l0.5-5.8L45.3,20L44.9,22.3z"/>
				</g>
				<g class="st167">
					<g>
						<g>
							<path class="st168" d="M50.2,26.2c-0.5,3.2-0.1,6.2,0.2,9.3c0.6-1.8,1-3.1,1-3.1S50.4,26.7,50.2,26.2z"/>
						</g>
					</g>
				</g>
			</g>
			<g>
				<g>
					<g>
						<g>
							<g>
								<g>
									<path class="st144" d="M47.8,6.8v2.1c0,0.4,0.3,0.6,0.6,0.7c0.2,0,0.4,0.1,0.7,0.1c0.3,0,0.5,0,0.7,0
										c0.3-0.1,0.6-0.4,0.6-0.7V6.5L47.8,6.8z"/>
								</g>
								<g class="st145">
									<path class="st146" d="M47.8,6.8v0.7c0,0,0,0,0,0s0.2,0.7,1.2,0.7c0.8,0,1.1-0.5,1.2-0.7v-1L47.8,6.8z"/>
								</g>
								<g>
									<g>
										<path class="st144" d="M50.4,5.2c0,0.4,0.4,0.8,0.8,0.8S52,5.6,52,5.2c0-0.4-0.4-0.8-0.8-0.8S50.4,4.7,50.4,5.2z"/>
									</g>
									<g>
										<path class="st146" d="M50.8,5.4C50.8,5.4,50.8,5.4,50.8,5.4l0.6-0.5c0,0,0,0,0-0.1c0,0,0,0-0.1,0L50.8,5.4
											C50.8,5.4,50.8,5.4,50.8,5.4C50.8,5.4,50.8,5.4,50.8,5.4z"/>
									</g>
								</g>
								<g>
									<g>
										<ellipse class="st144" cx="46.9" cy="5.2" rx="0.8" ry="0.8"/>
									</g>
									<g>
										<path class="st146" d="M47.2,5.5C47.2,5.5,47.2,5.5,47.2,5.5L46.6,5c0,0,0,0,0-0.1c0,0,0,0,0.1,0L47.2,5.5
											C47.3,5.4,47.3,5.5,47.2,5.5C47.2,5.5,47.2,5.5,47.2,5.5z"/>
									</g>
								</g>
								<g>
									<path class="st144" d="M50.2,2.2l0.8,1.2v3.2c0,0.1-0.1,0.3-0.2,0.4c0,0-0.9,0.9-1.9,1c-1-0.1-1.9-1-1.9-1
										c-0.1-0.1-0.2-0.2-0.2-0.4V3.4l0.7-0.7L50.2,2.2z"/>
								</g>
								<g>
									<path class="st147" d="M48.7,5.9h0.5c0,0,0.1,0,0.1,0s0,0-0.1,0L48.7,5.9l0.2-1.4c0,0,0-0.1,0-0.1c0,0-0.1,0-0.1,0
										L48.7,5.9C48.6,5.8,48.6,5.8,48.7,5.9C48.7,5.9,48.7,5.9,48.7,5.9z"/>
								</g>
								<g>
									<path class="st148" d="M49.7,4c0,0.2,0.6,0.3,0.7,0.1C50.4,3.9,49.7,3.7,49.7,4z"/>
								</g>
								<g>
									<path class="st148" d="M47.6,4.1c0.1,0.1,0.7,0,0.6-0.2C48.1,3.7,47.4,3.9,47.6,4.1z"/>
								</g>
								<g class="st145">
									<ellipse class="st146" cx="50.3" cy="5.8" rx="0.7" ry="0.6"/>
								</g>
								<g class="st145">
									<ellipse class="st146" cx="47.7" cy="5.8" rx="0.7" ry="0.6"/>
								</g>
								<g>
									<path class="st149" d="M49.6,5c0,0.1,0.1,0.2,0.1,0.2c0.1,0,0.1-0.1,0.1-0.2c0-0.1-0.1-0.2-0.1-0.2
										C49.7,4.8,49.6,4.9,49.6,5z"/>
								</g>
								<g>
									<path class="st149" d="M48,4.9C48,5,48,5.1,48.1,5.1c0.1,0,0.1-0.1,0.1-0.2c0-0.1-0.1-0.2-0.1-0.2C48,4.7,48,4.8,48,4.9z"
										/>
								</g>
							</g>
						</g>
						<g>
							<g>
								<path d="M48.4,6.6C48.4,6.6,48.5,6.7,48.4,6.6c0.2,0.2,0.4,0.3,0.6,0.3c0.1,0,0.2,0,0.3-0.1c0.1-0.1,0.2-0.2,0.2-0.3
									c0-0.1,0-0.2-0.1-0.2c0,0,0,0-0.1,0c0,0-0.1,0-0.1,0c-0.2,0-0.4,0-0.6,0c-0.1,0-0.1,0-0.2,0c-0.1,0-0.1,0-0.1,0.1
									C48.3,6.4,48.4,6.5,48.4,6.6z"/>
							</g>
							<g>
								<path class="st12" d="M48.5,6.2c0,0,0,0.1,0,0.1c0,0,0.1,0.1,0.1,0.1c0.2,0,0.4,0,0.6,0c0,0,0.1,0,0.1-0.1c0,0,0-0.1,0-0.1
									c0,0-0.1,0-0.1,0c-0.2,0-0.4,0-0.6,0C48.7,6.2,48.6,6.2,48.5,6.2z"/>
							</g>
							<g>
								<path class="st147" d="M48.5,6.7c0.1,0.1,0.4,0.2,0.6,0.2c0.1,0,0.2,0,0.3-0.1c-0.1-0.1-0.2-0.1-0.3-0.2
									C48.8,6.6,48.6,6.6,48.5,6.7z"/>
							</g>
						</g>
					</g>
					<g>
						<g>
							<g>
								<g>
									<g>
										<path d="M47.4,2.8c0,0,0.2,0.6,0,1c-0.2,0.4-0.2,1.6-0.2,1.9c0,0-0.1,0-0.1,0s0-1.3-0.5-1.3c-0.1-0.6-0.4-1.3,0-2
											c0.4-0.8,1.8-1.3,2.6-1.3c0.8,0,1.3,0.6,2.1,1c1,0.5,0.4,2,0.3,2.3c-0.1,0-0.2,0.1-0.3,0.4c-0.1,0.3-0.1,1-0.1,1H51
											c0,0,0-0.6,0-1c0-0.4-0.3-0.7-0.3-1.1c0-0.3,0.1-0.7,0.1-0.7C50.3,3.2,48.1,3.3,47.4,2.8z"/>
									</g>
									<g>
										<path class="st184" d="M50.6,3c0,0,0.3-0.4,0.3-0.9C51,2.3,50.9,2.8,50.6,3C50.6,3,50.6,3,50.6,3z"/>
									</g>
								</g>
							</g>
						</g>
						<g>
							<path d="M51,1.8c0,0-0.3-0.7-1.4-1.2c-1-0.4-0.9,0.2-0.9,0.2c-0.9-0.7-1.6-0.2-1.4,0.1c-1-0.4-1.5,0.4-1.1,0.8
								c-0.5,0.1-0.9,0.6,0.2,1.1c1.1,0.5,2.7,0.3,2.7,0.3c-0.7,0.2,0,0.7,0.8,0.4C50.8,3.3,51.3,2.6,51,1.8z"/>
						</g>
					</g>
				</g>
				<g>
					<path class="st144" d="M43,13.7c0,0-1.3,3.2-1,4c0.3,0.8,1.9,0.7,2.2,0.3c0.3-0.4,1.1-4,1.1-4L43,13.7z"/>
				</g>
				<g class="st145">
					<path class="st146" d="M42.6,14.8c0.2-0.6,0.4-1.1,0.4-1.1l2.4,0.3c0,0-0.4,1.5-0.7,2.7C44.2,15.9,43.5,15.2,42.6,14.8z"/>
				</g>
				<g>
					<path class="st172" d="M54.6,9.7c0,0,1.7,3.5,2.2,4.7c-2.3,1.4-3,1.3-3,1.3S54.4,10.9,54.6,9.7z"/>
				</g>
				<g>
					<path class="st170" d="M47.5,8.5l-2,0.8l-1.2,0.6c0,0,0,3,0.5,5.3c0.5,2.4,0.3,7-0.1,8.2c3.4,1.5,9.4,0.4,10.6,0
						c-0.8-5.1-0.8-8.1-0.8-10c0-1.9,0.1-3.7,0.1-3.7s-3-1.1-4.1-1.2C49.3,8.3,47.5,8.5,47.5,8.5z"/>
				</g>
				<g class="st173">
					<path class="st185" d="M53.3,23.9c0,0-1-1.7-0.2-5.9c0.6-3.2,1.2-8.3,1.2-8.3c0.3,0.1-0.2,1.7,0.1,2.1c0,0.6,0,1.1,0,1.8
						c0,1.9,0,4.8,0.8,9.8C54.9,23.5,54.2,23.7,53.3,23.9z"/>
				</g>
				<g class="st173">
					<path class="st185" d="M44.9,16.9c0.9-0.4,6.4-2.6,6.9-2.6c0.6,0,1.3,1.6,0.6,2c-0.7,0.4-2.1,0.2-3.4,0.9
						c-0.7,0.4-1.3,0.8-2.1,1.1c-0.6,0.3-1.3,0.7-1.9,0.7C45,18.5,45,17.4,44.9,16.9z"/>
				</g>
				<g>
					<path class="st185" d="M54.4,10c0,0-0.4,4.7,0.2,7.6C54.5,14.7,54.4,10,54.4,10z"/>
				</g>
				<g>
					<g>
						<path class="st144" d="M47.8,8.3c0,0.1-0.3,0.1-0.3,0.2c0,1.1,1.7,2.5,2,2.4c0.4,0,1.2-1.4,0.9-2.4c-0.1-0.1-0.2-0.1-0.2-0.3
							L47.8,8.3z"/>
					</g>
				</g>
				<g>
					<path class="st172" d="M44.3,9.9c0,0-1.5,2.4-2.2,4.5c2.7,1,3.3,0.9,3.3,0.9S45.4,10.8,44.3,9.9z"/>
				</g>
				<g>
					<path class="st185" d="M44.5,10.2c0,0-0.1,2.6,0.2,5c0.3,2.4,0.3,2.7,0.3,2.7s0.2-1.2,0-3.3C44.8,12.4,44.5,10.2,44.5,10.2z"/>
				</g>
				<g>
					<g>
						<path class="st146" d="M52.4,14.3C52.4,14.3,52.4,14.3,52.4,14.3c0.1-0.1,0.2-0.2,0.3-0.2c0-0.1,0-0.3-0.3-0.4
							c0.1-0.1,0.2-0.1,0.2-0.2c0-0.1,0-0.3-0.2-0.4v0c0,0-0.1-0.1-0.3-0.1c-0.2-0.1-0.7,0.2-1,0.1c-0.2,0-0.4-0.1-0.4-0.4
							c0-0.3,0.1-0.7,0-1c-0.2-0.3-0.6-0.3-0.6-0.1c0,0.2,0.1,1-0.1,1.6c-0.1,0.3-0.2,0.7-0.2,0.9c-0.4,0.3-1.3,0.9-3.2,1.3
							c-3.2,0.6-4.1,1.5-4.1,1.5c-0.6,0.5-0.6,1.6,0,1.9c0.6,0.3,1.7,0.3,3.8-0.7c1.7-0.8,3.4-1.9,4-2.2c0.2-0.1,0.4-0.1,0.5-0.1
							c0.2,0,0.7-0.1,1.1-0.2c0,0,0,0,0,0c0.3,0,0.7-0.2,0.7-0.3c0-0.1,0-0.2-0.1-0.3c0.1-0.1,0.2-0.1,0.2-0.2
							C52.8,14.5,52.7,14.3,52.4,14.3z"/>
					</g>
					<g>
						<path class="st144" d="M52.4,14.2C52.4,14.2,52.4,14.2,52.4,14.2c0.1-0.1,0.2-0.2,0.3-0.2c0-0.1,0-0.3-0.3-0.4
							c0.1-0.1,0.2-0.1,0.2-0.2c0-0.1,0-0.3-0.2-0.4v0c0,0-0.1-0.1-0.3-0.1c-0.2-0.1-0.9,0.2-1.2,0.2c-0.2,0-0.3-0.2-0.3-0.4
							c0-0.3,0.3-0.7,0.1-1c-0.2-0.3-0.6-0.3-0.6-0.1c0,0.2,0.1,1-0.1,1.6c-0.1,0.3-0.2,0.7-0.2,0.9c-0.4,0.3-1.3,0.9-3.2,1.3
							c-3.2,0.6-4.1,1.5-4.1,1.5c-0.6,0.5-0.6,1.6,0,1.9c0.6,0.3,1.7,0.8,3.8-0.3c1.7-0.8,3.4-2.3,4-2.7c0.2-0.1,0.4-0.1,0.5-0.1
							c0.2,0,0.7-0.1,1.1-0.2c0,0,0,0,0,0c0.3,0,0.7-0.2,0.7-0.3c0-0.1,0-0.2-0.1-0.3c0.1-0.1,0.2-0.1,0.2-0.2
							C52.8,14.5,52.7,14.3,52.4,14.2z"/>
					</g>
					<g class="st145">
						<path class="st146" d="M44.8,15.8c0,0-2.4,0.6-2.8,1.8C42.3,16.6,43.1,16.1,44.8,15.8z"/>
					</g>
					<g>
						<path class="st146" d="M52.7,14.7c0.1-0.1,0.1-0.4-0.2-0.5c0.1-0.1,0.1-0.2,0.1-0.3c0-0.1,0-0.3-0.2-0.3
							c0.1,0,0.1-0.1,0.1-0.1c0-0.1,0-0.4-0.2-0.4c0,0-0.1-0.1-0.3-0.1c-0.1,0-0.1,0-0.2,0c0,0,0.5,0.1,0.3,0.7
							c0.1,0.2,0.2,0.4,0,0.6c0.2,0.3,0,0.5,0,0.5c0.2,0.1,0.1,0.4,0,0.5c0.2-0.1,0.4-0.2,0.4-0.2c0.1-0.1,0.1-0.4,0-0.4
							C52.7,14.8,52.7,14.7,52.7,14.7z"/>
					</g>
				</g>
			</g>
			<g>
				<g>
					<g>
						<path class="st144" d="M59.9,13.3l1.4,1c0,0,0.2-0.4,0.4-0.5c0.2-0.1,0.9,0,1.2-0.4c0.2-0.3,0.3-0.6,0.3-0.6s0.7-0.6,1.1-0.8
							c0.4-0.2,0.2-0.4-0.1-0.4c-0.3,0-0.9,0.3-0.9,0.3s0.4-1.2,0.3-1.2c-0.1-0.1-0.3-0.1-0.6,0.5c0,0,0.1-0.5-0.2-0.5
							c-0.3,0-0.6,1.4-0.6,1.4l-0.7,0c0,0,0.3-0.8,0-1c-0.2-0.2-0.4-0.1-0.4,0.2c0,0.2,0,0.7-0.4,0.8C60.6,12.2,60.2,12.6,59.9,13.3
							z"/>
					</g>
					<g>
						<g>
							<g>
								<path class="st186" d="M62.9,12.7L62.9,12.7L62.9,12.7c-0.1-0.1,0-0.9,0.1-1.5l0.1,0C62.9,12.7,62.9,12.7,62.9,12.7z"/>
							</g>
							<g>
								<polygon class="st186" points="62.3,12.7 62.2,12.7 62.3,12.1 62.4,12.1 								"/>
							</g>
							<g>
								<path class="st146" d="M60.9,13L60.9,13c0.2-0.6,0.9-0.4,0.9-0.4l0,0.1C61.7,12.6,61.2,12.5,60.9,13z"/>
							</g>
						</g>
						<g>
							<path class="st187" d="M63.4,11.9l-0.1,0.9c0,0,0.7-0.6,1.1-0.8c0.4-0.2,0.2-0.4-0.1-0.4C63.9,11.6,63.4,11.9,63.4,11.9z"/>
						</g>
					</g>
				</g>
			</g>
			<g>
				<path class="st144" d="M56.6,14.6l0.8,1.5l2.6-2.8l1.4,1c0,0-3.2,6.1-5.2,5.3c-1.3-0.6-1.6-1.8-1.6-1.8l-0.1-2L56.6,14.6z"/>
			</g>
		</g>
		<g>
			<g>
				<path class="st188" d="M68.2,2.6c-0.3,4.4-1.4,9.3-6.3,10.5l-0.1,0l-0.1,0c-4.9-1.3-6-6.1-6.3-10.5l0-0.4l0.4-0.1
					c2.1-0.4,4-1.1,5.9-2L61.7,0l0.2,0.1c1.9,0.9,3.8,1.6,5.9,2l0.4,0.1L68.2,2.6z"/>
			</g>
			<g>
				<path class="st189" d="M67.7,2.5c-2-0.4-3.9-1.1-6-2c-2.1,0.9-3.9,1.7-6,2c0.4,6,2.2,9.2,6,10.1C65.5,11.7,67.3,8.5,67.7,2.5z"
					/>
			</g>
			<g>
				<path class="st190" d="M66.8,3.2c-1.7-0.4-3.4-1-5-1.8c-1.6,0.7-3.3,1.4-5,1.8c0.2,2.7,0.9,6,3.1,7.6c0.6,0.4,1.2,0.7,1.9,0.9
					c0.7-0.2,1.3-0.5,1.9-0.9C65.8,9.2,66.5,5.9,66.8,3.2z"/>
			</g>
			<g class="st191">
				<path class="st192" d="M66.8,3.2c-1.7-0.4-3.4-1-5-1.8v10.3c0.7-0.2,1.3-0.5,1.9-0.9C65.8,9.2,66.5,5.9,66.8,3.2z"/>
			</g>
		</g>
		<g>
			<g>
				<g>
					<path class="st144" d="M61.4,14.3c0,0,0.2-0.4,0.4-0.5c0.2-0.1,0.9,0,1.2-0.4c0.2-0.3,0.3-0.6,0.3-0.6s0.7-0.6,1.1-0.8
						c0.4-0.2,0.2-0.4-0.1-0.4c-0.3,0-0.9,0.3-0.9,0.3s0.4-1.2,0.3-1.2c-0.1-0.1-0.3-0.1-0.6,0.5c0,0,0.1-0.5-0.2-0.5
						c-0.3,0-0.6,1.4-0.6,1.4L61.4,14.3z"/>
				</g>
				<g>
					<g>
						<g>
							<path class="st146" d="M62.9,12.7L62.9,12.7L62.9,12.7L62.9,12.7c-0.1-0.1,0-0.9,0.1-1.5l0.1,0
								C62.9,12.7,62.9,12.7,62.9,12.7z"/>
						</g>
						<g>
							<polygon class="st146" points="62.3,12.7 62.2,12.7 62.3,12.1 62.4,12.1 							"/>
						</g>
					</g>
					<g>
						<path class="st144" d="M63.4,11.9l-0.1,0.9c0,0,0.7-0.6,1.1-0.8c0.4-0.2,0.2-0.4-0.1-0.4C63.9,11.6,63.4,11.9,63.4,11.9z"/>
					</g>
				</g>
			</g>
		</g>
		<g>
			<path class="st144" d="M60.8,13c0,0,0.6-0.5,1.4-0.5L62,13.1c0,0-0.5,0.3-0.5,0.3C61.4,13.4,60.8,13,60.8,13z"/>
		</g>
	</g>
	<g>
		<path class="st193" d="M49.7,11.8L49.7,11.8c-2.2-0.7-3-3-3-3l0.1,0c0,0,0.8,2.2,2.9,2.9c0.1-0.1,0.8-0.5,1-1.3
			c0.3-1,0.2-1.7,0.2-1.7l0.1,0c0,0,0,0.8-0.2,1.8C50.5,11.3,49.7,11.8,49.7,11.8L49.7,11.8z"/>
	</g>
</g>
</svg>
