<?xml version="1.0" encoding="utf-8"?>
<!-- Generator: Adobe Illustrator 25.2.1, SVG Export Plug-In . SVG Version: 6.00 Build 0)  -->
<svg version="1.1" id="bold" xmlns="http://www.w3.org/2000/svg" xmlns:xlink="http://www.w3.org/1999/xlink" x="0px" y="0px"
	 viewBox="0 0 68.5 68.5" style="enable-background:new 0 0 68.5 68.5;" xml:space="preserve">
<style type="text/css">
	.st0{fill:#FC573B;}
	.st1{fill:#FD907E;}
	.st2{fill:#FFAC96;}
	.st3{fill:#FFBCAB;}
	.st4{fill:#006DF0;}
	.st5{fill:#D80027;}
	.st6{fill:#BD0022;}
	.st7{fill:#F1F2F2;}
	.st8{fill:#858585;}
	.st9{fill:#57A5FF;}
	.st10{fill:#4481C7;}
	.st11{fill:#FFD45A;}
	.st12{fill:#FFFFFF;}
	.st13{fill:#D64528;}
	.st14{fill:#FF914D;}
	.st15{fill:#3449A3;}
	.st16{fill:#2E872B;}
	.st17{fill:#D97B41;}
	.st18{fill:#226320;}
	.st19{fill:#2A3B85;}
	.st20{fill:#B53A22;}
	.st21{fill:url(#SVGID_1_);}
	.st22{fill:url(#SVGID_2_);}
	.st23{fill:url(#SVGID_3_);}
	.st24{fill:url(#SVGID_4_);}
	.st25{fill:url(#SVGID_5_);}
	.st26{opacity:0.5;fill:url(#SVGID_6_);enable-background:new    ;}
	.st27{fill:url(#SVGID_7_);}
	.st28{opacity:0.5;fill:url(#SVGID_8_);enable-background:new    ;}
	.st29{fill:url(#SVGID_9_);}
	.st30{fill:url(#SVGID_10_);}
	.st31{opacity:0.6;fill:url(#SVGID_11_);enable-background:new    ;}
	.st32{fill:url(#SVGID_12_);}
	.st33{fill:url(#SVGID_13_);}
	.st34{fill:url(#SVGID_14_);}
	.st35{fill:url(#SVGID_15_);}
	.st36{fill:url(#SVGID_16_);}
	.st37{opacity:0.5;fill:url(#SVGID_17_);enable-background:new    ;}
	.st38{fill:url(#SVGID_18_);}
	.st39{opacity:0.6;fill:url(#SVGID_19_);enable-background:new    ;}
	.st40{fill:url(#SVGID_20_);}
	.st41{fill:url(#SVGID_21_);}
	.st42{fill:url(#SVGID_22_);}
	.st43{opacity:0.3;fill:url(#SVGID_23_);enable-background:new    ;}
	.st44{fill:#23292E;}
	.st45{fill:#2E373D;}
	.st46{fill:#CECECE;}
	.st47{fill:#525E65;}
	.st48{fill:#627681;}
	.st49{fill:#E33400;}
	.st50{fill:#872E02;}
	.st51{fill:#82A5B9;}
	.st52{fill-rule:evenodd;clip-rule:evenodd;fill:#F9AC00;}
	.st53{fill-rule:evenodd;clip-rule:evenodd;fill:#FDC72E;}
	.st54{fill:#F9C795;}
	.st55{fill-rule:evenodd;clip-rule:evenodd;fill:#FDD7AD;}
	.st56{fill-rule:evenodd;clip-rule:evenodd;fill:#E6B17C;}
	.st57{fill:#2A92FA;}
	.st58{fill-rule:evenodd;clip-rule:evenodd;fill:#0E82F5;}
	.st59{fill-rule:evenodd;clip-rule:evenodd;fill:#F0414A;}
	.st60{fill-rule:evenodd;clip-rule:evenodd;fill:#FB545C;}
	.st61{fill-rule:evenodd;clip-rule:evenodd;fill:#3BD97D;}
	.st62{fill-rule:evenodd;clip-rule:evenodd;fill:#4FE88E;}
	.st63{fill-rule:evenodd;clip-rule:evenodd;fill:#2A92FA;}
	.st64{fill:#DDD3D3;}
	.st65{fill:#DB2C2C;}
	.st66{fill:#F13B3B;}
	.st67{fill:#CEC4C4;}
	.st68{fill:#332522;}
	.st69{fill:#47342F;}
	.st70{fill:#604843;}
	.st71{fill:#E5E3E3;}
	.st72{opacity:0.3;fill:#FFFFFF;}
	.st73{fill:#F8F8FF;}
	.st74{fill:#D8D7F9;}
	.st75{fill:#B889E0;}
	.st76{fill:#EFC7F9;}
	.st77{fill:#2D1164;}
	.st78{fill:#FFB6B1;}
	.st79{fill:#F47382;}
	.st80{fill:#C64F60;}
	.st81{opacity:0.33;}
	.st82{fill:#B9B9EA;}
	.st83{fill:#D3D3F4;}
	.st84{fill:#E8E8FC;}
	.st85{fill:#7E4DC4;}
	.st86{fill:#5642AD;}
	.st87{fill:#FEA046;}
	.st88{fill:#E15254;}
	.st89{opacity:0.53;}
	.st90{fill:#FFD1AB;}
	.st91{fill:#322277;}
	.st92{fill:#8AC9FE;}
	.st93{fill:#BFBFBF;}
	.st94{fill:#F8F6F6;}
	.st95{fill:#E2E2E2;}
	.st96{fill:#FE646F;}
	.st97{fill:#FD4755;}
	.st98{fill:#FED2A4;}
	.st99{fill:#FFBD86;}
	.st100{fill:#FFE5C2;}
	.st101{fill:#9C9C9C;}
	.st102{fill:#838383;}
	.st103{fill:#26A6FE;}
	.st104{fill:#0593FC;}
	.st105{fill:#EAF6FF;}
	.st106{fill:#0172FB;}
	.st107{fill:#25303F;}
	.st108{fill:#D33D48;}
	.st109{fill:#394456;}
	.st110{fill:#F4D72F;}
	.st111{fill:#FFA488;}
	.st112{fill:#E27466;}
	.st113{fill:#FFC4B6;}
	.st114{fill:#CC9D19;}
	.st115{fill:#EFCC3C;}
	.st116{fill:#FCE275;}
	.st117{fill:#EFBE35;}
	.st118{fill:#E0B52B;}
	.st119{fill:#76D6C4;}
	.st120{fill:#5B6A7F;}
	.st121{fill:#528432;}
	.st122{fill:#80BC50;}
	.st123{fill:#B2B8BF;}
	.st124{fill:#E2F2FA;}
	.st125{fill:#5BB3FF;}
	.st126{fill:#5CA7D9;}
	.st127{fill:#FF9D43;}
	.st128{fill:#00477F;}
	.st129{fill:#B6E0F4;}
	.st130{fill:#1C90CF;}
	.st131{fill:url(#SVGID_24_);}
	.st132{fill:#FFBCA5;}
	.st133{fill:#F8FBFF;}
	.st134{fill:#E0EFFF;}
	.st135{fill:#FFB59E;}
	.st136{fill:none;stroke:#000000;stroke-width:0.75;stroke-linecap:round;stroke-linejoin:round;stroke-miterlimit:10;}
	.st137{fill:#BEE9EB;}
	.st138{fill:#FFF6BC;}
	.st139{fill:#FF6E15;}
	.st140{fill:#7FCEED;}
	.st141{fill:#212121;}
	.st142{fill:#383838;}
	.st143{fill:#2A2A2A;}
	.st144{fill:#F5B0A6;}
	.st145{opacity:0.6;}
	.st146{fill:#F18A8B;}
	.st147{fill:#D37A7F;}
	.st148{fill:#0F0F0F;}
	.st149{fill:#202020;}
	.st150{fill:#1D1D1D;}
	.st151{fill:#2E6857;}
	.st152{fill:#255144;}
	.st153{fill:#40947E;}
	.st154{fill:#6FC183;}
	.st155{fill:#7A8DB0;}
	.st156{opacity:0.41;}
	.st157{fill:#243354;}
	.st158{fill:#EAEAEA;}
	.st159{fill:#2F4171;}
	.st160{fill:#2C4DA2;}
	.st161{fill:#99B1DA;}
	.st162{fill:#B5CAE8;}
	.st163{fill:#EDA9A2;}
	.st164{fill:#3D5891;}
	.st165{fill:#5681BF;}
	.st166{fill:#D1DBED;}
	.st167{opacity:0.35;}
	.st168{fill:#233F7C;}
	.st169{fill:#D2D2D2;}
	.st170{fill:#F19A6D;}
	.st171{fill:#7A7A7A;}
	.st172{fill:#F3CE90;}
	.st173{opacity:0.31;}
	.st174{fill:#292929;}
	.st175{fill:#515151;}
	.st176{fill:#3F3F3F;}
	.st177{fill-rule:evenodd;clip-rule:evenodd;fill:#D1DBED;}
	.st178{fill-rule:evenodd;clip-rule:evenodd;fill:#FFFFFF;}
	.st179{opacity:0.79;}
	.st180{opacity:0.28;}
	.st181{fill:#393939;}
	.st182{opacity:0.55;}
	.st183{fill:#A8A8A8;}
	.st184{fill:#B7B7B7;}
	.st185{fill:#EF7C59;}
	.st186{fill:#A0A0A0;}
	.st187{fill:#B9B9B9;}
	.st188{fill-rule:evenodd;clip-rule:evenodd;fill:#3D5891;}
	.st189{fill-rule:evenodd;clip-rule:evenodd;fill:#5681BF;}
	.st190{fill-rule:evenodd;clip-rule:evenodd;fill:#B5CAE8;}
	.st191{opacity:0.45;}
	.st192{fill-rule:evenodd;clip-rule:evenodd;fill:#99B1DA;}
	.st193{fill:#F0F0F0;}
	.st194{fill:#EACDB0;}
	.st195{fill:#A1BDCC;}
	.st196{fill:#8C9498;}
	.st197{fill:#3A3029;}
	.st198{fill:#59595B;}
	.st199{opacity:0.26;}
	.st200{fill:none;}
	.st201{fill:#6596C1;}
	.st202{fill:#5A8FB7;}
	.st203{fill:#C2969C;}
	.st204{fill:#754C3D;}
	.st205{fill:#F2D263;}
	.st206{fill:#AECCDC;}
	.st207{fill:#DEC2A7;}
	.st208{fill:#8AAD9F;}
	.st209{fill:#9E6652;}
	.st210{fill:#514943;}
	.st211{fill:#CAB5A1;}
	.st212{fill:#BCAC98;}
	.st213{fill:#D3C2A4;}
	.st214{fill:#37454D;}
	.st215{fill:#4F3C22;}
	.st216{fill:#DACAAF;}
	.st217{fill:#B26650;}
	.st218{fill:#2E4661;}
	.st219{fill:#FFFFF1;}
	.st220{fill:#FFD3A4;}
	.st221{fill:#FFBE84;}
	.st222{fill:#D65A2F;}
	.st223{fill:#A03914;}
	.st224{fill:#FFAF3E;}
	.st225{fill:#314652;}
	.st226{fill:#3C3A41;}
	.st227{fill:#FF9500;}
	.st228{fill:#E9336D;}
</style>
<g>
	<g>
		<polygon class="st194" points="34.5,25.4 34.6,26.5 34.1,27.3 33.2,27.2 33.1,25.8 34.3,25.3 		"/>
		<polygon class="st195" points="25.3,25.6 31.1,31.9 32.4,27 34.6,27.4 33.3,34.7 31.1,36.1 25.3,32.6 		"/>
		<g>
			<g>
				<g>
					<polygon class="st196" points="30.1,39.9 30.4,51.4 28.2,66.2 26.3,66.2 24.9,52.6 22.2,39 					"/>
					<polygon class="st197" points="26.3,66 26.3,66.9 28.4,67.8 29.4,66.9 28.3,66 					"/>
				</g>
				<polygon class="st197" points="19.9,66.4 21.5,67.7 21.1,68.4 18.2,67.8 18.2,66.4 				"/>
				<polygon class="st196" points="23.6,44.4 22.3,55.5 20.5,66.6 18,66.5 18.1,55 16.6,44.4 20.1,42.9 				"/>
			</g>
			<path class="st195" d="M18.5,24.8l4.9-0.8c0,0,3.3,1.9,5.9,7.7c2.6,5.9,2.2,14.8,2.2,14.8S18,46.6,15.8,46.7L17,34.3L18.5,24.8z"
				/>
			<g>
				<path class="st194" d="M21.8,24.8c-0.6,0-1.2,0-1.8-0.1c0-0.4,0-0.8,0-1.2c-0.5-0.1-1.1-0.3-1.2-0.8c0-0.1,0-0.3,0-0.4
					c0.1-0.6,0.1-1.2,0.2-1.8c0-0.2,0.1-0.4,0.2-0.6c0.2-0.3,0.6-0.5,1-0.6c1-0.2,2.1-0.1,3,0.5c0.2,0.1,0.4,0.3,0.5,0.5
					c0.2,0.3,0.1,0.7,0,1.1c-0.1,0.3-0.2,0.7-0.2,1c-0.1,0.4-0.2,0.8-0.6,1c-0.2,0.1-0.5,0.1-0.7,0.2C21.9,24,22,24.5,21.8,24.8z"/>
				<path class="st197" d="M27.1,18.7c0-0.4-0.1-0.8-0.2-1.2c-0.2-0.6-1.1-0.9-1.8-0.9c-1.6,0-3.1-0.6-4.6,0c-0.9,0.3-2,0.5-2.8,0.9
					c-0.3,0.2-0.6,0.4-0.7,0.7c-0.6,1-0.5,2.4,0.2,3.3c0.2,0.2,0.4,0.4,0.6,0.6c0.4,0.4,1,0.8,1.5,0.9c0-0.4-0.6-1.8-0.2-2.2
					c0.6-0.6,2-0.5,2.8-0.4c0.8,0.1,1.6,0.6,2.5,0.7c0.6,0,1.3-0.3,1.8-0.6C26.9,20.1,27.1,19.4,27.1,18.7z"/>
			</g>
			<path class="st12" d="M22,24.8l4.8,9.7l1.9,12l-6.8,0.1c0,0,0.8-8.9,0.5-10.1c-0.3-1.2-0.8-3.6-1.5-6.3c-0.1-0.6-1.2-5.4-1.2-5.4
				L22,24.8z"/>
		</g>
		<g>
			<g>
				<path class="st198" d="M35.7,1.3c0-0.2,0-0.4,0-0.6l-0.3-0.6c-0.1-0.1-0.3-0.1-0.3,0l-0.3,0.6v0.6c-0.3,0-0.7,0.2-0.7,0.4
					s0.2,0.4,0.5,0.4h0.2v21.1c0,1.2-0.7,2.2-1.7,2.2c-0.8,0-1.5-0.6-1.6-1.6c0-0.2-0.2-0.4-0.5-0.4h0c-0.3,0-0.5,0.2-0.5,0.5
					c0.2,1.4,1.4,2.4,2.6,2.4c0.9,0,1.7-0.4,2.1-1.1c0.5-0.8,0.5-1.8,0.5-2.7c0-0.9,0-1.8,0-2.6c0-1.2,0-2.4,0-3.7
					c0-1.4,0-2.8,0-4.2c0-1.4,0-2.8,0-4.2c0-1.2,0-2.4,0-3.6c0-0.7,0-1.4,0-2.1h0.1c0.3,0,0.5-0.2,0.5-0.4S36,1.3,35.7,1.3z"/>
				<polygon class="st199" points="35.7,14.5 34.8,13.7 34.8,12.3 35.7,12.3 				"/>
			</g>
			<g>
				<path class="st200" d="M41,13.7C41,13.7,41,13.7,41,13.7c0.1,0,0.2,0,0.2,0H41L41,13.7z"/>
				<path class="st201" d="M28.7,13.6l0.1-0.8c0.5-2.8,1.7-5.4,3.5-7.8l2.3-2.9C29,2.3,24.2,5.2,21.9,9.4c-0.7,1.3-1.2,2.7-1.4,4.2
					c1.2-0.3,2.6-0.5,4.1-0.5C26.1,13.1,27.4,13.3,28.7,13.6z"/>
				<path class="st201" d="M40.7,12l0.4,1.7h0.1c1.3-0.4,2.8-0.6,4.4-0.6c1.6,0,3.2,0.2,4.4,0.6c-0.3-1.9-1-3.6-2-5.2
					c-2.6-3.8-7.4-6.4-12.8-6.4c-0.2,0-0.3,0-0.5,0l1.8,2.4C38.9,6.9,39.9,9.4,40.7,12z"/>
				<path class="st202" d="M28.8,12.8l-0.1,0.8c0,0,0,0,0,0c1.5-0.6,3.7-1,6-1c2.5,0,4.7,0.4,6.3,1.1h0.1L40.7,12
					c-0.8-2.6-1.8-5.1-4-7.5l-1.8-2.4c-0.1,0-0.1,0-0.2,0L32.3,5C30.5,7.3,29.3,10,28.8,12.8z"/>
				<path class="st12" d="M28.7,13.6L28.7,13.6C28.7,13.6,28.7,13.6,28.7,13.6C28.7,13.6,28.7,13.6,28.7,13.6z"/>
			</g>
		</g>
		<polygon class="st194" points="32.5,27 32,26.1 32,24.8 32.5,24.9 32.7,25.6 33.7,26.4 33.4,27.2 		"/>
		<polygon class="st194" points="32.6,25.9 32.7,25 33.7,24.3 34.4,24.8 34.3,25.5 		"/>
		<polygon class="st195" points="18.5,24.8 16.5,26.2 11.5,34.2 14.2,37.1 15.8,36.7 19.7,28.9 		"/>
		<polygon class="st194" points="19,35.4 19.6,36.6 19.6,41.2 18.7,41.3 17.4,37.3 		"/>
		<polygon class="st194" points="21,34.7 22,35.5 23.2,40 22.4,40.4 20.4,36.8 19,35.8 19.3,34.7 		"/>
		<path class="st203" d="M13.2,28.1c0,0-0.5,0.1-0.8,0.6c-0.3,0.5-1.1,2.9-0.7,4.5c0.4,1.6,0.6,3.7,4.6,4.4c1.9,0.2,1.6-1.3,3.1-1.6
			c1.4-0.4,2.8-0.2,2.1-2.1c-0.7-2-2.2-2.1-3.5-4.2c-1.3-2.1-2.8-2.7-4.5-1.7L13.2,28.1z"/>
		<polygon class="st203" points="12.9,28.2 9.9,29.8 7.5,30.6 7.8,31.5 10.2,31.3 12.7,30.4 		"/>
		<polygon class="st203" points="15.8,27.4 18.3,27.7 20.2,26.7 20.6,27.2 19,28.8 17.2,29.2 		"/>
		<g>
			<path class="st204" d="M14.3,23.5c0,0,1.7,0.6,1.9,1.9c0,0,0.8-0.9,0.2-1.7c-0.6-0.9-1-1.2-2-0.8C13.3,23.2,14.3,23.5,14.3,23.5z
				"/>
			<path class="st194" d="M15.9,24.7c-0.6-1.9-3.3-1.3-3.9,0.3c-0.3,0.9,0,2.7,1.3,2.8c0,0.2,0.1,0.5,0.3,0.6
				c0.2,0.1,0.7-0.1,0.9-0.1c0.1,0,0.1,0,0.1-0.1c0,0,0-0.2,0-0.3c0.1,0,0.3-0.1,0.4-0.1c0.6-0.2,1-0.8,1.1-1.4
				C16.2,25.9,16.1,25.3,15.9,24.7z"/>
			<path class="st204" d="M14.7,23.9c-0.6,0.8-1.8,1.1-2.3,1.9c0,0-0.4,0.5,0,1.6c0,0-1.2,0.3-2.1-0.7c-0.8-1-0.1-3.4-0.1-3.4
				s1.3-1.2,3.3-1.2c0.7,0,1.4,0.3,1.4,1C15,23.4,14.9,23.7,14.7,23.9z"/>
		</g>
		<path class="st205" d="M12.9,28.2c0,0,0.1,1,0.7,1c0.6,0,1.9-0.5,2.1-0.7c0.3-0.3-0.2-1-0.2-1l0.4-0.2c0,0,2.9,3.2,1.4,4.1
			c-1.5,0.8-3.5,1.4-4.1,0.3c-0.6-1.1-0.6-3.3-0.6-3.3L12.9,28.2z"/>
		<polygon class="st197" points="19.7,41.1 20.5,41.7 20.3,42 18.9,41.7 18.7,41.2 		"/>
		<polygon class="st197" points="22.3,40.2 23.1,39.7 23.8,39.7 24,40.1 22.5,40.6 		"/>
		<polygon class="st206" points="11.6,34.1 14.5,33.8 21.6,35.1 21.6,36.5 14.2,37.2 11.9,36.5 		"/>
		<polygon class="st207" points="21.6,35.2 22.7,35.4 23.2,36.7 22.5,37.4 22.3,36.4 21.6,36.4 		"/>
		<polygon class="st194" points="7.6,30.7 6.3,30.6 6.3,30.9 7.3,31.3 7.1,31.5 7.3,31.6 7.8,31.3 		"/>
		<polygon class="st194" points="20.2,26.8 20.4,26.4 21,26.3 21.3,26.7 21.1,27.2 20.6,27.2 		"/>
	</g>
	<polygon class="st208" points="32.1,34.9 37.7,36.4 39.4,35.3 38.7,33.5 32.3,33.3 	"/>
	<polygon class="st207" points="53.4,39.8 54.5,40.7 54.3,41.8 52.8,41.6 52.3,40.6 	"/>
	<g>
		<path class="st209" d="M40.9,19.9c0,0-0.8,0.6-0.4,2.7c0.4,2.1,0.2,3.5,0.2,3.5s0.8,0.3,1.4,0c0.6-0.3,0.8-0.4,0.6-1.3
			c-0.2-0.9-0.7-5-0.7-5L40.9,19.9z"/>
		<polygon class="st208" points="42.1,26 41.4,25.8 39.9,26.5 35.7,35.5 37,36.9 40.6,32.8 		"/>
		<g>
			<polygon class="st210" points="48.5,66 48.6,66.7 47.2,67.6 46.3,67 47,66.2 48.5,65.3 			"/>
			<polygon class="st211" points="48.5,44.2 48.8,46.4 46.6,53.8 48.6,65.8 47.1,66.2 43.2,54.6 42.5,51.2 42.6,44 			"/>
		</g>
		<g>
			<polygon class="st211" points="37,46.6 40.2,66.6 41.6,66.6 41.8,53.8 44.4,44.8 			"/>
			<polygon class="st210" points="41.6,66.5 41.6,67.2 40,67.9 39.3,67.2 40,66.5 			"/>
		</g>
		<path class="st208" d="M48.8,38.1c-0.8-4.2-2.1-8.2-2.5-12.5c-1.2,0-2.9-0.5-4.1-0.2l0,0c0,0,0,0-0.1,0c-0.5,0.1-0.9,0.3-1.2,0.7
			c0,0,0,0,0,0c-0.4,0.4-1,1.1-1.4,2.1c-1.2,2.6-6.1,18.1-6.2,22.1c0,0,0,0,0,0c1,0.3,2.1,0.5,3.3,0.7c0,0,0,0,0,0h0
			c3.4,0.5,7.2,0.5,10.3,0.4c0.4,0,4.8,0.1,4.7-0.1C50.7,46.9,49.7,42.5,48.8,38.1z"/>
		<polygon class="st208" points="46.1,25.8 47.4,26.5 50.3,33.7 53.7,39.7 52.2,40.7 47.8,35.3 45.2,28 		"/>
		<path class="st209" d="M42.9,20.6c-0.9,0.2-1.6,1-1.7,1.8c-0.5-0.4-0.8-1-0.7-1.6s0.5-1.2,1.1-1.4C42.2,19.6,42.7,20.1,42.9,20.6
			L42.9,20.6z"/>
		<path class="st194" d="M41.1,21.7c0.5-2.2,3.6-1.8,4.5,0c0.5,1,0.4,3-1,3.3c0,0.2-0.1,0.6-0.2,0.7c-0.2,0.1-0.8,0-1,0
			c-0.1,0-0.1,0-0.2-0.1c-0.1-0.1-0.1-0.2-0.1-0.3c-0.2,0-0.3,0-0.5-0.1c-0.7-0.2-1.2-0.8-1.5-1.5C40.9,23.1,40.9,22.4,41.1,21.7z"
			/>
		<path class="st209" d="M41.7,19.3c0,0-0.3,1.2,1.4,1.5c1.7,0.3,2.9,1.5,2.6,2.8c-0.3,1.3-1.6,2.2-0.9,2.5c0.7,0.3,3.2,0,3.2,0
			s1.5-4.5-0.5-6.4C45.4,17.9,42.5,17.8,41.7,19.3z"/>
	</g>
	<g>
		<path class="st212" d="M11.5,65.2c0,0,0.1,0.7,1.1,0.7c1,0,1.4,0.6,0.5,0.6c-0.9,0-2,0.1-2.4-0.5C10.3,65.5,11.2,64.8,11.5,65.2z"
			/>
		<path class="st213" d="M8.4,62c0,0-0.4,0.1-0.5,0.7c-0.2,0.6-4.3-0.4-5.8,0.4c-1.4,0.9-1.6,1.6-1.8,2.9c-0.4,2.8,5.3,2.5,7.2,1.9
			c1.9-0.6,5.2-0.9,4.3-4C11.7,63.8,8.4,62,8.4,62z"/>
		<path class="st214" d="M12.1,63.6l-0.3,0.2c0,0-1.4,0.4-3-1.2c-0.6-0.9-0.4-1-0.4-1l0.4,0.1C8.7,61.7,9.4,63.6,12.1,63.6z"/>
		<path class="st215" d="M10.8,59.2c0,0,0.1-0.2,0.5-0.2c0.4,0,1,0.6,1.2,0.6c0.1,0,0.5,0.1,0.1,0.2C12.3,60,10.9,59.6,10.8,59.2z"
			/>
		<path class="st216" d="M9.4,60c0,0,0.6-0.8,1.6-0.8c0.6,0,1.1,0.2,1.5,0.5c0.2,0.2,0.4,0.4,0.6,0.5c0.1,0.1,0.3,0.2,0.4,0.3
			c0.3,0.3,0.5,0.8,0.3,1.2s0.4,1.5-1.1,1.8c-1.5,0.3-3.4-0.5-3.8-1.2C8.5,61.7,8.1,61,9.4,60z"/>
		<path class="st215" d="M9.6,60.1c0,0-0.4-0.2-0.8-0.1c-0.4,0.2-0.6,0.1-0.6,0.5c0,0.4-0.1,1.3,0.4,1.5c0.5,0.3,0.4-0.5,0.6-0.7
			C9.5,61,9.9,60.2,9.6,60.1z"/>
		<path class="st213" d="M11.5,65.4c0,0,0.1,1,0.7,1.1c0.6,0.1,2,0.6,1.7,0.9c-0.3,0.3-0.7,0-1.1,0s-1.6,0.1-2.7-0.2
			c-1-0.1-1.4,0.3-1.4,0.3L11.5,65.4z"/>
		<path class="st212" d="M0.9,64.6c-0.1,0-0.9-0.2-0.9-1c0-0.8,0.6-1.4,1.5-1.4c0.9,0,0.9,0.7,0.7,0.8C2,63.1,0.9,63.2,1,64.1
			C1.2,64.5,0.9,64.6,0.9,64.6z"/>
	</g>
	<g>
		<polygon class="st217" points="60.2,44.9 56.8,44.3 55,41.6 54.1,42.2 55.4,45.8 58.3,47.4 		"/>
		<polygon class="st218" points="57.2,57.6 57.2,65.8 58.6,65.8 59.5,60.8 60.3,57 		"/>
		<polygon class="st218" points="60.3,56.7 60.8,60.3 61.5,66 62.9,65.9 62.9,61.5 63.6,57 		"/>
		<path class="st217" d="M59.6,44.8c0,0-1.5-0.2-2.1,1.8c-0.6,2-2.3,7.9-2.4,11c-0.1,3.1,2.2,1.1,4.9,1.5c2.7,0.4,4.9,0.4,4.9-1
			C65,56.6,65.9,44.8,59.6,44.8z"/>
		<g>
			<g>
				<path class="st194" d="M58.8,40.8c1.2-1.9,4-0.7,4.2,1.2c0.1,1.1-0.7,2.9-2.2,2.8c-0.1,0.2-0.2,0.5-0.5,0.6
					c-0.2,0.1-0.7-0.2-0.9-0.3c-0.1,0-0.1-0.1-0.1-0.1c0-0.1,0-0.2,0.1-0.3c-0.2-0.1-0.3-0.1-0.4-0.2c-0.6-0.4-0.9-1.1-0.8-1.8
					C58.1,42,58.4,41.4,58.8,40.8z"/>
			</g>
			<path class="st204" d="M60.5,40.3c0,0,2,0.4,2,1.2c0,1.1,0.1,1.8,0,2.5l1.4-0.7l0.8-2c0,0-0.2-1.7-1.2-2c-1-0.3-3-0.6-3-0.6
				l-1.6,0.4L57.8,39l0.4,3.1C58.2,42.1,58.7,39.9,60.5,40.3z"/>
		</g>
		<polygon class="st217" points="61.1,45.1 63.6,45.8 65.8,50.6 67.5,54.1 66.5,54.6 63.8,51.2 		"/>
		<polygon class="st194" points="66.5,54.6 67.1,55.4 67.5,55.1 68.5,55.1 67.5,54.1 		"/>
		<polygon class="st196" points="57.2,65.8 56.4,66.4 56.8,66.9 58.4,66.4 58.4,65.8 		"/>
		<polygon class="st196" points="61.7,66 62,67 63,67.3 63.5,67.1 62.7,65.9 		"/>
	</g>
	<polygon class="st194" points="55,41.6 54.1,41.1 53,41.3 53.2,41.8 54.2,42.1 	"/>
	<polygon class="st207" points="54,42.1 54.3,41.5 53.7,41.1 52.7,41.3 52.9,41.7 	"/>
	<g>
		<polygon class="st217" points="51.8,68.4 16.9,68.5 16.8,46.8 34.2,38.1 51.7,46.6 		"/>
		<path class="st218" d="M58.6,45.2c-2.8-1.3-4.1-2-6.9-3.3c-4.5-2.2-9-4.4-13.5-6.5c-1.1-0.5-2.2-1.1-3.3-1.6
			c-0.7-0.3-1.4-0.3-2.1,0c-0.4,0.2-0.8,0.4-1.3,0.7c-4.1,2.1-8.2,4.3-12.2,6.4c-3.3,1.7-4.8,2.4-8.1,4.2c-0.1,0-0.1,0.1-0.2,0.1
			c-0.8,0.4-1.1,1.4-0.6,2.2c0.5,0.7,1.6,1,2.4,0.6c2.7-1.4,3.5-1.8,6.2-3.2c4.3-2.2,8.5-4.5,12.8-6.7c0.7-0.4,1.4-0.7,2.1-1.1
			c2.5,1.2,5,2.4,7.6,3.7c4.5,2.2,7.6,3.7,12.1,5.9c1,0.5,2.1,1,3.1,1.5c0.8,0.4,1.9,0.2,2.4-0.6C59.7,46.6,59.4,45.6,58.6,45.2z"/>
		<polygon class="st219" points="30.4,67.8 21.9,67.9 21.8,53.3 30.3,53.3 		"/>
		<g>
			<polygon class="st219" points="40.7,56.8 36.1,56.8 36.1,53.3 40.7,53.3 			"/>
			<polygon class="st219" points="46.8,56.7 42.1,56.8 42.1,53.3 46.7,53.2 			"/>
			<polygon class="st219" points="40.7,61.5 36.1,61.6 36.1,58.1 40.7,58 			"/>
			<polygon class="st219" points="46.8,61.5 42.2,61.5 42.1,58 46.8,58 			"/>
		</g>
	</g>
	<polygon class="st194" points="33.1,33.6 32.3,33.2 31,33.7 30.9,35 31.3,35.9 32.5,35.6 32.7,33.8 	"/>
</g>
</svg>
