<?xml version="1.0" encoding="utf-8"?>
<!-- Generator: Adobe Illustrator 25.2.1, SVG Export Plug-In . SVG Version: 6.00 Build 0)  -->
<svg version="1.1" id="bold" xmlns="http://www.w3.org/2000/svg" xmlns:xlink="http://www.w3.org/1999/xlink" x="0px" y="0px"
	 viewBox="0 0 68.5 68.5" style="enable-background:new 0 0 68.5 68.5;" xml:space="preserve">
<style type="text/css">
	.st0{fill:#FC573B;}
	.st1{fill:#FD907E;}
	.st2{fill:#FFAC96;}
	.st3{fill:#FFBCAB;}
	.st4{fill:#006DF0;}
	.st5{fill:#D80027;}
	.st6{fill:#BD0022;}
	.st7{fill:#F1F2F2;}
	.st8{fill:#858585;}
	.st9{fill:#57A5FF;}
	.st10{fill:#4481C7;}
	.st11{fill:#FFD45A;}
	.st12{fill:#FFFFFF;}
	.st13{fill:#D64528;}
	.st14{fill:#FF914D;}
	.st15{fill:#3449A3;}
	.st16{fill:#2E872B;}
	.st17{fill:#D97B41;}
	.st18{fill:#226320;}
	.st19{fill:#2A3B85;}
	.st20{fill:#B53A22;}
	.st21{fill:url(#SVGID_1_);}
	.st22{fill:url(#SVGID_2_);}
	.st23{fill:url(#SVGID_3_);}
	.st24{fill:url(#SVGID_4_);}
	.st25{fill:url(#SVGID_5_);}
	.st26{opacity:0.5;fill:url(#SVGID_6_);enable-background:new    ;}
	.st27{fill:url(#SVGID_7_);}
	.st28{opacity:0.5;fill:url(#SVGID_8_);enable-background:new    ;}
	.st29{fill:url(#SVGID_9_);}
	.st30{fill:url(#SVGID_10_);}
	.st31{opacity:0.6;fill:url(#SVGID_11_);enable-background:new    ;}
	.st32{fill:url(#SVGID_12_);}
	.st33{fill:url(#SVGID_13_);}
	.st34{fill:url(#SVGID_14_);}
	.st35{fill:url(#SVGID_15_);}
	.st36{fill:url(#SVGID_16_);}
	.st37{opacity:0.5;fill:url(#SVGID_17_);enable-background:new    ;}
	.st38{fill:url(#SVGID_18_);}
	.st39{opacity:0.6;fill:url(#SVGID_19_);enable-background:new    ;}
	.st40{fill:url(#SVGID_20_);}
	.st41{fill:url(#SVGID_21_);}
	.st42{fill:url(#SVGID_22_);}
	.st43{opacity:0.3;fill:url(#SVGID_23_);enable-background:new    ;}
	.st44{fill:#23292E;}
	.st45{fill:#2E373D;}
	.st46{fill:#CECECE;}
	.st47{fill:#525E65;}
	.st48{fill:#627681;}
	.st49{fill:#E33400;}
	.st50{fill:#872E02;}
	.st51{fill:#82A5B9;}
	.st52{fill-rule:evenodd;clip-rule:evenodd;fill:#F9AC00;}
	.st53{fill-rule:evenodd;clip-rule:evenodd;fill:#FDC72E;}
	.st54{fill:#F9C795;}
	.st55{fill-rule:evenodd;clip-rule:evenodd;fill:#FDD7AD;}
	.st56{fill-rule:evenodd;clip-rule:evenodd;fill:#E6B17C;}
	.st57{fill:#2A92FA;}
	.st58{fill-rule:evenodd;clip-rule:evenodd;fill:#0E82F5;}
	.st59{fill-rule:evenodd;clip-rule:evenodd;fill:#F0414A;}
	.st60{fill-rule:evenodd;clip-rule:evenodd;fill:#FB545C;}
	.st61{fill-rule:evenodd;clip-rule:evenodd;fill:#3BD97D;}
	.st62{fill-rule:evenodd;clip-rule:evenodd;fill:#4FE88E;}
	.st63{fill-rule:evenodd;clip-rule:evenodd;fill:#2A92FA;}
	.st64{fill:#DDD3D3;}
	.st65{fill:#DB2C2C;}
	.st66{fill:#F13B3B;}
	.st67{fill:#CEC4C4;}
	.st68{fill:#332522;}
	.st69{fill:#47342F;}
	.st70{fill:#604843;}
	.st71{fill:#E5E3E3;}
	.st72{opacity:0.3;fill:#FFFFFF;}
	.st73{fill:#F8F8FF;}
	.st74{fill:#D8D7F9;}
	.st75{fill:#B889E0;}
	.st76{fill:#EFC7F9;}
	.st77{fill:#2D1164;}
	.st78{fill:#FFB6B1;}
	.st79{fill:#F47382;}
	.st80{fill:#C64F60;}
	.st81{opacity:0.33;}
	.st82{fill:#B9B9EA;}
	.st83{fill:#D3D3F4;}
	.st84{fill:#E8E8FC;}
	.st85{fill:#7E4DC4;}
	.st86{fill:#5642AD;}
	.st87{fill:#FEA046;}
	.st88{fill:#E15254;}
	.st89{opacity:0.53;}
	.st90{fill:#FFD1AB;}
	.st91{fill:#322277;}
	.st92{fill:#8AC9FE;}
	.st93{fill:#BFBFBF;}
	.st94{fill:#F8F6F6;}
	.st95{fill:#E2E2E2;}
	.st96{fill:#FE646F;}
	.st97{fill:#FD4755;}
	.st98{fill:#FED2A4;}
	.st99{fill:#FFBD86;}
	.st100{fill:#FFE5C2;}
	.st101{fill:#9C9C9C;}
	.st102{fill:#838383;}
	.st103{fill:#26A6FE;}
	.st104{fill:#0593FC;}
	.st105{fill:#EAF6FF;}
	.st106{fill:#0172FB;}
	.st107{fill:#25303F;}
	.st108{fill:#D33D48;}
	.st109{fill:#394456;}
	.st110{fill:#F4D72F;}
	.st111{fill:#FFA488;}
	.st112{fill:#E27466;}
	.st113{fill:#FFC4B6;}
	.st114{fill:#CC9D19;}
	.st115{fill:#EFCC3C;}
	.st116{fill:#FCE275;}
	.st117{fill:#EFBE35;}
	.st118{fill:#E0B52B;}
	.st119{fill:#76D6C4;}
	.st120{fill:#5B6A7F;}
	.st121{fill:#528432;}
	.st122{fill:#80BC50;}
	.st123{fill:#B2B8BF;}
	.st124{fill:#E2F2FA;}
	.st125{fill:#5BB3FF;}
	.st126{fill:#5CA7D9;}
	.st127{fill:#FF9D43;}
	.st128{fill:#00477F;}
	.st129{fill:#B6E0F4;}
	.st130{fill:#1C90CF;}
	.st131{fill:url(#SVGID_24_);}
	.st132{fill:#FFBCA5;}
	.st133{fill:#F8FBFF;}
	.st134{fill:#E0EFFF;}
	.st135{fill:#FFB59E;}
	.st136{fill:none;stroke:#000000;stroke-width:0.75;stroke-linecap:round;stroke-linejoin:round;stroke-miterlimit:10;}
	.st137{fill:#BEE9EB;}
	.st138{fill:#FFF6BC;}
	.st139{fill:#FF6E15;}
	.st140{fill:#7FCEED;}
	.st141{fill:#212121;}
	.st142{fill:#383838;}
	.st143{fill:#2A2A2A;}
	.st144{fill:#F5B0A6;}
	.st145{opacity:0.6;}
	.st146{fill:#F18A8B;}
	.st147{fill:#D37A7F;}
	.st148{fill:#0F0F0F;}
	.st149{fill:#202020;}
	.st150{fill:#1D1D1D;}
	.st151{fill:#2E6857;}
	.st152{fill:#255144;}
	.st153{fill:#40947E;}
	.st154{fill:#6FC183;}
	.st155{fill:#7A8DB0;}
	.st156{opacity:0.41;}
	.st157{fill:#243354;}
	.st158{fill:#EAEAEA;}
	.st159{fill:#2F4171;}
	.st160{fill:#2C4DA2;}
	.st161{fill:#99B1DA;}
	.st162{fill:#B5CAE8;}
	.st163{fill:#EDA9A2;}
	.st164{fill:#3D5891;}
	.st165{fill:#5681BF;}
	.st166{fill:#D1DBED;}
	.st167{opacity:0.35;}
	.st168{fill:#233F7C;}
	.st169{fill:#D2D2D2;}
	.st170{fill:#F19A6D;}
	.st171{fill:#7A7A7A;}
	.st172{fill:#F3CE90;}
	.st173{opacity:0.31;}
	.st174{fill:#292929;}
	.st175{fill:#515151;}
	.st176{fill:#3F3F3F;}
	.st177{fill-rule:evenodd;clip-rule:evenodd;fill:#D1DBED;}
	.st178{fill-rule:evenodd;clip-rule:evenodd;fill:#FFFFFF;}
	.st179{opacity:0.79;}
	.st180{opacity:0.28;}
	.st181{fill:#393939;}
	.st182{opacity:0.55;}
	.st183{fill:#A8A8A8;}
	.st184{fill:#B7B7B7;}
	.st185{fill:#EF7C59;}
	.st186{fill:#A0A0A0;}
	.st187{fill:#B9B9B9;}
	.st188{fill-rule:evenodd;clip-rule:evenodd;fill:#3D5891;}
	.st189{fill-rule:evenodd;clip-rule:evenodd;fill:#5681BF;}
	.st190{fill-rule:evenodd;clip-rule:evenodd;fill:#B5CAE8;}
	.st191{opacity:0.45;}
	.st192{fill-rule:evenodd;clip-rule:evenodd;fill:#99B1DA;}
	.st193{fill:#F0F0F0;}
	.st194{fill:#EACDB0;}
	.st195{fill:#A1BDCC;}
	.st196{fill:#8C9498;}
	.st197{fill:#3A3029;}
	.st198{fill:#59595B;}
	.st199{opacity:0.26;}
	.st200{fill:none;}
	.st201{fill:#6596C1;}
	.st202{fill:#5A8FB7;}
	.st203{fill:#C2969C;}
	.st204{fill:#754C3D;}
	.st205{fill:#F2D263;}
	.st206{fill:#AECCDC;}
	.st207{fill:#DEC2A7;}
	.st208{fill:#8AAD9F;}
	.st209{fill:#9E6652;}
	.st210{fill:#514943;}
	.st211{fill:#CAB5A1;}
	.st212{fill:#BCAC98;}
	.st213{fill:#D3C2A4;}
	.st214{fill:#37454D;}
	.st215{fill:#4F3C22;}
	.st216{fill:#DACAAF;}
	.st217{fill:#B26650;}
	.st218{fill:#2E4661;}
	.st219{fill:#FFFFF1;}
	.st220{fill:#FFD3A4;}
	.st221{fill:#FFBE84;}
	.st222{fill:#D65A2F;}
	.st223{fill:#A03914;}
	.st224{fill:#FFAF3E;}
	.st225{fill:#314652;}
	.st226{fill:#3C3A41;}
	.st227{fill:#FF9500;}
	.st228{fill:#E9336D;}
</style>
<g>
	<g>
		<path class="st73" d="M67.4,32.9c0,7.2-2.3,13.8-6.3,19.2c-0.5,0.6-0.9,1.2-1.4,1.8c-0.2,0.3-0.5,0.6-0.7,0.8
			c-1.1,1.2-2.4,2.4-3.7,3.5c-0.2,0.1-0.3,0.3-0.5,0.4c-1.3,1-2.7,2-4.2,2.8c-2.1,1.2-4.3,2.1-6.7,2.9c-0.7,0.2-1.4,0.4-2.1,0.6
			c-0.1,0-0.3,0.1-0.4,0.1c-2,0.5-4.1,0.7-6.3,0.8c-0.4,0-0.9,0-1.3,0c-0.6,0-1.2,0-1.8,0c-1-0.1-1.9-0.1-2.9-0.3
			c-0.9-0.1-1.8-0.3-2.7-0.5c-0.1,0-0.2,0-0.3-0.1c-1.1-0.3-2.2-0.6-3.2-0.9c-0.6-0.2-1.3-0.4-1.9-0.7c-0.1-0.1-0.3-0.1-0.4-0.2
			c-2.5-1.1-4.9-2.4-7-4c-0.5-0.4-1-0.8-1.5-1.2c-2.1-1.7-4-3.7-5.6-5.9C2.3,46.6,0,40,0,32.9C0,14.7,15.1,0,33.7,0
			S67.4,14.7,67.4,32.9z"/>
	</g>
	<g>
		<g>
			<g>
				<g>
					<path class="st74" d="M43.6,9.2C43.6,9.2,43.6,9.2,43.6,9.2c-0.2,0-0.3,0-0.5,0c0,0-0.1,0-0.1-0.1c0,0,0-0.1,0.1-0.1
						c0.2,0,0.3,0,0.5,0C43.7,9.1,43.7,9.1,43.6,9.2C43.7,9.2,43.7,9.2,43.6,9.2z"/>
				</g>
				<g>
					<path class="st74" d="M47.1,55.4C47,55.4,47,55.4,47.1,55.4c-0.1-0.1,0-0.1,0-0.1c0.3-0.1,0.6-0.1,0.9-0.2c0,0,0.1,0,0.1,0
						c0,0,0,0.1,0,0.1C47.7,55.3,47.4,55.4,47.1,55.4C47.1,55.4,47.1,55.4,47.1,55.4z M48.9,55C48.8,55,48.8,54.9,48.9,55
						c-0.1-0.1-0.1-0.1,0-0.1c0.3-0.1,0.6-0.2,0.9-0.3c0,0,0.1,0,0.1,0c0,0,0,0.1,0,0.1C49.5,54.7,49.2,54.9,48.9,55
						C48.9,55,48.9,55,48.9,55z M50.6,54.2C50.5,54.2,50.5,54.2,50.6,54.2c-0.1-0.1-0.1-0.1,0-0.1c0.3-0.1,0.5-0.3,0.8-0.4
						c0,0,0.1,0,0.1,0c0,0,0,0.1,0,0.1C51.1,53.9,50.9,54.1,50.6,54.2C50.6,54.2,50.6,54.2,50.6,54.2z M52.1,53.3
						C52.1,53.3,52.1,53.3,52.1,53.3c-0.1-0.1-0.1-0.1,0-0.1c0.3-0.2,0.5-0.3,0.7-0.5c0,0,0.1,0,0.1,0c0,0,0,0.1,0,0.1
						C52.7,53,52.4,53.1,52.1,53.3C52.2,53.3,52.2,53.3,52.1,53.3z M53.6,52.2C53.6,52.2,53.6,52.2,53.6,52.2c-0.1,0-0.1-0.1,0-0.1
						c0.2-0.2,0.5-0.4,0.7-0.6c0,0,0.1,0,0.1,0c0,0,0,0.1,0,0.1C54.1,51.8,53.9,52,53.6,52.2C53.6,52.2,53.6,52.2,53.6,52.2z
						 M54.9,50.9C54.9,50.9,54.9,50.9,54.9,50.9c-0.1,0-0.1-0.1,0-0.1c0.2-0.2,0.4-0.5,0.6-0.7c0,0,0.1,0,0.1,0c0,0,0,0.1,0,0.1
						C55.4,50.4,55.2,50.7,54.9,50.9C55,50.9,54.9,50.9,54.9,50.9z M56.1,49.5C56,49.5,56,49.5,56.1,49.5c-0.1,0-0.1-0.1-0.1-0.1
						c0.2-0.2,0.3-0.5,0.5-0.8c0,0,0.1,0,0.1,0c0,0,0,0.1,0,0.1C56.5,49,56.3,49.2,56.1,49.5C56.1,49.5,56.1,49.5,56.1,49.5z M57,48
						C57,48,57,47.9,57,48C56.9,47.9,56.9,47.9,57,48c0.1-0.4,0.2-0.6,0.3-0.9c0,0,0.1,0,0.1,0c0,0,0.1,0.1,0,0.1
						C57.3,47.4,57.2,47.6,57,48C57,47.9,57,48,57,48z M57.7,46.3C57.7,46.3,57.7,46.3,57.7,46.3C57.6,46.3,57.6,46.2,57.7,46.3
						c0-0.4,0.1-0.7,0.2-0.9c0,0,0-0.1,0.1,0c0,0,0.1,0,0,0.1C57.9,45.7,57.8,45.9,57.7,46.3C57.7,46.3,57.7,46.3,57.7,46.3z
						 M58.1,44.5C58.1,44.5,58.1,44.5,58.1,44.5C58.1,44.5,58,44.5,58.1,44.5c0-0.4,0-0.7,0-1c0,0,0-0.1,0.1-0.1c0,0,0.1,0,0.1,0.1
						C58.3,43.9,58.2,44.2,58.1,44.5C58.2,44.5,58.2,44.5,58.1,44.5z M58.2,42.7C58.2,42.7,58.2,42.7,58.2,42.7
						c-0.1-0.4-0.1-0.7-0.1-1c0,0,0-0.1,0.1-0.1c0,0,0.1,0,0.1,0.1C58.3,42.1,58.3,42.4,58.2,42.7C58.3,42.7,58.3,42.7,58.2,42.7
						C58.2,42.7,58.2,42.7,58.2,42.7z M58,40.9C58,40.9,58,40.9,58,40.9c-0.1-0.3-0.2-0.6-0.3-0.9c0,0,0-0.1,0-0.1c0,0,0.1,0,0.1,0
						C58,40.3,58.1,40.6,58,40.9C58.1,40.9,58.1,40.9,58,40.9C58.1,40.9,58.1,40.9,58,40.9z M28.2,39.3
						C28.2,39.3,28.2,39.3,28.2,39.3c-0.1-0.1,0-0.1,0-0.1c0.3,0,0.6,0,0.9,0c0,0,0.1,0,0.1,0.1c0,0,0,0.1-0.1,0.1
						C28.9,39.3,28.6,39.3,28.2,39.3C28.2,39.3,28.2,39.3,28.2,39.3z M27.3,39.3C27.3,39.3,27.3,39.3,27.3,39.3c-0.3,0-0.6,0-0.9,0
						c0,0-0.1,0-0.1-0.1c0,0,0-0.1,0.1-0.1c0.3,0,0.6,0,0.9,0C27.4,39.2,27.4,39.2,27.3,39.3C27.4,39.3,27.4,39.3,27.3,39.3z
						 M30.1,39.2C30.1,39.2,30,39.2,30.1,39.2c-0.1-0.1,0-0.1,0-0.1c0.3,0,0.6-0.1,0.9-0.1c0,0,0.1,0,0.1,0.1c0,0,0,0.1-0.1,0.1
						C30.7,39.2,30.4,39.2,30.1,39.2C30.1,39.2,30.1,39.2,30.1,39.2z M25.5,39.2C25.5,39.2,25.5,39.2,25.5,39.2L25.5,39.2
						c-0.3,0-0.6-0.1-0.9-0.1c0,0-0.1,0-0.1-0.1c0,0,0-0.1,0.1-0.1c0.3,0,0.6,0.1,0.9,0.1l0,0C25.5,39.1,25.5,39.1,25.5,39.2
						C25.5,39.2,25.5,39.2,25.5,39.2z M57.5,39.2C57.5,39.2,57.5,39.2,57.5,39.2c-0.1-0.1-0.1-0.2-0.2-0.3c-0.1-0.2-0.2-0.4-0.3-0.6
						c0,0,0-0.1,0-0.1c0,0,0.1,0,0.1,0c0.1,0.2,0.2,0.4,0.3,0.6C57.5,39,57.6,39,57.5,39.2C57.6,39.1,57.6,39.2,57.5,39.2
						C57.5,39.2,57.5,39.2,57.5,39.2z M23.6,39C23.6,39,23.6,39,23.6,39c-0.3,0-0.6-0.1-0.9-0.1c0,0-0.1,0-0.1-0.1
						c0,0,0-0.1,0.1-0.1c0.3,0.1,0.6,0.1,0.9,0.1C23.7,38.9,23.7,38.9,23.6,39C23.7,39,23.7,39,23.6,39z M31.9,39
						C31.9,39,31.9,39,31.9,39c-0.1-0.1,0-0.1,0-0.1c0.3,0,0.6-0.1,0.9-0.2c0,0,0.1,0,0.1,0.1c0,0,0,0.1-0.1,0.1
						C32.6,38.9,32.2,38.9,31.9,39C31.9,39,31.9,39,31.9,39z M21.8,38.7C21.8,38.7,21.8,38.7,21.8,38.7c-0.3-0.1-0.6-0.1-0.9-0.2
						c0,0-0.1,0,0-0.1c0,0,0-0.1,0.1,0c0.3,0.1,0.6,0.1,0.9,0.2C21.9,38.6,21.9,38.6,21.8,38.7C21.9,38.7,21.8,38.7,21.8,38.7z
						 M33.8,38.6C33.7,38.6,33.7,38.6,33.8,38.6c-0.1-0.1-0.1-0.1,0-0.1c0.3-0.1,0.6-0.1,0.9-0.2c0,0,0.1,0,0.1,0c0,0,0,0.1,0,0.1
						C34.4,38.5,34.1,38.6,33.8,38.6C33.8,38.6,33.8,38.6,33.8,38.6z M20,38.2C20,38.2,20,38.2,20,38.2c-0.3-0.1-0.6-0.2-0.9-0.3
						c0,0-0.1,0,0-0.1c0,0,0-0.1,0.1,0c0.3,0.1,0.6,0.2,0.9,0.3C20.1,38.1,20.1,38.2,20,38.2C20.1,38.2,20,38.2,20,38.2z M35.5,38.2
						C35.5,38.2,35.5,38.2,35.5,38.2c-0.1-0.1-0.1-0.1,0-0.1c0.3-0.1,0.6-0.2,0.9-0.3c0,0,0.1,0,0.1,0c0,0,0,0.1,0,0.1
						C36.1,38,35.9,38.1,35.5,38.2C35.6,38.2,35.5,38.2,35.5,38.2z M18.3,37.7C18.3,37.7,18.2,37.7,18.3,37.7
						c-0.3-0.1-0.6-0.2-0.9-0.4c0,0,0-0.1,0-0.1c0,0,0.1,0,0.1,0c0.3,0.1,0.6,0.2,0.9,0.3C18.3,37.6,18.3,37.6,18.3,37.7
						C18.3,37.7,18.3,37.7,18.3,37.7z M56.7,37.6C56.7,37.6,56.6,37.6,56.7,37.6c-0.2-0.3-0.4-0.5-0.6-0.8c0,0,0-0.1,0-0.1
						c0,0,0.1,0,0.1,0c0.2,0.2,0.4,0.5,0.5,0.7C56.8,37.5,56.8,37.6,56.7,37.6C56.7,37.6,56.7,37.6,56.7,37.6z M37.3,37.6
						C37.3,37.6,37.2,37.6,37.3,37.6c-0.1-0.1-0.1-0.1,0-0.1l0,0c0.3-0.1,0.5-0.2,0.8-0.3c0,0,0.1,0,0.1,0c0,0,0,0.1,0,0.1
						C37.9,37.4,37.6,37.5,37.3,37.6L37.3,37.6C37.3,37.6,37.3,37.6,37.3,37.6z M16.6,36.9C16.6,36.9,16.6,36.9,16.6,36.9
						c-0.3-0.1-0.6-0.3-0.8-0.5c0,0,0-0.1,0-0.1c0,0,0.1,0,0.1,0c0.3,0.2,0.5,0.3,0.8,0.4C16.6,36.8,16.6,36.9,16.6,36.9
						C16.6,36.9,16.6,36.9,16.6,36.9z M39,36.9C39,36.9,38.9,36.9,39,36.9c-0.1-0.1-0.1-0.1,0-0.1c0.2-0.1,0.3-0.1,0.5-0.2l0.4-0.2
						c0,0,0.1,0,0.1,0c0,0,0,0.1,0,0.1l-0.4,0.2C39.3,36.8,39.2,36.8,39,36.9C39,36.9,39,36.9,39,36.9z M40.7,36.2
						C40.7,36.2,40.7,36.2,40.7,36.2c-0.1-0.1-0.1-0.1,0-0.1c0.3-0.1,0.6-0.2,0.9-0.3c0,0,0.1,0,0.1,0c0,0,0,0.1,0,0.1
						C41.3,36,41,36.1,40.7,36.2C40.7,36.2,40.7,36.2,40.7,36.2z M55.5,36.2C55.5,36.2,55.5,36.2,55.5,36.2
						c-0.3-0.2-0.5-0.4-0.7-0.6c0,0,0-0.1,0-0.1c0,0,0.1,0,0.1,0c0.2,0.2,0.5,0.4,0.7,0.6C55.6,36.1,55.6,36.2,55.5,36.2
						C55.6,36.2,55.5,36.2,55.5,36.2z M15,36C15,36,15,36,15,36c-0.3-0.2-0.5-0.4-0.8-0.6c0,0,0-0.1,0-0.1c0,0,0.1,0,0.1,0
						c0.2,0.2,0.5,0.4,0.7,0.6C15.1,35.9,15.1,35.9,15,36C15,36,15,36,15,36z M42.4,35.5C42.4,35.5,42.4,35.5,42.4,35.5
						c-0.1-0.1-0.1-0.1,0-0.1c0.3-0.1,0.6-0.2,0.9-0.3c0,0,0.1,0,0.1,0c0,0,0,0.1,0,0.1C43,35.3,42.8,35.4,42.4,35.5
						C42.4,35.5,42.4,35.5,42.4,35.5z M54.1,35.1C54.1,35.1,54,35.1,54.1,35.1c-0.3-0.2-0.6-0.3-0.8-0.4c0,0,0-0.1,0-0.1
						c0,0,0.1,0,0.1,0c0.3,0.1,0.6,0.3,0.8,0.4C54.1,35,54.1,35,54.1,35.1C54.1,35.1,54.1,35.1,54.1,35.1z M44.2,35
						C44.2,35,44.1,34.9,44.2,35c-0.1-0.1-0.1-0.1,0-0.1c0.3-0.1,0.6-0.2,0.9-0.3c0,0,0.1,0,0.1,0c0,0,0,0.1,0,0.1
						C44.8,34.8,44.5,34.9,44.2,35C44.2,35,44.2,35,44.2,35z M13.6,34.8C13.6,34.8,13.5,34.8,13.6,34.8c-0.3-0.2-0.5-0.5-0.7-0.7
						c0,0,0-0.1,0-0.1c0,0,0.1,0,0.1,0c0.2,0.2,0.4,0.5,0.6,0.7C13.7,34.7,13.7,34.8,13.6,34.8C13.6,34.8,13.6,34.8,13.6,34.8z
						 M46,34.5C45.9,34.5,45.9,34.5,46,34.5c-0.1-0.1-0.1-0.1,0-0.1c0.3-0.1,0.6-0.1,0.9-0.2c0,0,0.1,0,0.1,0.1c0,0,0,0.1-0.1,0.1
						C46.6,34.3,46.3,34.4,46,34.5C46,34.5,46,34.5,46,34.5z M52.4,34.4C52.4,34.4,52.4,34.4,52.4,34.4c-0.3-0.1-0.6-0.2-0.9-0.2
						c0,0-0.1,0-0.1-0.1s0-0.1,0.1-0.1c0.3,0.1,0.6,0.1,0.9,0.2C52.4,34.2,52.5,34.3,52.4,34.4C52.4,34.3,52.4,34.4,52.4,34.4z
						 M47.8,34.1C47.8,34.1,47.7,34.1,47.8,34.1c-0.1-0.1,0-0.1,0-0.1c0.3,0,0.6-0.1,0.9-0.1c0,0,0.1,0,0.1,0.1c0,0,0,0.1-0.1,0.1
						C48.4,34.1,48.1,34.1,47.8,34.1C47.8,34.1,47.8,34.1,47.8,34.1z M50.6,34C50.6,34,50.6,34,50.6,34c-0.3,0-0.6,0-0.9,0
						c0,0,0,0,0,0c0,0-0.1,0-0.1-0.1c0,0,0-0.1,0.1-0.1c0.3,0,0.6,0,0.9,0C50.6,33.9,50.6,33.9,50.6,34C50.6,34,50.6,34,50.6,34z
						 M12.4,33.4C12.4,33.4,12.4,33.4,12.4,33.4c-0.2-0.3-0.4-0.5-0.5-0.8c0,0,0-0.1,0-0.1c0,0,0.1,0,0.1,0c0.1,0.3,0.3,0.5,0.5,0.8
						C12.5,33.4,12.5,33.4,12.4,33.4C12.4,33.4,12.4,33.4,12.4,33.4z M11.5,31.8C11.5,31.8,11.5,31.8,11.5,31.8
						c-0.2-0.3-0.3-0.6-0.4-0.9c0,0,0-0.1,0-0.1c0,0,0.1,0,0.1,0C11.4,31.2,11.5,31.5,11.5,31.8C11.6,31.8,11.6,31.8,11.5,31.8
						C11.6,31.8,11.6,31.8,11.5,31.8z M11,30.1C11,30.1,11,30.1,11,30.1c-0.1-0.3-0.2-0.6-0.2-0.9c0,0,0-0.1,0.1-0.1
						c0,0,0.1,0,0.1,0.1C11,29.4,11,29.7,11,30.1C11.1,30.1,11.1,30.1,11,30.1C11,30.1,11,30.1,11,30.1z M10.8,28.3
						C10.8,28.3,10.7,28.3,10.8,28.3c-0.1-0.2-0.1-0.3-0.1-0.4c0-0.2,0-0.4,0-0.6c0,0,0-0.1,0.1-0.1c0,0,0.1,0,0.1,0.1
						c0,0.2,0,0.4,0,0.6C10.9,28,10.9,28.1,10.8,28.3C10.9,28.3,10.8,28.3,10.8,28.3C10.8,28.3,10.8,28.3,10.8,28.3z M10.9,26.5
						C10.9,26.5,10.9,26.5,10.9,26.5C10.8,26.5,10.8,26.5,10.9,26.5c0-0.4,0-0.7,0.1-1c0,0,0-0.1,0.1,0c0,0,0.1,0,0.1,0.1
						C11.1,25.9,11,26.2,10.9,26.5C11,26.5,10.9,26.5,10.9,26.5z M49,25.7c-0.3,0-0.5,0-0.8,0c0,0-0.1,0-0.1-0.1c0,0,0-0.1,0.1-0.1
						c0.3,0,0.5,0,0.8,0c0,0,0.1,0,0.1,0c0,0,0,0,0,0c0,0,0.1,0,0.1,0.1c0,0,0,0.1-0.1,0.1C49.1,25.7,49,25.7,49,25.7z M50,25.6
						C50,25.6,50,25.6,50,25.6c-0.1-0.1,0-0.1,0-0.1c0.3,0,0.5-0.1,0.8-0.1c0,0,0.1,0,0.1,0c0,0,0.1,0,0.1,0.1c0,0,0,0.1-0.1,0.1
						c0,0-0.1,0-0.1,0C50.6,25.6,50.3,25.6,50,25.6C50,25.6,50,25.6,50,25.6z M47.3,25.6C47.3,25.6,47.3,25.6,47.3,25.6
						c-0.3,0-0.6-0.1-0.9-0.1c0,0-0.1,0-0.1-0.1c0,0,0-0.1,0.1-0.1c0.3,0.1,0.6,0.1,0.9,0.1C47.3,25.4,47.3,25.5,47.3,25.6
						C47.3,25.5,47.3,25.6,47.3,25.6z M51.9,25.3C51.8,25.3,51.8,25.3,51.9,25.3c-0.1-0.1-0.1-0.1,0-0.1c0.3-0.1,0.6-0.2,0.9-0.3
						c0,0,0.1,0,0.1,0c0,0,0,0.1,0,0.1C52.5,25.1,52.2,25.2,51.9,25.3C51.9,25.3,51.9,25.3,51.9,25.3z M45.4,25.2
						C45.4,25.2,45.4,25.2,45.4,25.2c-0.3-0.1-0.6-0.1-0.9-0.2c0,0-0.1,0,0-0.1c0,0,0-0.1,0.1,0c0.3,0.1,0.6,0.2,0.9,0.2
						C45.5,25.1,45.5,25.1,45.4,25.2C45.5,25.2,45.5,25.2,45.4,25.2z M11.3,24.8C11.3,24.8,11.3,24.8,11.3,24.8
						C11.2,24.7,11.2,24.7,11.3,24.8c0-0.4,0.1-0.7,0.3-0.9c0,0,0.1,0,0.1,0c0,0,0,0.1,0,0.1C11.6,24.1,11.4,24.4,11.3,24.8
						C11.3,24.7,11.3,24.8,11.3,24.8z M43.7,24.7C43.7,24.7,43.7,24.7,43.7,24.7c-0.3-0.1-0.6-0.2-0.9-0.3c0,0-0.1,0,0-0.1
						c0,0,0-0.1,0.1,0c0.3,0.1,0.6,0.2,0.9,0.3C43.7,24.6,43.7,24.7,43.7,24.7C43.7,24.7,43.7,24.7,43.7,24.7z M53.6,24.6
						C53.5,24.6,53.5,24.6,53.6,24.6c-0.1-0.1-0.1-0.1,0-0.1c0.1-0.1,0.3-0.2,0.4-0.3c0.1-0.1,0.2-0.2,0.3-0.3c0,0,0.1,0,0.1,0
						c0,0,0,0.1,0,0.1c-0.1,0.1-0.2,0.2-0.3,0.3C53.9,24.4,53.7,24.5,53.6,24.6C53.6,24.6,53.6,24.6,53.6,24.6z M41.9,24.2
						C41.9,24.2,41.9,24.2,41.9,24.2c-0.3-0.1-0.6-0.2-0.9-0.3c0,0-0.1-0.1,0-0.1c0,0,0.1,0,0.1,0c0.3,0.1,0.6,0.2,0.9,0.3
						C42,24,42,24.1,41.9,24.2C42,24.1,41.9,24.2,41.9,24.2z M40.2,23.5C40.2,23.5,40.2,23.5,40.2,23.5c-0.3-0.1-0.6-0.2-0.9-0.3
						c0,0-0.1-0.1,0-0.1c0,0,0.1,0,0.1,0c0.3,0.1,0.6,0.2,0.9,0.3C40.2,23.4,40.3,23.4,40.2,23.5C40.2,23.5,40.2,23.5,40.2,23.5z
						 M55,23.5C55,23.5,55,23.5,55,23.5c-0.1,0-0.1-0.1,0-0.1c0.2-0.2,0.4-0.4,0.6-0.7c0,0,0.1,0,0.1,0c0,0,0,0.1,0,0.1
						C55.4,23,55.2,23.2,55,23.5C55,23.5,55,23.5,55,23.5z M12,23.1C12,23.1,12,23.1,12,23.1C11.9,23.1,11.9,23,12,23.1
						c0.1-0.4,0.3-0.6,0.4-0.9c0,0,0.1,0,0.1,0c0,0,0,0.1,0,0.1C12.4,22.5,12.2,22.8,12,23.1C12.1,23.1,12,23.1,12,23.1z M38.5,22.8
						C38.5,22.8,38.5,22.8,38.5,22.8c-0.4-0.1-0.6-0.2-0.9-0.3c0,0-0.1-0.1,0-0.1c0,0,0.1,0,0.1,0c0.3,0.1,0.5,0.2,0.9,0.3
						C38.5,22.7,38.5,22.8,38.5,22.8C38.5,22.8,38.5,22.8,38.5,22.8z M36.7,22.2C36.7,22.2,36.7,22.2,36.7,22.2
						c-0.3-0.1-0.6-0.2-0.9-0.3c0,0-0.1,0,0-0.1c0,0,0.1-0.1,0.1,0c0.3,0.1,0.6,0.2,0.9,0.3C36.8,22.1,36.8,22.1,36.7,22.2
						C36.8,22.2,36.8,22.2,36.7,22.2z M56.1,22C56.1,22,56,22,56.1,22C56,22,56,21.9,56.1,22c0-0.2,0-0.2,0-0.3
						c0.1-0.2,0.2-0.4,0.3-0.6c0,0,0.1,0,0.1,0c0,0,0,0.1,0,0.1c-0.1,0.2-0.2,0.4-0.3,0.6C56.2,21.8,56.2,21.9,56.1,22
						C56.1,22,56.1,22,56.1,22z M13,21.6C13,21.6,13,21.6,13,21.6c-0.1,0-0.1-0.1-0.1-0.1c0.2-0.2,0.4-0.5,0.6-0.7c0,0,0.1,0,0.1,0
						c0,0,0,0.1,0,0.1C13.5,21.1,13.3,21.4,13,21.6C13.1,21.6,13.1,21.6,13,21.6z M35,21.6C35,21.6,35,21.6,35,21.6
						c-0.3-0.1-0.6-0.2-0.9-0.3c0,0-0.1,0,0-0.1c0,0,0-0.1,0.1,0c0.3,0.1,0.6,0.2,0.9,0.3C35.1,21.4,35.1,21.5,35,21.6
						C35.1,21.5,35,21.6,35,21.6z M33.2,21C33.2,21,33.2,21,33.2,21c-0.3-0.1-0.6-0.2-0.9-0.3c0,0-0.1,0,0-0.1c0,0,0-0.1,0.1,0
						c0.3,0.1,0.6,0.2,0.9,0.3C33.3,20.9,33.3,20.9,33.2,21C33.3,21,33.3,21,33.2,21z M31.5,20.5C31.5,20.5,31.5,20.5,31.5,20.5
						c-0.3-0.1-0.6-0.2-0.9-0.2c0,0-0.1,0,0-0.1c0,0,0-0.1,0.1,0c0.3,0.1,0.6,0.2,0.9,0.2C31.5,20.4,31.5,20.4,31.5,20.5
						C31.5,20.5,31.5,20.5,31.5,20.5z M14.4,20.4C14.4,20.4,14.4,20.4,14.4,20.4c-0.1-0.1-0.1-0.1,0-0.1c0.2-0.2,0.5-0.3,0.8-0.5
						c0,0,0.1,0,0.1,0c0,0,0,0.1,0,0.1C14.9,20,14.7,20.2,14.4,20.4C14.4,20.4,14.4,20.4,14.4,20.4z M56.8,20.4
						C56.8,20.4,56.8,20.4,56.8,20.4C56.8,20.3,56.7,20.3,56.8,20.4c0-0.4,0.1-0.7,0.2-0.9c0,0,0-0.1,0.1,0c0,0,0.1,0,0.1,0.1
						C57.1,19.7,57,20,56.8,20.4C56.9,20.3,56.8,20.4,56.8,20.4z M29.7,20C29.7,20,29.7,20,29.7,20c-0.3-0.1-0.6-0.1-0.9-0.2
						c0,0-0.1,0-0.1-0.1c0,0,0-0.1,0.1,0c0.3,0.1,0.6,0.1,0.9,0.2C29.7,19.9,29.7,19.9,29.7,20C29.7,20,29.7,20,29.7,20z M27.9,19.6
						C27.9,19.6,27.9,19.6,27.9,19.6c-0.3-0.1-0.6-0.1-0.9-0.2c0,0-0.1,0-0.1-0.1c0,0,0-0.1,0.1-0.1c0.3,0.1,0.6,0.1,0.9,0.2
						C27.9,19.5,27.9,19.6,27.9,19.6C27.9,19.6,27.9,19.6,27.9,19.6z M16,19.5C16,19.5,16,19.5,16,19.5c-0.1-0.1-0.1-0.1,0-0.1
						c0.3-0.1,0.6-0.2,0.9-0.3c0,0,0.1,0,0.1,0c0,0,0,0.1,0,0.1C16.6,19.3,16.3,19.4,16,19.5C16,19.5,16,19.5,16,19.5z M26,19.3
						C26,19.3,26,19.3,26,19.3L26,19.3c-0.3,0-0.6-0.1-0.9-0.1c0,0-0.1,0-0.1-0.1c0,0,0-0.1,0.1-0.1c0.3,0,0.6,0.1,0.9,0.1l0,0
						C26.1,19.2,26.1,19.2,26,19.3C26.1,19.3,26.1,19.3,26,19.3z M24.2,19C24.2,19,24.2,19,24.2,19c-0.3,0-0.6-0.1-0.9-0.1
						c0,0-0.1,0-0.1-0.1c0,0,0-0.1,0.1-0.1c0.3,0,0.6,0.1,0.9,0.1C24.3,18.9,24.3,18.9,24.2,19C24.3,19,24.3,19,24.2,19z M17.8,19
						C17.7,19,17.7,18.9,17.8,19c-0.1-0.1,0-0.1,0-0.1c0.3-0.1,0.6-0.1,0.9-0.1c0,0,0.1,0,0.1,0.1c0,0,0,0.1-0.1,0.1
						C18.4,18.8,18.1,18.9,17.8,19C17.8,19,17.8,19,17.8,19z M22.4,18.8C22.4,18.8,22.4,18.8,22.4,18.8c-0.3,0-0.6-0.1-0.9-0.1
						c0,0-0.1,0-0.1-0.1c0,0,0-0.1,0.1-0.1c0.3,0,0.6,0,0.9,0.1C22.4,18.7,22.5,18.7,22.4,18.8C22.4,18.8,22.4,18.8,22.4,18.8z
						 M19.6,18.7C19.6,18.7,19.5,18.7,19.6,18.7c-0.1-0.1,0-0.1,0-0.1c0.3,0,0.6,0,0.9,0l0.1,0c0,0,0.1,0,0.1,0.1c0,0,0,0.1-0.1,0.1
						l-0.1,0C20.2,18.7,19.9,18.7,19.6,18.7C19.6,18.7,19.6,18.7,19.6,18.7z M57.2,18.6C57.2,18.6,57.2,18.6,57.2,18.6
						C57.2,18.6,57.1,18.6,57.2,18.6c0-0.3,0-0.5,0-0.8c0-0.1,0-0.1,0-0.2c0,0,0-0.1,0.1-0.1c0,0,0,0,0,0c0,0,0.1,0,0.1,0.1
						c0,0.1,0,0.1,0,0.2C57.3,18.1,57.3,18.3,57.2,18.6C57.3,18.6,57.2,18.6,57.2,18.6z M57.1,16.8C57.1,16.8,57.1,16.8,57.1,16.8
						c-0.1-0.4-0.2-0.6-0.3-0.9c0,0,0-0.1,0-0.1c0,0,0.1,0,0.1,0C57.1,16.1,57.2,16.4,57.1,16.8C57.2,16.8,57.2,16.8,57.1,16.8
						C57.1,16.8,57.1,16.8,57.1,16.8z M56.6,15.1C56.5,15.1,56.5,15.1,56.6,15.1c-0.2-0.3-0.4-0.5-0.5-0.8c0,0,0-0.1,0-0.1
						c0,0,0.1,0,0.1,0C56.3,14.5,56.5,14.7,56.6,15.1C56.6,15,56.6,15.1,56.6,15.1C56.6,15.1,56.6,15.1,56.6,15.1z M55.5,13.6
						C55.5,13.6,55.4,13.6,55.5,13.6c-0.3-0.2-0.5-0.4-0.7-0.6c0,0,0-0.1,0-0.1c0,0,0.1,0,0.1,0c0.2,0.2,0.5,0.4,0.7,0.6
						C55.6,13.5,55.6,13.6,55.5,13.6C55.5,13.6,55.5,13.6,55.5,13.6z M54.1,12.4C54.1,12.4,54.1,12.4,54.1,12.4
						c-0.3-0.2-0.5-0.3-0.8-0.5c0,0,0-0.1,0-0.1c0,0,0.1,0,0.1,0c0.3,0.2,0.5,0.3,0.8,0.5C54.1,12.3,54.2,12.4,54.1,12.4
						C54.1,12.4,54.1,12.4,54.1,12.4z M52.5,11.5C52.5,11.5,52.5,11.5,52.5,11.5c-0.3-0.1-0.5-0.3-0.8-0.4l-0.1,0c0,0,0-0.1,0-0.1
						c0,0,0.1,0,0.1,0l0.1,0c0.3,0.1,0.5,0.2,0.8,0.4C52.6,11.4,52.6,11.4,52.5,11.5C52.5,11.5,52.5,11.5,52.5,11.5z M50.8,10.8
						C50.8,10.8,50.8,10.8,50.8,10.8c-0.3-0.1-0.6-0.2-0.9-0.3c0,0-0.1,0,0-0.1c0,0,0.1-0.1,0.1,0c0.3,0.1,0.6,0.2,0.9,0.3
						C50.9,10.6,50.9,10.7,50.8,10.8C50.9,10.7,50.8,10.8,50.8,10.8z M49.1,10.2C49.1,10.2,49.1,10.2,49.1,10.2
						c-0.3-0.1-0.6-0.2-0.9-0.3c0,0-0.1,0,0-0.1c0,0,0-0.1,0.1,0c0.3,0.1,0.6,0.2,0.9,0.3C49.1,10,49.1,10.1,49.1,10.2
						C49.1,10.1,49.1,10.2,49.1,10.2z M47.3,9.7C47.3,9.7,47.3,9.7,47.3,9.7c-0.3-0.1-0.6-0.1-0.9-0.2c0,0-0.1,0-0.1-0.1
						c0,0,0-0.1,0.1-0.1c0.3,0.1,0.6,0.1,0.9,0.2C47.3,9.6,47.4,9.6,47.3,9.7C47.3,9.7,47.3,9.7,47.3,9.7z M45.5,9.4
						C45.5,9.4,45.5,9.4,45.5,9.4c-0.3,0-0.6-0.1-0.9-0.1c0,0-0.1,0-0.1-0.1c0,0,0-0.1,0.1-0.1c0.3,0,0.6,0.1,0.9,0.1
						C45.5,9.2,45.5,9.3,45.5,9.4C45.5,9.3,45.5,9.4,45.5,9.4z"/>
				</g>
				<g>
					<path class="st74" d="M45.7,55.6C45.6,55.6,45.6,55.6,45.7,55.6c-0.1-0.1,0-0.1,0-0.1c0.2,0,0.3,0,0.5,0c0,0,0.1,0,0.1,0.1
						c0,0,0,0.1-0.1,0.1C46,55.6,45.8,55.6,45.7,55.6C45.7,55.6,45.7,55.6,45.7,55.6z"/>
				</g>
			</g>
			<g>
				<ellipse class="st74" cx="10.4" cy="25.1" rx="1.4" ry="1.4"/>
			</g>
			<g>
				<ellipse class="st74" cx="48.5" cy="10" rx="0.7" ry="0.7"/>
			</g>
			<g>
				<g>
					<path class="st74" d="M60.1,32.2C60.1,32.2,60.1,32.2,60.1,32.2c-0.4,0-0.7-0.2-0.9-0.4C59.1,31.6,59,31.3,59,31l0,0
						c0-0.6,0.6-1.1,1.2-1c0.3,0,0.6,0.2,0.8,0.4c0.2,0.2,0.3,0.5,0.3,0.8c0,0.3-0.2,0.6-0.4,0.7C60.6,32.1,60.4,32.2,60.1,32.2z
						 M59.1,31L59.1,31c0,0.3,0.1,0.5,0.3,0.7c0.2,0.2,0.4,0.3,0.7,0.3c0.3,0,0.5-0.1,0.7-0.2c0.2-0.2,0.3-0.4,0.3-0.7
						c0-0.3-0.1-0.5-0.2-0.7c-0.2-0.2-0.4-0.3-0.7-0.3C59.6,30.1,59.2,30.5,59.1,31L59.1,31z"/>
				</g>
			</g>
		</g>
	</g>
	<g>
		<g>
			<g>
				<g>
					<path class="st75" d="M8.4,46.4c0,0-0.4-0.1-0.8-0.2c-0.5-0.1-1-0.4-1.2-0.5c-0.5-0.2-0.6-0.3-0.6-0.3c0,0-0.7,0.4-1.3,0.2
						c-0.6-0.2-0.7-0.4-0.7-0.4c0,0,0.2-0.4,0.8-0.4c0.6,0,1,0.3,1,0.3c0,0-0.7-0.6-0.9-0.9c-0.2-0.3-0.9-0.5-1-1.5c0-1,0-1.1,0-1.1
						c0,0,0.5,0.4,0.7,1.1c0.2,0.8,0.3,1.4,0.3,1.4C5,44.4,5.3,44.7,5.6,45c0,0-0.3-0.4-0.4-1.3c0-0.9,0.1-1.1,0.1-1.1
						c0,0,0.4,0.6,0.5,1.2c0.1,0.7,0,1.5,0,1.5c0.2,0.2,0.5,0.3,0.7,0.4c0,0-0.1-0.3-0.2-0.7c-0.1-0.4-0.1-0.8,0-1
						c0.2-0.4,0.2-0.4,0.2-0.4c0,0,0.3,0.5,0.3,1.1c0,0.7-0.2,1.1-0.3,1.1C7.2,45.9,7.8,46.1,8.4,46.4C8.4,46.3,8.4,46.4,8.4,46.4z"
						/>
				</g>
				<g>
					<path class="st75" d="M8.4,46.4c0,0-0.4-0.1-0.8-0.2c-0.5-0.1-1-0.4-1.2-0.5c-0.5-0.2-0.6-0.3-0.6-0.3c0,0-0.7,0.4-1.3,0.2
						c-0.6-0.2-0.7-0.4-0.7-0.4c0,0,0.2-0.4,0.8-0.4c0.6,0,1,0.3,1,0.3c0,0-0.7-0.6-0.9-0.9c-0.2-0.3-0.9-0.5-1-1.5c0-1,0-1.1,0-1.1
						c0,0,0.5,0.4,0.7,1.1c0.2,0.8,0.3,1.4,0.3,1.4C5,44.4,5.3,44.7,5.6,45c0,0-0.3-0.4-0.4-1.3c0-0.9,0.1-1.1,0.1-1.1
						c0,0,0.4,0.6,0.5,1.2c0.1,0.7,0,1.5,0,1.5c0.2,0.2,0.5,0.3,0.7,0.4c0,0-0.1-0.3-0.2-0.7c-0.1-0.4-0.1-0.8,0-1
						c0.2-0.4,0.2-0.4,0.2-0.4c0,0,0.3,0.5,0.3,1.1c0,0.7-0.2,1.1-0.3,1.1C7.2,45.9,7.8,46.1,8.4,46.4C8.4,46.3,8.4,46.4,8.4,46.4z"
						/>
				</g>
			</g>
			<g>
				<g>
					<path class="st76" d="M7.9,46.3c0,0-0.4-0.7-0.9-1.7c-0.4-0.9-0.8-2-1-2.5c-0.3-1.1-0.3-1.4-0.3-1.4c0,0-1.7-0.5-2.3-1.7
						c-0.6-1.2-0.4-1.7-0.4-1.7c0,0,1-0.3,1.8,0.7C5.9,39,6,40,6,40c0,0-0.1-2,0.1-2.8c0.2-0.7-0.5-2.2,1.1-3.8
						c1.6-1.5,1.8-1.5,1.8-1.5c0,0,0.1,1.3-0.8,2.7c-1,1.4-1.8,2.5-1.8,2.5C6.2,38,6.1,39,6.1,39.9c0,0,0.1-1.1,1.6-2.5
						C9.2,36.1,9.7,36,9.7,36c0,0-0.4,1.4-1.3,2.5c-0.9,1.1-2.3,2.2-2.3,2.2c0.1,0.6,0.2,1.2,0.4,1.7c0,0,0.4-0.6,0.9-1.3
						c0.5-0.6,1.2-1.3,1.7-1.5c0.9-0.3,0.9-0.3,0.9-0.3c0,0-0.4,1.1-1.4,2.1c-1,1-2.1,1.2-2.1,1.2C6.9,43.8,7.4,44.9,8,46
						C7.9,46.1,7.9,46.2,7.9,46.3z"/>
				</g>
				<g>
					<path class="st76" d="M7.9,46.3c0,0-0.4-0.7-0.9-1.7c-0.4-0.9-0.8-2-1-2.5c-0.3-1.1-0.3-1.4-0.3-1.4c0,0-1.7-0.5-2.3-1.7
						c-0.6-1.2-0.4-1.7-0.4-1.7c0,0,1-0.3,1.8,0.7C5.9,39,6,40,6,40c0,0-0.1-2,0.1-2.8c0.2-0.7-0.5-2.2,1.1-3.8
						c1.6-1.5,1.8-1.5,1.8-1.5c0,0,0.1,1.3-0.8,2.7c-1,1.4-1.8,2.5-1.8,2.5C6.2,38,6.1,39,6.1,39.9c0,0,0.1-1.1,1.6-2.5
						C9.2,36.1,9.7,36,9.7,36c0,0-0.4,1.4-1.3,2.5c-0.9,1.1-2.3,2.2-2.3,2.2c0.1,0.6,0.2,1.2,0.4,1.7c0,0,0.4-0.6,0.9-1.3
						c0.5-0.6,1.2-1.3,1.7-1.5c0.9-0.3,0.9-0.3,0.9-0.3c0,0-0.4,1.1-1.4,2.1c-1,1-2.1,1.2-2.1,1.2C6.9,43.8,7.4,44.9,8,46
						C7.9,46.1,7.9,46.2,7.9,46.3z"/>
				</g>
			</g>
		</g>
		<g>
			<g>
				<g>
					<path class="st75" d="M55.6,46.6c0,0,0.5,0.2,1,0.3c0.6,0.1,1.2,0.2,1.5,0.2c0.6,0,0.8,0,0.8,0c0,0,0.5,0.8,1.2,1
						c0.7,0.2,1,0,1,0c0,0,0-0.5-0.6-0.9c-0.6-0.4-1.2-0.3-1.2-0.3c0,0,1.1-0.2,1.6-0.3c0.4-0.2,1.3,0,2-1c0.7-1,0.6-1.1,0.6-1.1
						c0,0-0.7,0.1-1.4,0.7c-0.7,0.7-1.2,1.2-1.2,1.2c-0.5,0.2-1,0.3-1.5,0.4c0,0,0.6-0.2,1.2-1.1c0.6-0.9,0.6-1.2,0.6-1.2
						c0,0-0.7,0.3-1.3,1c-0.5,0.6-1,1.5-1,1.5c-0.3,0-0.7,0-1,0c0,0,0.3-0.3,0.6-0.6c0.3-0.4,0.6-0.8,0.6-1.1
						c0.1-0.5,0.1-0.5,0.1-0.5c0,0-0.6,0.3-1,1c-0.4,0.7-0.4,1.2-0.4,1.2c-0.7-0.1-1.4-0.2-2.1-0.4C55.7,46.6,55.7,46.6,55.6,46.6z"
						/>
				</g>
				<g>
					<path class="st75" d="M55.6,46.6c0,0,0.5,0.2,1,0.3c0.6,0.1,1.2,0.2,1.5,0.2c0.6,0,0.8,0,0.8,0c0,0,0.5,0.8,1.2,1
						c0.7,0.2,1,0,1,0c0,0,0-0.5-0.6-0.9c-0.6-0.4-1.2-0.3-1.2-0.3c0,0,1.1-0.2,1.6-0.3c0.4-0.2,1.3,0,2-1c0.7-1,0.6-1.1,0.6-1.1
						c0,0-0.7,0.1-1.4,0.7c-0.7,0.7-1.2,1.2-1.2,1.2c-0.5,0.2-1,0.3-1.5,0.4c0,0,0.6-0.2,1.2-1.1c0.6-0.9,0.6-1.2,0.6-1.2
						c0,0-0.7,0.3-1.3,1c-0.5,0.6-1,1.5-1,1.5c-0.3,0-0.7,0-1,0c0,0,0.3-0.3,0.6-0.6c0.3-0.4,0.6-0.8,0.6-1.1
						c0.1-0.5,0.1-0.5,0.1-0.5c0,0-0.6,0.3-1,1c-0.4,0.7-0.4,1.2-0.4,1.2c-0.7-0.1-1.4-0.2-2.1-0.4C55.7,46.6,55.7,46.6,55.6,46.6z"
						/>
				</g>
			</g>
			<g>
				<g>
					<path class="st76" d="M56.2,46.8c0,0,0.7-0.4,1.4-0.8c0.7-0.5,1.5-1.1,1.8-1.4c0.7-0.6,0.8-0.9,0.8-0.9c0,0,1.5,0.4,2.4-0.2
						c0.9-0.6,1-1.1,1-1.1c0,0-0.6-0.6-1.6-0.3c-1.1,0.3-1.6,1-1.6,1c0,0,1-1.4,1.2-2c0.2-0.6,1.4-1.4,0.9-3.2C62.1,36,62,36,62,36
						c0,0-0.7,0.9-0.6,2.3c0.1,1.4,0.2,2.6,0.2,2.6c-0.4,0.7-0.7,1.4-1.2,2.1c0,0,0.4-0.9,0-2.5c-0.5-1.6-0.8-1.9-0.8-1.9
						c0,0-0.4,1.2-0.2,2.4c0.2,1.2,0.7,2.6,0.7,2.6c-0.3,0.4-0.7,0.8-1.1,1.1c0,0,0-0.6-0.1-1.3c-0.1-0.7-0.3-1.5-0.6-1.8
						c-0.5-0.6-0.5-0.6-0.5-0.6c0,0-0.2,1,0.1,2.1c0.3,1.2,1,1.7,1,1.7c-0.8,0.7-1.7,1.3-2.7,1.9C56.3,46.7,56.3,46.8,56.2,46.8z"/>
				</g>
				<g>
					<path class="st76" d="M56.2,46.8c0,0,0.7-0.4,1.4-0.8c0.7-0.5,1.5-1.1,1.8-1.4c0.7-0.6,0.8-0.9,0.8-0.9c0,0,1.5,0.4,2.4-0.2
						c0.9-0.6,1-1.1,1-1.1c0,0-0.6-0.6-1.6-0.3c-1.1,0.3-1.6,1-1.6,1c0,0,1-1.4,1.2-2c0.2-0.6,1.4-1.4,0.9-3.2C62.1,36,62,36,62,36
						c0,0-0.7,0.9-0.6,2.3c0.1,1.4,0.2,2.6,0.2,2.6c-0.4,0.7-0.7,1.4-1.2,2.1c0,0,0.4-0.9,0-2.5c-0.5-1.6-0.8-1.9-0.8-1.9
						c0,0-0.4,1.2-0.2,2.4c0.2,1.2,0.7,2.6,0.7,2.6c-0.3,0.4-0.7,0.8-1.1,1.1c0,0,0-0.6-0.1-1.3c-0.1-0.7-0.3-1.5-0.6-1.8
						c-0.5-0.6-0.5-0.6-0.5-0.6c0,0-0.2,1,0.1,2.1c0.3,1.2,1,1.7,1,1.7c-0.8,0.7-1.7,1.3-2.7,1.9C56.3,46.7,56.3,46.8,56.2,46.8z"/>
				</g>
			</g>
		</g>
	</g>
	<g>
		<g>
			<g>
				<path class="st77" d="M29.4,18.7c0,0-2.3,1.1-2.7,3.3c-0.5,2.2,2.7,3.3,2.7,3.3s-1.7-0.7-1.8-2.4c0-1.6,1.9-4,1.9-4L29.4,18.7z"
					/>
			</g>
			<g>
				<path class="st77" d="M33.6,25.3L33.6,25.3C33.6,25.4,33.6,25.4,33.6,25.3C33.6,25.4,33.6,25.3,33.6,25.3z M33.6,25.3L33.6,25.3
					C33.6,25.4,33.6,25.4,33.6,25.3C33.6,25.4,33.6,25.3,33.6,25.3z M33.6,25.3L33.6,25.3C33.6,25.4,33.6,25.4,33.6,25.3
					C33.6,25.4,33.6,25.3,33.6,25.3z M33.6,25.3L33.6,25.3C33.6,25.4,33.6,25.4,33.6,25.3C33.6,25.4,33.6,25.3,33.6,25.3z
					 M56.2,26.5c-1.2-1.8-2.6-2.9-4-3.7c-0.2-0.1-0.4-0.2-0.5-0.3c-0.9-0.4-1.9-0.6-2.9-0.7l0,0l0,0c-1.4-0.2-2.9-0.1-4.5,0.1
					c-0.6,0.1-1.1,0.1-1.5,0c-2.9-0.3-2.7-2.5-2.9-4.8c0-0.2,0-0.4-0.1-0.6c-0.1-0.5-0.2-1-0.4-1.6c-0.4-1.3-1-2.6-1.5-3.4
					c0,0,0,0,0,0c-0.3-0.6-0.6-1-0.6-1c0,0,0,0,0,0l-9.3,1.8c0,0,0,0,0,0c-0.1,0.1-0.1,0.2-0.2,0.4c-0.1,0.6-0.3,2.2,0.8,6.1l0,0
					c0,0.1,0.1,0.2,0.1,0.3c0-0.1,0-0.2,0.1-0.2c0,0,0-0.1,0-0.1c0.1-0.3,0.2-0.6,0.3-0.9c0,0,0-0.1,0-0.1c0,0,0-0.1,0-0.1
					c0.1-0.1,0.1-0.3,0.2-0.4c0,0,0-0.1,0-0.1c0,0,0-0.1,0-0.1c0-0.1,0.1-0.2,0.1-0.3c0,0,0,0,0-0.1c0,0,0-0.1,0.1-0.1
					c0,0,0,0,0-0.1c0,0,0,0,0-0.1c0,0,0,0,0,0c0,0,0,0,0-0.1c0,0,0,0,0-0.1c0,0,0-0.1,0.1-0.1l0,0c0,0,0,0,0,0l0,0c0,0,0,0,0,0
					c0,0,0,0,0,0c0,0,0,0,0,0c0,0,0,0,0,0c0,0,0,0,0,0c0,0,0,0,0,0c0,0,0,0,0,0c0,0,0,0,0,0c0,0,0,0,0,0c0,0,0,0,0,0c0,0,0,0,0,0
					c0,0,0,0,0,0c0,0,0,0,0,0.1c0,0,0,0,0,0c0,0,0,0,0,0c0,0,0,0,0,0c0,0,0,0.1,0,0.1c0,0,0,0,0,0.1c0,0,0,0,0,0c0,0,0,0,0,0.1
					c0,0,0,0.1,0,0.1c0,0.1-0.1,0.2-0.1,0.3c0,0.1-0.1,0.2-0.1,0.3l0,0c0,0,0,0,0,0c0,0,0,0,0,0.1c0,0,0,0,0,0l0,0
					c0,0.1-0.1,0.2-0.1,0.3c0,0.1-0.1,0.2-0.1,0.3c0,0,0,0.1,0,0.1c0,0,0,0.1,0,0.1c0,0,0,0,0,0c0,0.1,0,0.1,0,0.2
					c0,0.1,0,0.2-0.1,0.3c0,0,0,0.1,0,0.1c0,0.1,0,0.2-0.1,0.3c0,0,0,0.1,0,0.1c0,0,0,0.1,0,0.1c0,0,0,0,0,0c0,0.1,0,0.1,0,0.2
					c0,0.1,0,0.2,0,0.2c0,0.1,0,0.1,0,0.2c-0.1-0.2-0.1-0.3-0.1-0.5l0,0c0,0,0-0.1,0-0.1c0,0,0,0,0,0c-0.5,1.9-0.8,4.2,0.4,5.7
					c0.4,0.5,0.7,0.8,1.1,1c0.1,0,0.1,0.1,0.2,0.1c0,0,0.1,0,0.1,0.1c0,0,0,0,0,0.1c0,0,0,0.1-0.1,0.1c-0.4,0.8-0.9,2.1-1.1,3.8
					c0,0,0,0,0,0c0,0,0,0.1,0,0.1c-0.1,0.9-0.1,1.8,0.1,2.8c0,0,0,0.1-0.1,0.1c-0.1,0.1-0.1,0.3-0.2,0.4c-0.9,2.4-1.5,5.9,1,8.2
					c2.2,2,4.1,1.8,5.5,1.1c0.4,0.3,0.8,0.5,1.2,0.7c0.2,0.1,0.5,0.2,0.7,0.4c0.4,0.2,0.8,0.3,1.2,0.5c0.2,0.1,0.3,0.1,0.5,0.2
					c0.4,0.2,0.9,0.3,1.3,0.5c0.5,0.2,1.1,0.3,1.6,0.4c0.5,0.1,0.9,0.2,1.4,0.2c0.4,0.1,0.8,0.1,1.2,0.1c0.3,0,0.6,0,0.9,0
					c0.9,0,1.7-0.2,2.4-0.4c0.4-0.1,0.8-0.3,1.1-0.4c1-0.5,1.7-1.1,2.3-1.9c0.1-0.1,0.1-0.2,0.2-0.3c0.2-0.4,0.4-0.9,0.6-1.4
					c0.1-0.5,0.2-0.9,0.2-1.4c0-0.1,0-0.1,0-0.2c0.2-2.9-1.3-5.7-1.4-5.9c0,0.1,0.2,0.4,1.5,2.5c0.8,1.4,1.1,3.2,1.1,4.6
					c0,0.1,0,0.2,0,0.3c0,0.1,0,0.2,0,0.2c0,0.9,0,1.6,0,1.6c0,0,0.2-0.4,0.4-1.1c0-0.1,0-0.1,0.1-0.2c0.7-2.1,1.7-6.3,0.3-9.6
					c-1.9-4.6-5.3-6.3-5.4-6.3c0,0,2.8,0.6,5.3,3.6c2.5,3.1,2.9,7,2.9,7.1c0,0,0.7-2,0.5-4.5C58,30.3,57.5,28.3,56.2,26.5z
					 M37.9,41.2C37.9,41.2,37.9,41.2,37.9,41.2C37.9,41.2,37.8,41.2,37.9,41.2C37.8,41.1,37.8,41.1,37.9,41.2
					C37.9,41.1,37.9,41.1,37.9,41.2C37.9,41.1,37.9,41.1,37.9,41.2c0-0.1,0-0.1,0-0.1c0,0,0,0,0,0c0,0,0.1,0,0.1,0
					S38,41.1,37.9,41.2C37.9,41.2,37.9,41.2,37.9,41.2z M31.1,26.1c0.9,0.2,1.8-0.2,2.3-0.5c0.1,0,0.1-0.1,0.2-0.1c0,0,0,0,0,0
					c0,0-0.1,0-0.1-0.1c0,0,0,0,0,0c-0.1-0.1-0.2-0.1-0.2-0.2c0,0,0,0,0,0c0,0-0.1,0-0.1-0.1c0,0,0,0,0,0c0,0,0,0,0,0
					c0.2,0,0.4,0,0.6,0.1c0,0,0,0,0.1,0l0,0c0,0,0,0,0,0c0,0,0,0,0.1,0c0,0,0,0,0,0c0,0,0,0,0,0c0,0,0,0,0.1,0c0,0,0,0,0,0
					c0,0,0.1,0,0.1,0c0,0,0,0,0,0c0,0,0,0,0,0c0,0,0,0,0,0c0,0-0.1,0.1-0.4,0.3c1,0.6,1.7,0.9,1.7,0.9l-0.3,0.3l-0.6,0.5
					c0,0,0,0,0,0l-0.1,0.1L32.5,29l-0.9,0.9C31.2,28.5,31,27.2,31.1,26.1z M30.3,38.6c-1-2.2-1-3.9-0.7-5.2l0,0
					c0-0.1,0.1-0.2,0.1-0.3c0,0.1,0,0.2,0,0.3c0.2,1,0.5,2.1,1,3.3c1,2.3,2.4,3.9,3.9,5.1C33.1,41.6,31.4,40.9,30.3,38.6z
					 M33.6,25.3L33.6,25.3C33.6,25.4,33.6,25.4,33.6,25.3C33.6,25.4,33.6,25.3,33.6,25.3z M33.6,25.3L33.6,25.3
					C33.6,25.4,33.6,25.4,33.6,25.3C33.6,25.4,33.6,25.3,33.6,25.3z M33.6,25.3L33.6,25.3C33.6,25.4,33.6,25.4,33.6,25.3
					C33.6,25.4,33.6,25.3,33.6,25.3z"/>
			</g>
			<g>
				<path class="st77" d="M30,24.6c0,0-0.2,0.1-0.5,0.2c-0.1-0.2-0.3-0.4-0.4-0.6C29.6,24.4,30,24.6,30,24.6z"/>
			</g>
			<g>
				<path class="st77" d="M30,24.6c0,0-0.2,0.1-0.5,0.2c-0.1-0.2-0.3-0.4-0.4-0.6C29.6,24.4,30,24.6,30,24.6z"/>
			</g>
			<g>
				<path class="st78" d="M37.4,25.7C37.4,25.7,37.4,25.7,37.4,25.7c-0.2,2.1-0.8,5.2-2.7,5.9c-2.9,1.1-6.8-0.4-7.3-2.2
					c-0.6-1.8,0.2-3.5,0.2-3.5s0.3-0.1,0.6-0.2c0.5-0.2,1.8-1.8,2.2-2.1c0.3-0.2,0.4-0.6,0.5-1C31,22,31,21.3,31,21.3l4,0.1
					c0,0-0.2,0.8-0.1,1.4c0,0.2,0.4,0.8,0.6,0.9C35.8,23.9,36.6,24.8,37.4,25.7z"/>
			</g>
			<g>
				<g>
					<path class="st79" d="M31.9,25.3c-0.6,0-1.7-0.2-1.9-0.2c0,0-0.1,0-0.1-0.1c0,0,0-0.1,0.1-0.1c1,0.2,2,0.3,2.2,0.2
						c0.2-0.2,0.3-0.4,0.3-0.4c0,0,0-0.1,0.1-0.1c0,0,0.1,0,0.1,0.1c0,0-0.1,0.3-0.3,0.5C32.2,25.3,32,25.3,31.9,25.3z"/>
				</g>
				<g>
					<path class="st79" d="M34.3,25.4C34.3,25.4,34.3,25.4,34.3,25.4c-0.4,0-0.5-0.5-0.5-0.5c0,0,0-0.1,0-0.1c0,0,0.1,0,0.1,0
						c0,0,0.1,0.4,0.3,0.4c0.2,0,1.1-0.2,1.4-0.3c0,0,0.1,0,0.1,0c0,0,0,0.1,0,0.1C35.7,25.1,34.7,25.4,34.3,25.4z"/>
				</g>
			</g>
			<g>
				<path class="st79" d="M34.9,22.8c-0.8,0.7-1.6,1.3-2.1,1.3c-0.5-0.1-1.2-0.7-1.9-1.4C31,22,31,21.3,31,21.3l4,0.1
					C35,21.4,34.8,22.2,34.9,22.8z"/>
			</g>
			<g>
				<path class="st77" d="M28.3,17.4c0,0-1.2-3.5,0.3-6.3c1.5-2.9,4-1.9,4-1.9s2.2-0.9,4,0.4s2.1,3.3,1.8,4.8
					c-0.3,1.6-0.8,2.4-0.8,2.4L28.3,17.4z"/>
			</g>
			<g>
				<ellipse transform="matrix(0.9326 -0.3608 0.3608 0.9326 -4.4215 11.403)" class="st78" cx="28.3" cy="17.5" rx="1" ry="1.4"/>
			</g>
			<g>
				
					<ellipse transform="matrix(0.9326 -0.3608 0.3608 0.9326 -4.4139 11.4569)" class="st79" cx="28.5" cy="17.6" rx="0.6" ry="0.8"/>
			</g>
			<g>
				<ellipse transform="matrix(0.9326 -0.3608 0.3608 0.9326 -3.9893 14.4619)" class="st12" cx="36.7" cy="17.9" rx="1" ry="1.4"/>
				<path d="M37,19.3c-0.1,0-0.2,0-0.4-0.1c-0.3-0.1-0.7-0.5-0.8-0.9c-0.3-0.7-0.1-1.5,0.4-1.7c0.2-0.1,0.4-0.1,0.7,0
					c0.3,0.1,0.7,0.5,0.8,0.9l0,0c0.3,0.7,0.1,1.5-0.4,1.7C37.2,19.3,37.1,19.3,37,19.3z M36.5,16.6c-0.1,0-0.2,0-0.3,0.1
					c-0.5,0.2-0.7,1-0.4,1.7c0.2,0.4,0.5,0.7,0.8,0.9c0.2,0.1,0.4,0.1,0.6,0c0.5-0.2,0.7-1,0.4-1.7l0,0c-0.2-0.4-0.5-0.7-0.8-0.9
					C36.8,16.6,36.6,16.6,36.5,16.6z"/>
			</g>
			<g>
				
					<ellipse transform="matrix(0.9326 -0.3608 0.3608 0.9326 -3.9817 14.5158)" class="st12" cx="36.9" cy="17.9" rx="0.6" ry="0.8"/>
				<path d="M37,18.7c-0.1,0-0.1,0-0.2,0c-0.2-0.1-0.4-0.3-0.5-0.5c-0.2-0.4,0-0.8,0.2-0.9c0.1,0,0.2,0,0.4,0
					c0.2,0.1,0.4,0.3,0.5,0.5l0,0c0.2,0.4,0,0.8-0.2,0.9C37.1,18.7,37.1,18.7,37,18.7z M36.8,17.2c-0.1,0-0.1,0-0.2,0
					c-0.3,0.1-0.4,0.5-0.2,0.9c0.1,0.2,0.3,0.4,0.4,0.5c0.1,0,0.2,0.1,0.3,0c0.3-0.1,0.4-0.5,0.2-0.9l0,0c-0.1-0.2-0.3-0.4-0.4-0.5
					C36.9,17.2,36.8,17.2,36.8,17.2z"/>
			</g>
			<g>
				<ellipse transform="matrix(0.4571 -0.8894 0.8894 0.4571 4.6321 43.5289)" class="st78" cx="38" cy="18" rx="1.4" ry="1"/>
			</g>
			<g>
				<ellipse transform="matrix(0.4571 -0.8894 0.8894 0.4571 4.5575 43.3936)" class="st79" cx="37.8" cy="18" rx="0.8" ry="0.6"/>
			</g>
			<g>
				<path class="st78" d="M35.6,14.7c-2.7-0.4-3.7-1.9-3.7-1.9s-0.1,0.9-1.2,1.8c-1,0.8-2.1,1.1-2.2,1.1c0,0.6,0.3,3.8,0.9,4.9
					c0.7,1.2,2.4,2.1,3.5,2.2c0,0,0,0,0,0c0,0,0,0,0,0c1,0,2.9-0.8,3.7-1.9c0.6-0.9,1.1-3.4,1.3-4.4c0.1-0.4,0.1-0.9,0-1.3
					c0-0.1,0-0.2-0.1-0.3C37.4,14.9,36.7,14.8,35.6,14.7z"/>
			</g>
			<g>
				<path class="st77" d="M31.5,16.6c0,0.3-0.2,0.6-0.5,0.6c-0.2,0-0.4-0.3-0.4-0.6c0-0.3,0.2-0.6,0.5-0.6
					C31.3,16,31.5,16.3,31.5,16.6z"/>
			</g>
			<g>
				<path class="st77" d="M35.8,16.8c0,0.3-0.2,0.6-0.5,0.6s-0.4-0.3-0.4-0.6s0.2-0.6,0.5-0.6C35.6,16.2,35.8,16.5,35.8,16.8z"/>
			</g>
			<g>
				<g>
					<path class="st77" d="M30.3,15.9C30.3,15.9,30.3,15.9,30.3,15.9c-0.1,0-0.1-0.1-0.1-0.1c0.1-0.2,0.2-0.3,0.4-0.4
						c0.2-0.1,0.4-0.1,0.6-0.1c0.1,0,0.1,0.1,0.1,0.1c0,0.1-0.1,0.1-0.1,0.1c-0.1,0-0.3,0-0.4,0.1C30.6,15.7,30.5,15.8,30.3,15.9
						C30.4,15.9,30.4,15.9,30.3,15.9z"/>
				</g>
				<g>
					<path class="st77" d="M36,16.2C35.9,16.2,35.9,16.2,36,16.2c-0.2-0.2-0.3-0.3-0.4-0.4c-0.1-0.1-0.3-0.1-0.4-0.1
						c-0.1,0-0.1,0-0.1-0.1c0-0.1,0-0.1,0.1-0.1c0.2,0,0.4,0,0.5,0.1c0.2,0.1,0.3,0.2,0.4,0.4C36.1,16.1,36.1,16.2,36,16.2
						C36,16.2,36,16.2,36,16.2z"/>
				</g>
			</g>
			<g>
				<path class="st80" d="M34.4,20.1c-0.1,0.3-0.2,0.5-0.4,0.7c-0.3,0.2-0.6,0.4-1,0.4c-0.4,0-0.7-0.2-0.9-0.4
					c-0.2-0.2-0.4-0.5-0.4-0.8c0-0.1,0-0.1,0.1-0.2c0,0,0.1-0.1,0.2-0.1l2.4,0.1c0.1,0,0.1,0,0.2,0.1C34.4,19.9,34.4,20,34.4,20.1z"
					/>
			</g>
			<g>
				<path class="st12" d="M34.4,19.9C34,20,33.5,20.1,33,20.1c-0.5,0-1-0.1-1.3-0.3c0,0,0.1-0.1,0.2-0.1l2.4,0.1
					C34.3,19.8,34.3,19.8,34.4,19.9z"/>
			</g>
			<g>
				<path class="st79" d="M33.2,21.7c0,0.1-0.2,0.1-0.3,0.1c-0.2,0-0.3-0.1-0.3-0.1c0-0.1,0.2-0.1,0.3-0.1
					C33.1,21.6,33.2,21.6,33.2,21.7z"/>
			</g>
			<g class="st81">
				<g>
					
						<ellipse transform="matrix(3.765167e-02 -0.9993 0.9993 3.765167e-02 11.0275 47.9356)" class="st79" cx="30.4" cy="18.2" rx="0.8" ry="1"/>
				</g>
				<g>
					
						<ellipse transform="matrix(3.764996e-02 -0.9993 0.9993 3.764996e-02 15.8255 53.38)" class="st79" cx="35.6" cy="18.5" rx="0.8" ry="1"/>
				</g>
			</g>
			<g>
				<path class="st79" d="M34,20.8c-0.3,0.2-0.6,0.4-1,0.4c-0.4,0-0.7-0.2-0.9-0.4c0.3-0.2,0.6-0.3,1-0.3
					C33.4,20.5,33.7,20.6,34,20.8z"/>
			</g>
			<g>
				<path class="st79" d="M32.9,18.8C32.8,18.8,32.8,18.7,32.9,18.8c-0.1-0.1-0.1-0.2,0-0.2c0.2-0.1,0.3-0.1,0.4-0.3c0,0,0,0,0-0.1
					c0,0,0-0.1-0.1-0.1c-0.1-0.1-0.2-0.3-0.3-0.5c-0.1-0.2,0-0.4,0.1-0.6c0,0,0.1-0.1,0.1,0c0,0,0.1,0.1,0,0.1
					c-0.1,0.1-0.1,0.3,0,0.4c0,0.1,0.1,0.3,0.2,0.4c0,0.1,0.1,0.2,0.1,0.3c0,0.1-0.1,0.1-0.1,0.1C33.3,18.6,33.1,18.7,32.9,18.8
					C32.9,18.8,32.9,18.8,32.9,18.8z"/>
			</g>
			<g>
				<path class="st12" d="M31.4,16.4c0,0.1-0.1,0.3-0.2,0.2c-0.1,0-0.2-0.1-0.2-0.3c0-0.1,0.1-0.3,0.2-0.2
					C31.3,16.1,31.4,16.2,31.4,16.4z"/>
			</g>
			<g>
				<path class="st12" d="M35.7,16.6c0,0.1-0.1,0.3-0.2,0.2c-0.1,0-0.2-0.1-0.2-0.3c0-0.1,0.1-0.3,0.2-0.2
					C35.7,16.3,35.8,16.4,35.7,16.6z"/>
			</g>
			<g>
				<path class="st77" d="M28.7,15.6c0,0,0.2,3.6,0.5,5.1c0.3,1.4,0.7,2.1,0.5,2.1c-0.1,0-1.1-2.8-1.4-5.1
					C28,15.4,28.4,15.1,28.7,15.6z"/>
			</g>
			<g>
				<path class="st77" d="M37.4,14.5c0,0,0.1,3.4-0.2,5.5c-0.4,2.1-0.8,2.7-0.5,2.6c0.3-0.1,1.6-6.4,1.5-7.5
					C38,14,37.5,13.9,37.4,14.5z"/>
			</g>
			<g>
				<path class="st77" d="M36.9,13.2c0,0,0.7,1,0.2,2.8c-0.6,1.8-2.1,2.9-1.4,4c0.7,1.1,1.8-0.6,1.8-0.6s-0.9,1-1.5,0.3
					c-0.6-0.7,1-1.5,1.4-2.8C37.9,15.6,37.9,13.7,36.9,13.2z"/>
			</g>
			<g>
				<path class="st77" d="M32.5,9.6c0,0-0.8-0.5-0.6-1.4c0.2-0.9,0.9-1,0.9-1s-0.5,0.8-0.5,1.3C32.3,9,32.5,9.6,32.5,9.6z"/>
			</g>
			<g>
				<path class="st77" d="M31.7,11.8c0,0,0.5,2.7-1,3.1c-1.5,0.4-2.9,0.2-2.9,0.2s2.5,0.9,3.7-0.3S31.7,11.7,31.7,11.8L31.7,11.8z"
					/>
			</g>
		</g>
		<g>
			<g>
				<path class="st82" d="M61.1,52.1c-0.5,0.6-0.9,1.2-1.4,1.8c-0.2,0.3-0.5,0.6-0.7,0.8c-1.1,1.2-2.4,2.4-3.7,3.5
					c-0.2,0.1-0.3,0.3-0.5,0.4c-1.3,1-2.7,2-4.2,2.8c-2.1,1.2-4.3,2.1-6.7,2.9c-0.7,0.2-1.4,0.4-2.1,0.6c-0.1,0-0.3,0.1-0.4,0.1
					c-2,0.5-4.1,0.7-6.3,0.8c-0.4,0-0.9,0-1.3,0c-0.6,0-1.2,0-1.8,0c-0.7-4.2-0.5-8.3-0.4-9.9c0-0.5,0.1-0.7,0.1-0.7l-0.4-5.9l0-0.4
					l0-0.1l-0.1-0.9L31,46.5l-0.1-0.8l-0.1-1l-0.1-0.9l0-0.3l-0.3-4.4l0-0.3l-0.1-1l-0.2-2.8l0-0.1l-0.2-3.5l-0.3-4.8l0-0.2l0-0.5
					l-0.1-1.2l0-0.1l0,0l0-0.2h0l0.2,0l0.1,0l0.1,0c0,0,0,0,0,0l2.7,0.3l1.5,0.2l0.9,0.1c0,0,0,0,0,0l0.5,0.1h0l1.8,0.2l0.3,0l0.4,0
					l4.4,0.5l2.9,0.4h0v0c0,0,0,0.8,0.3,2.3c0,0.1,0.1,0.3,0.1,0.4c0.6,2.2,1.9,5.6,4.8,10c0.1,0.2,0.3,0.4,0.5,0.7
					C54.2,44.5,58.2,49.1,61.1,52.1z"/>
			</g>
			<g>
				<path class="st83" d="M31.9,65.7c-0.1,0-0.1,0-0.2,0c-0.1,0-0.2,0-0.4,0c-0.1,0-0.1,0-0.2,0c-0.4,0-0.7-0.1-1.1-0.1
					c-0.4,0-0.7-0.1-1.1-0.1c-0.5-0.1-0.9-0.1-1.4-0.2c-0.4-0.1-0.8-0.1-1.2-0.2c-0.1,0-0.1,0-0.2,0c-0.1,0-0.2,0-0.3-0.1
					c-1.1-0.3-2.2-0.6-3.2-0.9c-0.6-0.2-1.3-0.4-1.9-0.7c-0.1,0-0.1-0.1-0.2-0.1s-0.1-0.1-0.2-0.1c-2.5-1.1-4.9-2.4-7-4
					c-0.5-0.4-1-0.8-1.5-1.2c-0.8-4.3-1-10.3,1.2-16.9c1-2.9,2.2-5.3,3.5-7.4c0.6-1,1.3-1.9,1.9-2.7c0.1-0.1,0.1-0.1,0.2-0.2
					c0,0,0.1-0.1,0.1-0.1c0.1-0.1,0.1-0.1,0.2-0.2c0.1-0.1,0.1-0.1,0.2-0.2c0,0,0,0,0,0c0.1-0.1,0.2-0.2,0.3-0.3
					c0.1-0.1,0.1-0.1,0.2-0.2c0,0,0,0,0.1-0.1c0.4-0.5,0.9-0.9,1.3-1.3c0.1-0.1,0.1-0.1,0.2-0.2c0,0,0.1-0.1,0.1-0.1
					c0.1-0.1,0.1-0.1,0.2-0.2c0.1-0.1,0.2-0.2,0.3-0.2c0.1-0.1,0.1-0.1,0.2-0.2c0.1-0.1,0.2-0.2,0.3-0.2c0.2-0.2,0.4-0.3,0.6-0.5
					c0.2-0.2,0.4-0.4,0.7-0.5c0.1,0,0.1-0.1,0.2-0.1c0.1,0,0.1-0.1,0.2-0.1c0.1,0,0.1-0.1,0.2-0.1c0.2-0.1,0.4-0.3,0.6-0.4
					c0,0,0.1-0.1,0.1-0.1c0,0,0.1-0.1,0.1-0.1c0,0,0.1-0.1,0.1-0.1c0,0,0.1-0.1,0.1-0.1c0,0,0.1-0.1,0.1-0.1c0,0,0,0,0,0
					c0,0,0.1-0.1,0.1-0.1c0.1,0,0.1-0.1,0.2-0.1c0,0,0.1,0,0.1-0.1c0.4-0.3,0.8-0.4,1-0.5c0,0,0,0,0,0c0.1,0,0.1-0.1,0.2-0.1
					c0.1,0,0.1-0.1,0.1-0.1l0.4,0l0,0l2.1,0.3l0.2,0l0,0.2l0,0l0,0.1l0.1,1.2l0,0.5l0,0.2l0.3,4.8l0.2,3.5l0,0.1l0.2,2.8l0.1,1
					l0,0.3l0.3,4.4l0,0.3l0.1,0.9l0.1,1l0.1,0.8l0.1,1.4l0.1,0.9l0,0.1l0,0.4l0.4,5.9c0,0,0,0.3-0.1,0.7
					C31.4,57.5,31.2,61.5,31.9,65.7z"/>
			</g>
			<g>
				<g>
					<path class="st83" d="M59.7,53.9c-0.2,0.3-0.5,0.6-0.7,0.8C57,53,55.4,51.3,55,50.2C54.7,49.2,56.9,51.1,59.7,53.9z"/>
				</g>
				<g>
					<path class="st83" d="M55.3,58.2c-0.2,0.1-0.3,0.3-0.5,0.4c-1.8-1.9-4-4.5-5.7-7.5c-3.9-6.8-2.7-8-1.7-6.2
						c1,1.8,3.4,7.6,7,12.2C54.6,57.4,55,57.8,55.3,58.2z"/>
				</g>
			</g>
			<g>
				<path class="st82" d="M31.9,65.7L31.9,65.7c-0.1,0-0.1,0-0.2,0c-0.1,0-0.2,0-0.4,0c-0.1,0-0.1,0-0.2,0c-0.4,0-0.7-0.1-1.1-0.1
					c-0.4,0-0.7-0.1-1.1-0.1c-0.5-0.1-0.9-0.1-1.4-0.2c-0.4-0.1-0.8-0.1-1.2-0.2c-0.1,0-0.1,0-0.2,0c-0.1,0-0.2,0-0.3-0.1
					c-3-8.6-0.7-21.8-0.7-21.8s3.2-10.3,1.5-11.2c-1.3-0.7-3.4,5.8-4.2,8.8c-0.2,0.6-0.4,1.1-0.6,1.6c-0.3,0.7-0.8,2.8-1.4,8.2
					c-0.4,3.9-0.1,9,0.2,12.7c-0.1,0-0.1-0.1-0.2-0.1s-0.1-0.1-0.2-0.1c-0.2-1.5-0.4-3.4-0.5-5.6c-0.4-7.6,1.2-16.8,1.2-16.8l2.8-10
					L20.8,32c0-0.1-1.2,0.4-2.9,1.2c-0.4,0.2-0.8,0.4-1.3,0.6c0.6-1,1.3-1.9,1.9-2.7c0.1-0.1,0.1-0.1,0.2-0.2c0,0,0.1-0.1,0.1-0.1
					c0.1-0.1,0.1-0.1,0.2-0.2c0.1-0.1,0.1-0.1,0.2-0.2c0,0,0,0,0,0c0.1-0.1,0.2-0.2,0.3-0.3c0.1-0.1,0.1-0.1,0.2-0.2
					c0,0,0,0,0.1-0.1c0.4-0.5,0.9-0.9,1.3-1.3c0.1-0.1,0.1-0.1,0.2-0.2c0,0,0.1-0.1,0.1-0.1c0.1-0.1,0.1-0.1,0.2-0.2
					c0.1-0.1,0.2-0.2,0.3-0.2c0.1-0.1,0.1-0.1,0.2-0.2c0.1-0.1,0.2-0.2,0.3-0.2c0.2-0.2,0.4-0.3,0.6-0.5c0.2-0.2,0.4-0.4,0.7-0.5
					c0.1,0,0.1-0.1,0.2-0.1c0.1,0,0.1-0.1,0.2-0.1c0.1,0,0.1-0.1,0.2-0.1c0.2-0.1,0.4-0.3,0.6-0.4c0,0,0.1-0.1,0.1-0.1
					c0,0,0.1-0.1,0.1-0.1c0,0,0.1-0.1,0.1-0.1c0,0,0.1-0.1,0.1-0.1c0,0,0.1-0.1,0.1-0.1c0,0,0,0,0,0c0,0,0.1-0.1,0.1-0.1
					c0.1,0,0.1-0.1,0.2-0.1c0,0,0.1,0,0.1-0.1c0.4-0.3,0.8-0.4,1-0.5c0,0,0,0,0,0c0.1,0,0.1-0.1,0.2-0.1c0.1,0,0.1-0.1,0.1-0.1
					l0.4,0l0,0l2.1,0.3l0.2,0l0,0.2l0,0l0,0.1l0.1,1.2l0,0.5l0,0.2l0.3,4.8l0.2,3.5l0,0.1l0.2,2.8l0.1,1l0,0.3l0.3,4.4l0,0.3
					l0.1,0.9l0.1,1l0.1,0.8l0.1,1.4l0.1,0.9l0,0.1l0,0.4l0.4,5.9c0,0,0,0.3-0.1,0.7C31.4,57.5,31.2,61.5,31.9,65.7z"/>
			</g>
			<g>
				<path class="st84" d="M27.3,24.1c0,0-0.1,0-0.1,0c0,0,0,0,0,0c-0.1,0.1-0.4,0.2-0.7,0.3c-1.3,0.7-3.8,2.2-6.3,5.3
					c-0.1,0.1-0.2,0.2-0.3,0.3c-0.7,0.9-1.4,1.9-2,3c-0.8,1.4-1.6,3-2.2,4.9c-2.5,6.9-2.5,15.5-2.2,21.1c-0.5-0.4-1-0.8-1.5-1.2
					c-2.1-1.7-4-3.7-5.6-5.9c0.5-3.2,1.6-7.1,3.6-11.5c2.3-4.9,5.4-8.5,8.5-11c0.1-0.1,0.2-0.1,0.2-0.2c2.4-2,4.7-3.3,6.3-4.1
					c0.6-0.3,1.2-0.6,1.6-0.7c0.3-0.1,0.5-0.2,0.6-0.2c0,0,0,0,0,0C27.3,24.1,27.3,24.1,27.3,24.1z"/>
			</g>
		</g>
		<g>
			<g>
				<path class="st85" d="M52.1,24.7C52.1,24.7,52.1,24.7,52.1,24.7c0,0.7-0.1,1.5-0.2,1.6c-0.1,0.1-0.6,0.3-0.8,0.4c0,0,0,0-0.1,0
					c0,0,0,0,0,0c0,0-0.1,0.1-0.2,0.1c0,0,0,0,0,0c-0.1,0.1-0.2,0.1-0.3,0.2c0,0,0,0-0.1,0c0,0,0,0,0,0c0,0-0.1,0-0.1,0.1
					c0,0-0.1,0-0.1,0.1c0,0,0,0,0,0c0,0-0.1,0.1-0.1,0.1c0,0,0,0-0.1,0c-0.1,0.1-0.2,0.1-0.3,0.2c0,0,0,0-0.1,0c0,0-0.1,0-0.1,0.1
					c-0.1,0.1-0.3,0.2-0.4,0.2c0,0,0,0-0.1,0c-0.1,0.1-0.2,0.1-0.3,0.2c0,0-0.1,0-0.1,0.1c-0.1,0-0.1,0-0.2,0.1c0,0-0.1,0-0.1,0.1
					c0,0-0.1,0-0.1,0c0,0,0,0-0.1,0c0,0,0,0-0.1,0c0,0,0,0-0.1,0c0,0-0.1,0-0.1,0c-0.1,0-0.1,0.1-0.2,0.1c0,0-0.1,0-0.1,0
					c0,0,0,0-0.1,0c0,0,0,0,0,0c0,0,0,0-0.1,0c0,0,0,0-0.1,0c0,0-0.1,0-0.1,0c-0.1,0-0.1,0-0.2,0c0,0,0,0,0,0
					c-0.2,0-0.4,0.1-0.5,0.1c0,0-0.1,0-0.1,0c-0.1,0-0.1,0-0.2,0c0,0,0,0,0,0c-0.1,0-0.2,0-0.2,0.1c0,0-0.1,0-0.1,0c0,0,0,0,0,0
					c0,0-0.1,0-0.1,0c0,0,0,0-0.1,0c0,0,0,0,0,0c0,0,0,0-0.1,0c0,0,0,0,0,0c0,0,0,0,0,0c-0.1,0-0.1,0-0.2,0.1c0,0,0,0,0,0
					c0,0,0,0,0,0c0,0,0,0,0,0c0,0,0,0,0,0c0,0,0,0,0,0c0,0,0,0,0,0c0,0-0.1,0-0.1,0c0,0,0,0,0,0c0,0,0,0,0,0
					c-0.1,0.1-0.3,0.2-0.4,0.2c0,0,0,0-0.1,0c0,0,0,0,0,0c0,0,0,0,0,0c0,0,0,0,0,0c0,0,0,0-0.1,0c0,0,0,0,0,0c0,0,0,0,0,0
					c0,0,0,0,0,0c-0.1,0.1-0.1,0.1-0.1,0.1c0,0,0,0,0,0c0,0,0,0,0,0c0,0,0,0,0,0v0c0,0,0,0,0,0c0,0,0,0.1,0.1,0.4c0,0,0,0.1,0,0.1
					c0.2,0.7,0.4,2.1,0,3.3c-0.1,0.3-0.2,0.5-0.3,0.7c-0.5,1.1-1.1,1.6-1.5,2.6c-0.2,0.6-0.5,1.4-0.7,2.3c-0.2,0.7-0.3,1.5-0.2,2.2
					c0.1,0.9,0.6,2.1,1.1,3.2c0,0,0,0.1,0,0.1c0,0,0,0.1,0,0.1c0,0,0,0.1,0,0.1c0,0.1,0,0.1,0.1,0.2c0,0,0,0.1,0,0.1
					c0,0,0,0.1,0,0.1c0,0,0,0,0,0.1c0,0.1,0.1,0.1,0.1,0.2c0,0,0,0.1,0,0.1c0,0,0,0.1,0,0.1c0,0.1,0,0.1,0.1,0.2c0,0,0,0,0,0.1
					c0,0,0,0.1,0,0.1c0,0,0,0.1,0,0.1c0,0,0,0,0,0.1c0,0,0,0,0,0c0,0,0,0.1,0,0.1c0,0,0,0,0,0.1c0,0,0,0.1,0,0.1
					c0,0.2,0.1,0.4,0.1,0.6c0.1,0.7,0.2,0.9,0.2,0.9s1.6,2.3,3.1,4.6c1.1,1.7,3,6.4,3.8,8.7c-2.1,1.2-4.3,2.1-6.7,2.9
					c-0.7,0.2-1.4,0.4-2.1,0.6c0,0,0,0,0,0c0,0-0.1-0.1-0.1-0.1c-0.1-0.1-0.2-0.2-0.3-0.3c0,0-0.1-0.1-0.1-0.1c0,0-0.1-0.1-0.1-0.1
					c0,0-0.1-0.1-0.1-0.1c-0.1,0-0.1-0.1-0.2-0.2c0,0-0.1-0.1-0.1-0.1c-0.1-0.1-0.2-0.2-0.3-0.3c0,0-0.1-0.1-0.1-0.1
					c0,0-0.1-0.1-0.1-0.1c0,0-0.1-0.1-0.1-0.1c0,0,0,0,0,0c0,0,0,0-0.1-0.1c0,0,0,0-0.1-0.1c0,0-0.1-0.1-0.1-0.1
					c0,0-0.1-0.1-0.1-0.1c0,0-0.1-0.1-0.1-0.1c-0.2-0.3-0.5-0.5-0.7-0.8c0,0,0-0.1-0.1-0.1c-0.1-0.1-0.1-0.1-0.2-0.2
					c0,0-0.1-0.1-0.1-0.1c-0.1-0.1-0.2-0.2-0.3-0.4c0,0-0.1-0.1-0.1-0.1c-0.2-0.2-0.4-0.5-0.5-0.7c0-0.1-0.1-0.1-0.1-0.2
					c-0.1-0.2-0.3-0.4-0.4-0.6c0-0.1-0.1-0.1-0.1-0.2c-0.1-0.1-0.2-0.3-0.3-0.4c0,0,0-0.1-0.1-0.1c0,0,0-0.1-0.1-0.1c0,0,0,0,0,0
					c0,0,0,0,0,0c0,0,0,0,0,0c-0.1-0.1-0.1-0.2-0.2-0.2c0,0-0.1-0.1-0.1-0.1c-0.2-0.2-0.3-0.5-0.4-0.6c0,0,0,0,0-0.1
					c0,0,0-0.1-0.1-0.1c0,0,0,0,0-0.1c0,0,0,0,0,0c0,0-0.1-0.1-0.1-0.1c0,0-0.1-0.1-0.1-0.1c0,0,0,0,0,0c0,0,0,0,0,0c0,0,0,0,0,0
					c0,0,0,0,0,0c0,0,0,0,0,0c0,0,0,0,0,0c0,0,0,0,0,0c0,0,0,0,0,0c0,0,0,0,0,0c0,0,0,0,0,0c0,0,0,0,0,0c0,0,0,0,0,0c0,0,0,0,0,0
					c-0.1-0.1-0.1-0.1-0.1,0c0,0,0,0,0,0.1C35,57.3,35,57.8,35,57.8v8c-0.4,0-0.9,0-1.3,0c-0.6,0-1.2,0-1.8,0
					c-1-0.1-1.9-0.1-2.9-0.3c-0.9-0.1-1.8-0.3-2.7-0.5c-0.5-1.5-1.6-5.6-1.7-11c0-2.5,0.2-4.5,0.5-6.1c0-0.2,0.1-0.5,0.1-0.7
					c0,0,0-0.1,0-0.1c0,0,0-0.1,0-0.1c0,0,0,0,0,0c0,0,0-0.1,0-0.1c0-0.1,0-0.2,0.1-0.2c0-0.1,0-0.1,0-0.2c0-0.1,0-0.2,0.1-0.2
					c0-0.1,0-0.1,0.1-0.2c0-0.1,0-0.1,0.1-0.2c0-0.1,0-0.1,0.1-0.2c0-0.1,0-0.1,0.1-0.2c0,0,0-0.1,0-0.1c0-0.1,0.1-0.3,0.1-0.4h0
					c0,0,0,0,0-0.1c0,0,0-0.1,0-0.1c0.1-0.2,0.1-0.3,0.2-0.5c0,0,0,0,0-0.1c0-0.1,0-0.1,0.1-0.2c0,0,0-0.1,0-0.1c0,0,0,0,0-0.1
					c0,0,0,0,0,0c0,0,0-0.1,0.1-0.1c0,0,0,0,0-0.1c0,0,0,0,0-0.1c0-0.1,0-0.1,0.1-0.2c0-0.1,0.1-0.2,0.1-0.3c0,0,0-0.1,0-0.1
					c0,0,0,0,0,0c0.1-0.2,0.2-0.4,0.3-0.6c0.1-0.2,0.2-0.4,0.2-0.5c0,0,0,0,0,0c0-0.1,0.1-0.2,0.1-0.3c0.1-0.1,0.1-0.3,0.2-0.4
					c0-0.1,0.1-0.2,0.1-0.3c0,0,0-0.1,0-0.1c0-0.1,0-0.1,0.1-0.2c0,0,0-0.1,0-0.1c0-0.1,0.1-0.2,0.1-0.3c0-0.1,0-0.1,0.1-0.2
					c0,0,0-0.1,0-0.1c0-0.1,0.1-0.2,0.1-0.2c0,0,0-0.1,0-0.1c0,0,0,0,0,0c0,0,0-0.1,0-0.1c0,0,0-0.1,0-0.1c0,0,0,0,0,0
					c0-0.1,0.1-0.2,0.1-0.3c0,0,0-0.1,0-0.1c0,0,0,0,0,0c0,0,0-0.1,0-0.1c0-0.1,0-0.1,0-0.2c0,0,0-0.1,0-0.1c0,0,0-0.1,0-0.1
					c0-0.1,0-0.2,0-0.3c0,0,0-0.1,0-0.1c0,0,0-0.1,0-0.1c0,0,0-0.1,0-0.1c0,0,0-0.1,0-0.1c0,0,0-0.1,0-0.1c0-0.1,0-0.2,0-0.3
					c0,0,0,0,0-0.1c0,0,0-0.1,0-0.1c0,0,0,0,0,0c0,0,0,0,0-0.1c0,0,0-0.1,0-0.1c0,0,0,0,0,0c0,0,0,0,0-0.1c0-0.1,0-0.1,0-0.2
					c0-0.1,0-0.1,0-0.2c0,0,0,0,0-0.1c0,0,0,0,0-0.1c0,0,0-0.1,0-0.1c0,0,0,0,0,0c0,0,0,0,0-0.1c0,0,0-0.1,0-0.1c0,0,0-0.1,0-0.1
					c0,0,0-0.1,0-0.1c0,0,0-0.1,0-0.1c0-0.1-0.1-0.2-0.1-0.3c0,0,0-0.1,0-0.1c0-0.1-0.1-0.2-0.1-0.2c0,0,0,0,0-0.1
					c0-0.1,0-0.1-0.1-0.2c0-0.1,0-0.1-0.1-0.2c0-0.1-0.1-0.2-0.1-0.2c0,0,0-0.1,0-0.1c0,0,0-0.1,0-0.1c0,0,0,0,0,0c0,0,0-0.1,0-0.1
					c0,0,0,0,0-0.1c0,0,0,0,0-0.1c-0.1-0.1-0.1-0.2-0.2-0.4c0,0,0,0,0-0.1c0,0,0,0,0,0c0,0,0,0,0,0c0,0,0,0,0,0c0,0,0,0,0,0
					c0,0,0,0,0,0c0,0,0,0,0,0c0,0,0,0,0-0.1c0,0,0,0,0-0.1c0,0,0,0,0-0.1c0,0,0,0,0,0c0,0,0,0,0,0h0c0,0,0,0,0,0c0,0,0,0,0,0
					c0,0,0,0,0,0c0,0,0,0,0,0c0,0,0,0,0,0c0-0.1-0.1-0.1-0.1-0.2c0,0,0,0,0,0c0,0,0,0,0,0c0,0,0,0,0,0c0,0,0,0,0,0c0,0,0,0,0,0
					c0,0,0,0,0,0c0,0,0,0,0,0c0,0,0,0,0-0.1c0,0,0,0,0,0c0,0,0,0,0-0.1c0,0,0,0,0,0c0,0,0,0,0,0c0,0,0,0,0,0c0,0,0,0,0,0
					c0,0,0,0,0-0.1c0,0,0,0,0,0c0,0-0.1-0.1-0.1-0.1c0,0-0.1-0.1-0.2-0.2c0,0,0,0,0,0c0,0,0,0-0.1-0.1c-0.3-0.3-0.6-0.6-0.7-0.7
					c0,0,0,0,0,0c0,0,0,0,0,0c0,0,0,0,0,0c0,0,0,0,0,0c0,0,0,0,0,0c0,0,0,0,0,0c0,0,0,0,0,0c0,0,0,0,0,0c0,0-0.1,0-0.1,0
					c0,0,0,0-0.1,0c0,0-0.1,0-0.1,0c0,0,0,0-0.1,0c0,0,0,0,0,0c0,0-0.1,0-0.1,0c0,0,0,0,0,0c0,0-0.1,0-0.1,0c0,0,0,0,0,0
					c0,0-0.1,0-0.1,0c0,0-0.1,0-0.1,0c0,0-0.1,0-0.1,0c-0.5-0.1-1.1-0.2-1.8-0.4c0,0-0.1,0-0.1,0c0,0,0,0,0,0c0,0-0.1,0-0.1,0
					c-0.2,0-0.4-0.1-0.5-0.1c-0.1,0-0.1,0-0.2,0c-0.1,0-0.1,0-0.2,0c0,0,0,0,0,0c0,0-0.1,0-0.1,0c-0.1,0-0.3-0.1-0.4-0.1
					c0,0-0.1,0-0.1,0c0,0-0.1,0-0.1,0c0,0-0.1,0-0.1,0c0,0,0,0,0,0c0,0-0.1,0-0.1,0c0,0,0,0-0.1,0c0,0-0.1,0-0.1,0
					c-0.1,0-0.2-0.1-0.3-0.1c0,0-0.1,0-0.1,0c-0.1,0-0.2-0.1-0.3-0.1c0,0-0.1,0-0.1,0c-0.1,0-0.3-0.1-0.4-0.1c0,0,0,0-0.1,0
					c0,0,0,0-0.1,0c0,0,0,0,0,0c0,0,0,0-0.1,0c0,0,0,0-0.1,0c0,0,0,0-0.1,0c0,0-0.1,0-0.1,0c0,0-0.1,0-0.1,0
					c-0.2-0.1-0.3-0.2-0.5-0.2c-0.1,0-0.2-0.1-0.2-0.1c0,0-0.1,0-0.1-0.1c-0.2-0.1-0.3-0.1-0.4-0.2c0,0-0.1,0-0.1-0.1
					c0,0-0.1,0-0.1-0.1c0,0,0,0,0,0c0,0-0.1,0-0.1,0c-0.2-0.1-0.4-0.2-0.6-0.3c0,0-0.1,0-0.1,0c-0.1,0-0.1-0.1-0.2-0.1
					c0,0,0,0-0.1,0c0,0,0,0,0,0c0,0-0.1,0-0.1,0c-0.2-0.1-0.4-0.2-0.6-0.3c-0.3-0.2-0.5-0.3-0.7-0.4c-0.7-0.3-1.5-0.2-1.9-1
					c-0.3-0.8-0.4-3.9,0-5.2c0.1-0.3,0.1-0.5,0.2-0.7c0.1-0.2,0.1-0.3,0.1-0.5c0,0,0,0,0,0s0,0,0,0c0,0,0,0,0,0c0,0,0,0,0-0.1
					c0,0,0,0,0,0c0,0,0,0,0,0c0,0,0,0,0,0c0-0.1,0-0.1,0-0.1l4.4,0.9l0,0.1l0.1,1.1l0.1,0.9c0,0,1.6-0.1,3,0.4
					c1.5,0.5,2.4,0.9,3,0.9c0.6-0.1,1.3-0.2,2.2-0.2c0.2,0,0.3,0,0.5,0c0.1,0,0.3,0,0.4,0c0,0,0,0,0,0c0.7,0.1,1.5,0.2,2,0.2
					c0.2,0,0.3,0,0.4,0.1c0,0,0,0,0.1,0h0c0,0,0.1,0,0.1,0s0-0.1,0-0.2c0.1-0.4,0.2-1.1,0.4-1.1c0.1,0,0.2,0.1,0.5,0.2
					c0.4,0.2,0.9,0.4,1.7,0.5h0c0.1,0,0.3,0,0.5,0.1c0.1,0,0.2,0,0.2,0c0,0,0.1,0,0.2,0h0c0.4,0,1.3-0.1,1.9-0.2
					c0.1,0,0.2-0.1,0.3-0.1c0.5-0.2,0.6-0.3,0.8-0.2c0.1,0.1,0.3,0.9,0.4,1.2c0.8-0.1,1.9-0.2,2.8-0.2c0.2,0,0.3,0,0.5,0
					c1.8,0.1,1.7,0.1,2.2-0.1c0.5-0.2,0.7-0.6,2.1-0.9c1.4-0.3,2.1-0.3,2.3-0.4l0,0c0.1,0,0.1-0.4,0.2-1c0,0,0-0.1,0-0.1
					c0,0,0,0,0-0.1c0-0.1,0-0.1,0-0.2c0,0,0,0,0-0.1c0,0,0-0.1,0-0.1c0,0,0,0,0-0.1c0,0,0,0,0,0c0,0,0-0.1,0-0.1c0,0,0-0.1,0-0.1
					c0,0,0-0.1,0-0.1c0,0,0-0.1,0-0.1c0-0.2,0-0.4,0-0.5c0,0,0,0,0,0c0,0,0-0.1,0-0.1c0,0,0,0,0-0.1c0,0,0,0,0-0.1c0,0,0,0,0-0.1
					c0,0,0-0.1,0-0.1c0,0,0,0,0,0c0,0,0-0.1,0-0.1c0,0,0,0,0,0c0,0,0,0,0,0l4.1-0.7c0,0,0,0,0,0c0,0,0,0,0,0c0,0,0,0,0,0
					c0,0,0,0,0,0c0,0,0,0,0,0.1c0,0,0,0,0,0.1c0,0,0,0,0,0c0,0,0,0,0,0c0,0,0,0,0,0c0,0,0,0,0,0c0,0,0,0,0,0c0,0,0,0,0,0
					c0,0.1,0.1,0.3,0.1,0.5c0,0,0,0,0,0.1c0,0,0,0,0,0.1c0,0,0,0,0,0c0,0,0,0.1,0,0.1c0,0.1,0.1,0.2,0.1,0.4c0,0,0,0.1,0,0.1
					c0,0,0,0,0,0c0.3,1.3,0.7,3,0.8,3.4C52.1,24.4,52.1,24.5,52.1,24.7z"/>
			</g>
			<g>
				<path class="st86" d="M32.8,49.4C32.8,49.4,32.8,49.4,32.8,49.4L32.8,49.4c-0.1,0-0.2,0-0.5,0c-0.3,0-0.7-0.1-1.2-0.1
					c-1.6-0.1-3.7-0.3-3.9-0.2C27,49.2,26.4,59.5,29,65.4c-0.9-0.1-1.8-0.3-2.7-0.5c-0.5-1.5-1.6-5.6-1.7-11c0-2.5,0.2-4.5,0.5-6.1
					c0-0.2,0.1-0.5,0.1-0.7c0,0,0-0.1,0-0.1c0,0,0,0,0,0c0.7,0.1,1.4,0.3,2.2,0.5c1.1,0.3,2.4,0.7,3.8,1.2c0.1,0,0.2,0.1,0.4,0.1
					c0.2,0.1,0.4,0.1,0.6,0.2C32.3,49.2,32.6,49.3,32.8,49.4L32.8,49.4z"/>
			</g>
			<g>
				<path d="M26,30.7C26,30.5,26,30.4,26,30.3l0,0L26,30.7L26,30.7z"/>
			</g>
			<g>
				<path class="st86" d="M43.3,46.4c0,0,0,0.1,0,0.1c-2.3,0.7-6.5,1.6-12.2,1.3c-2.7-0.1-4.6-0.4-6-0.7c0.5-2.5,1.3-4,1.7-4.8
					c0.7-1.4,1.4-3.4,1.5-4.8c0.1-1.4-1.4-4.7-1.6-4.9c-0.1-0.1-0.1-0.2-0.2-0.3l-0.5-1.7c0.3,1.1,1.7,4.3,5.5,4.7
					c4.6,0.5,3.8-0.5,6-0.2c1.8,0.3,4.6,0,6.5-0.9c-0.5,1.1-1.1,1.6-1.5,2.6c-0.2,0.6-0.5,1.4-0.7,2.3c0.1-0.6,0.1-1.3-0.1-1.6
					c-0.3-0.4-10.5,0.3-11.5,0.3s-1.1,0.9-1.9,3c-0.8,2.1-1.4,3.2-1.4,3.2s5.8,1.2,10.9,1c2.1-0.1,3.8-0.3,4.9-0.5
					C43,45.3,43.2,46,43.3,46.4z"/>
			</g>
			<g>
				<g>
					<path class="st87" d="M25.8,44.9c0,0,3.5,0.8,9,1.1c5.5,0.3,8.3-0.3,8.3-0.3s0.3,0.4,0.4,1c0.1,0.7,0.2,1.1,0.1,1.4
						c-0.2,0.3-3.1,1.2-9.3,0.9s-9.5-1-9.4-1.4S25.3,44.8,25.8,44.9z"/>
				</g>
				<g>
					<path class="st88" d="M37.5,45.6l-4.8-0.3c-0.2,0-0.4,0.2-0.5,0.4l0,0.1l-0.1,1.3l-0.1,0.8l-0.1,1c0,0,0,0,0,0
						c0,0.1,0,0.1,0,0.2c0.1,0.1,0.2,0.2,0.3,0.2c0,0,0.1,0,0.1,0l0.4,0l0,0l0,0h0l0,0l4.4,0.3c0.2,0,0.4-0.2,0.5-0.4l0-0.2l0.1-0.7
						l0-0.6l0.1-1.6c0,0,0,0,0,0C37.9,45.9,37.8,45.7,37.5,45.6z M36.6,48.1c0,0.1,0,0.2-0.1,0.2c-0.1,0.1-0.2,0.2-0.4,0.2l-2.5-0.2
						c-0.2,0-0.4-0.2-0.4-0.5c0,0,0,0,0,0l0-0.3l0.1-0.8c0-0.3,0.2-0.4,0.5-0.4l2.5,0.2c0.2,0,0.4,0.2,0.4,0.5l-0.1,0.7L36.6,48.1z"
						/>
				</g>
			</g>
			<g>
				<path class="st86" d="M43.8,64.3c-0.7,0.2-1.4,0.4-2.1,0.6c0,0,0,0,0,0c0,0-0.1-0.1-0.1-0.1c-0.1-0.1-0.2-0.2-0.3-0.3
					c0,0-0.1-0.1-0.1-0.1c0,0-0.1-0.1-0.1-0.1c0,0-0.1-0.1-0.1-0.1c-0.1,0-0.1-0.1-0.2-0.2c0,0-0.1-0.1-0.1-0.1
					c-0.1-0.1-0.2-0.2-0.3-0.3c0,0-0.1-0.1-0.1-0.1c0,0-0.1-0.1-0.1-0.1c0,0-0.1-0.1-0.1-0.1c0,0,0,0,0,0c0,0,0,0-0.1-0.1
					c0,0,0,0-0.1-0.1c0,0-0.1-0.1-0.1-0.1c0,0-0.1-0.1-0.1-0.1c0,0-0.1-0.1-0.1-0.1c-0.2-0.3-0.5-0.5-0.7-0.8c0,0,0-0.1-0.1-0.1
					c-0.1-0.1-0.1-0.1-0.2-0.2c0,0-0.1-0.1-0.1-0.1c-0.1-0.1-0.2-0.2-0.3-0.4c0,0-0.1-0.1-0.1-0.1c-0.2-0.2-0.4-0.5-0.5-0.7
					c0-0.1-0.1-0.1-0.1-0.2c-0.1-0.2-0.3-0.4-0.4-0.6c0-0.1-0.1-0.1-0.1-0.2c-0.1-0.1-0.2-0.3-0.3-0.4c0,0,0-0.1-0.1-0.1
					c0,0,0-0.1-0.1-0.1c0,0,0,0,0,0c0,0,0,0,0,0c0,0,0,0,0,0c-0.1-0.1-0.1-0.2-0.2-0.2c0,0-0.1-0.1-0.1-0.1
					c-0.2-0.2-0.3-0.5-0.4-0.6c0,0,0,0,0-0.1c0,0,0-0.1-0.1-0.1c0,0,0,0,0-0.1c0,0,0,0,0,0c0,0-0.1-0.1-0.1-0.1c0,0-0.1-0.1-0.1-0.1
					c0,0,0,0,0,0c0,0,0,0,0,0c0,0,0,0,0,0c0,0,0,0,0,0c0,0,0,0,0,0c0,0,0,0,0,0c0,0,0,0,0,0c0,0,0,0,0,0c0,0,0,0,0,0c0,0,0,0,0,0
					c0,0,0,0,0,0c0,0,0,0,0,0c0,0,0,0,0,0c0,0,0,0,0.1,0c0,0,0,0,0,0c0.2,0,0.7,0.1,1.5-0.3c0,0,0,0,0,0c0.5-0.2,1.2-0.6,2.1-1.1
					c0,0,0,0,0,0c0,0,0,0,0,0c0,0,0.1,2.8,2.8,6.2C42.4,62.8,43.1,63.6,43.8,64.3z"/>
			</g>
			<g>
				<g>
					<path class="st87" d="M39.3,35.5C39.3,35.5,39.3,35.5,39.3,35.5C39.3,35.5,39.3,35.5,39.3,35.5L39.3,35.5l0-0.2l0-0.2
						c0-0.2-0.2-0.4-0.5-0.4l-1.5,0.1l-0.1-1.1c1.7-0.4,2.8-2,2.6-3.8c-0.2-1.4-1.1-2.6-2.4-3h0c0,0-0.1,0-0.1,0
						c-0.5-0.2-1-0.2-1.5-0.2c-1,0.1-1.8,0.6-2.4,1.2l0,0c-0.6,0.7-0.9,1.6-0.8,2.6c0.1,0.5,0.2,0.9,0.4,1.3c0.6,1.1,1.7,1.8,3,1.9
						L36,35l-1.5,0.1c-0.1,0-0.2,0.1-0.3,0.2c0,0,0,0,0,0c0,0,0,0,0,0c0,0,0,0,0,0c0,0,0,0,0,0c0,0,0,0,0,0.1c0,0,0,0,0,0
						c0,0,0,0,0,0l0,0c0,0,0,0,0,0c0,0,0,0,0,0c0,0,0,0,0,0c0,0,0,0,0,0l0,0l0,0.3c0,0.2,0.2,0.4,0.5,0.4l1.5-0.1l0.2,1.4l0,0.1
						c0,0.2,0.2,0.4,0.5,0.4l0.4,0c0.2,0,0.4-0.2,0.4-0.4l0,0l-0.2-1.5l1.5-0.1c0,0,0,0,0.1,0c0,0,0,0,0,0c0,0,0,0,0,0
						c0,0,0,0,0.1,0c0,0,0,0,0,0c0,0,0,0,0,0c0,0,0,0,0,0c0,0,0,0,0,0c0,0,0,0,0,0c0,0,0,0,0,0c0,0,0,0,0,0c0,0,0,0,0,0c0,0,0,0,0,0
						c0,0,0,0,0,0c0,0,0,0,0,0c0,0,0,0,0-0.1c0,0,0,0,0,0c0,0,0,0,0,0c0,0,0,0,0,0C39.3,35.6,39.3,35.6,39.3,35.5
						C39.3,35.6,39.3,35.6,39.3,35.5C39.3,35.5,39.3,35.5,39.3,35.5C39.3,35.5,39.3,35.5,39.3,35.5C39.3,35.5,39.3,35.5,39.3,35.5
						L39.3,35.5z M36.4,32.6c-0.8,0.1-1.6-0.3-2.1-0.9c-0.3-0.3-0.4-0.7-0.5-1.2c-0.1-1.3,0.8-2.4,2.1-2.5c0.4,0,0.7,0,1.1,0.2
						c0.8,0.3,1.4,1,1.5,1.9C38.6,31.4,37.7,32.5,36.4,32.6z"/>
				</g>
			</g>
			<g>
				<g>
					<path class="st86" d="M17.9,20.8l0.1,1.3c-0.6-0.1-1.5-0.2-2.5-0.4c-0.8-0.2-1.5-0.5-2.2-1c0.2-0.7,0.2-0.8,0.2-0.8L17.9,20.8z
						"/>
				</g>
				<g>
					<path class="st86" d="M51.3,20.8c-1.4,0.7-3.3,1.1-4.6,1.4c0.1-1,0.2-2.3,0.2-2.3l4.1-0.7C50.9,19.2,51.1,19.9,51.3,20.8z"/>
				</g>
			</g>
			<g>
				<g>
					<path class="st87" d="M13.2,20c0,0,4.3,1,4.8,1c0.5,0,0.5-0.3,0.5-0.7s0.3-3,0.7-4.9c0.4-1.9,1.4-3.3,1.5-3.3
						c0.2-0.1,2.5,0,2.8-0.1c0.3-0.2,1.1-1.1,1.4-1.5c0.3-0.4,0.4-0.5,0.3-0.7c-0.1-0.2-0.5-0.1-0.5-0.1s0.4-0.5,0.4-0.6
						c0-0.1-0.9-1.1-1.2-1.3C23.7,7.4,21.7,7,21.4,7c-0.3,0.1-2,1.7-2.5,2.3c-0.5,0.6-0.3,1.1-0.8,1.4c-0.5,0.3-0.4,0.8-0.5,1
						c-0.2,0.3-1.9,2.4-3.1,4.4C13.4,18.3,12.9,19.7,13.2,20z"/>
				</g>
				<g>
					<g>
						<path class="st88" d="M24.9,9.6C24.9,9.6,24.8,9.6,24.9,9.6c-0.1,0-0.5-0.5-0.9-0.8c-0.4-0.3-1.1-0.6-1.1-0.6c0,0,0-0.1,0-0.1
							c0,0,0.1,0,0.1,0c0,0,0.8,0.3,1.2,0.7c0.4,0.3,0.8,0.8,0.8,0.8C24.9,9.5,24.9,9.6,24.9,9.6C24.9,9.6,24.9,9.6,24.9,9.6z"/>
					</g>
					<g>
						<path class="st88" d="M24.6,10.2c-0.1,0-0.3-0.1-0.5-0.2c-0.1-0.1-1.2-0.8-1.7-0.9c0,0-0.1,0-0.1-0.1c0,0,0-0.1,0.1-0.1
							c0.6,0.1,1.7,0.9,1.8,0.9c0.2,0.2,0.4,0.2,0.5,0.2c0.1-0.1,0.1-0.4,0.1-0.5c0,0,0-0.1,0.1-0.1c0,0,0.1,0,0.1,0.1
							c0,0,0,0.5-0.1,0.6C24.7,10.2,24.6,10.2,24.6,10.2z"/>
					</g>
					<g>
						<path class="st88" d="M23.9,10.8c-0.2,0-0.4-0.1-0.6-0.3c-0.3-0.3-1.1-0.4-1.2-0.4c0,0-0.1,0-0.1-0.1c0,0,0-0.1,0.1-0.1
							c0,0,0.8,0.1,1.2,0.4c0.2,0.2,0.5,0.2,0.6,0.2c0.1,0,0.1,0,0.2-0.1l0,0c0.1-0.2,0.2-0.3,0-0.5c0,0,0-0.1,0-0.1
							c0,0,0.1,0,0.1,0c0.2,0.3,0.1,0.5,0,0.7l0,0C24.2,10.7,24.1,10.8,23.9,10.8C24,10.8,24,10.8,23.9,10.8z"/>
					</g>
				</g>
			</g>
			<g>
				<g>
					<path class="st87" d="M51.7,20c0,0-4.3,1-4.8,1s-0.5-0.3-0.5-0.7s-0.3-3-0.7-4.9c-0.4-1.9-1.4-3.3-1.5-3.3
						c-0.2-0.1-2.5,0-2.8-0.1c-0.3-0.2-1.1-1.1-1.4-1.5c-0.3-0.4-0.4-0.5-0.3-0.7c0.1-0.2,0.5-0.1,0.5-0.1S39.7,9,39.7,8.9
						c0-0.1,0.9-1.1,1.2-1.3S43.3,7,43.6,7c0.3,0.1,2,1.7,2.5,2.3c0.5,0.6,0.3,1.1,0.8,1.4c0.5,0.3,0.4,0.8,0.5,1
						c0.2,0.3,1.9,2.4,3.1,4.4C51.6,18.3,52.1,19.7,51.7,20z"/>
				</g>
				<g>
					<g>
						<path class="st88" d="M40.1,9.6C40.1,9.6,40,9.6,40.1,9.6c-0.1,0-0.1-0.1,0-0.1c0,0,0.5-0.4,0.8-0.8C41.2,8.4,42,8.1,42,8.1
							c0,0,0.1,0,0.1,0c0,0,0,0.1,0,0.1c0,0-0.8,0.3-1.1,0.6C40.6,9.2,40.1,9.6,40.1,9.6C40.1,9.6,40.1,9.6,40.1,9.6z"/>
					</g>
					<g>
						<path class="st88" d="M40.4,10.2c-0.1,0-0.1,0-0.2-0.1C40,10,40.1,9.5,40.1,9.5c0,0,0-0.1,0.1-0.1c0,0,0.1,0,0.1,0.1
							c0,0.1,0,0.4,0.1,0.5c0.1,0.1,0.2,0,0.5-0.2c0.1-0.1,1.2-0.8,1.8-0.9c0,0,0.1,0,0.1,0.1c0,0,0,0.1-0.1,0.1
							C42,9.2,40.9,9.9,40.8,10C40.6,10.1,40.5,10.2,40.4,10.2z"/>
					</g>
					<g>
						<path class="st88" d="M41,10.8C41,10.8,40.9,10.8,41,10.8c-0.2,0-0.3-0.1-0.3-0.2l0,0c-0.1-0.2-0.2-0.4,0-0.7c0,0,0.1,0,0.1,0
							c0,0,0,0.1,0,0.1c-0.2,0.2-0.1,0.3,0,0.5l0,0c0,0,0.1,0.1,0.2,0.1c0.1,0,0.4,0,0.6-0.2c0.4-0.3,1.2-0.4,1.2-0.4
							c0,0,0.1,0,0.1,0.1c0,0,0,0.1-0.1,0.1c0,0-0.8,0.1-1.2,0.4C41.4,10.7,41.2,10.8,41,10.8z"/>
					</g>
				</g>
			</g>
			<g>
				<path class="st86" d="M27.3,33.7c-0.3-0.6-0.5-1-0.6-1.1c-0.1-0.1-0.1-0.2-0.2-0.3c-0.3-0.3-0.6-0.6-0.7-0.7
					c-0.1-0.1-4.6-0.9-7-1.9c-1.6-0.7-2.5-1.3-3.2-1.7l1.7,0.6c0,0-0.6-0.4-1-1.2c-0.4-0.8-0.4-2.2-0.1-2.3c0.3-0.1-0.3,0.9,0.4,2.5
					c0.7,1.6,3,2,5.5,2.7s2.6,0.5,2.7,0c0.1-0.5-0.8-2.8-0.8-2.8C25.6,29.3,27.3,33.5,27.3,33.7z"/>
			</g>
			<g>
				<path class="st86" d="M51.8,25.6c0.2-0.3,0.3-0.6,0.3-0.9c0,0.7-0.1,1.5-0.2,1.6c-0.1,0.1-0.6,0.3-0.8,0.4
					c-0.2,0.1-2.3,1.6-3.7,1.9c-1.4,0.3-1.9,0.4-2.2,0.6c-0.3,0.1-1,0.6-1,0.6s0,0.1,0.1,0.4c0,0,0,0,0,0s-1.8-2.5-2-2.9
					c-0.2-0.4-0.2-0.9,0-1.2c0,0-0.2,0.5,0.6,1.3c0.8,0.8,1.6,0.6,1.6,0.6s0.2,0.8,1.5,0.6c1.3-0.2,4.2-1.7,4.9-2.4
					c0.7-0.7-0.6-1.4-0.4-1.6c0.2-0.2,0.7,0.6,0.8,1c0,0.3-0.2,0.6-0.2,0.6S51.3,26.5,51.8,25.6z"/>
			</g>
			<g>
				<path class="st86" d="M30.3,38.7c0,0,0.6,0.3,0.7,2c0.2,1.7-0.3,3.5-0.3,3.5S31.1,40.4,30.3,38.7z"/>
			</g>
			<g class="st89">
				<path class="st75" d="M37.3,27L37.3,27c0,0-0.1,0-0.1,0c-0.5-0.2-1-0.2-1.5-0.2c-1,0.1-1.8,0.6-2.4,1.2
					c-3.1-0.3-5.1-2.7-5.2-2.9c0.1,0.1,1.1,1.2,4.2,1.5c3.3,0.3,5.1-1.6,5.6-1.1C38.1,25.7,38,26.4,37.3,27z"/>
			</g>
			<g>
				<path class="st90" d="M37.3,27c-0.6,0.6-1.7,1-3.4,1.1c-0.2,0-0.4,0-0.6,0c0.6-0.7,1.4-1.1,2.4-1.2c0.5,0,1,0,1.5,0.2
					C37.3,27,37.3,27,37.3,27L37.3,27z"/>
			</g>
			<g>
				<path class="st88" d="M38.9,35.9l-1.5,0.1l0.2,1.5c0,0.2-0.1,0.4-0.4,0.4l-0.4,0c-0.2,0-0.4-0.1-0.5-0.4l-0.2-1.5l-1.5,0.1
					c-0.2,0-0.4-0.1-0.5-0.4l0-0.4c0-0.1,0-0.2,0.1-0.3c1.6,0.1,3.6,0.3,5.1,0.1l0,0.1C39.3,35.7,39.1,35.9,38.9,35.9z"/>
			</g>
			<g>
				<g>
					<g>
						<path class="st91" d="M33.1,25.5c-0.1,0-0.1,0-0.2,0c-1.2-0.1-3.2-1-3.3-1c0,0,0-0.1,0-0.1c0,0,0.1,0,0.1,0c0,0,2,0.9,3.2,1
							c1.2,0.1,2.3-0.6,2.3-0.6c0,0,0.1,0,0.1,0c0,0,0,0.1,0,0.1C35.3,25,34.3,25.5,33.1,25.5z"/>
					</g>
					<g>
						<path class="st91" d="M44.3,30.1l-0.1-0.2c0,0-1.3-1.8-1.8-2.4c-0.5-0.6-0.2-1.5-0.2-1.6c0,0,0-0.1,0.1,0c0,0,0.1,0,0,0.1
							c0,0-0.2,0.9,0.2,1.5c0.4,0.5,1.3,1.7,1.6,2.2c-0.1-1.3,0.3-1.7,0.3-1.8c0,0,0.1,0,0.1,0c0,0,0,0.1,0,0.1c0,0-0.4,0.5-0.3,1.9
							L44.3,30.1z"/>
					</g>
					<g>
						<path class="st91" d="M26.8,32.8C26.8,32.8,26.8,32.7,26.8,32.8c-1.1-3.4-3-5.3-3.1-5.3c0,0,0-0.1,0-0.1c0,0,0.1,0,0.1,0
							C23.9,27.4,25.8,29.3,26.8,32.8C26.9,32.7,26.9,32.7,26.8,32.8C26.9,32.8,26.8,32.8,26.8,32.8z"/>
					</g>
					<g>
						<path class="st91" d="M26.6,32.5C26.6,32.5,26.6,32.5,26.6,32.5c-0.7-1-2.5-1.7-2.5-1.7c0,0-0.1,0,0-0.1c0,0,0.1-0.1,0.1,0
							C24.2,30.7,26,31.4,26.6,32.5C26.7,32.4,26.7,32.4,26.6,32.5C26.6,32.5,26.6,32.5,26.6,32.5z"/>
					</g>
					<g>
						<path class="st91" d="M49.1,24.3C49.1,24.3,49.1,24.3,49.1,24.3c-0.7-0.7-2.6-1.1-2.6-1.1c0,0-0.1,0-0.1-0.1
							c0,0,0-0.1,0.1-0.1c0.1,0,2,0.4,2.6,1.1C49.2,24.2,49.2,24.2,49.1,24.3C49.1,24.3,49.1,24.3,49.1,24.3z"/>
					</g>
					<g>
						<path class="st91" d="M15.9,24.5C15.9,24.5,15.9,24.5,15.9,24.5c-0.1,0-0.1-0.1-0.1-0.1c0.6-0.9,2.2-1.4,2.2-1.4
							c0,0,0.1,0,0.1,0c0,0,0,0.1,0,0.1C18.1,23.1,16.6,23.6,15.9,24.5C15.9,24.5,15.9,24.5,15.9,24.5z"/>
					</g>
					<g>
						<path class="st91" d="M33.3,35.7c-0.3,0-0.7,0-1-0.1c-1.9-0.2-4.1-1.5-4.1-1.5c0,0,0-0.1,0-0.1c0,0,0.1,0,0.1,0
							c0,0,2.2,1.2,4.1,1.5c1.8,0.2,3.3-0.3,3.3-0.3c0,0,0.1,0,0.1,0c0,0,0,0.1,0,0.1C35.6,35.4,34.7,35.7,33.3,35.7z"/>
					</g>
					<g>
						<path class="st91" d="M39.4,35.6c-1.5,0-2.2-0.4-2.2-0.4c0,0,0-0.1,0-0.1c0,0,0.1,0,0.1,0c0,0,0.9,0.5,2.9,0.3
							c2-0.1,3.8-1,3.8-1c0,0,0.1,0,0.1,0c0,0,0,0.1,0,0.1c0,0-1.8,0.9-3.9,1C39.8,35.6,39.6,35.6,39.4,35.6z"/>
					</g>
				</g>
				<g>
					<path class="st91" d="M34.9,57.1c-1,0-1.8-0.2-2.3-0.5c-0.8-0.4-1.2-0.8-1.3-0.8c0,0,0-0.1,0-0.1c0,0,0.1,0,0.1,0
						c0,0,0.4,0.4,1.2,0.8c0.7,0.3,1.9,0.7,3.4,0.4c1.5-0.3,2.6-1.2,3.3-1.8c0.7-0.7,1.1-1.4,1.1-1.4c0,0,0.1,0,0.1,0
						c0,0,0,0.1,0,0.1c0,0-0.4,0.7-1.1,1.4c-0.7,0.7-1.8,1.6-3.3,1.9C35.7,57.1,35.3,57.1,34.9,57.1z"/>
				</g>
			</g>
		</g>
	</g>
	<g>
		<g>
			<path class="st84" d="M22.1,66.7c-0.1,0-0.2,0-0.2,0C15.7,64.6,10.2,60.9,6,56.1c-0.3-0.3-0.2-0.7,0.1-1c0.3-0.2,0.7-0.2,1,0.1
				c4.1,4.6,9.4,8.1,15.3,10.1c0.4,0.1,0.6,0.5,0.4,0.9C22.7,66.5,22.4,66.7,22.1,66.7z"/>
		</g>
		<g>
			<path class="st84" d="M33.7,68.5c-1.9,0-3.8-0.1-5.6-0.4c-0.4-0.1-0.7-0.4-0.6-0.8c0.1-0.4,0.4-0.6,0.8-0.6
				c1.8,0.3,3.6,0.4,5.4,0.4c0.4,0,0.7,0.3,0.7,0.7C34.4,68.2,34.1,68.5,33.7,68.5z"/>
		</g>
		<g>
			<path class="st84" d="M43.2,67.3c-0.3,0-0.6-0.2-0.7-0.5c-0.1-0.4,0.1-0.8,0.5-0.9c3.5-0.9,6.8-2.4,9.8-4.3
				c0.3-0.2,0.8-0.1,1,0.2c0.2,0.3,0.1,0.8-0.2,1c-3.2,2-6.6,3.5-10.2,4.5C43.3,67.3,43.3,67.3,43.2,67.3z"/>
		</g>
		<g>
			<path class="st84" d="M60,57.3c-0.2,0-0.3-0.1-0.5-0.2c-0.3-0.3-0.3-0.7,0-1c3.5-3.7,6.1-8.2,7.7-13c0.1-0.4,0.5-0.6,0.9-0.5
				c0.4,0.1,0.6,0.5,0.5,0.9c-0.8,2.5-1.9,4.9-3.3,7.2c-1.3,2.2-2.9,4.4-4.7,6.3C60.4,57.2,60.2,57.3,60,57.3z"/>
		</g>
	</g>
</g>
</svg>
