<?xml version="1.0" encoding="utf-8"?>
<!-- Generator: Adobe Illustrator 25.2.1, SVG Export Plug-In . SVG Version: 6.00 Build 0)  -->
<svg version="1.1" id="Layer_1" xmlns="http://www.w3.org/2000/svg" xmlns:xlink="http://www.w3.org/1999/xlink" x="0px" y="0px"
	 viewBox="0 0 332 93" style="enable-background:new 0 0 332 93;" xml:space="preserve">
<style type="text/css">
	.st0{fill:#834F9A;}
	.st1{fill:#D8D8D8;stroke:#818388;stroke-width:4;}
	.st2{opacity:0.3;fill:url(#SVGID_1_);enable-background:new    ;}
	.st3{fill:#EAC4F9;}
	.st4{fill:url(#SVGID_2_);}
	.st5{opacity:0.42;fill:#FFFFFF;enable-background:new    ;}
	.st6{fill:url(#SVGID_3_);}
	.st7{fill:url(#SVGID_4_);}
	.st8{fill:url(#SVGID_5_);}
	.st9{fill:url(#SVGID_6_);}
	.st10{opacity:0.16;fill:#FFFFFF;enable-background:new    ;}
	.st11{opacity:0.65;fill:#FFFFFF;enable-background:new    ;}
	.st12{fill:url(#SVGID_7_);}
	.st13{fill:#FFFFFF;}
	.st14{opacity:0.22;fill:#FFFFFF;enable-background:new    ;}
	.st15{opacity:0.2;fill:#FFFFFF;enable-background:new    ;}
	.st16{fill:url(#SVGID_8_);}
	.st17{fill:url(#SVGID_9_);}
	.st18{fill:url(#SVGID_10_);}
	.st19{fill:url(#SVGID_11_);}
	.st20{fill:url(#SVGID_12_);}
	.st21{fill:url(#SVGID_13_);}
	.st22{fill:url(#SVGID_14_);}
	.st23{fill:url(#SVGID_15_);}
	.st24{fill:url(#SVGID_16_);}
	.st25{fill:url(#SVGID_17_);}
	.st26{fill:url(#SVGID_18_);}
	.st27{fill:url(#SVGID_19_);}
	.st28{fill:url(#SVGID_20_);}
	.st29{fill:url(#SVGID_21_);}
	.st30{fill:url(#SVGID_22_);}
	.st31{fill:url(#SVGID_23_);}
	.st32{opacity:0.6;fill:#FFFFFF;enable-background:new    ;}
	.st33{opacity:0.6;}
	.st34{fill:url(#SVGID_24_);}
	.st35{fill:url(#SVGID_25_);}
	.st36{fill:url(#SVGID_26_);}
	.st37{fill:url(#SVGID_27_);}
	.st38{fill:url(#SVGID_28_);}
	.st39{fill:url(#SVGID_29_);}
	.st40{fill:url(#SVGID_30_);}
	.st41{fill:url(#SVGID_31_);}
	.st42{fill:url(#SVGID_32_);}
	.st43{fill:url(#SVGID_33_);}
	.st44{fill:url(#SVGID_34_);}
	.st45{fill:url(#SVGID_35_);}
	.st46{fill:url(#SVGID_36_);}
	.st47{fill:url(#SVGID_37_);}
	.st48{fill:url(#SVGID_38_);}
	.st49{fill:url(#SVGID_39_);}
	.st50{fill:url(#SVGID_40_);}
	.st51{fill:url(#SVGID_41_);}
	.st52{fill:url(#SVGID_42_);}
	.st53{fill:url(#SVGID_43_);}
	.st54{fill:url(#SVGID_44_);}
	.st55{fill:url(#SVGID_45_);}
	.st56{fill:url(#SVGID_46_);}
	.st57{opacity:0.2;fill:url(#SVGID_47_);enable-background:new    ;}
	.st58{fill:url(#SVGID_48_);}
	.st59{fill:url(#SVGID_49_);}
	.st60{fill:url(#SVGID_50_);}
	.st61{fill:url(#SVGID_51_);}
	.st62{fill:url(#SVGID_52_);}
	.st63{fill:url(#SVGID_53_);}
	.st64{fill:url(#SVGID_54_);}
</style>
<desc>Created with Sketch.</desc>
<g id="Page-1">
	<g id="block5m-dn">
		<path id="Rectangle-Copy-4" class="st0" d="M24,0h284c13.3,0,24,10.7,24,24v45c0,13.3-10.7,24-24,24H24C10.7,93,0,82.3,0,69V24
			C0,10.7,10.7,0,24,0z"/>
		<g id="Group-Copy" transform="translate(20.000000, 7.000000)">
			<g id="Oval">
				<circle id="path-1" class="st1" cx="30" cy="30" r="30"/>
			</g>
			<g>
				
					<linearGradient id="SVGID_1_" gradientUnits="userSpaceOnUse" x1="61.4232" y1="8.5434" x2="14.4668" y2="66.8603" gradientTransform="matrix(1 0 0 -1 0 80)">
					<stop  offset="0" style="stop-color:#B37CFF"/>
					<stop  offset="1" style="stop-color:#F895E7"/>
				</linearGradient>
				<path class="st2" d="M48.5,48.5c-1.1,1.1-2.1,1.9-2.9,2.4c-9.5,6.8-20.7,4.8-23.1,4.3c-3.5-0.7-10.3-2.1-15.2-7.9
					C-0.2,38.6,1,24.8,6.8,15.7c1-1.7,6.6-10.9,18-12.4c6.9-0.9,14.8,0.9,20.6,5.7C57.5,19.3,56.7,39.9,48.5,48.5z"/>
				<g>
					<g>
						<g>
							<path class="st3" d="M4.7,14.3C4.7,14.3,4.7,14.2,4.7,14.3c0-0.2,0-0.3,0-0.4c0,0,0-0.1,0.1-0.1c0.1,0,0.1,0.1,0.1,0.4
								C4.9,14.2,4.8,14.3,4.7,14.3L4.7,14.3z"/>
							<path class="st3" d="M4.8,12.8c0-0.2,0.1-0.4,0.2-0.7C5,12.1,5,12,5.1,12c0.1,0,0,0.1-0.1,0.7C5,12.8,5,12.8,4.8,12.8
								C4.8,12.9,4.8,12.8,4.8,12.8z M5.3,11.1c0.1-0.2,0.2-0.4,0.3-0.6c0-0.1,0.2,0,0.2,0.1c-0.1,0.2-0.2,0.4-0.3,0.6
								C5.4,11.2,5.4,11.2,5.3,11.1C5.3,11.2,5.3,11.2,5.3,11.1z M6.1,9.6c0.1-0.2,0.3-0.3,0.4-0.5c0.1-0.1,0.2,0,0.2,0.1
								C6.5,9.3,6.4,9.5,6.2,9.7C6.2,9.8,6,9.7,6.1,9.6z M7.2,8.4c0,0,0-0.1,0-0.1C7.4,8.1,7.5,8,7.7,7.9C7.8,7.8,7.9,7.9,7.8,8
								C7.7,8.1,7.5,8.2,7.3,8.4C7.3,8.4,7.2,8.4,7.2,8.4z M8.6,7.3c0,0,0-0.1,0-0.1C8.8,7.1,9,7,9.2,6.9C9.3,6.8,9.4,7,9.2,7
								C9.1,7.1,8.9,7.2,8.7,7.3C8.6,7.4,8.6,7.4,8.6,7.3z M10.1,6.6C10.1,6.6,10.1,6.6,10.1,6.6c0-0.1,0-0.1,0-0.2
								c0.2-0.1,0.4-0.2,0.6-0.2c0,0,0.1,0,0.1,0.1c0,0,0,0.1,0,0.1C10.6,6.5,10.4,6.6,10.1,6.6C10.2,6.6,10.2,6.6,10.1,6.6z
								 M11.8,6.2C11.8,6.2,11.8,6.1,11.8,6.2c0-0.1,0-0.2,0-0.2c0.2,0,0.5,0,0.7-0.1c0,0,0.1,0,0.1,0.1c0,0,0,0.1-0.1,0.1
								C12.3,6,12.1,6.1,11.8,6.2C11.9,6.2,11.8,6.2,11.8,6.2z M13.5,6C13.5,6,13.5,5.9,13.5,6c0.3-0.1,0.5,0,0.7,0
								c0.1,0,0.1,0.2,0,0.2C14,6.1,13.8,6.1,13.5,6C13.5,6.1,13.5,6,13.5,6z M18.9,8.3c-0.5-0.4-0.6-0.4-0.5-0.5c0,0,0.1,0,0.1,0
								c0.2,0.2,0.3,0.3,0.5,0.4C19.1,8.2,19,8.4,18.9,8.3z M15.2,6.3c0,0,0.1-0.1,0.1-0.1c0.2,0,0.4,0.1,0.7,0.2c0.1,0,0,0.2,0,0.2
								c-0.2-0.1-0.4-0.2-0.6-0.2C15.3,6.4,15.2,6.3,15.2,6.3z M17.5,7.3c-0.6-0.3-0.7-0.3-0.6-0.4c0-0.1,0.1,0,0.1,0
								c0.2,0.1,0.4,0.2,0.6,0.3c0,0,0,0.1,0,0.1S17.5,7.3,17.5,7.3z"/>
							<path class="st3" d="M19.9,9.3c-0.2-0.2-0.3-0.3-0.2-0.4c0,0,0.1,0,0.1,0C20,9.2,20.1,9.2,20,9.3C20,9.4,19.9,9.4,19.9,9.3z"
								/>
						</g>
						<g>
							<path class="st3" d="M21.7,15.7C21.6,15.7,21.6,15.7,21.7,15.7c0-0.2,0-0.3,0-0.4c0,0,0-0.1,0.1-0.1c0,0,0.1,0,0.1,0.1
								c0,0.1,0,0.2,0,0.3C21.8,15.7,21.7,15.7,21.7,15.7C21.7,15.7,21.7,15.7,21.7,15.7z"/>
							<path class="st3" d="M9.4,21.9c-0.2-0.1-0.4-0.2-0.6-0.3c0,0,0-0.1,0-0.1c0.1-0.1,0.1,0,0.7,0.3c0,0,0.1,0.1,0,0.1
								C9.5,21.9,9.4,21.9,9.4,21.9z M10.4,22.3c0-0.1,0.1,0,0.8,0.2c0,0,0.1,0.1,0.1,0.1c0,0-0.1,0.1-0.1,0.1
								c-0.2-0.1-0.5-0.1-0.7-0.2C10.5,22.4,10.4,22.3,10.4,22.3z M7.8,20.9c-0.2-0.2-0.4-0.3-0.5-0.5c0,0,0-0.1,0-0.1
								c0.1-0.1,0.1,0,0.7,0.5c0,0,0,0.1,0,0.1C7.9,20.9,7.9,20.9,7.8,20.9z M12.3,22.8C12.3,22.8,12.3,22.7,12.3,22.8
								c0-0.1,0-0.2,0-0.2c0.2,0,0.5,0,0.7,0c0,0,0.1,0,0.1,0.1s0,0.1-0.1,0.1C12.8,22.9,12.6,22.8,12.3,22.8
								C12.3,22.8,12.3,22.8,12.3,22.8z M14.2,22.8C14.2,22.8,14.2,22.8,14.2,22.8c0-0.1,0-0.2,0-0.2c0.2,0,0.5,0,0.7-0.1
								c0,0,0.1,0,0.1,0.1c0,0,0,0.1-0.1,0.1C14.8,22.8,14.5,22.8,14.2,22.8C14.2,22.8,14.2,22.8,14.2,22.8z M16,22.4
								C16,22.4,16,22.4,16,22.4c0-0.1,0-0.1,0-0.2c0.2-0.1,0.4-0.2,0.7-0.2c0,0,0.1,0,0.1,0s0,0.1,0,0.1
								C16.5,22.3,16.3,22.4,16,22.4C16.1,22.4,16,22.4,16,22.4z M17.7,21.7C17.7,21.7,17.7,21.7,17.7,21.7c-0.1-0.1,0-0.1,0-0.2
								c0.2-0.1,0.4-0.2,0.6-0.4c0,0,0.1,0,0.1,0c0,0,0,0.1,0,0.1c-0.2,0.2-0.4,0.3-0.6,0.4C17.8,21.7,17.8,21.7,17.7,21.7z
								 M19.2,20.6c-0.1-0.1,0-0.1,0.5-0.6c0.1-0.1,0.2,0,0.1,0.1c-0.2,0.2-0.3,0.3-0.5,0.5C19.3,20.6,19.2,20.6,19.2,20.6z
								 M20.4,19.2c-0.1-0.1,0-0.1,0.3-0.7c0-0.1,0.2,0,0.2,0.1c-0.1,0.2-0.2,0.4-0.3,0.6C20.5,19.2,20.4,19.2,20.4,19.2z
								 M21.2,17.5c0,0-0.1-0.1,0-0.1c0.1-0.2,0.2-0.4,0.2-0.7c0,0,0.1-0.1,0.1,0c0,0,0.1,0.1,0.1,0.1c-0.1,0.2-0.2,0.5-0.2,0.7
								C21.3,17.5,21.3,17.5,21.2,17.5L21.2,17.5z"/>
							<path class="st3" d="M6.5,19.5c-0.2-0.2-0.3-0.3-0.2-0.4c0.1-0.1,0.2,0,0.3,0.3c0,0,0,0.1,0,0.1C6.6,19.5,6.5,19.5,6.5,19.5z
								"/>
						</g>
						<g>
							
								<linearGradient id="SVGID_2_" gradientUnits="userSpaceOnUse" x1="351.3551" y1="181.4354" x2="330.6678" y2="150.8542" gradientTransform="matrix(0.9967 8.140000e-02 8.140000e-02 -0.9967 -336.3493 147.4615)">
								<stop  offset="0" style="stop-color:#A737D5"/>
								<stop  offset="1" style="stop-color:#EF497A"/>
							</linearGradient>
							<path class="st4" d="M7.6,17.4l1.2,0c0.3,0.5,0.8,0.9,1.2,1.2c0,1.2-0.2,1.3,0,1.3l1.4,0.6c0,0,0.1,0,0.1,0l0.8-0.9
								c0.6,0.1,1.2,0.1,1.8,0l0.8,0.9c0,0,0.1,0,0.1,0l1.4-0.5c0,0,0.1,0,0.1-0.1l-0.1-1.2c0.5-0.3,0.9-0.7,1.2-1.2l1.2,0.1
								c0,0,0.1,0,0.1-0.1l0.6-1.3c0,0,0-0.1,0-0.1l-0.9-0.8c0.1-0.6,0.1-1.2,0-1.7c0.9-0.8,1-0.8,1-0.9c-0.6-1.3-0.5-1.4-0.7-1.4
								l-1.2,0c-0.3-0.5-0.8-0.9-1.2-1.2c0-1.2,0.2-1.3,0-1.3C15.2,8.1,15.2,8,15,8.1L14.2,9c-0.6-0.1-1.2-0.1-1.8,0
								c-0.8-0.9-0.8-1-0.9-1c-1.3,0.5-1.5,0.5-1.4,0.6l0.1,1.2c-0.5,0.3-0.9,0.7-1.2,1.2c-1.2-0.1-1.3-0.2-1.3,0
								c-0.5,1.3-0.7,1.4-0.5,1.5L8,13.3c-0.1,0.6-0.1,1.2,0,1.7c-0.9,0.8-1,0.8-1,0.9C7.6,17.3,7.5,17.5,7.6,17.4z"/>
							<path class="st5" d="M11.9,14.1c0.1-0.8,0.8-1.3,1.7-1.2c0.8,0.1,1.3,0.9,1.2,1.7c-0.1,0.8-0.8,1.3-1.7,1.2l0,0
								C12.3,15.6,11.8,14.9,11.9,14.1z M13.1,15.6L13.1,15.6L13.1,15.6z M13.5,13.2c-0.7-0.1-1.3,0.3-1.3,1s0.3,1.2,1,1.3
								c0.7,0.1,1.3-0.3,1.3-1C14.6,13.9,14.1,13.3,13.5,13.2z"/>
							<path class="st5" d="M11.8,17.6L11.8,17.6c-0.2-0.1-0.4-0.2-0.5-0.3c0,0-0.1-0.1,0-0.2l0,0c0,0,0.1-0.1,0.2,0
								c0.2,0.2,0.4,0.3,0.7,0.3l0,0c1.7,0.7,3.7,0,4.5-1.7c0,0,0-0.1,0-0.1c0.7-1.7-0.1-3.7-1.9-4.5c-1.8-0.7-3.8,0-4.6,1.8
								c-0.4,1-0.2,1.8-0.2,1.9c0,0.1-0.2,0.1-0.2,0c-0.1-0.7,0-1.4,0.3-2.1c1.3-2.9,5.6-2.7,6.8,0.3c0.4,0.9,0.4,1.9,0,2.8
								c0,0,0,0.1-0.1,0.2c-0.4,0.8-1.1,1.5-2,1.8c-0.9,0.3-1.9,0.3-2.9,0C11.8,17.7,11.8,17.7,11.8,17.6z"/>
						</g>
					</g>
					<g>
						
							<linearGradient id="SVGID_3_" gradientUnits="userSpaceOnUse" x1="354.322" y1="174.5942" x2="343.1432" y2="156.6054" gradientTransform="matrix(0.9967 8.140000e-02 8.140000e-02 -0.9967 -336.3493 147.4615)">
							<stop  offset="0" style="stop-color:#A737D5"/>
							<stop  offset="1" style="stop-color:#EF497A"/>
						</linearGradient>
						<path class="st6" d="M22.6,12.3c0.2,0.2,0.5,0.5,0.7,0.7v0.7c0,0.1,0.1,0,0.8,0.3c0.1,0,0.1,0,0.5-0.6c0.3,0,0.7,0,1-0.1
							l0.5,0.5c0,0,0.1,0,0.8-0.3c0,0,0,0,0-0.1l-0.1-0.7c0.2-0.2,0.5-0.5,0.7-0.7c0.7,0,0.7,0,0.7,0c0.2-0.8,0.3-0.8,0.2-0.8
							L28,10.7c0-0.3,0-0.7-0.1-1l0.5-0.5c0,0,0-0.1-0.3-0.8c0-0.1-0.1,0-0.7,0.1c-0.2-0.2-0.5-0.5-0.7-0.7V7.1c0-0.1-0.1,0-0.8-0.3
							c-0.1,0-0.1,0-0.5,0.6c-0.3,0-0.7,0-1,0.1L23.8,7c0,0,0,0-0.1,0L23,7.4c0,0,0,0,0,0.1l0.1,0.7c-0.2,0.2-0.5,0.5-0.7,0.7
							c-0.7,0-0.7,0-0.7,0c-0.2,0.8-0.3,0.8-0.2,0.8l0.5,0.4c0,0.3,0,0.7,0.1,1c-0.5,0.5-0.5,0.5-0.5,0.6l0.4,0.7
							C21.9,12.5,21.9,12.4,22.6,12.3z"/>
						<g>
							<path class="st5" d="M24.1,10.3c0-0.5,0.5-0.8,0.9-0.8c0.5,0,0.8,0.5,0.8,0.9c0,0.5-0.5,0.8-0.9,0.8l0,0
								C24.4,11.2,24.1,10.8,24.1,10.3z M24.9,11.1L24.9,11.1L24.9,11.1z M24.4,10.3c0,0.3,0.2,0.6,0.6,0.7l0,0c0.5,0,0.8-0.6,0.5-1
								C25.1,9.6,24.4,9.8,24.4,10.3z"/>
							<g>
								<path class="st3" d="M20.6,11.6c0-0.1-0.1-0.2-0.1-0.3c0,0,0-0.1,0.1-0.1c0.1,0,0.1,0.1,0.2,0.4c0,0,0,0.1-0.1,0.1
									S20.6,11.7,20.6,11.6z"/>
								<path class="st3" d="M20.4,10.1c0-0.2,0-0.5,0.1-0.7c0-0.1,0.2-0.1,0.2,0c-0.1,0.6,0,0.8-0.2,0.8
									C20.4,10.2,20.4,10.2,20.4,10.1z M20.9,8.4c0,0-0.1-0.1,0-0.1c0.1-0.2,0.2-0.4,0.4-0.6c0.1-0.1,0.2,0,0.2,0.1
									c-0.1,0.2-0.3,0.4-0.3,0.6C21,8.5,20.9,8.4,20.9,8.4z M22.1,7L22.1,7c-0.1-0.1,0-0.1,0-0.2c0.2-0.2,0.4-0.3,0.6-0.4
									c0,0,0.1,0,0.1,0c0,0,0,0.1,0,0.1c-0.2,0.1-0.4,0.3-0.5,0.4C22.1,7.1,22.1,7.1,22.1,7z M23.7,6.2
									C23.6,6.2,23.6,6.1,23.7,6.2c0-0.1,0-0.1,0-0.2c0.2-0.1,0.5-0.1,0.7-0.2c0,0,0.1,0,0.1,0.1c0,0,0,0.1-0.1,0.1
									c-0.2,0-0.5,0.1-0.7,0.2C23.7,6.2,23.7,6.2,23.7,6.2z M25.4,5.9C25.4,5.9,25.4,5.9,25.4,5.9c0.3,0,0.5,0,0.8,0.1
									c0.1,0,0.1,0.2,0,0.2C25.9,6.1,25.7,6,25.4,5.9C25.4,6,25.4,6,25.4,5.9z"/>
								<path class="st3" d="M27.5,6.8c-0.3-0.2-0.4-0.2-0.3-0.3c0,0,0.1,0,0.1,0c0.1,0.1,0.2,0.1,0.3,0.2c0,0,0,0.1,0,0.1
									C27.6,6.8,27.5,6.8,27.5,6.8z"/>
							</g>
							<g>
								<path class="st3" d="M29.3,9.9c0-0.3-0.1-0.4,0-0.4c0,0,0.1,0,0.1,0.1c0,0.1,0,0.2,0,0.3C29.5,9.9,29.4,9.9,29.3,9.9
									C29.3,9.9,29.3,9.9,29.3,9.9z"/>
								<path class="st3" d="M23.4,14.6c0-0.2,0.2,0,0.8,0.1c0.1,0,0.1,0.2,0,0.2C23.9,14.8,23.7,14.7,23.4,14.6
									C23.4,14.6,23.4,14.6,23.4,14.6z M25.2,14.8C25.2,14.8,25.2,14.8,25.2,14.8c0.7-0.1,0.8-0.3,0.8-0.1c0,0,0,0.1-0.1,0.1
									c-0.2,0-0.5,0.1-0.7,0.1C25.3,14.9,25.2,14.9,25.2,14.8z M26.9,14.4c-0.1-0.1,0.1-0.1,0.6-0.5c0.1-0.1,0.2,0.1,0.1,0.2
									c-0.2,0.2-0.4,0.3-0.6,0.4C27,14.5,27,14.4,26.9,14.4z M28.3,13.3c-0.1-0.1,0-0.1,0.4-0.7c0.1-0.1,0.2,0,0.2,0.1
									c-0.1,0.2-0.3,0.4-0.4,0.6C28.4,13.3,28.4,13.3,28.3,13.3z M29.2,11.6c0.2-0.6,0.1-0.7,0.2-0.7c0,0,0.1,0,0.1,0.1
									c0,0.2-0.1,0.5-0.2,0.7c0,0-0.1,0.1-0.1,0.1C29.2,11.7,29.2,11.7,29.2,11.6z"/>
								<path class="st3" d="M22.4,14.2c-0.1-0.1-0.2-0.1-0.3-0.2c0,0,0-0.1,0-0.1c0.1-0.1,0.2,0,0.4,0.2c0,0,0,0.1,0,0.1
									C22.6,14.2,22.5,14.2,22.4,14.2z"/>
							</g>
							<path class="st5" d="M23.9,12.2c-0.1,0-0.1-0.1,0-0.2c0-0.1,0.1-0.1,0.2,0c0.1,0.1,0.2,0.1,0.3,0.2c0,0,0.7,0.3,1.4-0.1
								c1.5-0.7,1.3-2.9-0.2-3.5c-0.9-0.3-1.9,0.1-2.3,1c-0.4,0.8,0,1.3-0.2,1.3c-0.1,0-0.2,0-0.2-0.1c-0.1-0.4-0.1-0.8,0.1-1.2
								c0.4-1.1,1.6-1.7,2.7-1.3c1.2,0.4,1.8,1.8,1.2,2.9c-0.5,0.9-1.5,1.5-2.6,1.1l0,0C24.1,12.3,24,12.3,23.9,12.2z"/>
						</g>
					</g>
				</g>
				<g>
					
						<linearGradient id="SVGID_4_" gradientUnits="userSpaceOnUse" x1="30.065" y1="21.8503" x2="29.4896" y2="33.2442" gradientTransform="matrix(1 0 0 -1 0 80)">
						<stop  offset="0" style="stop-color:#2B3582"/>
						<stop  offset="1" style="stop-color:#150E42"/>
					</linearGradient>
					<polygon class="st7" points="25.3,45.2 24.3,53.8 35.4,53.8 33.9,45.2 					"/>
					
						<linearGradient id="SVGID_5_" gradientUnits="userSpaceOnUse" x1="1.9984" y1="47.5203" x2="55.1481" y2="47.5203" gradientTransform="matrix(1 0 0 -1 0 80)">
						<stop  offset="0" style="stop-color:#2B3582"/>
						<stop  offset="1" style="stop-color:#150E42"/>
					</linearGradient>
					<path class="st8" d="M2,19.9v23.6c0,1.9,1.5,3.5,3.5,3.6c8.6,0.2,38.7,0.8,46.9,0.7c1.4,0,2.5-1.2,2.6-2.5
						c0.2-5.5,0.4-18.7-0.5-24.8c-0.2-1.3-1.3-2.2-2.6-2.3c-7.2-0.2-39.1-1-47.4-0.8C3.1,17.3,2,18.4,2,19.9z"/>
					
						<linearGradient id="SVGID_6_" gradientUnits="userSpaceOnUse" x1="45.3685" y1="60.3698" x2="-20.6926" y2="14.7304" gradientTransform="matrix(1 0 0 -1 0 80)">
						<stop  offset="0" style="stop-color:#FDF53F"/>
						<stop  offset="0.6645" style="stop-color:#E57A58"/>
						<stop  offset="1" style="stop-color:#D93C65"/>
					</linearGradient>
					<path class="st9" d="M3.5,19.7v22.4c0,1.1,0.9,2,2,2.1l45.7,0.6c1.1,0,2-0.9,2-2l0.1-22.2c0-0.8-0.7-1.5-1.4-1.5l-46.8-1
						C4.2,18.1,3.5,18.9,3.5,19.7z"/>
					<path class="st10" d="M4.8,20.4v21c0,1.1,0.8,1.9,1.9,1.9l43.5,0.5c1.1,0,1.9-0.8,2-1.9l0.1-20.8c0-0.8-0.6-1.4-1.4-1.4
						L6.3,18.9C5.5,18.9,4.8,19.6,4.8,20.4z"/>
					<path class="st11" d="M53.6,45.7L53.6,45.7L3.5,44.8c0,0-0.1,0-0.1-0.1c0,0,0-0.1,0.1-0.1l50.1,0.8
						C53.7,45.5,53.7,45.6,53.6,45.7C53.7,45.7,53.7,45.7,53.6,45.7z"/>
					<path class="st11" d="M29,46.7c-0.3,0-0.6-0.3-0.6-0.6c0-0.3,0.3-0.6,0.6-0.6c0.3,0,0.6,0.3,0.6,0.6
						C29.7,46.5,29.4,46.7,29,46.7z M29,45.7c-0.2,0-0.5,0.2-0.5,0.5s0.2,0.5,0.5,0.5c0.3,0,0.5-0.2,0.5-0.5S29.3,45.7,29,45.7z"/>
					
						<linearGradient id="SVGID_7_" gradientUnits="userSpaceOnUse" x1="30.0947" y1="26.1546" x2="24.8006" y2="14.5305" gradientTransform="matrix(1 0 0 -1 0 80)">
						<stop  offset="0" style="stop-color:#2B3582"/>
						<stop  offset="1" style="stop-color:#150E42"/>
					</linearGradient>
					<path class="st12" d="M37.8,55.5H21.6c-0.4,0-0.8-0.3-0.7-0.7l0.2-0.8c0.1-0.2,0.3-0.4,0.7-0.4l15.7-0.5c0.3,0,0.7,0.2,0.7,0.4
						l0.4,1.3C38.6,55.2,38.2,55.5,37.8,55.5z"/>
					<path class="st13" d="M30.3,53.9C30.3,53.9,30.2,53.8,30.3,53.9c-0.1-0.1,0-0.2,0-0.2H31c0,0,0.1,0,0.1,0.1c0,0,0,0.1-0.1,0.1
						H30.3L30.3,53.9z"/>
					<path class="st13" d="M21.5,55.1L21.5,55.1C21.4,55.1,21.4,55.1,21.5,55.1v-0.7c0-0.3,0.3-0.6,0.7-0.6l7.1-0.1
						c0,0,0.1,0,0.1,0.1c0,0,0,0.1-0.1,0.1L22.1,54c-0.3,0-0.5,0.2-0.5,0.5L21.5,55.1C21.5,55.1,21.5,55.1,21.5,55.1z"/>
				</g>
				<g>
					<path class="st14" d="M19,20.5l5.3,0c0.7,0,1.3,0.5,1.3,1.2l-0.5,11.4c0,0.6-0.6,1.1-1.2,1.1l-4.7,0c-0.7,0-1.3-0.5-1.3-1.2
						l-0.1-11.4C17.7,21.1,18.3,20.5,19,20.5z"/>
					<path class="st15" d="M23.1,36.5L6.4,36.7c-0.7,0-1.2,0.4-1.1,0.9L5.5,42c0,0.5,0.5,0.8,1.1,0.8h16.4c0.6,0,1.2-0.4,1.2-0.9
						v-4.6C24.3,36.9,23.8,36.5,23.1,36.5z"/>
					<path class="st15" d="M43.7,35.3L27,35.6c-0.7,0-1.2,0.5-1.1,1.1l0.3,5.4c0,0.6,0.5,1,1.1,1h16.4c0.6,0,1.2-0.5,1.2-1.1v-5.6
						C44.9,35.8,44.3,35.3,43.7,35.3z"/>
					<path class="st15" d="M15.7,20H7c-0.7,0-1.3,0.6-1.3,1.3v12.4c0,0.7,0.6,1.3,1.3,1.3h8.6c0.7,0,1.3-0.6,1.3-1.3V21.2
						C16.9,20.6,16.4,20,15.7,20z"/>
					<path class="st15" d="M37,24.8h-8.6c-0.7,0-1.3,0.3-1.3,0.7v6.6c0,0.4,0.6,0.7,1.3,0.7H37c0.7,0,1.3-0.3,1.3-0.7v-6.6
						C38.3,25.1,37.7,24.8,37,24.8z"/>
					<path class="st15" d="M51.4,24.2H41c-0.8,0-1.5,0.3-1.5,0.7v6.6c0,0.4,0.7,0.7,1.5,0.7h10.4c0.8,0,1.5-0.3,1.5-0.7v-6.6
						C52.9,24.5,52.2,24.2,51.4,24.2z"/>
				</g>
				<g>
					
						<linearGradient id="SVGID_8_" gradientUnits="userSpaceOnUse" x1="28.9059" y1="80.151" x2="15.9664" y2="54.9282" gradientTransform="matrix(1 0 0 -1 0 80)">
						<stop  offset="0" style="stop-color:#53D8FF"/>
						<stop  offset="1" style="stop-color:#3840F7"/>
					</linearGradient>
					<path class="st16" d="M17.3,25.1L17.1,24H16l-0.2,1.1h-0.8l1.1-4.3h1.1l1.1,4.3H17.3z M16.9,23.3l-0.2-1c0-0.1,0-0.2-0.1-0.5
						c0-0.2-0.1-0.4-0.1-0.5c0,0.2-0.1,0.3-0.1,0.5c0,0.2-0.2,0.7-0.3,1.4L16.9,23.3L16.9,23.3z"/>
					
						<linearGradient id="SVGID_9_" gradientUnits="userSpaceOnUse" x1="30.4673" y1="79.35" x2="17.5278" y2="54.1272" gradientTransform="matrix(1 0 0 -1 0 80)">
						<stop  offset="0" style="stop-color:#53D8FF"/>
						<stop  offset="1" style="stop-color:#3840F7"/>
					</linearGradient>
					<path class="st17" d="M20.9,22.1c0,0.5-0.1,0.8-0.3,1c-0.2,0.2-0.6,0.4-1,0.4h-0.2v1.6h-0.8v-4.3h1.1
						C20.4,20.8,20.9,21.2,20.9,22.1z M19.3,22.8h0.2c0.2,0,0.3,0,0.4-0.2c0.1-0.1,0.2-0.3,0.2-0.5c0-0.2,0-0.4-0.1-0.5
						c-0.1-0.1-0.2-0.2-0.4-0.2h-0.2L19.3,22.8L19.3,22.8z"/>
					
						<linearGradient id="SVGID_10_" gradientUnits="userSpaceOnUse" x1="32.7573" y1="78.1752" x2="19.8177" y2="52.9524" gradientTransform="matrix(1 0 0 -1 0 80)">
						<stop  offset="0" style="stop-color:#53D8FF"/>
						<stop  offset="1" style="stop-color:#3840F7"/>
					</linearGradient>
					<path class="st18" d="M23.8,22.1c0,0.5-0.1,0.8-0.3,1c-0.2,0.2-0.6,0.4-1,0.4h-0.2v1.6h-0.8v-4.3h1.1
						C23.3,20.8,23.8,21.2,23.8,22.1z M22.2,22.8h0.2c0.2,0,0.3,0,0.4-0.2c0.1-0.1,0.2-0.3,0.2-0.5c0-0.2,0-0.4-0.1-0.5
						c-0.1-0.1-0.2-0.2-0.4-0.2h-0.2L22.2,22.8L22.2,22.8z"/>
					
						<linearGradient id="SVGID_11_" gradientUnits="userSpaceOnUse" x1="35.6695" y1="76.6812" x2="22.7299" y2="51.4584" gradientTransform="matrix(1 0 0 -1 0 80)">
						<stop  offset="0" style="stop-color:#53D8FF"/>
						<stop  offset="1" style="stop-color:#3840F7"/>
					</linearGradient>
					<path class="st19" d="M25.1,23.4v1.7h-0.8v-4.3h1c0.5,0,0.8,0.1,1,0.3c0.2,0.2,0.3,0.5,0.3,1c0,0.5-0.2,0.9-0.5,1.2l0.8,1.9
						h-0.8l-0.7-1.7C25.4,23.4,25.1,23.4,25.1,23.4z M25.1,22.7h0.2c0.2,0,0.3,0,0.4-0.2c0.1-0.1,0.1-0.3,0.1-0.5
						c0-0.2,0-0.4-0.1-0.5s-0.2-0.2-0.4-0.2h-0.2V22.7z"/>
					
						<linearGradient id="SVGID_12_" gradientUnits="userSpaceOnUse" x1="38.127" y1="75.4205" x2="25.1874" y2="50.1977" gradientTransform="matrix(1 0 0 -1 0 80)">
						<stop  offset="0" style="stop-color:#53D8FF"/>
						<stop  offset="1" style="stop-color:#3840F7"/>
					</linearGradient>
					<path class="st20" d="M30.3,22.9c0,0.7-0.1,1.3-0.4,1.7c-0.3,0.4-0.7,0.6-1.2,0.6s-0.9-0.2-1.2-0.6c-0.3-0.4-0.4-0.9-0.4-1.7
						c0-0.7,0.1-1.3,0.4-1.7c0.3-0.4,0.7-0.6,1.2-0.6s0.9,0.2,1.2,0.6C30.2,21.7,30.3,22.2,30.3,22.9z M28,22.9
						c0,0.5,0.1,0.8,0.2,1.1c0.1,0.3,0.3,0.4,0.5,0.4c0.5,0,0.7-0.5,0.7-1.5c0-1-0.2-1.5-0.7-1.5c-0.2,0-0.4,0.1-0.5,0.4
						C28.1,22.1,28,22.4,28,22.9z"/>
					
						<linearGradient id="SVGID_13_" gradientUnits="userSpaceOnUse" x1="40.4021" y1="74.2533" x2="27.4626" y2="49.0306" gradientTransform="matrix(1 0 0 -1 0 80)">
						<stop  offset="0" style="stop-color:#53D8FF"/>
						<stop  offset="1" style="stop-color:#3840F7"/>
					</linearGradient>
					<path class="st21" d="M32.8,20.8h0.8l-1,4.3h-1l-1-4.3h0.8l0.6,2.6c0,0.2,0.1,0.5,0.2,1c0-0.3,0.1-0.7,0.2-1L32.8,20.8z"/>
					
						<linearGradient id="SVGID_14_" gradientUnits="userSpaceOnUse" x1="43.0507" y1="72.8946" x2="30.1111" y2="47.6718" gradientTransform="matrix(1 0 0 -1 0 80)">
						<stop  offset="0" style="stop-color:#53D8FF"/>
						<stop  offset="1" style="stop-color:#3840F7"/>
					</linearGradient>
					<path class="st22" d="M35.9,25.1H34v-4.3h1.9v0.7h-1.2v1h1v0.7h-1v1.2h1.2V25.1z"/>
					
						<linearGradient id="SVGID_15_" gradientUnits="userSpaceOnUse" x1="45.1197" y1="71.8332" x2="32.1801" y2="46.6104" gradientTransform="matrix(1 0 0 -1 0 80)">
						<stop  offset="0" style="stop-color:#53D8FF"/>
						<stop  offset="1" style="stop-color:#3840F7"/>
					</linearGradient>
					<path class="st23" d="M39.3,22.9c0,0.7-0.2,1.3-0.4,1.6c-0.3,0.4-0.7,0.6-1.2,0.6h-1.1v-4.3h1.2c0.5,0,0.9,0.2,1.2,0.5
						C39.1,21.7,39.3,22.2,39.3,22.9z M38.4,22.9c0-1-0.3-1.4-0.8-1.4h-0.3v2.9h0.3c0.3,0,0.5-0.1,0.7-0.4
						C38.4,23.8,38.4,23.4,38.4,22.9z"/>
				</g>
				<g>
					
						<linearGradient id="SVGID_16_" gradientUnits="userSpaceOnUse" x1="50.0307" y1="82.6534" x2="24.8457" y2="49.4232" gradientTransform="matrix(1 0 0 -1 0 80)">
						<stop  offset="0" style="stop-color:#53D8FF"/>
						<stop  offset="1" style="stop-color:#3840F7"/>
					</linearGradient>
					<path class="st24" d="M48.4,13.3c-3.4-0.1-20.2-0.7-23.6-0.8c-0.3,0-0.6,0.5-0.6,1.2v3c0,0.7,0.3,1.2,0.6,1.2h23.6
						c0.3,0,0.6-0.5,0.6-1.2v-2.2C49,13.8,48.7,13.3,48.4,13.3z"/>
					<g>
						
							<linearGradient id="SVGID_17_" gradientUnits="userSpaceOnUse" x1="6741.5044" y1="710.2401" x2="6737.3027" y2="702.4904" gradientTransform="matrix(-0.9972 7.470000e-02 -7.470000e-02 -0.9972 6801.4268 218.0001)">
							<stop  offset="0" style="stop-color:#FDF53F"/>
							<stop  offset="1" style="stop-color:#D93C65"/>
						</linearGradient>
						<path class="st25" d="M25.9,17.1l0.9-0.5c0.1,0,0.2,0,0.2,0l0.9,0.5c0.2,0.1,0.4,0,0.3-0.3l-0.2-1c0-0.1,0-0.2,0.1-0.2
							l0.7-0.7c0.2-0.2,0.1-0.4-0.2-0.4l-1-0.2c-0.1,0-0.2-0.1-0.2-0.1l-0.5-0.9c-0.1-0.2-0.3-0.2-0.4,0l-0.5,0.9
							c0,0.1-0.1,0.1-0.2,0.1l-1,0.2c-0.2,0-0.3,0.3-0.2,0.4l0.7,0.7c0,0,0.1,0.2,0.1,0.2l-0.2,1C25.6,17,25.8,17.2,25.9,17.1z"/>
					</g>
					<g>
						
							<linearGradient id="SVGID_18_" gradientUnits="userSpaceOnUse" x1="6736.7891" y1="709.7464" x2="6732.5874" y2="701.9968" gradientTransform="matrix(-0.9972 7.470000e-02 -7.470000e-02 -0.9972 6801.4268 218.0001)">
							<stop  offset="0" style="stop-color:#FDF53F"/>
							<stop  offset="1" style="stop-color:#D93C65"/>
						</linearGradient>
						<path class="st26" d="M30.7,17.2l0.9-0.5c0.1,0,0.2,0,0.2,0l0.9,0.5c0.2,0.1,0.4,0,0.3-0.3l-0.2-1c0-0.1,0-0.2,0.1-0.2
							l0.7-0.7c0.2-0.2,0.1-0.4-0.2-0.4l-1-0.2c-0.1,0-0.2-0.1-0.2-0.1l-0.5-0.9c-0.1-0.2-0.3-0.2-0.4,0L31,14.3
							c0,0.1-0.1,0.1-0.2,0.1l-1,0.2c-0.2,0-0.3,0.3-0.2,0.4l0.7,0.7c0,0,0.1,0.2,0.1,0.2l-0.2,1C30.3,17.2,30.5,17.3,30.7,17.2z"/>
					</g>
					<g>
						
							<linearGradient id="SVGID_19_" gradientUnits="userSpaceOnUse" x1="6732.0112" y1="709.3653" x2="6727.8096" y2="701.6157" gradientTransform="matrix(-0.9972 7.470000e-02 -7.470000e-02 -0.9972 6801.4268 218.0001)">
							<stop  offset="0" style="stop-color:#FDF53F"/>
							<stop  offset="1" style="stop-color:#D93C65"/>
						</linearGradient>
						<path class="st27" d="M35.5,17.2l0.9-0.5c0.1,0,0.2,0,0.2,0l0.9,0.5c0.2,0.1,0.4,0,0.3-0.3l-0.2-1c0-0.1,0-0.2,0.1-0.2
							l0.7-0.7c0.2-0.2,0.1-0.4-0.2-0.4l-1-0.2c-0.1,0-0.2-0.1-0.2-0.1l-0.5-0.9c-0.1-0.2-0.3-0.2-0.4,0l-0.5,0.9
							c0,0.1-0.1,0.1-0.2,0.1l-1,0.2c-0.2,0-0.3,0.3-0.2,0.4l0.7,0.7c0,0,0.1,0.2,0.1,0.2L35,17C35.1,17.2,35.3,17.3,35.5,17.2z"/>
					</g>
					<g>
						
							<linearGradient id="SVGID_20_" gradientUnits="userSpaceOnUse" x1="6727.3784" y1="708.9652" x2="6723.1768" y2="701.2155" gradientTransform="matrix(-0.9972 7.470000e-02 -7.470000e-02 -0.9972 6801.4268 218.0001)">
							<stop  offset="0" style="stop-color:#FDF53F"/>
							<stop  offset="1" style="stop-color:#D93C65"/>
						</linearGradient>
						<path class="st28" d="M40.1,17.3l0.9-0.5c0.1,0,0.2,0,0.2,0l0.9,0.5c0.2,0.1,0.4,0,0.3-0.3l-0.2-1c0-0.1,0-0.2,0.1-0.2
							l0.7-0.7c0.2-0.2,0.1-0.4-0.2-0.4l-1-0.2c-0.1,0-0.2-0.1-0.2-0.1l-0.5-0.9c-0.1-0.2-0.3-0.2-0.4,0l-0.5,0.9
							c0,0.1-0.1,0.1-0.2,0.1l-1,0.2c-0.2,0-0.3,0.3-0.2,0.4l0.7,0.7c0,0,0.1,0.2,0.1,0.2l-0.2,1C39.7,17.2,40,17.4,40.1,17.3z"/>
					</g>
					<g>
						
							<linearGradient id="SVGID_21_" gradientUnits="userSpaceOnUse" x1="6722.6753" y1="708.6046" x2="6718.4736" y2="700.8549" gradientTransform="matrix(-0.9972 7.470000e-02 -7.470000e-02 -0.9972 6801.4268 218.0001)">
							<stop  offset="0" style="stop-color:#FDF53F"/>
							<stop  offset="1" style="stop-color:#D93C65"/>
						</linearGradient>
						<path class="st29" d="M44.8,17.3l0.9-0.5c0.1,0,0.2,0,0.2,0l0.9,0.5c0.2,0.1,0.4,0,0.3-0.3l-0.2-1c0-0.1,0-0.2,0.1-0.2
							l0.7-0.7c0.2-0.2,0.1-0.4-0.2-0.4l-1-0.2c-0.1,0-0.2-0.1-0.2-0.1L46,13.5c-0.1-0.2-0.3-0.2-0.4,0l-0.5,0.9
							c0,0.1-0.1,0.1-0.2,0.1l-1,0.2c-0.2,0-0.3,0.3-0.2,0.4l0.7,0.7c0,0,0.1,0.2,0.1,0.2l-0.2,1C44.5,17.2,44.7,17.4,44.8,17.3z"/>
					</g>
				</g>
				<g>
					
						<linearGradient id="SVGID_22_" gradientUnits="userSpaceOnUse" x1="-618.374" y1="-2502.4717" x2="-638.4965" y2="-2534.6025" gradientTransform="matrix(0.9998 1.730000e-02 1.730000e-02 -0.9998 683.5254 -2457.7676)">
						<stop  offset="0" style="stop-color:#53D8FF"/>
						<stop  offset="1" style="stop-color:#3840F7"/>
					</linearGradient>
					<path class="st30" d="M7.6,31.2l14.9,0.1c0.8,0,1.5,0.7,1.5,1.5L25,54.3c0,0.7-0.5,1.2-1.1,1.2l-17,0.2c-0.6,0-1.1-0.5-1.1-1.1
						l0.2-21.7C5.9,31.9,6.7,31.2,7.6,31.2z"/>
					<path class="st13" d="M9.3,55.4L9.3,55.4l-1.9,0c-0.7,0-1.2-0.5-1.2-1.2l0-2.9c0,0,0,0,0,0c0,0,0,0,0,0l0,2.9
						c0,0.6,0.5,1.1,1.1,1.1l1.9,0C9.3,55.3,9.3,55.3,9.3,55.4C9.3,55.3,9.3,55.4,9.3,55.4z"/>
					<path class="st13" d="M6.3,50.4C6.2,50.4,6.2,50.4,6.3,50.4l0-0.5c0,0,0,0,0,0l0,0c0,0,0,0,0,0L6.3,50.4
						C6.4,50.4,6.3,50.4,6.3,50.4L6.3,50.4z"/>
					<g>
						
							<linearGradient id="SVGID_23_" gradientUnits="userSpaceOnUse" x1="-7.3886" y1="146.7273" x2="-26.8238" y2="118.1728" gradientTransform="matrix(0.9995 -3.070000e-02 -3.070000e-02 -0.9995 29.4134 186.0146)">
							<stop  offset="0" style="stop-color:#53D8FF"/>
							<stop  offset="1" style="stop-color:#3840F7"/>
						</linearGradient>
						<path class="st31" d="M7.7,31c2,0.3,9,1.2,14.8,0.8c0.3,0,0.5,0.2,0.5,0.5l1,21.7c0,0.3-0.2,0.5-0.5,0.6
							c-2.4,0.1-12.5,0.6-16,0.2c-0.2,0-0.4-0.2-0.4-0.4l0-22.8C7.1,31.2,7.4,30.9,7.7,31z"/>
						<path class="st32" d="M7.9,31.5c2,0.3,8.7,1.2,14.2,0.8c0.3,0,0.5,0.2,0.5,0.4l0.9,20.9c0,0.3-0.2,0.5-0.5,0.5
							c-2.4,0.1-12,0.6-15.4,0.2c-0.2,0-0.3-0.2-0.3-0.4l0-21.9C7.3,31.7,7.6,31.5,7.9,31.5z"/>
						<g class="st33">
							<path class="st13" d="M21.9,34.2c0.2,0,0.3-0.1,0.2-0.2c0-0.1-0.1-0.2-0.3-0.2L9.4,33.7c-0.2,0-0.2,0.1-0.1,0.2
								C9.4,34,9.6,34,9.7,34L21.9,34.2z"/>
						</g>
						<g class="st33">
							<path class="st13" d="M9.4,34.5c-0.2,0-0.2,0.1-0.1,0.2c0.1,0.1,0.3,0.2,0.4,0.2L21.8,35c0.2,0,0.3-0.1,0.2-0.2
								c0-0.1-0.1-0.2-0.3-0.2L9.4,34.5z"/>
						</g>
						<path class="st13" d="M11.4,42.1L11.4,42.1l-1.7,0c-0.2,0-0.5-0.2-0.5-0.4l-0.2-1.4c0-0.1,0-0.2,0.1-0.2C9.2,40,9.3,40,9.4,40
							l0,0c0.2,0,0.3,0,0.5,0c0.5,0,1-0.1,1.3-0.1l0,0c0.2,0,0.4,0.1,0.5,0.3c0.1,0.3,0.1,0.9,0.1,1.6
							C11.8,41.9,11.6,42.1,11.4,42.1z M9.4,40.1c-0.1,0-0.1,0-0.2,0.1c0,0,0,0.1,0,0.1l0.2,1.4c0,0.2,0.2,0.3,0.3,0.3l1.7,0l0,0
							c0.2,0,0.3-0.1,0.3-0.3c0-0.7,0-1.2-0.1-1.5c0-0.1-0.2-0.2-0.3-0.2C11,39.9,10.4,40,10,40C9.8,40.1,9.6,40.1,9.4,40.1
							L9.4,40.1z"/>
						<path class="st32" d="M9.6,40.2c0.3,0,1.1-0.1,1.5-0.2c0.2,0,0.3,0.1,0.3,0.2c0.1,0.3,0.1,0.8,0.1,1.2c0,0.2-0.1,0.3-0.3,0.3
							l-1.3,0c-0.2,0-0.3-0.1-0.3-0.3l-0.2-1.1C9.4,40.3,9.5,40.3,9.6,40.2z"/>
						<g class="st33">
							<path class="st13" d="M13,40.6c-0.2,0-0.2,0.1-0.2,0.2l0.1,0.3c0,0.2,0.2,0.2,0.3,0.2l8.2-0.2c0.2,0,0.3-0.1,0.2-0.3v-0.1
								c0-0.2-0.1-0.3-0.3-0.3L13,40.6z"/>
						</g>
						
							<linearGradient id="SVGID_24_" gradientUnits="userSpaceOnUse" x1="-1316.5796" y1="-5605.2168" x2="-1325.1351" y2="-5619.8193" gradientTransform="matrix(0.9998 -2.410000e-02 -2.410000e-02 -0.9998 1195.6583 -5602.4385)">
							<stop  offset="0" style="stop-color:#A737D5"/>
							<stop  offset="1" style="stop-color:#EF497A"/>
						</linearGradient>
						<path class="st34" d="M9.7,40.5L9.7,40.5c0.1-0.1,0.3,0,0.3,0.1l0.3,0.6c0,0.1,0.1,0,0.2,0l0.8-1.9c0-0.1,0.2-0.1,0.2,0
							c0,0.5-0.1,1.6-1,2.5c0,0-0.5-0.2-0.9-1C9.5,40.7,9.6,40.5,9.7,40.5z"/>
						<path class="st13" d="M11.5,38.3L11.5,38.3l-1.7,0c-0.2,0-0.5-0.2-0.5-0.4l-0.2-1.4c0-0.1,0-0.2,0.1-0.2
							c0.1-0.1,0.2-0.1,0.3-0.1l0,0c0.2,0,0.3,0,0.5,0c0.5,0,1-0.1,1.3-0.1l0,0c0.2,0,0.4,0.1,0.5,0.3c0.1,0.3,0.1,0.9,0.1,1.6
							C11.9,38.1,11.7,38.3,11.5,38.3z M9.5,36.3c-0.1,0-0.1,0-0.2,0.1c0,0,0,0.1,0,0.1l0.2,1.4c0,0.2,0.2,0.3,0.3,0.3l1.7,0l0,0
							c0.2,0,0.3-0.1,0.3-0.3c0-0.7,0-1.2-0.1-1.5c0-0.1-0.2-0.2-0.3-0.2c-0.3,0-0.8,0.1-1.3,0.1C9.8,36.3,9.6,36.3,9.5,36.3
							L9.5,36.3z"/>
						<path class="st32" d="M9.7,36.5c0.3,0,1.1-0.1,1.5-0.2c0.2,0,0.3,0.1,0.3,0.2c0.1,0.3,0.1,0.8,0.1,1.2c0,0.2-0.1,0.3-0.3,0.3
							l-1.3,0c-0.2,0-0.3-0.1-0.3-0.3l-0.2-1.1C9.4,36.6,9.6,36.5,9.7,36.5z"/>
						<g class="st33">
							<path class="st13" d="M13,36.8c-0.2,0-0.2,0.1-0.2,0.2l0.1,0.3c0,0.2,0.2,0.2,0.3,0.2l8.2-0.2c0.2,0,0.3-0.1,0.2-0.3v-0.1
								c0-0.2-0.1-0.3-0.3-0.3L13,36.8z"/>
						</g>
						
							<linearGradient id="SVGID_25_" gradientUnits="userSpaceOnUse" x1="-1316.4113" y1="-5601.4644" x2="-1324.9668" y2="-5616.0669" gradientTransform="matrix(0.9998 -2.410000e-02 -2.410000e-02 -0.9998 1195.6583 -5602.4385)">
							<stop  offset="0" style="stop-color:#A737D5"/>
							<stop  offset="1" style="stop-color:#EF497A"/>
						</linearGradient>
						<path class="st35" d="M9.8,36.7L9.8,36.7c0.1-0.1,0.3,0,0.3,0.1l0.3,0.6c0,0.1,0.1,0,0.2,0l0.8-1.9c0-0.1,0.2-0.1,0.2,0
							c0,0.5-0.1,1.6-1,2.5c0,0-0.5-0.2-0.9-1C9.6,36.9,9.6,36.7,9.8,36.7z"/>
						<path class="st13" d="M11.5,45.7C11.5,45.7,11.5,45.7,11.5,45.7l-1.7,0c-0.2,0-0.5-0.2-0.5-0.4l-0.2-1.4c0-0.1,0-0.2,0.1-0.2
							c0.1-0.1,0.2-0.1,0.3-0.1l0,0c0.2,0,0.3,0,0.5,0c0.5,0,1-0.1,1.3-0.1l0,0c0.2,0,0.4,0.1,0.5,0.3c0.1,0.3,0.1,0.9,0.1,1.6
							C11.9,45.5,11.8,45.7,11.5,45.7z M9.5,43.7c-0.1,0-0.1,0-0.2,0.1c0,0,0,0.1,0,0.1l0.2,1.4c0,0.2,0.2,0.3,0.3,0.3l1.7,0l0,0
							c0.2,0,0.3-0.1,0.3-0.3c0-0.7,0-1.2-0.1-1.5c0-0.1-0.2-0.2-0.3-0.2c-0.3,0-0.8,0.1-1.3,0.1C9.8,43.7,9.6,43.7,9.5,43.7
							L9.5,43.7z"/>
						<path class="st32" d="M9.7,43.8c0.3,0,1.1-0.1,1.5-0.2c0.2,0,0.3,0.1,0.3,0.2c0.1,0.3,0.1,0.8,0.1,1.2c0,0.2-0.1,0.3-0.3,0.3
							l-1.3,0c-0.2,0-0.3-0.1-0.3-0.3L9.5,44C9.5,44,9.6,43.8,9.7,43.8z"/>
						<g class="st33">
							<path class="st13" d="M13.1,44.2c-0.2,0-0.2,0.1-0.2,0.2l0.1,0.3c0,0.2,0.2,0.2,0.3,0.2l8.2-0.2c0.2,0,0.3-0.1,0.2-0.3v-0.1
								c0-0.2-0.1-0.3-0.3-0.3L13.1,44.2z"/>
						</g>
						
							<linearGradient id="SVGID_26_" gradientUnits="userSpaceOnUse" x1="-1315.0219" y1="-5606.1294" x2="-1323.5774" y2="-5620.7319" gradientTransform="matrix(0.9998 -2.410000e-02 -2.410000e-02 -0.9998 1195.6583 -5602.4385)">
							<stop  offset="0" style="stop-color:#A737D5"/>
							<stop  offset="1" style="stop-color:#EF497A"/>
						</linearGradient>
						<path class="st36" d="M9.8,44L9.8,44c0.1-0.1,0.3,0,0.3,0.1l0.3,0.6c0,0.1,0.1,0,0.2,0l0.8-1.9c0-0.1,0.2-0.1,0.2,0
							c0,0.5-0.1,1.6-1,2.5c0,0-0.5-0.2-0.9-1C9.6,44.3,9.6,44.1,9.8,44z"/>
						<path class="st13" d="M11.4,49.1L11.4,49.1l-1.7,0c-0.2,0-0.5-0.2-0.5-0.4l-0.2-1.4c0-0.1,0-0.2,0.1-0.2
							C9.2,47.1,9.3,47,9.4,47l0,0c0.2,0,0.3,0,0.5,0c0.4,0,1-0.1,1.3-0.1c0.2,0,0.4,0.1,0.5,0.3c0.1,0.3,0.1,0.9,0.1,1.6
							C11.9,48.9,11.7,49.1,11.4,49.1z M9.4,47.1c-0.1,0-0.1,0-0.2,0.1c0,0,0,0.1,0,0.1l0.2,1.4c0,0.2,0.2,0.3,0.3,0.3l1.7,0
							c0.2,0,0.3-0.1,0.3-0.3c0-0.7,0-1.2-0.1-1.5c0-0.1-0.2-0.2-0.3-0.2C11,46.9,10.5,47,10,47C9.8,47.1,9.6,47.1,9.4,47.1
							L9.4,47.1z"/>
						<path class="st32" d="M9.6,47.3c0.3,0,1.1-0.1,1.5-0.2c0.2,0,0.3,0.1,0.3,0.2c0.1,0.3,0.1,0.8,0.1,1.2c0,0.2-0.1,0.3-0.3,0.3
							l-1.3,0c-0.2,0-0.3-0.1-0.3-0.3l-0.2-1.1C9.4,47.4,9.5,47.3,9.6,47.3z"/>
						<g class="st33">
							<path class="st13" d="M13,47.6c-0.2,0-0.2,0.1-0.2,0.2l0.1,0.3c0,0.2,0.2,0.2,0.3,0.2l8.2-0.2c0.2,0,0.3-0.1,0.2-0.3v-0.1
								c0-0.2-0.1-0.3-0.3-0.3L13,47.6z"/>
						</g>
						
							<linearGradient id="SVGID_27_" gradientUnits="userSpaceOnUse" x1="-1313.8325" y1="-5609.6055" x2="-1325.0898" y2="-5625.3013" gradientTransform="matrix(0.9998 -2.410000e-02 -2.410000e-02 -0.9998 1195.6583 -5602.4385)">
							<stop  offset="0" style="stop-color:#A737D5"/>
							<stop  offset="1" style="stop-color:#EF497A"/>
						</linearGradient>
						<path class="st37" d="M9.7,47.5L9.7,47.5c0.1-0.1,0.3,0,0.3,0.1l0.3,0.6c0,0.1,0.1,0,0.2,0l0.8-1.9c0-0.1,0.2-0.1,0.2,0
							c0,0.5-0.1,1.6-1,2.5c0,0-0.5-0.2-0.9-1C9.5,47.7,9.6,47.6,9.7,47.5z"/>
						<path class="st13" d="M11.3,52.7L11.3,52.7l-1.7,0c-0.2,0-0.5-0.2-0.5-0.4L9,50.9c0-0.1,0-0.2,0.1-0.2
							c0.1-0.1,0.2-0.1,0.3-0.1l0,0c0.2,0,0.3,0,0.5,0c0.5,0,1-0.1,1.3-0.1c0.2,0,0.4,0.1,0.5,0.3c0.1,0.3,0.1,0.9,0.1,1.6
							C11.8,52.5,11.6,52.7,11.3,52.7z M9.3,50.7c-0.1,0-0.1,0-0.2,0.1c0,0,0,0.1,0,0.1l0.2,1.4c0,0.2,0.2,0.3,0.3,0.3l1.7,0l0,0
							c0.2,0,0.3-0.1,0.3-0.3c0-0.7,0-1.2-0.1-1.5c0-0.1-0.2-0.2-0.3-0.2c-0.3,0-0.8,0.1-1.3,0.1C9.7,50.7,9.5,50.7,9.3,50.7
							L9.3,50.7z"/>
						<path class="st32" d="M9.5,50.8c0.3,0,1.1-0.1,1.5-0.2c0.2,0,0.3,0.1,0.3,0.2c0.1,0.3,0.1,0.8,0.1,1.2c0,0.2-0.1,0.3-0.3,0.3
							l-1.3,0c-0.2,0-0.3-0.1-0.3-0.3l-0.2-1.1C9.3,50.9,9.4,50.9,9.5,50.8z"/>
						<g class="st33">
							<path class="st13" d="M12.9,51.2c-0.2,0-0.2,0.1-0.2,0.2l0.1,0.3c0,0.2,0.2,0.2,0.3,0.2l8.2-0.2c0.2,0,0.3-0.1,0.2-0.3v-0.1
								c0-0.2-0.1-0.3-0.3-0.3L12.9,51.2z"/>
						</g>
						
							<linearGradient id="SVGID_28_" gradientUnits="userSpaceOnUse" x1="-1312.2146" y1="-5607.7998" x2="-1320.7701" y2="-5622.4019" gradientTransform="matrix(0.9998 -2.410000e-02 -2.410000e-02 -0.9998 1195.6583 -5602.4385)">
							<stop  offset="0" style="stop-color:#A737D5"/>
							<stop  offset="1" style="stop-color:#EF497A"/>
						</linearGradient>
						<path class="st38" d="M9.6,51.1L9.6,51.1c0.1-0.1,0.3,0,0.3,0.1l0.3,0.6c0,0.1,0.1,0,0.2,0l0.8-1.9c0-0.1,0.2-0.1,0.2,0
							c0,0.5-0.1,1.6-1,2.5c0,0-0.5-0.2-0.9-1C9.4,51.3,9.5,51.1,9.6,51.1z"/>
					</g>
					
						<linearGradient id="SVGID_29_" gradientUnits="userSpaceOnUse" x1="1040.3929" y1="-2002.0947" x2="1033.7589" y2="-2010.8217" gradientTransform="matrix(0.8781 0.4785 0.4785 -0.8781 63.3006 -2228.2168)">
						<stop  offset="0" style="stop-color:#2B3582"/>
						<stop  offset="1" style="stop-color:#150E42"/>
					</linearGradient>
					<path class="st39" d="M16,28.3c-0.5-0.4-1-0.4-1.3-0.3c-0.3,0.1-0.5,0.4-0.5,0.7l0.1,1.5l1.7,0.2C16,30.4,17.1,29,16,28.3z
						 M15.3,29.5c-0.2,0-0.4-0.2-0.4-0.4c0-0.2,0.2-0.4,0.4-0.4c0.2,0,0.4,0.2,0.4,0.4C15.7,29.3,15.5,29.5,15.3,29.5z"/>
					<path class="st13" d="M14.5,29.6C14.5,29.6,14.5,29.6,14.5,29.6l-0.1-0.3c0,0,0-0.1,0.1-0.1c0,0,0.1,0,0.1,0.1l0,0.2
						C14.6,29.6,14.6,29.6,14.5,29.6C14.5,29.7,14.5,29.7,14.5,29.6z M14.5,29.2C14.4,29.2,14.4,29.1,14.5,29.2l0-0.3
						c0-0.3,0.2-0.6,0.5-0.7c0.2-0.1,0.4-0.1,0.7,0c0,0,0.1,0,0.1,0.1c0,0,0,0.1-0.1,0.1c-0.2,0-0.4,0-0.5,0
						c-0.2,0.1-0.4,0.3-0.3,0.5v0.2C14.6,29.1,14.5,29.2,14.5,29.2C14.5,29.2,14.5,29.2,14.5,29.2z"/>
					
						<linearGradient id="SVGID_30_" gradientUnits="userSpaceOnUse" x1="-1108.7321" y1="-5488.0244" x2="-1115.5806" y2="-5497.0332" gradientTransform="matrix(1 8.300000e-03 8.300000e-03 -1 1172.7209 -5452.1792)">
						<stop  offset="0" style="stop-color:#2B3582"/>
						<stop  offset="1" style="stop-color:#150E42"/>
					</linearGradient>
					<path class="st40" d="M12,31.2v-0.8c0-0.3,0.2-0.5,0.5-0.5l5.4,0.2c0.2,0,0.4,0.2,0.4,0.4l0,0.7L12,31.2z"/>
					<path class="st13" d="M13.8,30.3C13.8,30.3,13.8,30.2,13.8,30.3C13.8,30.2,13.8,30.2,13.8,30.3l0.2-0.1c0,0,0,0,0,0
						c0,0,0,0,0,0H13.8L13.8,30.3z"/>
					<path class="st13" d="M12.3,31C12.3,31,12.3,31,12.3,31l0-0.4c0-0.1,0-0.2,0.2-0.3c0.1-0.1,0.2-0.2,0.3-0.2h0.8
						c0,0,0.1,0,0.1,0.1s0,0.1-0.1,0.1h-0.8c-0.2,0-0.3,0.2-0.3,0.3v0.3C12.4,31,12.4,31,12.3,31C12.3,31,12.3,31,12.3,31z"/>
					
						<linearGradient id="SVGID_31_" gradientUnits="userSpaceOnUse" x1="-1109.5615" y1="-5488.5972" x2="-1114.2903" y2="-5497.2803" gradientTransform="matrix(1 8.300000e-03 8.300000e-03 -1 1172.7209 -5452.1792)">
						<stop  offset="0" style="stop-color:#2B3582"/>
						<stop  offset="1" style="stop-color:#150E42"/>
					</linearGradient>
					<path class="st41" d="M10.4,30.9l9.4,0.1c0.3,0,0.6,0.2,0.7,0.6v0c0.1,0.3-0.2,0.7-0.6,0.7l-9.6-0.1c-0.2,0-0.4-0.2-0.4-0.4
						l0-0.4C9.9,31.1,10.1,30.9,10.4,30.9z"/>
				</g>
				<g>
					<g>
						<g>
							<g>
								<g>
									
										<linearGradient id="SVGID_32_" gradientUnits="userSpaceOnUse" x1="8799.751" y1="24.3872" x2="8802.7568" y2="24.3872" gradientTransform="matrix(-1 0 0 -1 8848.9053 80)">
										<stop  offset="0" style="stop-color:#53D8FF"/>
										<stop  offset="1" style="stop-color:#3840F7"/>
									</linearGradient>
									<path class="st42" d="M46.2,55.5c0.5,0,1.4,0.1,2.1,0.2c0.4,0,0.7,0,0.8-0.1v0c0,0.1-0.1,0.1-0.2,0.2c-1.3,0.1-2.4,0-2.8,0
										c-0.1,0-0.1-0.1-0.1-0.2C46.2,55.5,46.2,55.5,46.2,55.5z"/>
									
										<linearGradient id="SVGID_33_" gradientUnits="userSpaceOnUse" x1="8799.751" y1="24.9804" x2="8802.6719" y2="24.9804" gradientTransform="matrix(-1 0 0 -1 8848.9053 80)">
										<stop  offset="0" style="stop-color:#2B3582"/>
										<stop  offset="1" style="stop-color:#150E42"/>
									</linearGradient>
									<path class="st43" d="M48.4,55.6c-0.7,0-1.6-0.1-2.1-0.2c0.5-0.6,2.1-1,2.1-1h0.5c0.3,0.5,0.3,0.9,0.3,1.1
										C49,55.6,48.8,55.6,48.4,55.6z"/>
									
										<linearGradient id="SVGID_34_" gradientUnits="userSpaceOnUse" x1="8800.0283" y1="25.7979" x2="8800.875" y2="25.7979" gradientTransform="matrix(-1 0 0 -1 8848.9053 80)">
										<stop  offset="0" style="stop-color:#F9B776"/>
										<stop  offset="1" style="stop-color:#F47960"/>
									</linearGradient>
									<path class="st44" d="M48.9,53.7l0,0.8c0,0.1-0.1,0.2-0.2,0.2c-0.1,0-0.2,0-0.3,0c-0.1,0-0.2-0.1-0.2-0.2L48,53.7
										L48.9,53.7L48.9,53.7z"/>
								</g>
								<g>
									<g>
										
											<linearGradient id="SVGID_35_" gradientUnits="userSpaceOnUse" x1="8793.7578" y1="24.448" x2="8794.9102" y2="24.448" gradientTransform="matrix(-1 0 0 -1 8848.9053 80)">
											<stop  offset="0" style="stop-color:#53D8FF"/>
											<stop  offset="1" style="stop-color:#3840F7"/>
										</linearGradient>
										<path class="st45" d="M54.8,55.6c0.2,0,0.3-0.2,0.4-0.3l0,0c0,0.1,0,0.3-0.2,0.3c-0.2,0.1-0.4,0.1-0.5,0.1
											s-0.3-0.1-0.4-0.2l0,0C54.2,55.6,54.4,55.6,54.8,55.6z"/>
										
											<linearGradient id="SVGID_36_" gradientUnits="userSpaceOnUse" x1="8793.7666" y1="25.3417" x2="8795.458" y2="25.3417" gradientTransform="matrix(-1 0 0 -1 8848.9053 80)">
											<stop  offset="0" style="stop-color:#2B3582"/>
											<stop  offset="1" style="stop-color:#150E42"/>
										</linearGradient>
										<path class="st46" d="M53.7,53.7h0.4c0.6,0,0.9,1.2,1,1.7c0,0.1-0.2,0.2-0.4,0.3c-0.4,0-0.6,0-0.8,0
											c-0.3-0.4-0.5-1-0.5-1.3C53.4,53.8,53.7,53.7,53.7,53.7z"/>
									</g>
									
										<linearGradient id="SVGID_37_" gradientUnits="userSpaceOnUse" x1="8794.6455" y1="26.4922" x2="8795.6582" y2="26.4922" gradientTransform="matrix(-1 0 0 -1 8848.9053 80)">
										<stop  offset="0" style="stop-color:#F9B776"/>
										<stop  offset="1" style="stop-color:#F47960"/>
									</linearGradient>
									<path class="st47" d="M54,52.9l0.2,0.8c0,0.1,0,0.2-0.1,0.3c-0.1,0.1-0.3,0.1-0.4,0.1c-0.1,0-0.1-0.1-0.2-0.1l-0.3-0.9
										L54,52.9z"/>
								</g>
								
									<linearGradient id="SVGID_38_" gradientUnits="userSpaceOnUse" x1="56.1459" y1="55.358" x2="50.8425" y2="34.3971" gradientTransform="matrix(1 0 0 -1 0 80)">
									<stop  offset="0" style="stop-color:#53D8FF"/>
									<stop  offset="1" style="stop-color:#3840F7"/>
								</linearGradient>
								<path class="st48" d="M54.3,53.1c-0.3,0.2-1.1,0.3-1.1,0.3c-3-7.3-4.3-8.3-4.3-8.3C49.3,47.9,49,54,49,54
									c-0.5,0.2-1.2,0-1.2,0c0-4.5-0.7-8.4-1.5-11.5c2,0,3.1-0.7,3.5-1C51.5,44.2,54.3,53.1,54.3,53.1z"/>
								
									<linearGradient id="SVGID_39_" gradientUnits="userSpaceOnUse" x1="48.8509" y1="48.6528" x2="44.9365" y2="35.3945" gradientTransform="matrix(1 0 0 -1 0 80)">
									<stop  offset="0" style="stop-color:#A737D5"/>
									<stop  offset="1" style="stop-color:#EF497A"/>
								</linearGradient>
								<path class="st49" d="M49.3,33c0.4,1.9,0.2,5.4,0.2,7c0,0.5,0.3,1,0.5,1.5c0,0.1,0,0.2,0,0.2c-0.4,0.2-1.9,0.9-3.5,1
									c-0.1,0-0.2-0.1-0.2-0.2C45,37.9,43.6,35,43.6,35C45.1,32.5,49.3,33,49.3,33z"/>
								
									<linearGradient id="SVGID_40_" gradientUnits="userSpaceOnUse" x1="46.3303" y1="57.3617" x2="47.8453" y2="39.0552" gradientTransform="matrix(1 0 0 -1 0 80)">
									<stop  offset="0" style="stop-color:#CB236D"/>
									<stop  offset="1" style="stop-color:#4C246D"/>
								</linearGradient>
								<path class="st50" d="M48.7,44.9L48.7,44.9c0.1,0,0.1-0.1,0.1-0.1c0,0-0.4-0.7-1.2-1c0,0-0.1,0-0.1,0c0,0,0,0.1,0,0.1
									C48.2,44.3,48.6,44.9,48.7,44.9C48.7,44.9,48.7,44.9,48.7,44.9z"/>
								<g>
									
										<linearGradient id="SVGID_41_" gradientUnits="userSpaceOnUse" x1="8799.2705" y1="41.2626" x2="8795.668" y2="38.0726" gradientTransform="matrix(-1 0 0 -1 8848.9053 80)">
										<stop  offset="0" style="stop-color:#F9B776"/>
										<stop  offset="1" style="stop-color:#F47960"/>
									</linearGradient>
									<path class="st51" d="M51.7,38.6c-0.1,0.9-0.5,1.9-1.2,2.9l-0.3-0.2c0,0,0.3-1.3,0.2-2.8C50.8,38.4,51.3,38.5,51.7,38.6z"
										/>
									
										<linearGradient id="SVGID_42_" gradientUnits="userSpaceOnUse" x1="51.572" y1="47.8494" x2="47.6576" y2="34.5911" gradientTransform="matrix(1 0 0 -1 0 80)">
										<stop  offset="0" style="stop-color:#A737D5"/>
										<stop  offset="1" style="stop-color:#EF497A"/>
									</linearGradient>
									<path class="st52" d="M48.9,35.4l0.4-2.4c0,0,2.9,2.2,2.4,5.6c-0.4-0.1-0.9-0.2-1.3-0.1C50.2,37.4,49.8,36.2,48.9,35.4z"/>
								</g>
								<g>
									
										<linearGradient id="SVGID_43_" gradientUnits="userSpaceOnUse" x1="45.7401" y1="49.5712" x2="41.8257" y2="36.3129" gradientTransform="matrix(1 0 0 -1 0 80)">
										<stop  offset="0" style="stop-color:#A737D5"/>
										<stop  offset="1" style="stop-color:#EF497A"/>
									</linearGradient>
									<path class="st53" d="M43.5,35l1.1,2.4c-0.2,1.5-1,2.1-1.8,2.3c0-0.7-0.2-1.2-0.4-1.6C43.6,37,43.5,35,43.5,35z"/>
									
										<linearGradient id="SVGID_44_" gradientUnits="userSpaceOnUse" x1="8806.0352" y1="40.9429" x2="8808.8721" y2="40.9429" gradientTransform="matrix(-1 0 0 -1 8848.9053 80)">
										<stop  offset="0" style="stop-color:#F9B776"/>
										<stop  offset="1" style="stop-color:#F47960"/>
									</linearGradient>
									<path class="st54" d="M42.5,38.1c0.2,0.4,0.3,0.9,0.4,1.6c-2.2,0.9-2.9-0.8-2.9-0.8l0.4-0.1C41.4,38.9,42,38.6,42.5,38.1z"
										/>
								</g>
								
									<linearGradient id="SVGID_45_" gradientUnits="userSpaceOnUse" x1="8803.292" y1="48.5294" x2="8803.2607" y2="43.2315" gradientTransform="matrix(-1 0 0 -1 8848.9053 80)">
									<stop  offset="0" style="stop-color:#F9B776"/>
									<stop  offset="1" style="stop-color:#F47960"/>
								</linearGradient>
								<path class="st55" d="M44.6,32l0.5,2c0.1,0.2,0.3,0.3,0.5,0.3c0.2-0.1,0.5-0.2,0.8-0.3c0.3-0.2,0.3-0.5,0.2-0.7l-1.1-1.7
									L44.6,32z"/>
							</g>
							
								<linearGradient id="SVGID_46_" gradientUnits="userSpaceOnUse" x1="8795.3916" y1="38.8857" x2="8810.2461" y2="38.8857" gradientTransform="matrix(-1 0 0 -1 8848.9053 80)">
								<stop  offset="0" style="stop-color:#2B3582"/>
								<stop  offset="1" style="stop-color:#150E42"/>
							</linearGradient>
							<path class="st56" d="M39,37.6l13.8,5c0.6,0.2,0.8,0.9,0.6,1.4l0,0.1c-0.2,0.5-0.8,0.7-1.3,0.5l-13.4-6.2L39,37.6z"/>
							
								<linearGradient id="SVGID_47_" gradientUnits="userSpaceOnUse" x1="8809.418" y1="45.4489" x2="8823.0547" y2="45.4489" gradientTransform="matrix(-1 0 0 -1 8848.9053 80)">
								<stop  offset="0" style="stop-color:#B37CFF"/>
								<stop  offset="1" style="stop-color:#F895E7"/>
							</linearGradient>
							<ellipse class="st57" cx="32.7" cy="34.6" rx="6.8" ry="6.7"/>
							
								<linearGradient id="SVGID_48_" gradientUnits="userSpaceOnUse" x1="8808.6621" y1="45.4489" x2="8823.8359" y2="45.4489" gradientTransform="matrix(-1 0 0 -1 8848.9053 80)">
								<stop  offset="0" style="stop-color:#2B3582"/>
								<stop  offset="1" style="stop-color:#150E42"/>
							</linearGradient>
							<path class="st58" d="M25.1,34.6c0,4.1,3.4,7.4,7.6,7.4s7.6-3.3,7.6-7.4s-3.4-7.4-7.6-7.4S25.1,30.4,25.1,34.6z M26.2,34.6
								c0-3.5,2.9-6.4,6.5-6.4s6.5,2.9,6.5,6.4s-2.9,6.4-6.5,6.4S26.2,38.1,26.2,34.6z"/>
							<path class="st13" d="M39.7,35.4L39.7,35.4C39.6,35.4,39.6,35.4,39.7,35.4c0-0.2,0-0.4,0-0.6c0,0,0,0,0,0c0,0,0,0,0,0
								C39.7,35.1,39.7,35.2,39.7,35.4L39.7,35.4z M39.6,33.4L39.6,33.4c-0.1-0.5-0.3-1-0.4-1.4l0,0c-1.1-2.6-3.6-4.3-6.5-4.3
								c-1.3,0-2.7,0.4-3.8,1.1h0v0c1.1-0.7,2.5-1.1,3.8-1.1c2.9,0,5.5,1.7,6.6,4.4C39.4,32.4,39.6,32.9,39.6,33.4
								C39.6,33.4,39.6,33.4,39.6,33.4L39.6,33.4z"/>
							
								<linearGradient id="SVGID_49_" gradientUnits="userSpaceOnUse" x1="8800.7109" y1="39.6362" x2="8797.1084" y2="36.4462" gradientTransform="matrix(-1 0 0 -1 8848.9053 80)">
								<stop  offset="0" style="stop-color:#F9B776"/>
								<stop  offset="1" style="stop-color:#F47960"/>
							</linearGradient>
							<path class="st59" d="M50.3,41.2L49,41.1l-0.6,0.5c0,0,0.1,0.2,0.5,0.1c0.4-0.1,1-0.1,1-0.1s0.6,0.3,0.6-0.2L50.3,41.2z"/>
							
								<linearGradient id="SVGID_50_" gradientUnits="userSpaceOnUse" x1="8808.5703" y1="41.257" x2="8809.5869" y2="41.257" gradientTransform="matrix(-1 0 0 -1 8848.9053 80)">
								<stop  offset="0" style="stop-color:#F9B776"/>
								<stop  offset="1" style="stop-color:#F47960"/>
							</linearGradient>
							<path class="st60" d="M40.2,39.2c-0.1,0.1-0.5-0.1-0.7-0.2c-0.1-0.1-0.2-0.2-0.1-0.3c0-0.2,0.2-0.4,0.3-0.4
								C39.8,38.2,40.7,38.8,40.2,39.2z"/>
							<path class="st13" d="M52.6,44.4C52.5,44.4,52.5,44.4,52.6,44.4C52.5,44.3,52.5,44.3,52.6,44.4c0.4-0.2,0.6-0.4,0.6-0.7
								c0-0.3-0.2-0.6-0.5-0.7L51,42.3c0,0,0,0,0,0c0,0,0,0,0,0l1.7,0.7c0.3,0.1,0.5,0.4,0.5,0.8C53.2,44,53,44.2,52.6,44.4
								L52.6,44.4z"/>
							<path class="st13" d="M50.5,42.1L50.5,42.1L50.3,42c0,0,0,0,0,0c0,0,0,0,0,0L50.5,42.1C50.6,42.1,50.6,42.1,50.5,42.1
								C50.6,42.1,50.5,42.1,50.5,42.1z"/>
							<g>
								
									<linearGradient id="SVGID_51_" gradientUnits="userSpaceOnUse" x1="6471.5493" y1="49.0026" x2="6468.999" y2="47.0511" gradientTransform="matrix(-1 0 0 -1 6515.9053 80)">
									<stop  offset="0" style="stop-color:#F9B776"/>
									<stop  offset="1" style="stop-color:#F47960"/>
								</linearGradient>
								<path class="st61" d="M44.5,30.1c0,0-0.5,1-0.5,1.6c0,0.5-0.2,0.9,0.5,1c0.6,0.1,1.2-0.2,1.4-0.7c0,0,0.5-0.8,0.3-1.2
									C46.1,30.4,44.5,30.1,44.5,30.1z"/>
								
									<linearGradient id="SVGID_52_" gradientUnits="userSpaceOnUse" x1="6469.7466" y1="50.5724" x2="6472.0562" y2="47.5988" gradientTransform="matrix(-1 0 0 -1 6515.9053 80)">
									<stop  offset="0" style="stop-color:#2B3582"/>
									<stop  offset="1" style="stop-color:#150E42"/>
								</linearGradient>
								<path class="st62" d="M45.7,31.5L45.7,31.5c-0.1,0,0.2-0.7,0-0.8c-0.3-0.1-1.4-0.3-1.7-0.7s0-0.9,0.3-1c0,0,0,0,0,0l0,0
									c0,0,0.1,0,0.1,0l0,0c0,0,0,0,0.1,0c0.1,0.1,0.3,0.3,0.8,0.4c0.8,0.2,1.3,0.5,1.3,1c0,0,0,0,0.1,0c0,0,0.2,0,0.3,0
									c0.2,0.2,0.1,0.7-0.3,1c0,0,0,0,0,0.1c0.1,0,0.2,0.2-0.1,0.3c-0.3,0.2-0.5,0.2-0.6,0.2c0,0,0,0,0,0l0-0.5c0,0,0,0,0,0
									L45.7,31.5L45.7,31.5z"/>
								
									<linearGradient id="SVGID_53_" gradientUnits="userSpaceOnUse" x1="6471.2314" y1="49.4181" x2="6468.6812" y2="47.4665" gradientTransform="matrix(-1 0 0 -1 6515.9053 80)">
									<stop  offset="0" style="stop-color:#F9B776"/>
									<stop  offset="1" style="stop-color:#F47960"/>
								</linearGradient>
								<path class="st63" d="M45.7,31.6c0,0,0.2-0.7,0.5-0.5c0.3,0.2-0.2,0.7-0.4,0.8L45.7,31.6z"/>
							</g>
						</g>
					</g>
				</g>
				
					<linearGradient id="SVGID_54_" gradientUnits="userSpaceOnUse" x1="40.8759" y1="58.7961" x2="28.1392" y2="40.7113" gradientTransform="matrix(1 0 0 -1 0 80)">
					<stop  offset="0" style="stop-color:#53D8FF"/>
					<stop  offset="1" style="stop-color:#3840F7"/>
				</linearGradient>
				<path class="st64" d="M29,32.1c1.2,1.1,2.2,2.3,3,3.5c1.3-2.9,2.7-5.7,4.2-8.1l3.7-1.2c-2.5,3.3-5.2,8.2-7.5,13.1
					c-1.7-2.4-3.3-4.7-4.5-5.5L29,32.1z"/>
			</g>
		</g>
	</g>
</g>
<g>
	<g>
		<path class="st13" d="M99.6,17.5h4.3l5,15.8h-3.8l-2.1-8c-0.4-1.6-0.9-3.5-1.3-5.1h-0.1c-0.4,1.7-0.8,3.5-1.3,5.1l-2.1,8h-3.6
			L99.6,17.5z M97.9,26.7h7.6v2.8h-7.6V26.7z"/>
		<path class="st13" d="M110.3,21.3h2.9l0.2,1.2h0.1c0.9-0.8,2.2-1.5,3.5-1.5c2.9,0,4.7,2.4,4.7,6.1c0,4.1-2.5,6.5-5.1,6.5
			c-1,0-2-0.4-2.9-1.3l0.1,1.9v3.5h-3.6L110.3,21.3L110.3,21.3z M118,27.1c0-2.2-0.7-3.3-2.1-3.3c-0.7,0-1.4,0.3-2.1,1.1v5
			c0.6,0.6,1.3,0.8,1.9,0.8C117,30.6,118,29.6,118,27.1z"/>
		<path class="st13" d="M124.2,21.3h2.9l0.2,1.2h0.1c0.9-0.8,2.2-1.5,3.5-1.5c2.9,0,4.7,2.4,4.7,6.1c0,4.1-2.5,6.5-5.1,6.5
			c-1,0-2-0.4-2.9-1.3l0.1,1.9v3.5h-3.6L124.2,21.3L124.2,21.3z M131.9,27.1c0-2.2-0.7-3.3-2.1-3.3c-0.7,0-1.4,0.3-2.1,1.1v5
			c0.6,0.6,1.3,0.8,1.9,0.8C131,30.6,131.9,29.6,131.9,27.1z"/>
		<path class="st13" d="M138.1,21.3h2.9l0.2,2.1h0.1c0.9-1.6,2.2-2.4,3.4-2.4c0.7,0,1.1,0.1,1.5,0.2l-0.6,3.1
			c-0.4-0.1-0.8-0.2-1.3-0.2c-0.9,0-2,0.6-2.7,2.2v7h-3.6L138.1,21.3L138.1,21.3z"/>
		<path class="st13" d="M147.1,27.3c0-4,2.8-6.3,5.9-6.3c3.1,0,5.9,2.3,5.9,6.3s-2.8,6.3-5.9,6.3C149.9,33.6,147.1,31.3,147.1,27.3z
			 M155.2,27.3c0-2.1-0.7-3.5-2.2-3.5c-1.5,0-2.2,1.4-2.2,3.5c0,2.1,0.7,3.5,2.2,3.5C154.4,30.7,155.2,29.4,155.2,27.3z"/>
		<path class="st13" d="M160,21.3h3.6l1.6,5.7c0.3,1.2,0.6,2.4,0.9,3.7h0.1c0.3-1.3,0.6-2.5,0.9-3.7l1.6-5.7h3.4l-3.9,12.1H164
			L160,21.3z"/>
		<path class="st13" d="M173.5,30c0-2.5,2-3.9,6.8-4.4c0-1.1-0.6-1.7-1.9-1.7c-1,0-2,0.4-3.2,1.1l-1.3-2.3c1.5-0.9,3.3-1.6,5.2-1.6
			c3.1,0,4.8,1.8,4.8,5.4v6.9h-2.9l-0.2-1.2h-0.1c-1,0.9-2.1,1.5-3.5,1.5C174.9,33.6,173.5,32,173.5,30z M180.3,29.8v-2.1
			c-2.5,0.3-3.4,1.1-3.4,2c0,0.8,0.5,1.2,1.4,1.2C179.1,30.8,179.6,30.4,180.3,29.8z"/>
		<path class="st13" d="M186.8,29.6V16.2h3.6v13.5c0,0.8,0.3,1,0.6,1c0.1,0,0.2,0,0.4,0l0.4,2.6c-0.4,0.1-1,0.3-1.8,0.3
			C187.6,33.6,186.8,32,186.8,29.6z"/>
		<path class="st13" d="M197.9,31.3l2-2.5c1.1,1,2.6,1.7,3.9,1.7c1.5,0,2.2-0.6,2.2-1.5c0-1-0.9-1.3-2.3-1.9l-2-0.9
			c-1.7-0.7-3.2-2-3.2-4.3c0-2.6,2.3-4.7,5.6-4.7c1.8,0,3.7,0.7,5.1,2.1l-1.8,2.2c-1-0.8-2-1.3-3.3-1.3c-1.2,0-2,0.5-2,1.4
			c0,1,1,1.3,2.4,1.9l2,0.8c1.9,0.8,3.2,2.1,3.2,4.3c0,2.6-2.2,4.9-6,4.9C201.7,33.6,199.5,32.8,197.9,31.3z"/>
		<path class="st13" d="M212.6,28.9V24H211v-2.7l1.8-0.1l0.4-3.2h3v3.2h2.9V24h-2.9v4.8c0,1.4,0.6,1.9,1.6,1.9
			c0.4,0,0.8-0.1,1.2-0.2l0.6,2.6c-0.6,0.2-1.5,0.4-2.7,0.4C213.8,33.6,212.6,31.7,212.6,28.9z"/>
		<path class="st13" d="M220.9,30c0-2.5,2-3.9,6.8-4.4c0-1.1-0.6-1.7-1.9-1.7c-1,0-2,0.4-3.2,1.1l-1.3-2.3c1.5-0.9,3.3-1.6,5.2-1.6
			c3.1,0,4.8,1.8,4.8,5.4v6.9h-2.9l-0.2-1.2H228c-1,0.9-2.1,1.5-3.5,1.5C222.3,33.6,220.9,32,220.9,30z M227.7,29.8v-2.1
			c-2.5,0.3-3.4,1.1-3.4,2c0,0.8,0.5,1.2,1.4,1.2C226.5,30.8,227.1,30.4,227.7,29.8z"/>
		<path class="st13" d="M234.8,28.9V24h-1.7v-2.7l1.8-0.1l0.4-3.2h3v3.2h2.9V24h-2.9v4.8c0,1.4,0.6,1.9,1.6,1.9
			c0.4,0,0.8-0.1,1.2-0.2l0.6,2.6c-0.6,0.2-1.5,0.4-2.7,0.4C235.9,33.6,234.8,31.7,234.8,28.9z"/>
		<path class="st13" d="M243.5,28.7v-7.5h3.6v7c0,1.7,0.5,2.3,1.5,2.3c0.9,0,1.5-0.4,2.1-1.3v-8h3.6v12.1h-2.9l-0.2-1.7H251
			c-1,1.2-2.1,1.9-3.8,1.9C244.6,33.6,243.5,31.8,243.5,28.7z"/>
		<path class="st13" d="M256.3,31.9l1.6-2.2c1.1,0.8,2.1,1.3,3.1,1.3c1.1,0,1.5-0.4,1.5-1c0-0.8-1.2-1.2-2.4-1.7
			c-1.5-0.6-3.2-1.6-3.2-3.5c0-2.2,1.8-3.8,4.6-3.8c1.8,0,3.2,0.7,4.2,1.5l-1.6,2.1c-0.9-0.6-1.7-1-2.5-1c-0.9,0-1.4,0.3-1.4,1
			c0,0.8,1.1,1.1,2.4,1.5c1.5,0.6,3.3,1.4,3.3,3.6c0,2.2-1.7,3.9-5,3.9C259.4,33.6,257.6,32.9,256.3,31.9z"/>
	</g>
</g>
<g>
	<g>
		<g>
			<path class="st13" d="M97.5,45.8h-2.9v-1h7v1h-2.9v8.6h-1.2L97.5,45.8L97.5,45.8z"/>
			<path class="st13" d="M103.2,44h1.2v2.8l0,1.5c0.7-0.6,1.4-1.2,2.3-1.2c1.5,0,2.2,1,2.2,2.8v4.5h-1.2V50c0-1.3-0.4-1.9-1.4-1.9
				c-0.7,0-1.2,0.4-1.9,1.1v5.2h-1.2L103.2,44L103.2,44z"/>
			<path class="st13" d="M110.9,45c0-0.5,0.3-0.8,0.8-0.8c0.5,0,0.8,0.3,0.8,0.8c0,0.4-0.3,0.8-0.8,0.8
				C111.3,45.8,110.9,45.5,110.9,45z M111.2,47.3h1.2v7.1h-1.2V47.3z"/>
			<path class="st13" d="M114,53.5l0.6-0.8c0.6,0.5,1.3,0.8,2.1,0.8c0.9,0,1.4-0.5,1.4-1.1c0-0.7-0.8-1.1-1.6-1.4
				c-1-0.3-2.1-0.9-2.1-2c0-1.1,0.9-2,2.4-2c0.9,0,1.7,0.3,2.2,0.8l-0.6,0.8c-0.5-0.3-1-0.6-1.6-0.6c-0.9,0-1.3,0.5-1.3,1
				c0,0.7,0.8,0.9,1.6,1.2c1,0.4,2.1,0.8,2.1,2.1c0,1.2-0.9,2.1-2.6,2.1C115.6,54.6,114.6,54.1,114,53.5z"/>
			<path class="st13" d="M122.9,47.3h1.2l1.1,4.1c0.1,0.7,0.3,1.3,0.4,2h0c0.1-0.7,0.3-1.3,0.5-2l1.1-4.1h1.2l1.1,4.1
				c0.2,0.7,0.3,1.3,0.5,2h0c0.1-0.7,0.3-1.3,0.4-2l1-4.1h1.2l-1.9,7.1h-1.5l-1-3.8c-0.2-0.7-0.3-1.3-0.5-2h-0.1
				c-0.1,0.7-0.3,1.4-0.5,2l-1,3.8h-1.5L122.9,47.3z"/>
			<path class="st13" d="M134,45c0-0.5,0.3-0.8,0.8-0.8c0.5,0,0.8,0.3,0.8,0.8c0,0.4-0.3,0.8-0.8,0.8C134.4,45.8,134,45.5,134,45z
				 M134.3,47.3h1.2v7.1h-1.2V47.3z"/>
			<path class="st13" d="M137.8,53V44h1.2v9c0,0.4,0.1,0.5,0.3,0.5c0,0,0.1,0,0.2,0l0.1,0.9c-0.2,0-0.4,0.1-0.7,0.1
				C138.2,54.6,137.8,54,137.8,53z"/>
			<path class="st13" d="M141.6,53V44h1.2v9c0,0.4,0.1,0.5,0.3,0.5c0,0,0.1,0,0.2,0l0.1,0.9c-0.2,0-0.4,0.1-0.7,0.1
				C141.9,54.6,141.6,54,141.6,53z"/>
			<path class="st13" d="M147.7,50.8c0-2.3,1.5-3.7,3.1-3.7c0.8,0,1.4,0.3,2,0.8l0-1.2V44h1.2v10.4h-1l-0.1-0.8h0
				c-0.5,0.5-1.3,1-2.1,1C148.9,54.6,147.7,53.2,147.7,50.8z M152.7,52.6v-3.7c-0.6-0.5-1.2-0.7-1.8-0.7c-1.1,0-2,1.1-2,2.7
				c0,1.7,0.7,2.7,1.9,2.7C151.5,53.5,152.1,53.2,152.7,52.6z"/>
			<path class="st13" d="M156.1,45c0-0.5,0.3-0.8,0.8-0.8c0.5,0,0.8,0.3,0.8,0.8c0,0.4-0.3,0.8-0.8,0.8
				C156.4,45.8,156.1,45.5,156.1,45z M156.3,47.3h1.2v7.1h-1.2V47.3z"/>
			<path class="st13" d="M159.1,53.5l0.6-0.8c0.6,0.5,1.3,0.8,2.1,0.8c0.9,0,1.4-0.5,1.4-1.1c0-0.7-0.8-1.1-1.6-1.4
				c-1-0.3-2.1-0.9-2.1-2c0-1.1,0.9-2,2.4-2c0.9,0,1.7,0.3,2.2,0.8l-0.6,0.8c-0.5-0.3-1-0.6-1.6-0.6c-0.9,0-1.3,0.5-1.3,1
				c0,0.7,0.8,0.9,1.6,1.2c1,0.4,2.1,0.8,2.1,2.1c0,1.2-0.9,2.1-2.6,2.1C160.7,54.6,159.7,54.1,159.1,53.5z"/>
			<path class="st13" d="M166,47.3h1l0.1,0.8h0c0.6-0.5,1.5-1,2.2-1c1.8,0,2.8,1.4,2.8,3.6c0,2.4-1.5,3.8-3.1,3.8
				c-0.6,0-1.3-0.3-1.9-0.8l0,1.2v2.4H166L166,47.3L166,47.3z M170.9,50.7c0-1.6-0.5-2.6-1.8-2.6c-0.6,0-1.2,0.3-1.9,1v3.7
				c0.6,0.5,1.3,0.7,1.8,0.7C170.1,53.5,170.9,52.5,170.9,50.7z"/>
			<path class="st13" d="M174.1,53V44h1.2v9c0,0.4,0.1,0.5,0.3,0.5c0,0,0.1,0,0.2,0l0.1,0.9c-0.2,0-0.4,0.1-0.7,0.1
				C174.4,54.6,174.1,54,174.1,53z"/>
			<path class="st13" d="M177.3,52.5c0-1.6,1.3-2.3,4.4-2.6c0-0.9-0.3-1.8-1.5-1.8c-0.8,0-1.6,0.4-2.1,0.8l-0.5-0.8
				c0.6-0.4,1.7-0.9,2.8-0.9c1.8,0,2.5,1.2,2.5,2.9v4.3h-1l-0.1-0.8h-0.1c-0.7,0.6-1.5,1-2.3,1C178.3,54.6,177.3,53.8,177.3,52.5z
				 M181.7,52.6v-1.9c-2.4,0.3-3.2,0.9-3.2,1.8c0,0.8,0.5,1.1,1.3,1.1C180.5,53.6,181,53.2,181.7,52.6z"/>
			<path class="st13" d="M184.4,57.3l0.2-1c0.1,0,0.3,0.1,0.5,0.1c0.8,0,1.3-0.6,1.6-1.5l0.1-0.5l-2.9-7.1h1.2l1.5,3.9
				c0.2,0.6,0.4,1.4,0.7,2h0c0.2-0.6,0.4-1.4,0.6-2l1.3-3.9h1.2l-2.7,7.7c-0.5,1.4-1.2,2.5-2.7,2.5
				C184.9,57.4,184.7,57.4,184.4,57.3z"/>
			<path class="st13" d="M195.1,52.2v-3.9H194v-0.9l1.1,0l0.1-2h1v2h1.9v1h-1.9v3.9c0,0.9,0.3,1.4,1.1,1.4c0.2,0,0.6-0.1,0.8-0.2
				l0.2,0.9c-0.4,0.1-0.9,0.2-1.3,0.2C195.6,54.6,195.1,53.6,195.1,52.2z"/>
			<path class="st13" d="M199.8,44h1.2v2.8l0,1.5c0.7-0.6,1.4-1.2,2.3-1.2c1.5,0,2.2,1,2.2,2.8v4.5h-1.2V50c0-1.3-0.4-1.9-1.4-1.9
				c-0.7,0-1.2,0.4-1.9,1.1v5.2h-1.2L199.8,44L199.8,44z"/>
			<path class="st13" d="M207.2,50.8c0-2.3,1.6-3.7,3.2-3.7c1.8,0,2.8,1.3,2.8,3.3c0,0.2,0,0.5,0,0.7h-4.8c0.1,1.5,1,2.5,2.3,2.5
				c0.7,0,1.2-0.2,1.8-0.6l0.4,0.8c-0.6,0.4-1.4,0.7-2.3,0.7C208.7,54.6,207.2,53.2,207.2,50.8z M212.1,50.2c0-1.4-0.6-2.2-1.8-2.2
				c-1,0-1.9,0.8-2,2.2H212.1z"/>
			<path class="st13" d="M217.1,53.5l0.6-0.8c0.6,0.5,1.3,0.8,2.1,0.8c0.9,0,1.4-0.5,1.4-1.1c0-0.7-0.8-1.1-1.6-1.4
				c-1-0.3-2.1-0.9-2.1-2c0-1.1,0.9-2,2.4-2c0.9,0,1.7,0.3,2.2,0.8l-0.6,0.8c-0.5-0.3-1-0.6-1.6-0.6c-0.9,0-1.3,0.5-1.3,1
				c0,0.7,0.8,0.9,1.6,1.2c1,0.4,2.1,0.8,2.1,2.1c0,1.2-0.9,2.1-2.6,2.1C218.7,54.6,217.8,54.1,217.1,53.5z"/>
			<path class="st13" d="M224.2,52.2v-3.9h-1.1v-0.9l1.1,0l0.1-2h1v2h1.9v1h-1.9v3.9c0,0.9,0.3,1.4,1.1,1.4c0.2,0,0.6-0.1,0.8-0.2
				l0.2,0.9c-0.4,0.1-0.9,0.2-1.3,0.2C224.7,54.6,224.2,53.6,224.2,52.2z"/>
			<path class="st13" d="M228.5,52.5c0-1.6,1.3-2.3,4.4-2.6c0-0.9-0.3-1.8-1.5-1.8c-0.8,0-1.6,0.4-2.1,0.8l-0.5-0.8
				c0.6-0.4,1.7-0.9,2.8-0.9c1.8,0,2.5,1.2,2.5,2.9v4.3h-1l-0.1-0.8h0c-0.7,0.6-1.5,1-2.3,1C229.4,54.6,228.5,53.8,228.5,52.5z
				 M232.9,52.6v-1.9c-2.4,0.3-3.2,0.9-3.2,1.8c0,0.8,0.5,1.1,1.3,1.1C231.6,53.6,232.1,53.2,232.9,52.6z"/>
			<path class="st13" d="M236.5,52.2v-3.9h-1.1v-0.9l1.1,0l0.1-2h1v2h1.9v1h-1.9v3.9c0,0.9,0.3,1.4,1.1,1.4c0.2,0,0.6-0.1,0.8-0.2
				l0.2,0.9c-0.4,0.1-0.9,0.2-1.3,0.2C237,54.6,236.5,53.6,236.5,52.2z"/>
			<path class="st13" d="M241.1,51.8v-4.5h1.2v4.3c0,1.3,0.4,1.9,1.4,1.9c0.7,0,1.2-0.3,1.9-1.2v-5h1.2v7.1h-1l-0.1-1.1h0
				c-0.7,0.8-1.4,1.3-2.3,1.3C241.8,54.6,241.1,53.6,241.1,51.8z"/>
			<path class="st13" d="M248.4,53.5l0.6-0.8c0.6,0.5,1.3,0.8,2.1,0.8c0.9,0,1.4-0.5,1.4-1.1c0-0.7-0.8-1.1-1.6-1.4
				c-1-0.3-2.1-0.9-2.1-2c0-1.1,0.9-2,2.4-2c0.9,0,1.7,0.3,2.2,0.8l-0.6,0.8c-0.5-0.3-1-0.6-1.6-0.6c-0.9,0-1.3,0.5-1.3,1
				c0,0.7,0.8,0.9,1.6,1.2c1,0.4,2.1,0.8,2.1,2.1c0,1.2-0.9,2.1-2.6,2.1C250,54.6,249,54.1,248.4,53.5z"/>
			<path class="st13" d="M257.6,50.8c0-2.4,1.6-3.7,3.3-3.7c1.7,0,3.3,1.4,3.3,3.7c0,2.3-1.6,3.7-3.3,3.7
				C259.2,54.5,257.6,53.2,257.6,50.8z M262.9,50.8c0-1.6-0.8-2.7-2-2.7c-1.2,0-2,1.1-2,2.7s0.8,2.7,2,2.7
				C262.1,53.5,262.9,52.5,262.9,50.8z"/>
			<path class="st13" d="M265.3,47.4l1,0h2.6v1h-3.6V47.4z M266.3,46.2c0-1.5,0.6-2.3,2.1-2.3c0.4,0,0.9,0.1,1.2,0.2l-0.2,0.9
				c-0.3-0.1-0.5-0.2-0.8-0.2c-0.7,0-1,0.5-1,1.4v8.2h-1.2L266.3,46.2L266.3,46.2z"/>
			<path class="st13" d="M273.4,52.2v-3.9h-1.1v-0.9l1.1,0l0.1-2h1v2h1.9v1h-1.9v3.9c0,0.9,0.3,1.4,1.1,1.4c0.2,0,0.6-0.1,0.8-0.2
				l0.2,0.9c-0.4,0.1-0.9,0.2-1.3,0.2C274,54.6,273.4,53.6,273.4,52.2z"/>
			<path class="st13" d="M278.2,44h1.2v2.8l0,1.5c0.7-0.6,1.4-1.2,2.3-1.2c1.5,0,2.2,1,2.2,2.8v4.5h-1.2V50c0-1.3-0.4-1.9-1.4-1.9
				c-0.7,0-1.2,0.4-1.9,1.1v5.2h-1.2L278.2,44L278.2,44z"/>
			<path class="st13" d="M285.6,50.8c0-2.3,1.6-3.7,3.2-3.7c1.8,0,2.8,1.3,2.8,3.3c0,0.2,0,0.5,0,0.7h-4.8c0.1,1.5,1,2.5,2.3,2.5
				c0.7,0,1.2-0.2,1.8-0.6l0.4,0.8c-0.6,0.4-1.4,0.7-2.3,0.7C287.1,54.6,285.6,53.2,285.6,50.8z M290.5,50.2c0-1.4-0.6-2.2-1.8-2.2
				c-1,0-1.9,0.8-2,2.2H290.5z"/>
		</g>
		<g>
			<path class="st13" d="M94.6,71l0.6-0.8c0.6,0.5,1.3,0.8,2.1,0.8c0.9,0,1.4-0.5,1.4-1.1c0-0.7-0.8-1.1-1.6-1.4
				c-1-0.3-2.1-0.9-2.1-2c0-1.1,0.9-2,2.4-2c0.9,0,1.7,0.3,2.2,0.8L99,66.1c-0.5-0.3-1-0.6-1.6-0.6c-0.9,0-1.3,0.5-1.3,1
				c0,0.7,0.8,0.9,1.6,1.2c1,0.4,2.1,0.8,2.1,2.1c0,1.2-0.9,2.1-2.6,2.1C96.3,72.1,95.3,71.6,94.6,71z"/>
			<path class="st13" d="M101.8,69.7v-3.9h-1.1v-0.9l1.1,0l0.1-2h1v2h1.9v1H103v3.9c0,0.9,0.3,1.4,1.1,1.4c0.2,0,0.6-0.1,0.8-0.2
				l0.2,0.9c-0.4,0.1-0.9,0.2-1.3,0.2C102.2,72.1,101.8,71.1,101.8,69.7z"/>
			<path class="st13" d="M106.4,69.3v-4.5h1.2v4.3c0,1.3,0.4,1.9,1.4,1.9c0.7,0,1.2-0.3,1.9-1.2v-5h1.2v7.1h-1l-0.1-1.1h0
				c-0.7,0.8-1.4,1.3-2.3,1.3C107.1,72.1,106.4,71.1,106.4,69.3z"/>
			<path class="st13" d="M113.9,68.3c0-2.3,1.5-3.7,3.1-3.7c0.8,0,1.4,0.3,2,0.8l0-1.2v-2.7h1.2v10.4h-1l-0.1-0.8h0
				c-0.5,0.5-1.3,1-2.1,1C115,72.1,113.9,70.7,113.9,68.3z M118.9,70.1v-3.7c-0.6-0.5-1.2-0.7-1.8-0.7c-1.1,0-2,1.1-2,2.7
				c0,1.7,0.7,2.7,1.9,2.7C117.7,71,118.3,70.7,118.9,70.1z"/>
			<path class="st13" d="M122,68.3c0-2.3,1.6-3.7,3.2-3.7c1.8,0,2.8,1.3,2.8,3.3c0,0.2,0,0.5,0,0.7h-4.8c0.1,1.5,1,2.5,2.3,2.5
				c0.7,0,1.2-0.2,1.8-0.6l0.4,0.8c-0.6,0.4-1.4,0.7-2.3,0.7C123.5,72.1,122,70.7,122,68.3z M126.9,67.7c0-1.4-0.6-2.2-1.8-2.2
				c-1,0-1.9,0.8-2,2.2H126.9z"/>
			<path class="st13" d="M129.7,64.8h1l0.1,1h0c0.7-0.7,1.4-1.2,2.4-1.2c1.5,0,2.2,1,2.2,2.8v4.5h-1.2v-4.3c0-1.3-0.4-1.9-1.4-1.9
				c-0.7,0-1.2,0.4-1.9,1.1v5.2h-1.2V64.8z"/>
			<path class="st13" d="M137.9,69.7v-3.9h-1.1v-0.9l1.1,0l0.1-2h1v2h1.9v1h-1.9v3.9c0,0.9,0.3,1.4,1.1,1.4c0.2,0,0.6-0.1,0.8-0.2
				l0.2,0.9c-0.4,0.1-0.9,0.2-1.3,0.2C138.4,72.1,137.9,71.1,137.9,69.7z"/>
			<path class="st13" d="M142.3,65c0.7-0.5,1.1-1,1.1-1.8l-0.2-1l0.6,0.7c-0.2,0.2-0.3,0.2-0.6,0.2c-0.4,0-0.8-0.2-0.8-0.7
				s0.3-0.8,0.8-0.8c0.6,0,0.9,0.5,0.9,1.3c0,1.2-0.5,2-1.6,2.6L142.3,65z"/>
			<path class="st13" d="M145.5,71l0.6-0.8c0.6,0.5,1.3,0.8,2.1,0.8c0.9,0,1.4-0.5,1.4-1.1c0-0.7-0.8-1.1-1.6-1.4
				c-1-0.3-2.1-0.9-2.1-2c0-1.1,0.9-2,2.4-2c0.9,0,1.7,0.3,2.2,0.8l-0.6,0.8c-0.5-0.3-1-0.6-1.6-0.6c-0.9,0-1.3,0.5-1.3,1
				c0,0.7,0.8,0.9,1.6,1.2c1,0.4,2.1,0.8,2.1,2.1c0,1.2-0.9,2.1-2.6,2.1C147.1,72.1,146.1,71.6,145.5,71z"/>
			<path class="st13" d="M154.8,70c0-1.6,1.3-2.3,4.4-2.6c0-0.9-0.3-1.8-1.5-1.8c-0.8,0-1.6,0.4-2.1,0.8l-0.5-0.8
				c0.6-0.4,1.7-0.9,2.8-0.9c1.8,0,2.5,1.2,2.5,2.9v4.3h-1l-0.1-0.8h0c-0.7,0.6-1.5,1-2.3,1C155.7,72.1,154.8,71.3,154.8,70z
				 M159.2,70.1v-1.9c-2.4,0.3-3.2,0.9-3.2,1.8c0,0.8,0.5,1.1,1.3,1.1C157.9,71.1,158.5,70.7,159.2,70.1z"/>
			<path class="st13" d="M162.6,64.8h1l0.1,0.8h0c0.6-0.5,1.5-1,2.2-1c1.8,0,2.8,1.4,2.8,3.6c0,2.4-1.5,3.8-3.1,3.8
				c-0.6,0-1.3-0.3-1.9-0.8l0,1.2v2.4h-1.2L162.6,64.8L162.6,64.8z M167.6,68.2c0-1.6-0.5-2.6-1.8-2.6c-0.6,0-1.2,0.3-1.9,1v3.7
				c0.6,0.5,1.3,0.7,1.8,0.7C166.7,71,167.6,70,167.6,68.2z"/>
			<path class="st13" d="M170.7,64.8h1l0.1,0.8h0c0.6-0.5,1.5-1,2.2-1c1.8,0,2.8,1.4,2.8,3.6c0,2.4-1.5,3.8-3.1,3.8
				c-0.6,0-1.3-0.3-1.9-0.8l0,1.2v2.4h-1.2L170.7,64.8L170.7,64.8z M175.7,68.2c0-1.6-0.5-2.6-1.8-2.6c-0.6,0-1.2,0.3-1.9,1v3.7
				c0.6,0.5,1.3,0.7,1.8,0.7C174.8,71,175.7,70,175.7,68.2z"/>
			<path class="st13" d="M178.8,70.5v-8.9h1.2v9c0,0.4,0.1,0.5,0.3,0.5c0,0,0.1,0,0.2,0l0.1,0.9c-0.1,0-0.4,0.1-0.7,0.1
				C179.2,72.1,178.8,71.5,178.8,70.5z"/>
			<path class="st13" d="M182.3,62.5c0-0.5,0.3-0.8,0.8-0.8c0.5,0,0.8,0.3,0.8,0.8c0,0.4-0.3,0.8-0.8,0.8
				C182.7,63.3,182.3,63,182.3,62.5z M182.5,64.8h1.2v7.1h-1.2V64.8z"/>
			<path class="st13" d="M185.6,68.3c0-2.4,1.6-3.7,3.4-3.7c0.9,0,1.6,0.4,2.1,0.8l-0.6,0.8c-0.4-0.4-0.8-0.6-1.4-0.6
				c-1.3,0-2.2,1.1-2.2,2.7c0,1.6,0.9,2.7,2.2,2.7c0.6,0,1.2-0.3,1.7-0.7l0.5,0.8c-0.6,0.6-1.5,0.9-2.3,0.9
				C187,72.1,185.6,70.7,185.6,68.3z"/>
			<path class="st13" d="M192.3,70c0-1.6,1.3-2.3,4.4-2.6c0-0.9-0.3-1.8-1.5-1.8c-0.8,0-1.6,0.4-2.1,0.8l-0.5-0.8
				c0.6-0.4,1.7-0.9,2.8-0.9c1.8,0,2.5,1.2,2.5,2.9v4.3h-1l-0.1-0.8h0c-0.7,0.6-1.5,1-2.3,1C193.2,72.1,192.3,71.3,192.3,70z
				 M196.7,70.1v-1.9c-2.4,0.3-3.2,0.9-3.2,1.8c0,0.8,0.5,1.1,1.3,1.1C195.4,71.1,196,70.7,196.7,70.1z"/>
			<path class="st13" d="M200.3,69.7v-3.9h-1.1v-0.9l1.1,0l0.1-2h1v2h1.9v1h-1.9v3.9c0,0.9,0.3,1.4,1.1,1.4c0.2,0,0.6-0.1,0.8-0.2
				l0.2,0.9c-0.4,0.1-0.9,0.2-1.3,0.2C200.8,72.1,200.3,71.1,200.3,69.7z"/>
			<path class="st13" d="M204.8,62.5c0-0.5,0.3-0.8,0.8-0.8c0.5,0,0.8,0.3,0.8,0.8c0,0.4-0.3,0.8-0.8,0.8
				C205.2,63.3,204.8,63,204.8,62.5z M205.1,64.8h1.2v7.1h-1.2V64.8z"/>
			<path class="st13" d="M208.1,68.3c0-2.4,1.6-3.7,3.3-3.7s3.3,1.4,3.3,3.7c0,2.3-1.6,3.7-3.3,3.7S208.1,70.7,208.1,68.3z
				 M213.5,68.3c0-1.6-0.8-2.7-2-2.7c-1.2,0-2,1.1-2,2.7c0,1.6,0.8,2.7,2,2.7C212.6,71,213.5,70,213.5,68.3z"/>
			<path class="st13" d="M216.5,64.8h1l0.1,1h0c0.7-0.7,1.4-1.2,2.4-1.2c1.5,0,2.2,1,2.2,2.8v4.5H221v-4.3c0-1.3-0.4-1.9-1.4-1.9
				c-0.7,0-1.2,0.4-1.9,1.1v5.2h-1.2L216.5,64.8L216.5,64.8z"/>
			<path class="st13" d="M224.3,71.1c0-0.5,0.4-0.9,0.9-0.9s0.9,0.4,0.9,0.9c0,0.5-0.4,0.9-0.9,0.9S224.3,71.7,224.3,71.1z"/>
		</g>
	</g>
</g>
</svg>
