<?xml version="1.0" encoding="utf-8"?>
<!-- Generator: Adobe Illustrator 25.2.1, SVG Export Plug-In . SVG Version: 6.00 Build 0)  -->
<svg version="1.1" id="Layer_1" xmlns="http://www.w3.org/2000/svg" xmlns:xlink="http://www.w3.org/1999/xlink" x="0px" y="0px"
	 viewBox="0 0 840 350" style="enable-background:new 0 0 840 350;" xml:space="preserve">
<style type="text/css">
	.st0{fill:#834F9A;}
	.st1{fill:none;stroke:#00ADA6;stroke-width:4;stroke-miterlimit:10;}
	.st2{fill:#FFFFFF;}
	.st3{fill:#59B996;}
	.st4{opacity:0.3;fill:url(#SVGID_1_);}
	.st5{fill:#EAC4F9;}
	.st6{fill:url(#SVGID_2_);}
	.st7{opacity:0.42;fill:#FFFFFF;}
	.st8{fill:url(#SVGID_3_);}
	.st9{fill:url(#SVGID_4_);}
	.st10{fill:url(#SVGID_5_);}
	.st11{fill:url(#SVGID_6_);}
	.st12{opacity:0.16;fill:#FFFFFF;}
	.st13{opacity:0.65;fill:#FFFFFF;}
	.st14{fill:url(#SVGID_7_);}
	.st15{opacity:0.22;fill:#FFFFFF;}
	.st16{opacity:0.2;fill:#FFFFFF;}
	.st17{fill:url(#SVGID_8_);}
	.st18{fill:url(#SVGID_9_);}
	.st19{fill:url(#SVGID_10_);}
	.st20{fill:url(#SVGID_11_);}
	.st21{fill:url(#SVGID_12_);}
	.st22{fill:url(#SVGID_13_);}
	.st23{fill:url(#SVGID_14_);}
	.st24{fill:url(#SVGID_15_);}
	.st25{fill:url(#SVGID_16_);}
	.st26{fill:url(#SVGID_17_);}
	.st27{fill:url(#SVGID_18_);}
	.st28{fill:url(#SVGID_19_);}
	.st29{fill:url(#SVGID_20_);}
	.st30{fill:url(#SVGID_21_);}
	.st31{fill:url(#SVGID_22_);}
	.st32{fill:url(#SVGID_23_);}
	.st33{opacity:0.6;fill:#FFFFFF;}
	.st34{opacity:0.6;}
	.st35{fill:url(#SVGID_24_);}
	.st36{fill:url(#SVGID_25_);}
	.st37{fill:url(#SVGID_26_);}
	.st38{fill:url(#SVGID_27_);}
	.st39{fill:url(#SVGID_28_);}
	.st40{fill:url(#SVGID_29_);}
	.st41{fill:url(#SVGID_30_);}
	.st42{fill:url(#SVGID_31_);}
	.st43{fill:url(#SVGID_32_);}
	.st44{fill:url(#SVGID_33_);}
	.st45{fill:url(#SVGID_34_);}
	.st46{fill:url(#SVGID_35_);}
	.st47{fill:url(#SVGID_36_);}
	.st48{fill:url(#SVGID_37_);}
	.st49{fill:url(#SVGID_38_);}
	.st50{fill:url(#SVGID_39_);}
	.st51{fill:url(#SVGID_40_);}
	.st52{fill:url(#SVGID_41_);}
	.st53{fill:url(#SVGID_42_);}
	.st54{fill:url(#SVGID_43_);}
	.st55{fill:url(#SVGID_44_);}
	.st56{fill:url(#SVGID_45_);}
	.st57{fill:url(#SVGID_46_);}
	.st58{opacity:0.2;fill:url(#SVGID_47_);}
	.st59{fill:url(#SVGID_48_);}
	.st60{fill:url(#SVGID_49_);}
	.st61{fill:url(#SVGID_50_);}
	.st62{fill:url(#SVGID_51_);}
	.st63{fill:url(#SVGID_52_);}
	.st64{fill:url(#SVGID_53_);}
	.st65{fill:url(#SVGID_54_);}
</style>
<g>
	<g>
		<path class="st0" d="M602,125.7c0,57.9,46.8,104.8,104.4,104.8c57.7,0,104.4-46.9,104.4-104.8S764.1,20.9,706.4,20.9
			c-1.6,0-3.1,0-4.7,0.1C646.2,23.4,602,69.4,602,125.7z"/>
		<path class="st0" d="M701.8,21H107c0,0-91.6,14.6-101.2,101.5v88.8v141.2c0,0,21.8-122.8,123.7-122.8s576.9,0.1,576.9,0.1"/>
	</g>
	<path class="st1" d="M713.1,248.8c67.8,0,122.8-55.1,122.8-123.2S780.9,2.5,713.1,2.5c-1.8,0-3.7,0-5.5,0.1"/>
	<g>
		<ellipse id="Oval_6_" class="st2" cx="702.1" cy="121.1" rx="84.3" ry="84.6"/>
		<path id="Shape_31_" class="st3" d="M705.2,188.6h2.7v0.5h-2.9L705.2,188.6z M699.7,189.1v-0.4h2.7v0.4H699.7z M710.7,188.4
			l2.7-0.3v0.4l-2.7,0.3V188.4z M694.1,188.3v-0.4l2.7,0.4v0.4L694.1,188.3z M716.1,187.8l2.7-0.5v0.4l-2.7,0.5V187.8z M688.7,187.4
			v-0.5l2.7,0.7v0.4L688.7,187.4z M721.6,186.5l2.7-0.7v0.4l-2.7,0.8V186.5z M683.4,185.9v-0.5l2.6,0.8v0.4L683.4,185.9z M726.9,185
			l2.6-1v0.4l-2.6,1V185z M678.2,183.8v-0.4l2.6,1.1v0.4L678.2,183.8z M731.9,183l2.4-1.2l0.3,0.4l-2.6,1.2L731.9,183z M673.2,181.5
			l0.3-0.4l2.4,1.2l-0.3,0.4L673.2,181.5z M736.9,180.5l2.4-1.4v0.4c-0.7,0.5-1.5,1-2.3,1.4L736.9,180.5z M668.4,178.8l0.3-0.4
			l2.3,1.5l-0.3,0.4L668.4,178.8z M741.5,177.7l2.3-1.5l0.3,0.4l-2.3,1.5L741.5,177.7z M663.8,175.6l0.3-0.3l2.3,1.5l-0.3,0.4
			L663.8,175.6z M746,174.5l2.2-1.8l0.3,0.4l-2.2,1.8L746,174.5z M659.4,172.2l0.4-0.4l2,1.8l-0.3,0.4L659.4,172.2z M750.2,171
			l2-1.9l0.3,0.4l-2,1.9L750.2,171z M655.5,168.4l0.3-0.3l2,1.9l-0.4,0.3L655.5,168.4z M754.2,167.2l1.8-2l0.4,0.3l-1.9,2
			L754.2,167.2z M651.8,164.3l0.3-0.4l1.9,2.2l-0.4,0.3L651.8,164.3z M757.7,163c0.5-0.7,1.2-1.4,1.8-2.2l0.3,0.3l-1.6,2.2
			L757.7,163z M648.4,159.8l0.4-0.3l1.6,2.3l-0.4,0.3L648.4,159.8z M761,158.6l1.5-2.3l0.4,0.3c-0.5,0.7-1,1.5-1.5,2.3L761,158.6z
			 M645.4,155.2l0.4-0.3c0.4,0.8,1,1.6,1.5,2.3l-0.4,0.3C646.4,156.8,645.9,156,645.4,155.2z M763.8,154c0.5-0.7,1-1.5,1.4-2.3h0.4
			c-0.4,0.8-0.8,1.6-1.4,2.5L763.8,154z M642.9,150.3h0.4l1.2,2.5h-0.4L642.9,150.3z M766.4,149c0.3-0.8,0.7-1.6,1.1-2.5h0.4
			c-0.4,1-0.7,1.8-1.1,2.6L766.4,149z M640.7,145.4l0.4-0.3c0.3,1,0.7,1.8,1,2.6h-0.4L640.7,145.4z M768.4,144l1-2.6h0.4
			c-0.3,1-0.5,1.8-1,2.6H768.4z M638.8,139.9h0.5l0.8,2.6h-0.4C639.5,141.7,639.1,140.9,638.8,139.9z M770.1,138.8
			c0.3-1,0.5-1.8,0.7-2.7h0.5c-0.3,1-0.5,1.8-0.7,2.7H770.1z M637.6,134.5h0.4c0.1,0.8,0.4,1.8,0.5,2.7h-0.4
			C637.8,136.2,637.7,135.4,637.6,134.5z M771.4,133.4l0.4-2.7h0.4l-0.4,2.7H771.4z M636.6,129.1h0.4l0.4,2.7H637L636.6,129.1z
			 M772.1,127.8c0.1-1,0.3-1.8,0.3-2.7h0.5c-0.1,1-0.1,1.9-0.3,2.9L772.1,127.8z M636.1,123.6h0.5c0,0.8,0.1,1.8,0.1,2.7h-0.4
			C636.2,125.3,636.2,124.5,636.1,123.6z M772.5,122.3v-2.7h0.5v2.7H772.5z M636.1,120.7V118h0.5c-0.1,0.8-0.1,1.6-0.1,2.5v0.3
			H636.1L636.1,120.7z M772.2,114.1h0.5c0,1,0.1,1.9,0.1,2.7h-0.4C772.4,115.9,772.4,115,772.2,114.1z M636.2,115.2
			c0.1-1,0.3-1.8,0.3-2.7h0.5c-0.1,1-0.1,1.8-0.3,2.7H636.2z M771.6,108.6h0.4l0.4,2.7H772L771.6,108.6z M636.9,109.8
			c0.1-1,0.4-1.8,0.5-2.7h0.4c-0.1,1-0.3,1.8-0.5,2.7H636.9z M770.3,103.2h0.5c0.1,1,0.4,1.8,0.5,2.7H771
			C770.9,105,770.6,104.2,770.3,103.2z M638,104.3c0.3-0.8,0.4-1.8,0.7-2.6h0.5l-0.8,2.6H638z M768.7,97.9h0.5l0.8,2.6h-0.4
			C769.4,99.7,769.1,98.7,768.7,97.9z M639.5,99l1-2.6h0.4c-0.1,1-0.5,1.8-1,2.6H639.5z M766.8,92.7h0.4c0.3,1,0.7,1.8,1.1,2.6h-0.5
			C767.5,94.5,767.1,93.7,766.8,92.7z M641.5,93.8l1.1-2.5h0.4c-0.4,0.8-0.8,1.6-1.1,2.6L641.5,93.8z M764.4,87.8h0.4
			c0.4,0.7,0.8,1.6,1.2,2.5h-0.4L764.4,87.8z M643.8,88.9l1.4-2.5h0.4l-1.4,2.5H643.8z M761.5,82.9h0.4l1.4,2.3l-0.3,0.3L761.5,82.9
			z M646.5,83.9c0.5-0.7,1-1.5,1.5-2.3l0.4,0.3l-1.5,2.3L646.5,83.9z M758.2,78.6l0.4-0.3l1.6,2.3l-0.4,0.3L758.2,78.6z M649.7,79.4
			c0.5-0.8,1.1-1.5,1.8-2.2l0.3,0.3l-1.6,2.2L649.7,79.4z M754.7,74.5l0.4-0.4c0.5,0.7,1.2,1.4,1.8,2.2l-0.3,0.3L754.7,74.5z
			 M653.2,75l1.8-2l0.4,0.4l-1.9,1.9L653.2,75z M750.9,70.5l0.3-0.4l2,2l-0.4,0.3C752.3,71.7,751.6,71.1,750.9,70.5z M657,71.1
			l2-1.9l0.3,0.4l-2,1.8L657,71.1z M746.7,67l0.3-0.4l2.2,1.8l-0.3,0.3L746.7,67z M661.1,67.4l2.2-1.8l0.3,0.4l-2.2,1.6L661.1,67.4z
			 M742.2,63.7l0.3-0.4l2.3,1.6l-0.3,0.3L742.2,63.7z M665.6,64l2.3-1.5l0.3,0.4l-2.3,1.5L665.6,64z M737.6,60.8l0.3-0.4l2.3,1.4
			l-0.3,0.4C739.2,61.7,738.4,61.2,737.6,60.8z M670.3,61l2.4-1.4V60c-0.7,0.5-1.5,1.1-2.3,1.4L670.3,61z M732.8,58.4v-0.5l2.6,1.2
			l-0.3,0.4L732.8,58.4z M675.2,58.4l2.6-1.1v0.4l-2.4,1.1L675.2,58.4z M727.7,56.2v-0.4l2.6,1v0.5L727.7,56.2z M680.4,56.2l2.6-1
			v0.5l-2.6,0.8V56.2z M722.4,54.6v-0.4l2.6,0.8v0.4L722.4,54.6z M685.5,54.4l2.7-0.7v0.4l-2.7,0.8V54.4z M716.9,53.3v-0.4l2.7,0.5
			v0.4L716.9,53.3z M690.8,53.2l2.7-0.5v0.4l-2.7,0.5V53.2z M711.6,52.5v-0.4l2.7,0.4v0.4L711.6,52.5z M696.3,52.3L699,52v0.4
			l-2.7,0.3V52.3z M706.1,52.3v-0.4h2.9v0.5L706.1,52.3z M701.8,51.7h2.7v0.5h-2.7V51.7z"/>
	</g>
</g>
<g>
	<g>
		<path class="st2" d="M187.6,64.8h8.8l10.2,32.6h-7.8l-4.3-16.5c-0.9-3.3-1.8-7.1-2.6-10.5h-0.2c-0.8,3.4-1.7,7.3-2.6,10.5
			l-4.3,16.5h-7.5L187.6,64.8z M184.1,83.9h15.7v5.7h-15.7V83.9z"/>
		<path class="st2" d="M209.5,72.6h6l0.5,2.4h0.2c1.9-1.7,4.5-3,7.1-3c6,0,9.7,5,9.7,12.6c0,8.5-5.1,13.4-10.4,13.4
			c-2.1,0-4.1-0.9-5.9-2.6l0.2,3.9v7.3h-7.4V72.6z M225.5,84.6c0-4.5-1.4-6.7-4.3-6.7c-1.5,0-2.8,0.7-4.3,2.2v10.2
			c1.3,1.2,2.7,1.6,4,1.6C223.4,91.9,225.5,89.8,225.5,84.6z"/>
		<path class="st2" d="M238.2,72.6h6l0.5,2.4h0.2c1.9-1.7,4.5-3,7.1-3c6,0,9.7,5,9.7,12.6c0,8.5-5.1,13.4-10.4,13.4
			c-2.1,0-4.1-0.9-5.9-2.6l0.2,3.9v7.3h-7.4V72.6z M254.1,84.6c0-4.5-1.4-6.7-4.3-6.7c-1.5,0-2.8,0.7-4.3,2.2v10.2
			c1.3,1.2,2.7,1.6,4,1.6C252.1,91.9,254.1,89.8,254.1,84.6z"/>
		<path class="st2" d="M266.8,72.6h6l0.5,4.3h0.2c1.8-3.3,4.5-4.9,7-4.9c1.4,0,2.2,0.2,3,0.5l-1.2,6.3c-0.9-0.2-1.6-0.4-2.7-0.4
			c-1.9,0-4.1,1.2-5.5,4.6v14.4h-7.4V72.6z"/>
		<path class="st2" d="M285.3,85c0-8.2,5.8-13,12.1-13c6.3,0,12.1,4.8,12.1,13c0,8.2-5.8,13-12.1,13C291.1,98,285.3,93.2,285.3,85z
			 M301.9,85c0-4.3-1.5-7.1-4.6-7.1c-3,0-4.6,2.8-4.6,7.1c0,4.3,1.5,7.1,4.6,7.1C300.4,92,301.9,89.3,301.9,85z"/>
		<path class="st2" d="M311.9,72.6h7.4l3.2,11.7c0.6,2.5,1.3,5,1.9,7.6h0.2c0.6-2.6,1.3-5.2,1.9-7.6l3.2-11.7h7l-8.1,24.8h-8.5
			L311.9,72.6z"/>
		<path class="st2" d="M339.5,90.5c0-5.2,4.2-8.1,14-9.1c-0.1-2.2-1.2-3.6-3.9-3.6c-2.1,0-4.2,0.9-6.6,2.2l-2.6-4.8
			c3.1-1.9,6.7-3.3,10.6-3.3c6.3,0,9.9,3.6,9.9,11.2v14.2h-6l-0.5-2.5h-0.2c-2.1,1.8-4.4,3.1-7.2,3.1
			C342.4,98,339.5,94.7,339.5,90.5z M353.5,90.2v-4.3c-5.2,0.7-6.9,2.2-6.9,4.1c0,1.6,1.1,2.4,2.8,2.4
			C351.1,92.3,352.2,91.5,353.5,90.2z"/>
		<path class="st2" d="M367,89.7V62.3h7.4V90c0,1.6,0.7,2.1,1.3,2.1c0.3,0,0.5,0,0.9-0.1l0.9,5.4c-0.8,0.3-2,0.6-3.7,0.6
			C368.7,98,367,94.7,367,89.7z"/>
		<path class="st2" d="M389.8,93.3l4.2-5.1c2.3,2,5.3,3.4,8,3.4c3.1,0,4.6-1.2,4.6-3.1c0-2.1-1.9-2.7-4.7-3.9l-4.2-1.8
			c-3.4-1.4-6.6-4.1-6.6-8.9c0-5.4,4.8-9.7,11.6-9.7c3.8,0,7.7,1.5,10.5,4.3l-3.7,4.6c-2.1-1.6-4.2-2.6-6.8-2.6
			c-2.5,0-4.2,1.1-4.2,2.9c0,2,2.1,2.7,5,3.9l4.2,1.7c4,1.6,6.5,4.3,6.5,8.9c0,5.4-4.5,10.1-12.3,10.1
			C397.6,98,393.1,96.4,389.8,93.3z"/>
		<path class="st2" d="M420.1,88.3v-10h-3.4v-5.5l3.8-0.3l0.9-6.6h6.1v6.6h5.9v5.8h-5.9v9.9c0,2.8,1.3,3.9,3.2,3.9
			c0.8,0,1.7-0.2,2.4-0.5l1.2,5.3c-1.3,0.4-3.1,0.9-5.5,0.9C422.5,98,420.1,94.1,420.1,88.3z"/>
		<path class="st2" d="M437.1,90.5c0-5.2,4.2-8.1,14-9.1c-0.1-2.2-1.2-3.6-3.9-3.6c-2.1,0-4.2,0.9-6.6,2.2l-2.6-4.8
			c3.1-1.9,6.7-3.3,10.6-3.3c6.3,0,9.9,3.6,9.9,11.2v14.2h-6l-0.5-2.5h-0.2c-2.1,1.8-4.4,3.1-7.2,3.1C440,98,437.1,94.7,437.1,90.5z
			 M451.1,90.2v-4.3c-5.2,0.7-6.9,2.2-6.9,4.1c0,1.6,1.1,2.4,2.8,2.4C448.6,92.3,449.8,91.5,451.1,90.2z"/>
		<path class="st2" d="M465.6,88.3v-10h-3.4v-5.5l3.8-0.3l0.9-6.6h6.1v6.6h5.9v5.8h-5.9v9.9c0,2.8,1.3,3.9,3.2,3.9
			c0.8,0,1.7-0.2,2.4-0.5l1.2,5.3c-1.3,0.4-3.1,0.9-5.5,0.9C468,98,465.6,94.1,465.6,88.3z"/>
		<path class="st2" d="M483.5,88V72.6h7.4V87c0,3.6,1,4.7,3.1,4.7c1.8,0,3-0.8,4.4-2.7V72.6h7.4v24.8h-6l-0.5-3.4H499
			c-2.1,2.5-4.4,4-7.8,4C485.8,98,483.5,94.2,483.5,88z"/>
		<path class="st2" d="M509.9,94.5l3.3-4.6c2.2,1.7,4.3,2.6,6.4,2.6c2.2,0,3.1-0.8,3.1-2.1c0-1.6-2.5-2.4-5-3.4
			c-3-1.2-6.6-3.2-6.6-7.3c0-4.6,3.8-7.8,9.5-7.8c3.8,0,6.6,1.5,8.7,3.1l-3.3,4.4c-1.8-1.3-3.5-2.1-5.2-2.1c-1.9,0-2.8,0.7-2.8,2
			c0,1.6,2.3,2.2,4.9,3.1c3.1,1.2,6.7,2.9,6.7,7.5c0,4.5-3.5,8-10.2,8C516.2,98,512.5,96.5,509.9,94.5z"/>
	</g>
</g>
<g>
	<g>
		<path class="st2" d="M130.7,132.2h-6v-2.1h14.4v2.1h-6v17.6h-2.5V132.2z"/>
		<path class="st2" d="M142.4,128.4h2.5v5.8l-0.1,3c1.4-1.3,2.8-2.4,4.8-2.4c3.1,0,4.5,2,4.5,5.7v9.2h-2.5v-8.9
			c0-2.7-0.8-3.9-2.8-3.9c-1.5,0-2.5,0.8-4,2.2v10.6h-2.5V128.4z"/>
		<path class="st2" d="M158.3,130.6c0-1,0.7-1.6,1.7-1.6c1,0,1.7,0.6,1.7,1.6c0,0.9-0.7,1.6-1.7,1.6
			C159.1,132.2,158.3,131.6,158.3,130.6z M158.8,135.2h2.5v14.6h-2.5V135.2z"/>
		<path class="st2" d="M164.5,148.1l1.2-1.6c1.3,1,2.6,1.7,4.3,1.7c1.9,0,2.9-1,2.9-2.3c0-1.5-1.7-2.2-3.3-2.8
			c-2-0.7-4.3-1.8-4.3-4.2c0-2.3,1.9-4.1,5-4.1c1.8,0,3.4,0.7,4.5,1.6l-1.2,1.6c-1-0.7-2-1.3-3.3-1.3c-1.8,0-2.7,1-2.7,2.1
			c0,1.4,1.6,1.9,3.2,2.5c2.1,0.8,4.4,1.6,4.4,4.4c0,2.4-1.9,4.3-5.3,4.3C167.9,150.2,165.9,149.3,164.5,148.1z"/>
		<path class="st2" d="M183,135.2h2.5l2.2,8.4c0.3,1.4,0.6,2.7,0.9,4.1h0.1c0.3-1.4,0.6-2.7,1-4.1l2.3-8.4h2.4l2.3,8.4
			c0.4,1.4,0.7,2.7,1,4.1h0.1c0.3-1.4,0.6-2.7,0.9-4.1l2.1-8.4h2.4l-3.9,14.6h-3l-2.1-7.8c-0.4-1.4-0.6-2.7-1-4.2H193
			c-0.3,1.5-0.6,2.9-1,4.2l-2,7.8H187L183,135.2z"/>
		<path class="st2" d="M205.8,130.6c0-1,0.7-1.6,1.7-1.6c1,0,1.7,0.6,1.7,1.6c0,0.9-0.7,1.6-1.7,1.6
			C206.5,132.2,205.8,131.6,205.8,130.6z M206.3,135.2h2.5v14.6h-2.5V135.2z"/>
		<path class="st2" d="M213.6,146.9v-18.4h2.5v18.6c0,0.8,0.3,1.1,0.7,1.1c0.1,0,0.3,0,0.5-0.1l0.3,1.9c-0.4,0.1-0.8,0.2-1.4,0.2
			C214.4,150.2,213.6,149,213.6,146.9z"/>
		<path class="st2" d="M221.3,146.9v-18.4h2.5v18.6c0,0.8,0.3,1.1,0.7,1.1c0.1,0,0.3,0,0.5-0.1l0.3,1.9c-0.4,0.1-0.8,0.2-1.4,0.2
			C222,150.2,221.3,149,221.3,146.9z"/>
		<path class="st2" d="M233.9,142.5c0-4.7,3-7.7,6.3-7.7c1.7,0,2.8,0.6,4.1,1.7l-0.1-2.5v-5.6h2.5v21.4h-2l-0.2-1.7h-0.1
			c-1.1,1.1-2.7,2.1-4.4,2.1C236.3,150.2,233.9,147.4,233.9,142.5z M244.2,146.1v-7.6c-1.2-1.1-2.4-1.5-3.6-1.5
			c-2.3,0-4.2,2.2-4.2,5.6c0,3.5,1.4,5.6,4,5.6C241.8,148.1,243,147.4,244.2,146.1z"/>
		<path class="st2" d="M251.1,130.6c0-1,0.7-1.6,1.7-1.6s1.7,0.6,1.7,1.6c0,0.9-0.7,1.6-1.7,1.6S251.1,131.6,251.1,130.6z
			 M251.6,135.2h2.5v14.6h-2.5V135.2z"/>
		<path class="st2" d="M257.3,148.1l1.2-1.6c1.3,1,2.6,1.7,4.3,1.7c1.9,0,2.9-1,2.9-2.3c0-1.5-1.7-2.2-3.3-2.8
			c-2-0.7-4.3-1.8-4.3-4.2c0-2.3,1.9-4.1,5-4.1c1.8,0,3.4,0.7,4.5,1.6l-1.2,1.6c-1-0.7-2-1.3-3.3-1.3c-1.8,0-2.7,1-2.7,2.1
			c0,1.4,1.6,1.9,3.2,2.5c2.1,0.8,4.4,1.6,4.4,4.4c0,2.4-1.9,4.3-5.3,4.3C260.7,150.2,258.7,149.3,257.3,148.1z"/>
		<path class="st2" d="M271.5,135.2h2l0.2,1.7h0.1c1.3-1.1,3-2,4.6-2c3.8,0,5.8,2.9,5.8,7.4c0,5-3,7.9-6.3,7.9c-1.3,0-2.7-0.6-4-1.7
			l0.1,2.5v4.9h-2.5V135.2z M281.7,142.3c0-3.2-1.1-5.4-3.8-5.4c-1.2,0-2.5,0.7-3.9,2v7.6c1.3,1.1,2.6,1.5,3.6,1.5
			C280,148.1,281.7,145.9,281.7,142.3z"/>
		<path class="st2" d="M288.2,146.9v-18.4h2.5v18.6c0,0.8,0.3,1.1,0.7,1.1c0.1,0,0.3,0,0.5-0.1l0.3,1.9c-0.4,0.1-0.8,0.2-1.4,0.2
			C288.9,150.2,288.2,149,288.2,146.9z"/>
		<path class="st2" d="M294.9,146c0-3.2,2.7-4.8,9-5.4c0-1.9-0.6-3.7-3-3.7c-1.7,0-3.2,0.8-4.3,1.6l-1-1.7c1.3-0.9,3.4-1.9,5.7-1.9
			c3.6,0,5.1,2.4,5.1,6v8.9h-2l-0.2-1.7H304c-1.4,1.2-3,2.1-4.8,2.1C296.8,150.2,294.9,148.6,294.9,146z M303.9,146.2v-4
			c-4.9,0.6-6.5,1.8-6.5,3.6c0,1.7,1.1,2.3,2.6,2.3C301.3,148.2,302.5,147.5,303.9,146.2z"/>
		<path class="st2" d="M309.5,155.8l0.5-2c0.3,0.1,0.7,0.2,1.1,0.2c1.6,0,2.7-1.3,3.3-3.1l0.3-1.1l-5.9-14.6h2.5l3,8.1
			c0.5,1.3,0.9,2.8,1.4,4.1h0.1c0.4-1.3,0.8-2.8,1.2-4.1l2.6-8.1h2.4l-5.5,15.8c-1,2.9-2.5,5.1-5.5,5.1
			C310.5,156.1,310,156,309.5,155.8z"/>
		<path class="st2" d="M331.4,145.3v-8.1h-2.2v-1.9l2.3-0.1l0.3-4.1h2.1v4.1h4v2h-4v8.1c0,1.8,0.6,2.8,2.3,2.8
			c0.5,0,1.2-0.2,1.7-0.4l0.5,1.9c-0.8,0.3-1.8,0.5-2.7,0.5C332.4,150.2,331.4,148.2,331.4,145.3z"/>
		<path class="st2" d="M341.1,128.4h2.5v5.8l-0.1,3c1.4-1.3,2.8-2.4,4.8-2.4c3.1,0,4.5,2,4.5,5.7v9.2h-2.5v-8.9
			c0-2.7-0.8-3.9-2.8-3.9c-1.5,0-2.5,0.8-4,2.2v10.6h-2.5V128.4z"/>
		<path class="st2" d="M356.3,142.5c0-4.7,3.2-7.7,6.6-7.7c3.7,0,5.8,2.7,5.8,6.8c0,0.5,0,1-0.1,1.4h-9.8c0.2,3.1,2.1,5.1,4.8,5.1
			c1.4,0,2.5-0.5,3.6-1.2l0.9,1.6c-1.3,0.8-2.8,1.5-4.8,1.5C359.4,150.2,356.3,147.3,356.3,142.5z M366.5,141.3
			c0-2.9-1.3-4.5-3.6-4.5c-2,0-3.9,1.6-4.2,4.5H366.5z"/>
		<path class="st2" d="M376.7,148.1l1.2-1.6c1.3,1,2.6,1.7,4.3,1.7c1.9,0,2.9-1,2.9-2.3c0-1.5-1.7-2.2-3.3-2.8
			c-2-0.7-4.3-1.8-4.3-4.2c0-2.3,1.9-4.1,5-4.1c1.8,0,3.4,0.7,4.5,1.6l-1.2,1.6c-1-0.7-2-1.3-3.3-1.3c-1.8,0-2.7,1-2.7,2.1
			c0,1.4,1.6,1.9,3.2,2.5c2.1,0.8,4.4,1.6,4.4,4.4c0,2.4-1.9,4.3-5.3,4.3C380,150.2,378.1,149.3,376.7,148.1z"/>
		<path class="st2" d="M391.3,145.3v-8.1h-2.2v-1.9l2.3-0.1l0.3-4.1h2.1v4.1h4v2h-4v8.1c0,1.8,0.6,2.8,2.3,2.8
			c0.5,0,1.2-0.2,1.7-0.4l0.5,1.9c-0.8,0.3-1.8,0.5-2.7,0.5C392.4,150.2,391.3,148.2,391.3,145.3z"/>
		<path class="st2" d="M400.1,146c0-3.2,2.7-4.8,9-5.4c0-1.9-0.6-3.7-3-3.7c-1.7,0-3.2,0.8-4.3,1.6l-1-1.7c1.3-0.9,3.4-1.9,5.7-1.9
			c3.6,0,5.1,2.4,5.1,6v8.9h-2l-0.2-1.7h-0.1c-1.4,1.2-3,2.1-4.8,2.1C401.9,150.2,400.1,148.6,400.1,146z M409.1,146.2v-4
			c-4.9,0.6-6.5,1.8-6.5,3.6c0,1.7,1.1,2.3,2.6,2.3C406.5,148.2,407.6,147.5,409.1,146.2z"/>
		<path class="st2" d="M416.6,145.3v-8.1h-2.2v-1.9l2.3-0.1l0.3-4.1h2.1v4.1h4v2h-4v8.1c0,1.8,0.6,2.8,2.3,2.8
			c0.5,0,1.2-0.2,1.7-0.4l0.5,1.9c-0.8,0.3-1.8,0.5-2.7,0.5C417.6,150.2,416.6,148.2,416.6,145.3z"/>
		<path class="st2" d="M426.1,144.5v-9.2h2.5v8.9c0,2.7,0.8,3.9,2.8,3.9c1.5,0,2.5-0.7,3.9-2.5v-10.3h2.5v14.6h-2l-0.2-2.3h-0.1
			c-1.4,1.6-2.8,2.6-4.8,2.6C427.5,150.2,426.1,148.2,426.1,144.5z"/>
		<path class="st2" d="M441,148.1l1.2-1.6c1.3,1,2.6,1.7,4.3,1.7c1.9,0,2.9-1,2.9-2.3c0-1.5-1.7-2.2-3.3-2.8c-2-0.7-4.3-1.8-4.3-4.2
			c0-2.3,1.9-4.1,5-4.1c1.8,0,3.4,0.7,4.5,1.6l-1.2,1.6c-1-0.7-2-1.3-3.3-1.3c-1.8,0-2.7,1-2.7,2.1c0,1.4,1.6,1.9,3.2,2.5
			c2.1,0.8,4.4,1.6,4.4,4.4c0,2.4-1.9,4.3-5.3,4.3C444.3,150.2,442.3,149.3,441,148.1z"/>
		<path class="st2" d="M460.1,142.5c0-4.9,3.2-7.7,6.8-7.7s6.8,2.8,6.8,7.7c0,4.8-3.2,7.6-6.8,7.6S460.1,147.4,460.1,142.5z
			 M471,142.5c0-3.3-1.7-5.6-4.2-5.6s-4.2,2.3-4.2,5.6c0,3.3,1.7,5.6,4.2,5.6S471,145.9,471,142.5z"/>
		<path class="st2" d="M475.8,135.4l2.1-0.1h5.4v2h-7.5V135.4z M477.8,132.9c0-3,1.3-4.8,4.3-4.8c0.9,0,1.8,0.2,2.4,0.5l-0.5,1.9
			c-0.6-0.3-1.1-0.4-1.7-0.4c-1.4,0-2.1,1-2.1,2.8v16.9h-2.5V132.9z"/>
		<path class="st2" d="M492.6,145.3v-8.1h-2.2v-1.9l2.3-0.1l0.3-4.1h2.1v4.1h4v2h-4v8.1c0,1.8,0.6,2.8,2.3,2.8
			c0.5,0,1.2-0.2,1.7-0.4l0.5,1.9c-0.8,0.3-1.8,0.5-2.7,0.5C493.7,150.2,492.6,148.2,492.6,145.3z"/>
		<path class="st2" d="M502.3,128.4h2.5v5.8l-0.1,3c1.4-1.3,2.8-2.4,4.8-2.4c3.1,0,4.5,2,4.5,5.7v9.2h-2.5v-8.9
			c0-2.7-0.8-3.9-2.8-3.9c-1.5,0-2.5,0.8-4,2.2v10.6h-2.5V128.4z"/>
		<path class="st2" d="M517.6,142.5c0-4.7,3.2-7.7,6.6-7.7c3.7,0,5.8,2.7,5.8,6.8c0,0.5,0,1-0.1,1.4H520c0.2,3.1,2.1,5.1,4.8,5.1
			c1.4,0,2.5-0.5,3.6-1.2l0.9,1.6c-1.3,0.8-2.8,1.5-4.8,1.5C520.6,150.2,517.6,147.3,517.6,142.5z M527.7,141.3
			c0-2.9-1.3-4.5-3.6-4.5c-2,0-3.9,1.6-4.2,4.5H527.7z"/>
		<path class="st2" d="M258.8,184.1l1.2-1.6c1.3,1,2.6,1.7,4.3,1.7c1.9,0,2.9-1,2.9-2.3c0-1.5-1.7-2.2-3.3-2.8
			c-2-0.7-4.3-1.8-4.3-4.2c0-2.3,1.9-4.1,5-4.1c1.8,0,3.4,0.7,4.5,1.6l-1.2,1.6c-1-0.7-2-1.3-3.3-1.3c-1.8,0-2.7,1-2.7,2.1
			c0,1.4,1.6,1.9,3.2,2.5c2.1,0.8,4.4,1.6,4.4,4.4c0,2.4-1.9,4.3-5.3,4.3C262.2,186.2,260.2,185.3,258.8,184.1z"/>
		<path class="st2" d="M273.5,181.3v-8.1h-2.2v-1.9l2.3-0.1l0.3-4.1h2.1v4.1h4v2h-4v8.1c0,1.8,0.6,2.8,2.3,2.8
			c0.5,0,1.2-0.2,1.7-0.4l0.5,1.9c-0.8,0.3-1.8,0.5-2.7,0.5C274.5,186.2,273.5,184.2,273.5,181.3z"/>
		<path class="st2" d="M283,180.5v-9.2h2.5v8.9c0,2.7,0.8,3.9,2.8,3.9c1.5,0,2.5-0.7,3.9-2.5v-10.3h2.5v14.6h-2l-0.2-2.3h-0.1
			c-1.4,1.6-2.8,2.6-4.8,2.6C284.4,186.2,283,184.2,283,180.5z"/>
		<path class="st2" d="M298.5,178.5c0-4.7,3-7.7,6.3-7.7c1.7,0,2.8,0.6,4.1,1.7l-0.1-2.5v-5.6h2.5v21.4h-2l-0.2-1.7h-0.1
			c-1.1,1.1-2.7,2.1-4.4,2.1C300.8,186.2,298.5,183.4,298.5,178.5z M308.7,182.1v-7.6c-1.2-1.1-2.4-1.5-3.6-1.5
			c-2.3,0-4.2,2.2-4.2,5.6c0,3.5,1.4,5.6,4,5.6C306.4,184.1,307.5,183.4,308.7,182.1z"/>
		<path class="st2" d="M315.1,178.5c0-4.7,3.2-7.7,6.6-7.7c3.7,0,5.8,2.7,5.8,6.8c0,0.5,0,1-0.1,1.4h-9.8c0.2,3.1,2.1,5.1,4.8,5.1
			c1.4,0,2.5-0.5,3.6-1.2l0.9,1.6c-1.3,0.8-2.8,1.5-4.8,1.5C318.2,186.2,315.1,183.3,315.1,178.5z M325.2,177.3
			c0-2.9-1.3-4.5-3.6-4.5c-2,0-3.9,1.6-4.2,4.5H325.2z"/>
		<path class="st2" d="M331,171.2h2l0.2,2.1h0.1c1.4-1.4,2.9-2.5,4.9-2.5c3.1,0,4.5,2,4.5,5.7v9.2h-2.5v-8.9c0-2.7-0.8-3.9-2.8-3.9
			c-1.5,0-2.5,0.8-4,2.2v10.6H331V171.2z"/>
		<path class="st2" d="M347.9,181.3v-8.1h-2.2v-1.9l2.3-0.1l0.3-4.1h2.1v4.1h4v2h-4v8.1c0,1.8,0.6,2.8,2.3,2.8
			c0.5,0,1.2-0.2,1.7-0.4l0.5,1.9c-0.8,0.3-1.8,0.5-2.7,0.5C348.9,186.2,347.9,184.2,347.9,181.3z"/>
		<path class="st2" d="M357,171.7c1.5-1,2.3-2,2.3-3.8l-0.4-2l1.2,1.5c-0.4,0.4-0.7,0.5-1.2,0.5c-0.8,0-1.6-0.5-1.6-1.5
			c0-1,0.7-1.7,1.6-1.7c1.2,0,1.9,1,1.9,2.7c0,2.4-1.1,4.1-3.2,5.3L357,171.7z"/>
		<path class="st2" d="M363.4,184.1l1.2-1.6c1.3,1,2.6,1.7,4.3,1.7c1.9,0,2.9-1,2.9-2.3c0-1.5-1.7-2.2-3.3-2.8
			c-2-0.7-4.3-1.8-4.3-4.2c0-2.3,1.9-4.1,5-4.1c1.8,0,3.4,0.7,4.5,1.6l-1.2,1.6c-1-0.7-2-1.3-3.3-1.3c-1.8,0-2.7,1-2.7,2.1
			c0,1.4,1.6,1.9,3.2,2.5c2.1,0.8,4.4,1.6,4.4,4.4c0,2.4-1.9,4.3-5.3,4.3C366.8,186.2,364.8,185.3,363.4,184.1z"/>
		<path class="st2" d="M382.7,182c0-3.2,2.7-4.8,9-5.4c0-1.9-0.6-3.7-3-3.7c-1.7,0-3.2,0.8-4.3,1.6l-1-1.7c1.3-0.9,3.4-1.9,5.7-1.9
			c3.6,0,5.1,2.4,5.1,6v8.9h-2l-0.2-1.7h-0.1c-1.4,1.2-3,2.1-4.8,2.1C384.5,186.2,382.7,184.6,382.7,182z M391.7,182.2v-4
			c-4.9,0.6-6.5,1.8-6.5,3.6c0,1.7,1.1,2.3,2.6,2.3C389.1,184.2,390.2,183.5,391.7,182.2z"/>
		<path class="st2" d="M398.7,171.2h2l0.2,1.7h0.1c1.3-1.1,3-2,4.6-2c3.8,0,5.8,2.9,5.8,7.4c0,5-3,7.9-6.3,7.9c-1.3,0-2.7-0.6-4-1.7
			l0.1,2.5v4.9h-2.5V171.2z M408.9,178.3c0-3.2-1.1-5.4-3.8-5.4c-1.2,0-2.5,0.7-3.9,2v7.6c1.3,1.1,2.6,1.5,3.6,1.5
			C407.2,184.1,408.9,181.9,408.9,178.3z"/>
		<path class="st2" d="M415.4,171.2h2l0.2,1.7h0.1c1.3-1.1,3-2,4.6-2c3.8,0,5.8,2.9,5.8,7.4c0,5-3,7.9-6.3,7.9c-1.3,0-2.7-0.6-4-1.7
			l0.1,2.5v4.9h-2.5V171.2z M425.6,178.3c0-3.2-1.1-5.4-3.8-5.4c-1.2,0-2.5,0.7-3.9,2v7.6c1.3,1.1,2.6,1.5,3.6,1.5
			C423.8,184.1,425.6,181.9,425.6,178.3z"/>
		<path class="st2" d="M432,182.9v-18.4h2.5v18.6c0,0.8,0.3,1.1,0.7,1.1c0.1,0,0.3,0,0.5-0.1l0.3,1.9c-0.3,0.1-0.8,0.2-1.4,0.2
			C432.8,186.2,432,185,432,182.9z"/>
		<path class="st2" d="M439.2,166.6c0-1,0.7-1.6,1.7-1.6c1,0,1.7,0.6,1.7,1.6c0,0.9-0.7,1.6-1.7,1.6
			C440,168.2,439.2,167.6,439.2,166.6z M439.7,171.2h2.5v14.6h-2.5V171.2z"/>
		<path class="st2" d="M446,178.5c0-4.9,3.3-7.7,7-7.7c1.9,0,3.2,0.8,4.3,1.7l-1.3,1.6c-0.8-0.8-1.7-1.3-2.9-1.3
			c-2.6,0-4.6,2.3-4.6,5.6c0,3.3,1.8,5.6,4.5,5.6c1.3,0,2.5-0.6,3.4-1.5l1.1,1.7c-1.3,1.2-3,1.9-4.7,1.9
			C448.9,186.2,446,183.4,446,178.5z"/>
		<path class="st2" d="M459.8,182c0-3.2,2.7-4.8,9-5.4c0-1.9-0.6-3.7-3-3.7c-1.7,0-3.2,0.8-4.3,1.6l-1-1.7c1.3-0.9,3.4-1.9,5.7-1.9
			c3.6,0,5.1,2.4,5.1,6v8.9h-2l-0.2-1.7h-0.1c-1.4,1.2-3,2.1-4.8,2.1C461.7,186.2,459.8,184.6,459.8,182z M468.8,182.2v-4
			c-4.9,0.6-6.5,1.8-6.5,3.6c0,1.7,1.1,2.3,2.6,2.3C466.2,184.2,467.4,183.5,468.8,182.2z"/>
		<path class="st2" d="M476.3,181.3v-8.1h-2.2v-1.9l2.3-0.1l0.3-4.1h2.1v4.1h4v2h-4v8.1c0,1.8,0.6,2.8,2.3,2.8
			c0.5,0,1.2-0.2,1.7-0.4l0.5,1.9c-0.8,0.3-1.8,0.5-2.7,0.5C477.3,186.2,476.3,184.2,476.3,181.3z"/>
		<path class="st2" d="M485.5,166.6c0-1,0.7-1.6,1.7-1.6c1,0,1.7,0.6,1.7,1.6c0,0.9-0.7,1.6-1.7,1.6
			C486.3,168.2,485.5,167.6,485.5,166.6z M486,171.2h2.5v14.6H486V171.2z"/>
		<path class="st2" d="M492.3,178.5c0-4.9,3.2-7.7,6.8-7.7s6.8,2.8,6.8,7.7c0,4.8-3.2,7.6-6.8,7.6S492.3,183.4,492.3,178.5z
			 M503.3,178.5c0-3.3-1.7-5.6-4.2-5.6s-4.2,2.3-4.2,5.6c0,3.3,1.7,5.6,4.2,5.6S503.3,181.9,503.3,178.5z"/>
		<path class="st2" d="M509.6,171.2h2l0.2,2.1h0.1c1.4-1.4,2.9-2.5,4.9-2.5c3.1,0,4.5,2,4.5,5.7v9.2h-2.5v-8.9
			c0-2.7-0.8-3.9-2.8-3.9c-1.5,0-2.5,0.8-4,2.2v10.6h-2.5V171.2z"/>
		<path class="st2" d="M525.5,184.3c0-1.1,0.8-1.9,1.8-1.9c1,0,1.8,0.8,1.8,1.9c0,1.1-0.8,1.9-1.8,1.9
			C526.3,186.2,525.5,185.4,525.5,184.3z"/>
	</g>
</g>
<g>
	<linearGradient id="SVGID_1_" gradientUnits="userSpaceOnUse" x1="788.5239" y1="228.2272" x2="666.7775" y2="77.0257">
		<stop  offset="0" style="stop-color:#B37CFF"/>
		<stop  offset="1" style="stop-color:#F895E7"/>
	</linearGradient>
	<path class="st4" d="M755,168.6c-2.8,2.9-5.4,4.8-7.5,6.3c-24.6,17.6-53.7,12.5-59.8,11.2c-9.1-1.9-26.8-5.4-39.5-20.4
		c-19.3-22.7-16.3-58.4-1.3-82c2.7-4.3,17.2-28.3,46.6-32.1c17.8-2.3,38.5,2.4,53.5,14.9C778.5,92.9,776.2,146.3,755,168.6z"/>
	<g>
		<g>
			<g>
				<path class="st5" d="M641.6,79.9c-0.1,0-0.1-0.1-0.1-0.2c0-0.3,0-0.6,0-0.9c0-0.1,0.1-0.2,0.2-0.2c0.3,0,0.2,0.3,0.2,1.1
					C641.9,79.8,641.8,79.9,641.6,79.9C641.6,79.9,641.6,79.9,641.6,79.9z"/>
				<path class="st5" d="M641.8,76c0.1-0.6,0.2-1.1,0.4-1.7c0-0.1,0.2-0.2,0.3-0.2c0.3,0.1,0.1,0.3-0.2,1.9c0,0.1-0.1,0.2-0.3,0.2
					C641.8,76.3,641.7,76.2,641.8,76z M643,71.7c0.2-0.5,0.5-1.1,0.7-1.6c0.1-0.3,0.5-0.1,0.4,0.2c-0.2,0.5-0.5,1-0.7,1.5
					c0,0.1-0.2,0.2-0.3,0.1C643,72,643,71.9,643,71.7z M645.1,67.8c0.3-0.5,0.7-0.9,1-1.4c0.2-0.2,0.5,0.1,0.4,0.3
					c-0.3,0.4-0.7,0.9-1,1.3C645.3,68.3,645,68,645.1,67.8z M648,64.7c-0.1-0.1-0.1-0.2,0-0.3c0.4-0.4,0.8-0.8,1.3-1.1
					c0.2-0.2,0.5,0.2,0.3,0.3c-0.4,0.4-0.9,0.7-1.3,1.1C648.2,64.8,648.1,64.8,648,64.7z M651.5,61.9c-0.1-0.1,0-0.2,0.1-0.3
					c0.5-0.3,1-0.6,1.5-0.9c0.3-0.1,0.5,0.3,0.2,0.4c-0.5,0.3-1,0.5-1.5,0.8C651.7,62,651.6,62,651.5,61.9z M655.6,60
					c-0.1,0-0.1-0.1-0.1-0.1c0-0.1,0-0.2,0.1-0.3c0.5-0.2,1.1-0.4,1.6-0.5c0.1,0,0.2,0,0.3,0.2c0,0.1,0,0.2-0.1,0.3
					c-0.5,0.2-1.1,0.3-1.6,0.5C655.7,60.1,655.7,60.1,655.6,60z M660,58.9c-0.1,0-0.1-0.1-0.1-0.2c0-0.1,0.1-0.2,0.2-0.3
					c0.6-0.1,1.2-0.1,1.7-0.2c0.1,0,0.2,0.1,0.2,0.2c0,0.1-0.1,0.2-0.2,0.2c-0.6,0-1.1,0.1-1.7,0.2C660.1,58.9,660,58.9,660,58.9z
					 M664.3,58.5c0-0.1,0.1-0.2,0.2-0.2c0.6,0,1.2,0.1,1.7,0.2c0.3,0,0.2,0.5-0.1,0.4c-0.6-0.1-1.1-0.1-1.7-0.2
					C664.4,58.7,664.3,58.6,664.3,58.5z M678.3,64.5c-1.3-1.1-1.6-1.1-1.4-1.4c0.1-0.1,0.2-0.1,0.3,0c0.5,0.4,0.9,0.7,1.3,1.1
					C678.8,64.3,678.5,64.7,678.3,64.5z M668.8,59.2c0-0.1,0.2-0.2,0.3-0.2c0.6,0.1,1.1,0.3,1.7,0.5c0.3,0.1,0.1,0.5-0.1,0.4
					c-0.5-0.2-1.1-0.4-1.6-0.5C668.9,59.4,668.8,59.3,668.8,59.2z M674.7,61.8c-1.5-0.9-1.8-0.8-1.6-1.1c0.1-0.2,0.3-0.1,0.3-0.1
					c0.5,0.3,1,0.5,1.5,0.8c0.1,0.1,0.1,0.2,0.1,0.3C675,61.8,674.8,61.9,674.7,61.8z"/>
				<path class="st5" d="M680.8,67.1c-0.5-0.6-0.8-0.8-0.5-1c0.1-0.1,0.2-0.1,0.3,0c0.5,0.6,0.8,0.8,0.5,1
					C681.1,67.2,680.9,67.2,680.8,67.1z"/>
			</g>
			<g>
				<path class="st5" d="M685.5,83.7c-0.1,0-0.1-0.1-0.1-0.2c0-0.3,0.1-0.6,0.1-0.9c0-0.1,0.1-0.2,0.2-0.2c0.1,0,0.2,0.1,0.2,0.2
					c0,0.3-0.1,0.6-0.1,0.9C685.8,83.7,685.7,83.7,685.5,83.7C685.6,83.7,685.5,83.7,685.5,83.7z"/>
				<path class="st5" d="M653.8,99.7c-0.6-0.3-1.1-0.6-1.6-0.9c-0.1-0.1-0.1-0.2-0.1-0.3c0.2-0.3,0.3,0,1.9,0.8
					c0.1,0.1,0.2,0.2,0.1,0.3C654,99.8,653.7,99.7,653.8,99.7z M656.4,100.7c0.1-0.3,0.3-0.1,2,0.4c0.1,0,0.2,0.2,0.2,0.3
					c0,0.1-0.2,0.2-0.3,0.2c-0.6-0.2-1.2-0.3-1.8-0.6C656.5,100.9,656.4,100.8,656.4,100.7z M649.6,97c-0.5-0.4-1-0.8-1.4-1.3
					c-0.1-0.1-0.1-0.2,0-0.3c0.2-0.2,0.3,0.1,1.7,1.2c0.1,0.1,0.1,0.2,0,0.3C649.9,97.1,649.7,97.1,649.6,97z M661.3,102
					c-0.1,0-0.1-0.1-0.1-0.2c0-0.1,0.1-0.2,0.2-0.2c0.6,0.1,1.2,0.1,1.8,0.1c0.1,0,0.2,0.1,0.2,0.2c0,0.1-0.1,0.2-0.2,0.2
					C662.6,102.2,662,102.1,661.3,102C661.3,102.1,661.3,102.1,661.3,102z M666.2,102.1c-0.1,0-0.1-0.1-0.1-0.2
					c0-0.1,0.1-0.2,0.2-0.2c0.6-0.1,1.2-0.1,1.8-0.3c0.1,0,0.2,0.1,0.3,0.2c0,0.1-0.1,0.2-0.2,0.3c-0.6,0.1-1.2,0.2-1.9,0.3
					C666.2,102.1,666.2,102.1,666.2,102.1z M670.9,101.1c-0.1,0-0.1-0.1-0.1-0.1c0-0.1,0-0.2,0.1-0.3c0.6-0.2,1.1-0.4,1.7-0.6
					c0.1,0,0.2,0,0.3,0.1c0.1,0.1,0,0.2-0.1,0.3c-0.6,0.2-1.2,0.5-1.7,0.7C671,101.1,670.9,101.1,670.9,101.1z M675.3,99.1
					C675.2,99.1,675.2,99.1,675.3,99.1c-0.2-0.2-0.1-0.3,0-0.4c0.5-0.3,1-0.6,1.5-1c0.1-0.1,0.2,0,0.3,0.1c0.1,0.1,0.1,0.2,0,0.3
					c-0.5,0.4-1,0.7-1.5,1C675.4,99.2,675.4,99.2,675.3,99.1z M679,96.2c-0.2-0.2,0.1-0.3,1.3-1.6c0.2-0.2,0.5,0.1,0.3,0.3
					c-0.4,0.5-0.8,0.9-1.3,1.3C679.3,96.3,679.1,96.3,679,96.2z M682.2,92.6c-0.3-0.2,0-0.3,0.9-1.9c0.1-0.3,0.5,0,0.4,0.2
					c-0.3,0.5-0.6,1.1-0.9,1.6C682.4,92.6,682.3,92.6,682.2,92.6z M684.4,88.3c-0.1,0-0.2-0.2-0.1-0.3c0.2-0.6,0.4-1.1,0.6-1.7
					c0-0.1,0.2-0.2,0.3-0.1c0.1,0,0.2,0.2,0.2,0.3c-0.2,0.6-0.4,1.2-0.6,1.7C684.6,88.3,684.5,88.4,684.4,88.3
					C684.4,88.3,684.4,88.3,684.4,88.3z"/>
				<path class="st5" d="M646.2,93.5c-0.5-0.6-0.7-0.9-0.5-1c0.2-0.2,0.4,0.1,0.8,0.8c0.1,0.1,0.1,0.2,0,0.3
					C646.4,93.6,646.3,93.6,646.2,93.5z"/>
			</g>
			<g>
				
					<linearGradient id="SVGID_2_" gradientUnits="userSpaceOnUse" x1="998.4537" y1="-107.0271" x2="944.8167" y2="-27.7376" gradientTransform="matrix(0.9967 8.140000e-02 -8.140000e-02 0.9967 -300.3342 55.9577)">
					<stop  offset="0" style="stop-color:#A737D5"/>
					<stop  offset="1" style="stop-color:#EF497A"/>
				</linearGradient>
				<path class="st6" d="M649.1,88.1l3.2-0.1c0.9,1.2,2,2.3,3.2,3.2c-0.1,3.1-0.4,3.3,0,3.4l3.6,1.5c0.1,0,0.2,0,0.3-0.1l2.1-2.3
					c1.5,0.3,3.1,0.3,4.6,0.1l2.1,2.4c0.1,0.1,0.2,0.1,0.3,0.1l3.6-1.4c0.1,0,0.2-0.1,0.2-0.3l-0.2-3.2c1.2-0.8,2.3-1.9,3.2-3.1
					l3.2,0.3c0.1,0,0.2-0.1,0.3-0.2l1.5-3.5c0-0.1,0-0.2-0.1-0.3l-2.4-2.1c0.3-1.5,0.2-3,0-4.5c2.3-2.1,2.6-2,2.5-2.4
					c-1.5-3.5-1.4-3.7-1.7-3.7l-3.2,0.1c-0.9-1.2-2-2.3-3.2-3.2c0.1-3.1,0.4-3.3,0-3.4c-3.6-1.5-3.6-1.7-3.9-1.5l-2.1,2.3
					c-1.5-0.3-3.1-0.3-4.6-0.1c-2.1-2.3-2.1-2.6-2.4-2.5c-3.5,1.4-3.8,1.3-3.7,1.6l0.2,3.2c-1.2,0.8-2.3,1.9-3.2,3.1
					c-3.1-0.2-3.3-0.4-3.5-0.1c-1.4,3.5-1.7,3.6-1.4,3.8l2.4,2.1c-0.3,1.5-0.2,3,0,4.5c-2.3,2.1-2.6,2-2.5,2.4
					C648.9,87.9,648.7,88.2,649.1,88.1z"/>
				<path class="st7" d="M660.1,79.5c0.3-2,2.2-3.4,4.3-3.1c2.1,0.3,3.5,2.3,3.2,4.3c-0.3,2-2.2,3.4-4.3,3.1l0,0
					C661.2,83.4,659.8,81.5,660.1,79.5z M663.3,83.4L663.3,83.4L663.3,83.4z M664.2,77.1c-1.7-0.3-3.3,0.8-3.5,2.5
					c-0.2,1.7,0.9,3.2,2.6,3.5c1.7,0.3,3.3-0.9,3.5-2.5C667.1,78.9,665.9,77.3,664.2,77.1z"/>
				<path class="st7" d="M659.8,88.6L659.8,88.6c-0.5-0.2-1-0.5-1.4-0.8c-0.1-0.1-0.2-0.3-0.1-0.4c0,0,0,0,0,0
					c0.1-0.1,0.3-0.2,0.5-0.1c0.5,0.4,1.1,0.7,1.7,0.9l0,0c4.5,1.9,9.6,0,11.6-4.3c0.1-0.1,0.1-0.2,0.1-0.3
					c1.9-4.5-0.3-9.7-4.9-11.7c-4.6-1.9-9.8,0.1-11.8,4.6c-1.1,2.7-0.5,4.6-0.6,4.9c-0.1,0.3-0.6,0.2-0.6-0.1
					c-0.3-1.8,0-3.7,0.8-5.4c3.5-7.4,14.5-7,17.7,0.7c1,2.4,1,5,0,7.3c-0.1,0.1-0.1,0.2-0.2,0.4c-1,2.2-2.8,3.8-5.1,4.7
					c-2.4,0.9-5,0.9-7.4-0.1C660,88.7,659.9,88.7,659.8,88.6z"/>
			</g>
		</g>
		<g>
			
				<linearGradient id="SVGID_3_" gradientUnits="userSpaceOnUse" x1="1006.0062" y1="-89.3781" x2="977.0223" y2="-42.7374" gradientTransform="matrix(0.9967 8.140000e-02 -8.140000e-02 0.9967 -300.3342 55.9577)">
				<stop  offset="0" style="stop-color:#A737D5"/>
				<stop  offset="1" style="stop-color:#EF497A"/>
			</linearGradient>
			<path class="st8" d="M688,74.9c0.5,0.6,1.2,1.2,1.9,1.7l0,1.8c0,0.2,0.2,0.1,2.1,0.8c0.2,0.1,0.2-0.1,1.3-1.5
				c0.9,0.1,1.7,0,2.5-0.2l1.3,1.3c0.1,0.1,0.2,0,2.1-0.9c0.1,0,0.1-0.1,0.1-0.2l-0.2-1.8c0.6-0.5,1.2-1.2,1.7-1.9
				c1.7-0.1,1.9,0.1,1.9-0.1c0.6-2,0.8-2.1,0.6-2.2l-1.4-1.1c0.1-0.9,0-1.7-0.2-2.5l1.3-1.3c0.1-0.1,0-0.2-0.9-2.1
				c-0.1-0.2-0.2,0-1.9,0.2c-0.5-0.6-1.2-1.2-1.9-1.7l0-1.8c0-0.2-0.2-0.1-2.1-0.8c-0.2-0.1-0.2,0.1-1.3,1.5c-0.9-0.1-1.7,0-2.5,0.2
				l-1.3-1.3c0,0-0.1-0.1-0.2,0l-1.9,1c-0.1,0-0.1,0.1-0.1,0.2l0.2,1.8c-0.6,0.5-1.2,1.2-1.7,1.9c-1.7,0.1-1.9-0.1-1.9,0.1
				c-0.6,2-0.8,2.1-0.6,2.2l1.4,1.1c-0.1,0.9,0,1.7,0.2,2.5c-1.2,1.3-1.4,1.3-1.3,1.5l1,1.9C686.1,75.2,686.2,75.1,688,74.9z"/>
			<g>
				<path class="st7" d="M691.8,69.7c0.1-1.2,1.2-2.2,2.4-2.1c1.2,0.1,2.2,1.2,2.1,2.4c-0.1,1.2-1.2,2.2-2.4,2.1l0,0
					C692.6,72,691.7,70.9,691.8,69.7z M693.9,71.7L693.9,71.7L693.9,71.7z M692.5,69.7c-0.1,0.9,0.6,1.6,1.5,1.7l0,0
					c1.4,0.1,2.2-1.5,1.3-2.6C694.3,67.7,692.6,68.3,692.5,69.7z"/>
				<g>
					<path class="st5" d="M682.7,73.1c-0.1-0.3-0.2-0.6-0.2-0.9c0-0.1,0.1-0.2,0.2-0.3c0.3-0.1,0.3,0.3,0.5,1c0,0.1,0,0.2-0.2,0.3
						C682.8,73.3,682.7,73.2,682.7,73.1z"/>
					<path class="st5" d="M682.2,69.2c0-0.6,0.1-1.2,0.2-1.8c0.1-0.3,0.5-0.2,0.4,0.1c-0.3,1.6-0.1,2-0.5,2
						C682.3,69.4,682.2,69.3,682.2,69.2z M683.6,64.8c-0.1-0.1-0.2-0.2-0.1-0.3c0.3-0.5,0.6-1.1,1-1.6c0.2-0.2,0.5,0,0.4,0.3
						c-0.3,0.5-0.7,1-0.9,1.5C683.8,64.9,683.5,64.8,683.6,64.8z M686.5,61.1C686.5,61.1,686.5,61.1,686.5,61.1
						c-0.2-0.2-0.1-0.3,0-0.4c0.5-0.4,1-0.8,1.5-1.1c0.1-0.1,0.2,0,0.3,0.1c0.1,0.1,0,0.2-0.1,0.3c-0.5,0.3-1,0.7-1.4,1
						C686.7,61.2,686.6,61.2,686.5,61.1z M690.7,58.9c-0.1,0-0.1-0.1-0.1-0.1c0-0.1,0-0.2,0.2-0.3c0.6-0.2,1.2-0.3,1.8-0.4
						c0.1,0,0.2,0.1,0.3,0.2c0,0.1-0.1,0.2-0.2,0.3c-0.6,0.1-1.2,0.2-1.7,0.4C690.8,58.9,690.7,58.9,690.7,58.9z M695.2,58.3
						c0-0.1,0.1-0.2,0.2-0.2c0.6,0.1,1.2,0.2,1.8,0.4c0.3,0.1,0.2,0.5-0.1,0.4c-0.6-0.2-1.2-0.3-1.7-0.4
						C695.3,58.5,695.2,58.4,695.2,58.3z"/>
					<path class="st5" d="M700.6,60.5c-0.7-0.5-1-0.5-0.8-0.8c0.1-0.1,0.2-0.1,0.3-0.1c0.3,0.2,0.5,0.3,0.8,0.5
						c0.1,0.1,0.1,0.2,0.1,0.3C700.8,60.6,700.7,60.6,700.6,60.5z"/>
				</g>
				<g>
					<path class="st5" d="M705.3,68.5c-0.1-0.8-0.3-1.1,0-1.1c0.1,0,0.2,0.1,0.3,0.2c0.1,0.3,0.1,0.6,0.1,0.9c0,0.1-0.1,0.2-0.2,0.2
						C705.4,68.7,705.3,68.6,705.3,68.5z"/>
					<path class="st5" d="M690.1,80.7c0.1-0.4,0.4,0,2,0.3c0.3,0.1,0.2,0.5-0.1,0.4c-0.6-0.1-1.2-0.3-1.8-0.5
						C690.1,80.9,690,80.8,690.1,80.7z M694.6,81.4c0-0.1,0.1-0.2,0.2-0.2c1.6-0.1,1.9-0.5,2-0.1c0,0.1,0,0.2-0.2,0.3
						c-0.6,0.1-1.2,0.2-1.8,0.3C694.8,81.6,694.7,81.5,694.6,81.4z M699.1,80.2c-0.2-0.3,0.3-0.3,1.6-1.2c0.2-0.2,0.5,0.2,0.3,0.4
						c-0.5,0.4-1,0.7-1.5,1C699.3,80.4,699.2,80.3,699.1,80.2z M702.8,77.4c-0.3-0.2,0.1-0.3,1-1.7c0.2-0.3,0.5,0,0.4,0.2
						c-0.3,0.5-0.7,1-1,1.5C703,77.4,702.9,77.4,702.8,77.4z M704.9,73c0.5-1.6,0.2-1.9,0.6-1.9c0.1,0,0.2,0.1,0.2,0.3
						c-0.1,0.6-0.2,1.2-0.4,1.8c0,0.1-0.2,0.2-0.3,0.2C705,73.3,704.9,73.2,704.9,73z"/>
					<path class="st5" d="M687.5,79.7c-0.3-0.2-0.5-0.3-0.7-0.5c-0.1-0.1-0.1-0.2,0-0.3c0.2-0.2,0.4,0,1,0.5
						c0.1,0.1,0.1,0.2,0.1,0.3C687.8,79.7,687.6,79.7,687.5,79.7z"/>
				</g>
				<path class="st7" d="M691.2,74.6c-0.2-0.1-0.2-0.3-0.1-0.5c0.1-0.2,0.3-0.2,0.5-0.1c0.3,0.2,0.6,0.3,0.9,0.4
					c0.1,0,1.8,0.7,3.7-0.3c3.9-1.9,3.5-7.6-0.6-9c-2.4-0.8-4.9,0.3-6,2.5c-1,2.2,0.1,3.4-0.6,3.5c-0.2,0-0.4-0.1-0.4-0.3
					c-0.2-1-0.2-2,0.2-3c1-2.9,4.1-4.5,7-3.5c3.1,1,4.7,4.6,3.2,7.6c-1.2,2.4-4,3.8-6.8,2.9c0,0,0,0,0,0
					C691.9,74.9,691.6,74.8,691.2,74.6z"/>
			</g>
		</g>
	</g>
	<g>
		<linearGradient id="SVGID_4_" gradientUnits="userSpaceOnUse" x1="707.2812" y1="193.6848" x2="705.7892" y2="164.1431">
			<stop  offset="0" style="stop-color:#2B3582"/>
			<stop  offset="1" style="stop-color:#150E42"/>
		</linearGradient>
		<polygon class="st9" points="694.8,160.1 692.3,182.4 721.1,182.4 717.3,160.1 		"/>
		<linearGradient id="SVGID_5_" gradientUnits="userSpaceOnUse" x1="634.5057" y1="127.0255" x2="772.3506" y2="127.0255">
			<stop  offset="0" style="stop-color:#2B3582"/>
			<stop  offset="1" style="stop-color:#150E42"/>
		</linearGradient>
		<path class="st10" d="M634.5,94.4v61.1c0,5,4,9.1,9,9.3c22.3,0.6,100.4,2,121.7,1.7c3.7-0.1,6.6-3,6.7-6.6
			c0.4-14.2,1.1-48.4-1.4-64.2c-0.5-3.3-3.3-5.8-6.7-5.9c-18.7-0.6-101.5-2.5-122.8-2C637.4,87.7,634.5,90.7,634.5,94.4z"/>
		<linearGradient id="SVGID_6_" gradientUnits="userSpaceOnUse" x1="746.9357" y1="93.7959" x2="575.6555" y2="212.1277">
			<stop  offset="0" style="stop-color:#FDF53F"/>
			<stop  offset="0.6645" style="stop-color:#E57A58"/>
			<stop  offset="1" style="stop-color:#D93C65"/>
		</linearGradient>
		<path class="st11" d="M638.3,94.1v58.1c0,2.9,2.4,5.3,5.3,5.4l118.5,1.5c2.9,0,5.3-2.3,5.3-5.2l0.2-57.6c0-2.1-1.7-3.8-3.7-3.8
			l-121.4-2.5C640.3,89.9,638.3,91.8,638.3,94.1z"/>
		<path class="st12" d="M641.7,95.9v54.5c0,2.8,2.2,5,5,5l112.9,1.4c2.8,0,5-2.2,5.1-4.9l0.2-54c0-2-1.6-3.6-3.6-3.6L645.7,92
			C643.5,92,641.7,93.7,641.7,95.9z"/>
		<path class="st13" d="M768.4,161.4L768.4,161.4l-130-2.2c-0.1,0-0.2-0.1-0.2-0.2c0-0.1,0.1-0.2,0.2-0.2l130,2.2
			c0.1,0,0.2,0.1,0.2,0.2C768.6,161.3,768.5,161.4,768.4,161.4z"/>
		<path class="st13" d="M704.6,164.1c-0.8,0-1.5-0.7-1.5-1.5c0-0.8,0.7-1.5,1.5-1.5s1.5,0.7,1.5,1.5
			C706.2,163.4,705.5,164.1,704.6,164.1z M704.6,161.4c-0.6,0-1.2,0.5-1.2,1.2s0.5,1.2,1.2,1.2s1.2-0.5,1.2-1.2
			S705.3,161.4,704.6,161.4z"/>
		<linearGradient id="SVGID_7_" gradientUnits="userSpaceOnUse" x1="707.3741" y1="182.5375" x2="693.6476" y2="212.676">
			<stop  offset="0" style="stop-color:#2B3582"/>
			<stop  offset="1" style="stop-color:#150E42"/>
		</linearGradient>
		<path class="st14" d="M727.3,186.9h-42.1c-1.1,0-2-0.8-1.8-1.7l0.5-2.1c0.2-0.6,0.9-1.1,1.7-1.1l40.6-1.3c0.9,0,1.7,0.4,1.8,1.1
			l1,3.4C729.3,186.1,728.4,186.9,727.3,186.9z"/>
		<path class="st2" d="M707.9,182.6c-0.1,0-0.2-0.1-0.2-0.2c0-0.1,0.1-0.2,0.2-0.2l1.7,0c0.1,0,0.2,0.1,0.2,0.2
			c0,0.1-0.1,0.2-0.2,0.2L707.9,182.6L707.9,182.6z"/>
		<path class="st2" d="M685,185.8C685,185.8,685,185.8,685,185.8c-0.1,0-0.2-0.1-0.2-0.2l0.2-1.6c0.1-0.9,0.9-1.5,1.7-1.5l18.4-0.3
			c0.1,0,0.2,0.1,0.2,0.2c0,0.1-0.1,0.2-0.2,0.2l-18.4,0.3c-0.7,0-1.3,0.5-1.4,1.2l-0.2,1.6C685.1,185.7,685.1,185.8,685,185.8z"/>
	</g>
	<g>
		<path class="st15" d="M678.6,96.1l13.7-0.1c1.9,0,3.4,1.4,3.3,3.2l-1.3,29.6c-0.1,1.6-1.5,2.9-3.2,2.9l-12.1,0.1
			c-1.8,0-3.3-1.3-3.3-3l-0.2-29.6C675.3,97.5,676.8,96.1,678.6,96.1z"/>
		<path class="st16" d="M689.2,137.6l-43.3,0.5c-1.7,0-3,1.1-2.9,2.4l0.7,11.3c0.1,1.2,1.4,2.2,2.9,2.2h42.6c1.6,0,3-1,3-2.3v-11.9
			C692.2,138.6,690.9,137.6,689.2,137.6z"/>
		<path class="st16" d="M742.7,134.5l-43.3,0.6c-1.7,0-3,1.3-2.9,2.9l0.7,13.9c0.1,1.5,1.4,2.6,2.9,2.6h42.6c1.6,0,3-1.2,3-2.8
			v-14.5C745.7,135.7,744.3,134.5,742.7,134.5z"/>
		<path class="st16" d="M669.9,94.7h-22.4c-1.8,0-3.3,1.5-3.3,3.3v32.1c0,1.8,1.5,3.3,3.3,3.3h22.4c1.8,0,3.3-1.5,3.3-3.3V98
			C673.2,96.2,671.8,94.7,669.9,94.7z"/>
		<path class="st16" d="M725.2,107.1h-22.4c-1.8,0-3.3,0.8-3.3,1.8v17.2c0,1,1.5,1.8,3.3,1.8h22.4c1.8,0,3.3-0.8,3.3-1.8v-17.2
			C728.5,107.9,727,107.1,725.2,107.1z"/>
		<path class="st16" d="M762.5,105.6h-26.9c-2.2,0-3.9,0.8-3.9,1.8v17.2c0,1,1.8,1.8,3.9,1.8h26.9c2.2,0,3.9-0.8,3.9-1.8v-17.2
			C766.4,106.4,764.7,105.6,762.5,105.6z"/>
	</g>
	<g>
		<linearGradient id="SVGID_8_" gradientUnits="userSpaceOnUse" x1="704.2046" y1="42.495" x2="670.6555" y2="107.8915">
			<stop  offset="0" style="stop-color:#53D8FF"/>
			<stop  offset="1" style="stop-color:#3840F7"/>
		</linearGradient>
		<path class="st17" d="M674.2,107.9l-0.6-2.8h-2.9l-0.6,2.8h-2.1l2.8-11.2h2.8l2.8,11.2H674.2z M673.2,103.3l-0.6-2.6
			c0-0.2-0.1-0.6-0.2-1.2c-0.1-0.6-0.2-1.1-0.2-1.3c-0.1,0.4-0.2,0.9-0.3,1.4c-0.1,0.5-0.4,1.7-0.8,3.6H673.2z"/>
		<linearGradient id="SVGID_9_" gradientUnits="userSpaceOnUse" x1="708.3012" y1="44.5965" x2="674.7521" y2="109.9931">
			<stop  offset="0" style="stop-color:#53D8FF"/>
			<stop  offset="1" style="stop-color:#3840F7"/>
		</linearGradient>
		<path class="st18" d="M683.4,100.2c0,1.2-0.3,2.1-0.9,2.7c-0.6,0.6-1.5,1-2.6,1h-0.5v4.1h-2.1V96.8h2.8
			C682.3,96.8,683.4,97.9,683.4,100.2z M679.4,102.1h0.4c0.5,0,0.9-0.1,1.1-0.4c0.2-0.3,0.4-0.7,0.4-1.4c0-0.6-0.1-1-0.3-1.3
			c-0.2-0.3-0.6-0.4-1.1-0.4h-0.5V102.1z"/>
		<linearGradient id="SVGID_10_" gradientUnits="userSpaceOnUse" x1="714.2397" y1="47.6432" x2="680.6906" y2="113.0397">
			<stop  offset="0" style="stop-color:#53D8FF"/>
			<stop  offset="1" style="stop-color:#3840F7"/>
		</linearGradient>
		<path class="st19" d="M690.9,100.2c0,1.2-0.3,2.1-0.9,2.7c-0.6,0.6-1.5,1-2.6,1h-0.5v4.1h-2.1V96.8h2.8
			C689.8,96.8,690.9,97.9,690.9,100.2z M686.9,102.1h0.4c0.5,0,0.9-0.1,1.1-0.4c0.2-0.3,0.4-0.7,0.4-1.4c0-0.6-0.1-1-0.3-1.3
			c-0.2-0.3-0.6-0.4-1.1-0.4h-0.5V102.1z"/>
		<linearGradient id="SVGID_11_" gradientUnits="userSpaceOnUse" x1="721.7846" y1="51.5138" x2="688.2355" y2="116.9103">
			<stop  offset="0" style="stop-color:#53D8FF"/>
			<stop  offset="1" style="stop-color:#3840F7"/>
		</linearGradient>
		<path class="st20" d="M694.4,103.6v4.4h-2.1V96.8h2.7c1.2,0,2,0.3,2.6,0.8c0.5,0.5,0.8,1.4,0.8,2.5c0,1.4-0.5,2.4-1.4,3l2.1,4.9
			h-2.2l-1.8-4.4H694.4z M694.4,101.8h0.5c0.5,0,0.8-0.1,1.1-0.4c0.2-0.3,0.3-0.7,0.3-1.2c0-0.6-0.1-1-0.3-1.2
			c-0.2-0.2-0.6-0.4-1.1-0.4h-0.5V101.8z"/>
		<linearGradient id="SVGID_12_" gradientUnits="userSpaceOnUse" x1="728.1877" y1="54.7986" x2="694.6386" y2="120.1952">
			<stop  offset="0" style="stop-color:#53D8FF"/>
			<stop  offset="1" style="stop-color:#3840F7"/>
		</linearGradient>
		<path class="st21" d="M707.8,102.3c0,1.9-0.3,3.3-1,4.3c-0.7,1-1.7,1.5-3,1.5c-1.3,0-2.3-0.5-3-1.5c-0.7-1-1-2.4-1-4.3
			c0-1.9,0.3-3.3,1-4.3c0.7-1,1.7-1.5,3-1.5c1.3,0,2.3,0.5,3,1.5C707.5,99.1,707.8,100.5,707.8,102.3z M701.9,102.3
			c0,1.3,0.2,2.2,0.5,2.9c0.3,0.7,0.8,1,1.4,1c1.3,0,1.9-1.3,1.9-3.9c0-2.6-0.6-3.9-1.9-3.9c-0.6,0-1.1,0.3-1.4,1
			C702.1,100.1,701.9,101.1,701.9,102.3z"/>
		<linearGradient id="SVGID_13_" gradientUnits="userSpaceOnUse" x1="733.9676" y1="57.7637" x2="700.4185" y2="123.1602">
			<stop  offset="0" style="stop-color:#53D8FF"/>
			<stop  offset="1" style="stop-color:#3840F7"/>
		</linearGradient>
		<path class="st22" d="M714.3,96.8h2.1l-2.6,11.2h-2.6l-2.6-11.2h2.1l1.5,6.8c0.1,0.6,0.3,1.4,0.4,2.5c0.1-0.9,0.2-1.8,0.4-2.5
			L714.3,96.8z"/>
		<linearGradient id="SVGID_14_" gradientUnits="userSpaceOnUse" x1="740.9081" y1="61.3243" x2="707.359" y2="126.7209">
			<stop  offset="0" style="stop-color:#53D8FF"/>
			<stop  offset="1" style="stop-color:#3840F7"/>
		</linearGradient>
		<path class="st23" d="M722.4,107.9h-5V96.8h5v1.8h-3v2.7h2.7v1.8h-2.7v3.1h3V107.9z"/>
		<linearGradient id="SVGID_15_" gradientUnits="userSpaceOnUse" x1="746.2946" y1="64.0876" x2="712.7455" y2="129.4841">
			<stop  offset="0" style="stop-color:#53D8FF"/>
			<stop  offset="1" style="stop-color:#3840F7"/>
		</linearGradient>
		<path class="st24" d="M731.1,102.3c0,1.8-0.4,3.3-1.1,4.2c-0.8,1-1.8,1.5-3.2,1.5H724V96.8h3c1.3,0,2.3,0.5,3,1.4
			C730.8,99.2,731.1,100.5,731.1,102.3z M729,102.3c0-2.5-0.7-3.7-2.1-3.7h-0.8v7.6h0.7c0.8,0,1.3-0.3,1.7-1
			C728.8,104.5,729,103.6,729,102.3z"/>
	</g>
	<g>
		<linearGradient id="SVGID_16_" gradientUnits="userSpaceOnUse" x1="759.0041" y1="36.0135" x2="693.7055" y2="122.1713">
			<stop  offset="0" style="stop-color:#53D8FF"/>
			<stop  offset="1" style="stop-color:#3840F7"/>
		</linearGradient>
		<path class="st25" d="M754.7,77.3c-8.8-0.2-52.4-1.7-61.3-2c-0.9,0-1.6,1.3-1.6,3v7.8c0,1.7,0.7,3,1.6,3h61.3c0.9,0,1.6-1.3,1.6-3
			v-5.8C756.3,78.7,755.6,77.3,754.7,77.3z"/>
		<g>
			
				<linearGradient id="SVGID_17_" gradientUnits="userSpaceOnUse" x1="6368.7646" y1="-527.0905" x2="6357.8706" y2="-506.9975" gradientTransform="matrix(-0.9972 7.470000e-02 7.470000e-02 0.9972 7086.4126 127.3436)">
				<stop  offset="0" style="stop-color:#FDF53F"/>
				<stop  offset="1" style="stop-color:#D93C65"/>
			</linearGradient>
			<path class="st26" d="M696.6,87.2L699,86c0.2-0.1,0.4-0.1,0.6,0l2.4,1.3c0.5,0.2,1-0.1,0.9-0.7l-0.5-2.7c0-0.2,0-0.4,0.2-0.6
				l1.9-1.9c0.4-0.4,0.2-1-0.4-1.1l-2.7-0.4c-0.2,0-0.4-0.2-0.5-0.3l-1.2-2.4c-0.2-0.5-0.9-0.5-1.1,0l-1.2,2.4
				c-0.1,0.2-0.3,0.3-0.5,0.3l-2.7,0.4c-0.5,0.1-0.7,0.7-0.4,1.1l1.9,1.9c0.1,0.1,0.2,0.4,0.2,0.6l-0.5,2.7
				C695.6,87.1,696.1,87.5,696.6,87.2z"/>
		</g>
		<g>
			
				<linearGradient id="SVGID_18_" gradientUnits="userSpaceOnUse" x1="6356.519" y1="-525.821" x2="6345.6255" y2="-505.7281" gradientTransform="matrix(-0.9972 7.470000e-02 7.470000e-02 0.9972 7086.4126 127.3436)">
				<stop  offset="0" style="stop-color:#FDF53F"/>
				<stop  offset="1" style="stop-color:#D93C65"/>
			</linearGradient>
			<path class="st27" d="M708.9,87.6l2.4-1.2c0.2-0.1,0.4-0.1,0.6,0l2.4,1.3c0.5,0.2,1-0.1,0.9-0.7l-0.5-2.7c0-0.2,0-0.4,0.2-0.6
				l1.9-1.9c0.4-0.4,0.2-1-0.4-1.1l-2.7-0.4c-0.2,0-0.4-0.2-0.5-0.3l-1.2-2.4c-0.2-0.5-0.9-0.5-1.1,0l-1.2,2.4
				c-0.1,0.2-0.3,0.3-0.5,0.3l-2.7,0.4c-0.5,0.1-0.7,0.7-0.4,1.1l1.9,1.9c0.1,0.1,0.2,0.4,0.2,0.6l-0.5,2.7
				C707.9,87.4,708.4,87.8,708.9,87.6z"/>
		</g>
		<g>
			
				<linearGradient id="SVGID_19_" gradientUnits="userSpaceOnUse" x1="6344.1455" y1="-524.8249" x2="6333.252" y2="-504.7319" gradientTransform="matrix(-0.9972 7.470000e-02 7.470000e-02 0.9972 7086.4126 127.3436)">
				<stop  offset="0" style="stop-color:#FDF53F"/>
				<stop  offset="1" style="stop-color:#D93C65"/>
			</linearGradient>
			<path class="st28" d="M721.3,87.6l2.4-1.2c0.2-0.1,0.4-0.1,0.6,0l2.4,1.3c0.5,0.2,1-0.1,0.9-0.7l-0.5-2.7c0-0.2,0-0.4,0.2-0.6
				l1.9-1.9c0.4-0.4,0.2-1-0.4-1.1l-2.7-0.4c-0.2,0-0.4-0.2-0.5-0.3l-1.2-2.4c-0.2-0.5-0.9-0.5-1.1,0l-1.2,2.4
				c-0.1,0.2-0.3,0.3-0.5,0.3l-2.7,0.4c-0.5,0.1-0.7,0.7-0.4,1.1l1.9,1.9c0.1,0.1,0.2,0.4,0.2,0.6l-0.5,2.7
				C720.3,87.5,720.8,87.9,721.3,87.6z"/>
		</g>
		<g>
			
				<linearGradient id="SVGID_20_" gradientUnits="userSpaceOnUse" x1="6332.1406" y1="-523.7838" x2="6321.2466" y2="-503.6908" gradientTransform="matrix(-0.9972 7.470000e-02 7.470000e-02 0.9972 7086.4126 127.3436)">
				<stop  offset="0" style="stop-color:#FDF53F"/>
				<stop  offset="1" style="stop-color:#D93C65"/>
			</linearGradient>
			<path class="st29" d="M733.4,87.8l2.4-1.2c0.2-0.1,0.4-0.1,0.6,0l2.4,1.3c0.5,0.2,1-0.1,0.9-0.7l-0.5-2.7c0-0.2,0-0.4,0.2-0.6
				l1.9-1.9c0.4-0.4,0.2-1-0.4-1.1l-2.7-0.4c-0.2,0-0.4-0.2-0.5-0.3l-1.2-2.4c-0.2-0.5-0.9-0.5-1.1,0l-1.2,2.4
				c-0.1,0.2-0.3,0.3-0.5,0.3l-2.7,0.4c-0.5,0.1-0.7,0.7-0.4,1.1l1.9,1.9c0.1,0.1,0.2,0.4,0.2,0.6l-0.5,2.7
				C732.3,87.6,732.9,88,733.4,87.8z"/>
		</g>
		<g>
			
				<linearGradient id="SVGID_21_" gradientUnits="userSpaceOnUse" x1="6319.9116" y1="-522.8677" x2="6309.0176" y2="-502.7747" gradientTransform="matrix(-0.9972 7.470000e-02 7.470000e-02 0.9972 7086.4126 127.3436)">
				<stop  offset="0" style="stop-color:#FDF53F"/>
				<stop  offset="1" style="stop-color:#D93C65"/>
			</linearGradient>
			<path class="st30" d="M745.6,87.8l2.4-1.2c0.2-0.1,0.4-0.1,0.6,0l2.4,1.3c0.5,0.2,1-0.1,0.9-0.7l-0.5-2.7c0-0.2,0-0.4,0.2-0.6
				l1.9-1.9c0.4-0.4,0.2-1-0.4-1.1l-2.7-0.4c-0.2,0-0.4-0.2-0.5-0.3l-1.2-2.4c-0.2-0.5-0.9-0.5-1.1,0l-1.2,2.4
				c-0.1,0.2-0.3,0.3-0.5,0.3l-2.7,0.4c-0.5,0.1-0.7,0.7-0.4,1.1l1.9,1.9c0.1,0.1,0.2,0.4,0.2,0.6l-0.5,2.7
				C744.6,87.6,745.2,88,745.6,87.8z"/>
		</g>
	</g>
	<g>
		
			<linearGradient id="SVGID_22_" gradientUnits="userSpaceOnUse" x1="41.3901" y1="2670.0234" x2="-10.7825" y2="2753.3313" gradientTransform="matrix(0.9998 1.730000e-02 -1.730000e-02 0.9998 691.1 -2540.4312)">
			<stop  offset="0" style="stop-color:#53D8FF"/>
			<stop  offset="1" style="stop-color:#3840F7"/>
		</linearGradient>
		<path class="st31" d="M649.1,123.7l38.6,0.3c2.1,0,3.9,1.7,4,3.8l2.4,56c0.1,1.7-1.3,3.1-2.9,3.1l-44.2,0.4
			c-1.6,0-2.8-1.3-2.8-2.8l0.5-56.3C644.6,125.7,646.6,123.7,649.1,123.7z"/>
		<path class="st2" d="M653.4,186.5L653.4,186.5l-5-0.1c-1.7,0-3-1.4-3-3.1l0.1-7.5c0-0.1,0.1-0.1,0.1-0.1c0.1,0,0.1,0.1,0.1,0.1
			l-0.1,7.5c0,1.5,1.2,2.8,2.8,2.8l4.9,0.1c0.1,0,0.1,0.1,0.1,0.1C653.5,186.4,653.4,186.5,653.4,186.5z"/>
		<path class="st2" d="M645.6,173.6c-0.1,0-0.1-0.1-0.1-0.1l0-1.2c0-0.1,0.1-0.1,0.1-0.1c0,0,0,0,0,0c0.1,0,0.1,0.1,0.1,0.1l0,1.2
			C645.8,173.6,645.7,173.6,645.6,173.6C645.6,173.6,645.6,173.6,645.6,173.6z"/>
		<g>
			
				<linearGradient id="SVGID_23_" gradientUnits="userSpaceOnUse" x1="657.3103" y1="54.6593" x2="606.9195" y2="128.694" gradientTransform="matrix(0.9995 -3.070000e-02 3.070000e-02 0.9995 16.1077 111.1139)">
				<stop  offset="0" style="stop-color:#53D8FF"/>
				<stop  offset="1" style="stop-color:#3840F7"/>
			</linearGradient>
			<path class="st32" d="M649.2,123.3c5.3,0.8,23.4,3.1,38.4,2.1c0.7,0,1.3,0.5,1.3,1.2l2.5,56.2c0,0.8-0.6,1.4-1.3,1.5
				c-6.3,0.3-32.3,1.5-41.5,0.5c-0.6-0.1-1-0.5-1-1.1l0.1-59C647.7,123.8,648.4,123.1,649.2,123.3z"/>
			<path class="st33" d="M649.8,124.7c5.1,0.7,22.5,3,36.9,2c0.7,0,1.2,0.5,1.3,1.1l2.4,54.1c0,0.7-0.5,1.4-1.3,1.4
				c-6.1,0.3-31.1,1.5-40,0.5c-0.5-0.1-0.9-0.5-0.9-1.1l0.1-56.8C648.3,125.2,649,124.6,649.8,124.7z"/>
			<g class="st34">
				<path class="st2" d="M686,131.5c0.4,0,0.7-0.2,0.6-0.4c0-0.2-0.3-0.4-0.7-0.4l-32.2-0.5c-0.4,0-0.5,0.2-0.3,0.5
					c0.2,0.3,0.7,0.5,1.1,0.5L686,131.5z"/>
			</g>
			<g class="st34">
				<path class="st2" d="M653.7,132.3c-0.4,0-0.5,0.2-0.3,0.5c0.2,0.3,0.7,0.5,1.1,0.5l31.4,0.3c0.4,0,0.7-0.2,0.6-0.4
					c0-0.2-0.3-0.4-0.7-0.4L653.7,132.3z"/>
			</g>
			<path class="st2" d="M658.9,152C658.9,152,658.9,152,658.9,152l-4.4,0.1c-0.6,0-1.2-0.4-1.2-1l-0.5-3.6c0-0.2,0-0.4,0.2-0.6
				c0.2-0.2,0.4-0.3,0.7-0.3l0,0c0.4,0,0.9-0.1,1.4-0.1c1.2-0.1,2.6-0.3,3.4-0.3c0,0,0,0,0,0c0.6,0,1.1,0.3,1.2,0.8
				c0.2,0.8,0.3,2.4,0.3,4.1C660,151.6,659.5,152,658.9,152z M653.7,146.9c-0.2,0-0.3,0.1-0.4,0.2c-0.1,0.1-0.1,0.2-0.1,0.3l0.5,3.6
				c0,0.4,0.4,0.7,0.9,0.7l4.3-0.1c0,0,0,0,0,0c0.4,0,0.8-0.3,0.8-0.7c0-1.7,0-3.2-0.2-4c-0.1-0.3-0.5-0.6-0.9-0.6
				c-0.8,0-2.2,0.2-3.4,0.3C654.6,146.8,654.1,146.9,653.7,146.9L653.7,146.9z"/>
			<path class="st33" d="M654.2,147.2c0.9-0.1,2.9-0.3,3.8-0.4c0.4,0,0.8,0.2,0.9,0.6c0.2,0.7,0.2,2,0.2,3.2c0,0.4-0.3,0.7-0.7,0.7
				l-3.5,0.1c-0.4,0-0.8-0.3-0.8-0.7l-0.4-2.9C653.6,147.5,653.9,147.3,654.2,147.2z"/>
			<g class="st34">
				<path class="st2" d="M663,148.2c-0.4,0-0.6,0.3-0.5,0.6l0.3,0.9c0.1,0.4,0.5,0.6,0.9,0.6l21.2-0.5c0.4,0,0.7-0.3,0.6-0.7l0-0.3
					c0-0.4-0.3-0.7-0.7-0.7L663,148.2z"/>
			</g>
			
				<linearGradient id="SVGID_24_" gradientUnits="userSpaceOnUse" x1="-658.1909" y1="5793.3057" x2="-680.3735" y2="5831.166" gradientTransform="matrix(0.9998 -2.410000e-02 2.410000e-02 0.9998 1185.1825 -5678.5195)">
				<stop  offset="0" style="stop-color:#A737D5"/>
				<stop  offset="1" style="stop-color:#EF497A"/>
			</linearGradient>
			<path class="st35" d="M654.4,147.8L654.4,147.8c0.3-0.2,0.7-0.1,0.9,0.2l0.9,1.5c0.1,0.2,0.3,0.1,0.4,0l2-4.8
				c0.1-0.2,0.5-0.2,0.5,0.1c0,1.4-0.3,4.2-2.6,6.6c0,0-1.3-0.5-2.4-2.7C654,148.4,654.1,148,654.4,147.8z"/>
			<path class="st2" d="M659.1,142.3C659.1,142.3,659.1,142.3,659.1,142.3l-4.4,0.1c-0.6,0-1.2-0.4-1.2-1l-0.5-3.6
				c0-0.2,0-0.4,0.2-0.6c0.2-0.2,0.4-0.3,0.7-0.3l0,0c0.4,0,0.9-0.1,1.4-0.1c1.2-0.1,2.6-0.3,3.4-0.3c0,0,0,0,0,0
				c0.6,0,1.1,0.3,1.2,0.8c0.2,0.8,0.3,2.4,0.3,4.1C660.2,141.8,659.7,142.3,659.1,142.3z M653.9,137.1c-0.2,0-0.3,0.1-0.4,0.2
				c-0.1,0.1-0.1,0.2-0.1,0.3l0.5,3.6c0,0.4,0.4,0.7,0.9,0.7l4.3-0.1c0,0,0,0,0,0c0.4,0,0.8-0.3,0.8-0.7c0-1.7,0-3.2-0.2-4
				c-0.1-0.3-0.5-0.6-0.9-0.6c-0.8,0-2.2,0.2-3.4,0.3C654.8,137,654.3,137.1,653.9,137.1L653.9,137.1z"/>
			<path class="st33" d="M654.4,137.5c0.9-0.1,2.9-0.3,3.8-0.4c0.4,0,0.8,0.2,0.9,0.6c0.2,0.7,0.2,2,0.2,3.2c0,0.4-0.3,0.7-0.7,0.7
				l-3.5,0.1c-0.4,0-0.8-0.3-0.8-0.7l-0.4-2.9C653.8,137.8,654.1,137.5,654.4,137.5z"/>
			<g class="st34">
				<path class="st2" d="M663.1,138.4c-0.4,0-0.6,0.3-0.5,0.6l0.3,0.9c0.1,0.4,0.5,0.6,0.9,0.6L685,140c0.4,0,0.7-0.3,0.6-0.7l0-0.3
					c0-0.4-0.3-0.7-0.7-0.7L663.1,138.4z"/>
			</g>
			
				<linearGradient id="SVGID_25_" gradientUnits="userSpaceOnUse" x1="-657.7874" y1="5783.5571" x2="-679.9699" y2="5821.4175" gradientTransform="matrix(0.9998 -2.410000e-02 2.410000e-02 0.9998 1185.1825 -5678.5195)">
				<stop  offset="0" style="stop-color:#A737D5"/>
				<stop  offset="1" style="stop-color:#EF497A"/>
			</linearGradient>
			<path class="st36" d="M654.6,138.1L654.6,138.1c0.3-0.2,0.7-0.1,0.9,0.2l0.9,1.5c0.1,0.2,0.3,0.1,0.4,0l2-4.8
				c0.1-0.2,0.5-0.2,0.5,0.1c0,1.4-0.3,4.2-2.6,6.6c0,0-1.3-0.5-2.4-2.7C654.2,138.6,654.3,138.2,654.6,138.1z"/>
			<path class="st2" d="M659.2,161.3C659.1,161.3,659.1,161.3,659.2,161.3l-4.4,0.1c-0.6,0-1.2-0.4-1.2-1l-0.5-3.6
				c0-0.2,0-0.4,0.2-0.6c0.2-0.2,0.4-0.3,0.7-0.3l0,0c0.4,0,0.9-0.1,1.4-0.1c1.2-0.1,2.6-0.3,3.4-0.3c0,0,0,0,0,0
				c0.6,0,1.1,0.3,1.2,0.8c0.2,0.8,0.3,2.4,0.3,4.1C660.3,160.9,659.8,161.3,659.2,161.3z M654,156.2c-0.2,0-0.3,0.1-0.4,0.2
				c-0.1,0.1-0.1,0.2-0.1,0.3l0.5,3.6c0,0.4,0.4,0.7,0.9,0.7l4.3-0.1c0,0,0,0,0,0c0.4,0,0.8-0.3,0.8-0.7c0-1.7,0-3.2-0.2-4
				c-0.1-0.3-0.5-0.6-0.9-0.6c-0.8,0-2.2,0.2-3.4,0.3C654.8,156.1,654.3,156.2,654,156.2L654,156.2z"/>
			<path class="st33" d="M654.4,156.5c0.9-0.1,2.9-0.3,3.8-0.4c0.4,0,0.8,0.2,0.9,0.6c0.2,0.7,0.2,2,0.2,3.2c0,0.4-0.3,0.7-0.7,0.7
				l-3.5,0.1c-0.4,0-0.8-0.3-0.8-0.7l-0.4-2.9C653.9,156.9,654.1,156.6,654.4,156.5z"/>
			<g class="st34">
				<path class="st2" d="M663.2,157.5c-0.4,0-0.6,0.3-0.5,0.6l0.3,0.9c0.1,0.4,0.5,0.6,0.9,0.6l21.2-0.5c0.4,0,0.7-0.3,0.6-0.7
					l0-0.3c0-0.4-0.3-0.7-0.7-0.7L663.2,157.5z"/>
			</g>
			
				<linearGradient id="SVGID_26_" gradientUnits="userSpaceOnUse" x1="-654.1298" y1="5795.6851" x2="-676.3123" y2="5833.5454" gradientTransform="matrix(0.9998 -2.410000e-02 2.410000e-02 0.9998 1185.1825 -5678.5195)">
				<stop  offset="0" style="stop-color:#A737D5"/>
				<stop  offset="1" style="stop-color:#EF497A"/>
			</linearGradient>
			<path class="st37" d="M654.6,157.1L654.6,157.1c0.3-0.2,0.7-0.1,0.9,0.2l0.9,1.5c0.1,0.2,0.3,0.1,0.4,0l2-4.8
				c0.1-0.2,0.5-0.2,0.5,0.1c0,1.4-0.3,4.2-2.6,6.6c0,0-1.3-0.5-2.4-2.7C654.2,157.7,654.3,157.3,654.6,157.1z"/>
			<path class="st2" d="M659,170.3C659,170.3,659,170.3,659,170.3l-4.4,0.1c-0.6,0-1.2-0.4-1.2-1l-0.5-3.6c0-0.2,0-0.4,0.2-0.6
				c0.2-0.2,0.4-0.3,0.7-0.3l0,0c0.4,0,0.9-0.1,1.4-0.1c1.1-0.1,2.6-0.3,3.4-0.3c0.6,0,1.1,0.3,1.2,0.8c0.2,0.8,0.3,2.4,0.3,4.1
				C660.1,169.8,659.6,170.3,659,170.3z M653.8,165.1c-0.2,0-0.3,0.1-0.4,0.2c-0.1,0.1-0.1,0.2-0.1,0.3l0.5,3.6
				c0,0.4,0.4,0.7,0.9,0.7l4.3-0.1c0.4,0,0.8-0.3,0.8-0.7c0-1.7,0-3.2-0.2-4c-0.1-0.3-0.5-0.6-0.9-0.6c-0.8,0-2.2,0.2-3.4,0.3
				C654.7,165.1,654.1,165.1,653.8,165.1L653.8,165.1z"/>
			<path class="st33" d="M654.3,165.5c0.9-0.1,2.9-0.3,3.8-0.4c0.4,0,0.8,0.2,0.9,0.6c0.2,0.7,0.2,2,0.2,3.2c0,0.4-0.3,0.7-0.7,0.7
				l-3.5,0.1c-0.4,0-0.8-0.3-0.8-0.7l-0.4-2.9C653.7,165.8,653.9,165.5,654.3,165.5z"/>
			<g class="st34">
				<path class="st2" d="M663,166.4c-0.4,0-0.6,0.3-0.5,0.6l0.3,0.9c0.1,0.4,0.5,0.6,0.9,0.6l21.2-0.5c0.4,0,0.7-0.3,0.6-0.7l0-0.3
					c0-0.4-0.3-0.7-0.7-0.7L663,166.4z"/>
			</g>
			
				<linearGradient id="SVGID_27_" gradientUnits="userSpaceOnUse" x1="-651.1216" y1="5804.6479" x2="-680.309" y2="5845.3433" gradientTransform="matrix(0.9998 -2.410000e-02 2.410000e-02 0.9998 1185.1825 -5678.5195)">
				<stop  offset="0" style="stop-color:#A737D5"/>
				<stop  offset="1" style="stop-color:#EF497A"/>
			</linearGradient>
			<path class="st38" d="M654.5,166.1L654.5,166.1c0.3-0.2,0.7-0.1,0.9,0.2l0.9,1.5c0.1,0.2,0.3,0.1,0.4,0l2-4.8
				c0.1-0.2,0.5-0.2,0.5,0.1c0,1.4-0.3,4.2-2.6,6.6c0,0-1.3-0.5-2.4-2.7C654,166.6,654.2,166.3,654.5,166.1z"/>
			<path class="st2" d="M658.7,179.5C658.7,179.5,658.7,179.5,658.7,179.5l-4.4,0.1c-0.6,0-1.2-0.4-1.2-1l-0.5-3.6
				c0-0.2,0-0.4,0.2-0.6c0.2-0.2,0.4-0.3,0.7-0.3l0,0c0.4,0,0.9-0.1,1.4-0.1c1.2-0.1,2.6-0.3,3.4-0.3c0.6,0,1.1,0.3,1.2,0.8
				c0.2,0.8,0.3,2.4,0.3,4.1C659.8,179,659.3,179.5,658.7,179.5z M653.5,174.4c-0.2,0-0.3,0.1-0.4,0.2c-0.1,0.1-0.1,0.2-0.1,0.3
				l0.5,3.6c0,0.4,0.4,0.7,0.9,0.7l4.3-0.1c0,0,0,0,0,0c0.4,0,0.8-0.3,0.8-0.7c0-1.7,0-3.2-0.2-4c-0.1-0.3-0.5-0.6-0.9-0.6
				c-0.8,0-2.2,0.2-3.4,0.3C654.4,174.3,653.9,174.3,653.5,174.4L653.5,174.4z"/>
			<path class="st33" d="M654,174.7c0.9-0.1,2.9-0.3,3.8-0.4c0.4,0,0.8,0.2,0.9,0.6c0.2,0.7,0.2,2,0.2,3.2c0,0.4-0.3,0.7-0.7,0.7
				l-3.5,0.1c-0.4,0-0.8-0.3-0.8-0.7l-0.4-2.9C653.4,175,653.6,174.8,654,174.7z"/>
			<g class="st34">
				<path class="st2" d="M662.7,175.6c-0.4,0-0.6,0.3-0.5,0.6l0.3,0.9c0.1,0.4,0.5,0.6,0.9,0.6l21.2-0.5c0.4,0,0.7-0.3,0.6-0.7
					l0-0.3c0-0.4-0.3-0.7-0.7-0.7L662.7,175.6z"/>
			</g>
			
				<linearGradient id="SVGID_28_" gradientUnits="userSpaceOnUse" x1="-646.9074" y1="5799.9824" x2="-669.09" y2="5837.8428" gradientTransform="matrix(0.9998 -2.410000e-02 2.410000e-02 0.9998 1185.1825 -5678.5195)">
				<stop  offset="0" style="stop-color:#A737D5"/>
				<stop  offset="1" style="stop-color:#EF497A"/>
			</linearGradient>
			<path class="st39" d="M654.2,175.3L654.2,175.3c0.3-0.2,0.7-0.1,0.9,0.2l0.9,1.5c0.1,0.2,0.3,0.1,0.4,0l2-4.8
				c0.1-0.2,0.5-0.2,0.5,0.1c0,1.4-0.3,4.2-2.6,6.6c0,0-1.3-0.5-2.4-2.7C653.8,175.9,653.9,175.5,654.2,175.3z"/>
		</g>
		
			<linearGradient id="SVGID_29_" gradientUnits="userSpaceOnUse" x1="1509.9919" y1="1962.4078" x2="1492.7914" y2="1985.0347" gradientTransform="matrix(0.8781 0.4785 -0.4785 0.8781 291.3087 -2331.1499)">
			<stop  offset="0" style="stop-color:#2B3582"/>
			<stop  offset="1" style="stop-color:#150E42"/>
		</linearGradient>
		<path class="st40" d="M670.9,116.3c-1.4-1-2.6-1-3.5-0.7c-0.8,0.2-1.3,1-1.2,1.8l0.3,4l4.4,0.4
			C670.9,121.8,673.6,118.2,670.9,116.3z M668.9,119.5c-0.6,0-1.1-0.5-1.1-1.1c0-0.6,0.5-1.1,1.1-1.1c0.6,0,1.1,0.5,1.1,1.1
			C670,119,669.5,119.5,668.9,119.5z"/>
		<path class="st2" d="M666.9,119.7c-0.1,0-0.1-0.1-0.1-0.2l-0.1-0.6c0-0.1,0.1-0.2,0.2-0.2c0.1,0,0.2,0.1,0.2,0.2l0.1,0.6
			C667.2,119.6,667.1,119.7,666.9,119.7C667,119.8,666.9,119.8,666.9,119.7z M666.8,118.5c-0.1,0-0.1-0.1-0.1-0.2l0-0.5
			c-0.1-0.8,0.5-1.6,1.2-1.8c0.5-0.2,1.1-0.2,1.7-0.1c0.1,0,0.2,0.1,0.2,0.3c0,0.1-0.1,0.2-0.3,0.2c-0.5-0.1-1-0.1-1.4,0
			c-0.6,0.2-1,0.7-0.9,1.4l0,0.5C667.1,118.4,667,118.5,666.8,118.5C666.9,118.5,666.8,118.5,666.8,118.5z"/>
		
			<linearGradient id="SVGID_30_" gradientUnits="userSpaceOnUse" x1="-452.2824" y1="5649.2822" x2="-470.0388" y2="5672.6401" gradientTransform="matrix(1 8.300000e-03 -8.300000e-03 1 1176.3397 -5533.499)">
			<stop  offset="0" style="stop-color:#2B3582"/>
			<stop  offset="1" style="stop-color:#150E42"/>
		</linearGradient>
		<path class="st41" d="M660.5,123.9l0-2c0-0.7,0.6-1.3,1.3-1.2l13.9,0.6c0.6,0,1.1,0.5,1.1,1.1l0.1,1.9L660.5,123.9z"/>
		<path class="st2" d="M665.1,121.4c-0.1,0-0.1-0.1-0.1-0.1c0-0.1,0.1-0.1,0.1-0.1l0.6,0c0.1,0,0.1,0.1,0.1,0.1
			c0,0.1-0.1,0.1-0.1,0.1L665.1,121.4C665.1,121.4,665.1,121.4,665.1,121.4z"/>
		<path class="st2" d="M661.2,123.3c-0.1,0-0.1-0.1-0.1-0.2l0-0.8c0-0.3,0.1-0.6,0.4-0.9c0.2-0.2,0.6-0.4,0.9-0.4l2.2,0
			c0.1,0,0.2,0.1,0.2,0.2c0,0.1-0.1,0.2-0.2,0.2l-2.2,0c-0.5,0-0.8,0.4-0.8,0.8l0,0.8C661.5,123.3,661.4,123.4,661.2,123.3
			C661.3,123.4,661.2,123.4,661.2,123.3z"/>
		
			<linearGradient id="SVGID_31_" gradientUnits="userSpaceOnUse" x1="-454.5198" y1="5650.7104" x2="-466.7805" y2="5673.2236" gradientTransform="matrix(1 8.300000e-03 -8.300000e-03 1 1176.3397 -5533.499)">
			<stop  offset="0" style="stop-color:#2B3582"/>
			<stop  offset="1" style="stop-color:#150E42"/>
		</linearGradient>
		<path class="st42" d="M656.2,123.1l24.4,0.2c0.9,0,1.6,0.6,1.8,1.5l0,0.1c0.2,0.9-0.6,1.8-1.5,1.8l-25-0.2c-0.6,0-1-0.5-1-1.1
			l0.1-1.1C654.9,123.6,655.5,123.1,656.2,123.1z"/>
	</g>
	<g>
		<g>
			<g>
				<g>
					<g>
						
							<linearGradient id="SVGID_32_" gradientUnits="userSpaceOnUse" x1="8410.1416" y1="187.1224" x2="8417.9355" y2="187.1224" gradientTransform="matrix(-1 0 0 1 9166.9053 0)">
							<stop  offset="0" style="stop-color:#53D8FF"/>
							<stop  offset="1" style="stop-color:#3840F7"/>
						</linearGradient>
						<path class="st43" d="M749.2,186.7c1.3,0.1,3.7,0.3,5.5,0.4c1.1,0,1.7-0.1,2.1-0.2c0,0,0,0.1,0,0.1c0,0.2-0.2,0.3-0.4,0.4
							c-3.5,0.2-6.2,0.1-7.2,0c-0.2,0-0.3-0.2-0.2-0.4C749.1,186.9,749.1,186.8,749.2,186.7z"/>
						
							<linearGradient id="SVGID_33_" gradientUnits="userSpaceOnUse" x1="8410.1416" y1="185.5949" x2="8417.7158" y2="185.5949" gradientTransform="matrix(-1 0 0 1 9166.9053 0)">
							<stop  offset="0" style="stop-color:#2B3582"/>
							<stop  offset="1" style="stop-color:#150E42"/>
						</linearGradient>
						<path class="st44" d="M754.7,187.1c-1.8-0.1-4.1-0.3-5.5-0.4c1.3-1.6,5.5-2.7,5.5-2.7h1.2c0.8,1.2,0.9,2.3,0.9,2.9
							C756.4,187.1,755.8,187.2,754.7,187.1z"/>
						
							<linearGradient id="SVGID_34_" gradientUnits="userSpaceOnUse" x1="8410.8613" y1="183.4622" x2="8413.0566" y2="183.4622" gradientTransform="matrix(-1 0 0 1 9166.9053 0)">
							<stop  offset="0" style="stop-color:#F9B776"/>
							<stop  offset="1" style="stop-color:#F47960"/>
						</linearGradient>
						<path class="st45" d="M756,182.1l-0.1,2.2c0,0.2-0.2,0.4-0.4,0.5c-0.2,0-0.6,0-0.9-0.1c-0.2-0.1-0.4-0.2-0.4-0.5l-0.4-2.1H756
							z"/>
					</g>
					<g>
						<g>
							
								<linearGradient id="SVGID_35_" gradientUnits="userSpaceOnUse" x1="8394.6035" y1="186.9543" x2="8397.5908" y2="186.9543" gradientTransform="matrix(-1 0 0 1 9166.9053 0)">
								<stop  offset="0" style="stop-color:#53D8FF"/>
								<stop  offset="1" style="stop-color:#3840F7"/>
							</linearGradient>
							<path class="st46" d="M771.3,187.1c0.6-0.1,0.8-0.4,1-0.7c0,0,0,0,0,0c0.1,0.3-0.1,0.7-0.5,0.9c-0.5,0.2-1,0.2-1.4,0.2
								c-0.4,0-0.8-0.2-1.1-0.5l0,0C769.8,187.2,770.4,187.2,771.3,187.1z"/>
							
								<linearGradient id="SVGID_36_" gradientUnits="userSpaceOnUse" x1="8394.625" y1="184.6546" x2="8399.0098" y2="184.6546" gradientTransform="matrix(-1 0 0 1 9166.9053 0)">
								<stop  offset="0" style="stop-color:#2B3582"/>
								<stop  offset="1" style="stop-color:#150E42"/>
							</linearGradient>
							<path class="st47" d="M768.6,182.1h1c1.5,0,2.4,3.1,2.7,4.3c-0.1,0.3-0.4,0.6-1,0.7c-1,0.1-1.6,0.1-2-0.1
								c-0.8-1.1-1.2-2.6-1.4-3.5C767.7,182.5,768.6,182.1,768.6,182.1z"/>
						</g>
						
							<linearGradient id="SVGID_37_" gradientUnits="userSpaceOnUse" x1="8396.9043" y1="181.6321" x2="8399.5283" y2="181.6321" gradientTransform="matrix(-1 0 0 1 9166.9053 0)">
							<stop  offset="0" style="stop-color:#F9B776"/>
							<stop  offset="1" style="stop-color:#F47960"/>
						</linearGradient>
						<path class="st48" d="M769.4,180.1l0.5,2.1c0.1,0.3-0.1,0.5-0.3,0.7c-0.3,0.2-0.7,0.3-1.1,0.3c-0.2,0-0.3-0.2-0.4-0.3
							l-0.8-2.3L769.4,180.1z"/>
					</g>
					<linearGradient id="SVGID_38_" gradientUnits="userSpaceOnUse" x1="774.9083" y1="106.8124" x2="761.158" y2="161.1588">
						<stop  offset="0" style="stop-color:#53D8FF"/>
						<stop  offset="1" style="stop-color:#3840F7"/>
					</linearGradient>
					<path class="st49" d="M770.1,180.7c-0.7,0.6-2.9,0.7-2.9,0.7c-7.9-18.9-11.1-21.5-11.1-21.5c1.1,7.1,0.2,22.9,0.2,22.9
						c-1.3,0.6-3,0-3,0c-0.1-11.7-1.9-21.8-4-29.8c5.3-0.1,8.1-1.9,9.1-2.7C762.9,157.4,770.1,180.7,770.1,180.7z"/>
					<linearGradient id="SVGID_39_" gradientUnits="userSpaceOnUse" x1="755.8942" y1="124.1685" x2="745.7452" y2="158.5441">
						<stop  offset="0" style="stop-color:#A737D5"/>
						<stop  offset="1" style="stop-color:#EF497A"/>
					</linearGradient>
					<path class="st50" d="M757.1,128.6c1,5,0.6,14,0.4,18.1c-0.1,1.2,0.7,2.7,1.4,3.8c0.1,0.2,0,0.4-0.1,0.5
						c-1.1,0.6-4.8,2.3-9,2.5c-0.3,0-0.5-0.2-0.6-0.5c-3.2-11.8-6.8-19.4-6.8-19.4C746.3,127.1,757.1,128.6,757.1,128.6z"/>
					<linearGradient id="SVGID_40_" gradientUnits="userSpaceOnUse" x1="749.472" y1="101.6105" x2="753.4" y2="149.0746">
						<stop  offset="0" style="stop-color:#CB236D"/>
						<stop  offset="1" style="stop-color:#4C246D"/>
					</linearGradient>
					<path class="st51" d="M755.6,159.4c0,0,0.1,0,0.1,0c0.1-0.1,0.2-0.2,0.1-0.3c0-0.1-1.1-1.7-3.1-2.7c-0.1-0.1-0.3,0-0.3,0.1
						c-0.1,0.1,0,0.3,0.1,0.3c1.9,0.9,2.9,2.5,2.9,2.5C755.5,159.4,755.5,159.4,755.6,159.4z"/>
					<g>
						
							<linearGradient id="SVGID_41_" gradientUnits="userSpaceOnUse" x1="8408.9248" y1="143.3875" x2="8399.585" y2="151.6583" gradientTransform="matrix(-1 0 0 1 9166.9053 0)">
							<stop  offset="0" style="stop-color:#F9B776"/>
							<stop  offset="1" style="stop-color:#F47960"/>
						</linearGradient>
						<path class="st52" d="M763.4,142.9c-0.3,2.3-1.3,4.9-3.2,7.6l-0.7-0.6c0,0,0.8-3.4,0.4-7.3C761,142.5,762.4,142.7,763.4,142.9
							z"/>
						<linearGradient id="SVGID_42_" gradientUnits="userSpaceOnUse" x1="763.0259" y1="126.274" x2="752.8769" y2="160.6497">
							<stop  offset="0" style="stop-color:#A737D5"/>
							<stop  offset="1" style="stop-color:#EF497A"/>
						</linearGradient>
						<path class="st53" d="M756,134.7l1.1-6.2c0,0,7.5,5.7,6.3,14.4c-1-0.2-2.4-0.5-3.5-0.3C759.5,139.9,758.5,136.9,756,134.7z"/>
					</g>
					<g>
						<linearGradient id="SVGID_43_" gradientUnits="userSpaceOnUse" x1="748.0037" y1="121.8389" x2="737.8547" y2="156.2145">
							<stop  offset="0" style="stop-color:#A737D5"/>
							<stop  offset="1" style="stop-color:#EF497A"/>
						</linearGradient>
						<path class="st54" d="M742.2,133.6l2.9,6.2c-0.5,3.8-2.5,5.4-4.7,6c-0.1-1.7-0.6-3.1-1-4.1
							C742.3,138.9,742.2,133.6,742.2,133.6z"/>
						
							<linearGradient id="SVGID_44_" gradientUnits="userSpaceOnUse" x1="8426.4336" y1="144.1698" x2="8433.79" y2="144.1698" gradientTransform="matrix(-1 0 0 1 9166.9053 0)">
							<stop  offset="0" style="stop-color:#F9B776"/>
							<stop  offset="1" style="stop-color:#F47960"/>
						</linearGradient>
						<path class="st55" d="M739.5,141.8c0.4,1,0.8,2.3,1,4.1c-5.8,2.3-7.4-2.1-7.4-2.1l1.1-0.2C736.6,143.8,738.3,143,739.5,141.8z
							"/>
					</g>
					
						<linearGradient id="SVGID_45_" gradientUnits="userSpaceOnUse" x1="8419.2842" y1="124.5126" x2="8419.2031" y2="138.2489" gradientTransform="matrix(-1 0 0 1 9166.9053 0)">
						<stop  offset="0" style="stop-color:#F9B776"/>
						<stop  offset="1" style="stop-color:#F47960"/>
					</linearGradient>
					<path class="st56" d="M744.9,125.9l1.4,5.1c0.2,0.6,0.8,0.9,1.3,0.7c0.6-0.2,1.4-0.6,2-0.9c0.7-0.4,0.9-1.3,0.5-1.9l-2.9-4.3
						L744.9,125.9z"/>
				</g>
				
					<linearGradient id="SVGID_46_" gradientUnits="userSpaceOnUse" x1="8398.8389" y1="149.5582" x2="8437.3574" y2="149.5582" gradientTransform="matrix(-1 0 0 1 9166.9053 0)">
					<stop  offset="0" style="stop-color:#2B3582"/>
					<stop  offset="1" style="stop-color:#150E42"/>
				</linearGradient>
				<path class="st57" d="M730.4,140.3l35.8,13c1.5,0.5,2.2,2.3,1.6,3.7l-0.1,0.2c-0.6,1.3-2.1,1.9-3.4,1.3l-34.8-16.1L730.4,140.3z
					"/>
				
					<linearGradient id="SVGID_47_" gradientUnits="userSpaceOnUse" x1="8435.2373" y1="132.4783" x2="8470.5947" y2="132.4783" gradientTransform="matrix(-1 0 0 1 9166.9053 0)">
					<stop  offset="0" style="stop-color:#B37CFF"/>
					<stop  offset="1" style="stop-color:#F895E7"/>
				</linearGradient>
				<ellipse class="st58" cx="714" cy="132.5" rx="17.7" ry="17.4"/>
				
					<linearGradient id="SVGID_48_" gradientUnits="userSpaceOnUse" x1="8433.2451" y1="132.4783" x2="8472.5869" y2="132.4783" gradientTransform="matrix(-1 0 0 1 9166.9053 0)">
					<stop  offset="0" style="stop-color:#2B3582"/>
					<stop  offset="1" style="stop-color:#150E42"/>
				</linearGradient>
				<path class="st59" d="M694.3,132.5c0,10.7,8.8,19.3,19.7,19.3c10.9,0,19.7-8.6,19.7-19.3c0-10.7-8.8-19.3-19.7-19.3
					C703.1,113.2,694.3,121.8,694.3,132.5z M697.2,132.5c0-9.1,7.5-16.5,16.8-16.5c9.3,0,16.8,7.4,16.8,16.5
					c0,9.1-7.5,16.5-16.8,16.5C704.7,149,697.2,141.6,697.2,132.5z"/>
				<path class="st2" d="M732.2,134.8C732.2,134.8,732.2,134.8,732.2,134.8C732.1,134.8,732.1,134.8,732.2,134.8c0-0.5,0-1,0-1.5
					c0,0,0-0.1,0.1-0.1c0,0,0.1,0,0.1,0.1C732.3,133.8,732.3,134.3,732.2,134.8C732.2,134.8,732.2,134.8,732.2,134.8z M732,129.4
					C732,129.4,732,129.4,732,129.4c-0.3-1.3-0.7-2.5-1.1-3.7c0,0,0,0,0,0c-2.8-6.8-9.4-11.2-16.9-11.2c-3.5,0-6.9,1-9.8,2.8
					c0,0-0.1,0-0.1,0c0,0,0-0.1,0-0.1c2.9-1.8,6.4-2.8,9.9-2.8c7.5,0,14.2,4.4,17.1,11.3C731.5,126.9,731.9,128.1,732,129.4
					C732.1,129.4,732.1,129.4,732,129.4C732,129.4,732,129.4,732,129.4z"/>
				
					<linearGradient id="SVGID_49_" gradientUnits="userSpaceOnUse" x1="8412.6133" y1="147.5527" x2="8403.2734" y2="155.8236" gradientTransform="matrix(-1 0 0 1 9166.9053 0)">
					<stop  offset="0" style="stop-color:#F9B776"/>
					<stop  offset="1" style="stop-color:#F47960"/>
				</linearGradient>
				<path class="st60" d="M759.8,149.8l-3.4-0.3l-1.5,1.4c0,0,0.3,0.5,1.4,0.2c1.1-0.3,2.6-0.3,2.6-0.3s1.5,0.7,1.5-0.6L759.8,149.8
					z"/>
				
					<linearGradient id="SVGID_50_" gradientUnits="userSpaceOnUse" x1="8433.0078" y1="143.3059" x2="8435.6426" y2="143.3059" gradientTransform="matrix(-1 0 0 1 9166.9053 0)">
					<stop  offset="0" style="stop-color:#F9B776"/>
					<stop  offset="1" style="stop-color:#F47960"/>
				</linearGradient>
				<path class="st61" d="M733.5,144.6c-0.3,0.2-1.3-0.2-1.9-0.6c-0.3-0.2-0.4-0.5-0.3-0.8c0.1-0.5,0.4-1.1,0.7-1.1
					C732.5,141.9,734.8,143.6,733.5,144.6z"/>
				<path class="st2" d="M765.6,158C765.5,158,765.5,158,765.6,158c-0.1-0.1-0.1-0.1,0-0.2c1-0.4,1.6-0.9,1.6-1.7
					c0-0.8-0.5-1.5-1.3-1.8l-4.3-1.7c0,0-0.1-0.1,0-0.1c0,0,0.1-0.1,0.1,0l4.3,1.7c0.9,0.3,1.4,1.1,1.4,2
					C767.3,157,766.7,157.6,765.6,158C765.6,158,765.6,158,765.6,158z"/>
				<path class="st2" d="M760.3,152.1C760.3,152.1,760.3,152.1,760.3,152.1l-0.6-0.2c0,0-0.1-0.1,0-0.1c0,0,0.1-0.1,0.1,0l0.6,0.2
					C760.4,152,760.4,152,760.3,152.1C760.4,152.1,760.3,152.1,760.3,152.1z"/>
				<g>
					
						<linearGradient id="SVGID_51_" gradientUnits="userSpaceOnUse" x1="6089.5356" y1="123.2245" x2="6082.9229" y2="128.2844" gradientTransform="matrix(-1 0 0 1 6833.9053 0)">
						<stop  offset="0" style="stop-color:#F9B776"/>
						<stop  offset="1" style="stop-color:#F47960"/>
					</linearGradient>
					<path class="st62" d="M744.6,120.9c0,0-1.2,2.7-1.2,4.1c-0.1,1.4-0.4,2.3,1.2,2.6c1.6,0.3,3-0.5,3.7-1.9c0,0,1.2-2.1,0.9-3
						S744.6,120.9,744.6,120.9z"/>
					
						<linearGradient id="SVGID_52_" gradientUnits="userSpaceOnUse" x1="6084.8901" y1="119.2302" x2="6090.8779" y2="126.9399" gradientTransform="matrix(-1 0 0 1 6833.9053 0)">
						<stop  offset="0" style="stop-color:#2B3582"/>
						<stop  offset="1" style="stop-color:#150E42"/>
					</linearGradient>
					<path class="st63" d="M747.8,124.6h-0.2c0,0,0.8-1.7,0.1-2c-0.7-0.3-3.7-0.9-4.3-1.9c-0.6-1-0.1-2.3,0.7-2.7
						c0.1,0,0.1,0,0.1,0.1l0.1,0.1c0,0.1,0.2,0.1,0.2,0l0,0c0-0.1,0.1-0.1,0.2,0c0.2,0.3,0.7,0.8,2.1,1.1c2,0.4,3.3,1.2,3.3,2.5
						c0,0.1,0.1,0.1,0.2,0.1c0.1-0.1,0.4-0.1,0.7,0.1c0.5,0.5,0.3,1.7-0.9,2.6c-0.1,0-0.1,0.1,0,0.2c0.2,0.1,0.5,0.5-0.3,0.9
						c-0.9,0.5-1.4,0.4-1.6,0.4c-0.1,0-0.1-0.1-0.1-0.1l0.1-1.2c0-0.1,0-0.1-0.1-0.1H747.8z"/>
					
						<linearGradient id="SVGID_53_" gradientUnits="userSpaceOnUse" x1="6088.7153" y1="122.1525" x2="6082.1025" y2="127.2123" gradientTransform="matrix(-1 0 0 1 6833.9053 0)">
						<stop  offset="0" style="stop-color:#F9B776"/>
						<stop  offset="1" style="stop-color:#F47960"/>
					</linearGradient>
					<path class="st64" d="M747.7,124.9c0,0,0.4-1.7,1.2-1.2c0.8,0.5-0.4,1.9-1,2L747.7,124.9z"/>
				</g>
			</g>
		</g>
	</g>
	<linearGradient id="SVGID_54_" gradientUnits="userSpaceOnUse" x1="735.3168" y1="97.9056" x2="702.2935" y2="144.795">
		<stop  offset="0" style="stop-color:#53D8FF"/>
		<stop  offset="1" style="stop-color:#3840F7"/>
	</linearGradient>
	<path class="st65" d="M704.5,126.1c3,2.9,5.6,6,7.8,9.1c3.3-7.6,6.9-14.7,10.8-21.1l9.5-3.2c-6.5,8.5-13.5,21.2-19.4,33.9
		c-4.3-6.1-8.6-12.1-11.7-14.2L704.5,126.1z"/>
</g>
</svg>
