<?xml version="1.0" encoding="utf-8"?>
<!-- Generator: Adobe Illustrator 25.2.1, SVG Export Plug-In . SVG Version: 6.00 Build 0)  -->
<svg version="1.1" id="Layer_1" xmlns="http://www.w3.org/2000/svg" xmlns:xlink="http://www.w3.org/1999/xlink" x="0px" y="0px"
	 viewBox="0 0 840 350" style="enable-background:new 0 0 840 350;" xml:space="preserve">
<style type="text/css">
	.st0{fill:#00B2E7;}
	.st1{fill:none;stroke:#00ADA6;stroke-width:4;stroke-miterlimit:10;}
	.st2{fill:#FFFFFF;}
	.st3{fill:#FD9702;}
	.st4{fill:#FDC666;}
	.st5{fill:#FDECDB;}
	.st6{fill:none;stroke:#FDC666;stroke-linecap:round;stroke-miterlimit:10;}
	.st7{fill:#F0B39C;}
	.st8{fill:#045170;}
	.st9{fill:#005681;}
	.st10{fill:#005384;}
	.st11{fill:#FDD6C0;}
	.st12{fill:#005684;}
	.st13{fill:#F7CBB4;}
	.st14{fill:none;stroke:#053F54;stroke-width:0.5;stroke-linecap:round;stroke-miterlimit:10;}
	.st15{fill:none;stroke:#FD9702;stroke-width:0.5;stroke-linecap:round;stroke-miterlimit:10;}
	.st16{fill:none;stroke:#FDC666;stroke-width:0.5;stroke-miterlimit:10;}
	.st17{fill:#FDECD0;}
</style>
<g>
	<g>
		<path class="st0" d="M239.9,126.3c0,57.9-46.8,104.8-104.4,104.8S31,184.2,31,126.3S77.8,21.5,135.4,21.5c1.6,0,3.1,0,4.7,0.1
			C195.6,24.1,239.9,70,239.9,126.3z"/>
		<path class="st0" d="M140.1,21.6h594.7c0,0,91.6,14.6,101.2,101.5v88.8v141.2c0,0-21.8-122.8-123.7-122.8s-576.9,0.1-576.9,0.1"/>
	</g>
	<path class="st1" d="M128.8,249.5C61,249.5,6,194.3,6,126.3S61,3.2,128.8,3.2c1.8,0,3.7,0,5.5,0.1"/>
	<g>
		<ellipse id="Oval_2_" class="st2" cx="139.7" cy="121.7" rx="84.3" ry="84.6"/>
	</g>
	<g>
		<g>
			<path class="st2" d="M287.3,66.3h8.8L306.3,99h-7.8l-4.3-16.5c-0.9-3.3-1.8-7.1-2.6-10.5h-0.2c-0.8,3.4-1.7,7.3-2.6,10.5
				L284.6,99h-7.5L287.3,66.3z M283.8,85.5h15.7v5.7h-15.7V85.5z"/>
			<path class="st2" d="M307.1,96.1l3.3-4.6c2.2,1.7,4.3,2.6,6.4,2.6c2.2,0,3.1-0.8,3.1-2.1c0-1.6-2.5-2.4-5-3.4
				c-3-1.2-6.6-3.2-6.6-7.3c0-4.6,3.7-7.8,9.5-7.8c3.8,0,6.6,1.5,8.7,3.1l-3.3,4.4c-1.8-1.3-3.5-2.1-5.2-2.1c-1.9,0-2.8,0.7-2.8,2
				c0,1.6,2.3,2.2,4.9,3.1c3.1,1.2,6.7,2.9,6.7,7.5c0,4.5-3.5,8-10.2,8C313.3,99.6,309.6,98.2,307.1,96.1z"/>
			<path class="st2" d="M329.2,96.1l3.3-4.6c2.2,1.7,4.3,2.6,6.4,2.6c2.2,0,3.1-0.8,3.1-2.1c0-1.6-2.5-2.4-5-3.4
				c-3-1.2-6.6-3.2-6.6-7.3c0-4.6,3.7-7.8,9.5-7.8c3.8,0,6.6,1.5,8.7,3.1l-3.3,4.4c-1.8-1.3-3.5-2.1-5.2-2.1c-1.9,0-2.8,0.7-2.8,2
				c0,1.6,2.3,2.2,4.9,3.1c3.1,1.2,6.7,2.9,6.7,7.5c0,4.5-3.5,8-10.2,8C335.4,99.6,331.7,98.2,329.2,96.1z"/>
			<path class="st2" d="M352.9,66.7c0-2.3,1.8-3.8,4.2-3.8s4.2,1.6,4.2,3.8c0,2.2-1.8,3.8-4.2,3.8S352.9,68.9,352.9,66.7z
				 M353.5,74.1h7.3V99h-7.3V74.1z"/>
			<path class="st2" d="M365.8,103.3c0-2.1,1.2-3.7,3.5-5v-0.2c-1.3-0.9-2.3-2.2-2.3-4.2c0-1.8,1.2-3.5,2.8-4.7V89
				c-1.7-1.2-3.3-3.5-3.3-6.4c0-6,4.9-9,10.2-9c1.4,0,2.7,0.2,3.8,0.6h9.1v5.4h-4c0.5,0.7,0.8,2,0.8,3.3c0,5.7-4.3,8.4-9.8,8.4
				c-0.9,0-1.9-0.2-3-0.5c-0.6,0.5-0.9,1-0.9,1.9c0,1.2,1,1.8,3.7,1.8h4c6.1,0,9.5,1.9,9.5,6.3c0,5.2-5.4,8.9-13.9,8.9
				C370.4,109.6,365.8,107.7,365.8,103.3z M383,101.9c0-1.6-1.3-1.9-3.8-1.9h-2.6c-1.7,0-2.7-0.1-3.5-0.3c-0.9,0.8-1.3,1.5-1.3,2.4
				c0,1.9,2.2,2.9,5.5,2.9C380.6,104.9,383,103.6,383,101.9z M380.1,82.5c0-2.6-1.4-4-3.4-4s-3.4,1.4-3.4,4c0,2.7,1.5,4.1,3.4,4.1
				S380.1,85.3,380.1,82.5z"/>
			<path class="st2" d="M394,74.1h6l0.5,3.1h0.2c2.1-2,4.6-3.7,8-3.7c5.4,0,7.7,3.8,7.7,10V99H409V84.5c0-3.6-1-4.7-3.1-4.7
				c-1.8,0-3,0.9-4.6,2.4V99H394V74.1z"/>
			<path class="st2" d="M422.5,74.1h6l0.5,3.2h0.2c2-2.1,4.3-3.8,7.5-3.8c3.5,0,5.6,1.5,6.8,4.2c2.2-2.3,4.5-4.2,7.8-4.2
				c5.4,0,7.8,3.8,7.8,10V99h-7.3V84.5c0-3.6-1-4.7-3.1-4.7c-1.2,0-2.7,0.8-4.2,2.4V99h-7.3V84.5c0-3.6-1-4.7-3.1-4.7
				c-1.2,0-2.7,0.8-4.2,2.4V99h-7.3V74.1z"/>
			<path class="st2" d="M463.9,86.6c0-8.1,5.7-13,11.7-13c7.1,0,10.6,5.1,10.6,11.9c0,1.3-0.2,2.7-0.3,3.3H471
				c0.7,3.6,3.1,5.3,6.4,5.3c1.9,0,3.6-0.6,5.4-1.6l2.4,4.4c-2.5,1.8-5.9,2.8-8.8,2.8C469.3,99.6,463.9,94.8,463.9,86.6z
				 M479.8,83.9c0-2.7-1.2-4.7-4.1-4.7c-2.3,0-4.3,1.6-4.8,4.7H479.8z"/>
			<path class="st2" d="M491.2,74.1h6l0.5,3.1h0.2c2.1-2,4.6-3.7,8-3.7c5.4,0,7.7,3.8,7.7,10V99h-7.3V84.5c0-3.6-1-4.7-3.1-4.7
				c-1.8,0-3,0.9-4.6,2.4V99h-7.3V74.1z"/>
			<path class="st2" d="M520.7,90v-10h-3.4v-5.5l3.8-0.3l0.9-6.6h6.1v6.6h5.9v5.8h-5.9v10c0,2.8,1.3,3.9,3.2,3.9
				c0.8,0,1.7-0.2,2.4-0.5l1.2,5.3c-1.3,0.4-3.1,0.9-5.5,0.9C523.2,99.6,520.7,95.7,520.7,90z"/>
			<path class="st2" d="M547.4,94.9l4.2-5.1c2.3,2,5.3,3.4,8,3.4c3.1,0,4.6-1.2,4.6-3.2c0-2.1-1.8-2.7-4.7-3.9l-4.2-1.8
				c-3.4-1.4-6.6-4.2-6.6-8.9c0-5.4,4.8-9.7,11.6-9.7c3.7,0,7.7,1.5,10.5,4.3l-3.7,4.7c-2.1-1.6-4.2-2.6-6.8-2.6
				c-2.5,0-4.2,1.1-4.2,2.9c0,2,2.1,2.7,5,3.9l4.1,1.7c4,1.6,6.5,4.3,6.5,8.9c0,5.4-4.5,10.1-12.3,10.1
				C555.2,99.6,550.7,98,547.4,94.9z"/>
			<path class="st2" d="M577.6,90v-10h-3.4v-5.5l3.8-0.3l0.9-6.6h6.1v6.6h5.9v5.8H585v10c0,2.8,1.3,3.9,3.2,3.9
				c0.8,0,1.7-0.2,2.4-0.5l1.2,5.3c-1.3,0.4-3.1,0.9-5.5,0.9C580.1,99.6,577.6,95.7,577.6,90z"/>
			<path class="st2" d="M594.6,92.1c0-5.2,4.2-8.1,14-9.1c-0.1-2.2-1.2-3.6-3.9-3.6c-2.1,0-4.2,0.9-6.6,2.2l-2.6-4.8
				c3.1-1.9,6.7-3.3,10.6-3.3c6.3,0,9.8,3.6,9.8,11.2V99h-6l-0.5-2.5h-0.2c-2.1,1.8-4.4,3.1-7.2,3.1
				C597.5,99.6,594.6,96.3,594.6,92.1z M608.6,91.8v-4.3c-5.2,0.7-6.9,2.2-6.9,4.1c0,1.6,1.1,2.4,2.8,2.4
				C606.2,93.9,607.3,93.1,608.6,91.8z"/>
			<path class="st2" d="M623.1,90v-10h-3.4v-5.5l3.8-0.3l0.9-6.6h6.1v6.6h5.9v5.8h-5.9v10c0,2.8,1.3,3.9,3.2,3.9
				c0.8,0,1.7-0.2,2.4-0.5l1.2,5.3c-1.3,0.4-3.1,0.9-5.5,0.9C625.5,99.6,623.1,95.7,623.1,90z"/>
			<path class="st2" d="M641,89.6V74.1h7.3v14.5c0,3.6,1,4.7,3.1,4.7c1.8,0,3-0.8,4.4-2.7V74.1h7.3V99h-6l-0.5-3.4h-0.2
				c-2.1,2.5-4.4,4-7.8,4C643.3,99.6,641,95.8,641,89.6z"/>
			<path class="st2" d="M667.4,96.1l3.3-4.6c2.2,1.7,4.3,2.6,6.4,2.6c2.2,0,3.1-0.8,3.1-2.1c0-1.6-2.5-2.4-5-3.4
				c-3-1.2-6.6-3.2-6.6-7.3c0-4.6,3.7-7.8,9.5-7.8c3.8,0,6.6,1.5,8.7,3.1l-3.3,4.4c-1.8-1.3-3.5-2.1-5.2-2.1c-1.9,0-2.8,0.7-2.8,2
				c0,1.6,2.3,2.2,4.9,3.1c3.1,1.2,6.7,2.9,6.7,7.5c0,4.5-3.5,8-10.2,8C673.6,99.6,669.9,98.2,667.4,96.1z"/>
		</g>
	</g>
	<g>
		<g>
			<path class="st2" d="M284.2,133.9h-6v-2.1h14.4v2.1h-6v17.6h-2.5V133.9z"/>
			<path class="st2" d="M295.9,130.1h2.5v5.9l-0.1,3c1.4-1.3,2.8-2.4,4.8-2.4c3.1,0,4.4,2,4.4,5.7v9.3h-2.5v-8.9
				c0-2.7-0.8-3.9-2.7-3.9c-1.5,0-2.5,0.8-4,2.2v10.6h-2.5V130.1z"/>
			<path class="st2" d="M311.8,132.3c0-1,0.7-1.6,1.7-1.6c1,0,1.7,0.6,1.7,1.6c0,0.9-0.7,1.6-1.7,1.6
				C312.5,133.9,311.8,133.3,311.8,132.3z M312.2,136.9h2.5v14.6h-2.5V136.9z"/>
			<path class="st2" d="M318,149.9l1.2-1.6c1.3,1,2.5,1.7,4.3,1.7c1.9,0,2.9-1,2.9-2.3c0-1.5-1.7-2.2-3.3-2.8
				c-2-0.7-4.3-1.8-4.3-4.2c0-2.3,1.9-4.1,5-4.1c1.8,0,3.4,0.7,4.5,1.6l-1.2,1.6c-1-0.7-2-1.3-3.3-1.3c-1.8,0-2.7,1-2.7,2.1
				c0,1.4,1.6,1.9,3.2,2.5c2.1,0.8,4.4,1.7,4.4,4.4c0,2.4-1.9,4.3-5.3,4.3C321.4,151.9,319.4,151,318,149.9z"/>
			<path class="st2" d="M336.4,136.9h2.5l2.2,8.4c0.3,1.4,0.6,2.7,0.9,4.1h0.1c0.3-1.4,0.6-2.7,1-4.1l2.2-8.4h2.4l2.3,8.4
				c0.4,1.4,0.7,2.7,1,4.1h0.1c0.3-1.4,0.6-2.7,0.9-4.1l2.1-8.4h2.3l-3.9,14.6h-3l-2.1-7.9c-0.4-1.4-0.6-2.7-1-4.2h-0.1
				c-0.3,1.5-0.6,2.9-1,4.2l-2,7.8h-2.9L336.4,136.9z"/>
			<path class="st2" d="M359.2,132.3c0-1,0.7-1.6,1.7-1.6c1,0,1.7,0.6,1.7,1.6c0,0.9-0.7,1.6-1.7,1.6
				C360,133.9,359.2,133.3,359.2,132.3z M359.7,136.9h2.5v14.6h-2.5V136.9z"/>
			<path class="st2" d="M367,148.6v-18.5h2.5v18.7c0,0.8,0.3,1.1,0.7,1.1c0.1,0,0.3,0,0.5-0.1l0.3,1.9c-0.4,0.1-0.8,0.2-1.4,0.2
				C367.8,151.9,367,150.7,367,148.6z"/>
			<path class="st2" d="M374.7,148.6v-18.5h2.5v18.7c0,0.8,0.3,1.1,0.7,1.1c0.1,0,0.3,0,0.5-0.1l0.3,1.9c-0.4,0.1-0.8,0.2-1.4,0.2
				C375.4,151.9,374.7,150.7,374.7,148.6z"/>
			<path class="st2" d="M387.3,144.2c0-4.7,3-7.7,6.3-7.7c1.7,0,2.8,0.6,4.1,1.7l-0.1-2.5v-5.6h2.5v21.4h-2l-0.2-1.7h-0.1
				c-1.1,1.1-2.7,2.1-4.4,2.1C389.6,151.9,387.3,149.1,387.3,144.2z M397.6,147.8v-7.7c-1.2-1.1-2.4-1.5-3.6-1.5
				c-2.3,0-4.2,2.3-4.2,5.6c0,3.5,1.4,5.6,4,5.6C395.2,149.8,396.3,149.2,397.6,147.8z"/>
			<path class="st2" d="M404.5,132.3c0-1,0.7-1.6,1.7-1.6c1,0,1.7,0.6,1.7,1.6c0,0.9-0.7,1.6-1.7,1.6
				C405.2,133.9,404.5,133.3,404.5,132.3z M404.9,136.9h2.5v14.6h-2.5V136.9z"/>
			<path class="st2" d="M410.7,149.9l1.2-1.6c1.3,1,2.5,1.7,4.3,1.7c1.9,0,2.9-1,2.9-2.3c0-1.5-1.7-2.2-3.3-2.8
				c-2-0.7-4.3-1.8-4.3-4.2c0-2.3,1.9-4.1,5-4.1c1.8,0,3.4,0.7,4.5,1.6l-1.2,1.6c-1-0.7-2-1.3-3.3-1.3c-1.8,0-2.7,1-2.7,2.1
				c0,1.4,1.6,1.9,3.2,2.5c2.1,0.8,4.4,1.7,4.4,4.4c0,2.4-1.9,4.3-5.3,4.3C414.1,151.9,412.1,151,410.7,149.9z"/>
			<path class="st2" d="M424.9,136.9h2l0.2,1.7h0.1c1.3-1.1,3-2,4.6-2c3.8,0,5.8,2.9,5.8,7.4c0,5-3,7.9-6.3,7.9
				c-1.3,0-2.7-0.6-4-1.7l0.1,2.6v4.9h-2.5V136.9z M435.1,144c0-3.2-1.1-5.4-3.8-5.4c-1.2,0-2.5,0.7-3.9,2v7.7
				c1.3,1.1,2.6,1.5,3.5,1.5C433.3,149.8,435.1,147.6,435.1,144z"/>
			<path class="st2" d="M441.5,148.6v-18.5h2.5v18.7c0,0.8,0.3,1.1,0.7,1.1c0.1,0,0.3,0,0.5-0.1l0.3,1.9c-0.4,0.1-0.8,0.2-1.4,0.2
				C442.3,151.9,441.5,150.7,441.5,148.6z"/>
			<path class="st2" d="M448.2,147.7c0-3.2,2.7-4.8,8.9-5.5c0-1.9-0.6-3.7-3-3.7c-1.7,0-3.2,0.8-4.3,1.6l-1-1.7
				c1.3-0.9,3.4-1.9,5.7-1.9c3.6,0,5.1,2.4,5.1,6v9h-2l-0.2-1.7h-0.1c-1.4,1.2-3,2.1-4.8,2.1C450.1,151.9,448.2,150.4,448.2,147.7z
				 M457.2,148v-4.1c-4.9,0.6-6.5,1.8-6.5,3.7c0,1.7,1.1,2.3,2.6,2.3C454.6,149.9,455.8,149.2,457.2,148z"/>
			<path class="st2" d="M462.8,157.5l0.5-2c0.3,0.1,0.7,0.2,1.1,0.2c1.6,0,2.7-1.3,3.3-3.1l0.3-1.1l-5.8-14.6h2.5l3,8.1
				c0.5,1.3,0.9,2.8,1.4,4.1h0.1c0.4-1.3,0.8-2.8,1.2-4.1l2.6-8.1h2.4l-5.5,15.8c-1,2.9-2.5,5.1-5.5,5.1
				C463.8,157.8,463.2,157.7,462.8,157.5z"/>
			<path class="st2" d="M484.7,147v-8.1h-2.2v-1.9l2.3-0.1l0.3-4.1h2.1v4.1h3.9v2h-3.9v8.1c0,1.8,0.6,2.8,2.3,2.8
				c0.5,0,1.2-0.2,1.7-0.4l0.5,1.9c-0.8,0.3-1.8,0.5-2.7,0.5C485.7,151.9,484.7,149.9,484.7,147z"/>
			<path class="st2" d="M494.3,130.1h2.5v5.9l-0.1,3c1.4-1.3,2.8-2.4,4.8-2.4c3.1,0,4.4,2,4.4,5.7v9.3h-2.5v-8.9
				c0-2.7-0.8-3.9-2.7-3.9c-1.5,0-2.5,0.8-4,2.2v10.6h-2.5V130.1z"/>
			<path class="st2" d="M509.6,144.2c0-4.8,3.2-7.7,6.5-7.7c3.7,0,5.8,2.7,5.8,6.9c0,0.5,0,1-0.1,1.4H512c0.2,3.1,2.1,5.1,4.8,5.1
				c1.4,0,2.5-0.5,3.6-1.2l0.9,1.6c-1.3,0.8-2.8,1.5-4.8,1.5C512.7,151.9,509.6,149,509.6,144.2z M519.7,143c0-2.9-1.3-4.5-3.6-4.5
				c-2,0-3.9,1.6-4.2,4.5H519.7z"/>
			<path class="st2" d="M529.9,149.9l1.2-1.6c1.3,1,2.5,1.7,4.3,1.7c1.9,0,2.9-1,2.9-2.3c0-1.5-1.7-2.2-3.3-2.8
				c-2-0.7-4.3-1.8-4.3-4.2c0-2.3,1.9-4.1,5-4.1c1.8,0,3.4,0.7,4.5,1.6l-1.2,1.6c-1-0.7-2-1.3-3.3-1.3c-1.8,0-2.7,1-2.7,2.1
				c0,1.4,1.6,1.9,3.2,2.5c2.1,0.8,4.4,1.7,4.4,4.4c0,2.4-1.9,4.3-5.3,4.3C533.2,151.9,531.3,151,529.9,149.9z"/>
			<path class="st2" d="M544.5,147v-8.1h-2.2v-1.9l2.3-0.1l0.3-4.1h2.1v4.1h3.9v2H547v8.1c0,1.8,0.6,2.8,2.3,2.8
				c0.5,0,1.2-0.2,1.7-0.4l0.5,1.9c-0.8,0.3-1.8,0.5-2.7,0.5C545.5,151.9,544.5,149.9,544.5,147z"/>
			<path class="st2" d="M553.3,147.7c0-3.2,2.7-4.8,8.9-5.5c0-1.9-0.6-3.7-3-3.7c-1.7,0-3.2,0.8-4.3,1.6l-1-1.7
				c1.3-0.9,3.4-1.9,5.7-1.9c3.6,0,5.1,2.4,5.1,6v9h-2l-0.2-1.7h-0.1c-1.4,1.2-3,2.1-4.8,2.1C555.1,151.9,553.3,150.4,553.3,147.7z
				 M562.2,148v-4.1c-4.9,0.6-6.5,1.8-6.5,3.7c0,1.7,1.1,2.3,2.6,2.3C559.7,149.9,560.8,149.2,562.2,148z"/>
			<path class="st2" d="M569.7,147v-8.1h-2.2v-1.9l2.3-0.1l0.3-4.1h2.1v4.1h3.9v2h-3.9v8.1c0,1.8,0.6,2.8,2.3,2.8
				c0.5,0,1.2-0.2,1.7-0.4l0.5,1.9c-0.8,0.3-1.8,0.5-2.7,0.5C570.8,151.9,569.7,149.9,569.7,147z"/>
			<path class="st2" d="M579.2,146.2v-9.3h2.5v8.9c0,2.7,0.8,3.9,2.7,3.9c1.5,0,2.5-0.7,3.9-2.5v-10.4h2.5v14.6h-2l-0.2-2.3h-0.1
				c-1.4,1.6-2.8,2.6-4.8,2.6C580.6,151.9,579.2,149.9,579.2,146.2z"/>
			<path class="st2" d="M594.1,149.9l1.2-1.6c1.3,1,2.5,1.7,4.3,1.7c1.9,0,2.9-1,2.9-2.3c0-1.5-1.7-2.2-3.3-2.8
				c-2-0.7-4.3-1.8-4.3-4.2c0-2.3,1.9-4.1,5-4.1c1.8,0,3.4,0.7,4.5,1.6l-1.2,1.6c-1-0.7-2-1.3-3.3-1.3c-1.8,0-2.7,1-2.7,2.1
				c0,1.4,1.6,1.9,3.2,2.5c2.1,0.8,4.4,1.7,4.4,4.4c0,2.4-1.9,4.3-5.3,4.3C597.5,151.9,595.5,151,594.1,149.9z"/>
			<path class="st2" d="M613.2,144.2c0-4.9,3.2-7.7,6.8-7.7s6.8,2.8,6.8,7.7c0,4.8-3.2,7.6-6.8,7.6S613.2,149.1,613.2,144.2z
				 M624.1,144.2c0-3.3-1.7-5.6-4.2-5.6c-2.5,0-4.2,2.3-4.2,5.6c0,3.3,1.7,5.6,4.2,5.6C622.4,149.8,624.1,147.6,624.1,144.2z"/>
			<path class="st2" d="M628.9,137.1l2.1-0.1h5.4v2h-7.5V137.1z M630.9,134.6c0-3,1.3-4.9,4.3-4.9c0.9,0,1.8,0.2,2.4,0.5l-0.5,1.9
				c-0.6-0.3-1.1-0.4-1.7-0.4c-1.4,0-2.1,1-2.1,2.9v16.9h-2.5V134.6z"/>
			<path class="st2" d="M645.7,147v-8.1h-2.2v-1.9l2.3-0.1l0.3-4.1h2.1v4.1h3.9v2h-3.9v8.1c0,1.8,0.6,2.8,2.3,2.8
				c0.5,0,1.2-0.2,1.7-0.4l0.5,1.9c-0.8,0.3-1.8,0.5-2.7,0.5C646.7,151.9,645.7,149.9,645.7,147z"/>
			<path class="st2" d="M655.4,130.1h2.5v5.9l-0.1,3c1.4-1.3,2.8-2.4,4.8-2.4c3.1,0,4.4,2,4.4,5.7v9.3h-2.5v-8.9
				c0-2.7-0.8-3.9-2.7-3.9c-1.5,0-2.5,0.8-4,2.2v10.6h-2.5V130.1z"/>
			<path class="st2" d="M670.6,144.2c0-4.8,3.2-7.7,6.5-7.7c3.7,0,5.8,2.7,5.8,6.9c0,0.5,0,1-0.1,1.4H673c0.2,3.1,2.1,5.1,4.8,5.1
				c1.4,0,2.5-0.5,3.6-1.2l0.9,1.6c-1.3,0.8-2.8,1.5-4.8,1.5C673.7,151.9,670.6,149,670.6,144.2z M680.8,143c0-2.9-1.3-4.5-3.6-4.5
				c-2,0-3.9,1.6-4.2,4.5H680.8z"/>
			<path class="st2" d="M278.3,185.9l1.2-1.6c1.3,1,2.5,1.7,4.3,1.7c1.9,0,2.9-1,2.9-2.3c0-1.5-1.7-2.2-3.3-2.8
				c-2-0.7-4.3-1.8-4.3-4.2c0-2.3,1.9-4.1,5-4.1c1.8,0,3.4,0.7,4.5,1.6l-1.2,1.6c-1-0.7-2-1.3-3.3-1.3c-1.8,0-2.7,1-2.7,2.1
				c0,1.4,1.6,1.9,3.2,2.5c2.1,0.8,4.4,1.7,4.4,4.4c0,2.4-1.9,4.3-5.3,4.3C281.6,188,279.6,187.1,278.3,185.9z"/>
			<path class="st2" d="M292.9,183.1V175h-2.2v-1.9l2.3-0.1l0.3-4.1h2.1v4.1h3.9v2h-3.9v8.1c0,1.8,0.6,2.8,2.3,2.8
				c0.5,0,1.2-0.2,1.7-0.4l0.5,1.9c-0.8,0.3-1.8,0.5-2.7,0.5C293.9,188,292.9,186,292.9,183.1z"/>
			<path class="st2" d="M302.4,182.2V173h2.5v8.9c0,2.7,0.8,3.9,2.7,3.9c1.5,0,2.5-0.7,3.9-2.5V173h2.5v14.6h-2l-0.2-2.3h-0.1
				c-1.4,1.6-2.8,2.6-4.8,2.6C303.7,188,302.4,186,302.4,182.2z"/>
			<path class="st2" d="M317.8,180.3c0-4.7,3-7.7,6.3-7.7c1.7,0,2.8,0.6,4.1,1.7l-0.1-2.5v-5.6h2.5v21.4h-2l-0.2-1.7h-0.1
				c-1.1,1.1-2.7,2.1-4.4,2.1C320.2,188,317.8,185.2,317.8,180.3z M328.1,183.9v-7.7c-1.2-1.1-2.4-1.5-3.6-1.5
				c-2.3,0-4.2,2.3-4.2,5.6c0,3.5,1.4,5.6,4,5.6C325.7,185.9,326.9,185.2,328.1,183.9z"/>
			<path class="st2" d="M334.4,180.3c0-4.8,3.2-7.7,6.5-7.7c3.7,0,5.8,2.7,5.8,6.9c0,0.5,0,1-0.1,1.4h-9.8c0.2,3.1,2.1,5.1,4.8,5.1
				c1.4,0,2.5-0.5,3.6-1.2l0.9,1.6c-1.3,0.8-2.8,1.5-4.8,1.5C337.5,188,334.4,185.1,334.4,180.3z M344.6,179.1
				c0-2.9-1.3-4.5-3.6-4.5c-2,0-3.9,1.6-4.2,4.5H344.6z"/>
			<path class="st2" d="M350.3,173h2l0.2,2.1h0.1c1.4-1.4,2.9-2.5,4.9-2.5c3.1,0,4.4,2,4.4,5.7v9.3h-2.5v-8.9c0-2.7-0.8-3.9-2.7-3.9
				c-1.5,0-2.5,0.8-4,2.2v10.6h-2.5V173z"/>
			<path class="st2" d="M367.2,183.1V175H365v-1.9l2.3-0.1l0.3-4.1h2.1v4.1h3.9v2h-3.9v8.1c0,1.8,0.6,2.8,2.3,2.8
				c0.5,0,1.2-0.2,1.7-0.4l0.5,1.9c-0.8,0.3-1.8,0.5-2.7,0.5C368.2,188,367.2,186,367.2,183.1z"/>
			<path class="st2" d="M376.3,173.5c1.5-1,2.3-2,2.3-3.8l-0.4-2l1.2,1.5c-0.4,0.4-0.7,0.5-1.2,0.5c-0.8,0-1.6-0.5-1.6-1.5
				c0-1,0.7-1.7,1.6-1.7c1.2,0,1.9,1,1.9,2.7c0,2.4-1.1,4.1-3.2,5.3L376.3,173.5z"/>
			<path class="st2" d="M382.7,185.9l1.2-1.6c1.3,1,2.5,1.7,4.3,1.7c1.9,0,2.9-1,2.9-2.3c0-1.5-1.7-2.2-3.3-2.8
				c-2-0.7-4.3-1.8-4.3-4.2c0-2.3,1.9-4.1,5-4.1c1.8,0,3.4,0.7,4.5,1.6l-1.2,1.6c-1-0.7-2-1.3-3.3-1.3c-1.8,0-2.7,1-2.7,2.1
				c0,1.4,1.6,1.9,3.2,2.5c2.1,0.8,4.4,1.7,4.4,4.4c0,2.4-1.9,4.3-5.3,4.3C386.1,188,384.1,187.1,382.7,185.9z"/>
			<path class="st2" d="M402,183.8c0-3.2,2.7-4.8,8.9-5.5c0-1.9-0.6-3.7-3-3.7c-1.7,0-3.2,0.8-4.3,1.6l-1-1.7
				c1.3-0.9,3.4-1.9,5.7-1.9c3.6,0,5.1,2.4,5.1,6v9h-2l-0.2-1.7h-0.1c-1.4,1.2-3,2.1-4.8,2.1C403.8,188,402,186.4,402,183.8z
				 M410.9,184V180c-4.9,0.6-6.5,1.8-6.5,3.7c0,1.7,1.1,2.3,2.6,2.3C408.3,186,409.5,185.3,410.9,184z"/>
			<path class="st2" d="M416.4,185.9l1.2-1.6c1.3,1,2.5,1.7,4.3,1.7c1.9,0,2.9-1,2.9-2.3c0-1.5-1.7-2.2-3.3-2.8
				c-2-0.7-4.3-1.8-4.3-4.2c0-2.3,1.9-4.1,5-4.1c1.8,0,3.4,0.7,4.5,1.6l-1.2,1.6c-1-0.7-2-1.3-3.3-1.3c-1.8,0-2.7,1-2.7,2.1
				c0,1.4,1.6,1.9,3.2,2.5c2.1,0.8,4.4,1.7,4.4,4.4c0,2.4-1.9,4.3-5.3,4.3C419.7,188,417.7,187.1,416.4,185.9z"/>
			<path class="st2" d="M428.9,185.9l1.2-1.6c1.3,1,2.5,1.7,4.3,1.7c1.9,0,2.9-1,2.9-2.3c0-1.5-1.7-2.2-3.3-2.8
				c-2-0.7-4.3-1.8-4.3-4.2c0-2.3,1.9-4.1,5-4.1c1.8,0,3.4,0.7,4.5,1.6l-1.2,1.6c-1-0.7-2-1.3-3.3-1.3c-1.8,0-2.7,1-2.7,2.1
				c0,1.4,1.6,1.9,3.2,2.5c2.1,0.8,4.4,1.7,4.4,4.4c0,2.4-1.9,4.3-5.3,4.3C432.3,188,430.3,187.1,428.9,185.9z"/>
			<path class="st2" d="M442.6,168.4c0-1,0.7-1.6,1.7-1.6c1,0,1.7,0.6,1.7,1.6c0,0.9-0.7,1.6-1.7,1.6
				C443.4,170,442.6,169.3,442.6,168.4z M443.1,173h2.5v14.6h-2.5V173z"/>
			<path class="st2" d="M449.3,190.4c0-1.3,0.8-2.4,2.1-3.3V187c-0.7-0.5-1.3-1.2-1.3-2.4c0-1.2,0.8-2.2,1.6-2.7v-0.1
				c-1-0.8-1.9-2.2-1.9-3.9c0-3.2,2.5-5.2,5.5-5.2c0.8,0,1.5,0.2,2.1,0.4h5.1v1.9h-3c0.7,0.7,1.2,1.8,1.2,3c0,3.1-2.4,5.1-5.3,5.1
				c-0.7,0-1.5-0.2-2.2-0.5c-0.5,0.4-0.9,0.9-0.9,1.7c0,0.9,0.6,1.6,2.6,1.6h2.8c3.4,0,5.1,1.1,5.1,3.5c0,2.7-2.9,5.1-7.4,5.1
				C451.8,194.3,449.3,192.9,449.3,190.4z M460.3,189.6c0-1.4-1-1.8-2.9-1.8h-2.5c-0.6,0-1.2-0.1-1.9-0.2c-1,0.7-1.5,1.6-1.5,2.5
				c0,1.6,1.6,2.6,4.2,2.6C458.5,192.6,460.3,191.2,460.3,189.6z M458.5,177.8c0-2.1-1.4-3.4-3.1-3.4c-1.7,0-3.1,1.3-3.1,3.4
				c0,2.1,1.4,3.5,3.1,3.5S458.5,180,458.5,177.8z"/>
			<path class="st2" d="M465.6,173h2l0.2,2.1h0.1c1.4-1.4,2.9-2.5,4.9-2.5c3.1,0,4.4,2,4.4,5.7v9.3h-2.5v-8.9c0-2.7-0.8-3.9-2.7-3.9
				c-1.5,0-2.5,0.8-4,2.2v10.6h-2.5V173z"/>
			<path class="st2" d="M481.9,173h2l0.2,2.1h0.1c1.3-1.4,2.8-2.5,4.5-2.5c2.2,0,3.4,1.1,4,2.8c1.5-1.6,3-2.8,4.8-2.8
				c3,0,4.4,2,4.4,5.7v9.3h-2.5v-8.9c0-2.7-0.9-3.9-2.7-3.9c-1.1,0-2.3,0.7-3.7,2.2v10.6h-2.5v-8.9c0-2.7-0.9-3.9-2.7-3.9
				c-1.1,0-2.3,0.7-3.7,2.2v10.6h-2.5V173z"/>
			<path class="st2" d="M505.7,180.3c0-4.8,3.2-7.7,6.5-7.7c3.7,0,5.8,2.7,5.8,6.9c0,0.5,0,1-0.1,1.4h-9.8c0.2,3.1,2.1,5.1,4.8,5.1
				c1.4,0,2.5-0.5,3.6-1.2l0.9,1.6c-1.3,0.8-2.8,1.5-4.8,1.5C508.8,188,505.7,185.1,505.7,180.3z M515.9,179.1
				c0-2.9-1.3-4.5-3.6-4.5c-2,0-3.9,1.6-4.2,4.5H515.9z"/>
			<path class="st2" d="M521.6,173h2l0.2,2.1h0.1c1.4-1.4,2.9-2.5,4.9-2.5c3.1,0,4.4,2,4.4,5.7v9.3h-2.5v-8.9c0-2.7-0.8-3.9-2.7-3.9
				c-1.5,0-2.5,0.8-4,2.2v10.6h-2.5V173z"/>
			<path class="st2" d="M538.5,183.1V175h-2.2v-1.9l2.3-0.1l0.3-4.1h2.1v4.1h3.9v2h-3.9v8.1c0,1.8,0.6,2.8,2.3,2.8
				c0.5,0,1.2-0.2,1.7-0.4l0.5,1.9c-0.8,0.3-1.8,0.5-2.7,0.5C539.5,188,538.5,186,538.5,183.1z"/>
			<path class="st2" d="M552.5,185.9l1.2-1.6c1.3,1,2.5,1.7,4.3,1.7c1.9,0,2.9-1,2.9-2.3c0-1.5-1.7-2.2-3.3-2.8
				c-2-0.7-4.3-1.8-4.3-4.2c0-2.3,1.9-4.1,5-4.1c1.8,0,3.4,0.7,4.5,1.6l-1.2,1.6c-1-0.7-2-1.3-3.3-1.3c-1.8,0-2.7,1-2.7,2.1
				c0,1.4,1.6,1.9,3.2,2.5c2.1,0.8,4.4,1.7,4.4,4.4c0,2.4-1.9,4.3-5.3,4.3C555.9,188,553.9,187.1,552.5,185.9z"/>
			<path class="st2" d="M566.5,182.2V173h2.5v8.9c0,2.7,0.8,3.9,2.7,3.9c1.5,0,2.5-0.7,3.9-2.5V173h2.5v14.6h-2l-0.2-2.3h-0.1
				c-1.4,1.6-2.8,2.6-4.8,2.6C567.9,188,566.5,186,566.5,182.2z"/>
			<path class="st2" d="M585.3,186.1L585.3,186.1l-0.3,1.5h-2v-21.4h2.5v5.9l-0.1,2.6c1.3-1.2,3-2,4.6-2c3.8,0,5.8,2.9,5.8,7.4
				c0,5-3,7.9-6.3,7.9C588.1,188,586.6,187.3,585.3,186.1z M593.2,180.1c0-3.2-1.1-5.4-3.8-5.4c-1.2,0-2.5,0.7-3.9,2v7.7
				c1.3,1.1,2.6,1.5,3.5,1.5C591.4,185.9,593.2,183.7,593.2,180.1z"/>
			<path class="st2" d="M599.6,173h2l0.2,2.1h0.1c1.3-1.4,2.8-2.5,4.5-2.5c2.2,0,3.4,1.1,4,2.8c1.5-1.6,3-2.8,4.8-2.8
				c3,0,4.4,2,4.4,5.7v9.3h-2.5v-8.9c0-2.7-0.9-3.9-2.7-3.9c-1.1,0-2.3,0.7-3.7,2.2v10.6h-2.5v-8.9c0-2.7-0.9-3.9-2.7-3.9
				c-1.1,0-2.3,0.7-3.7,2.2v10.6h-2.5V173z"/>
			<path class="st2" d="M624,168.4c0-1,0.7-1.6,1.7-1.6c1,0,1.7,0.6,1.7,1.6c0,0.9-0.7,1.6-1.7,1.6C624.7,170,624,169.3,624,168.4z
				 M624.4,173h2.5v14.6h-2.5V173z"/>
			<path class="st2" d="M632.2,183.1V175h-2.2v-1.9l2.3-0.1l0.3-4.1h2.1v4.1h3.9v2h-3.9v8.1c0,1.8,0.6,2.8,2.3,2.8
				c0.5,0,1.2-0.2,1.7-0.4l0.5,1.9c-0.8,0.3-1.8,0.5-2.7,0.5C633.3,188,632.2,186,632.2,183.1z"/>
			<path class="st2" d="M642.3,183.1V175h-2.2v-1.9l2.3-0.1l0.3-4.1h2.1v4.1h3.9v2h-3.9v8.1c0,1.8,0.6,2.8,2.3,2.8
				c0.5,0,1.2-0.2,1.7-0.4l0.5,1.9c-0.8,0.3-1.8,0.5-2.7,0.5C643.4,188,642.3,186,642.3,183.1z"/>
			<path class="st2" d="M651,180.3c0-4.8,3.2-7.7,6.5-7.7c3.7,0,5.8,2.7,5.8,6.9c0,0.5,0,1-0.1,1.4h-9.8c0.2,3.1,2.1,5.1,4.8,5.1
				c1.4,0,2.5-0.5,3.6-1.2l0.9,1.6c-1.3,0.8-2.8,1.5-4.8,1.5C654,188,651,185.1,651,180.3z M661.1,179.1c0-2.9-1.3-4.5-3.6-4.5
				c-2,0-3.9,1.6-4.2,4.5H661.1z"/>
			<path class="st2" d="M665.9,180.3c0-4.7,3-7.7,6.3-7.7c1.7,0,2.8,0.6,4.1,1.7l-0.1-2.5v-5.6h2.5v21.4h-2l-0.2-1.7h-0.1
				c-1.1,1.1-2.7,2.1-4.4,2.1C668.2,188,665.9,185.2,665.9,180.3z M676.1,183.9v-7.7c-1.2-1.1-2.4-1.5-3.6-1.5
				c-2.3,0-4.2,2.3-4.2,5.6c0,3.5,1.4,5.6,4,5.6C673.8,185.9,674.9,185.2,676.1,183.9z"/>
			<path class="st2" d="M683,186.1c0-1.1,0.8-1.9,1.8-1.9s1.8,0.8,1.8,1.9c0,1.1-0.8,1.9-1.8,1.9S683,187.2,683,186.1z"/>
		</g>
	</g>
</g>
<g>
	<path class="st3" d="M89.8,125.4l7.6-0.1c1.3-23.4,19.7-42.9,43.7-45c26.3-2.3,49.6,17.2,51.9,43.6c2.3,26.3-17.2,49.6-43.6,51.9
		c-8.3,0.7-16.7-0.7-24.2-4.2c-1.9-0.9-2.8-3.2-1.9-5.1c0.9-1.9,3.2-2.8,5.1-1.9c6.3,2.9,13.4,4.1,20.4,3.5
		c22.1-1.9,38.5-21.5,36.6-43.6c-1.9-22.1-21.5-38.5-43.6-36.6c-20,1.8-35.3,17.9-36.7,37.3l7.3-0.1c1.1,0,1.7,1.1,1.2,2.1l-5.5,9.8
		l-5.5,9.8c-0.5,0.9-1.9,0.9-2.4,0l-5.8-9.7l-5.8-9.7C88.1,126.6,88.8,125.4,89.8,125.4z"/>
	<g id="_x3C_Group_x3E__00000034791534703184507190000016995712744274724497_">
		<path id="_x3C_Path_x3E__00000167385906909606676070000017240972750715837592_" class="st4" d="M171.1,178.6
			c0,0.2-0.2,0.4-0.4,0.4h-38.9c-2.9,0-5.2-1.9-5.2-4.3v-1.4c0-2.4,2.3-4.3,5.2-4.3h38.9c0.2,0,0.4,0.2,0.4,0.4v0.1
			c0,0.2-0.2,0.4-0.4,0.4l-0.5,0l0,8.3l0.5,0C170.9,178.2,171.1,178.4,171.1,178.6L171.1,178.6z"/>
		<path id="_x3C_Path_x3E__00000112602075080695153720000011409952749078889858_" class="st5" d="M144.1,169.9l26.1,0l0,8.3h-26.3
			c-1.4,0-2.4-1.1-2.4-2.4v-3.2C141.4,171.1,142.6,169.9,144.1,169.9z"/>
		<path id="_x3C_Path_x3E__00000139272152309984407680000003669578909212855175_" class="st3" d="M134.8,174.1V174
			c0-0.4,0.4-0.8,0.8-0.8h3.1c0.4,0,0.8,0.4,0.8,0.8v0.1c0,0.4-0.4,0.8-0.8,0.8h-3.1C135.2,174.9,134.8,174.5,134.8,174.1z"/>
		
			<line id="_x3C_Path_x3E__00000178170872827958139860000005096117648890301874_" class="st6" x1="142.9" y1="171.2" x2="170.2" y2="171.2"/>
		
			<line id="_x3C_Path_x3E__00000093143134628764753640000006917930311914040973_" class="st6" x1="144.8" y1="172.4" x2="170.2" y2="172.4"/>
		
			<line id="_x3C_Path_x3E__00000124160763111552018890000003941713497465124528_" class="st6" x1="142.9" y1="174.7" x2="170.2" y2="174.7"/>
		
			<line id="_x3C_Path_x3E__00000146474926618906314040000008292262119583078046_" class="st6" x1="142.4" y1="177.1" x2="170.2" y2="177.1"/>
	</g>
	<g id="_x3C_Group_x3E__00000130613895940526032400000009354162714318327681_">
		<path id="_x3C_Path_x3E__00000100355916484724687010000017148839761101638809_" class="st3" d="M185.5,192.9
			c0,0.3-0.3,0.6-0.6,0.6h-56.8c-4.2,0-7.6-2.8-7.6-6.3v-2.1c0-3.5,3.4-6.3,7.6-6.3h56.8c0.3,0,0.6,0.3,0.6,0.6v0.1
			c0,0.3-0.3,0.6-0.6,0.6l-0.7,0l0,12.2l0.8,0C185.2,192.3,185.5,192.6,185.5,192.9L185.5,192.9z"/>
		<path id="_x3C_Path_x3E__00000087392919549472076420000008445200967824670374_" class="st5" d="M145.9,180.1l38.3,0.1l0,12.2H146
			c-2.2,0-3.9-1.7-3.9-3.9v-4.6C142.1,181.7,143.8,180.1,145.9,180.1z"/>
		<path id="_x3C_Path_x3E__00000173125560280626251190000012190472355068770222_" class="st4" d="M136,190.1h-0.2
			c-0.7,0-1.2-0.5-1.2-1.2v-4.5c0-0.7,0.5-1.2,1.2-1.2h0.2c0.7,0,1.2,0.5,1.2,1.2v4.5C137.2,189.6,136.7,190.1,136,190.1z"/>
		<path id="_x3C_Path_x3E__00000099625251517633073330000002193134208948347831_" class="st4" d="M132.1,190.1h-0.2
			c-0.7,0-1.2-0.5-1.2-1.2v-4.5c0-0.7,0.5-1.2,1.2-1.2h0.2c0.7,0,1.2,0.5,1.2,1.2v4.5C133.3,189.6,132.8,190.1,132.1,190.1z"/>
		
			<line id="_x3C_Path_x3E__00000090981234388938485740000004232786686920309165_" class="st6" x1="146.4" y1="182" x2="184.1" y2="182"/>
		
			<line id="_x3C_Path_x3E__00000067948751744065027740000017808118004324651709_" class="st6" x1="151.6" y1="186.1" x2="184.2" y2="186.1"/>
		
			<line id="_x3C_Path_x3E__00000011733190973667769690000008688769274277810076_" class="st6" x1="143.4" y1="187.6" x2="184.1" y2="187.6"/>
		
			<line id="_x3C_Path_x3E__00000011711974012639607200000009520714666978372509_" class="st6" x1="145.1" y1="191.1" x2="184.1" y2="191.1"/>
	</g>
	<g>
		<polygon id="_x3C_Path_x3E__00000134939520172373192170000017487192426100516766_" class="st7" points="108.6,182 107.4,185.1 
			110.9,186 112,183.4 		"/>
		<path id="_x3C_Path_x3E__00000026861882546704235400000005430326698264313485_" class="st8" d="M110.9,186c-3.3-1.5-4.4-2-9.6-1.7
			c-0.7,0.1-0.9,1-0.2,1.3l7.7,3.4C109.9,189.4,110.9,186,110.9,186z"/>
		<polygon id="_x3C_Path_x3E__00000073703780457394651770000002645682704439587756_" class="st7" points="117.3,183.7 116.7,187 
			120.3,187.3 120.8,184.6 		"/>
		<path id="_x3C_Path_x3E__00000041279731810572686050000004280065745927387009_" class="st9" d="M120.3,187.3
			c-3.6-0.7-4.8-1-9.7,0.4c-0.7,0.2-0.6,1.2,0.1,1.3l8.3,1.6C120.1,190.9,120.3,187.3,120.3,187.3z"/>
		<path class="st10" d="M146,151.8c0,0,7.3-0.4,7.3-4c0-3.5-3.3-3-2.3-7.4c0.9-4.1-0.5-5.5-2.5-7c-3.1-2.4-0.8-4.2-2.8-7.2
			c-1.5-2.3-7.3-4.7-10.1-0.6c-4,5.8-4.1,6.1-4.2,8.1c-0.1,4.1,3.9,2.7-0.1,9.1s2.9,9.5,8.5,10.9C145.3,155,146,151.8,146,151.8z"/>
		<path class="st11" d="M139.8,127.5c-0.4-0.2-0.8-0.5-1.1-0.2c-1,0.8-2.7,2.6-2.5,5.2c0.2,2.6,0.5,3.9,1.9,4c0.4,0,0.8,0.4,0.8,0.8
			l-0.1,1.8c0,0-0.2,0.2-0.3,0.3l-2,3.5c-0.2,0.3-0.2,0.6,0.1,0.9l2.2,2.7c0.4,0.4,1,0.4,1.3-0.1l3.7-7.1c0.1-0.2,0-0.4,0-0.6
			c-0.2-0.7-1.4-2.2,0.3-6.4c0.1-0.3,0.2-1.6-0.7-1.3c-0.3,0.1-0.3,0.6-0.7,0.2C142,130.6,142,128.7,139.8,127.5z"/>
		<path class="st12" d="M130.3,158.4l-10.2,2.3c-1.3,0.3-2.4,1.2-2.9,2.3l-9.2,19.2c-0.2,0.4,0,0.8,0.4,0.9l3.4,0.9
			c0.3,0.1,0.5,0,0.7-0.3l12.2-19c0.1-0.1,0.2-0.2,0.4-0.3l11.8-2.3c0.6-0.1,0.7-1,0.1-1.2l-6.3-2.5
			C130.6,158.4,130.4,158.4,130.3,158.4z"/>
		<path class="st13" d="M133.6,145.3l-1.9,7.3c-0.1,0.3-0.2,0.5-0.4,0.7l-2.8,2.1c-0.5,0.4-0.6,1-0.3,1.5l0.2,0.4
			c0.3,0.6,1,0.8,1.6,0.5l3.8-1.9c0.3-0.1,0.5-0.3,0.6-0.6l3.4-8.2L133.6,145.3z"/>
		<path class="st12" d="M136.3,160.2c-0.1,0-0.2-0.1-0.3,0l-9.1,2.1c-2.1,0.4-3.9,1.8-4.6,3.8c-1.7,4.6-4.9,15.5-5.5,17.9
			c-0.1,0.3,0.1,0.5,0.3,0.6c0.8,0.3,2.4,0.9,3.4,1.3c0.3,0.1,0.5,0,0.7-0.3c1-2.3,5.7-12.6,6.5-14.6c0.1-0.2,0.5-1.1,0.9-1.1
			c2.7,0,19.8,1.6,19.6-5C147.7,164.4,137.8,160.8,136.3,160.2z"/>
		<path class="st4" d="M138.8,139.1c0,0-1.1,1.9,0.4,2.4c2,0.6,3.9-1.1,4.3-2.6c0-0.1,0.1-0.4,0.2-0.4c0.8,0,3.1,0,4.1,1.8
			c1,1.8,1,4.8,0.9,5.9c0,0.2-0.2,0.4-0.4,0.4l-3.6,0.3c-0.4,0-0.6,0.5-0.3,0.8c0.6,0.6,1.3,1.7,1.8,3.2c0.5,1.8,0.8,2.8,1.3,6.3
			c0.3,2,0.5,6.1,0.6,7.6c0,0.3-0.3,0.5-0.6,0.5c-1.6-0.5-6.1-1.8-8.3-2.7c-2.8-1.2-7.4-2.9-7.4-2.9s4.2-1.9,3.8-5.7
			c-0.5-3.8-1.1-5.2-0.5-7.7l-1.7-0.5c-0.2-0.1-0.4-0.3-0.3-0.5C133.5,143.6,134.2,139.2,138.8,139.1z"/>
		<path class="st11" d="M129.3,157.9c0,0,1.7-1.4,3.2-0.9c0.2,0.1,0.4,0.1,0.6,0c1.4-0.3,6.4-1.4,8.3-1.8c0.5-0.1,0.8-0.5,0.9-1
			l1.3-7.4l4.4-0.3c0,0-0.9,9.3-3.7,11.8c-0.2,0.2-0.4,0.3-0.7,0.3c-1.8,0.1-9.6,0.6-10.6,0.6c-0.1,0-0.1,0-0.2,0
			c-0.2,0-0.6,0.1-0.9,0.3c-0.5,0.2-1,0.1-1.4-0.3L129.3,157.9z"/>
		<path class="st14" d="M117.5,163.4c0,0,1.7,0.4,3.1-0.5c1.4-1,0.7-2.4,0.7-2.4"/>
		<path class="st14" d="M120.5,171.3l1.7-5.2c0.6-1.7,2-3.1,3.8-3.5l7.8-1.9"/>
		<path class="st14" d="M143.3,164.5c0,0-1.4,1.7-0.4,3.9"/>
		<path class="st14" d="M125.1,163.5c0,0,1.3,2.5-2.5,3"/>
		<line class="st14" x1="109.1" y1="181.9" x2="112" y2="182.8"/>
		<line class="st14" x1="118" y1="183.7" x2="120.5" y2="184.5"/>
		<path class="st15" d="M146,139.6c0,0-3.1,0.3-2.3,7.4"/>
		<path class="st15" d="M137,141.5c0,0-1.8,2.2-1.9,4.6"/>
		<path class="st3" d="M120.5,160.5l-5-7.3c-0.2-0.3,0-0.7,0.4-0.7h10.6c0.2,0,0.3,0.1,0.4,0.2l4.2,6.7c0.1,0.1,0.2,0.2,0.4,0.2h4.9
			c0.2,0,0.4,0.2,0.4,0.4v0.2c0,0.2-0.2,0.4-0.4,0.4h-15.4C120.7,160.7,120.6,160.6,120.5,160.5z"/>
		<path class="st4" d="M124.5,156.1c0.3,0.7,0.1,1.5-0.5,1.8c-0.6,0.3-1.4-0.1-1.7-0.8c-0.3-0.7-0.1-1.5,0.5-1.8
			C123.4,155,124.1,155.3,124.5,156.1z"/>
	</g>
	<g>
		<g>
			<path id="Ellipse_00000136379507924437098770000012945547770115347108_" class="st4" d="M88.5,103.1c-0.3,17.7-26.7,17.7-27,0
				C61.8,85.3,88.2,85.3,88.5,103.1z"/>
			<path id="Ellipse_00000134245821283611012670000018029379682162067338_" class="st16" d="M89.9,103.1c-0.3,19.6-29.6,19.6-29.9,0
				C60.4,83.4,89.6,83.4,89.9,103.1z"/>
			<g>
				<path class="st2" d="M76.2,107.6c-0.2-2.3-2.4-0.7-2.4-0.7l0-2.4l-2.5,0c0,0,0.5,0.5,0.6,1c0.2,0.6-0.1,1.4-1.3,1.4
					c-1,0-1.4-0.8-1.2-1.5c0.1-0.5,0.5-0.9,0.5-0.9l-2.6,0c0.1,6.5,0.1,6.5,6.6,6.4l0-2.6C74.2,108.9,76.4,109.4,76.2,107.6z"/>
				<path class="st17" d="M79.3,102.1c-2.3,0-0.8,2.4-0.8,2.4h-2.3v2.4c0,0,2.2-1.5,2.4,0.8c0.2,1.8-2.1,1.3-2.4,0.8v2.6
					c6.5,0,6.5,0,6.5-6.5h-2.6C80.1,104.5,81.7,102.1,79.3,102.1z"/>
				<path class="st17" d="M69.3,102.7c-0.2,0.7,0.3,1.5,1.2,1.5c1.2,0,1.5-0.8,1.3-1.4c-0.1-0.6-0.6-1-0.6-1l2.5,0l0-2.4
					c0,0-1.5,1.4-2.3,0c-0.8-1.4,0.9-2.8,2.3-1.4l0-2.7c-6.5,0.1-6.5,0.1-6.4,6.6l2.6,0C69.8,101.7,69.4,102.2,69.3,102.7z"/>
				<path class="st2" d="M76.2,95.4l0,2.7c-1.4-1.4-3.1,0-2.3,1.4c0.8,1.3,2.3,0,2.3,0l0,2.4l2.3,0c0,0-1.5-2.4,0.8-2.4
					c2.4,0,0.8,2.4,0.8,2.4l2.6,0C82.7,95.4,82.9,95.4,76.2,95.4z"/>
			</g>
		</g>
		<g>
			<g>
				<path id="Ellipse_00000119799063196535418470000005316615372584214440_" class="st4" d="M101.9,62.9c0.3,17.7,26.7,17.7,27,0
					C128.6,45.1,102.2,45.1,101.9,62.9z"/>
				<path id="Ellipse_00000164487718587078879910000011513968184989044156_" class="st16" d="M100.4,62.9c0.3,19.6,29.6,19.6,29.9,0
					C130,43.2,100.8,43.2,100.4,62.9z"/>
			</g>
			<g>
				<path class="st2" d="M124.2,62.9v-3.5c0-0.7-0.8-1.2-1.4-0.8l-3,1.7l-3,1.7c-0.6,0.4-0.6,1.3,0,1.6l3,1.7l3,1.7
					c0.6,0.4,1.4-0.1,1.4-0.8V62.9z"/>
				<path class="st2" d="M114.2,62.9v-3.5c0-0.7-0.8-1.2-1.4-0.8l-3,1.7l-3,1.7c-0.6,0.4-0.6,1.3,0,1.6l3,1.7l3,1.7
					c0.6,0.4,1.4-0.1,1.4-0.8V62.9z"/>
			</g>
		</g>
		<g>
			<g>
				<path id="Ellipse_00000134939061983923778380000018339142568881601942_" class="st4" d="M194.8,64.9c-0.3,17.7-26.7,17.7-27,0
					C168.1,47.1,194.5,47.1,194.8,64.9z"/>
				<path id="Ellipse_00000121268876139808893230000005458147300034111674_" class="st16" d="M196.2,64.9
					c-0.3,19.6-29.6,19.6-29.9,0C166.7,45.2,195.9,45.2,196.2,64.9z"/>
			</g>
			<g>
				<path id="_x3C_Path_x3E__00000050628859999074497650000004359880380477883568_" class="st2" d="M179,55.2c5.5-2,9.6,3.3,9,7.5
					c-0.3,4.2-5.1,6.7-4.7,8.3c-1,0-3,0-4,0c0,0,0.3-0.8-0.8-1.7C174.5,66.2,171.9,58.3,179,55.2z"/>
				<path id="_x3C_Path_x3E_" class="st3" d="M183.3,71c0,1.9,0.5,4.2-2.3,4c-2.2-0.1-1.7-2.5-1.7-4H183.3z"/>
				<path class="st6" d="M182.1,71c0,0-0.1-6.4,0.5-8.1c0.6-1.8,1.7-3.1,2.5-1.6c1.6,4.8-7,6-7.6,1.8c-0.9-4.1,3.7-4.5,3,8"/>
			</g>
		</g>
	</g>
</g>
</svg>
