<?xml version="1.0" encoding="utf-8"?>
<!-- Generator: Adobe Illustrator 25.2.1, SVG Export Plug-In . SVG Version: 6.00 Build 0)  -->
<svg version="1.1" id="Layer_1" xmlns="http://www.w3.org/2000/svg" xmlns:xlink="http://www.w3.org/1999/xlink" x="0px" y="0px"
	 viewBox="0 0 332 93" style="enable-background:new 0 0 332 93;" xml:space="preserve">
<style type="text/css">
	.st0{fill:#3262AC;}
	.st1{fill:#D8D8D8;stroke:#818388;stroke-width:4;}
	.st2{fill:#FEC68B;}
	.st3{fill:#F15119;}
	.st4{fill:#0A585E;}
	.st5{fill:#F46322;}
	.st6{fill:#053B40;}
	.st7{fill:#FEFEFD;}
	.st8{fill:#FBB282;}
	.st9{fill:#FCB381;}
	.st10{fill:#4DD5DD;}
	.st11{fill:#27BDC9;}
	.st12{fill:#ED5A1F;}
	.st13{fill:#FEE0B1;}
	.st14{fill:#FEFAF8;}
	.st15{fill:#0F4143;}
	.st16{fill:#FEFEFE;}
	.st17{fill:#155B5F;}
	.st18{fill:#184848;}
	.st19{fill:#1E4D4C;}
	.st20{fill:#4CD5DD;}
	.st21{fill:#F8F7F7;}
	.st22{fill:#FEFDFC;}
	.st23{fill:#FEFBF9;}
	.st24{fill:#FEFCFC;}
	.st25{fill:#F2834F;}
	.st26{fill:#F26A2E;}
	.st27{fill:#FFFFFF;}
</style>
<desc>Created with Sketch.</desc>
<g id="Page-1">
	<g id="block2m-dn">
		<path id="Rectangle-Copy" class="st0" d="M24,0h284c13.3,0,24,10.7,24,24v45c0,13.3-10.7,24-24,24H24C10.7,93,0,82.3,0,69V24
			C0,10.7,10.7,0,24,0z"/>
		<g id="Group-Copy-2" transform="translate(20.000000, 9.000000)">
			<g id="Oval">
				<circle id="path-1" class="st1" cx="30" cy="30" r="30"/>
			</g>
			<g>
				<path class="st2" d="M32.4,58.7c-0.2,0-0.4,0.2-0.6,0.1c-0.3-0.1-0.7,0-1,0c-0.2,0-0.3-0.2-0.4-0.4c-0.7-1.6-1.4-3.2-2.1-4.7
					c-0.1-0.1-0.1-0.2,0-0.4c0.3-0.2,0.8-0.2,0.8-0.8c0-0.8-0.2-1.5-0.8-2c-0.4-0.3-0.7-0.5-1.1-0.1c-0.4-0.4-0.2-0.8,0.4-1
					c0.9-0.4,1.8-0.2,2.7,0.3c0.6,0.4,0.9,0.9,1.1,1.5c0.4,1.1,0.9,2,1.5,2.9c0.2,0.4,0.5,0.7,0.8,0.9c0.2,0.2,0.5,0.3,0.8,0.1
					c0.3-0.1,0.2-0.5,0.2-0.7c0-0.8-0.4-1.5-0.6-2.2c-0.7-2.1-1.5-4.1-2.3-6.1c-0.5-1.5-1.1-3-1.6-4.5c-0.6-1.8-1.3-3.5-2-5.2
					c-0.2-0.7-0.5-1.4-0.5-2.1c0.1-0.7,0.5-1.2,1.1-1.4c0.1-0.1,0.3-0.1,0.5-0.2c0.2-0.3,0.1-0.6,0.1-0.9c0-0.2,0-0.5,0.1-0.7
					c0.3,0,0.3,0.2,0.3,0.4c0,0.3,0,0.6,0,0.8c0,0.1,0,0.3,0.2,0.4c0.2,0,0.4,0,0.5,0.1c0.6,0.4,1,1,1.3,1.6c1,2.4,2,4.8,2.9,7.2
					c0.5,1.2,1,2.4,1.5,3.6c-0.5-1.2-0.9-2.4-1.4-3.5c0-0.1-0.1-0.2-0.1-0.4c-0.4-1-0.1-1.7,0.8-2.2c0.5-0.2,0.9-0.4,1.4-0.4
					c0.7,0,1.2,0.4,1.5,0.9c0.4,0.6,0.6,1.3,0.9,1.9c0.2,0.6,0.5,1.2,0.7,1.8c0.1,0.1,0.1,0.3,0.2,0.4c0,0,0.1-0.1,0,0
					c0,0,0,0-0.1,0c-0.4-0.6-0.6-1.3-0.9-2c-0.1-0.4-0.3-0.7-0.4-1c-0.2-0.5-0.1-0.9,0.2-1.3c0.5-0.5,1.1-0.7,1.7-0.9
					c1.1-0.2,1.5,0.1,2,1c0.2,0.5,0.4,0.9,0.6,1.3c0.2,0.5,0.4,0.9,0.6,1.4c0,0.1,0.1,0.3,0.2,0.4l0,0l0,0c-0.3-0.8-0.6-1.5-0.9-2.3
					c0-0.1,0-0.2,0-0.2c0.3-0.9,1.1-1.3,1.9-1.4c0.7-0.1,1.3,0.4,1.7,1.3c0.4,0.8,0.6,1.7,1,2.5c0.8,2.1,1.6,4.1,2.5,6.2
					c0.1,0.3,0.2,0.5,0.3,0.8c-2.4,2.7-5.2,4.7-8.3,6.3c-2.8,1.4-5.7,2.3-8.8,2.6c-0.2,0-0.4,0.1-0.6,0.1
					C32.8,58.6,32.6,58.6,32.4,58.7z"/>
				<path class="st3" d="M50.6,49.6c-0.2,0-0.2-0.2-0.3-0.4c-0.8-2.1-1.7-4.3-2.6-6.4c0-0.1,0-0.1,0-0.2c-0.1-0.5-0.2-1-0.2-1.5
					c0-10.5,0-20.9,0-31.4c0-0.4-0.1-0.8,0.2-1.1c2.5,1.9,4.5,4.3,6.1,6.9c3.1,5.1,4.5,10.6,4.2,16.5C57.6,38.8,55.1,44.7,50.6,49.6
					z"/>
				<path class="st4" d="M47.7,8.7c0,0.2,0,0.5,0,0.7c0,10.8,0,21.6,0,32.4c0,0.3,0,0.5,0,0.8c-0.4-0.7-0.6-1.5-1-2.3
					c-0.3-0.7-0.6-1.4-1.5-1.4s-1.6,0.4-2,1.3c-0.3-0.3-0.2-0.7-0.2-1.1c0-5.5,0-11.1,0-16.6c0-4.8,0-9.7,0-14.6c0-0.2,0-0.4,0-0.6
					c0-0.4-0.1-0.6-0.6-0.6c-0.2,0-0.4,0-0.6,0c-8.2,0-16.4,0-24.6,0c-0.4,0-0.8,0-1.2,0c-0.1,0-0.2,0-0.3,0c-0.2,0-0.4-0.1-0.6-0.4
					c-0.9-1.3-2-2.5-2.9-3.7c0,0,0-0.1-0.1-0.2c0.5-0.4,1-0.5,1.5-0.5c10,0,20,0,29.9,0c0.5,0,1,0,1.5,0c1.5,0,2.4,0.9,2.4,2.4
					C47.7,6,47.7,7.4,47.7,8.7z"/>
				<path class="st2" d="M8.2,48.7c-0.5-0.2-0.7-0.7-1-1.1c-0.8-1.1-1.6-2.2-2.2-3.4c0-1.5,0.2-2.9,0.4-4.4c0.2-1.6,0.4-3.3,0.4-4.9
					c-0.1-2.5,0.6-4.7,1.5-6.9c1-2.4,2.3-4.7,3.5-7c0.1-0.2,0.2-0.5,0.5-0.4c0.2,0.3,0.1,0.6,0.1,0.9c0,5.6,0,11.3,0,16.9
					c0,0.2,0,0.4,0.1,0.7c0.7-0.4,1.2-0.8,1.4-1.6c0.5-1.8,0.9-3.6,1.5-5.4c0.2-0.8,0.5-1.5,1.4-1.8c1.3-0.1,1.9,0.5,2,1.7
					c0,0.7-0.1,1.5-0.1,2.2c-0.1,2.4-0.4,4.7-0.5,7.1c0,0.1,0,0.2-0.1,0.4c0,0.8-0.1,1.5-0.1,2.3c0,0.5-0.2,0.8-0.4,1.2
					c-0.2,0.3-0.4,0.6-0.5,0.9c-0.5,0.7-0.9,1.4-1.3,2.1c-0.3,0.5-0.5,1.1-0.9,1.5C11.9,49.5,10,49.2,8.2,48.7z"/>
				<path class="st5" d="M11.3,20.6c-0.5,0.7-0.8,1.4-1.3,2.2c-1.4,2.6-2.7,5.2-3.6,7.9c-0.3,1-0.5,2.1-0.5,3.1
					c0,2.4-0.3,4.8-0.5,7.2c-0.2,1-0.2,2-0.3,3c0,0.1,0,0.2-0.1,0.3c-2.6-4.7-3.8-9.7-3.5-15.1c0.4-8,3.7-14.7,9.7-20.1
					c0,0,0.1,0,0.1-0.1c0.2,0.2,0.2,0.5,0.2,0.7c0,3.3,0,6.7,0,10C11.5,20.1,11.5,20.4,11.3,20.6z"/>
				<path class="st3" d="M14.6,48.2c0.4-0.7,0.7-1.4,1.3-2.1c0.2-0.2,0.5-0.2,0.8-0.2c4.8,0,9.6,0,14.4,0c0.3,0,0.5,0,0.8,0.2
					c0.6,1.3,1.1,2.7,1.6,4.1c0.5,1.2,0.8,2.4,1.3,3.5c0.1,0.3,0.1,0.6,0.1,0.9c0,0.7-0.5,1-1.2,0.6c-0.4-0.2-0.7-0.6-0.9-0.9
					c-0.7-1-1.2-2-1.6-3.1c-0.5-1.5-2-2.2-3.4-1.8c-0.6,0.2-0.7,0.4-0.5,0.9c0.3,0.1,0.3,0.4,0.4,0.7c0.2,0.5,0.5,1.1,0.7,1.6
					c0.1,0.2,0.2,0.4,0.1,0.6c0.8,1.8,1.6,3.6,2.5,5.4c0,0,0.1,0,0,0.1l0,0c-2.6,0.1-5.2-0.1-7.7-0.8c-0.1,0-0.2-0.1-0.3-0.1
					c-0.9-0.8-1.6-1.8-2.5-2.7c-1.2-1.4-2.4-2.8-3.6-4.2c-0.6-0.7-1.2-1.4-1.8-2.1C14.7,48.8,14.5,48.6,14.6,48.2z"/>
				<path class="st6" d="M11.3,20.6c0-3.4,0-6.7,0-10.1c0-0.5,0-1,0-1.5c0-1.5,0-2.9,0-4.4c0-0.8,0.2-1.6,1-2
					C13,3.3,13.4,4.1,14,4.7c0.6,0.7,1.1,1.5,1.7,2.1C16,7,15.9,7.3,15.9,7.5c0,7.4,0,14.8,0,22.2c0,0.2,0,0.5-0.2,0.7
					c-0.6,0.2-0.9,0.6-1.1,1.2c-0.6,1.8-1.1,3.6-1.5,5.4c-0.2,1.2-0.8,2-1.9,2.5c-0.1-0.2,0-0.4,0-0.6c0-5.9,0-11.8,0-17.7
					C11.3,21.1,11.3,20.8,11.3,20.6z"/>
				<path class="st5" d="M14.6,48.2c0.1,0.6,0.7,1,1.1,1.4c1.5,1.7,3,3.4,4.5,5.1c0.8,0.9,1.6,1.9,2.5,2.8c0.1,0.1,0.1,0.2,0.1,0.3
					c-1.5-0.3-2.9-0.9-4.4-1.5c-1.1-0.5-2.2-1.1-3.3-1.7c0-0.8,0.2-1.6,0.4-2.5s0.2-0.9-0.6-1.3c0.1-0.7-0.3-1.1-0.9-1.2
					c-0.2-0.2,0-0.4,0.1-0.6C14.2,48.8,14.4,48.6,14.6,48.2z"/>
				<path class="st4" d="M14.9,50.9c1,0.3,1,0.3,0.8,1.3c-0.2,0.8-0.3,1.7-0.5,2.5c-1.9-1.1-3.6-2.5-5.2-4c-0.2-0.2-0.5-0.5-0.7-0.7
					c0.1-0.4,0.5-0.2,0.7-0.2c1.4,0.2,2.7,0.5,4.1,0.8C14.2,50.7,14.6,50.6,14.9,50.9z"/>
				<path class="st7" d="M14.9,50.9c-1.5-0.3-3.1-0.6-4.6-0.8C9.9,50,9.5,49.7,9.1,50c-0.3-0.4-0.8-0.7-0.9-1.3
					c0.8,0,1.6,0.2,2.5,0.4c1.1,0.2,2.2,0.4,3.3,0.6c0.1,0,0.1,0,0.2,0C15.1,49.9,15.1,49.9,14.9,50.9z"/>
				<path class="st8" d="M30.8,58.8L30.8,58.8c0.4-0.1,0.7-0.2,1,0C31.4,58.8,31.1,58.8,30.8,58.8z"/>
				<path class="st9" d="M32.4,58.7c0.2-0.1,0.4-0.1,0.6,0C32.8,58.7,32.6,58.7,32.4,58.7z"/>
				<path class="st10" d="M15.9,6.7c0.2,0,0.4,0,0.6,0c8.7,0,17.4,0,26,0c0.6,0,0.7,0.2,0.7,0.7c0,10.7,0,21.4,0,32.1
					c0,0.2,0,0.5,0,0.7c0,0.1,0,0.1,0,0.2c0,0.2,0.2,0.4,0,0.6c-0.2-0.4-0.4-0.8-0.6-1.2c-0.5-1-0.8-1.2-1.9-1.1
					c-0.9-1.2-1.8-2.3-2.7-3.4c-0.6-0.8-0.6-0.8,0.4-1c0.4,0,0.7,0,1,0c0.4,0,0.5-0.1,0.5-0.5c0-1.1,0-2.2,0-3.3
					c0-0.5-0.3-0.5-0.7-0.5c-1.5,0-3,0-4.5,0c-0.3,0-0.6,0-0.8,0c-0.1,0-0.1,0-0.2-0.1c-0.9-0.8-1.6-1.8-2.3-2.8
					c-0.6-0.8-1.3-1.2-2.3-1.2c-2,0.1-4.1,0-6.1,0c-0.2,0-0.5,0-0.7-0.1c-0.1-0.1-0.2-0.1,0-0.3c0.2-0.1,0.3-0.1,0.5-0.1
					c2.5,0,5.1,0,7.6,0c1.5,0,3,0,4.5,0c1.6,0,1.6,0,1.6-1.7c0-0.4,0.1-0.8-0.1-1.2c-0.2-0.2-0.5-0.1-0.7-0.1c-2.3,0-4.6,0-6.9,0
					c-0.3,0-0.5,0-0.8,0c-0.6-0.3-0.9-0.8-1.3-1.4c-0.4-0.5-0.7-0.7-1.3-0.7c-0.9,0-1.8,0-2.7,0c-0.2,0-0.6,0.1-0.5-0.4
					c0.5-0.2,1-0.1,1.5-0.1c0.8,0,1.6,0,2.5,0c3.2,0,6.3,0,9.4,0c0.9,0,0.9,0,0.9-0.9c0-0.6,0.1-1.3-0.1-1.9
					c-0.2-0.2-0.5-0.1-0.8-0.1c-3.6,0-7.3,0-11,0c-0.3,0-0.6,0-0.8,0c-0.3,0-0.4-0.2-0.6-0.4c-2.4-3-4.7-6.1-7.1-9.1
					C16,7.2,15.8,7,15.9,6.7z"/>
				<path class="st11" d="M15.9,6.7c0.7,1.1,1.5,2,2.4,3.1c1.8,2.4,3.6,4.7,5.4,7c-0.2,0.2-0.4,0.1-0.6,0.2c-0.6,0-0.7,0.1-0.7,0.7
					s0,1.3,0,1.9c0,0.2,0,0.4-0.1,0.6c0.2,0.2,0.4,0.1,0.6,0.1c1,0,2,0,3.1,0c0.3,0,0.6,0.1,0.7,0.4c0.5,0.6,0.9,1.2,1.3,1.8
					c-0.1,0.4-0.5,0.3-0.7,0.3c-1.4,0-2.7,0-4.1,0c-0.8,0-0.8,0-0.8,0.8c0,0.7,0.1,1.5-0.1,2.2c0.2,0.2,0.4,0.1,0.6,0.1
					c2.3,0,4.6,0,6.9,0c0.7,0,1.2,0.3,1.6,0.8c0.8,1.1,1.6,2.1,2.5,3.2c-0.2,0.3-0.6,0.2-0.9,0.2c-4.1,0-8.1,0-12.2,0
					c-1.6,0-1.4-0.1-1.5,1.5c0,0.7,0,1.4,0,2.1s0,0.7,0.7,0.7c2.3,0,4.5,0,6.8,0c0.3,0,0.7-0.1,0.9,0.2c0.5,2.5,1.7,4.8,2.5,7.3
					c-0.2,0.2-0.5,0.2-0.7,0.2c-3.9,0-7.8,0-11.7,0c-0.2,0-0.5,0-0.7-0.2c0.2-2.9,0.4-5.9,0.6-8.8c0-0.1,0-0.3,0-0.4
					c0-1.5-0.3-1.9-1.8-2c0-7.7,0-15.3,0-23c0-0.2,0-0.5,0-0.7C15.8,6.8,15.8,6.7,15.9,6.7z"/>
				<path class="st6" d="M17,41.7c4.4,0,8.8,0,13.2,0c0.6,1.5,1.2,2.9,1.6,4.5c-5.3,0-10.6,0-16,0c0-0.1,0-0.1,0-0.2
					c0.9-1.2,1-2.6,1-4C16.9,41.9,16.9,41.8,17,41.7z"/>
				<path class="st12" d="M27.7,34.4c-2.7,0-5.3,0-8,0c-0.5,0-0.7-0.1-0.7-0.7c0-1.2,0-2.3,0-3.4c0-0.6,0.2-0.7,0.7-0.7
					c4.5,0,9.1,0,13.6,0c0.2,0,0.4,0,0.5,0l0,0c0.5,0.4,0.9,0.8,1.1,1.4c0,0.5-0.1,1,0,1.5c0.2-0.1,0.1-0.4,0.4-0.4
					c0.2,0,0.3,0.2,0.4,0.4c0.1,0.2,0.3,0.2,0.5,0.2c0.6,0.3,0.8,0.9,1.2,1.4c0.1,0.2,0.1,0.3-0.1,0.4c-1.8,0.1-3.6,0-5.4,0
					c-0.1,0-0.2-0.1-0.4-0.1c-0.4-0.5-0.7-1.1-1.3-1.5c0.1-0.1,0.1-0.1,0.2-0.1c0.5-0.2,0.5-0.5,0.1-0.8c-0.1-0.1-0.4-0.1-0.3-0.4
					c0-0.2,0.2-0.2,0.4-0.2c-0.4-0.1-0.6,0-0.7,0.2c-0.1,0.3,0.1,0.4,0.4,0.5c0.1,0.1,0.3,0.1,0.3,0.3s-0.2,0.2-0.4,0.3
					c-0.2,0-0.4,0-0.5,0.2c-0.4,0.2-0.3-0.1-0.4-0.3c0-0.5,0.1-0.9-0.1-1.4c-0.4,0.3-0.3,0.7-0.3,1.1c0,0.2,0,0.5,0.1,0.7
					C28.4,33.2,27.8,33.6,27.7,34.4z"/>
				<path class="st11" d="M31.6,34.4c2,0,4,0,6,0c0.2-0.2,0.5-0.2,0.7,0.1c-0.2,0-0.3,0.1-0.6,0.1c1,1.3,2,2.5,2.9,3.8
					c0.1,0.1,0.2,0.2,0.1,0.4c-0.5,0.1-0.9,0.3-1.3,0.6c-0.6,0.5-0.7,0.8-0.4,1.6c0.1,0.2,0.2,0.5,0.3,0.8c-0.1,0.1-0.2,0.1-0.3,0
					c-0.2-0.5-0.4-0.9-0.6-1.4c-0.7-1.4-1.3-1.7-2.8-1.1c-1.1,0.4-1.4,1.1-1,2.2c0,0.1,0.1,0.2,0.1,0.3c-0.1,0.1-0.2,0.1-0.3,0
					C33.5,39.3,32.5,36.9,31.6,34.4z"/>
				<path class="st13" d="M28.5,34.7c0-0.8,0.2-1.1,0.9-1.3c0.6-0.2,0.9,0,1.3,0.6c0.3,0.4,0.5,0.9,0.7,1.4c0.2,0.4,0,0.7-0.2,0.9
					c-0.4,0.2-0.8,0.5-1.3,0.6c-0.7,0.1-0.8,0-1.1-0.7C28.7,35.6,28.4,35.2,28.5,34.7z"/>
				<path class="st13" d="M28.3,53.3c-0.4-0.9-0.9-1.9-1.2-2.8c0-0.4,0.3-0.4,0.5-0.4c1,0.2,1.9,1.8,1.5,2.8
					C29,53.2,28.7,53.4,28.3,53.3z"/>
				<path class="st14" d="M29.8,32.8c-0.1-0.3,0-0.4,0.3-0.3c0.2,0,0.4,0.1,0.5-0.1c-0.1-0.2-0.4-0.2-0.5-0.3
					c-0.2-0.1-0.3-0.3-0.3-0.5c0-0.3,0.2-0.4,0.5-0.5c0.2,0,0.5-0.1,0.7,0.1c0.1,0.1,0,0.1,0,0.2s-0.1,0.1-0.2,0.1
					c-0.2,0-0.3-0.1-0.5,0.1c0.3,0.3,0.9,0.2,0.8,0.8c-0.1,0.5-0.5,0.4-0.8,0.5C30.2,32.8,30,32.8,29.8,32.8z"/>
				<path class="st15" d="M34.5,41.7c0.1,0,0.2,0,0.3,0c0.6,1.3,1.1,2.6,1.4,4C35.5,44.4,35,43.1,34.5,41.7z"/>
				<path class="st16" d="M29.1,32.9c-0.2,0-0.2-0.1-0.2-0.3c0-0.4,0-0.8,0-1.1c0-0.4,0.1-0.5,0.5-0.4c0,0.5,0,0.9,0,1.4
					C29.4,32.7,29.4,32.9,29.1,32.9z"/>
				<path class="st17" d="M43.2,41c0-0.2,0-0.4,0-0.6c0.5,0.8,0.7,1.6,1,2.4c-0.4,0-0.3-0.3-0.5-0.5C43.6,42,43.4,41.5,43.2,41z"/>
				<path class="st18" d="M39,41.7c0.1,0,0.2,0,0.3,0c0.3,0.7,0.6,1.5,0.9,2.2c-0.1,0-0.1,0-0.2,0.1C39.6,43.3,39.4,42.5,39,41.7z"
					/>
				<path class="st19" d="M43.9,42.4c0.1,0.1,0.3,0.3,0.5,0.5c0,0.1,0.1,0.1,0,0.2c0,0.1-0.1,0-0.2,0C44,42.9,43.9,42.7,43.9,42.4z"
					/>
				<path class="st20" d="M29.7,5.3c-0.5,0-1-0.5-1-1c0-0.6,0.5-1,1.1-1c0.5,0,1,0.5,1,1C30.7,4.9,30.3,5.3,29.7,5.3z"/>
				<path class="st13" d="M16.1,34c-0.2,0-0.5,0-0.7-0.1c-0.5-0.1-0.8-0.4-0.6-0.9c0.1-0.5,0.2-1,0.4-1.5s0.6-0.8,1.2-0.6
					c0.5,0.1,0.7,0.5,0.7,0.9c0.1,0.5,0,1,0,1.5C17.1,34,16.6,34,16.1,34z"/>
				<path class="st16" d="M29.5,14.7c-2.2,0-4.4,0-6.6,0c-0.5,0-0.7-0.1-0.7-0.7c0-0.7,0-1.4,0-2.1c0-0.5,0.1-0.6,0.6-0.6
					c3.3,0,6.7,0,10,0c1.2,0,2.3,0,3.5,0c0.4,0,0.6,0.1,0.6,0.6c0,0.7,0,1.4,0,2.2c0,0.5-0.1,0.6-0.6,0.6
					C34,14.7,31.7,14.7,29.5,14.7z"/>
				<path class="st16" d="M36.7,16.9c0.2,0.5,0.1,1.1,0.1,1.5c0,0.5,0.2,1.2-0.1,1.5c-0.4,0.4-1.1,0.1-1.6,0.1c-2.9,0-5.9,0-8.8,0
					c-0.2-0.1-0.4-0.2-0.5-0.4c-0.6-0.8-1.2-1.5-1.8-2.3c-0.1-0.1-0.2-0.3-0.1-0.5s0.3-0.1,0.4-0.1c4.1,0,8.1,0,12.2,0
					C36.6,16.8,36.7,16.8,36.7,16.9z"/>
				<path class="st21" d="M22.3,25.6c-0.2-0.7,0-1.4-0.1-2.1c0-0.2,0-0.4,0-0.6c0-0.4,0.1-0.6,0.6-0.6c1.5,0,3.1,0,4.7,0
					c0.2,0,0.4,0.1,0.6-0.1c2.7,0,5.4,0,8.1,0c0.2,0,0.4-0.1,0.6,0.1c-0.2,0.2-0.5,0.2-0.8,0.2c-2.2,0-4.4,0-6.6,0
					c-0.2,0-0.4,0-0.6,0c0,0.2,0.1,0.4,0.3,0.5c0.5,0.6,1,1.2,1.4,1.9c0.1,0.2,0.4,0.3,0.2,0.6C27.8,25.6,25,25.6,22.3,25.6z"/>
				<path class="st16" d="M30.6,25.6c-0.4-0.7-1-1.3-1.5-2c-0.3-0.4-0.6-0.7-0.9-1.2c2.9,0,5.8,0,8.6,0c0.1,0.1,0.1,0.2,0.1,0.4
					c0,0.8,0,1.6,0,2.5c0,0.3-0.1,0.4-0.4,0.4C34.5,25.6,32.5,25.6,30.6,25.6z"/>
				<path class="st5" d="M38.2,34.4c-0.2,0-0.5,0-0.7-0.1c-0.4-0.5-0.8-1.1-1.3-1.6c-0.3-0.2-0.4-0.5-0.4-0.8c0-0.7,0-0.7-0.6-0.8
					c-0.1,0-0.3,0-0.4-0.1c-0.2-0.5-0.7-0.9-1-1.4c1.9,0,3.9,0,5.8,0c0.4,0,0.5,0.2,0.5,0.5c0,1.2,0,2.5,0,3.7
					c0,0.4-0.1,0.5-0.5,0.5C39.1,34.4,38.7,34.4,38.2,34.4z"/>
				<path class="st21" d="M36.7,16.9c-4,0-8.1,0-12.1,0c-0.2,0-0.5-0.1-0.6,0.1s0.2,0.3,0.3,0.5c0.7,0.9,1.3,1.8,2,2.6
					c-1.3,0-2.7,0-4,0c-0.2-0.7-0.1-1.3-0.1-2c0-1.3,0-1.3,1.3-1.3c0.1,0,0.1,0,0.2,0c4.1,0,8.3,0,12.4,0
					C36.3,16.8,36.5,16.7,36.7,16.9z"/>
				<path class="st22" d="M23.5,32c0-0.1,0-0.1,0-0.2c0.1-0.2-0.2-0.6,0.1-0.7c0.4-0.1,0.8-0.1,1.1,0.1c0.2,0.1,0.4,0.4,0.2,0.5
					c-0.2,0.3-0.1,0.5,0,0.8c0,0.1,0.2,0.3-0.1,0.4c-0.2,0-0.4,0-0.4-0.2c0-0.1,0-0.2-0.1-0.3c0-0.1-0.1-0.2-0.2-0.1
					c-0.1,0-0.1,0.1-0.1,0.2c0,0.2,0.1,0.5-0.3,0.5c-0.4-0.1-0.1-0.3-0.2-0.5C23.5,32.3,23.5,32.1,23.5,32z"/>
				<path class="st23" d="M27.8,32.9c-0.4,0-0.7-0.1-0.9-0.6c-0.1-0.4,0-0.7,0.2-0.9c0.4-0.4,0.8-0.4,1.2-0.3c0.1,0,0.2,0.1,0.2,0.3
					c0,0.2-0.1,0.1-0.2,0.1c-0.2-0.1-0.4-0.1-0.6,0c-0.3,0.1-0.4,0.3-0.3,0.6s0.3,0.4,0.6,0.4c0.2,0,0.3-0.1,0.1-0.3
					C28,32.1,27.9,32,28,31.9c0.1-0.1,0.3-0.1,0.4-0.1s0.2,0,0.3,0.2C28.8,32.7,28.6,32.9,27.8,32.9z"/>
				<path class="st22" d="M34.9,31.1c0.2,0,0.5,0,0.7,0c0.6,0.1,0.7,0.3,0.5,0.8c-0.1,0.4,0.2,0.6,0.2,0.9C36,33,35.7,33,35.6,32.6
					c0-0.1-0.1-0.3-0.3-0.3s-0.1,0.2-0.1,0.4c0,0.1,0,0.3-0.2,0.3s-0.3-0.1-0.3-0.3C34.8,32.1,34.6,31.5,34.9,31.1z"/>
				<path class="st22" d="M25.3,32v-0.1c0-0.7,0.4-1,1.1-0.8c0.1,0,0.1,0.1,0.1,0.2s-0.1,0.2-0.2,0.2s-0.2,0-0.3,0
					c-0.1,0-0.3,0-0.3,0.2s0.1,0.2,0.3,0.2c0.2,0,0.4-0.1,0.4,0.2s-0.2,0.1-0.4,0.2c-0.1,0-0.3-0.1-0.3,0.1c0,0.2,0.2,0.1,0.3,0.1
					c0.2,0,0.5-0.1,0.4,0.2c0,0.3-0.3,0.1-0.5,0.2h-0.1c-0.6,0.1-0.8-0.1-0.7-0.7C25.3,32.1,25.3,32,25.3,32z"/>
				<path class="st16" d="M33.7,32.9c-0.5,0.1-0.7-0.1-0.6-0.6c0-0.1,0-0.2,0-0.4c0-0.9,0-1,1-0.9c0.1,0,0.3,0,0.3,0.2
					s-0.1,0.2-0.3,0.2c-0.1,0-0.1,0-0.2,0c-0.1,0-0.3,0-0.2,0.2c0,0.1,0.1,0.1,0.2,0.2c0.2,0,0.5-0.1,0.5,0.2c0,0.3-0.3,0.1-0.4,0.2
					c-0.1,0-0.2,0-0.2,0.1s0.1,0.1,0.2,0.1c0.1,0,0.1,0,0.2,0c0.1,0,0.3,0,0.3,0.2s-0.2,0.2-0.3,0.2C34,32.9,33.9,32.9,33.7,32.9z"
					/>
				<path class="st24" d="M32.1,31.1c0.1,0,0.3,0,0.4,0c0.1,0,0.3-0.1,0.3,0.1s-0.1,0.2-0.2,0.2c-0.2,0-0.2,0.2-0.2,0.4
					c0,0.3,0,0.6,0,0.8c0,0.1,0,0.2-0.2,0.2s-0.3,0-0.3-0.2s0-0.4,0-0.6c0-0.3,0.1-0.6-0.4-0.6c-0.1,0-0.1-0.1-0.1-0.2
					c0-0.2,0.1-0.2,0.2-0.2C31.8,31.1,32,31.1,32.1,31.1z"/>
				<path class="st25" d="M24.5,31.6c0,0.1-0.1,0.2-0.3,0.2c-0.1,0-0.2,0-0.2-0.2c0-0.1,0-0.3,0.2-0.3S24.5,31.5,24.5,31.6z"/>
				<path class="st26" d="M35.7,31.6c0,0.2-0.1,0.2-0.3,0.2c-0.1,0-0.2-0.1-0.2-0.2s0-0.2,0.2-0.2C35.5,31.4,35.6,31.5,35.7,31.6z"
					/>
			</g>
		</g>
		<g>
			<g>
				<path class="st27" d="M100.1,14.7h5.8c3.4,0,6.2,1.2,6.2,5c0,3.7-2.8,5.3-6.2,5.3h-2.2v5.8H100L100.1,14.7L100.1,14.7z
					 M105.6,22.1c1.9,0,3-0.8,3-2.4s-1-2.1-3-2.1h-1.9v4.5H105.6z M105.2,24l2.5-2.3l5.1,9.1h-4L105.2,24z"/>
				<path class="st27" d="M114.2,24.7c0-4,2.8-6.4,5.8-6.4c3.5,0,5.2,2.5,5.2,5.9c0,0.6-0.1,1.3-0.1,1.6h-7.3
					c0.3,1.8,1.5,2.6,3.2,2.6c0.9,0,1.8-0.3,2.7-0.8l1.2,2.2c-1.2,0.9-2.9,1.4-4.3,1.4C116.9,31.1,114.2,28.7,114.2,24.7z
					 M122.1,23.3c0-1.3-0.6-2.3-2-2.3c-1.1,0-2.1,0.8-2.4,2.3H122.1z"/>
				<path class="st27" d="M126.9,32.9c0-1,0.6-1.8,1.7-2.5v-0.1c-0.6-0.4-1.1-1.1-1.1-2.1c0-0.9,0.6-1.7,1.4-2.3v-0.1
					c-0.8-0.6-1.6-1.7-1.6-3.2c0-3,2.4-4.4,5-4.4c0.7,0,1.3,0.1,1.9,0.3h4.5v2.6h-2c0.2,0.3,0.4,1,0.4,1.6c0,2.8-2.1,4.1-4.8,4.1
					c-0.4,0-0.9-0.1-1.5-0.2c-0.3,0.2-0.4,0.5-0.4,0.9c0,0.6,0.5,0.9,1.8,0.9h2c3,0,4.7,0.9,4.7,3.1c0,2.6-2.7,4.4-6.9,4.4
					C129.2,36,126.9,35.1,126.9,32.9z M135.4,32.2c0-0.8-0.6-0.9-1.9-0.9h-1.3c-0.8,0-1.3,0-1.7-0.1c-0.4,0.4-0.6,0.7-0.6,1.2
					c0,0.9,1.1,1.4,2.7,1.4C134.2,33.7,135.4,33.1,135.4,32.2z M134,22.7c0-1.3-0.7-2-1.7-2s-1.7,0.7-1.7,2s0.7,2,1.7,2
					S134,24,134,22.7z"/>
				<path class="st27" d="M140.6,14.9c0-1.1,0.9-1.9,2.1-1.9s2.1,0.8,2.1,1.9s-0.9,1.9-2.1,1.9S140.6,15.9,140.6,14.9z M140.9,18.5
					h3.6v12.3h-3.6V18.5z"/>
				<path class="st27" d="M146.6,29.4l1.6-2.3c1.1,0.8,2.1,1.3,3.2,1.3c1.1,0,1.5-0.4,1.5-1c0-0.8-1.2-1.2-2.5-1.7
					c-1.5-0.6-3.3-1.6-3.3-3.6c0-2.3,1.8-3.8,4.7-3.8c1.9,0,3.3,0.7,4.3,1.5l-1.6,2.2c-0.9-0.6-1.7-1-2.6-1c-0.9,0-1.4,0.3-1.4,1
					c0,0.8,1.1,1.1,2.4,1.5c1.5,0.6,3.3,1.4,3.3,3.7c0,2.2-1.7,3.9-5,3.9C149.6,31.1,147.8,30.4,146.6,29.4z"/>
				<path class="st27" d="M159.1,26.4v-4.9h-1.7v-2.7l1.9-0.1l0.4-3.3h3v3.3h2.9v2.9h-3v4.9c0,1.4,0.6,1.9,1.6,1.9
					c0.4,0,0.8-0.1,1.2-0.2l0.6,2.6c-0.6,0.2-1.5,0.4-2.7,0.4C160.2,31.1,159.1,29.2,159.1,26.4z"/>
				<path class="st27" d="M168,18.5h3l0.2,2.1h0.1c0.9-1.6,2.2-2.4,3.5-2.4c0.7,0,1.1,0.1,1.5,0.2l-0.6,3.2
					c-0.4-0.1-0.8-0.2-1.3-0.2c-0.9,0-2,0.6-2.7,2.3v7.1H168V18.5z"/>
				<path class="st27" d="M177.3,27.4c0-2.6,2.1-4,6.9-4.5c0-1.1-0.6-1.8-1.9-1.8c-1,0-2.1,0.4-3.3,1.1l-1.3-2.4
					c1.5-0.9,3.3-1.6,5.2-1.6c3.1,0,4.8,1.8,4.8,5.5v7h-3l-0.2-1.2h-0.1c-1,0.9-2.2,1.5-3.6,1.5C178.6,31.1,177.3,29.5,177.3,27.4z
					 M184.1,27.2v-2.1c-2.6,0.3-3.4,1.1-3.4,2c0,0.8,0.5,1.2,1.4,1.2C182.9,28.3,183.5,27.9,184.1,27.2z"/>
				<path class="st27" d="M191.3,26.4v-4.9h-1.7v-2.7l1.9-0.1l0.4-3.3h3v3.3h2.9v2.9h-2.9v4.9c0,1.4,0.6,1.9,1.6,1.9
					c0.4,0,0.8-0.1,1.2-0.2l0.6,2.6c-0.6,0.2-1.5,0.4-2.7,0.4C192.5,31.1,191.3,29.2,191.3,26.4z"/>
				<path class="st27" d="M200,14.9c0-1.1,0.9-1.9,2.1-1.9s2.1,0.8,2.1,1.9s-0.9,1.9-2.1,1.9S200,15.9,200,14.9z M200.2,18.5h3.6
					v12.3h-3.6V18.5z"/>
				<path class="st27" d="M206.3,24.7c0-4.1,2.9-6.4,6-6.4s6,2.4,6,6.4s-2.9,6.4-6,6.4S206.3,28.7,206.3,24.7z M214.5,24.7
					c0-2.1-0.7-3.5-2.2-3.5s-2.2,1.4-2.2,3.5s0.7,3.5,2.2,3.5C213.8,28.1,214.5,26.8,214.5,24.7z"/>
				<path class="st27" d="M220.7,18.5h3l0.2,1.5h0.1c1-1,2.3-1.8,3.9-1.8c2.7,0,3.8,1.9,3.8,4.9v7.6h-3.6v-7.1
					c0-1.8-0.5-2.3-1.5-2.3c-0.9,0-1.5,0.4-2.3,1.2v8.3h-3.6L220.7,18.5L220.7,18.5z"/>
				<path class="st27" d="M240,14.7h10.1v3.1h-6.5v3.7h5.6v3.1h-5.6v6.3H240V14.7L240,14.7z"/>
				<path class="st27" d="M251.9,24.7c0-4.1,2.9-6.4,6-6.4s6,2.4,6,6.4s-2.9,6.4-6,6.4C254.8,31.1,251.9,28.7,251.9,24.7z
					 M260.1,24.7c0-2.1-0.7-3.5-2.2-3.5s-2.2,1.4-2.2,3.5s0.7,3.5,2.2,3.5C259.4,28.1,260.1,26.8,260.1,24.7z"/>
				<path class="st27" d="M266.3,18.5h3l0.2,2.1h0.1c0.9-1.6,2.2-2.4,3.5-2.4c0.7,0,1.1,0.1,1.5,0.2l-0.6,3.2
					c-0.4-0.1-0.8-0.2-1.3-0.2c-0.9,0-2,0.6-2.7,2.3v7.1h-3.6V18.5H266.3z"/>
				<path class="st27" d="M276.1,18.5h3l0.2,1.6h0.1c1-1,2.1-1.9,3.7-1.9c1.7,0,2.8,0.7,3.4,2.1c1.1-1.1,2.2-2.1,3.8-2.1
					c2.7,0,3.8,1.9,3.8,4.9v7.6h-3.6v-7.1c0-1.8-0.5-2.3-1.5-2.3c-0.6,0-1.3,0.4-2.1,1.2v8.3h-3.6v-7.2c0-1.8-0.5-2.3-1.5-2.3
					c-0.6,0-1.3,0.4-2.1,1.2v8.3H276V18.5H276.1z"/>
			</g>
		</g>
		<g>
			<g>
				<path class="st27" d="M101.6,48h-3v-1h7.1v1h-3v8.7h-1.2L101.6,48L101.6,48z"/>
				<path class="st27" d="M107.4,46.1h1.2V49v1.5c0.7-0.6,1.4-1.2,2.4-1.2c1.5,0,2.2,1,2.2,2.8v4.6H112v-4.4c0-1.3-0.4-1.9-1.3-1.9
					c-0.7,0-1.2,0.4-2,1.1v5.2h-1.2L107.4,46.1L107.4,46.1z"/>
				<path class="st27" d="M115.2,47.2c0-0.5,0.3-0.8,0.8-0.8s0.8,0.3,0.8,0.8c0,0.4-0.3,0.8-0.8,0.8S115.2,47.7,115.2,47.2z
					 M115.4,49.5h1.2v7.2h-1.2V49.5z"/>
				<path class="st27" d="M118.3,55.9l0.6-0.8c0.6,0.5,1.2,0.8,2.1,0.8s1.4-0.5,1.4-1.1c0-0.7-0.8-1.1-1.6-1.4
					c-1-0.3-2.1-0.9-2.1-2.1c0-1.1,0.9-2,2.5-2c0.9,0,1.7,0.3,2.2,0.8l-0.6,0.8c-0.5-0.3-1-0.6-1.6-0.6c-0.9,0-1.3,0.5-1.3,1
					c0,0.7,0.8,0.9,1.6,1.2c1,0.4,2.2,0.8,2.2,2.2c0,1.2-0.9,2.1-2.6,2.1C119.9,56.9,118.9,56.5,118.3,55.9z"/>
				<path class="st27" d="M127.3,49.5h1.2l1.1,4.1c0.1,0.7,0.3,1.3,0.4,2l0,0c0.1-0.7,0.3-1.3,0.5-2l1.1-4.1h1.2l1.1,4.1
					c0.2,0.7,0.3,1.3,0.5,2l0,0c0.1-0.7,0.3-1.3,0.4-2l1-4.1h1.1l-1.9,7.2h-1.5l-1-3.9c-0.2-0.7-0.3-1.3-0.5-2.1l0,0
					c-0.1,0.7-0.3,1.4-0.5,2.1l-1,3.8h-1.4L127.3,49.5z"/>
				<path class="st27" d="M138.6,47.2c0-0.5,0.3-0.8,0.8-0.8s0.8,0.3,0.8,0.8c0,0.4-0.3,0.8-0.8,0.8C139,48,138.6,47.7,138.6,47.2z
					 M138.8,49.5h1.2v7.2h-1.2V49.5z"/>
				<path class="st27" d="M142.4,55.3v-9.1h1.2v9.2c0,0.4,0.1,0.5,0.3,0.5c0,0,0.1,0,0.2,0l0.1,0.9c-0.2,0-0.4,0.1-0.7,0.1
					C142.8,56.9,142.4,56.3,142.4,55.3z"/>
				<path class="st27" d="M146.2,55.3v-9.1h1.2v9.2c0,0.4,0.1,0.5,0.3,0.5c0,0,0.1,0,0.2,0l0.1,0.9c-0.2,0-0.4,0.1-0.7,0.1
					C146.6,56.9,146.2,56.3,146.2,55.3z"/>
				<path class="st27" d="M152.4,53.1c0-2.3,1.5-3.8,3.1-3.8c0.8,0,1.4,0.3,2,0.8v-1.2v-2.8h1.2v10.6h-1l-0.1-0.8l0,0
					c-0.5,0.5-1.3,1-2.2,1C153.6,56.9,152.4,55.5,152.4,53.1z M157.5,54.9v-3.8c-0.6-0.5-1.2-0.7-1.8-0.7c-1.1,0-2.1,1.1-2.1,2.8
					s0.7,2.8,2,2.8C156.3,55.9,156.9,55.5,157.5,54.9z"/>
				<path class="st27" d="M160.9,47.2c0-0.5,0.3-0.8,0.8-0.8s0.8,0.3,0.8,0.8c0,0.4-0.3,0.8-0.8,0.8C161.3,48,160.9,47.7,160.9,47.2
					z M161.1,49.5h1.2v7.2h-1.2V49.5z"/>
				<path class="st27" d="M164,55.9l0.6-0.8c0.6,0.5,1.2,0.8,2.1,0.8c0.9,0,1.4-0.5,1.4-1.1c0-0.7-0.8-1.1-1.6-1.4
					c-1-0.3-2.1-0.9-2.1-2.1c0-1.1,0.9-2,2.5-2c0.9,0,1.7,0.3,2.2,0.8l-0.6,0.8c-0.5-0.3-1-0.6-1.6-0.6c-0.9,0-1.3,0.5-1.3,1
					c0,0.7,0.8,0.9,1.6,1.2c1,0.4,2.2,0.8,2.2,2.2c0,1.2-0.9,2.1-2.6,2.1C165.7,56.9,164.7,56.5,164,55.9z"/>
				<path class="st27" d="M171,49.5h1l0.1,0.8l0,0c0.6-0.5,1.5-1,2.3-1c1.9,0,2.9,1.4,2.9,3.7c0,2.5-1.5,3.9-3.1,3.9
					c-0.6,0-1.3-0.3-2-0.8v1.3v2.4H171V49.5L171,49.5z M176,53c0-1.6-0.5-2.7-1.9-2.7c-0.6,0-1.2,0.3-1.9,1v3.8
					c0.6,0.5,1.3,0.7,1.7,0.7C175.1,55.9,176,54.8,176,53z"/>
				<path class="st27" d="M179.2,55.3v-9.1h1.2v9.2c0,0.4,0.1,0.5,0.3,0.5c0,0,0.1,0,0.2,0l0.1,0.9c-0.2,0-0.4,0.1-0.7,0.1
					C179.6,56.9,179.2,56.3,179.2,55.3z"/>
				<path class="st27" d="M182.5,54.8c0-1.6,1.3-2.4,4.4-2.7c0-0.9-0.3-1.8-1.5-1.8c-0.8,0-1.6,0.4-2.1,0.8l-0.5-0.8
					c0.6-0.4,1.7-0.9,2.8-0.9c1.8,0,2.5,1.2,2.5,3v4.4h-1L187,56l0,0c-0.7,0.6-1.5,1-2.4,1C183.4,56.9,182.5,56.2,182.5,54.8z
					 M186.9,55v-2c-2.4,0.3-3.2,0.9-3.2,1.8c0,0.8,0.5,1.1,1.3,1.1C185.7,55.9,186.2,55.6,186.9,55z"/>
				<path class="st27" d="M189.7,59.7l0.2-1c0.1,0,0.3,0.1,0.5,0.1c0.8,0,1.3-0.6,1.6-1.5l0.1-0.5l-2.9-7.2h1.2l1.5,4
					c0.2,0.6,0.4,1.4,0.7,2l0,0c0.2-0.6,0.4-1.4,0.6-2l1.3-4h1.2l-2.7,7.8c-0.5,1.4-1.2,2.5-2.7,2.5
					C190.2,59.8,189.9,59.8,189.7,59.7z"/>
				<path class="st27" d="M200.5,54.5v-4h-1.1v-0.9h1.1l0.1-2h1v2h1.9v1h-1.9v4c0,0.9,0.3,1.4,1.1,1.4c0.2,0,0.6-0.1,0.8-0.2
					l0.2,0.9c-0.4,0.1-0.9,0.2-1.3,0.2C201,56.9,200.5,55.9,200.5,54.5z"/>
				<path class="st27" d="M205.2,46.1h1.2V49v1.5c0.7-0.6,1.4-1.2,2.4-1.2c1.5,0,2.2,1,2.2,2.8v4.6h-1.2v-4.4c0-1.3-0.4-1.9-1.3-1.9
					c-0.7,0-1.2,0.4-2,1.1v5.2h-1.2L205.2,46.1L205.2,46.1z"/>
				<path class="st27" d="M212.8,53.1c0-2.4,1.6-3.8,3.2-3.8c1.8,0,2.9,1.3,2.9,3.4c0,0.2,0,0.5,0,0.7H214c0.1,1.5,1,2.5,2.4,2.5
					c0.7,0,1.2-0.2,1.8-0.6l0.4,0.8c-0.6,0.4-1.4,0.7-2.4,0.7C214.3,56.9,212.8,55.5,212.8,53.1z M217.8,52.5c0-1.4-0.6-2.2-1.8-2.2
					c-1,0-1.9,0.8-2.1,2.2H217.8z"/>
				<path class="st27" d="M223.1,53.1c0-2.3,1.5-3.8,3.1-3.8c0.8,0,1.4,0.3,2,0.8v-1.2v-2.8h1.2v10.6h-1l-0.1-0.8l0,0
					c-0.5,0.5-1.3,1-2.2,1C224.2,56.9,223.1,55.5,223.1,53.1z M228.1,54.9v-3.8c-0.6-0.5-1.2-0.7-1.8-0.7c-1.1,0-2.1,1.1-2.1,2.8
					s0.7,2.8,2,2.8C227,55.9,227.5,55.5,228.1,54.9z"/>
				<path class="st27" d="M231.2,53.1c0-2.4,1.6-3.8,3.2-3.8c1.8,0,2.9,1.3,2.9,3.4c0,0.2,0,0.5,0,0.7h-4.8c0.1,1.5,1,2.5,2.4,2.5
					c0.7,0,1.2-0.2,1.8-0.6l0.4,0.8c-0.6,0.4-1.4,0.7-2.4,0.7C232.8,56.9,231.2,55.5,231.2,53.1z M236.3,52.5c0-1.4-0.6-2.2-1.8-2.2
					c-1,0-1.9,0.8-2.1,2.2H236.3z"/>
				<path class="st27" d="M239.3,54.5v-4h-1.1v-0.9h1.1l0.1-2h1v2h1.9v1h-1.9v4c0,0.9,0.3,1.4,1.1,1.4c0.2,0,0.6-0.1,0.8-0.2
					l0.2,0.9c-0.4,0.1-0.9,0.2-1.3,0.2C239.9,56.9,239.3,55.9,239.3,54.5z"/>
				<path class="st27" d="M243.7,54.8c0-1.6,1.3-2.4,4.4-2.7c0-0.9-0.3-1.8-1.5-1.8c-0.8,0-1.6,0.4-2.1,0.8l-0.5-0.8
					c0.6-0.4,1.7-0.9,2.8-0.9c1.8,0,2.5,1.2,2.5,3v4.4h-1l-0.1-0.8l0,0c-0.7,0.6-1.5,1-2.4,1C244.6,56.9,243.7,56.2,243.7,54.8z
					 M248.1,55v-2c-2.4,0.3-3.2,0.9-3.2,1.8c0,0.8,0.5,1.1,1.3,1.1C246.8,55.9,247.4,55.6,248.1,55z"/>
				<path class="st27" d="M251.4,47.2c0-0.5,0.3-0.8,0.8-0.8s0.8,0.3,0.8,0.8c0,0.4-0.3,0.8-0.8,0.8S251.4,47.7,251.4,47.2z
					 M251.6,49.5h1.2v7.2h-1.2V49.5z"/>
				<path class="st27" d="M255.2,55.3v-9.1h1.2v9.2c0,0.4,0.1,0.5,0.3,0.5c0,0,0.1,0,0.2,0l0.1,0.9c-0.2,0-0.4,0.1-0.7,0.1
					C255.6,56.9,255.2,56.3,255.2,55.3z"/>
				<path class="st27" d="M258.2,55.9l0.6-0.8c0.6,0.5,1.2,0.8,2.1,0.8s1.4-0.5,1.4-1.1c0-0.7-0.8-1.1-1.6-1.4
					c-1-0.3-2.1-0.9-2.1-2.1c0-1.1,0.9-2,2.5-2c0.9,0,1.7,0.3,2.2,0.8l-0.6,0.8c-0.5-0.3-1-0.6-1.6-0.6c-0.9,0-1.3,0.5-1.3,1
					c0,0.7,0.8,0.9,1.6,1.2c1,0.4,2.2,0.8,2.2,2.2c0,1.2-0.9,2.1-2.6,2.1C259.9,56.9,258.9,56.5,258.2,55.9z"/>
				<path class="st27" d="M267.6,53.1c0-2.4,1.6-3.8,3.4-3.8s3.4,1.4,3.4,3.8c0,2.4-1.6,3.7-3.4,3.7
					C269.2,56.9,267.6,55.5,267.6,53.1z M273,53.1c0-1.6-0.8-2.8-2.1-2.8s-2.1,1.1-2.1,2.8s0.8,2.8,2.1,2.8
					C272.1,55.9,273,54.8,273,53.1z"/>
				<path class="st27" d="M275.4,49.6h1h2.7v1h-3.7V49.6z M276.3,48.4c0-1.5,0.6-2.4,2.1-2.4c0.4,0,0.9,0.1,1.2,0.2l-0.2,0.9
					c-0.3-0.1-0.5-0.2-0.8-0.2c-0.7,0-1,0.5-1,1.4v8.3h-1.2L276.3,48.4L276.3,48.4z"/>
				<path class="st27" d="M283.6,54.5v-4h-1.1v-0.9h1.1l0.1-2h1v2h1.9v1h-1.9v4c0,0.9,0.3,1.4,1.1,1.4c0.2,0,0.6-0.1,0.8-0.2
					l0.2,0.9c-0.4,0.1-0.9,0.2-1.3,0.2C284.1,56.9,283.6,55.9,283.6,54.5z"/>
				<path class="st27" d="M288.4,46.1h1.2V49v1.5c0.7-0.6,1.4-1.2,2.4-1.2c1.5,0,2.2,1,2.2,2.8v4.6H293v-4.4c0-1.3-0.4-1.9-1.3-1.9
					c-0.7,0-1.2,0.4-2,1.1v5.2h-1.2L288.4,46.1L288.4,46.1z"/>
				<path class="st27" d="M295.9,53.1c0-2.4,1.6-3.8,3.2-3.8c1.8,0,2.9,1.3,2.9,3.4c0,0.2,0,0.5,0,0.7h-4.8c0.1,1.5,1,2.5,2.4,2.5
					c0.7,0,1.2-0.2,1.8-0.6l0.4,0.8c-0.6,0.4-1.4,0.7-2.4,0.7C297.5,56.9,295.9,55.5,295.9,53.1z M301,52.5c0-1.4-0.6-2.2-1.8-2.2
					c-1,0-1.9,0.8-2.1,2.2H301z"/>
				<path class="st27" d="M99.5,67.3h1l0.1,1.3l0,0c0.5-0.9,1.2-1.5,2-1.5c0.3,0,0.5,0,0.8,0.1l-0.2,1.1c-0.2-0.1-0.4-0.1-0.7-0.1
					c-0.6,0-1.3,0.4-1.8,1.7v4.6h-1.2L99.5,67.3L99.5,67.3z"/>
				<path class="st27" d="M104,70.9c0-2.4,1.6-3.8,3.2-3.8c1.8,0,2.9,1.3,2.9,3.4c0,0.2,0,0.5,0,0.7h-4.8c0.1,1.5,1,2.5,2.4,2.5
					c0.7,0,1.2-0.2,1.8-0.6l0.4,0.8c-0.6,0.4-1.4,0.7-2.4,0.7C105.6,74.7,104,73.3,104,70.9z M109.1,70.3c0-1.4-0.6-2.2-1.8-2.2
					c-1,0-1.9,0.8-2.1,2.2H109.1z"/>
				<path class="st27" d="M111.3,75.9c0-0.6,0.4-1.2,1-1.6l0,0c-0.3-0.2-0.6-0.6-0.6-1.2s0.4-1.1,0.8-1.3l0,0
					c-0.5-0.4-0.9-1.1-0.9-1.9c0-1.6,1.2-2.6,2.7-2.6c0.4,0,0.7,0.1,1,0.2h2.5v0.9h-1.5c0.3,0.3,0.6,0.9,0.6,1.5
					c0,1.5-1.2,2.5-2.6,2.5c-0.3,0-0.7-0.1-1.1-0.2c-0.2,0.2-0.4,0.4-0.4,0.8s0.3,0.8,1.3,0.8h1.4c1.7,0,2.5,0.5,2.5,1.7
					c0,1.3-1.4,2.5-3.7,2.5C112.6,77.8,111.3,77.1,111.3,75.9z M116.8,75.5c0-0.7-0.5-0.9-1.4-0.9h-1.2c-0.3,0-0.6,0-0.9-0.1
					c-0.5,0.3-0.7,0.8-0.7,1.2c0,0.8,0.8,1.3,2.1,1.3C115.9,77,116.8,76.3,116.8,75.5z M115.8,69.7c0-1-0.7-1.7-1.5-1.7
					s-1.5,0.6-1.5,1.7c0,1,0.7,1.7,1.5,1.7S115.8,70.8,115.8,69.7z"/>
				<path class="st27" d="M119.1,65c0-0.5,0.3-0.8,0.8-0.8s0.8,0.3,0.8,0.8c0,0.4-0.3,0.8-0.8,0.8S119.1,65.5,119.1,65z M119.3,67.3
					h1.2v7.2h-1.2V67.3z"/>
				<path class="st27" d="M122.2,73.7l0.6-0.8c0.6,0.5,1.2,0.8,2.1,0.8s1.4-0.5,1.4-1.1c0-0.7-0.8-1.1-1.6-1.4
					c-1-0.3-2.1-0.9-2.1-2.1c0-1.1,0.9-2,2.5-2c0.9,0,1.7,0.3,2.2,0.8l-0.6,0.8c-0.5-0.3-1-0.6-1.6-0.6c-0.9,0-1.3,0.5-1.3,1
					c0,0.7,0.8,0.9,1.6,1.2c1,0.4,2.2,0.8,2.2,2.2c0,1.2-0.9,2.1-2.6,2.1C123.9,74.7,122.9,74.3,122.2,73.7z"/>
				<path class="st27" d="M129.4,72.3v-4h-1.1v-0.9h1.1l0.1-2h1v2h1.9v1h-1.9v4c0,0.9,0.3,1.4,1.1,1.4c0.2,0,0.6-0.1,0.8-0.2
					l0.2,0.9c-0.4,0.1-0.9,0.2-1.3,0.2C129.9,74.7,129.4,73.7,129.4,72.3z"/>
				<path class="st27" d="M133.6,70.9c0-2.4,1.6-3.8,3.2-3.8c1.8,0,2.9,1.3,2.9,3.4c0,0.2,0,0.5,0,0.7h-4.8c0.1,1.5,1,2.5,2.4,2.5
					c0.7,0,1.2-0.2,1.8-0.6l0.4,0.8c-0.6,0.4-1.4,0.7-2.4,0.7C135.2,74.7,133.6,73.3,133.6,70.9z M138.7,70.3c0-1.4-0.6-2.2-1.8-2.2
					c-1,0-1.9,0.8-2.1,2.2H138.7z"/>
				<path class="st27" d="M141.5,67.3h1l0.1,1.3l0,0c0.5-0.9,1.2-1.5,2-1.5c0.3,0,0.5,0,0.8,0.1l-0.2,1.1c-0.2-0.1-0.4-0.1-0.7-0.1
					c-0.6,0-1.3,0.4-1.8,1.7v4.6h-1.2L141.5,67.3L141.5,67.3z"/>
				<path class="st27" d="M146.1,70.9c0-2.4,1.6-3.8,3.2-3.8c1.8,0,2.9,1.3,2.9,3.4c0,0.2,0,0.5,0,0.7h-4.8c0.1,1.5,1,2.5,2.4,2.5
					c0.7,0,1.2-0.2,1.8-0.6l0.4,0.8c-0.6,0.4-1.4,0.7-2.4,0.7C147.7,74.7,146.1,73.3,146.1,70.9z M151.1,70.3c0-1.4-0.6-2.2-1.8-2.2
					c-1,0-1.9,0.8-2.1,2.2H151.1z"/>
				<path class="st27" d="M153.5,70.9c0-2.3,1.5-3.8,3.1-3.8c0.8,0,1.4,0.3,2,0.8v-1.2V64h1.2v10.6h-1l-0.1-0.8l0,0
					c-0.5,0.5-1.3,1-2.2,1C154.6,74.7,153.5,73.3,153.5,70.9z M158.5,72.7v-3.8c-0.6-0.5-1.2-0.7-1.8-0.7c-1.1,0-2.1,1.1-2.1,2.8
					c0,1.7,0.7,2.8,2,2.8C157.4,73.7,157.9,73.3,158.5,72.7z"/>
				<path class="st27" d="M164.3,73.7l0.6-0.8c0.6,0.5,1.2,0.8,2.1,0.8c0.9,0,1.4-0.5,1.4-1.1c0-0.7-0.8-1.1-1.6-1.4
					c-1-0.3-2.1-0.9-2.1-2.1c0-1.1,0.9-2,2.5-2c0.9,0,1.7,0.3,2.2,0.8l-0.6,0.8c-0.5-0.3-1-0.6-1.6-0.6c-0.9,0-1.3,0.5-1.3,1
					c0,0.7,0.8,0.9,1.6,1.2c1,0.4,2.2,0.8,2.2,2.2c0,1.2-0.9,2.1-2.6,2.1C166,74.7,165,74.3,164.3,73.7z"/>
				<path class="st27" d="M171.5,72.3v-4h-1.1v-0.9h1.1l0.1-2h1v2h1.9v1h-1.9v4c0,0.9,0.3,1.4,1.1,1.4c0.2,0,0.6-0.1,0.8-0.2
					l0.2,0.9c-0.4,0.1-0.9,0.2-1.3,0.2C172.1,74.7,171.5,73.7,171.5,72.3z"/>
				<path class="st27" d="M176.2,71.9v-4.6h1.2v4.4c0,1.3,0.4,1.9,1.3,1.9c0.7,0,1.2-0.3,1.9-1.2v-5.1h1.2v7.2h-1l-0.1-1.1l0,0
					c-0.7,0.8-1.4,1.3-2.4,1.3C176.9,74.7,176.2,73.7,176.2,71.9z"/>
				<path class="st27" d="M183.9,70.9c0-2.3,1.5-3.8,3.1-3.8c0.8,0,1.4,0.3,2,0.8v-1.2V64h1.2v10.6h-1l-0.1-0.8l0,0
					c-0.5,0.5-1.3,1-2.2,1C185,74.7,183.9,73.3,183.9,70.9z M189,72.7v-3.8c-0.6-0.5-1.2-0.7-1.8-0.7c-1.1,0-2.1,1.1-2.1,2.8
					c0,1.7,0.7,2.8,2,2.8C187.8,73.7,188.3,73.3,189,72.7z"/>
				<path class="st27" d="M192.1,70.9c0-2.4,1.6-3.8,3.2-3.8c1.8,0,2.9,1.3,2.9,3.4c0,0.2,0,0.5,0,0.7h-4.8c0.1,1.5,1,2.5,2.4,2.5
					c0.7,0,1.2-0.2,1.8-0.6l0.4,0.8c-0.6,0.4-1.4,0.7-2.4,0.7C193.5,74.7,192.1,73.3,192.1,70.9z M197.1,70.3c0-1.4-0.6-2.2-1.8-2.2
					c-1,0-1.9,0.8-2.1,2.2H197.1z"/>
				<path class="st27" d="M199.9,67.3h1l0.1,1l0,0c0.7-0.7,1.4-1.2,2.4-1.2c1.5,0,2.2,1,2.2,2.8v4.6h-1.2v-4.4
					c0-1.3-0.4-1.9-1.3-1.9c-0.7,0-1.2,0.4-2,1.1v5.2h-1.2V67.3L199.9,67.3L199.9,67.3z"/>
				<path class="st27" d="M208.2,72.3v-4h-1.1v-0.9h1.1l0.1-2h1v2h1.9v1h-1.9v4c0,0.9,0.3,1.4,1.1,1.4c0.2,0,0.6-0.1,0.8-0.2
					l0.2,0.9c-0.4,0.1-0.9,0.2-1.3,0.2C208.7,74.7,208.2,73.7,208.2,72.3z"/>
				<path class="st27" d="M212.7,73.8c0-0.5,0.4-0.9,0.9-0.9s0.9,0.4,0.9,0.9s-0.4,0.9-0.9,0.9S212.7,74.3,212.7,73.8z"/>
			</g>
		</g>
	</g>
</g>
</svg>
