<?xml version="1.0" encoding="utf-8"?>
<!-- Generator: Adobe Illustrator 25.2.1, SVG Export Plug-In . SVG Version: 6.00 Build 0)  -->
<svg version="1.1" id="Layer_1" xmlns="http://www.w3.org/2000/svg" xmlns:xlink="http://www.w3.org/1999/xlink" x="0px" y="0px"
	 viewBox="0 0 332 93" style="enable-background:new 0 0 332 93;" xml:space="preserve">
<style type="text/css">
	.st0{fill:#F49924;}
	.st1{fill:#D8D8D8;stroke:#818388;stroke-width:4;}
	.st2{opacity:0.12;fill:#1C478D;enable-background:new    ;}
	.st3{fill:none;stroke:#A9BCE6;stroke-width:3;stroke-miterlimit:10;}
	.st4{fill:none;stroke:#A9BCE6;stroke-width:3;stroke-linecap:round;stroke-linejoin:round;stroke-miterlimit:10;}
	.st5{opacity:0.22;}
	.st6{opacity:0.22;fill:#C09CDF;enable-background:new    ;}
	.st7{fill:#A9BCE6;}
	.st8{fill:#1C478D;}
	.st9{fill:#A077F4;}
	.st10{fill:#FFFFFF;}
	.st11{fill:#C2EBF9;}
	.st12{fill:#D8F8E6;}
	.st13{fill:#6E4990;}
	.st14{fill:#35CB60;}
	.st15{opacity:0.4;fill:#6B8AFF;enable-background:new    ;}
	.st16{fill:#AF66F5;}
	.st17{fill:#FFA900;}
	.st18{clip-path:url(#SVGID_2_);}
	.st19{fill:#14966A;}
	.st20{fill:#F8AE8E;}
	.st21{fill:#292466;}
	.st22{fill:#2658A0;}
	.st23{opacity:0.33;}
	.st24{fill:url(#SVGID_3_);}
	.st25{fill:#E7A182;}
	.st26{fill:#6B8AFF;}
	.st27{fill:#FE4F5A;}
	.st28{clip-path:url(#SVGID_5_);fill:#E43E49;}
	.st29{clip-path:url(#SVGID_8_);fill:#E43E49;}
	.st30{clip-path:url(#SVGID_10_);fill:#E43E49;}
	.st31{clip-path:url(#SVGID_13_);fill:#E43E49;}
	.st32{opacity:0.65;fill:#999999;enable-background:new    ;}
	.st33{opacity:0.38;fill:url(#SVGID_14_);enable-background:new    ;}
	.st34{opacity:0.26;fill:#999999;enable-background:new    ;}
	.st35{fill:#CBD8EC;}
</style>
<g id="Page-1">
	<g id="block3m-dn">
		<path id="Rectangle-Copy-2" class="st0" d="M24,0h284c13.3,0,24,10.7,24,24v45c0,13.3-10.7,24-24,24H24C10.7,93,0,82.3,0,69V24
			C0,10.7,10.7,0,24,0z"/>
		<g id="Group-Copy" transform="translate(20.000000, 7.000000)">
			<g id="Oval">
				<circle id="path-1" class="st1" cx="30" cy="30" r="30"/>
			</g>
			<g>
				<path class="st2" d="M14.5,25c-0.9,3.6-0.2,5.7,3.2,7.9c3.4,2.2,1.9,3.7,5,5.7c2,1.3,12.4,1.1,16.2-1.7
					c3.9-2.7,18.2-12.9,14.3-16.5c-4-3.7-14.9,0.5-18.7-1.1c-3.8-1.6-7.3-2.2-12.5-2.4"/>
				<g>
					<g>
						<g>
							<g>
								<polygon class="st3" points="9.2,41.5 22.3,40.6 22.3,25.8 9.2,25.6 								"/>
								<polygon class="st3" points="22.8,40.5 29.7,40.1 29.7,25.9 22.8,25.8 								"/>
							</g>
						</g>
					</g>
					<g>
						<g>
							<g>
								<path class="st4" d="M26,18.7l1.9,0.1v-0.6c0-0.6-0.5-1.2-1.1-1.2L26,16.8L26,18.7L26,18.7z"/>
								<polygon class="st4" points="24.1,18.6 26,18.7 26,16.8 24.1,16.7 								"/>
								<polygon class="st4" points="22.1,18.4 24.1,18.6 24.1,16.7 22.1,16.6 								"/>
								<polygon class="st4" points="20,18.3 22.1,18.4 22.1,16.6 20,16.4 								"/>
								<polygon class="st4" points="17.9,18.2 20,18.3 20,16.4 17.9,16.3 								"/>
								<polygon class="st4" points="15.8,18.1 17.9,18.2 17.9,16.3 15.8,16.2 								"/>
								<polygon class="st4" points="13.6,18 15.8,18.1 15.8,16.2 13.6,16 								"/>
								<path class="st4" d="M11.4,17.8l2.3,0.1v-2l-1-0.1c-0.7,0-1.3,0.5-1.3,1.2V17.8z"/>
							</g>
							<g>
								<path class="st4" d="M29.1,25.2h0.2c0.6,0,1.1-0.5,1.1-1.3v-1.1l-2.5-0.1v1.1C27.9,24.6,28.4,25.2,29.1,25.2z"/>
								<path class="st4" d="M26.5,25.2h0.2c0.6,0,1.2-0.6,1.2-1.3v-1.1l-2.6-0.1v1.1C25.4,24.6,25.9,25.2,26.5,25.2z"/>
								<path class="st4" d="M24.1,25.1L24.1,25.1c0.7,0,1.3-0.6,1.3-1.4v-1l-2.6-0.1v1C22.7,24.5,23.3,25.1,24.1,25.1z"/>
								<path class="st4" d="M21.3,25.1h0.2c0.7,0,1.2-0.6,1.2-1.3v-1.1L20,22.5v1.2C20,24.4,20.6,25.1,21.3,25.1z"/>
								<path class="st4" d="M18.6,25L18.6,25c0.8,0,1.4-0.6,1.4-1.4v-1l-2.8-0.1v1.1C17.2,24.3,17.9,25,18.6,25z"/>
								<path class="st4" d="M15.7,25h0.2c0.7,0,1.3-0.6,1.3-1.4v-1.2l-2.9-0.1v1.2C14.3,24.3,14.9,24.9,15.7,25z"/>
								<path class="st4" d="M12.8,24.9H13c0.8,0,1.4-0.6,1.4-1.4v-1.2l-3-0.1v1.2C11.4,24.2,12,24.9,12.8,24.9z"/>
								<path class="st4" d="M9.7,24.8h0.2c0.8,0,1.4-0.6,1.4-1.4v-1.2l-3.1-0.1v1.2C8.3,24.2,8.9,24.8,9.7,24.8z"/>
							</g>
							<g>
								<polygon class="st4" points="30.4,22.9 27.9,18.8 26,18.7 27.9,22.8 								"/>
								<polygon class="st4" points="25.4,22.7 24.1,18.6 26,18.7 27.9,22.8 								"/>
								<polygon class="st4" points="25.4,22.7 24.1,18.6 22.1,18.4 22.7,22.6 								"/>
								<polygon class="st4" points="22.7,22.6 22.1,18.4 20,18.3 20,22.5 								"/>
								<polygon class="st4" points="17.2,22.4 20,22.5 20,18.3 17.9,18.2 								"/>
								<polygon class="st4" points="17.2,22.4 17.9,18.2 15.8,18.1 14.3,22.3 								"/>
								<polygon class="st4" points="15.8,18.1 13.6,18 11.4,22.2 14.3,22.3 								"/>
								<polygon class="st4" points="13.6,18 11.4,17.8 8.3,22.1 11.4,22.2 								"/>
							</g>
						</g>
					</g>
				</g>
				<g class="st5">
					<g>
						<path id="SVGID_6_" class="st6" d="M47.7,21c-3.8-3.7-12.3-6.2-17.5-5c-5.1,1.2-24.2,5.8-21.6,11.2s25.6,14.1,30.8,16.5
							c5.2,2.3,8.8-1.9,11.1-5.3C53,35,52.1,25.1,47.7,21z"/>
					</g>
				</g>
				<g>
					<rect x="8.5" y="46" class="st7" width="45.5" height="0.2"/>
				</g>
				<g>
					<path class="st8" d="M18.6,27.3L18.6,27.3L18.5,23c0-0.2-0.2-0.4-0.4-0.4l-4.7-0.3c-0.2,0-0.4,0.2-0.4,0.4v4.5h-0.2
						c-0.5,0-0.9,0.4-0.9,0.9v10c0,0.5,0.4,0.9,0.9,0.8l5.7-0.3c0.4,0,0.8-0.4,0.8-0.9v-9.5C19.4,27.7,19.1,27.4,18.6,27.3z"/>
					<g>
						<g>
							<g>
								<path class="st9" d="M19,38.3l-5.7,0.3c-0.5,0-0.9-0.3-0.9-0.8v-10c0-0.5,0.4-0.9,0.9-0.8l5.7,0.1c0.4,0,0.8,0.4,0.8,0.8
									v9.5C19.8,37.9,19.4,38.3,19,38.3z"/>
							</g>
						</g>
						<g>
							<g>
								<path class="st10" d="M18.8,32L13.6,32c-0.4,0-0.7-0.3-0.7-0.7v-1.6c0-0.4,0.3-0.7,0.7-0.7l5.2,0.1c0.3,0,0.6,0.3,0.6,0.7
									v1.5C19.4,31.7,19.1,32,18.8,32z"/>
							</g>
						</g>
						<g>
							<g>
								<g>
									<path class="st10" d="M14.8,33.7l-1,0c-0.1,0-0.2-0.1-0.2-0.2v-0.3c0-0.1,0.1-0.2,0.2-0.2h1c0.1,0,0.2,0.1,0.2,0.2v0.3
										C15,33.6,14.9,33.7,14.8,33.7z"/>
								</g>
							</g>
							<g>
								<g>
									<path class="st10" d="M16.7,33.6l-1,0c-0.1,0-0.2-0.1-0.2-0.2v-0.3c0-0.1,0.1-0.2,0.2-0.2h1c0.1,0,0.2,0.1,0.2,0.2v0.3
										C16.9,33.5,16.8,33.6,16.7,33.6z"/>
								</g>
							</g>
							<g>
								<g>
									<path class="st10" d="M18.5,33.6l-1,0c-0.1,0-0.2-0.1-0.2-0.2v-0.3c0-0.1,0.1-0.2,0.2-0.2h1c0.1,0,0.2,0.1,0.2,0.2v0.3
										C18.7,33.5,18.6,33.6,18.5,33.6z"/>
								</g>
							</g>
							<g>
								<g>
									<path class="st10" d="M14.8,35l-1,0c-0.1,0-0.2-0.1-0.2-0.2v-0.3c0-0.1,0.1-0.2,0.2-0.2l1,0c0.1,0,0.2,0.1,0.2,0.2v0.3
										C15,34.9,14.9,35,14.8,35z"/>
								</g>
							</g>
							<g>
								<g>
									<path class="st10" d="M16.7,34.9l-1,0c-0.1,0-0.2-0.1-0.2-0.2v-0.3c0-0.1,0.1-0.2,0.2-0.2l1,0c0.1,0,0.2,0.1,0.2,0.2v0.3
										C16.9,34.8,16.8,34.9,16.7,34.9z"/>
								</g>
							</g>
							<g>
								<g>
									<path class="st10" d="M18.5,34.9l-1,0c-0.1,0-0.2-0.1-0.2-0.2v-0.3c0-0.1,0.1-0.2,0.2-0.2l1,0c0.1,0,0.2,0.1,0.2,0.2v0.3
										C18.7,34.8,18.6,34.9,18.5,34.9z"/>
								</g>
							</g>
							<g>
								<g>
									<path class="st10" d="M14.8,36.3l-1,0c-0.1,0-0.2-0.1-0.2-0.2v-0.3c0-0.1,0.1-0.2,0.2-0.2l1,0c0.1,0,0.2,0.1,0.2,0.2v0.3
										C15,36.2,14.9,36.3,14.8,36.3z"/>
								</g>
							</g>
							<g>
								<g>
									<path class="st10" d="M16.7,36.2l-1,0c-0.1,0-0.2-0.1-0.2-0.2v-0.3c0-0.1,0.1-0.2,0.2-0.2l1,0c0.1,0,0.2,0.1,0.2,0.2V36
										C16.9,36.1,16.8,36.2,16.7,36.2z"/>
								</g>
							</g>
							<g>
								<g>
									<path class="st10" d="M18.5,36.1l-1,0c-0.1,0-0.2-0.1-0.2-0.2v-0.3c0-0.1,0.1-0.2,0.2-0.2l1,0c0.1,0,0.2,0.1,0.2,0.2v0.3
										C18.7,36,18.6,36.1,18.5,36.1z"/>
								</g>
							</g>
							<g>
								<g>
									<path class="st10" d="M14.8,37.5l-1,0c-0.1,0-0.2-0.1-0.2-0.2V37c0-0.1,0.1-0.2,0.2-0.2l1,0c0.1,0,0.2,0.1,0.2,0.2v0.3
										C15,37.4,14.9,37.5,14.8,37.5z"/>
								</g>
							</g>
							<g>
								<g>
									<path class="st11" d="M16.7,37.5l-1,0c-0.1,0-0.2-0.1-0.2-0.2V37c0-0.1,0.1-0.2,0.2-0.2l1,0c0.1,0,0.2,0.1,0.2,0.2v0.3
										C16.9,37.4,16.8,37.5,16.7,37.5z"/>
								</g>
							</g>
							<g>
								<g>
									<path class="st12" d="M18.5,37.4l-1,0c-0.1,0-0.2-0.1-0.2-0.2v-0.3c0-0.1,0.1-0.2,0.2-0.2l1,0c0.1,0,0.2,0.1,0.2,0.2v0.3
										C18.7,37.3,18.6,37.4,18.5,37.4z"/>
								</g>
							</g>
							<g>
								<g>
									<g>
										<path class="st7" d="M14.8,33.7l-1,0c0,0-0.1,0-0.1-0.1c0,0,0-0.1,0.1-0.1l1,0c0.1,0,0.1-0.1,0.1-0.1v-0.3
											c0,0,0-0.1,0.1-0.1c0,0,0.1,0,0.1,0.1v0.3C15.1,33.6,15,33.7,14.8,33.7z"/>
									</g>
								</g>
								<g>
									<g>
										<path class="st7" d="M16.7,33.7l-1,0c0,0-0.1,0-0.1-0.1c0,0,0-0.1,0.1-0.1l1,0c0.1,0,0.1-0.1,0.1-0.1v-0.3
											c0,0,0-0.1,0.1-0.1c0,0,0.1,0,0.1,0.1v0.3C17,33.6,16.9,33.7,16.7,33.7z"/>
									</g>
								</g>
								<g>
									<g>
										<path class="st7" d="M18.5,33.7l-1,0c0,0-0.1,0-0.1-0.1c0,0,0-0.1,0.1-0.1l1,0c0.1,0,0.1-0.1,0.1-0.1v-0.3
											c0,0,0-0.1,0.1-0.1s0.1,0,0.1,0.1v0.3C18.8,33.5,18.7,33.6,18.5,33.7z"/>
									</g>
								</g>
								<g>
									<g>
										<path class="st7" d="M14.8,35l-1,0c0,0-0.1,0-0.1-0.1s0-0.1,0.1-0.1l1,0c0.1,0,0.1-0.1,0.1-0.1v-0.3c0,0,0-0.1,0.1-0.1
											c0,0,0.1,0,0.1,0.1v0.3C15.1,34.9,15,35,14.8,35z"/>
									</g>
								</g>
								<g>
									<g>
										<path class="st7" d="M16.7,35l-1,0c0,0-0.1,0-0.1-0.1c0,0,0-0.1,0.1-0.1l1,0c0.1,0,0.1-0.1,0.1-0.1v-0.3
											c0,0,0-0.1,0.1-0.1c0,0,0.1,0,0.1,0.1v0.3C17,34.9,16.9,35,16.7,35z"/>
									</g>
								</g>
								<g>
									<g>
										<path class="st7" d="M18.5,34.9l-1,0c0,0-0.1,0-0.1-0.1c0,0,0-0.1,0.1-0.1l1,0c0.1,0,0.1-0.1,0.1-0.1v-0.3
											c0,0,0-0.1,0.1-0.1s0.1,0,0.1,0.1v0.3C18.8,34.8,18.7,34.9,18.5,34.9z"/>
									</g>
								</g>
								<g>
									<g>
										<path class="st7" d="M14.8,36.3l-1,0c0,0-0.1,0-0.1-0.1c0,0,0-0.1,0.1-0.1l1,0c0.1,0,0.1-0.1,0.1-0.1v-0.3
											c0,0,0-0.1,0.1-0.1c0,0,0.1,0,0.1,0.1v0.3C15.1,36.2,15,36.3,14.8,36.3z"/>
									</g>
								</g>
								<g>
									<g>
										<path class="st7" d="M16.7,36.3l-1,0c0,0-0.1,0-0.1-0.1c0,0,0-0.1,0.1-0.1l1,0c0.1,0,0.1-0.1,0.1-0.1v-0.3
											c0,0,0-0.1,0.1-0.1c0,0,0.1,0,0.1,0.1V36C17,36.1,16.9,36.3,16.7,36.3z"/>
									</g>
								</g>
								<g>
									<g>
										<path class="st7" d="M18.5,36.2l-1,0c0,0-0.1,0-0.1-0.1c0,0,0-0.1,0.1-0.1l1,0c0.1,0,0.1-0.1,0.1-0.1v-0.3
											c0,0,0-0.1,0.1-0.1s0.1,0,0.1,0.1v0.3C18.8,36.1,18.7,36.2,18.5,36.2z"/>
									</g>
								</g>
								<g>
									<g>
										<path class="st7" d="M14.8,37.6l-1,0c0,0-0.1,0-0.1-0.1c0,0,0-0.1,0.1-0.1l1,0c0.1,0,0.1-0.1,0.1-0.1V37
											c0,0,0-0.1,0.1-0.1c0,0,0.1,0,0.1,0.1v0.3C15.1,37.5,15,37.6,14.8,37.6z"/>
									</g>
								</g>
								<g>
									<g>
										<path class="st7" d="M16.7,37.5l-1,0c0,0-0.1,0-0.1-0.1s0-0.1,0.1-0.1l1,0c0.1,0,0.1-0.1,0.1-0.1v-0.3c0,0,0-0.1,0.1-0.1
											c0,0,0.1,0,0.1,0.1v0.3C17,37.4,16.9,37.5,16.7,37.5z"/>
									</g>
								</g>
								<g>
									<g>
										<path class="st7" d="M18.5,37.4l-1,0c0,0-0.1,0-0.1-0.1c0,0,0-0.1,0.1-0.1l1,0c0.1,0,0.1-0.1,0.1-0.1v-0.3
											c0,0,0-0.1,0.1-0.1s0.1,0,0.1,0.1v0.3C18.8,37.3,18.7,37.4,18.5,37.4z"/>
									</g>
								</g>
							</g>
						</g>
						<g>
							<g>
								<path class="st13" d="M19.2,28.1L19.2,28.1c0,0.2-0.1,0.3-0.2,0.4h0l-5.5-0.1c-0.2,0-0.3-0.1-0.3-0.3v-0.1
									c0-0.2,0.1-0.3,0.3-0.3l5.5,0.1h0C19.1,27.9,19.2,28,19.2,28.1z"/>
							</g>
						</g>
						<g>
							<g>
								<path class="st14" d="M16.1,31.7c-0.1,0-0.1,0-0.1-0.1l-0.9-1.2c-0.1-0.1-0.1-0.2,0-0.3c0.1-0.1,0.2-0.1,0.3,0l0.8,1
									l1.4-1.7c0.1-0.1,0.2-0.1,0.3,0c0.1,0.1,0.1,0.2,0,0.3l-1.5,1.9C16.2,31.7,16.2,31.7,16.1,31.7L16.1,31.7z"/>
							</g>
						</g>
						<g>
							<g>
								<path class="st10" d="M18.9,22.8v5.6l-5.4-0.1v-5.7c0-0.2,0.2-0.4,0.4-0.4l4.7,0.3C18.7,22.5,18.9,22.6,18.9,22.8z"/>
							</g>
						</g>
						<g>
							<g>
								<polygon class="st7" points="18.4,23.2 14.1,23 14.1,22.9 18.4,23.1 								"/>
							</g>
						</g>
						<g>
							<g>
								<polygon class="st7" points="18.4,26.3 14.1,26.2 14.1,26.1 18.4,26.2 								"/>
							</g>
						</g>
						<g>
							<g>
								<polygon class="st7" points="18.4,27.7 14.1,27.6 14.1,27.5 18.4,27.6 								"/>
							</g>
						</g>
						<g>
							<g>
								<polygon class="st7" points="15.9,23.7 14.1,23.6 14.1,23.8 15.9,23.8 								"/>
							</g>
						</g>
						<g>
							<g>
								<polygon class="st7" points="15.7,24.1 14.1,24 14.1,24.1 15.7,24.2 								"/>
							</g>
						</g>
						<g>
							<g>
								<polygon class="st7" points="15.7,25.5 14.1,25.4 14.1,25.5 15.7,25.6 								"/>
							</g>
						</g>
						<g>
							<g>
								<polygon class="st7" points="18.3,25.6 17.5,25.5 17.5,25.6 18.3,25.7 								"/>
							</g>
						</g>
						<g>
							<g>
								<polygon class="st7" points="16.1,24.4 14.1,24.3 14.1,24.5 16.1,24.5 								"/>
							</g>
						</g>
						<g>
							<g>
								<polygon class="st7" points="15.4,24.8 14.1,24.7 14.1,24.8 15.4,24.9 								"/>
							</g>
						</g>
						<g>
							<g>
								<polygon class="st7" points="15.9,25.1 14.1,25.1 14.1,25.2 15.9,25.2 								"/>
							</g>
						</g>
						<g>
							<g>
								<polygon class="st7" points="18.3,23.8 17.5,23.8 17.5,23.9 18.3,24 								"/>
							</g>
						</g>
						<g>
							<g>
								<polygon class="st7" points="18.1,24.2 17.7,24.2 17.7,24.3 18.1,24.3 								"/>
							</g>
						</g>
						<g>
							<g>
								<polygon class="st7" points="15.7,26.8 14.1,26.8 14.1,26.9 15.7,26.9 								"/>
							</g>
						</g>
						<g>
							<g>
								<polygon class="st7" points="18.1,26.9 17.7,26.9 17.7,27 18.1,27 								"/>
							</g>
						</g>
						<g>
							<g>
								<polygon class="st7" points="18.3,24.6 17.5,24.5 17.5,24.6 18.3,24.7 								"/>
							</g>
						</g>
						<g>
							<g>
								<polygon class="st7" points="18.1,24.9 17.7,24.9 17.7,25 18.1,25 								"/>
							</g>
						</g>
						<g>
							<g>
								<polygon class="st7" points="18.2,25.3 17.6,25.2 17.6,25.3 18.2,25.4 								"/>
							</g>
						</g>
					</g>
				</g>
				<g>
					<g>
						<g>
							<g>
								<path class="st8" d="M47.6,36.9l-11.5-1.7c-0.4-0.1-0.8-0.5-0.8-1.1V19.5c0-0.5,0.3-1,0.8-1.1l11.5-1.6
									c0.6-0.1,1.2,0.4,1.2,1V36C48.8,36.6,48.2,37,47.6,36.9z"/>
							</g>
							<g>
								<path class="st10" d="M47,36.7L35.7,35c-0.4-0.1-0.8-0.5-0.8-1.1V19.4c0-0.5,0.3-1,0.8-1.1L47,16.7c0.6-0.1,1.1,0.4,1.1,1
									v17.9C48.1,36.3,47.6,36.7,47,36.7z"/>
							</g>
							<g>
								<path class="st9" d="M34.9,19.4c0-0.6,0.4-1.2,0.9-1.3l10.9-1.6c0.7-0.1,1.4,0.4,1.4,1.2v1.2l-13.2,1.5V19.4z"/>
							</g>
							<g>
								<path class="st10" d="M44,18.1c0-0.2-0.2-0.4-0.4-0.4c-0.2,0-0.4,0.2-0.4,0.5c0,0.2,0.2,0.4,0.4,0.4
									C43.9,18.6,44,18.4,44,18.1z"/>
								<path class="st10" d="M45.3,18c0-0.2-0.2-0.4-0.4-0.4c-0.2,0-0.4,0.2-0.4,0.5c0,0.2,0.2,0.4,0.4,0.4
									C45.1,18.4,45.3,18.2,45.3,18z"/>
								<path class="st10" d="M46.7,17.8c0-0.2-0.2-0.4-0.4-0.4c-0.2,0-0.4,0.3-0.4,0.5s0.2,0.4,0.4,0.4
									C46.5,18.3,46.7,18,46.7,17.8z"/>
							</g>
						</g>
					</g>
					<g>
						<path class="st15" d="M37.1,22l8.5-0.5c0.4,0,0.7,0.3,0.7,0.7v6c0,0.4-0.3,0.7-0.7,0.7l-8.5-0.5c-0.3,0-0.5-0.3-0.5-0.6v-5
							C36.6,22.3,36.8,22,37.1,22z"/>
						<g>
							<g>
								<g>
									<path class="st9" d="M46,27.7v-5.9c0-0.4-0.3-0.7-0.7-0.7l-8.4,0.5c-0.3,0-0.5,0.3-0.5,0.6v5c0,0.3,0.2,0.6,0.5,0.6
										l8.4,0.5C45.6,28.4,46,28.1,46,27.7z"/>
								</g>
							</g>
							<g>
								<g>
									<path class="st10" d="M37.2,25.9l7.2,0.1c0.2,0,0.3-0.1,0.3-0.3l0,0c0-0.2-0.1-0.3-0.3-0.3l-7.2-0.1
										c-0.1,0-0.2,0.1-0.2,0.3l0,0C37,25.8,37.1,25.9,37.2,25.9z"/>
								</g>
							</g>
							<g>
								<g>
									<path class="st10" d="M42.5,27.4l2,0.1c0.1,0,0.2-0.1,0.2-0.2l0,0c0-0.1-0.1-0.2-0.2-0.2l-2-0.1c-0.1,0-0.2,0.1-0.2,0.2
										l0,0C42.3,27.3,42.4,27.4,42.5,27.4z"/>
								</g>
							</g>
							<g>
								<g>
									<path class="st10" d="M39.3,27.3l1.8,0.1c0.1,0,0.2-0.1,0.2-0.2l0,0c0-0.1-0.1-0.2-0.2-0.2l-1.8-0.1
										c-0.1,0-0.2,0.1-0.2,0.2l0,0C39.2,27.2,39.2,27.3,39.3,27.3z"/>
								</g>
							</g>
							<path class="st16" d="M43.2,24.1l1.6,0c0.1,0,0.1,0,0.1-0.1v-1.7c0-0.1,0-0.1-0.1-0.1l-1.6,0.1c-0.1,0-0.1,0.1-0.1,0.1v1.6
								C43.1,24,43.2,24.1,43.2,24.1z"/>
							<g>
								<g>
									<g>
										<path class="st10" d="M37.7,23.1l1.9,0c0.1,0,0.1,0,0.1-0.1l0,0c0-0.1,0-0.1-0.1-0.1l-1.9,0.1
											C37.6,22.9,37.6,22.9,37.7,23.1L37.7,23.1C37.6,23,37.6,23.1,37.7,23.1z"/>
									</g>
								</g>
								<g>
									<g>
										<path class="st10" d="M37.7,23.5l1.9,0c0.1,0,0.1,0,0.1-0.1l0,0c0-0.1,0-0.1-0.1-0.1l-1.9,0
											C37.6,23.3,37.6,23.3,37.7,23.5L37.7,23.5C37.6,23.5,37.6,23.5,37.7,23.5z"/>
									</g>
								</g>
								<g>
									<g>
										<path class="st10" d="M37.7,23.9l2,0c0.1,0,0.1,0,0.1-0.1l0,0c0-0.1,0-0.1-0.1-0.1l-1.9,0C37.6,23.7,37.6,23.8,37.7,23.9
											L37.7,23.9C37.6,23.9,37.6,23.9,37.7,23.9z"/>
									</g>
								</g>
							</g>
						</g>
					</g>
					<g>
						<g>
							<path class="st15" d="M38.4,33.2l5.8,0.7c0.3,0,0.5-0.2,0.5-0.5l0-2c0-0.3-0.2-0.6-0.5-0.6l-5.9-0.5c-0.2,0-0.4,0.2-0.4,0.4
								v1.8C37.9,33,38.1,33.2,38.4,33.2z"/>
							<path class="st17" d="M38.1,32.9l5.8,0.7c0.3,0,0.5-0.2,0.5-0.5l0-2c0-0.3-0.2-0.6-0.5-0.6l-5.8-0.4c-0.2,0-0.4,0.2-0.4,0.5
								v1.8C37.7,32.7,37.9,32.9,38.1,32.9z"/>
						</g>
						<g>
							<path class="st10" d="M39.8,31.2c0.1,0,0.1,0,0.2,0c0.1,0,0.2,0,0.3,0.1c0.1,0.1,0.1,0.1,0.1,0.2c0,0.1,0,0.2-0.1,0.2
								c-0.1,0.1-0.2,0.1-0.3,0.1c0,0-0.1,0-0.1,0v0.4h-0.1L39.8,31.2z M39.9,31.7C39.9,31.7,40,31.8,39.9,31.7c0.2,0,0.3,0,0.3-0.2
								s-0.1-0.2-0.2-0.2c-0.1,0-0.1,0-0.1,0V31.7z"/>
							<path class="st10" d="M40.6,32l-0.1,0.3l-0.1,0l0.3-1.1h0.2l0.4,1.2l-0.1,0L41,32L40.6,32z M40.9,31.9l-0.1-0.3
								c0-0.1,0-0.1-0.1-0.2l0,0c0,0.1,0,0.1-0.1,0.2l-0.1,0.3L40.9,31.9z"/>
							<path class="st10" d="M41.5,32.5V32l-0.3-0.7h0.2l0.2,0.3c0,0.1,0.1,0.2,0.1,0.3l0,0c0-0.1,0.1-0.1,0.1-0.2l0.2-0.3h0.2
								L41.7,32v0.5L41.5,32.5z"/>
						</g>
					</g>
				</g>
				<g>
					<g>
						<defs>
							<rect id="SVGID_1_" x="34.1" y="37.2" width="17.7" height="8.7"/>
						</defs>
						<clipPath id="SVGID_2_">
							<use xlink:href="#SVGID_1_"  style="overflow:visible;"/>
						</clipPath>
						<g class="st18">
							<path class="st19" d="M44.3,46.1c0.3-0.4,0.6-2.9-0.2-4.7c0,0,0.1,3.1-0.3,3.8c-0.4,0.7-0.6,1-0.6,1L44.3,46.1z"/>
							<path class="st14" d="M43.7,46c0.1-0.4-0.1-2.4-1.3-3.5c0,0,0.8,2.3,0.6,2.9c-0.2,0.7-0.3,1-0.3,1L43.7,46z"/>
							<path class="st19" d="M37.2,45.9c-0.1-0.4,0.1-2.4,1.3-3.5c0,0-0.8,2.3-0.6,2.9c0.2,0.7,0.3,1,0.3,1L37.2,45.9z"/>
							<path class="st14" d="M44.5,46.3c-0.1-0.5-0.3-3.5,0.6-5.9c1-2.3,1.1-2.3,1.1-2.3s-1.1,3.7-1.2,5C45,43.9,45,46.3,45,46.3
								L44.5,46.3z"/>
							<path class="st14" d="M39.8,46.3c-0.1-0.2-0.2-1.7,0.5-2.9c0.7-1.1,0.8-1.1,0.8-1.1s-0.8,1.8-0.9,2.4
								c-0.1,0.4-0.1,1.6-0.1,1.6L39.8,46.3z"/>
							<path class="st19" d="M37.3,46.4c-0.2-0.1-1.4-1-1.8-2.3s-0.3-1.3-0.3-1.3s0.8,1.8,1.2,2.3c0.2,0.3,1.1,1.1,1.1,1.1
								L37.3,46.4z"/>
							<path class="st19" d="M41.3,46.1c-0.3-0.4-0.6-2.9,0.2-4.7c0,0-0.1,3.1,0.3,3.8c0.4,0.7,0.6,1,0.6,1L41.3,46.1z"/>
							<path class="st19" d="M41.9,45.9c-0.1-0.4,0.1-2.4,1.3-3.5c0,0-0.8,2.3-0.6,2.9c0.2,0.7,0.3,1,0.3,1L41.9,45.9z"/>
							<path class="st14" d="M48.4,45.9c0.1-0.4-0.1-2.4-1.3-3.5c0,0,0.8,2.3,0.6,2.9c-0.2,0.7-0.3,1-0.3,1L48.4,45.9z"/>
							<path class="st19" d="M46.1,46.1c-0.2-0.4-0.5-2.6,0.9-4.3c1.4-1.7,1.6-1.7,1.6-1.7s-1.6,2.7-1.8,3.7
								c-0.1,0.6-0.1,2.4-0.1,2.4L46.1,46.1z"/>
							<path class="st19" d="M41,46.3c0.2-0.5,0.5-3.5-0.9-5.9c-1.4-2.3-1.6-2.3-1.6-2.3s1.6,3.7,1.8,5c0.1,0.8,0.1,3.2,0.1,3.2
								L41,46.3z"/>
							<path class="st19" d="M45.8,46.3c0.1-0.2,0.2-1.7-0.5-2.9c-0.7-1.1-0.8-1.1-0.8-1.1s0.8,1.8,0.9,2.4c0.1,0.4,0.1,1.6,0.1,1.6
								L45.8,46.3z"/>
							<path class="st14" d="M48.3,46.3c0.2-0.1,1.4-1,1.8-2.3c0.4-1.3,0.3-1.3,0.3-1.3s-0.8,1.8-1.2,2.3c-0.2,0.3-1.1,1.1-1.1,1.1
								L48.3,46.3z"/>
						</g>
					</g>
				</g>
				<g>
					<g>
						<g>
							<g>
								<g>
									<g>
										<g>
											<g>
												<g>
													<g>
														<g>
															<g>
																<g>
																	<g>
																		<path class="st20" d="M28.3,42.6c0,0.8,0,1.5,0,2.3c0.1,0.1,0.3,0.2,0.6,0.2c0.3,0,0.5,0,0.6,0
																			c0.1-0.9,0.2-1.8,0.2-2.6C29.2,42.5,28.8,42.5,28.3,42.6z"/>
																		<path class="st20" d="M29.2,45.1c-0.1,0-0.2,0-0.4,0c-0.2,0-0.4-0.1-0.6-0.2l0,0l0-2.3c0,0,0,0,0,0l1.4-0.2h0v0
																			l-0.2,2.6c0,0,0,0,0,0C29.4,45.1,29.3,45.1,29.2,45.1z M28.3,44.8c0.2,0.1,0.4,0.2,0.6,0.2c0.2,0,0.4,0,0.6,0
																			l0.2-2.6l-1.3,0.1L28.3,44.8z"/>
																	</g>
																</g>
															</g>
														</g>
													</g>
												</g>
											</g>
										</g>
									</g>
								</g>
							</g>
							<g>
								<g>
									<g>
										<g>
											<g>
												<g>
													<g>
														<g>
															<g>
																<g>
																	<g>
																		<path class="st21" d="M32,45.8c0,0.1-0.1,0.2-0.4,0.2c-0.8-0.1-1.5,0-2,0.1c0,0,0,0-0.1,0c-0.6-0.1-1,0-1.3-0.1
																			c-0.1,0-0.1,0-0.2-0.1c0-0.1-0.1-0.1-0.1-0.2c0-0.1,0-0.2,0-0.2c0-0.4,0.3-0.7,0.3-0.8c0.2,0.3,0.5,0.4,0.8,0.3
																			c0.3-0.1,0.4-0.3,0.4-0.3l1.3,0.6C31.6,45.4,32,45.6,32,45.8z"/>
																	</g>
																</g>
															</g>
														</g>
													</g>
												</g>
											</g>
										</g>
									</g>
								</g>
							</g>
							<g>
								<g>
									<g>
										<g>
											<g>
												<g>
													<g>
														<g>
															<g>
																<g>
																	<g>
																		<path class="st21" d="M32,45.8V46c0,0-1.7,0.2-2.4,0.1c0,0,0,0-0.1,0c-0.6-0.1-1,0-1.3-0.1c-0.1,0-0.1,0-0.2-0.1
																			c-0.2-0.1-0.2-0.2-0.2-0.2s0,0,0.1,0C28.5,45.7,31.3,45.9,32,45.8z"/>
																	</g>
																</g>
															</g>
														</g>
													</g>
												</g>
											</g>
										</g>
									</g>
								</g>
							</g>
						</g>
						<g>
							<g>
								<g>
									<g>
										<g>
											<g>
												<g>
													<g>
														<g>
															<g>
																<g>
																	<g>
																		<path class="st20" d="M25,42.6c0,0.8,0,1.5,0,2.3c0.1,0.1,0.3,0.2,0.6,0.2s0.5,0,0.6,0c0.1-0.9,0.2-1.8,0.2-2.6
																			C25.9,42.5,25.4,42.6,25,42.6z"/>
																		<path class="st20" d="M25.8,45.2c-0.1,0-0.2,0-0.4,0c-0.2,0-0.4-0.1-0.6-0.2l0,0l0-2.3c0,0,0,0,0,0l1.4-0.2h0v0
																			l-0.2,2.6c0,0,0,0,0,0C26,45.2,25.9,45.2,25.8,45.2z M25,44.9c0.2,0.1,0.4,0.2,0.6,0.2c0.2,0,0.4,0,0.6,0l0.2-2.6
																			L25,42.6L25,44.9z"/>
																	</g>
																</g>
															</g>
														</g>
													</g>
												</g>
											</g>
										</g>
									</g>
								</g>
							</g>
							<g>
								<g>
									<g>
										<g>
											<g>
												<g>
													<g>
														<g>
															<g>
																<g>
																	<g>
																		<path class="st21" d="M28.6,45.8c0,0.1-0.1,0.2-0.4,0.2c-0.8-0.1-1.5,0-2,0.1c0,0,0,0-0.1,0c-0.6-0.1-1,0-1.3-0.1
																			c-0.1,0-0.1,0-0.2-0.1c0-0.1-0.1-0.1-0.1-0.2c0-0.1,0-0.2,0-0.2c0-0.4,0.3-0.7,0.3-0.8c0.2,0.3,0.5,0.4,0.8,0.3
																			c0.3-0.1,0.4-0.3,0.4-0.3l1.3,0.6C28.2,45.5,28.6,45.6,28.6,45.8z"/>
																	</g>
																</g>
															</g>
														</g>
													</g>
												</g>
											</g>
										</g>
									</g>
								</g>
							</g>
							<g>
								<g>
									<g>
										<g>
											<g>
												<g>
													<g>
														<g>
															<g>
																<g>
																	<g>
																		<path class="st21" d="M28.6,45.8V46c0,0-1.7,0.2-2.4,0.1c0,0,0,0-0.1,0c-0.6-0.1-1,0-1.3-0.1
																			c-0.1,0-0.1,0-0.2-0.1c-0.2-0.1-0.2-0.2-0.2-0.2s0,0,0.1,0C25.1,45.7,28,45.9,28.6,45.8z"/>
																	</g>
																</g>
															</g>
														</g>
													</g>
												</g>
											</g>
										</g>
									</g>
								</g>
							</g>
						</g>
						<g>
							<g>
								<path class="st22" d="M30.3,27.5c0,0.9,0,2.1,0.1,3.4c0,2.2,0,3.9-0.1,5.2c0,1.3-0.1,2.2-0.1,3.5c-0.1,1.9-0.2,3.4-0.3,4.5
									c-0.1,0.1-0.4,0.4-0.9,0.5c-0.6,0.1-1.1-0.2-1.2-0.3c-0.1-1.2-0.1-2.3-0.1-3.2c0,0,0-2.1,0-4.1c0-0.4,0-0.3,0-1
									c0-1.5,0-2.3,0-2.9c0-0.7,0-1.6-0.1-2.8c0,0.6-0.1,1.9-0.1,3.3c0,0.7-0.1,1.4-0.1,1.4c0,0.4-0.1,0.8-0.1,1.1
									c-0.1,1.4-0.2,3.9-0.5,8.2c-0.2,0.1-0.6,0.2-1.2,0.2c-0.6,0-1-0.2-1.2-0.3c-0.1-7.2-0.1-10.3-0.1-11.7
									c0-1.4,0.1-2.6,0.1-2.8c0-0.9,0.1-1.8,0.1-2.5C26.4,27.3,28.4,27.4,30.3,27.5z"/>
								<path class="st8" d="M30.3,27.5c0,0.2,0,0.5,0,0.7c-0.4,0.3-1,0.5-1.7,0.6c-1.1,0.1-2.5,0.2-3.5,0.1c-0.3,0-0.5-0.1-0.7-0.1
									c0-0.6,0-1.1,0.1-1.6C26.4,27.3,28.4,27.4,30.3,27.5z"/>
							</g>
							<path class="st8" d="M24.4,29.7c0-0.9,0.1-1.8,0.1-2.5c0.4,0,0.7,0,1.1,0c-0.4,2.2-0.8,6.3-0.8,7.7c0,1.6,0,8.2,0,9.4
								c-0.2-0.1-0.3-0.1-0.4-0.2c-0.1-7.2-0.1-10.3-0.1-11.7C24.3,31.1,24.4,29.9,24.4,29.7z"/>
						</g>
						<g class="st23">
							<g>
								
									<linearGradient id="SVGID_3_" gradientUnits="userSpaceOnUse" x1="798.911" y1="44.1608" x2="804.9749" y2="44.1608" gradientTransform="matrix(-1 0 0 -1 829.2716 80)">
									<stop  offset="0" style="stop-color:#3490E8"/>
									<stop  offset="1" style="stop-color:#1C478D"/>
								</linearGradient>
								<path class="st24" d="M30.3,27.4c0,0.9,0,2.1,0.1,3.4c0,2.2,0,3.9-0.1,5.2c0,1.3-0.1,2.2-0.1,3.5c-0.1,1.9-0.2,3.4-0.3,4.5
									c-0.1,0.1-0.4,0.4-0.9,0.5c-0.6,0.1-1.1-0.2-1.2-0.3c-0.1-1.2-0.1-2.3-0.1-3.2c0,0,0-2.1,0-4.1c0-0.4,0-0.3,0-1
									c0-1.5,0-2.3,0-2.9c0-0.7,0-1.6-0.1-2.8c0,0.6-0.1,1.9-0.1,3.3c0,0.7-0.1,1.4-0.1,1.4c0,0.4-0.1,0.8-0.1,1.1
									c-0.1,1.4-0.2,3.9-0.5,8.2c-0.2,0.1-0.6,0.2-1.2,0.2c-0.6,0-1-0.2-1.2-0.3c-0.1-7.2-0.1-10.3-0.1-11.7
									c0-1.4,0.1-2.6,0.1-2.8c0-0.9,0.1-1.8,0.1-2.5C26.4,27.2,28.4,27.3,30.3,27.4z"/>
							</g>
						</g>
						<g>
							<path class="st10" d="M24.8,29.6C24.8,29.6,24.8,29.5,24.8,29.6C24.8,29.5,24.8,29.5,24.8,29.6c0-0.1,0.7-0.1,1.1-0.5
								c0.2-0.2,0.3-0.4,0.3-0.7c0,0,0,0,0,0c0,0,0,0,0,0c0,0.3-0.1,0.6-0.3,0.8C25.5,29.6,24.9,29.6,24.8,29.6z"/>
						</g>
						<g>
							<path class="st25" d="M38.5,19.8c0-0.2-0.1-0.4-0.3-0.4c0,0,0.1,0,0.2-0.1c0.1-0.1,0.1-0.2,0-0.3c-0.1-0.1-0.2-0.2-0.4-0.1
								c0,0,0-0.1,0-0.1c0,0,0-0.1-0.1-0.3c-0.1-0.2-1.1,0.1-1.8,0.3l0,0c0.1-0.1,0.1-0.3,0.1-0.4c0,0,0-0.1,0-0.1c0,0,0,0,0-0.1
								c0,0-0.1-0.1-0.2-0.1c0,0-0.1,0-0.1,0c-0.1,0-0.1,0.1-0.2,0.1c0,0,0,0-0.1,0.1c-0.1,0.1-0.2,0.2-0.3,0.3
								c-0.2,0.2-0.3,0.3-0.4,0.4c-0.1,0.1-0.1,0.1-0.2,0.2c0,0.1-0.1,0.1-0.1,0.2c-0.5,0.3-3.6,2.1-4.4,2.8
								c-1.2-0.8-2.5-1.6-3.7-2.3l-0.3,1.8c2,1.9,3,2.8,3.8,2.9c0.9,0.1,2.3-0.2,4.3-2.6c0.2-0.2,0.5-0.4,0.9-0.6
								c0.4-0.2,0.6-0.2,0.8-0.3c1.1,0.1,2.2-0.3,2.4-0.5c0.1-0.1,0.2-0.2,0.2-0.3c0-0.1-0.2-0.2-0.2-0.2
								C38.4,20,38.5,19.9,38.5,19.8z"/>
							<path class="st25" d="M30.4,24.5c-0.1,0-0.2,0-0.3,0c-0.7-0.1-1.7-1-3.8-2.9v0l0.3-1.8c0,0,0,0,0,0h0l3.7,2.3
								c0.6-0.6,2.7-1.8,3.8-2.4c0.3-0.2,0.5-0.3,0.6-0.3c0-0.1,0.1-0.1,0.1-0.2c0.1-0.1,0.1-0.1,0.2-0.2c0.1-0.1,0.2-0.2,0.3-0.3
								l0.1-0.1c0.1-0.1,0.1-0.1,0.2-0.2l0.1-0.1c0,0,0,0,0.1,0c0.1-0.1,0.1-0.1,0.2-0.1c0,0,0.1,0,0.1,0c0.1,0,0.1,0.1,0.2,0.1
								c0,0,0,0.1,0,0.1c0,0,0,0.1,0,0.1c0,0.1,0,0.2-0.1,0.4c1.6-0.5,1.8-0.3,1.8-0.2c0.2,0.2,0.1,0.3,0.1,0.4v0
								c0.2,0,0.3,0,0.4,0.2c0.1,0.1,0,0.2,0,0.3c0,0-0.1,0.1-0.1,0.1c0.1,0,0.1,0.1,0.1,0.1c0.1,0.1,0.1,0.2,0.1,0.3
								c0,0.1-0.1,0.2-0.2,0.3c0.1,0,0.1,0.1,0.2,0.2c0,0.1-0.1,0.3-0.2,0.3c-0.2,0.2-1.2,0.6-2.4,0.5c-0.1,0-0.2,0.1-0.3,0.1
								c-0.1,0-0.3,0.1-0.5,0.2c-0.3,0.1-0.6,0.3-0.9,0.5C32.8,23.6,31.5,24.5,30.4,24.5z M26.3,21.5c1.9,1.8,3,2.8,3.7,2.9
								c1.2,0.2,2.6-0.7,4.2-2.6l0,0c0.3-0.2,0.6-0.4,0.9-0.6c0.2-0.1,0.4-0.1,0.5-0.2c0.1,0,0.2-0.1,0.3-0.1c0,0,0,0,0,0
								c1.1,0.1,2.2-0.3,2.4-0.5c0.1,0,0.2-0.2,0.2-0.3c0-0.1-0.1-0.2-0.2-0.2c0,0,0,0,0,0c0,0,0,0,0,0c0.1,0,0.2-0.1,0.2-0.2l0,0
								c0-0.1,0-0.1-0.1-0.2c-0.1-0.1-0.1-0.1-0.2-0.1c0,0,0,0,0,0c0,0,0,0,0,0c0,0,0.1,0,0.2-0.1c0.1-0.1,0.1-0.2,0-0.2
								c-0.1-0.1-0.2-0.2-0.4-0.1c0,0,0,0,0,0s0,0,0-0.1c0,0,0-0.1,0-0.1c0,0,0-0.1-0.1-0.3c0,0-0.3-0.2-1.8,0.3h0v0
								c0.1-0.2,0.1-0.3,0.1-0.4c0,0,0-0.1,0-0.1c0,0,0,0,0-0.1c0-0.1-0.1-0.1-0.1-0.1c0,0,0,0-0.1,0c-0.1,0-0.1,0.1-0.2,0.1
								c0,0,0,0-0.1,0l-0.1,0.1c-0.1,0.1-0.1,0.1-0.2,0.2l-0.1,0.1c-0.1,0.1-0.2,0.2-0.3,0.3c-0.1,0.1-0.1,0.1-0.2,0.2
								c0,0.1-0.1,0.1-0.1,0.2l0,0c-0.1,0.1-0.3,0.2-0.6,0.3c-1,0.6-3.2,1.9-3.8,2.4c0,0,0,0-0.1,0l-3.7-2.3L26.3,21.5z"/>
						</g>
						<g>
							<g>
								<path class="st7" d="M27.3,19.6c0.3,0,0.6,0,0.9,0c1.4,0.3,2,1.9,2,2.1c-0.1,0.1-0.2,0.3-0.3,0.4c-0.6,0.5-1.2,0.7-1.6,0.7
									c-0.3-0.4-1-1.2-1.1-2.4C27.2,20.2,27.3,19.9,27.3,19.6z"/>
							</g>
						</g>
						<g>
							<g>
								<path class="st26" d="M30.5,28c-0.3,0.1-0.7,0.3-1.2,0.4c-0.1,0-0.2,0-0.3,0.1c-0.5,0.1-1.1,0.2-1.7,0.2c-0.4,0-0.7,0-1.1,0
									c0,0,0,0,0,0c-0.8-0.1-1.4-0.2-1.9-0.3c0-0.2,0-0.4,0-0.6c0-0.1,0-0.1,0-0.2c0-0.6,0-1.1,0-1.6c0-0.1,0-0.1,0-0.2
									c0-0.7,0.1-1.3,0.1-1.9c0,0,0-0.1,0-0.1l0,0c0,0,0,0,0,0l0,0l0,0c0-0.2,0-0.4,0-0.5c0-0.1,0-0.1,0-0.2c0-0.1,0-0.1,0-0.2
									c0,0,0-0.1,0-0.1c0-0.5,0.1-1,0.2-1.4c0,0,0-0.1,0-0.1l0,0v0c0.1-0.5,0.3-0.9,0.6-1.2c0,0,0,0,0.1-0.1c0,0,0,0,0.1,0
									c0.3-0.2,0.6-0.4,1-0.5c0,0,0,0,0.1,0c0.4-0.1,0.9-0.1,1.3,0c0,0,0.1,0,0.1,0c0,0,0,0,0.1,0c0.2,0.1,0.4,0.2,0.7,0.4
									c0.3,0.2,0.5,0.4,0.6,0.7c0,0,0.1,0.1,0.1,0.1c0.2,0.3,0.3,0.6,0.4,1c0.1,0.2,0.1,0.4,0.2,0.7c0,0,0,0.1,0,0.1
									c0,0.2,0.1,0.5,0.1,0.7c0,0.3,0.1,0.5,0.1,0.8c0,0.1,0,0.2,0,0.3c0,0.1,0,0.1,0,0.2c0,0.2,0,0.4,0.1,0.5c0,0.1,0,0.2,0,0.4
									c0,0.1,0,0.2,0,0.3c0,0,0,0.1,0,0.1c0,0.4,0.1,0.8,0.1,1.1c0,0,0,0.1,0,0.1C30.5,27.5,30.5,27.9,30.5,28z"/>
								<g>
									<g>
										<path id="SVGID_11_" class="st27" d="M30.5,28c-0.3,0.1-0.7,0.3-1.2,0.4c-0.1,0-0.2,0-0.3,0.1c-0.5,0.1-1.1,0.2-1.7,0.2
											c-0.4,0-0.7,0-1.1,0c0,0,0,0,0,0c-0.8-0.1-1.4-0.2-1.9-0.3c0-0.2,0-0.4,0-0.6c0-0.1,0-0.1,0-0.2c0-0.6,0-1.1,0-1.6
											c0-0.1,0-0.1,0-0.2c0-0.7,0.1-1.3,0.1-1.9c0,0,0-0.1,0-0.1l0,0c0,0,0,0,0,0l0,0l0,0c0-0.2,0-0.4,0-0.5c0-0.1,0-0.1,0-0.2
											c0-0.1,0-0.1,0-0.2c0,0,0-0.1,0-0.1c0-0.5,0.1-1,0.2-1.4c0,0,0-0.1,0-0.1l0,0v0c0.1-0.5,0.3-0.9,0.6-1.2c0,0,0,0,0.1-0.1
											c0,0,0,0,0.1,0c0.3-0.2,0.6-0.4,1-0.5c0,0,0,0,0.1,0c0.4-0.1,0.9-0.1,1.3,0c0,0,0.1,0,0.1,0c0,0,0,0,0.1,0
											c0.2,0.1,0.4,0.2,0.7,0.4c0.3,0.2,0.5,0.4,0.6,0.7c0,0,0.1,0.1,0.1,0.1c0.2,0.3,0.3,0.6,0.4,1c0.1,0.2,0.1,0.4,0.2,0.7
											c0,0,0,0.1,0,0.1c0,0.2,0.1,0.5,0.1,0.7c0,0.3,0.1,0.5,0.1,0.8c0,0.1,0,0.2,0,0.3c0,0.1,0,0.1,0,0.2c0,0.2,0,0.4,0.1,0.5
											c0,0.1,0,0.2,0,0.4c0,0.1,0,0.2,0,0.3c0,0,0,0.1,0,0.1c0,0.4,0.1,0.8,0.1,1.1c0,0,0,0.1,0,0.1
											C30.5,27.5,30.5,27.9,30.5,28z"/>
									</g>
									<g>
										<defs>
											<path id="SVGID_4_" d="M30.5,28c-0.3,0.1-0.7,0.3-1.2,0.4c-0.1,0-0.2,0-0.3,0.1c-0.5,0.1-1.1,0.2-1.7,0.2
												c-0.4,0-0.7,0-1.1,0c0,0,0,0,0,0c-0.8-0.1-1.4-0.2-1.9-0.3c0-0.2,0-0.4,0-0.6c0-0.1,0-0.1,0-0.2c0-0.6,0-1.1,0-1.6
												c0-0.1,0-0.1,0-0.2c0-0.7,0.1-1.3,0.1-1.9c0,0,0-0.1,0-0.1l0,0c0,0,0,0,0,0l0,0l0,0c0-0.2,0-0.4,0-0.5c0-0.1,0-0.1,0-0.2
												c0-0.1,0-0.1,0-0.2c0,0,0-0.1,0-0.1c0-0.5,0.1-1,0.2-1.4c0,0,0-0.1,0-0.1l0,0v0c0.1-0.5,0.3-0.9,0.6-1.2c0,0,0,0,0.1-0.1
												c0,0,0,0,0.1,0c0.3-0.2,0.6-0.4,1-0.5c0,0,0,0,0.1,0c0.4-0.1,0.9-0.1,1.3,0c0,0,0.1,0,0.1,0c0,0,0,0,0.1,0
												c0.2,0.1,0.4,0.2,0.7,0.4c0.3,0.2,0.5,0.4,0.6,0.7c0,0,0.1,0.1,0.1,0.1c0.2,0.3,0.3,0.6,0.4,1c0.1,0.2,0.1,0.4,0.2,0.7
												c0,0,0,0.1,0,0.1c0,0.2,0.1,0.5,0.1,0.7c0,0.3,0.1,0.5,0.1,0.8c0,0.1,0,0.2,0,0.3c0,0.1,0,0.1,0,0.2c0,0.2,0,0.4,0.1,0.5
												c0,0.1,0,0.2,0,0.4c0,0.1,0,0.2,0,0.3c0,0,0,0.1,0,0.1c0,0.4,0.1,0.8,0.1,1.1c0,0,0,0.1,0,0.1
												C30.5,27.5,30.5,27.9,30.5,28z"/>
										</defs>
										<clipPath id="SVGID_5_">
											<use xlink:href="#SVGID_4_"  style="overflow:visible;"/>
										</clipPath>
										<path class="st28" d="M24,21.7l2.9,0.3c0.7,0.1,1.4,0.1,2.1-0.1l1.3-0.3v-0.9L29,21c-0.7,0.1-1.4,0.2-2.1,0.1L24,20.7
											C24,20.7,24,21.7,24,21.7z"/>
									</g>
									<g>
										<defs>
											<path id="SVGID_7_" d="M30.5,28c-0.3,0.1-0.7,0.3-1.2,0.4c-0.1,0-0.2,0-0.3,0.1c-0.5,0.1-1.1,0.2-1.7,0.2
												c-0.4,0-0.7,0-1.1,0c0,0,0,0,0,0c-0.8-0.1-1.4-0.2-1.9-0.3c0-0.2,0-0.4,0-0.6c0-0.1,0-0.1,0-0.2c0-0.6,0-1.1,0-1.6
												c0-0.1,0-0.1,0-0.2c0-0.7,0.1-1.3,0.1-1.9c0,0,0-0.1,0-0.1l0,0c0,0,0,0,0,0l0,0l0,0c0-0.2,0-0.4,0-0.5c0-0.1,0-0.1,0-0.2
												c0-0.1,0-0.1,0-0.2c0,0,0-0.1,0-0.1c0-0.5,0.1-1,0.2-1.4c0,0,0-0.1,0-0.1l0,0v0c0.1-0.5,0.3-0.9,0.6-1.2c0,0,0,0,0.1-0.1
												c0,0,0,0,0.1,0c0.3-0.2,0.6-0.4,1-0.5c0,0,0,0,0.1,0c0.4-0.1,0.9-0.1,1.3,0c0,0,0.1,0,0.1,0c0,0,0,0,0.1,0
												c0.2,0.1,0.4,0.2,0.7,0.4c0.3,0.2,0.5,0.4,0.6,0.7c0,0,0.1,0.1,0.1,0.1c0.2,0.3,0.3,0.6,0.4,1c0.1,0.2,0.1,0.4,0.2,0.7
												c0,0,0,0.1,0,0.1c0,0.2,0.1,0.5,0.1,0.7c0,0.3,0.1,0.5,0.1,0.8c0,0.1,0,0.2,0,0.3c0,0.1,0,0.1,0,0.2c0,0.2,0,0.4,0.1,0.5
												c0,0.1,0,0.2,0,0.4c0,0.1,0,0.2,0,0.3c0,0,0,0.1,0,0.1c0,0.4,0.1,0.8,0.1,1.1c0,0,0,0.1,0,0.1
												C30.5,27.5,30.5,27.9,30.5,28z"/>
										</defs>
										<clipPath id="SVGID_8_">
											<use xlink:href="#SVGID_7_"  style="overflow:visible;"/>
										</clipPath>
										<path class="st29" d="M24.1,23.5l2.9,0.3c0.7,0.1,1.4,0.1,2.1-0.1l1.3-0.3v-0.9l-1.3,0.3C28.4,23,27.7,23,27,22.9
											l-2.9-0.3V23.5z"/>
									</g>
									<g>
										<defs>
											<path id="SVGID_9_" d="M30.5,28c-0.3,0.1-0.7,0.3-1.2,0.4c-0.1,0-0.2,0-0.3,0.1c-0.5,0.1-1.1,0.2-1.7,0.2
												c-0.4,0-0.7,0-1.1,0c0,0,0,0,0,0c-0.8-0.1-1.4-0.2-1.9-0.3c0-0.2,0-0.4,0-0.6c0-0.1,0-0.1,0-0.2c0-0.6,0-1.1,0-1.6
												c0-0.1,0-0.1,0-0.2c0-0.7,0.1-1.3,0.1-1.9c0,0,0-0.1,0-0.1l0,0c0,0,0,0,0,0l0,0l0,0c0-0.2,0-0.4,0-0.5c0-0.1,0-0.1,0-0.2
												c0-0.1,0-0.1,0-0.2c0,0,0-0.1,0-0.1c0-0.5,0.1-1,0.2-1.4c0,0,0-0.1,0-0.1l0,0v0c0.1-0.5,0.3-0.9,0.6-1.2c0,0,0,0,0.1-0.1
												c0,0,0,0,0.1,0c0.3-0.2,0.6-0.4,1-0.5c0,0,0,0,0.1,0c0.4-0.1,0.9-0.1,1.3,0c0,0,0.1,0,0.1,0c0,0,0,0,0.1,0
												c0.2,0.1,0.4,0.2,0.7,0.4c0.3,0.2,0.5,0.4,0.6,0.7c0,0,0.1,0.1,0.1,0.1c0.2,0.3,0.3,0.6,0.4,1c0.1,0.2,0.1,0.4,0.2,0.7
												c0,0,0,0.1,0,0.1c0,0.2,0.1,0.5,0.1,0.7c0,0.3,0.1,0.5,0.1,0.8c0,0.1,0,0.2,0,0.3c0,0.1,0,0.1,0,0.2c0,0.2,0,0.4,0.1,0.5
												c0,0.1,0,0.2,0,0.4c0,0.1,0,0.2,0,0.3c0,0,0,0.1,0,0.1c0,0.4,0.1,0.8,0.1,1.1c0,0,0,0.1,0,0.1
												C30.5,27.5,30.5,27.9,30.5,28z"/>
										</defs>
										<clipPath id="SVGID_10_">
											<use xlink:href="#SVGID_9_"  style="overflow:visible;"/>
										</clipPath>
										<path class="st30" d="M24.3,25.7l1.8,0.3c0,0,0.1,0,0.1,0c0.7,0.1,2.4,0,3.1-0.1l1.3-0.3v-0.9L29.3,25
											c-0.7,0.1-2.4,0.2-3.1,0.1c0,0-0.1,0-0.1,0l-1.8-0.3V25.7z"/>
									</g>
									<g>
										<defs>
											<path id="SVGID_12_" d="M30.5,28c-0.3,0.1-0.7,0.3-1.2,0.4c-0.1,0-0.2,0-0.3,0.1c-0.5,0.1-1.1,0.2-1.7,0.2
												c-0.4,0-0.7,0-1.1,0c0,0,0,0,0,0c-0.8-0.1-1.4-0.2-1.9-0.3c0-0.2,0-0.4,0-0.6c0-0.1,0-0.1,0-0.2c0-0.6,0-1.1,0-1.6
												c0-0.1,0-0.1,0-0.2c0-0.7,0.1-1.3,0.1-1.9c0,0,0-0.1,0-0.1l0,0c0,0,0,0,0,0l0,0l0,0c0-0.2,0-0.4,0-0.5c0-0.1,0-0.1,0-0.2
												c0-0.1,0-0.1,0-0.2c0,0,0-0.1,0-0.1c0-0.5,0.1-1,0.2-1.4c0,0,0-0.1,0-0.1l0,0v0c0.1-0.5,0.3-0.9,0.6-1.2c0,0,0,0,0.1-0.1
												c0,0,0,0,0.1,0c0.3-0.2,0.6-0.4,1-0.5c0,0,0,0,0.1,0c0.4-0.1,0.9-0.1,1.3,0c0,0,0.1,0,0.1,0c0,0,0,0,0.1,0
												c0.2,0.1,0.4,0.2,0.7,0.4c0.3,0.2,0.5,0.4,0.6,0.7c0,0,0.1,0.1,0.1,0.1c0.2,0.3,0.3,0.6,0.4,1c0.1,0.2,0.1,0.4,0.2,0.7
												c0,0,0,0.1,0,0.1c0,0.2,0.1,0.5,0.1,0.7c0,0.3,0.1,0.5,0.1,0.8c0,0.1,0,0.2,0,0.3c0,0.1,0,0.1,0,0.2c0,0.2,0,0.4,0.1,0.5
												c0,0.1,0,0.2,0,0.4c0,0.1,0,0.2,0,0.3c0,0,0,0.1,0,0.1c0,0.4,0.1,0.8,0.1,1.1c0,0,0,0.1,0,0.1
												C30.5,27.5,30.5,27.9,30.5,28z"/>
										</defs>
										<clipPath id="SVGID_13_">
											<use xlink:href="#SVGID_12_"  style="overflow:visible;"/>
										</clipPath>
										<path class="st31" d="M24.3,27.6l1.8,0.3c0,0,0.1,0,0.1,0c0.7,0.1,2.4,0,3.1-0.1l1.3-0.3v-0.9l-1.3,0.3
											c-0.7,0.1-2.4,0.2-3.1,0.1c0,0-0.1,0-0.1,0l-1.8-0.3V27.6z"/>
									</g>
								</g>
								<path class="st32" d="M29.9,24.2c0.3-0.1-2.9-3.2-2.9-3.2c-0.4-0.2-0.8-0.3-1.2-0.4c-0.1,0.2-0.2,0.3-0.3,0.5v0l0,0
									c0,0,0,0.1,0,0.1c-0.1,0.3-0.2,0.7-0.3,1.2c0.4,0.6,0.9,1.2,1.3,1.5C27.1,24.7,29.6,24.3,29.9,24.2z"/>
								
									<linearGradient id="SVGID_14_" gradientUnits="userSpaceOnUse" x1="15.2904" y1="56.0388" x2="21.4546" y2="56.0388" gradientTransform="matrix(1 0 0 -1 9.0263 80)">
									<stop  offset="1.300000e-07" style="stop-color:#D43A44"/>
									<stop  offset="1" style="stop-color:#FE4F5A"/>
								</linearGradient>
								<path class="st33" d="M30.5,28c-0.3,0.1-0.7,0.3-1.2,0.4c-0.1,0-0.2,0-0.3,0.1c-0.5,0.1-1.1,0.2-1.7,0.2c-0.4,0-0.7,0-1.1,0
									c0,0,0,0,0,0c-0.8-0.1-1.4-0.2-1.9-0.3c0-0.2,0-0.4,0-0.6c0-0.1,0-0.1,0-0.2c0-0.6,0-1.1,0-1.6c0-0.1,0-0.1,0-0.2
									c0-0.7,0.1-1.3,0.1-1.9c0,0,0-0.1,0-0.1l0,0c0,0,0,0,0,0l0,0l0,0c0-0.2,0-0.4,0-0.5c0-0.1,0-0.1,0-0.2c0-0.1,0-0.1,0-0.2
									c0,0,0-0.1,0-0.1c0-0.5,0.1-1,0.2-1.4c0,0,0-0.1,0-0.1l0,0v0c0.1-0.5,0.3-0.9,0.6-1.2c0,0,0,0,0.1-0.1c0,0,0,0,0.1,0
									c0.3-0.2,0.6-0.4,1-0.5c0,0,0,0,0.1,0c0.4-0.1,0.9-0.1,1.3,0c0,0,0.1,0,0.1,0c0,0,0,0,0.1,0c0.2,0.1,0.4,0.2,0.7,0.4
									c0.3,0.2,0.5,0.4,0.6,0.7c0,0,0.1,0.1,0.1,0.1c0.2,0.3,0.3,0.6,0.4,1c0.1,0.2,0.1,0.4,0.2,0.7c0,0,0,0.1,0,0.1
									c0,0.2,0.1,0.5,0.1,0.7c0,0.3,0.1,0.5,0.1,0.8c0,0.1,0,0.2,0,0.3c0,0.1,0,0.1,0,0.2c0,0.2,0,0.4,0.1,0.5c0,0.1,0,0.2,0,0.4
									c0,0.1,0,0.2,0,0.3c0,0,0,0.1,0,0.1c0,0.4,0.1,0.8,0.1,1.1c0,0,0,0.1,0,0.1C30.5,27.5,30.5,27.9,30.5,28z"/>
							</g>
							<path class="st34" d="M25.2,25c0-1.1,0.3-2.9-0.3-4.5c-0.1,0.2-0.2,0.4-0.3,0.7v0l0,0c0,0,0,0.1,0,0.1
								c-0.1,0.4-0.1,0.9-0.2,1.4c0,0,0,0.1,0,0.1c0,0.1,0,0.1,0,0.2s0,0.1,0,0.2c0,0.2,0,0.3,0,0.5l0,0l0,0c0,0,0,0,0,0l0,0
								c0,0,0,0,0,0.1c0,0.6-0.1,1.2-0.1,1.9c0,0.1,0,0.1,0,0.2c0,0.5,0,1,0,1.6c0,0.1,0,0.1,0,0.2c0,0.2,0,0.4,0,0.6
								c0.3,0.1,0.6,0.1,0.9,0.2C25.2,27.6,25.2,26,25.2,25z"/>
						</g>
						<g>
							<g>
								<path class="st10" d="M27.8,20.2c0,0-0.1-0.1-0.1,0c0,0-0.1,0.1,0,0.1c0,0,0.1,0.1,0.1,0C27.8,20.3,27.9,20.3,27.8,20.2z"/>
							</g>
							<g>
								<path class="st10" d="M28,20.7c0,0-0.1-0.1-0.1,0c0,0-0.1,0.1,0,0.1c0,0,0.1,0.1,0.1,0C28,20.8,28,20.7,28,20.7z"/>
							</g>
							<g>
								<path class="st10" d="M27.9,21.2L27.9,21.2c0.1-0.1,0.2-0.2,0.2-0.3c0-0.1,0-0.2,0-0.3l-0.2-0.7h0.1l0.2,0.7
									c0,0.1,0.1,0.2,0,0.3C28.1,21,28.1,21.2,27.9,21.2z"/>
							</g>
						</g>
						<g>
							<path class="st20" d="M34.6,20.4C34.6,20.4,34.5,20.4,34.6,20.4L34.6,20.4L34.6,20.4C34.5,20.4,34.5,20.4,34.6,20.4
								c0-0.4-0.3-0.6-0.4-0.6l0,0l0,0c0,0,0,0,0,0v0c0-0.1-0.1-0.2-0.2-0.3c-0.1,0-0.1-0.1-0.2-0.1h0c0.1,0,0.2-0.1,0.4-0.2
								c0.3-0.2,0.6-0.4,0.6-0.5c0-0.1-0.1-0.1-0.1-0.1c-0.4-0.2-1.1,0.2-1.4,0.4c-0.6,0.4-1.1,0.9-1.5,1.5
								c-0.9,0.7-1.7,1.5-2.6,2.2c0,0,0,0,0,0c0,0-0.1-0.1-0.1-0.1c-0.4-0.3-0.9-0.7-1.7-1.3c-0.7-0.6-1.1-0.9-1.6-0.8
								c-0.3,0.1-0.6,0.3-0.7,0.6c-0.1,0.3,0,0.7,0.9,1.5c1.3,1.4,2.1,2.1,3.3,2.2c0.8,0,1.5-0.3,1.8-0.4c1.2-0.6,1.8-1.6,2.1-2.2
								c0.8-0.5,1.7-1.2,1.7-1.2C35,20.6,34.7,20.4,34.6,20.4z"/>
							<path class="st20" d="M29.3,24.8c-0.1,0-0.1,0-0.2,0c-1.2-0.1-2-0.8-3.3-2.2c-0.9-0.9-1-1.3-0.9-1.6c0.1-0.3,0.5-0.6,0.8-0.6
								c0.5-0.1,0.9,0.2,1.6,0.8c0.6,0.4,1.1,0.9,1.7,1.3c0,0,0.1,0.1,0.1,0.1l2.5-2.2c0.5-0.7,1-1.2,1.5-1.5c0.2-0.2,1-0.6,1.4-0.4
								c0,0,0.1,0.1,0.1,0.2c0,0.2-0.2,0.3-0.6,0.6c-0.1,0-0.2,0.1-0.3,0.1c0,0,0.1,0,0.1,0.1c0.1,0.1,0.2,0.2,0.2,0.3v0
								c0.1,0.1,0.4,0.3,0.3,0.6h0l0,0c0.1,0,0.2,0.1,0.3,0.2c0,0.1,0,0.2-0.1,0.3l0,0c0,0-1,0.8-1.7,1.2c-0.3,0.6-0.9,1.6-2.1,2.2
								C30.7,24.5,30.1,24.8,29.3,24.8z M25.8,20.5c0,0-0.1,0-0.1,0c-0.3,0.1-0.6,0.3-0.7,0.5c-0.1,0.2,0,0.6,0.9,1.5
								c1.3,1.4,2.1,2.1,3.3,2.2c0.8,0,1.5-0.3,1.8-0.4c1.2-0.6,1.8-1.6,2-2.1c0,0,0,0,0,0c0.7-0.4,1.7-1.2,1.7-1.2
								c0.1-0.1,0.1-0.2,0.1-0.3c0-0.1-0.2-0.2-0.2-0.2c0,0-0.1,0-0.1,0c0,0,0,0,0,0l0,0l0,0h0l0,0h0l0,0c0.1-0.3-0.3-0.5-0.3-0.5
								l0,0l0,0l0,0v0c0-0.1-0.1-0.2-0.2-0.3c-0.1,0-0.1-0.1-0.2-0.1h0c0,0,0,0,0,0c0,0,0,0,0,0c0.1-0.1,0.2-0.1,0.4-0.2
								c0.5-0.3,0.6-0.4,0.6-0.5c0,0-0.1-0.1-0.1-0.1c-0.4-0.2-1.1,0.2-1.3,0.4c-0.5,0.3-1,0.8-1.5,1.5l0,0l-2.6,2.2c0,0,0,0-0.1,0
								l0,0c0,0-0.1-0.1-0.1-0.1c-0.5-0.4-1.1-0.9-1.7-1.3C26.6,20.7,26.2,20.5,25.8,20.5z"/>
							<g>
								<path class="st25" d="M32.9,20C32.9,20,32.9,19.9,32.9,20C32.8,19.9,32.8,19.9,32.9,20c0-0.1,0.5-0.5,0.8-0.6c0,0,0,0,0.1,0
									c0,0,0,0,0,0.1C33.4,19.5,32.9,19.9,32.9,20C32.9,20,32.9,20,32.9,20z"/>
							</g>
							<g>
								<path class="st25" d="M33.4,20.4C33.3,20.4,33.3,20.4,33.4,20.4C33.3,20.4,33.3,20.3,33.4,20.4c0-0.1,0.4-0.4,0.8-0.6
									c0,0,0,0,0.1,0c0,0,0,0,0,0.1C33.8,20.1,33.4,20.4,33.4,20.4L33.4,20.4z"/>
							</g>
							<g>
								<path class="st25" d="M33.8,20.9C33.8,20.9,33.8,20.9,33.8,20.9C33.8,20.9,33.8,20.9,33.8,20.9c0-0.1,0.2-0.4,0.6-0.5
									c0,0,0,0,0.1,0c0,0,0,0,0,0.1C34.1,20.6,33.9,20.9,33.8,20.9L33.8,20.9z"/>
							</g>
						</g>
						<g>
							<g>
								<path class="st7" d="M28.1,21.6c-0.4,0.7-1.3,1.8-1.7,2c-0.1,0-0.1,0-0.2,0c-0.1,0-0.2-0.1-0.3-0.2c0,0-0.1-0.1-0.1-0.1
									c0,0,0,0,0,0c-1-0.8-1.2-1.3-1.2-1.3c0-0.1-0.3-0.7,0.1-1.3c0.1-0.1,0.2-0.4,0.5-0.5c0.3-0.1,0.5,0,0.9,0
									c0.3,0.1,0.6,0.2,0.6,0.2c0.1,0,0.1,0,0.2,0.1c0.3,0.1,0.5,0.3,0.7,0.4c0.1,0,0.1,0.1,0.1,0.1
									C27.9,21.3,28.1,21.6,28.1,21.6z"/>
							</g>
							<g>
								<path class="st10" d="M25.9,23.4L25.9,23.4c0.5-0.4,1.7-2,1.7-2.3h0.1C27.7,21.5,26.4,23.1,25.9,23.4z"/>
							</g>
						</g>
					</g>
					<g>
						<g>
							<path class="st7" d="M28,19.4c0,0.4-0.1,0.5-0.5,0.6c-0.4,0.1-1.1-0.2-1.2-0.7l1.2-0.1C27.6,19.3,27.8,19.3,28,19.4z"/>
						</g>
						<g>
							<path class="st10" d="M28.9,16.7c0.2,0,0.3-0.1,0.4-0.3c0.1-0.2,0.1-0.3,0-0.4c0,0,0,0-0.1,0c0,0,0,0,0,0.1
								c0.1,0,0.1,0.2,0,0.3C29.1,16.5,29,16.6,28.9,16.7L28.9,16.7C28.9,16.6,28.9,16.6,28.9,16.7C28.9,16.7,28.9,16.7,28.9,16.7
								L28.9,16.7z"/>
						</g>
						<g>
							<g>
								<g>
									<path class="st25" d="M26.8,17.4l-0.2,1.9c0,0.2,0.1,0.3,0.4,0.4c0.1,0,0.2,0,0.3,0h0c0.2,0,0.4-0.1,0.4-0.3l0.2-1.9
										L26.8,17.4z"/>
									<path class="st25" d="M27.2,19.8c-0.1,0-0.1,0-0.2,0c-0.3-0.1-0.4-0.2-0.4-0.4l0.2-1.9c0,0,0,0,0,0l1.1,0.1c0,0,0,0,0,0
										l-0.2,1.9c0,0.2-0.2,0.3-0.5,0.3h0C27.3,19.8,27.3,19.8,27.2,19.8z M26.9,17.5l-0.2,1.8c0,0.2,0.1,0.3,0.3,0.3
										c0.1,0,0.2,0,0.3,0h0c0.2,0,0.4-0.1,0.4-0.3l0.2-1.8L26.9,17.5z"/>
								</g>
							</g>
						</g>
						<g>
							<g>
								<g>
									<path class="st21" d="M28.4,16.9c0.1,0,0.3,0,0.5-0.1c0.4-0.1,0.4-0.1,0.5-0.2c0.1-0.2,0.1-0.5-0.1-0.7
										c-0.2-0.1-0.4-0.1-0.6-0.1c0,0,0.1-0.2,0-0.4c-0.1-0.2-0.4-0.2-0.7-0.1c0,0-0.1-0.2-0.3-0.3c-0.2,0-0.4,0.1-0.5,0.4
										c-0.1,0.1-0.4,0.2-0.5,0.5c-0.1,0.3-0.1,0.5-0.1,0.8c0,0.2,0,0.6,0.3,1c0,0,0,0.1,0.1,0.1c0,0,0.1,0,0.1,0
										c0-0.1,0.1-0.2,0.1-0.4c0.1-0.3,0-0.4,0.1-0.5C27.2,17.1,27.4,16.9,28.4,16.9z"/>
								</g>
							</g>
						</g>
						<g>
							<path class="st20" d="M28.9,16.7c-0.1,0.1-0.2,0.1-0.2,0.1c0,0-0.1,0-0.2-0.1c-0.2-0.1-0.2-0.1-0.2-0.1
								c-0.2-0.1-0.4,0-0.8,0.2c-0.1,0-0.1,0.1-0.2,0.1c0,0-0.1,0-0.1,0.1c0,0-0.1-0.1-0.1-0.1c-0.1,0-0.2,0.1-0.2,0.2
								c0,0.1,0,0.2,0.1,0.3c0,0,0.1,0.1,0.2,0.2c0,0,0,0.1,0,0.1c0,0.2,0,0.2,0,0.3c0.1,0.2,0.2,0.4,0.4,0.5
								c0.2,0.2,0.4,0.3,0.6,0.3c0.1,0,0.2-0.1,0.3-0.2c0.2-0.2,0.3-0.4,0.4-0.8C28.8,17.6,28.9,17.2,28.9,16.7z"/>
							<path class="st20" d="M28,18.9c-0.2,0-0.4-0.1-0.5-0.3s-0.4-0.3-0.4-0.5c0-0.1,0-0.2,0-0.3c0,0,0,0,0-0.1
								c-0.1-0.1-0.1-0.1-0.2-0.2c-0.1-0.1-0.1-0.2-0.1-0.3c0-0.1,0.1-0.2,0.2-0.2c0,0,0.1,0,0.1,0.1c0,0,0,0,0.1,0c0,0,0,0,0,0
								c0,0,0.1,0,0.1-0.1c0.4-0.2,0.6-0.3,0.8-0.2c0,0,0,0,0.1,0c0,0,0.1,0,0.2,0.1c0.1,0,0.2,0.1,0.2,0.1c0.1,0,0.1,0,0.2-0.1h0
								l0,0c0,0.4,0,0.8-0.1,1.2c-0.1,0.3-0.2,0.6-0.4,0.8C28.3,18.9,28.2,18.9,28,18.9C28,18.9,28,18.9,28,18.9z M27,17
								C27,17,27,17,27,17c-0.1,0-0.1,0.1-0.2,0.1c0,0.1,0,0.2,0.1,0.3c0,0.1,0.1,0.1,0.2,0.2v0c0,0,0,0.1,0,0.1c0,0.2,0,0.2,0,0.3
								c0.1,0.2,0.2,0.3,0.4,0.5c0.2,0.2,0.4,0.3,0.6,0.3c0.1,0,0.2-0.1,0.3-0.1c0.2-0.2,0.3-0.4,0.4-0.7c0.1-0.3,0.1-0.7,0.1-1.1
								c-0.1,0-0.1,0.1-0.2,0.1s-0.1,0-0.2-0.1c-0.1,0-0.1-0.1-0.2-0.1c0,0,0,0-0.1,0c-0.2-0.1-0.4,0-0.8,0.2c-0.1,0-0.1,0-0.1,0.1
								c0,0,0,0-0.1,0c0,0-0.1,0-0.1,0.1h0h0C27.1,17.1,27.1,17.1,27,17z"/>
						</g>
						<g>
							<g>
								<g>
									<path class="st21" d="M27.3,16.8C27.4,16.8,27.4,16.8,27.3,16.8c0,0.2,0,0.3,0,0.4c0,0.1,0,0.2,0,0.3c0,0,0,0.1-0.1,0.1
										l0,0c0,0-0.1,0-0.1-0.1c-0.1-0.2-0.2-0.7-0.2-0.7C27,16.8,27.2,16.8,27.3,16.8z"/>
								</g>
							</g>
						</g>
						<g>
							<g>
								<path class="st21" d="M27,17.5C27,17.5,27,17.5,27,17.5c-0.1-0.1-0.1-0.2-0.1-0.3c0-0.1,0.1-0.1,0.2-0.1c0,0,0,0,0,0.1
									s0,0-0.1,0c0,0-0.1,0-0.1,0C27,17.3,27,17.4,27,17.5C27.1,17.5,27.1,17.5,27,17.5C27.1,17.5,27,17.5,27,17.5z"/>
							</g>
						</g>
						<g>
							<g>
								<path class="st21" d="M28.4,18C28.4,18,28.4,18,28.4,18C28.3,18,28.3,18,28.4,18C28.3,17.9,28.4,17.9,28.4,18
									c0-0.1,0.1-0.1,0.1-0.1c0,0,0,0,0-0.1c0-0.1-0.1-0.4-0.1-0.5c0,0,0-0.1,0-0.1c0,0,0.1,0,0.1,0s0.1,0.4,0.1,0.6
									c0,0.1,0,0.1-0.1,0.1C28.5,18,28.4,18,28.4,18z"/>
							</g>
							<g>
								<path class="st21" d="M28.2,18.6C28.2,18.6,28.2,18.6,28.2,18.6c-0.2,0-0.1-0.3-0.1-0.4c0,0,0,0,0,0c0,0,0,0,0.1,0
									c0,0,0.1,0.1,0.1,0.1c0.1,0,0.1,0,0.1,0c0,0,0.1,0,0.1,0c0,0,0,0,0,0.1C28.4,18.4,28.3,18.6,28.2,18.6z M28.2,18.3
									c0,0.1,0,0.1,0,0.1c0,0,0.1,0,0.1-0.1C28.3,18.4,28.3,18.4,28.2,18.3C28.2,18.4,28.2,18.4,28.2,18.3z"/>
							</g>
							<g>
								<path class="st21" d="M28,17.4c0,0.1,0,0.1,0.1,0.1c0,0,0.1-0.1,0.1-0.1c0-0.1,0-0.1-0.1-0.1S28,17.4,28,17.4z"/>
							</g>
							<g>
								<path class="st21" d="M28.6,17.4c0,0.1,0,0.1,0.1,0.1c0,0,0.1-0.1,0.1-0.1s0-0.1-0.1-0.1C28.6,17.3,28.6,17.4,28.6,17.4z"/>
							</g>
							<g>
								<path class="st21" d="M28.2,17c0,0-0.1-0.1-0.1,0c0,0-0.2,0.1-0.2,0.1s0,0,0,0C27.9,17.1,28,17.1,28.2,17
									C28.1,17.1,28.2,17.1,28.2,17C28.2,17.1,28.2,17,28.2,17z"/>
							</g>
							<g>
								<path class="st21" d="M28.6,17.1c0,0,0.1-0.1,0.1,0c0,0,0.2,0.1,0.2,0.1c0,0,0,0,0,0C28.8,17.2,28.8,17.1,28.6,17.1
									C28.7,17.1,28.6,17.1,28.6,17.1C28.6,17.1,28.6,17.1,28.6,17.1z"/>
							</g>
						</g>
					</g>
					<g>
						<g>
							<g>
								<g>
									<path class="st21" d="M31.8,22.1c0.3,0.3,0.6,0.5,0.9,0.6c0.1-0.1,0.1-0.2,0.2-0.3c-0.3-0.1-0.6-0.3-0.8-0.6
										c-0.4-0.5-0.6-1-0.7-1.3c-0.1,0.1-0.2,0.2-0.3,0.3C31.2,21.2,31.4,21.7,31.8,22.1z"/>
								</g>
							</g>
						</g>
						<path class="st21" d="M32,22l-0.2,0.1c-0.1,0.1-0.3,0.1-0.4-0.1l-0.3-0.4c-0.1-0.1-0.1-0.3,0.1-0.4l0.2-0.1
							c0.1-0.1,0.3-0.1,0.4,0.1l0.3,0.4C32.1,21.7,32.1,21.9,32,22z"/>
						<path class="st7" d="M32,22l-0.2,0.1c-0.1,0.1-0.3,0.1-0.4-0.1l-0.3-0.4c-0.1-0.1-0.1-0.3,0.1-0.4l0.2-0.1
							c0.1-0.1,0.3-0.1,0.4,0.1l0.3,0.4C32.1,21.8,32.1,21.9,32,22z"/>
					</g>
					<g>
						<g>
							<g>
								<path class="st10" d="M36.5,21.5l-1.3-0.8c-0.2-0.1-0.2-0.3-0.1-0.5l1.8-2.9c0.1-0.2,0.3-0.2,0.5-0.1l1.3,0.8
									c0.2,0.1,0.2,0.3,0.1,0.5l-1.8,2.9C36.8,21.5,36.6,21.6,36.5,21.5z"/>
							</g>
						</g>
						<g>
							<g>
								<path class="st13" d="M36.4,21.5l-1.3-0.8c-0.2-0.1-0.2-0.4-0.1-0.5l1.8-2.9c0.1-0.1,0.1-0.2,0.2-0.2c0.1,0,0.2,0,0.3,0
									l1.3,0.8c0.2,0.1,0.2,0.4,0.1,0.5L37,21.4c-0.1,0.1-0.1,0.2-0.2,0.2c0,0-0.1,0-0.1,0C36.6,21.6,36.5,21.6,36.4,21.5z
									 M37,17.2c-0.1,0-0.1,0.1-0.2,0.1l-1.8,2.9c-0.1,0.1,0,0.3,0.1,0.4l1.3,0.8c0.1,0,0.1,0,0.2,0c0.1,0,0.1-0.1,0.2-0.1
									l1.8-2.9c0.1-0.1,0-0.3-0.1-0.4l-1.3-0.8C37.2,17.2,37.1,17.2,37,17.2C37.1,17.2,37,17.2,37,17.2z"/>
							</g>
						</g>
						<g>
							<g>
								<path class="st35" d="M36.8,17.9c0.1-0.1,0.2-0.1,0.3-0.1c0.2-0.1,0.5,0,0.7,0.1c0.1,0.1,0.2,0.1,0.3,0.2
									c0.1,0.1,0.1,0.2,0.2,0.3c0,0.1,0,0.2,0,0.4c0,0,0,0.1,0,0.1c0,0,0,0.1,0,0.1c0,0,0,0.1,0,0.1l0,0.1
									c-0.1,0.1-0.1,0.2-0.2,0.3c-0.1,0.1-0.2,0.1-0.3,0.1c0,0-0.1,0-0.1,0c0,0-0.1,0-0.1,0s-0.1,0-0.1,0s-0.1,0-0.1,0
									c-0.1,0-0.2-0.1-0.3-0.1c-0.2-0.1-0.3-0.3-0.4-0.6c0-0.1,0-0.2,0-0.3c0-0.1,0.1-0.2,0.1-0.3C36.6,18,36.7,18,36.8,17.9z
									 M36.4,18.4c0,0.1,0,0.2,0,0.3c0,0.1,0.1,0.2,0.1,0.3c0.1,0.1,0.1,0.2,0.2,0.2c0.1,0.1,0.2,0.1,0.3,0.1c0.1,0,0.2,0,0.3,0
									c0.1,0,0.2-0.1,0.3-0.1c0.1-0.1,0.2-0.1,0.2-0.2c0.1-0.1,0.1-0.2,0.1-0.3c0-0.1,0-0.2,0-0.3c0-0.1-0.1-0.2-0.1-0.3
									c-0.1-0.1-0.1-0.2-0.2-0.2c-0.1-0.1-0.2-0.1-0.3-0.1c-0.1,0-0.2,0-0.3,0c-0.1,0-0.2,0.1-0.3,0.1c-0.1,0.1-0.2,0.1-0.2,0.2
									C36.5,18.2,36.5,18.3,36.4,18.4z"/>
							</g>
						</g>
						<g>
							<g>
								<path class="st35" d="M36,19.3l1.3,0.8c0,0,0.1,0,0.1,0l0,0c0,0,0-0.1,0-0.1l-1.3-0.8c0,0-0.1,0-0.1,0l0,0
									C36,19.2,36,19.3,36,19.3z"/>
							</g>
						</g>
						<g>
							<g>
								<path class="st35" d="M35.8,19.7l1.3,0.8c0,0,0.1,0,0.1,0l0,0c0,0,0-0.1,0-0.1l-1.3-0.8c0,0-0.1,0-0.1,0l0,0
									C35.7,19.6,35.8,19.7,35.8,19.7z"/>
							</g>
						</g>
						<g>
							<g>
								<path class="st35" d="M35.6,20l1.3,0.8c0,0,0.1,0,0.1,0l0,0c0,0,0-0.1,0-0.1l-1.3-0.8c0,0-0.1,0-0.1,0l0,0
									C35.5,20,35.5,20,35.6,20z"/>
							</g>
						</g>
						<g>
							<g>
								<path class="st35" d="M35.4,20.4l1.3,0.8c0,0,0.1,0,0.1,0l0,0c0,0,0-0.1,0-0.1l-1.3-0.8c0,0-0.1,0-0.1,0l0,0
									C35.3,20.3,35.3,20.4,35.4,20.4z"/>
							</g>
						</g>
						<g>
							<g>
								<path class="st14" d="M37,19C37,19,37,19,37,19l-0.2-0.9c0-0.1,0-0.1,0.1-0.1c0.1,0,0.1,0,0.1,0.1l0.1,0.7l1.1-0.5
									c0.1,0,0.1,0,0.1,0.1s0,0.1-0.1,0.1L37,19C37.1,19,37,19,37,19L37,19z"/>
							</g>
						</g>
					</g>
				</g>
			</g>
		</g>
	</g>
</g>
<g>
	<g>
		<path class="st10" d="M92.5,16.2h10v3H96v3.7h5.5v3H96v6.2h-3.6L92.5,16.2L92.5,16.2z"/>
		<path class="st10" d="M104.2,26.1c0-3.9,2.8-6.3,5.7-6.3c3.5,0,5.2,2.5,5.2,5.8c0,0.6-0.1,1.3-0.1,1.6h-7.2
			c0.3,1.8,1.5,2.6,3.1,2.6c0.9,0,1.8-0.3,2.6-0.8l1.2,2.1c-1.2,0.9-2.9,1.4-4.3,1.4C106.9,32.4,104.2,30.1,104.2,26.1z M112,24.8
			c0-1.3-0.6-2.3-2-2.3c-1.1,0-2.1,0.8-2.3,2.3H112z"/>
		<path class="st10" d="M116.8,26.1c0-3.9,2.8-6.3,5.7-6.3c3.5,0,5.2,2.5,5.2,5.8c0,0.6-0.1,1.3-0.1,1.6h-7.2
			c0.3,1.8,1.5,2.6,3.1,2.6c0.9,0,1.8-0.3,2.6-0.8l1.2,2.1c-1.2,0.9-2.9,1.4-4.3,1.4C119.5,32.4,116.8,30.1,116.8,26.1z M124.6,24.8
			c0-1.3-0.6-2.3-2-2.3c-1.1,0-2.1,0.8-2.3,2.3H124.6z"/>
		<path class="st10" d="M134.3,30.1l2-2.5c1.1,1,2.6,1.7,3.9,1.7c1.5,0,2.2-0.6,2.2-1.6c0-1-0.9-1.3-2.3-1.9l-2-0.9
			c-1.7-0.7-3.2-2-3.2-4.3c0-2.6,2.3-4.7,5.7-4.7c1.8,0,3.8,0.7,5.1,2.1l-1.8,2.3c-1-0.8-2-1.3-3.3-1.3c-1.2,0-2,0.5-2,1.4
			c0,1,1,1.3,2.4,1.9l2,0.8c1.9,0.8,3.2,2.1,3.2,4.3c0,2.6-2.2,4.9-6,4.9C138.1,32.4,135.9,31.7,134.3,30.1z"/>
		<path class="st10" d="M149,27.8v-4.9h-1.7v-2.7l1.9-0.1l0.4-3.2h3v3.2h2.9v2.8h-2.9v4.9c0,1.4,0.6,1.9,1.6,1.9
			c0.4,0,0.8-0.1,1.2-0.2l0.6,2.6c-0.6,0.2-1.5,0.4-2.7,0.4C150.2,32.4,149,30.5,149,27.8z"/>
		<path class="st10" d="M157.3,28.8c0-2.5,2-3.9,6.8-4.4c0-1.1-0.6-1.8-1.9-1.8c-1,0-2,0.4-3.2,1.1l-1.3-2.3
			c1.5-0.9,3.3-1.6,5.2-1.6c3.1,0,4.8,1.8,4.8,5.5v7h-2.9l-0.2-1.2h-0.1c-1,0.9-2.1,1.5-3.5,1.5C158.7,32.4,157.3,30.8,157.3,28.8z
			 M164.1,28.6v-2.1c-2.5,0.3-3.4,1.1-3.4,2c0,0.8,0.5,1.2,1.4,1.2C162.9,29.7,163.4,29.3,164.1,28.6z"/>
		<path class="st10" d="M171.1,27.8v-4.9h-1.7v-2.7l1.9-0.1l0.4-3.2h3v3.2h2.9v2.8h-2.9v4.9c0,1.4,0.6,1.9,1.6,1.9
			c0.4,0,0.8-0.1,1.2-0.2l0.6,2.6c-0.6,0.2-1.5,0.4-2.7,0.4C172.4,32.4,171.1,30.5,171.1,27.8z"/>
		<path class="st10" d="M179.9,27.6V20h3.6v7.1c0,1.8,0.5,2.3,1.5,2.3c0.9,0,1.5-0.4,2.1-1.3v-8h3.6v12.1h-2.9l-0.2-1.7h-0.1
			c-1,1.2-2.1,1.9-3.8,1.9C181,32.4,179.9,30.6,179.9,27.6z"/>
		<path class="st10" d="M192.7,30.7l1.6-2.2c1.1,0.8,2.1,1.3,3.1,1.3c1.1,0,1.5-0.4,1.5-1c0-0.8-1.2-1.2-2.4-1.7
			c-1.5-0.6-3.2-1.6-3.2-3.6c0-2.2,1.8-3.8,4.6-3.8c1.9,0,3.2,0.7,4.2,1.5l-1.6,2.1c-0.9-0.6-1.7-1-2.5-1c-0.9,0-1.4,0.3-1.4,1
			c0,0.8,1.1,1.1,2.4,1.5c1.5,0.6,3.3,1.4,3.3,3.7c0,2.2-1.7,3.9-5,3.9C195.8,32.4,194,31.8,192.7,30.7z"/>
	</g>
</g>
<g>
	<g>
		<path class="st10" d="M93.9,49.2H91v-1h7v1h-2.9v8.6h-1.2L93.9,49.2L93.9,49.2z"/>
		<path class="st10" d="M99.6,47.3h1.2v2.9l0,1.5c0.7-0.6,1.4-1.2,2.3-1.2c1.5,0,2.1,1,2.1,2.8v4.5H104v-4.3c0-1.3-0.4-1.9-1.3-1.9
			c-0.7,0-1.2,0.4-1.9,1.1v5.2h-1.2L99.6,47.3L99.6,47.3z"/>
		<path class="st10" d="M107.4,48.4c0-0.5,0.3-0.8,0.8-0.8s0.8,0.3,0.8,0.8c0,0.4-0.3,0.8-0.8,0.8C107.7,49.2,107.4,48.9,107.4,48.4
			z M107.5,50.6h1.2v7.1h-1.2V50.6z"/>
		<path class="st10" d="M110.4,56.9l0.6-0.8c0.6,0.5,1.2,0.8,2.1,0.8c0.9,0,1.4-0.5,1.4-1.1c0-0.7-0.8-1.1-1.6-1.4
			c-1-0.3-2.1-0.9-2.1-2c0-1.1,0.9-2,2.4-2c0.9,0,1.7,0.3,2.2,0.8l-0.6,0.8c-0.5-0.3-1-0.6-1.6-0.6c-0.9,0-1.3,0.5-1.3,1
			c0,0.7,0.8,0.9,1.6,1.2c1,0.4,2.1,0.8,2.1,2.1c0,1.2-0.9,2.1-2.6,2.1C112,57.9,111.1,57.5,110.4,56.9z"/>
		<path class="st10" d="M119.3,50.6h1.2l1.1,4.1c0.1,0.7,0.3,1.3,0.4,2h0c0.1-0.7,0.3-1.3,0.5-2l1.1-4.1h1.2l1.1,4.1
			c0.2,0.7,0.3,1.3,0.5,2h0c0.1-0.7,0.3-1.3,0.4-2l1-4.1h1.1l-1.9,7.1h-1.5l-1-3.9c-0.2-0.7-0.3-1.3-0.5-2h0c-0.1,0.7-0.3,1.4-0.5,2
			l-1,3.8h-1.4L119.3,50.6z"/>
		<path class="st10" d="M130.5,48.4c0-0.5,0.3-0.8,0.8-0.8s0.8,0.3,0.8,0.8c0,0.4-0.3,0.8-0.8,0.8C130.8,49.2,130.5,48.9,130.5,48.4
			z M130.7,50.6h1.2v7.1h-1.2V50.6z"/>
		<path class="st10" d="M134.3,56.3v-9h1.2v9.1c0,0.4,0.1,0.5,0.3,0.5c0,0,0.1,0,0.2,0l0.1,0.9c-0.2,0-0.4,0.1-0.7,0.1
			C134.6,57.9,134.3,57.3,134.3,56.3z"/>
		<path class="st10" d="M138,56.3v-9h1.2v9.1c0,0.4,0.1,0.5,0.3,0.5c0,0,0.1,0,0.2,0l0.1,0.9c-0.2,0-0.4,0.1-0.7,0.1
			C138.3,57.9,138,57.3,138,56.3z"/>
		<path class="st10" d="M144.1,54.2c0-2.3,1.5-3.8,3.1-3.8c0.8,0,1.4,0.3,2,0.8l0-1.2v-2.7h1.2v10.4h-1l-0.1-0.8h0
			c-0.5,0.5-1.3,1-2.1,1C145.3,57.9,144.1,56.6,144.1,54.2z M149.2,55.9v-3.8c-0.6-0.5-1.2-0.7-1.8-0.7c-1.1,0-2,1.1-2,2.7
			c0,1.7,0.7,2.7,1.9,2.7C148,56.9,148.5,56.6,149.2,55.9z"/>
		<path class="st10" d="M152.5,48.4c0-0.5,0.3-0.8,0.8-0.8s0.8,0.3,0.8,0.8c0,0.4-0.3,0.8-0.8,0.8C152.9,49.2,152.5,48.9,152.5,48.4
			z M152.7,50.6h1.2v7.1h-1.2V50.6z"/>
		<path class="st10" d="M155.6,56.9l0.6-0.8c0.6,0.5,1.2,0.8,2.1,0.8c0.9,0,1.4-0.5,1.4-1.1c0-0.7-0.8-1.1-1.6-1.4
			c-1-0.3-2.1-0.9-2.1-2c0-1.1,0.9-2,2.4-2c0.9,0,1.7,0.3,2.2,0.8L160,52c-0.5-0.3-1-0.6-1.6-0.6c-0.9,0-1.3,0.5-1.3,1
			c0,0.7,0.8,0.9,1.6,1.2c1,0.4,2.1,0.8,2.1,2.1c0,1.2-0.9,2.1-2.6,2.1C157.2,57.9,156.2,57.5,155.6,56.9z"/>
		<path class="st10" d="M162.5,50.6h1l0.1,0.8h0c0.6-0.5,1.5-1,2.2-1c1.9,0,2.8,1.4,2.8,3.6c0,2.4-1.5,3.9-3.1,3.9
			c-0.6,0-1.3-0.3-1.9-0.8l0,1.3v2.4h-1.2L162.5,50.6L162.5,50.6z M167.4,54.1c0-1.6-0.5-2.6-1.9-2.6c-0.6,0-1.2,0.3-1.9,1v3.8
			c0.6,0.5,1.3,0.7,1.7,0.7C166.6,56.9,167.4,55.8,167.4,54.1z"/>
		<path class="st10" d="M170.6,56.3v-9h1.2v9.1c0,0.4,0.1,0.5,0.3,0.5c0,0,0.1,0,0.2,0l0.1,0.9c-0.2,0-0.4,0.1-0.7,0.1
			C171,57.9,170.6,57.3,170.6,56.3z"/>
		<path class="st10" d="M173.8,55.9c0-1.6,1.3-2.3,4.3-2.7c0-0.9-0.3-1.8-1.5-1.8c-0.8,0-1.6,0.4-2.1,0.8l-0.5-0.8
			c0.6-0.4,1.7-0.9,2.8-0.9c1.8,0,2.5,1.2,2.5,2.9v4.4h-1l-0.1-0.8h0c-0.7,0.6-1.5,1-2.3,1C174.8,57.9,173.8,57.2,173.8,55.9z
			 M178.2,56v-2c-2.4,0.3-3.2,0.9-3.2,1.8c0,0.8,0.5,1.1,1.3,1.1C176.9,56.9,177.5,56.6,178.2,56z"/>
		<path class="st10" d="M180.9,60.7l0.2-1c0.1,0,0.3,0.1,0.5,0.1c0.8,0,1.3-0.6,1.6-1.5l0.1-0.5l-2.8-7.1h1.2l1.5,3.9
			c0.2,0.6,0.4,1.4,0.7,2h0c0.2-0.6,0.4-1.4,0.6-2l1.3-3.9h1.2l-2.7,7.7c-0.5,1.4-1.2,2.5-2.7,2.5C181.4,60.8,181.1,60.7,180.9,60.7
			z"/>
		<path class="st10" d="M191.6,55.5v-3.9h-1.1v-0.9l1.1,0l0.1-2h1v2h1.9v1h-1.9v3.9c0,0.9,0.3,1.4,1.1,1.4c0.2,0,0.6-0.1,0.8-0.2
			l0.2,0.9c-0.4,0.1-0.9,0.2-1.3,0.2C192.1,57.9,191.6,56.9,191.6,55.5z"/>
		<path class="st10" d="M196.3,47.3h1.2v2.9l0,1.5c0.7-0.6,1.4-1.2,2.3-1.2c1.5,0,2.1,1,2.1,2.8v4.5h-1.2v-4.3
			c0-1.3-0.4-1.9-1.3-1.9c-0.7,0-1.2,0.4-1.9,1.1v5.2h-1.2L196.3,47.3L196.3,47.3z"/>
		<path class="st10" d="M203.8,54.2c0-2.3,1.6-3.8,3.2-3.8c1.8,0,2.8,1.3,2.8,3.4c0,0.2,0,0.5,0,0.7h-4.8c0.1,1.5,1,2.5,2.3,2.5
			c0.7,0,1.2-0.2,1.8-0.6l0.4,0.8c-0.6,0.4-1.4,0.7-2.3,0.7C205.3,57.9,203.8,56.5,203.8,54.2z M208.7,53.6c0-1.4-0.6-2.2-1.8-2.2
			c-1,0-1.9,0.8-2,2.2H208.7z"/>
		<path class="st10" d="M213.6,56.9l0.6-0.8c0.6,0.5,1.2,0.8,2.1,0.8c0.9,0,1.4-0.5,1.4-1.1c0-0.7-0.8-1.1-1.6-1.4
			c-1-0.3-2.1-0.9-2.1-2c0-1.1,0.9-2,2.4-2c0.9,0,1.7,0.3,2.2,0.8l-0.6,0.8c-0.5-0.3-1-0.6-1.6-0.6c-0.9,0-1.3,0.5-1.3,1
			c0,0.7,0.8,0.9,1.6,1.2c1,0.4,2.1,0.8,2.1,2.1c0,1.2-0.9,2.1-2.6,2.1C215.3,57.9,214.3,57.5,213.6,56.9z"/>
		<path class="st10" d="M220.8,55.5v-3.9h-1.1v-0.9l1.1,0l0.1-2h1v2h1.9v1H222v3.9c0,0.9,0.3,1.4,1.1,1.4c0.2,0,0.6-0.1,0.8-0.2
			l0.2,0.9c-0.4,0.1-0.9,0.2-1.3,0.2C221.2,57.9,220.8,56.9,220.8,55.5z"/>
		<path class="st10" d="M225,55.9c0-1.6,1.3-2.3,4.3-2.7c0-0.9-0.3-1.8-1.5-1.8c-0.8,0-1.6,0.4-2.1,0.8l-0.5-0.8
			c0.6-0.4,1.7-0.9,2.8-0.9c1.8,0,2.5,1.2,2.5,2.9v4.4h-1l-0.1-0.8h0c-0.7,0.6-1.5,1-2.3,1C225.9,57.9,225,57.2,225,55.9z M229.4,56
			v-2c-2.4,0.3-3.2,0.9-3.2,1.8c0,0.8,0.5,1.1,1.3,1.1C228.2,56.9,228.7,56.6,229.4,56z"/>
		<path class="st10" d="M233,55.5v-3.9H232v-0.9l1.1,0l0.1-2h1v2h1.9v1h-1.9v3.9c0,0.9,0.3,1.4,1.1,1.4c0.2,0,0.6-0.1,0.8-0.2
			l0.2,0.9c-0.4,0.1-0.9,0.2-1.3,0.2C233.6,57.9,233,56.9,233,55.5z"/>
		<path class="st10" d="M237.7,55.1v-4.5h1.2v4.3c0,1.3,0.4,1.9,1.3,1.9c0.7,0,1.2-0.3,1.9-1.2v-5.1h1.2v7.1h-1l-0.1-1.1h0
			c-0.7,0.8-1.4,1.3-2.3,1.3C238.4,57.9,237.7,56.9,237.7,55.1z"/>
		<path class="st10" d="M244.9,56.9l0.6-0.8c0.6,0.5,1.2,0.8,2.1,0.8c0.9,0,1.4-0.5,1.4-1.1c0-0.7-0.8-1.1-1.6-1.4
			c-1-0.3-2.1-0.9-2.1-2c0-1.1,0.9-2,2.4-2c0.9,0,1.7,0.3,2.2,0.8l-0.6,0.8c-0.5-0.3-1-0.6-1.6-0.6c-0.9,0-1.3,0.5-1.3,1
			c0,0.7,0.8,0.9,1.6,1.2c1,0.4,2.1,0.8,2.1,2.1c0,1.2-0.9,2.1-2.6,2.1C246.6,57.9,245.6,57.5,244.9,56.9z"/>
		<path class="st10" d="M254.2,54.2c0-2.4,1.6-3.8,3.3-3.8c1.8,0,3.3,1.4,3.3,3.8c0,2.3-1.6,3.7-3.3,3.7
			C255.8,57.9,254.2,56.6,254.2,54.2z M259.6,54.2c0-1.6-0.8-2.7-2-2.7c-1.2,0-2,1.1-2,2.7c0,1.6,0.8,2.7,2,2.7
			C258.7,56.9,259.6,55.8,259.6,54.2z"/>
		<path class="st10" d="M261.9,50.7l1,0h2.6v1h-3.7V50.7z M262.9,49.5c0-1.5,0.6-2.4,2.1-2.4c0.4,0,0.9,0.1,1.2,0.2l-0.2,0.9
			c-0.3-0.1-0.5-0.2-0.8-0.2c-0.7,0-1,0.5-1,1.4v8.2h-1.2L262.9,49.5L262.9,49.5z"/>
		<path class="st10" d="M270.1,55.5v-3.9H269v-0.9l1.1,0l0.1-2h1v2h1.9v1h-1.9v3.9c0,0.9,0.3,1.4,1.1,1.4c0.2,0,0.6-0.1,0.8-0.2
			l0.2,0.9c-0.4,0.1-0.9,0.2-1.3,0.2C270.6,57.9,270.1,56.9,270.1,55.5z"/>
		<path class="st10" d="M274.8,47.3h1.2v2.9l0,1.5c0.7-0.6,1.4-1.2,2.3-1.2c1.5,0,2.1,1,2.1,2.8v4.5h-1.2v-4.3
			c0-1.3-0.4-1.9-1.3-1.9c-0.7,0-1.2,0.4-1.9,1.1v5.2h-1.2L274.8,47.3L274.8,47.3z"/>
		<path class="st10" d="M282.2,54.2c0-2.3,1.6-3.8,3.2-3.8c1.8,0,2.8,1.3,2.8,3.4c0,0.2,0,0.5,0,0.7h-4.8c0.1,1.5,1,2.5,2.3,2.5
			c0.7,0,1.2-0.2,1.8-0.6l0.4,0.8c-0.6,0.4-1.4,0.7-2.3,0.7C283.7,57.9,282.2,56.5,282.2,54.2z M287.2,53.6c0-1.4-0.6-2.2-1.8-2.2
			c-1,0-1.9,0.8-2,2.2H287.2z"/>
		<path class="st10" d="M91,68.3l1,0h2.6v1H91V68.3z M92,67.1c0-1.5,0.6-2.4,2.1-2.4c0.4,0,0.9,0.1,1.2,0.2L95,65.9
			c-0.3-0.1-0.5-0.2-0.8-0.2c-0.7,0-1,0.5-1,1.4v8.2H92L92,67.1L92,67.1z"/>
		<path class="st10" d="M95.5,71.8c0-2.3,1.6-3.8,3.2-3.8c1.8,0,2.8,1.3,2.8,3.4c0,0.2,0,0.5,0,0.7h-4.7c0.1,1.5,1,2.5,2.3,2.5
			c0.7,0,1.2-0.2,1.8-0.6l0.4,0.8c-0.6,0.4-1.4,0.7-2.3,0.7C97,75.5,95.5,74.1,95.5,71.8z M100.5,71.2c0-1.4-0.6-2.2-1.8-2.2
			c-1,0-1.9,0.8-2,2.2H100.5z"/>
		<path class="st10" d="M102.8,71.8c0-2.3,1.6-3.8,3.2-3.8c1.8,0,2.8,1.3,2.8,3.4c0,0.2,0,0.5,0,0.7h-4.8c0.1,1.5,1,2.5,2.3,2.5
			c0.7,0,1.2-0.2,1.8-0.6l0.4,0.8c-0.6,0.4-1.4,0.7-2.3,0.7C104.3,75.5,102.8,74.1,102.8,71.8z M107.7,71.2c0-1.4-0.6-2.2-1.8-2.2
			c-1,0-1.9,0.8-2,2.2H107.7z"/>
		<path class="st10" d="M109.7,74.5l0.6-0.8c0.6,0.5,1.2,0.8,2.1,0.8c0.9,0,1.4-0.5,1.4-1.1c0-0.7-0.8-1.1-1.6-1.4
			c-1-0.3-2.1-0.9-2.1-2c0-1.1,0.9-2,2.4-2c0.9,0,1.7,0.3,2.2,0.8l-0.6,0.8c-0.5-0.3-1-0.6-1.6-0.6c-0.9,0-1.3,0.5-1.3,1
			c0,0.7,0.8,0.9,1.6,1.2c1,0.4,2.1,0.8,2.1,2.1c0,1.2-0.9,2.1-2.6,2.1C111.4,75.5,110.4,75.1,109.7,74.5z"/>
		<path class="st10" d="M119.6,68.2h1l0.1,0.8h0c0.6-0.5,1.5-1,2.2-1c1.9,0,2.8,1.4,2.8,3.6c0,2.4-1.5,3.9-3.1,3.9
			c-0.6,0-1.3-0.3-1.9-0.8l0,1.2v2.4h-1.2L119.6,68.2L119.6,68.2z M124.6,71.7c0-1.6-0.5-2.6-1.9-2.6c-0.6,0-1.2,0.3-1.9,1v3.8
			c0.6,0.5,1.3,0.7,1.7,0.7C123.7,74.5,124.6,73.4,124.6,71.7z"/>
		<path class="st10" d="M127.2,73.5c0-1.6,1.3-2.3,4.3-2.7c0-0.9-0.3-1.8-1.5-1.8c-0.8,0-1.6,0.4-2.1,0.8l-0.5-0.8
			c0.6-0.4,1.7-0.9,2.8-0.9c1.8,0,2.5,1.2,2.5,2.9v4.4h-1l-0.1-0.8h0c-0.7,0.6-1.5,1-2.3,1C128.1,75.5,127.2,74.7,127.2,73.5z
			 M131.6,73.6v-1.9c-2.4,0.3-3.2,0.9-3.2,1.8c0,0.8,0.5,1.1,1.3,1.1C130.4,74.5,130.9,74.2,131.6,73.6z"/>
		<path class="st10" d="M134.8,66c0-0.5,0.3-0.8,0.8-0.8s0.8,0.3,0.8,0.8c0,0.4-0.3,0.8-0.8,0.8C135.2,66.7,134.8,66.4,134.8,66z
			 M135,68.2h1.2v7.1H135V68.2z"/>
		<path class="st10" d="M138.2,71.8c0-2.3,1.5-3.8,3.1-3.8c0.8,0,1.4,0.3,2,0.8l0-1.2v-2.7h1.2v10.4h-1l-0.1-0.8h0
			c-0.5,0.5-1.3,1-2.1,1C139.3,75.5,138.2,74.2,138.2,71.8z M143.1,73.5v-3.8c-0.6-0.5-1.2-0.7-1.8-0.7c-1.1,0-2,1.1-2,2.7
			c0,1.7,0.7,2.7,1.9,2.7C142,74.5,142.5,74.2,143.1,73.5z"/>
		<path class="st10" d="M150.8,74.6L150.8,74.6l-0.1,0.7h-1V64.9h1.2v2.9l0,1.3c0.6-0.6,1.5-1,2.2-1c1.9,0,2.8,1.4,2.8,3.6
			c0,2.4-1.5,3.9-3.1,3.9C152.1,75.5,151.4,75.2,150.8,74.6z M154.6,71.7c0-1.6-0.5-2.6-1.9-2.6c-0.6,0-1.2,0.3-1.9,1v3.8
			c0.6,0.5,1.3,0.7,1.7,0.7C153.7,74.5,154.6,73.4,154.6,71.7z"/>
		<path class="st10" d="M157,78.2l0.2-1c0.1,0,0.3,0.1,0.5,0.1c0.8,0,1.3-0.6,1.6-1.5l0.1-0.5l-2.8-7.1h1.2l1.5,3.9
			c0.2,0.6,0.4,1.4,0.7,2h0c0.2-0.6,0.4-1.4,0.6-2l1.3-3.9h1.2l-2.7,7.7c-0.5,1.4-1.2,2.5-2.7,2.5C157.5,78.4,157.3,78.3,157,78.2z"
			/>
		<path class="st10" d="M167.7,73.1v-3.9h-1.1v-0.9l1.1,0l0.1-2h1v2h1.9v1h-1.9v3.9c0,0.9,0.3,1.4,1.1,1.4c0.2,0,0.6-0.1,0.8-0.2
			l0.2,0.9c-0.4,0.1-0.9,0.2-1.3,0.2C168.2,75.5,167.7,74.5,167.7,73.1z"/>
		<path class="st10" d="M172.4,64.9h1.2v2.9l0,1.5c0.7-0.6,1.4-1.2,2.3-1.2c1.5,0,2.1,1,2.1,2.8v4.5h-1.2V71c0-1.3-0.4-1.9-1.3-1.9
			c-0.7,0-1.2,0.4-1.9,1.1v5.2h-1.2L172.4,64.9L172.4,64.9z"/>
		<path class="st10" d="M179.8,71.8c0-2.3,1.6-3.8,3.2-3.8c1.8,0,2.8,1.3,2.8,3.4c0,0.2,0,0.5,0,0.7H181c0.1,1.5,1,2.5,2.3,2.5
			c0.7,0,1.2-0.2,1.8-0.6l0.4,0.8c-0.6,0.4-1.4,0.7-2.3,0.7C181.3,75.5,179.8,74.1,179.8,71.8z M184.8,71.2c0-1.4-0.6-2.2-1.8-2.2
			c-1,0-1.9,0.8-2,2.2H184.8z"/>
		<path class="st10" d="M189.7,74.5l0.6-0.8c0.6,0.5,1.2,0.8,2.1,0.8c0.9,0,1.4-0.5,1.4-1.1c0-0.7-0.8-1.1-1.6-1.4
			c-1-0.3-2.1-0.9-2.1-2c0-1.1,0.9-2,2.4-2c0.9,0,1.7,0.3,2.2,0.8l-0.6,0.8c-0.5-0.3-1-0.6-1.6-0.6c-0.9,0-1.3,0.5-1.3,1
			c0,0.7,0.8,0.9,1.6,1.2c1,0.4,2.1,0.8,2.1,2.1c0,1.2-0.9,2.1-2.6,2.1C191.4,75.5,190.4,75.1,189.7,74.5z"/>
		<path class="st10" d="M196.8,73.1v-3.9h-1.1v-0.9l1.1,0l0.1-2h1v2h1.9v1H198v3.9c0,0.9,0.3,1.4,1.1,1.4c0.2,0,0.6-0.1,0.8-0.2
			l0.2,0.9c-0.4,0.1-0.9,0.2-1.3,0.2C197.4,75.5,196.8,74.5,196.8,73.1z"/>
		<path class="st10" d="M201.5,72.7v-4.5h1.2v4.3c0,1.3,0.4,1.9,1.3,1.9c0.7,0,1.2-0.3,1.9-1.2v-5h1.2v7.1h-1l-0.1-1.1h0
			c-0.7,0.8-1.4,1.3-2.3,1.3C202.1,75.5,201.5,74.5,201.5,72.7z"/>
		<path class="st10" d="M209,71.8c0-2.3,1.5-3.8,3.1-3.8c0.8,0,1.4,0.3,2,0.8l0-1.2v-2.7h1.2v10.4h-1l-0.1-0.8h0
			c-0.5,0.5-1.3,1-2.1,1C210.2,75.5,209,74.2,209,71.8z M214,73.5v-3.8c-0.6-0.5-1.2-0.7-1.8-0.7c-1.1,0-2,1.1-2,2.7
			c0,1.7,0.7,2.7,1.9,2.7C212.9,74.5,213.4,74.2,214,73.5z"/>
		<path class="st10" d="M217.1,71.8c0-2.3,1.6-3.8,3.2-3.8c1.8,0,2.8,1.3,2.8,3.4c0,0.2,0,0.5,0,0.7h-4.8c0.1,1.5,1,2.5,2.3,2.5
			c0.7,0,1.2-0.2,1.8-0.6l0.4,0.8c-0.6,0.4-1.4,0.7-2.3,0.7C218.6,75.5,217.1,74.1,217.1,71.8z M222.1,71.2c0-1.4-0.6-2.2-1.8-2.2
			c-1,0-1.9,0.8-2,2.2H222.1z"/>
		<path class="st10" d="M224.9,68.2h1l0.1,1h0c0.7-0.7,1.4-1.2,2.4-1.2c1.5,0,2.1,1,2.1,2.8v4.5h-1.2V71c0-1.3-0.4-1.9-1.3-1.9
			c-0.7,0-1.2,0.4-1.9,1.1v5.2h-1.2L224.9,68.2L224.9,68.2z"/>
		<path class="st10" d="M233,73.1v-3.9H232v-0.9l1.1,0l0.1-2h1v2h1.9v1h-1.9v3.9c0,0.9,0.3,1.4,1.1,1.4c0.2,0,0.6-0.1,0.8-0.2
			l0.2,0.9c-0.4,0.1-0.9,0.2-1.3,0.2C233.6,75.5,233,74.5,233,73.1z"/>
		<path class="st10" d="M237.5,74.6c0-0.5,0.4-0.9,0.9-0.9s0.9,0.4,0.9,0.9c0,0.5-0.4,0.9-0.9,0.9S237.5,75.1,237.5,74.6z"/>
	</g>
</g>
</svg>
