<?xml version="1.0" encoding="utf-8"?>
<!-- Generator: Adobe Illustrator 25.2.1, SVG Export Plug-In . SVG Version: 6.00 Build 0)  -->
<svg version="1.1" id="Layer_1" xmlns="http://www.w3.org/2000/svg" xmlns:xlink="http://www.w3.org/1999/xlink" x="0px" y="0px"
	 viewBox="0 0 840 365" style="enable-background:new 0 0 840 365;" xml:space="preserve">
<style type="text/css">
	.st0{fill:#3262AC;}
	.st1{fill:none;stroke:#00ADA6;stroke-width:4;stroke-miterlimit:10;}
	.st2{fill:#FFFFFF;}
	.st3{fill:#FEC68B;}
	.st4{fill:#F15119;}
	.st5{fill:#0A585E;}
	.st6{fill:#F46322;}
	.st7{fill:#053B40;}
	.st8{fill:#FEFEFD;}
	.st9{fill:#FBB282;}
	.st10{fill:#FCB381;}
	.st11{fill:#4DD5DD;}
	.st12{fill:#27BDC9;}
	.st13{fill:#ED5A1F;}
	.st14{fill:#FEE0B1;}
	.st15{fill:#FEFAF8;}
	.st16{fill:#0F4143;}
	.st17{fill:#FEFEFE;}
	.st18{fill:#155B5F;}
	.st19{fill:#184848;}
	.st20{fill:#1E4D4C;}
	.st21{fill:#4CD5DD;}
	.st22{fill:#F8F7F7;}
	.st23{fill:#FEFDFC;}
	.st24{fill:#FEFBF9;}
	.st25{fill:#FEFCFC;}
	.st26{fill:#F2834F;}
	.st27{fill:#F26A2E;}
</style>
<g>
	<g>
		<path class="st0" d="M239.9,134.8c0,57.9-46.8,104.8-104.4,104.8S31,192.7,31,134.8S77.8,30,135.4,30c1.6,0,3.1,0,4.7,0.1
			C195.6,32.6,239.9,78.5,239.9,134.8z"/>
		<path class="st0" d="M140.1,30.1h594.7c0,0,91.6,14.6,101.2,101.5v88.8v141.2c0,0-21.8-122.8-123.7-122.8s-576.9,0.1-576.9,0.1"/>
	</g>
	<path class="st1" d="M128.8,258C61,258,6,202.8,6,134.8S61,11.7,128.8,11.7c1.8,0,3.7,0,5.5,0.1"/>
	<g>
		<ellipse id="Oval_2_" class="st2" cx="139.7" cy="130.2" rx="84.3" ry="84.6"/>
	</g>
	<g>
		<g>
			<path class="st2" d="M281.3,74.8H293c6.9,0,12.6,2.4,12.6,10.2c0,7.5-5.7,10.7-12.6,10.7h-4.4v11.7h-7.4L281.3,74.8L281.3,74.8z
				 M292.4,89.9c3.9,0,6-1.7,6-4.9c0-3.2-2.1-4.3-6-4.3h-3.8v9.2C288.6,89.9,292.4,89.9,292.4,89.9z M291.6,93.8l5.1-4.7l10.4,18.4
				h-8.2L291.6,93.8z"/>
			<path class="st2" d="M309.8,95.1c0-8.1,5.7-13,11.7-13c7.1,0,10.6,5.1,10.6,11.9c0,1.3-0.2,2.7-0.3,3.3H317
				c0.7,3.6,3.1,5.3,6.4,5.3c1.9,0,3.6-0.6,5.4-1.6l2.4,4.4c-2.5,1.8-5.9,2.8-8.8,2.8C315.3,108.1,309.8,103.3,309.8,95.1z
				 M325.8,92.3c0-2.7-1.2-4.7-4.1-4.7c-2.3,0-4.3,1.6-4.8,4.7H325.8z"/>
			<path class="st2" d="M335.6,111.8c0-2.1,1.2-3.7,3.5-5v-0.2c-1.3-0.9-2.3-2.2-2.3-4.2c0-1.8,1.2-3.5,2.8-4.7v-0.2
				c-1.7-1.2-3.3-3.5-3.3-6.4c0-6,4.9-9,10.2-9c1.4,0,2.7,0.2,3.8,0.6h9.1V88h-4c0.5,0.7,0.8,2,0.8,3.3c0,5.7-4.3,8.4-9.8,8.4
				c-0.9,0-1.9-0.2-3-0.5c-0.6,0.5-0.9,1-0.9,1.9c0,1.2,1,1.8,3.7,1.8h4c6.1,0,9.5,1.9,9.5,6.3c0,5.2-5.4,8.9-13.9,8.9
				C340.2,118.1,335.6,116.2,335.6,111.8z M352.8,110.4c0-1.6-1.3-1.9-3.8-1.9h-2.6c-1.7,0-2.7-0.1-3.5-0.3
				c-0.9,0.8-1.3,1.5-1.3,2.4c0,1.9,2.2,2.9,5.5,2.9C350.4,113.4,352.8,112.1,352.8,110.4z M349.9,91c0-2.6-1.4-4-3.4-4
				s-3.4,1.4-3.4,4c0,2.7,1.5,4.1,3.4,4.1S349.9,93.8,349.9,91z"/>
			<path class="st2" d="M363.2,75.2c0-2.3,1.8-3.8,4.2-3.8s4.2,1.6,4.2,3.8c0,2.2-1.8,3.8-4.2,3.8S363.2,77.4,363.2,75.2z
				 M363.8,82.6h7.3v24.9h-7.3V82.6z"/>
			<path class="st2" d="M375.4,104.6l3.3-4.6c2.2,1.7,4.3,2.6,6.4,2.6c2.2,0,3.1-0.8,3.1-2.1c0-1.6-2.5-2.4-5-3.4
				c-3-1.2-6.6-3.2-6.6-7.3c0-4.6,3.7-7.8,9.5-7.8c3.8,0,6.6,1.5,8.7,3.1l-3.3,4.4c-1.8-1.3-3.5-2.1-5.2-2.1c-1.9,0-2.8,0.7-2.8,2
				c0,1.6,2.3,2.2,4.9,3.1c3.1,1.2,6.7,2.9,6.7,7.5c0,4.5-3.5,8-10.2,8C381.6,108.1,377.9,106.7,375.4,104.6z"/>
			<path class="st2" d="M400.7,98.5v-10h-3.4V83l3.8-0.3L402,76h6.1v6.6h5.9v5.8h-6v10c0,2.8,1.3,3.9,3.2,3.9c0.8,0,1.7-0.2,2.4-0.5
				l1.2,5.3c-1.3,0.4-3.1,0.9-5.5,0.9C403.1,108.1,400.7,104.2,400.7,98.5z"/>
			<path class="st2" d="M418.8,82.6h6l0.5,4.3h0.2c1.8-3.3,4.5-4.9,7-4.9c1.4,0,2.2,0.2,3,0.5l-1.2,6.4c-0.9-0.2-1.6-0.4-2.7-0.4
				c-1.9,0-4.1,1.2-5.5,4.6v14.4h-7.3V82.6z"/>
			<path class="st2" d="M437.6,100.6c0-5.2,4.2-8.1,14-9.1c-0.1-2.2-1.2-3.6-3.9-3.6c-2.1,0-4.2,0.9-6.6,2.2l-2.6-4.8
				c3.1-1.9,6.7-3.3,10.6-3.3c6.3,0,9.8,3.6,9.8,11.2v14.2h-6l-0.5-2.5h-0.2c-2.1,1.8-4.4,3.1-7.2,3.1
				C440.4,108.1,437.6,104.8,437.6,100.6z M451.5,100.3V96c-5.2,0.7-6.9,2.2-6.9,4.1c0,1.6,1.1,2.4,2.8,2.4
				C449.1,102.4,450.2,101.6,451.5,100.3z"/>
			<path class="st2" d="M466,98.5v-10h-3.4V83l3.8-0.3l0.9-6.6h6.1v6.6h5.9v5.8h-5.9v10c0,2.8,1.3,3.9,3.2,3.9
				c0.8,0,1.7-0.2,2.4-0.5l1.2,5.3c-1.3,0.4-3.1,0.9-5.5,0.9C468.4,108.1,466,104.2,466,98.5z"/>
			<path class="st2" d="M483.6,75.2c0-2.3,1.8-3.8,4.2-3.8s4.2,1.6,4.2,3.8c0,2.2-1.8,3.8-4.2,3.8S483.6,77.4,483.6,75.2z
				 M484.1,82.6h7.3v24.9h-7.3V82.6z"/>
			<path class="st2" d="M496.5,95.1c0-8.3,5.8-13,12.1-13s12.1,4.8,12.1,13s-5.8,13-12.1,13S496.5,103.3,496.5,95.1z M513.1,95.1
				c0-4.3-1.5-7.1-4.5-7.1s-4.5,2.8-4.5,7.1c0,4.3,1.5,7.1,4.5,7.1C511.6,102.1,513.1,99.4,513.1,95.1z"/>
			<path class="st2" d="M525.6,82.6h6l0.5,3.1h0.2c2.1-2,4.6-3.7,8-3.7c5.4,0,7.7,3.8,7.7,10v15.4h-7.3V93c0-3.6-1-4.7-3.1-4.7
				c-1.8,0-3,0.9-4.6,2.4v16.8h-7.3V82.6H525.6z"/>
			<path class="st2" d="M564.8,74.8h20.5V81h-13.2v7.6h11.3v6.2h-11.3v12.7h-7.4V74.8H564.8z"/>
			<path class="st2" d="M588.9,95.1c0-8.3,5.8-13,12.1-13s12.1,4.8,12.1,13s-5.8,13-12.1,13S588.9,103.3,588.9,95.1z M605.5,95.1
				c0-4.3-1.5-7.1-4.5-7.1s-4.5,2.8-4.5,7.1c0,4.3,1.5,7.1,4.5,7.1C604,102.1,605.5,99.4,605.5,95.1z"/>
			<path class="st2" d="M618.1,82.6h6l0.5,4.3h0.2c1.8-3.3,4.5-4.9,7-4.9c1.4,0,2.2,0.2,3,0.5l-1.2,6.4c-0.9-0.2-1.6-0.4-2.7-0.4
				c-1.9,0-4.1,1.2-5.5,4.6v14.4h-7.3V82.6z"/>
			<path class="st2" d="M638,82.6h6l0.5,3.2h0.2c2-2.1,4.3-3.8,7.5-3.8c3.5,0,5.6,1.5,6.8,4.2c2.2-2.3,4.5-4.2,7.8-4.2
				c5.4,0,7.8,3.8,7.8,10v15.4h-7.3V93c0-3.6-1-4.7-3.1-4.7c-1.2,0-2.7,0.8-4.2,2.4v16.8h-7.3V93c0-3.6-1-4.7-3.1-4.7
				c-1.2,0-2.7,0.8-4.2,2.4v16.8H638V82.6z"/>
		</g>
	</g>
	<g>
		<g>
			<path class="st2" d="M284.2,142.4h-6v-2.1h14.4v2.1h-6V160h-2.5v-17.6H284.2z"/>
			<path class="st2" d="M295.9,138.6h2.5v5.9l-0.1,3c1.4-1.3,2.8-2.4,4.8-2.4c3.1,0,4.4,2,4.4,5.7v9.3H305v-8.9
				c0-2.7-0.8-3.9-2.7-3.9c-1.5,0-2.5,0.8-4,2.2V160h-2.5v-21.4H295.9z"/>
			<path class="st2" d="M311.8,140.8c0-1,0.7-1.6,1.7-1.6s1.7,0.6,1.7,1.6c0,0.9-0.7,1.6-1.7,1.6
				C312.5,142.4,311.8,141.7,311.8,140.8z M312.2,145.4h2.5V160h-2.5V145.4z"/>
			<path class="st2" d="M318,158.4l1.2-1.6c1.3,1,2.5,1.7,4.3,1.7c1.9,0,2.9-1,2.9-2.3c0-1.5-1.7-2.2-3.3-2.8
				c-2-0.7-4.3-1.8-4.3-4.2c0-2.3,1.9-4.1,5-4.1c1.8,0,3.4,0.7,4.5,1.6l-1.2,1.6c-1-0.7-2-1.3-3.3-1.3c-1.8,0-2.7,1-2.7,2.1
				c0,1.4,1.6,1.9,3.2,2.5c2.1,0.8,4.4,1.7,4.4,4.4c0,2.4-1.9,4.3-5.3,4.3C321.4,160.4,319.4,159.5,318,158.4z"/>
			<path class="st2" d="M336.4,145.4h2.5l2.2,8.4c0.3,1.4,0.6,2.7,0.9,4.1h0.1c0.3-1.4,0.6-2.7,1-4.1l2.2-8.4h2.4l2.3,8.4
				c0.4,1.4,0.7,2.7,1,4.1h0.1c0.3-1.4,0.6-2.7,0.9-4.1l2.1-8.4h2.3l-3.9,14.6h-3l-2.1-7.9c-0.4-1.4-0.6-2.7-1-4.2h-0.1
				c-0.3,1.5-0.6,2.9-1,4.2l-2,7.8h-2.9L336.4,145.4z"/>
			<path class="st2" d="M359.2,140.8c0-1,0.7-1.6,1.7-1.6s1.7,0.6,1.7,1.6c0,0.9-0.7,1.6-1.7,1.6C360,142.4,359.2,141.7,359.2,140.8
				z M359.7,145.4h2.5V160h-2.5V145.4z"/>
			<path class="st2" d="M367,157.1v-18.5h2.5v18.7c0,0.8,0.3,1.1,0.7,1.1c0.1,0,0.3,0,0.5-0.1l0.3,1.9c-0.4,0.1-0.8,0.2-1.4,0.2
				C367.8,160.4,367,159.2,367,157.1z"/>
			<path class="st2" d="M374.7,157.1v-18.5h2.5v18.7c0,0.8,0.3,1.1,0.7,1.1c0.1,0,0.3,0,0.5-0.1l0.3,1.9c-0.4,0.1-0.8,0.2-1.4,0.2
				C375.4,160.4,374.7,159.2,374.7,157.1z"/>
			<path class="st2" d="M387.3,152.7c0-4.7,3-7.7,6.3-7.7c1.7,0,2.8,0.6,4.1,1.7l-0.1-2.5v-5.6h2.5V160h-2l-0.2-1.7h-0.1
				c-1.1,1.1-2.7,2.1-4.4,2.1C389.6,160.4,387.3,157.6,387.3,152.7z M397.6,156.3v-7.7c-1.2-1.1-2.4-1.5-3.6-1.5
				c-2.3,0-4.2,2.3-4.2,5.6c0,3.5,1.4,5.6,4,5.6C395.2,158.3,396.3,157.6,397.6,156.3z"/>
			<path class="st2" d="M404.5,140.8c0-1,0.7-1.6,1.7-1.6s1.7,0.6,1.7,1.6c0,0.9-0.7,1.6-1.7,1.6
				C405.2,142.4,404.5,141.7,404.5,140.8z M404.9,145.4h2.5V160h-2.5V145.4z"/>
			<path class="st2" d="M410.7,158.4l1.2-1.6c1.3,1,2.5,1.7,4.3,1.7c1.9,0,2.9-1,2.9-2.3c0-1.5-1.7-2.2-3.3-2.8
				c-2-0.7-4.3-1.8-4.3-4.2c0-2.3,1.9-4.1,5-4.1c1.8,0,3.4,0.7,4.5,1.6l-1.2,1.6c-1-0.7-2-1.3-3.3-1.3c-1.8,0-2.7,1-2.7,2.1
				c0,1.4,1.6,1.9,3.2,2.5c2.1,0.8,4.4,1.7,4.4,4.4c0,2.4-1.9,4.3-5.3,4.3C414.1,160.4,412.1,159.5,410.7,158.4z"/>
			<path class="st2" d="M424.9,145.4h2l0.2,1.7h0.1c1.3-1.1,3-2,4.6-2c3.8,0,5.8,2.9,5.8,7.4c0,5-3,7.9-6.3,7.9
				c-1.3,0-2.7-0.6-4-1.7l0.1,2.6v4.9h-2.5L424.9,145.4L424.9,145.4z M435.1,152.5c0-3.2-1.1-5.4-3.8-5.4c-1.2,0-2.5,0.7-3.9,2v7.7
				c1.3,1.1,2.6,1.5,3.5,1.5C433.3,158.3,435.1,156.1,435.1,152.5z"/>
			<path class="st2" d="M441.5,157.1v-18.5h2.5v18.7c0,0.8,0.3,1.1,0.7,1.1c0.1,0,0.3,0,0.5-0.1l0.3,1.9c-0.4,0.1-0.8,0.2-1.4,0.2
				C442.3,160.4,441.5,159.2,441.5,157.1z"/>
			<path class="st2" d="M448.2,156.2c0-3.2,2.7-4.8,8.9-5.5c0-1.9-0.6-3.7-3-3.7c-1.7,0-3.2,0.8-4.3,1.6l-1-1.7
				c1.3-0.9,3.4-1.9,5.7-1.9c3.6,0,5.1,2.4,5.1,6v9h-2l-0.2-1.7h-0.1c-1.4,1.2-3,2.1-4.8,2.1C450.1,160.4,448.2,158.9,448.2,156.2z
				 M457.2,156.5v-4.1c-4.9,0.6-6.5,1.8-6.5,3.7c0,1.7,1.1,2.3,2.6,2.3C454.6,158.4,455.8,157.7,457.2,156.5z"/>
			<path class="st2" d="M462.8,166l0.5-2c0.3,0.1,0.7,0.2,1.1,0.2c1.6,0,2.7-1.3,3.3-3.1l0.3-1.1l-5.8-14.6h2.5l3,8.1
				c0.5,1.3,0.9,2.8,1.4,4.1h0.1c0.4-1.3,0.8-2.8,1.2-4.1l2.6-8.1h2.4l-5.5,15.8c-1,2.9-2.5,5.1-5.5,5.1
				C463.8,166.3,463.2,166.2,462.8,166z"/>
			<path class="st2" d="M484.7,155.5v-8.1h-2.2v-1.9l2.3-0.1l0.3-4.1h2.1v4.1h3.9v2h-3.9v8.1c0,1.8,0.6,2.8,2.3,2.8
				c0.5,0,1.2-0.2,1.7-0.4l0.5,1.9c-0.8,0.3-1.8,0.5-2.7,0.5C485.7,160.4,484.7,158.4,484.7,155.5z"/>
			<path class="st2" d="M494.3,138.6h2.5v5.9l-0.1,3c1.4-1.3,2.8-2.4,4.8-2.4c3.1,0,4.4,2,4.4,5.7v9.3h-2.5v-8.9
				c0-2.7-0.8-3.9-2.7-3.9c-1.5,0-2.5,0.8-4,2.2V160h-2.5v-21.4H494.3z"/>
			<path class="st2" d="M509.6,152.7c0-4.8,3.2-7.7,6.5-7.7c3.7,0,5.8,2.7,5.8,6.9c0,0.5,0,1-0.1,1.4H512c0.2,3.1,2.1,5.1,4.8,5.1
				c1.4,0,2.5-0.5,3.6-1.2l0.9,1.6c-1.3,0.8-2.8,1.5-4.8,1.5C512.7,160.4,509.6,157.5,509.6,152.7z M519.7,151.5
				c0-2.9-1.3-4.5-3.6-4.5c-2,0-3.9,1.6-4.2,4.5H519.7z"/>
			<path class="st2" d="M530.5,152.7c0-4.7,3-7.7,6.3-7.7c1.7,0,2.8,0.6,4.1,1.7l-0.1-2.5v-5.6h2.5V160h-2l-0.2-1.7H541
				c-1.1,1.1-2.7,2.1-4.4,2.1C532.8,160.4,530.5,157.6,530.5,152.7z M540.7,156.3v-7.7c-1.2-1.1-2.4-1.5-3.6-1.5
				c-2.3,0-4.2,2.3-4.2,5.6c0,3.5,1.4,5.6,4,5.6C538.4,158.3,539.5,157.6,540.7,156.3z"/>
			<path class="st2" d="M547,152.7c0-4.8,3.2-7.7,6.5-7.7c3.7,0,5.8,2.7,5.8,6.9c0,0.5,0,1-0.1,1.4h-9.8c0.2,3.1,2.1,5.1,4.8,5.1
				c1.4,0,2.5-0.5,3.6-1.2l0.9,1.6c-1.3,0.8-2.8,1.5-4.8,1.5C550.1,160.4,547,157.5,547,152.7z M557.2,151.5c0-2.9-1.3-4.5-3.6-4.5
				c-2,0-3.9,1.6-4.2,4.5H557.2z"/>
			<path class="st2" d="M563.4,155.5v-8.1h-2.2v-1.9l2.3-0.1l0.3-4.1h2.1v4.1h3.9v2h-3.9v8.1c0,1.8,0.6,2.8,2.3,2.8
				c0.5,0,1.2-0.2,1.7-0.4l0.5,1.9c-0.8,0.3-1.8,0.5-2.7,0.5C564.5,160.4,563.4,158.4,563.4,155.5z"/>
			<path class="st2" d="M572.2,156.2c0-3.2,2.7-4.8,8.9-5.5c0-1.9-0.6-3.7-3-3.7c-1.7,0-3.2,0.8-4.3,1.6l-1-1.7
				c1.3-0.9,3.4-1.9,5.7-1.9c3.6,0,5.1,2.4,5.1,6v9h-2l-0.2-1.7h-0.1c-1.4,1.2-3,2.1-4.8,2.1C574,160.4,572.2,158.9,572.2,156.2z
				 M581.2,156.5v-4.1c-4.9,0.6-6.5,1.8-6.5,3.7c0,1.7,1.1,2.3,2.6,2.3C578.6,158.4,579.8,157.7,581.2,156.5z"/>
			<path class="st2" d="M587.8,140.8c0-1,0.7-1.6,1.7-1.6s1.7,0.6,1.7,1.6c0,0.9-0.7,1.6-1.7,1.6
				C588.5,142.4,587.8,141.7,587.8,140.8z M588.2,145.4h2.5V160h-2.5V145.4z"/>
			<path class="st2" d="M595.6,157.1v-18.5h2.5v18.7c0,0.8,0.3,1.1,0.7,1.1c0.1,0,0.3,0,0.5-0.1l0.3,1.9c-0.4,0.1-0.8,0.2-1.4,0.2
				C596.3,160.4,595.6,159.2,595.6,157.1z"/>
			<path class="st2" d="M601.6,158.4l1.2-1.6c1.3,1,2.5,1.7,4.3,1.7c1.9,0,2.9-1,2.9-2.3c0-1.5-1.7-2.2-3.3-2.8
				c-2-0.7-4.3-1.8-4.3-4.2c0-2.3,1.9-4.1,5-4.1c1.8,0,3.4,0.7,4.5,1.6l-1.2,1.6c-1-0.7-2-1.3-3.3-1.3c-1.8,0-2.7,1-2.7,2.1
				c0,1.4,1.6,1.9,3.2,2.5c2.1,0.8,4.4,1.7,4.4,4.4c0,2.4-1.9,4.3-5.3,4.3C605,160.4,603,159.5,601.6,158.4z"/>
			<path class="st2" d="M620.7,152.7c0-4.9,3.2-7.7,6.8-7.7s6.8,2.8,6.8,7.7c0,4.8-3.2,7.6-6.8,7.6S620.7,157.6,620.7,152.7z
				 M631.6,152.7c0-3.3-1.7-5.6-4.2-5.6s-4.2,2.3-4.2,5.6s1.7,5.6,4.2,5.6C629.9,158.3,631.6,156.1,631.6,152.7z"/>
			<path class="st2" d="M636.4,145.6l2.1-0.1h5.4v2h-7.5V145.6z M638.4,143.1c0-3,1.3-4.9,4.3-4.9c0.9,0,1.8,0.2,2.4,0.5l-0.5,1.9
				c-0.6-0.3-1.1-0.4-1.7-0.4c-1.4,0-2.1,1-2.1,2.9V160h-2.5L638.4,143.1L638.4,143.1z"/>
			<path class="st2" d="M653.2,155.5v-8.1H651v-1.9l2.3-0.1l0.3-4.1h2.1v4.1h3.9v2h-3.9v8.1c0,1.8,0.6,2.8,2.3,2.8
				c0.5,0,1.2-0.2,1.7-0.4l0.5,1.9c-0.8,0.3-1.8,0.5-2.7,0.5C654.2,160.4,653.2,158.4,653.2,155.5z"/>
			<path class="st2" d="M662.9,138.6h2.5v5.9l-0.1,3c1.4-1.3,2.8-2.4,4.8-2.4c3.1,0,4.4,2,4.4,5.7v9.3H672v-8.9
				c0-2.7-0.8-3.9-2.7-3.9c-1.5,0-2.5,0.8-4,2.2V160h-2.5L662.9,138.6L662.9,138.6z"/>
			<path class="st2" d="M678.1,152.7c0-4.8,3.2-7.7,6.5-7.7c3.7,0,5.8,2.7,5.8,6.9c0,0.5,0,1-0.1,1.4h-9.8c0.2,3.1,2.1,5.1,4.8,5.1
				c1.4,0,2.5-0.5,3.6-1.2l0.9,1.6c-1.3,0.8-2.8,1.5-4.8,1.5C681.2,160.4,678.1,157.5,678.1,152.7z M688.3,151.5
				c0-2.9-1.3-4.5-3.6-4.5c-2,0-3.9,1.6-4.2,4.5H688.3z"/>
			<path class="st2" d="M279.9,181.5h2l0.2,2.7h0.1c1-1.9,2.5-3,4.1-3c0.6,0,1.1,0.1,1.6,0.3l-0.5,2.2c-0.5-0.2-0.8-0.2-1.4-0.2
				c-1.2,0-2.7,0.9-3.7,3.4v9.4h-2.5L279.9,181.5L279.9,181.5z"/>
			<path class="st2" d="M289.2,188.8c0-4.8,3.2-7.7,6.5-7.7c3.7,0,5.8,2.7,5.8,6.9c0,0.5,0,1-0.1,1.4h-9.8c0.2,3.1,2.1,5.1,4.8,5.1
				c1.4,0,2.5-0.5,3.6-1.2l0.9,1.6c-1.3,0.8-2.8,1.5-4.8,1.5C292.3,196.5,289.2,193.6,289.2,188.8z M299.4,187.6
				c0-2.9-1.3-4.5-3.6-4.5c-2,0-3.9,1.6-4.2,4.5H299.4z"/>
			<path class="st2" d="M304,198.9c0-1.3,0.8-2.4,2.1-3.3v-0.1c-0.7-0.5-1.3-1.2-1.3-2.4s0.8-2.2,1.6-2.7v-0.1
				c-1-0.8-1.9-2.2-1.9-3.9c0-3.2,2.5-5.2,5.5-5.2c0.8,0,1.5,0.2,2.1,0.4h5.1v1.9h-3c0.7,0.7,1.2,1.8,1.2,3c0,3.1-2.4,5.1-5.3,5.1
				c-0.7,0-1.5-0.2-2.2-0.5c-0.5,0.4-0.9,0.9-0.9,1.7c0,0.9,0.6,1.6,2.6,1.6h2.8c3.4,0,5.1,1.1,5.1,3.5c0,2.7-2.9,5.1-7.4,5.1
				C306.5,202.8,304,201.4,304,198.9z M315,198.1c0-1.4-1-1.8-2.9-1.8h-2.5c-0.6,0-1.2-0.1-1.9-0.2c-1,0.7-1.5,1.6-1.5,2.4
				c0,1.6,1.6,2.6,4.2,2.6C313.2,201.1,315,199.7,315,198.1z M313.1,186.3c0-2.1-1.4-3.4-3.1-3.4s-3.1,1.3-3.1,3.4
				c0,2.1,1.4,3.5,3.1,3.5S313.1,188.5,313.1,186.3z"/>
			<path class="st2" d="M319.8,176.9c0-1,0.7-1.6,1.7-1.6s1.7,0.6,1.7,1.6c0,0.9-0.7,1.6-1.7,1.6S319.8,177.8,319.8,176.9z
				 M320.2,181.5h2.5v14.6h-2.5V181.5z"/>
			<path class="st2" d="M326,194.4l1.2-1.6c1.3,1,2.5,1.7,4.3,1.7c1.9,0,2.9-1,2.9-2.3c0-1.5-1.7-2.2-3.3-2.8
				c-2-0.7-4.3-1.8-4.3-4.2c0-2.3,1.9-4.1,5-4.1c1.8,0,3.4,0.7,4.5,1.6l-1.2,1.6c-1-0.7-2-1.3-3.3-1.3c-1.8,0-2.7,1-2.7,2.1
				c0,1.4,1.6,1.9,3.2,2.5c2.1,0.8,4.4,1.7,4.4,4.4c0,2.4-1.9,4.3-5.3,4.3C329.4,196.5,327.4,195.6,326,194.4z"/>
			<path class="st2" d="M340.6,191.6v-8.1h-2.2v-1.9l2.3-0.1l0.3-4.1h2.1v4.1h3.9v2h-3.9v8.1c0,1.8,0.6,2.8,2.3,2.8
				c0.5,0,1.2-0.2,1.7-0.4l0.5,1.9c-0.8,0.3-1.8,0.5-2.7,0.5C341.6,196.5,340.6,194.5,340.6,191.6z"/>
			<path class="st2" d="M349.2,188.8c0-4.8,3.2-7.7,6.5-7.7c3.7,0,5.8,2.7,5.8,6.9c0,0.5,0,1-0.1,1.4h-9.8c0.2,3.1,2.1,5.1,4.8,5.1
				c1.4,0,2.5-0.5,3.6-1.2l0.9,1.6c-1.3,0.8-2.8,1.5-4.8,1.5C352.3,196.5,349.2,193.6,349.2,188.8z M359.4,187.6
				c0-2.9-1.3-4.5-3.6-4.5c-2,0-3.9,1.6-4.2,4.5H359.4z"/>
			<path class="st2" d="M365.1,181.5h2l0.2,2.7h0.1c1-1.9,2.5-3,4.1-3c0.6,0,1.1,0.1,1.6,0.3l-0.5,2.2c-0.5-0.2-0.8-0.2-1.4-0.2
				c-1.2,0-2.7,0.9-3.7,3.4v9.4H365L365.1,181.5L365.1,181.5z"/>
			<path class="st2" d="M374.5,188.8c0-4.8,3.2-7.7,6.5-7.7c3.7,0,5.8,2.7,5.8,6.9c0,0.5,0,1-0.1,1.4h-9.8c0.2,3.1,2.1,5.1,4.8,5.1
				c1.4,0,2.5-0.5,3.6-1.2l0.9,1.6c-1.3,0.8-2.8,1.5-4.8,1.5C377.6,196.5,374.5,193.6,374.5,188.8z M384.6,187.6
				c0-2.9-1.3-4.5-3.6-4.5c-2,0-3.9,1.6-4.2,4.5H384.6z"/>
			<path class="st2" d="M389.4,188.8c0-4.7,3-7.7,6.3-7.7c1.7,0,2.8,0.6,4.1,1.7l-0.1-2.5v-5.6h2.5v21.4h-2l-0.2-1.7h-0.1
				c-1.1,1.1-2.7,2.1-4.4,2.1C391.7,196.5,389.4,193.7,389.4,188.8z M399.6,192.4v-7.7c-1.2-1.1-2.4-1.5-3.6-1.5
				c-2.3,0-4.2,2.3-4.2,5.6c0,3.5,1.4,5.6,4,5.6C397.3,194.4,398.4,193.7,399.6,192.4z"/>
			<path class="st2" d="M411.4,194.4l1.2-1.6c1.3,1,2.5,1.7,4.3,1.7c1.9,0,2.9-1,2.9-2.3c0-1.5-1.7-2.2-3.3-2.8
				c-2-0.7-4.3-1.8-4.3-4.2c0-2.3,1.9-4.1,5-4.1c1.8,0,3.4,0.7,4.5,1.6l-1.2,1.6c-1-0.7-2-1.3-3.3-1.3c-1.8,0-2.7,1-2.7,2.1
				c0,1.4,1.6,1.9,3.2,2.5c2.1,0.8,4.4,1.7,4.4,4.4c0,2.4-1.9,4.3-5.3,4.3C414.8,196.5,412.8,195.6,411.4,194.4z"/>
			<path class="st2" d="M426,191.6v-8.1h-2.2v-1.9l2.3-0.1l0.3-4.1h2.1v4.1h3.9v2h-3.9v8.1c0,1.8,0.6,2.8,2.3,2.8
				c0.5,0,1.2-0.2,1.7-0.4l0.5,1.9c-0.8,0.3-1.8,0.5-2.7,0.5C427.1,196.5,426,194.5,426,191.6z"/>
			<path class="st2" d="M435.5,190.7v-9.3h2.5v8.9c0,2.7,0.8,3.9,2.7,3.9c1.5,0,2.5-0.7,3.9-2.5v-10.4h2.5v14.6h-2l-0.2-2.3h-0.1
				c-1.4,1.6-2.8,2.6-4.8,2.6C436.9,196.5,435.5,194.5,435.5,190.7z"/>
			<path class="st2" d="M451,188.8c0-4.7,3-7.7,6.3-7.7c1.7,0,2.8,0.6,4.1,1.7l-0.1-2.5v-5.6h2.5v21.4h-2l-0.2-1.7h-0.1
				c-1.1,1.1-2.7,2.1-4.4,2.1C453.3,196.5,451,193.7,451,188.8z M461.3,192.4v-7.7c-1.2-1.1-2.4-1.5-3.6-1.5c-2.3,0-4.2,2.3-4.2,5.6
				c0,3.5,1.4,5.6,4,5.6C458.9,194.4,460,193.7,461.3,192.4z"/>
			<path class="st2" d="M467.6,188.8c0-4.8,3.2-7.7,6.5-7.7c3.7,0,5.8,2.7,5.8,6.9c0,0.5,0,1-0.1,1.4H470c0.2,3.1,2.1,5.1,4.8,5.1
				c1.4,0,2.5-0.5,3.6-1.2l0.9,1.6c-1.3,0.8-2.8,1.5-4.8,1.5C470.6,196.5,467.6,193.6,467.6,188.8z M477.7,187.6
				c0-2.9-1.3-4.5-3.6-4.5c-2,0-3.9,1.6-4.2,4.5H477.7z"/>
			<path class="st2" d="M483.5,181.5h2l0.2,2.1h0.1c1.4-1.4,2.9-2.5,4.9-2.5c3.1,0,4.4,2,4.4,5.7v9.3h-2.5v-8.9
				c0-2.7-0.8-3.9-2.7-3.9c-1.5,0-2.5,0.8-4,2.2v10.6h-2.5v-14.6H483.5z"/>
			<path class="st2" d="M500.3,191.6v-8.1h-2.2v-1.9l2.3-0.1l0.3-4.1h2.1v4.1h3.9v2h-3.9v8.1c0,1.8,0.6,2.8,2.3,2.8
				c0.5,0,1.2-0.2,1.7-0.4l0.5,1.9c-0.8,0.3-1.8,0.5-2.7,0.5C501.4,196.5,500.3,194.5,500.3,191.6z"/>
			<path class="st2" d="M509.5,194.6c0-1.1,0.8-1.9,1.8-1.9s1.8,0.8,1.8,1.9c0,1.1-0.8,1.9-1.8,1.9S509.5,195.7,509.5,194.6z"/>
		</g>
	</g>
</g>
<g>
	<path class="st3" d="M146.8,211c-0.6,0.1-1.1,0.5-1.7,0.3c-0.9-0.2-1.9,0-2.8-0.1c-0.7,0-0.9-0.5-1.1-1c-2-4.5-4-9-6.1-13.4
		c-0.2-0.3-0.3-0.7-0.1-1.1c0.9-0.6,2.2-0.6,2.3-2.2c0.1-2.2-0.5-4.2-2.3-5.6c-1-0.8-2-1.3-3.2-0.3c-1-1.2-0.6-2.3,1-2.9
		c2.7-1,5.2-0.6,7.6,0.9c1.6,1,2.6,2.5,3.2,4.2c1.1,3,2.5,5.8,4.3,8.4c0.7,1,1.5,1.9,2.4,2.6c0.7,0.5,1.5,0.8,2.3,0.4
		c0.9-0.4,0.7-1.3,0.7-2c0-2.2-1-4.2-1.7-6.2c-2.1-5.9-4.3-11.7-6.6-17.5c-1.4-4.3-3.1-8.5-4.7-12.7c-1.8-5-3.7-10-5.6-14.9
		c-0.7-1.9-1.4-3.9-1.4-6c0.2-2,1.3-3.3,3-4.1c0.4-0.2,0.9-0.3,1.3-0.7c0.6-0.8,0.3-1.8,0.4-2.7c0-0.7-0.1-1.4,0.3-2
		c0.9-0.1,0.8,0.6,0.8,1.1c0.1,0.8,0,1.6,0.1,2.4c0,0.4-0.1,0.9,0.5,1c0.5,0,1,0.1,1.4,0.4c1.8,1.1,2.8,2.8,3.8,4.6
		c2.9,6.8,5.6,13.7,8.3,20.6c1.4,3.5,2.8,6.9,4.2,10.4c-1.3-3.4-2.6-6.8-4-10.1c-0.1-0.4-0.3-0.7-0.4-1.1c-1-2.8-0.2-4.8,2.4-6.3
		c1.3-0.7,2.6-1.1,4-1.2c2-0.1,3.3,1.1,4.3,2.7c1,1.7,1.6,3.7,2.5,5.5c0.7,1.7,1.4,3.4,2.1,5.1c0.2,0.4,0.3,0.8,0.7,1.1
		c0.1,0.1,0.3-0.2,0.1-0.1c-0.1,0.1-0.1,0.1-0.2,0c-1.1-1.8-1.7-3.8-2.5-5.8c-0.3-1-0.8-1.9-1.2-2.8c-0.6-1.4-0.2-2.5,0.7-3.6
		c1.3-1.4,3-2.1,4.8-2.6c3.1-0.5,4.3,0.2,5.7,2.9c0.6,1.3,1.1,2.6,1.7,3.8c0.6,1.3,1.1,2.6,1.7,3.9c0.1,0.4,0.3,0.8,0.5,1.2
		c0,0.1,0.1,0.1,0.1,0.1c0.1,0.1,0.1,0.1,0-0.1c-0.9-2.2-1.8-4.4-2.7-6.5c-0.1-0.2-0.1-0.5,0-0.7c0.9-2.6,3-3.6,5.5-3.9
		c2.1-0.2,3.7,1.2,4.8,3.7c1,2.3,1.8,4.8,2.9,7.1c2.3,5.9,4.7,11.8,7.1,17.7c0.3,0.8,0.6,1.5,0.8,2.3c-6.7,7.6-14.7,13.4-23.7,17.9
		c-7.9,3.9-16.2,6.5-25,7.5c-0.5,0.1-1.1,0.2-1.6,0.3C147.9,210.9,147.3,210.8,146.8,211z"/>
	<path class="st4" d="M198.7,185.3c-0.5-0.1-0.6-0.6-0.8-1c-2.4-6.1-4.9-12.2-7.3-18.3c-0.1-0.2-0.1-0.4-0.1-0.6
		c-0.4-1.4-0.5-2.8-0.5-4.2c0-29.8,0-59.7,0-89.5c0-1.1-0.3-2.2,0.6-3.1c7,5.5,12.7,12.2,17.3,19.7c8.9,14.4,12.9,30.1,11.9,46.9
		C218.7,154.4,211.5,171.1,198.7,185.3z"/>
	<path class="st5" d="M190.6,68.6c0,0.7-0.1,1.4-0.1,2.1c0,30.8,0,61.6,0,92.4c0,0.8,0,1.5,0,2.3c-1.2-2.1-1.8-4.4-2.8-6.6
		c-0.8-2-1.8-3.9-4.2-3.9c-2.6,0-4.5,1.2-5.6,3.6c-0.8-0.9-0.6-2-0.6-3c0-15.8,0-31.6,0-47.3c0-13.8,0-27.6,0-41.5
		c0-0.5,0-1.1,0-1.6c0.1-1.2-0.4-1.8-1.7-1.8c-0.6,0-1.2,0-1.8,0c-23.3,0-46.7,0-70,0c-1.1,0-2.2,0-3.3,0c-0.3,0-0.6,0-0.8,0
		c-0.7,0-1.2-0.4-1.6-1c-2.7-3.6-5.6-7-8.3-10.6c-0.1-0.1-0.1-0.3-0.2-0.5c1.3-1.1,2.8-1.3,4.4-1.3c28.4,0,56.9,0,85.3,0
		c1.5,0,2.9,0,4.4,0c4.2,0,6.8,2.7,6.9,6.9C190.5,60.9,190.6,64.8,190.6,68.6z"/>
	<path class="st3" d="M77.9,182.6c-1.5-0.5-2.1-2-2.9-3.1c-2.4-3-4.5-6.2-6.2-9.6c0.1-4.2,0.6-8.4,1-12.6c0.5-4.6,1.2-9.3,1.1-13.9
		c-0.2-7,1.7-13.4,4.4-19.7c2.9-6.8,6.5-13.4,10.1-19.9c0.3-0.5,0.5-1.4,1.5-1c0.5,0.9,0.3,1.8,0.3,2.7c0,16.1,0,32.2,0,48.3
		c0,0.6-0.1,1.2,0.2,1.9c1.9-1.1,3.4-2.3,3.9-4.6c1.3-5.2,2.6-10.3,4.2-15.4c0.7-2.2,1.3-4.4,4-5.1c3.6-0.3,5.4,1.3,5.7,4.8
		c0.1,2.1-0.2,4.2-0.4,6.3c-0.4,6.7-1,13.4-1.3,20.1c0,0.3-0.1,0.6-0.2,1c-0.1,2.2-0.4,4.4-0.4,6.6c0,1.3-0.6,2.3-1.2,3.3
		c-0.5,0.9-1,1.8-1.5,2.7c-1.3,2-2.5,4.1-3.7,6.1c-0.9,1.4-1.5,3-2.6,4.3C88.5,184.9,83.1,184.1,77.9,182.6z"/>
	<path class="st6" d="M86.7,102.6c-1.4,1.9-2.4,4.1-3.6,6.2c-4,7.3-7.7,14.7-10.3,22.6c-0.9,2.9-1.4,5.9-1.5,8.9
		c-0.1,6.9-0.8,13.7-1.5,20.6c-0.3,2.7-0.5,5.5-0.7,8.3c0,0.3,0,0.7-0.4,0.8c-7.4-13.4-10.8-27.7-10-42.9
		c1.2-22.9,10.6-42,27.7-57.2c0.1-0.1,0.2-0.1,0.3-0.2c0.6,0.6,0.5,1.4,0.5,2.1c0,9.5,0,19.1,0,28.6C87.2,101.2,87.3,102,86.7,102.6
		z"/>
	<path class="st4" d="M96.2,181.3c1.1-2,2.1-4.1,3.6-5.9c0.7-0.5,1.4-0.5,2.2-0.5c13.7,0,27.4,0,41.1,0c0.8,0,1.5,0,2.2,0.5
		c1.8,3.8,3,7.8,4.5,11.7c1.3,3.3,2.4,6.7,3.6,10.1c0.3,0.8,0.3,1.7,0.3,2.6c0,2.1-1.5,2.9-3.3,1.8c-1.1-0.7-1.9-1.6-2.6-2.6
		c-1.9-2.8-3.5-5.7-4.6-8.9c-1.5-4.2-5.6-6.2-9.8-5c-1.7,0.5-2,1.1-1.5,2.7c0.8,0.4,0.9,1.2,1.1,1.9c0.6,1.5,1.3,3,1.9,4.5
		c0.2,0.5,0.6,1,0.3,1.7c2.4,5.1,4.5,10.4,7.1,15.4c0.1,0.1,0.2,0.1,0.1,0.2c0,0-0.1,0.1-0.1,0.1c-7.4,0.3-14.7-0.4-21.9-2.2
		c-0.3-0.1-0.6-0.2-0.9-0.3c-2.6-2.3-4.7-5.1-7-7.7c-3.5-3.9-6.9-7.9-10.4-11.9c-1.7-2-3.4-3.9-5.1-5.9
		C96.4,182.8,95.8,182.2,96.2,181.3z"/>
	<path class="st7" d="M86.7,102.6c0-9.6,0.1-19.1,0.1-28.7c0-1.4-0.1-2.8-0.1-4.2c0-4.2,0-8.3,0.1-12.5c0-2.3,0.6-4.5,2.8-5.8
		c2,1.7,3.2,4,4.9,5.9c1.7,1.9,3,4.2,4.9,5.9c0.6,0.6,0.5,1.4,0.5,2.1c0,21.1,0,42.3,0,63.4c0,0.7,0,1.4-0.5,2
		c-1.7,0.5-2.5,1.8-3,3.3c-1.7,5-3,10.2-4.2,15.4c-0.7,3.3-2.3,5.6-5.4,7.1c-0.3-0.5-0.1-1.1-0.1-1.6c0-16.8,0-33.6,0-50.4
		C86.8,103.9,86.7,103.2,86.7,102.6z"/>
	<path class="st6" d="M96.2,181.3c0.4,1.8,2,2.8,3,4.1c4.2,4.9,8.5,9.6,12.7,14.4c2.4,2.7,4.7,5.4,7,8c0.2,0.3,0.4,0.5,0.4,0.9
		c-4.3-0.8-8.4-2.5-12.4-4.2c-3.2-1.4-6.4-3-9.4-4.9c-0.1-2.4,0.7-4.7,1.1-7c0.5-2.7,0.5-2.7-1.8-3.8c0.3-2.1-0.9-3-2.6-3.5
		c-0.6-0.7,0.1-1.2,0.4-1.7C95.1,183,95.6,182.2,96.2,181.3z"/>
	<path class="st5" d="M96.9,188.8c2.8,0.8,2.8,0.8,2.2,3.7c-0.5,2.4-0.8,4.9-1.5,7.2c-5.5-3.2-10.4-7.1-14.9-11.5
		c-0.7-0.7-1.4-1.3-2.1-2c0.4-1.2,1.3-0.6,2-0.5c3.9,0.7,7.8,1.4,11.6,2.2C95.1,188.2,96.2,188.1,96.9,188.8z"/>
	<path class="st8" d="M96.9,188.8c-4.4-0.8-8.8-1.7-13.2-2.4c-1-0.2-2-1-3.1-0.2c-0.9-1.2-2.4-1.9-2.7-3.6c2.4-0.1,4.7,0.7,7.1,1.1
		c3.1,0.5,6.2,1.2,9.3,1.8c0.2,0,0.3,0,0.5,0.1C97.5,186.1,97.5,186.1,96.9,188.8z"/>
	<path class="st9" d="M142.2,211.3c0-0.1,0-0.2,0-0.3c1,0.1,2-0.3,2.9,0.3C144.1,211.3,143.2,211.3,142.2,211.3z"/>
	<path class="st10" d="M146.8,211c0.5-0.4,1-0.4,1.6,0C147.9,211,147.3,211,146.8,211z"/>
	<path class="st11" d="M99.8,62.9c0.6,0,1.2-0.1,1.8-0.1c24.7,0,49.5,0,74.2,0c1.7,0,2,0.5,2,2.1c0,30.5,0,61,0,91.5
		c0,0.7,0,1.4,0.1,2.1c0,0.2,0,0.4,0,0.6c0.1,0.6,0.5,1.1-0.1,1.6c-0.5-1.2-1.1-2.3-1.6-3.5c-1.3-2.8-2.4-3.5-5.5-3.1
		c-2.5-3.3-5.2-6.5-7.7-9.8c-1.7-2.2-1.7-2.3,1-2.9c1-0.1,2-0.1,2.9-0.1c1,0,1.5-0.4,1.5-1.5c0-3.2,0-6.3,0-9.5
		c0-1.3-0.9-1.4-1.9-1.4c-4.2,0-8.5,0-12.7,0c-0.8,0-1.6,0-2.4-0.1c-0.2,0-0.4-0.1-0.5-0.2c-2.5-2.3-4.5-5.1-6.5-7.9
		c-1.7-2.4-3.6-3.4-6.6-3.3c-5.8,0.3-11.6,0.1-17.4,0.1c-0.6,0-1.3,0.1-1.9-0.2c-0.4-0.2-0.7-0.4-0.1-0.8c0.5-0.2,0.9-0.3,1.4-0.3
		c7.2,0,14.5-0.1,21.7,0c4.3-0.1,8.6,0,12.9,0c4.7,0,4.7,0,4.7-4.8c0-1.1,0.3-2.3-0.4-3.3c-0.6-0.5-1.3-0.4-2-0.4
		c-6.6,0-13.1,0-19.7,0c-0.8,0-1.5,0.1-2.3-0.1c-1.7-0.8-2.6-2.4-3.6-3.9c-1-1.4-2.1-2-3.8-1.9c-2.5,0.1-5.1,0.1-7.6,0
		c-0.5,0-1.6,0.3-1.3-1c1.4-0.5,2.8-0.3,4.2-0.3c2.3,0,4.7,0,7,0c9,0,17.9,0,26.9,0c2.6,0,2.7,0,2.6-2.6c-0.1-1.8,0.4-3.7-0.4-5.4
		c-0.6-0.6-1.4-0.4-2.2-0.4c-10.4,0-20.9,0-31.3,0c-0.8,0-1.6,0-2.4,0c-0.8-0.1-1.2-0.6-1.7-1.2c-6.8-8.6-13.5-17.3-20.3-25.9
		C100.2,64.3,99.6,63.8,99.8,62.9z"/>
	<path class="st12" d="M99.8,62.9c2,3.1,4.4,5.8,6.7,8.7c5.1,6.7,10.3,13.3,15.5,19.9c-0.5,0.5-1.2,0.4-1.8,0.5
		c-1.7,0.1-1.9,0.3-1.9,2.1c0,1.8,0,3.6,0,5.3c0,0.5,0.1,1.1-0.2,1.6c0.5,0.5,1.1,0.3,1.7,0.3c2.9,0,5.8,0,8.7,0
		c0.9,0,1.6,0.3,2.1,1c1.3,1.7,2.6,3.3,3.8,5c-0.4,1-1.3,0.8-2.1,0.8c-3.9,0-7.8,0-11.7,0c-2.3,0-2.3,0.1-2.4,2.4
		c-0.1,2.1,0.2,4.2-0.2,6.3c0.5,0.5,1.1,0.3,1.7,0.3c6.6,0,13.1,0.1,19.7-0.1c2.1-0.1,3.3,0.8,4.5,2.4c2.3,3.1,4.6,6.1,7.1,9
		c-0.7,0.9-1.7,0.6-2.6,0.6c-11.6,0-23.2,0-34.9,0c-4.6,0-4.1-0.4-4.2,4.2c0,2,0,4,0,6c0,1.9,0.1,2,2,2c6.5,0,12.9,0,19.4,0
		c0.9,0,1.9-0.2,2.6,0.6c1.4,7.2,4.8,13.7,7.1,20.7c-0.6,0.7-1.4,0.6-2.1,0.6c-11.1,0-22.3,0-33.4,0c-0.7,0-1.5,0.1-2.1-0.6
		c0.6-8.4,1.1-16.8,1.7-25.2c0-0.4,0-0.8,0-1.1c0.1-4.2-0.9-5.3-5.1-5.6c0-21.8,0-43.6,0-65.5c0-0.7,0-1.4-0.1-2.1
		C99.6,63.1,99.7,63,99.8,62.9z"/>
	<path class="st7" d="M102.9,162.7c12.5,0,25.1,0,37.6,0c1.6,4.2,3.4,8.4,4.7,12.8c-15.2,0-30.3,0-45.5,0c0-0.2,0-0.4,0.1-0.5
		c2.7-3.3,2.8-7.3,2.9-11.3C102.8,163.3,102.8,163,102.9,162.7z"/>
	<path class="st13" d="M133.5,142c-7.6,0-15.1,0-22.7,0c-1.5,0-2-0.3-2-1.9c0.1-3.3,0.1-6.5,0-9.8c-0.1-1.6,0.5-1.9,2-1.9
		c12.9,0,25.9,0,38.8,0c0.5,0,1,0,1.5-0.1c0,0,0,0.1,0,0.1c1.5,1,2.7,2.2,3.1,4c-0.1,1.4-0.2,2.8,0,4.2c0.6-0.3,0.4-1.2,1.2-1.2
		c0.6,0,0.9,0.6,1.2,1c0.3,0.5,0.8,0.6,1.4,0.6c1.6,0.9,2.4,2.6,3.4,4c0.3,0.5,0.3,0.9-0.4,1.1c-5.1,0.3-10.3,0.1-15.4,0.1
		c-0.4,0-0.7-0.2-1.1-0.4c-1.1-1.5-2-3.2-3.6-4.3c0.2-0.2,0.4-0.3,0.7-0.4c1.5-0.7,1.5-1.5,0.2-2.4c-0.4-0.3-1-0.4-0.8-1
		c0.1-0.6,0.7-0.5,1.2-0.7c-1.2-0.2-1.8,0-1.9,0.7c-0.2,0.8,0.4,1.1,1,1.4c0.4,0.2,0.9,0.3,0.8,0.9c-0.1,0.6-0.6,0.7-1.1,0.8
		c-0.5,0-1,0.1-1.3,0.5c-1.1,0.6-0.9-0.2-1-0.8c-0.1-1.3,0.4-2.7-0.3-4c-1.2,0.8-0.8,2-0.8,3.1c0,0.7,0.1,1.4,0.2,2.1
		C135.6,138.5,133.9,139.6,133.5,142z"/>
	<path class="st12" d="M144.5,142c5.7,0,11.3-0.1,17-0.1c0.7-0.5,1.4-0.7,1.9,0.2c-0.5,0.1-0.9,0.2-1.6,0.3
		c2.9,3.7,5.6,7.2,8.4,10.8c0.3,0.3,0.7,0.6,0.3,1.1c-1.3,0.4-2.7,0.8-3.8,1.7c-1.7,1.3-2,2.4-1.2,4.5c0.3,0.7,0.6,1.5,0.9,2.2
		c-0.2,0.4-0.5,0.3-0.8,0.1c-0.6-1.3-1.1-2.7-1.8-4c-1.9-4.1-3.8-4.8-7.9-3.1c-3,1.2-3.9,3.1-2.8,6.2c0.1,0.3,0.2,0.6,0.3,0.9
		c-0.3,0.4-0.5,0.3-0.8,0C150,155.8,147.2,148.9,144.5,142z"/>
	<path class="st14" d="M135.7,142.8c0-2.4,0.5-3.1,2.5-3.7c1.7-0.5,2.6-0.1,3.8,1.6c0.8,1.2,1.4,2.6,2,3.9c0.6,1.2,0.1,1.9-0.7,2.5
		c-1.1,0.7-2.3,1.3-3.6,1.6c-2,0.4-2.4,0.1-3.1-1.9C136.2,145.4,135.5,144.2,135.7,142.8z"/>
	<path class="st14" d="M135.1,195.7c-1.2-2.7-2.5-5.3-3.4-8.1c0-1.2,0.8-1.1,1.5-1c2.9,0.5,5.4,5.2,4.3,7.9
		C137.1,195.5,136.2,195.9,135.1,195.7z"/>
	<path class="st15" d="M139.6,137.3c-0.2-0.8,0-1.2,0.9-0.9c0.5,0.1,1,0.3,1.3-0.3c-0.3-0.6-1-0.5-1.5-0.8c-0.6-0.3-0.9-0.8-0.8-1.5
		c0.1-0.8,0.7-1.2,1.4-1.4c0.7-0.1,1.4-0.2,2,0.3c0.2,0.2,0,0.4,0,0.6c-0.1,0.3-0.3,0.4-0.6,0.3c-0.5-0.1-0.9-0.3-1.4,0.2
		c0.8,0.8,2.7,0.6,2.3,2.4c-0.3,1.3-1.4,1.2-2.3,1.3C140.5,137.4,140.1,137.2,139.6,137.3z"/>
	<path class="st16" d="M152.8,162.7c0.3,0,0.6,0,0.8,0c1.6,3.8,3.2,7.5,4.1,11.5C155.6,170.5,154.3,166.6,152.8,162.7z"/>
	<path class="st17" d="M137.6,137.7c-0.6,0-0.6-0.4-0.6-0.9c0-1.1,0.1-2.2,0-3.2c-0.1-1.1,0.4-1.3,1.3-1.1c0,1.3,0,2.7,0,4
		C138.3,137,138.4,137.6,137.6,137.7z"/>
	<path class="st18" d="M177.7,160.8c0-0.5,0.1-1.1,0.1-1.6c1.3,2.2,2.1,4.5,2.9,6.9c-1,0.1-0.8-0.9-1.3-1.3
		C178.9,163.4,178.3,162.1,177.7,160.8z"/>
	<path class="st19" d="M165.8,162.7c0.3,0,0.5,0,0.8-0.1c0.9,2.1,1.8,4.3,2.6,6.4c-0.2,0.1-0.4,0.1-0.5,0.2
		C167.5,167.2,166.7,164.9,165.8,162.7z"/>
	<path class="st20" d="M179.5,164.7c0.4,0.4,0.9,0.9,1.3,1.3c0,0.2,0.2,0.4,0.1,0.6c-0.1,0.2-0.4,0.1-0.5-0.1
		C179.9,166,179.6,165.4,179.5,164.7z"/>
	<path class="st21" d="M139.1,59c-1.5-0.1-2.8-1.4-2.8-2.9c0-1.6,1.4-2.8,3-2.8c1.5,0.1,2.8,1.4,2.8,2.9
		C142.1,57.8,140.8,59,139.1,59z"/>
	<path class="st14" d="M100.4,140.6c-0.6-0.1-1.3-0.1-1.9-0.2c-1.4-0.3-2.2-1-1.7-2.6c0.4-1.4,0.5-2.9,1.2-4.2
		c0.7-1.3,1.7-2.2,3.3-1.8c1.4,0.3,2,1.3,2.1,2.7c0.2,1.5-0.1,2.9-0.1,4.4C103.2,140.7,101.9,140.7,100.4,140.6z"/>
	<path class="st17" d="M138.6,85.6c-6.3,0-12.6,0-18.9,0c-1.4,0-2.1-0.3-2-1.9c0.1-2,0.1-3.9,0-5.9c-0.1-1.4,0.4-1.7,1.8-1.7
		c9.5,0,19,0,28.6,0c3.3,0,6.6,0,10,0c1.2,0,1.6,0.4,1.6,1.6c-0.1,2.1-0.1,4.1,0,6.2c0.1,1.3-0.4,1.7-1.7,1.7
		C151.5,85.6,145,85.6,138.6,85.6z"/>
	<path class="st17" d="M159.2,91.9c0.7,1.4,0.3,3,0.3,4.4c0,1.5,0.7,3.4-0.3,4.4c-1,1-3,0.3-4.5,0.3c-8.4,0-16.8,0-25.2-0.1
		c-0.5-0.3-1-0.6-1.4-1.1c-1.7-2.2-3.4-4.3-5.1-6.6c-0.3-0.4-0.6-0.8-0.4-1.3c0.2-0.5,0.8-0.3,1.2-0.3c11.6,0,23.1,0,34.7,0
		C158.7,91.7,159,91.7,159.2,91.9z"/>
	<path class="st22" d="M118,116.8c-0.7-2-0.1-4-0.3-5.9c0-0.6,0-1.2,0-1.8c-0.1-1.2,0.3-1.6,1.6-1.6c4.4,0.1,8.9,0,13.3,0
		c0.6,0,1.2,0.2,1.8-0.2c7.7,0,15.4,0,23.1,0.1c0.6,0,1.2-0.2,1.7,0.2c-0.7,0.6-1.5,0.5-2.3,0.5c-6.3,0-12.6,0-18.9,0
		c-0.6,0-1.2-0.1-1.8,0.1c-0.1,0.7,0.4,1.1,0.8,1.5c1.4,1.8,2.8,3.5,4.1,5.3c0.4,0.5,1,0.9,0.6,1.7
		C133.7,116.7,125.9,116.7,118,116.8z"/>
	<path class="st17" d="M141.6,116.7c-1.2-2.1-2.8-3.8-4.2-5.7c-0.8-1.1-1.6-2.1-2.6-3.4c8.3,0,16.4,0,24.5,0c0.4,0.2,0.4,0.6,0.4,1
		c0,2.3,0,4.7,0,7c0,0.8-0.2,1.2-1.1,1.2C152.8,116.7,147.2,116.7,141.6,116.7z"/>
	<path class="st6" d="M163.4,142c-0.6-0.1-1.3-0.1-1.9-0.2c-1.2-1.5-2.4-3.1-3.6-4.6c-0.9-0.5-1.1-1.4-1.1-2.3
		c0.1-1.9,0.1-1.9-1.7-2.2c-0.4-0.1-0.9,0-1.2-0.4c-0.7-1.5-2-2.6-2.9-3.9c5.5,0,11.1,0,16.6-0.1c1.1,0,1.4,0.5,1.4,1.5
		c0,3.5,0,7.1,0,10.6c0,1.2-0.4,1.5-1.5,1.5C166.1,141.9,164.8,142,163.4,142z"/>
	<path class="st22" d="M159.2,91.9c-11.5,0-23,0-34.5,0c-0.6,0-1.5-0.3-1.8,0.3c-0.3,0.6,0.6,0.9,0.9,1.4c1.9,2.5,3.8,5,5.7,7.5
		c-3.8,0-7.6,0-11.4,0c-0.7-1.9-0.2-3.8-0.3-5.8c-0.1-3.6,0-3.6,3.6-3.6c0.2,0,0.4,0,0.6-0.1c11.8,0,23.6,0,35.4,0
		C158,91.6,158.6,91.4,159.2,91.9z"/>
	<path class="st23" d="M121.6,135c0-0.2,0-0.3,0-0.5c0.2-0.7-0.5-1.7,0.4-2c1-0.3,2.2-0.3,3.2,0.2c0.6,0.3,1,1,0.5,1.5
		c-0.7,0.8-0.3,1.4,0,2.2c0.1,0.4,0.7,0.9-0.2,1.1c-0.6,0.1-1.1-0.1-1.2-0.7c-0.1-0.3-0.1-0.5-0.3-0.8c-0.1-0.2-0.3-0.5-0.6-0.4
		c-0.3,0.1-0.3,0.4-0.3,0.6c0,0.6,0.2,1.4-0.9,1.3c-1-0.2-0.4-0.9-0.5-1.4C121.6,135.8,121.6,135.4,121.6,135z"/>
	<path class="st24" d="M133.7,137.6c-1,0-2.1-0.3-2.6-1.6c-0.4-1-0.1-2,0.6-2.7c1-1,2.2-1,3.5-0.8c0.4,0.1,0.6,0.4,0.5,0.8
		c-0.1,0.5-0.4,0.4-0.7,0.3c-0.5-0.2-1.1-0.2-1.6,0.1c-0.8,0.3-1.1,0.9-0.9,1.7c0.2,0.8,0.9,1.1,1.7,1.1c0.6,0,0.8-0.4,0.3-0.8
		c-0.4-0.3-0.6-0.6-0.3-0.9c0.3-0.4,0.8-0.2,1.2-0.2c0.4,0,0.7,0.1,0.8,0.6C136.5,137,136,137.6,133.7,137.6z"/>
	<path class="st23" d="M154,132.4c0.6,0,1.3,0,1.9,0c1.6,0.2,2,0.9,1.4,2.4c-0.4,1,0.5,1.6,0.6,2.5c-0.9,0.6-1.5,0.5-1.8-0.7
		c-0.1-0.4-0.3-0.9-0.8-0.9c-0.7,0.1-0.3,0.7-0.4,1c0,0.4,0,0.8-0.7,0.9c-0.7,0-0.9-0.4-0.8-0.9C153.7,135.3,153,133.7,154,132.4z"
		/>
	<path class="st23" d="M126.5,134.9c0-0.1,0-0.2,0-0.3c0-2.1,1.2-2.9,3.2-2.2c0.3,0.1,0.4,0.2,0.4,0.5c0,0.3-0.2,0.5-0.5,0.5
		c-0.3,0-0.5,0-0.8,0c-0.4,0-0.8,0-0.9,0.5c0,0.5,0.4,0.5,0.8,0.6c0.5,0.1,1.2-0.3,1.2,0.6c0,0.8-0.7,0.4-1.1,0.5
		c-0.3,0.1-0.9-0.2-0.8,0.4c0,0.5,0.5,0.4,0.9,0.4c0.5,0.1,1.3-0.3,1.2,0.6c0,0.9-0.8,0.4-1.3,0.5c-0.1,0-0.2,0-0.3,0
		c-1.7,0.3-2.4-0.4-2.1-2.1C126.6,135.3,126.5,135.1,126.5,134.9z"/>
	<path class="st17" d="M150.6,137.6c-1.4,0.4-1.9-0.3-1.6-1.8c0-0.3,0-0.6,0-1c0-2.7,0.1-2.8,2.8-2.5c0.4,0,0.8-0.1,0.8,0.5
		c0,0.5-0.4,0.6-0.8,0.6c-0.2,0-0.4,0-0.7,0c-0.4,0-0.8,0-0.7,0.6c0,0.4,0.4,0.4,0.7,0.5c0.5,0.1,1.3-0.3,1.3,0.6
		c0,0.9-0.8,0.4-1.2,0.5c-0.3,0.1-0.7-0.1-0.7,0.4c0,0.4,0.4,0.4,0.7,0.4c0.2,0,0.4,0,0.6,0c0.4,0,0.8-0.1,0.8,0.5
		c0.1,0.7-0.5,0.6-0.9,0.6C151.5,137.6,151.1,137.6,150.6,137.6z"/>
	<path class="st25" d="M146.1,132.4c0.4,0,0.8,0,1.1,0c0.3,0,0.8-0.2,0.9,0.4c0.1,0.5-0.2,0.7-0.7,0.7c-0.7,0-0.7,0.5-0.7,1
		c0,0.8,0,1.6,0,2.4c0,0.4-0.1,0.7-0.6,0.7c-0.5,0-0.8-0.1-0.8-0.7c0-0.6,0-1.2,0-1.8c0-0.8,0.2-1.7-1.1-1.7c-0.3,0-0.4-0.3-0.4-0.6
		c0-0.5,0.3-0.5,0.7-0.5C145.1,132.4,145.6,132.4,146.1,132.4z"/>
	<path class="st26" d="M124.4,134c-0.1,0.4-0.3,0.6-0.8,0.7c-0.4,0-0.6-0.1-0.7-0.5c0-0.4,0.1-0.8,0.6-0.8
		C124,133.4,124.3,133.6,124.4,134z"/>
	<path class="st27" d="M156.2,134c-0.1,0.5-0.4,0.7-0.8,0.7c-0.4,0-0.5-0.2-0.5-0.6c0-0.3,0-0.6,0.5-0.7
		C155.8,133.4,156.1,133.6,156.2,134z"/>
</g>
</svg>
