<?xml version="1.0" encoding="utf-8"?>
<!-- Generator: Adobe Illustrator 25.2.1, SVG Export Plug-In . SVG Version: 6.00 Build 0)  -->
<svg version="1.1" id="Layer_1" xmlns="http://www.w3.org/2000/svg" xmlns:xlink="http://www.w3.org/1999/xlink" x="0px" y="0px"
	 viewBox="0 0 840 350" style="enable-background:new 0 0 840 350;" xml:space="preserve">
<style type="text/css">
	.st0{fill:#F49924;}
	.st1{fill:none;stroke:#00ADA6;stroke-width:4;stroke-miterlimit:10;}
	.st2{fill:#FFFFFF;}
	.st3{opacity:0.12;fill:#1C478D;}
	.st4{fill:none;stroke:#A9BCE6;stroke-width:3;stroke-miterlimit:10;}
	.st5{fill:none;stroke:#A9BCE6;stroke-width:3;stroke-linecap:round;stroke-linejoin:round;stroke-miterlimit:10;}
	.st6{filter:url(#Adobe_OpacityMaskFilter);}
	.st7{opacity:0.31;clip-path:url(#SVGID_4_);fill:url(#SVGID_5_);}
	.st8{opacity:0.22;mask:url(#SVGID_1_);}
	.st9{opacity:0.22;}
	.st10{opacity:0.12;clip-path:url(#SVGID_7_);fill:#C09CDF;}
	.st11{fill:#A9BCE6;}
	.st12{fill:#1C478D;}
	.st13{fill:#A077F4;}
	.st14{fill:#C2EBF9;}
	.st15{fill:#D8F8E6;}
	.st16{fill:#6E4990;}
	.st17{fill:#35CB60;}
	.st18{opacity:0.4;fill:#6B8AFF;}
	.st19{fill:#AF66F5;}
	.st20{fill:#FFA900;}
	.st21{clip-path:url(#SVGID_9_);}
	.st22{fill:#14966A;}
	.st23{fill:#F8AE8E;}
	.st24{fill:#292466;}
	.st25{fill:#2658A0;}
	.st26{opacity:0.33;}
	.st27{fill:url(#SVGID_10_);}
	.st28{fill:#E7A182;}
	.st29{fill:#6B8AFF;}
	.st30{clip-path:url(#SVGID_12_);fill:#E43E49;}
	.st31{opacity:0.65;fill:#999999;}
	.st32{opacity:0.38;fill:url(#SVGID_13_);}
	.st33{opacity:0.26;fill:#999999;}
	.st34{fill:#CBD8EC;}
</style>
<g>
	<g>
		<path class="st0" d="M239.9,127.3c0,57.9-46.8,104.8-104.4,104.8S31,185.2,31,127.3S77.8,22.5,135.4,22.5c1.6,0,3.1,0,4.7,0.1
			C195.6,25.1,239.9,71,239.9,127.3z"/>
		<path class="st0" d="M140.1,22.6h594.7c0,0,91.6,14.6,101.2,101.5v88.8v141.2c0,0-21.8-122.8-123.7-122.8s-576.9,0.1-576.9,0.1"/>
	</g>
	<path class="st1" d="M128.8,250.5C61,250.5,6,195.3,6,127.3S61,4.2,128.8,4.2c1.8,0,3.7,0,5.5,0.1"/>
	<g>
		<ellipse id="Oval_2_" class="st2" cx="139.7" cy="122.7" rx="84.3" ry="84.6"/>
	</g>
	<g>
		<g>
			<path class="st2" d="M281.3,67.3h20.5v6.2h-13.2v7.6h11.3v6.2h-11.3V100h-7.4V67.3z"/>
			<path class="st2" d="M305.4,87.6c0-8.1,5.7-13,11.7-13c7.1,0,10.6,5.1,10.6,11.9c0,1.3-0.2,2.7-0.3,3.3h-14.8
				c0.7,3.6,3.1,5.3,6.4,5.3c1.9,0,3.6-0.6,5.4-1.6l2.4,4.4c-2.5,1.8-5.9,2.8-8.8,2.8C310.8,100.6,305.4,95.8,305.4,87.6z
				 M321.3,84.9c0-2.7-1.2-4.7-4.1-4.7c-2.3,0-4.3,1.6-4.8,4.7H321.3z"/>
			<path class="st2" d="M331.2,87.6c0-8.1,5.7-13,11.7-13c7.1,0,10.6,5.1,10.6,11.9c0,1.3-0.2,2.7-0.3,3.3h-14.8
				c0.7,3.6,3.1,5.3,6.4,5.3c1.9,0,3.6-0.6,5.4-1.6l2.4,4.4c-2.5,1.8-5.9,2.8-8.8,2.8C336.7,100.6,331.2,95.8,331.2,87.6z
				 M347.2,84.9c0-2.7-1.2-4.7-4.1-4.7c-2.3,0-4.3,1.6-4.8,4.7H347.2z"/>
			<path class="st2" d="M367,95.9l4.2-5.1c2.3,2,5.3,3.4,8,3.4c3.1,0,4.6-1.2,4.6-3.2c0-2.1-1.8-2.7-4.7-3.9l-4.2-1.8
				c-3.4-1.4-6.6-4.2-6.6-8.9c0-5.4,4.8-9.7,11.6-9.7c3.7,0,7.7,1.5,10.5,4.3l-3.7,4.7c-2.1-1.6-4.2-2.6-6.8-2.6
				c-2.5,0-4.2,1.1-4.2,2.9c0,2,2.1,2.7,5,3.9l4.1,1.7c4,1.6,6.5,4.3,6.5,8.9c0,5.4-4.5,10.1-12.3,10.1
				C374.9,100.6,370.4,99,367,95.9z"/>
			<path class="st2" d="M397.3,91v-10h-3.4v-5.5l3.8-0.3l0.9-6.6h6.1v6.6h5.9v5.8h-5.9v10c0,2.8,1.3,3.9,3.2,3.9
				c0.8,0,1.7-0.2,2.4-0.5l1.2,5.3c-1.3,0.4-3.1,0.9-5.5,0.9C399.7,100.6,397.3,96.7,397.3,91z"/>
			<path class="st2" d="M414.3,93.1c0-5.2,4.2-8.1,14-9.1c-0.1-2.2-1.2-3.6-3.9-3.6c-2.1,0-4.2,0.9-6.6,2.2l-2.6-4.8
				c3.1-1.9,6.7-3.3,10.6-3.3c6.3,0,9.8,3.6,9.8,11.2V100h-6l-0.5-2.5h-0.2c-2.1,1.8-4.4,3.1-7.2,3.1
				C417.2,100.6,414.3,97.3,414.3,93.1z M428.2,92.8v-4.3c-5.2,0.7-6.9,2.2-6.9,4.1c0,1.6,1.1,2.4,2.8,2.4
				C425.8,94.9,426.9,94.1,428.2,92.8z"/>
			<path class="st2" d="M442.7,91v-10h-3.4v-5.5l3.8-0.3l0.9-6.6h6.1v6.6h5.9v5.8h-5.9v10c0,2.8,1.3,3.9,3.2,3.9
				c0.8,0,1.7-0.2,2.4-0.5l1.2,5.3c-1.3,0.4-3.1,0.9-5.5,0.9C445.2,100.6,442.7,96.7,442.7,91z"/>
			<path class="st2" d="M460.6,90.6V75.1h7.3v14.5c0,3.6,1,4.7,3.1,4.7c1.8,0,3-0.8,4.4-2.7V75.1h7.3V100h-6l-0.5-3.4h-0.2
				c-2.1,2.5-4.4,4-7.8,4C462.9,100.6,460.6,96.8,460.6,90.6z"/>
			<path class="st2" d="M487,97.1l3.3-4.6c2.2,1.7,4.3,2.6,6.4,2.6c2.2,0,3.1-0.8,3.1-2.1c0-1.6-2.5-2.4-5-3.4
				c-3-1.2-6.6-3.2-6.6-7.3c0-4.6,3.7-7.8,9.5-7.8c3.8,0,6.6,1.5,8.7,3.1l-3.3,4.4c-1.8-1.3-3.5-2.1-5.2-2.1c-1.9,0-2.8,0.7-2.8,2
				c0,1.6,2.3,2.2,4.9,3.1c3.1,1.2,6.7,2.9,6.7,7.5c0,4.5-3.5,8-10.2,8C493.3,100.6,489.6,99.2,487,97.1z"/>
		</g>
	</g>
	<g>
		<g>
			<path class="st2" d="M284.2,134.9h-6v-2.1h14.4v2.1h-6v17.6h-2.5V134.9z"/>
			<path class="st2" d="M295.9,131.1h2.5v5.9l-0.1,3c1.4-1.3,2.8-2.4,4.8-2.4c3.1,0,4.4,2,4.4,5.7v9.3h-2.5v-8.9
				c0-2.7-0.8-3.9-2.7-3.9c-1.5,0-2.5,0.8-4,2.2v10.6h-2.5V131.1z"/>
			<path class="st2" d="M311.8,133.3c0-1,0.7-1.6,1.7-1.6c1,0,1.7,0.6,1.7,1.6c0,0.9-0.7,1.6-1.7,1.6
				C312.5,134.9,311.8,134.3,311.8,133.3z M312.2,137.9h2.5v14.6h-2.5V137.9z"/>
			<path class="st2" d="M318,150.9l1.2-1.6c1.3,1,2.5,1.7,4.3,1.7c1.9,0,2.9-1,2.9-2.3c0-1.5-1.7-2.2-3.3-2.8
				c-2-0.7-4.3-1.8-4.3-4.2c0-2.3,1.9-4.1,5-4.1c1.8,0,3.4,0.7,4.5,1.6l-1.2,1.6c-1-0.7-2-1.3-3.3-1.3c-1.8,0-2.7,1-2.7,2.1
				c0,1.4,1.6,1.9,3.2,2.5c2.1,0.8,4.4,1.7,4.4,4.4c0,2.4-1.9,4.3-5.3,4.3C321.4,152.9,319.4,152,318,150.9z"/>
			<path class="st2" d="M336.4,137.9h2.5l2.2,8.4c0.3,1.4,0.6,2.7,0.9,4.1h0.1c0.3-1.4,0.6-2.7,1-4.1l2.2-8.4h2.4l2.3,8.4
				c0.4,1.4,0.7,2.7,1,4.1h0.1c0.3-1.4,0.6-2.7,0.9-4.1l2.1-8.4h2.3l-3.9,14.6h-3l-2.1-7.9c-0.4-1.4-0.6-2.7-1-4.2h-0.1
				c-0.3,1.5-0.6,2.9-1,4.2l-2,7.8h-2.9L336.4,137.9z"/>
			<path class="st2" d="M359.2,133.3c0-1,0.7-1.6,1.7-1.6c1,0,1.7,0.6,1.7,1.6c0,0.9-0.7,1.6-1.7,1.6
				C360,134.9,359.2,134.3,359.2,133.3z M359.7,137.9h2.5v14.6h-2.5V137.9z"/>
			<path class="st2" d="M367,149.6v-18.5h2.5v18.7c0,0.8,0.3,1.1,0.7,1.1c0.1,0,0.3,0,0.5-0.1l0.3,1.9c-0.4,0.1-0.8,0.2-1.4,0.2
				C367.8,152.9,367,151.7,367,149.6z"/>
			<path class="st2" d="M374.7,149.6v-18.5h2.5v18.7c0,0.8,0.3,1.1,0.7,1.1c0.1,0,0.3,0,0.5-0.1l0.3,1.9c-0.4,0.1-0.8,0.2-1.4,0.2
				C375.4,152.9,374.7,151.7,374.7,149.6z"/>
			<path class="st2" d="M387.3,145.2c0-4.7,3-7.7,6.3-7.7c1.7,0,2.8,0.6,4.1,1.7l-0.1-2.5v-5.6h2.5v21.4h-2l-0.2-1.7h-0.1
				c-1.1,1.1-2.7,2.1-4.4,2.1C389.6,152.9,387.3,150.1,387.3,145.2z M397.6,148.8v-7.7c-1.2-1.1-2.4-1.5-3.6-1.5
				c-2.3,0-4.2,2.3-4.2,5.6c0,3.5,1.4,5.6,4,5.6C395.2,150.8,396.3,150.2,397.6,148.8z"/>
			<path class="st2" d="M404.5,133.3c0-1,0.7-1.6,1.7-1.6c1,0,1.7,0.6,1.7,1.6c0,0.9-0.7,1.6-1.7,1.6
				C405.2,134.9,404.5,134.3,404.5,133.3z M404.9,137.9h2.5v14.6h-2.5V137.9z"/>
			<path class="st2" d="M410.7,150.9l1.2-1.6c1.3,1,2.5,1.7,4.3,1.7c1.9,0,2.9-1,2.9-2.3c0-1.5-1.7-2.2-3.3-2.8
				c-2-0.7-4.3-1.8-4.3-4.2c0-2.3,1.9-4.1,5-4.1c1.8,0,3.4,0.7,4.5,1.6l-1.2,1.6c-1-0.7-2-1.3-3.3-1.3c-1.8,0-2.7,1-2.7,2.1
				c0,1.4,1.6,1.9,3.2,2.5c2.1,0.8,4.4,1.7,4.4,4.4c0,2.4-1.9,4.3-5.3,4.3C414.1,152.9,412.1,152,410.7,150.9z"/>
			<path class="st2" d="M424.9,137.9h2l0.2,1.7h0.1c1.3-1.1,3-2,4.6-2c3.8,0,5.8,2.9,5.8,7.4c0,5-3,7.9-6.3,7.9
				c-1.3,0-2.7-0.6-4-1.7l0.1,2.6v4.9h-2.5V137.9z M435.1,145c0-3.2-1.1-5.4-3.8-5.4c-1.2,0-2.5,0.7-3.9,2v7.7
				c1.3,1.1,2.6,1.5,3.5,1.5C433.3,150.8,435.1,148.6,435.1,145z"/>
			<path class="st2" d="M441.5,149.6v-18.5h2.5v18.7c0,0.8,0.3,1.1,0.7,1.1c0.1,0,0.3,0,0.5-0.1l0.3,1.9c-0.4,0.1-0.8,0.2-1.4,0.2
				C442.3,152.9,441.5,151.7,441.5,149.6z"/>
			<path class="st2" d="M448.2,148.7c0-3.2,2.7-4.8,8.9-5.5c0-1.9-0.6-3.7-3-3.7c-1.7,0-3.2,0.8-4.3,1.6l-1-1.7
				c1.3-0.9,3.4-1.9,5.7-1.9c3.6,0,5.1,2.4,5.1,6v9h-2l-0.2-1.7h-0.1c-1.4,1.2-3,2.1-4.8,2.1C450.1,152.9,448.2,151.4,448.2,148.7z
				 M457.2,149v-4.1c-4.9,0.6-6.5,1.8-6.5,3.7c0,1.7,1.1,2.3,2.6,2.3C454.6,150.9,455.8,150.2,457.2,149z"/>
			<path class="st2" d="M462.8,158.5l0.5-2c0.3,0.1,0.7,0.2,1.1,0.2c1.6,0,2.7-1.3,3.3-3.1l0.3-1.1l-5.8-14.6h2.5l3,8.1
				c0.5,1.3,0.9,2.8,1.4,4.1h0.1c0.4-1.3,0.8-2.8,1.2-4.1l2.6-8.1h2.4l-5.5,15.8c-1,2.9-2.5,5.1-5.5,5.1
				C463.8,158.8,463.2,158.7,462.8,158.5z"/>
			<path class="st2" d="M484.7,148v-8.1h-2.2v-1.9l2.3-0.1l0.3-4.1h2.1v4.1h3.9v2h-3.9v8.1c0,1.8,0.6,2.8,2.3,2.8
				c0.5,0,1.2-0.2,1.7-0.4l0.5,1.9c-0.8,0.3-1.8,0.5-2.7,0.5C485.7,152.9,484.7,150.9,484.7,148z"/>
			<path class="st2" d="M494.3,131.1h2.5v5.9l-0.1,3c1.4-1.3,2.8-2.4,4.8-2.4c3.1,0,4.4,2,4.4,5.7v9.3h-2.5v-8.9
				c0-2.7-0.8-3.9-2.7-3.9c-1.5,0-2.5,0.8-4,2.2v10.6h-2.5V131.1z"/>
			<path class="st2" d="M509.6,145.2c0-4.8,3.2-7.7,6.5-7.7c3.7,0,5.8,2.7,5.8,6.9c0,0.5,0,1-0.1,1.4H512c0.2,3.1,2.1,5.1,4.8,5.1
				c1.4,0,2.5-0.5,3.6-1.2l0.9,1.6c-1.3,0.8-2.8,1.5-4.8,1.5C512.7,152.9,509.6,150,509.6,145.2z M519.7,144c0-2.9-1.3-4.5-3.6-4.5
				c-2,0-3.9,1.6-4.2,4.5H519.7z"/>
			<path class="st2" d="M529.9,150.9l1.2-1.6c1.3,1,2.5,1.7,4.3,1.7c1.9,0,2.9-1,2.9-2.3c0-1.5-1.7-2.2-3.3-2.8
				c-2-0.7-4.3-1.8-4.3-4.2c0-2.3,1.9-4.1,5-4.1c1.8,0,3.4,0.7,4.5,1.6l-1.2,1.6c-1-0.7-2-1.3-3.3-1.3c-1.8,0-2.7,1-2.7,2.1
				c0,1.4,1.6,1.9,3.2,2.5c2.1,0.8,4.4,1.7,4.4,4.4c0,2.4-1.9,4.3-5.3,4.3C533.2,152.9,531.3,152,529.9,150.9z"/>
			<path class="st2" d="M544.5,148v-8.1h-2.2v-1.9l2.3-0.1l0.3-4.1h2.1v4.1h3.9v2H547v8.1c0,1.8,0.6,2.8,2.3,2.8
				c0.5,0,1.2-0.2,1.7-0.4l0.5,1.9c-0.8,0.3-1.8,0.5-2.7,0.5C545.5,152.9,544.5,150.9,544.5,148z"/>
			<path class="st2" d="M553.3,148.7c0-3.2,2.7-4.8,8.9-5.5c0-1.9-0.6-3.7-3-3.7c-1.7,0-3.2,0.8-4.3,1.6l-1-1.7
				c1.3-0.9,3.4-1.9,5.7-1.9c3.6,0,5.1,2.4,5.1,6v9h-2l-0.2-1.7h-0.1c-1.4,1.2-3,2.1-4.8,2.1C555.1,152.9,553.3,151.4,553.3,148.7z
				 M562.2,149v-4.1c-4.9,0.6-6.5,1.8-6.5,3.7c0,1.7,1.1,2.3,2.6,2.3C559.7,150.9,560.8,150.2,562.2,149z"/>
			<path class="st2" d="M569.7,148v-8.1h-2.2v-1.9l2.3-0.1l0.3-4.1h2.1v4.1h3.9v2h-3.9v8.1c0,1.8,0.6,2.8,2.3,2.8
				c0.5,0,1.2-0.2,1.7-0.4l0.5,1.9c-0.8,0.3-1.8,0.5-2.7,0.5C570.8,152.9,569.7,150.9,569.7,148z"/>
			<path class="st2" d="M579.2,147.2v-9.3h2.5v8.9c0,2.7,0.8,3.9,2.7,3.9c1.5,0,2.5-0.7,3.9-2.5v-10.4h2.5v14.6h-2l-0.2-2.3h-0.1
				c-1.4,1.6-2.8,2.6-4.8,2.6C580.6,152.9,579.2,150.9,579.2,147.2z"/>
			<path class="st2" d="M594.1,150.9l1.2-1.6c1.3,1,2.5,1.7,4.3,1.7c1.9,0,2.9-1,2.9-2.3c0-1.5-1.7-2.2-3.3-2.8
				c-2-0.7-4.3-1.8-4.3-4.2c0-2.3,1.9-4.1,5-4.1c1.8,0,3.4,0.7,4.5,1.6l-1.2,1.6c-1-0.7-2-1.3-3.3-1.3c-1.8,0-2.7,1-2.7,2.1
				c0,1.4,1.6,1.9,3.2,2.5c2.1,0.8,4.4,1.7,4.4,4.4c0,2.4-1.9,4.3-5.3,4.3C597.5,152.9,595.5,152,594.1,150.9z"/>
			<path class="st2" d="M613.2,145.2c0-4.9,3.2-7.7,6.8-7.7s6.8,2.8,6.8,7.7c0,4.8-3.2,7.6-6.8,7.6S613.2,150.1,613.2,145.2z
				 M624.1,145.2c0-3.3-1.7-5.6-4.2-5.6c-2.5,0-4.2,2.3-4.2,5.6c0,3.3,1.7,5.6,4.2,5.6C622.4,150.8,624.1,148.6,624.1,145.2z"/>
			<path class="st2" d="M628.9,138.1l2.1-0.1h5.4v2h-7.5V138.1z M630.9,135.6c0-3,1.3-4.9,4.3-4.9c0.9,0,1.8,0.2,2.4,0.5l-0.5,1.9
				c-0.6-0.3-1.1-0.4-1.7-0.4c-1.4,0-2.1,1-2.1,2.9v16.9h-2.5V135.6z"/>
			<path class="st2" d="M645.7,148v-8.1h-2.2v-1.9l2.3-0.1l0.3-4.1h2.1v4.1h3.9v2h-3.9v8.1c0,1.8,0.6,2.8,2.3,2.8
				c0.5,0,1.2-0.2,1.7-0.4l0.5,1.9c-0.8,0.3-1.8,0.5-2.7,0.5C646.7,152.9,645.7,150.9,645.7,148z"/>
			<path class="st2" d="M655.4,131.1h2.5v5.9l-0.1,3c1.4-1.3,2.8-2.4,4.8-2.4c3.1,0,4.4,2,4.4,5.7v9.3h-2.5v-8.9
				c0-2.7-0.8-3.9-2.7-3.9c-1.5,0-2.5,0.8-4,2.2v10.6h-2.5V131.1z"/>
			<path class="st2" d="M670.6,145.2c0-4.8,3.2-7.7,6.5-7.7c3.7,0,5.8,2.7,5.8,6.9c0,0.5,0,1-0.1,1.4H673c0.2,3.1,2.1,5.1,4.8,5.1
				c1.4,0,2.5-0.5,3.6-1.2l0.9,1.6c-1.3,0.8-2.8,1.5-4.8,1.5C673.7,152.9,670.6,150,670.6,145.2z M680.8,144c0-2.9-1.3-4.5-3.6-4.5
				c-2,0-3.9,1.6-4.2,4.5H680.8z"/>
			<path class="st2" d="M278.3,174.1l2.1-0.1h5.4v2h-7.5V174.1z M280.3,171.7c0-3,1.3-4.9,4.3-4.9c0.9,0,1.8,0.2,2.4,0.5l-0.5,1.9
				c-0.6-0.3-1.1-0.4-1.7-0.4c-1.4,0-2.1,1-2.1,2.9v16.9h-2.5V171.7z"/>
			<path class="st2" d="M287.5,181.3c0-4.8,3.2-7.7,6.5-7.7c3.7,0,5.8,2.7,5.8,6.9c0,0.5,0,1-0.1,1.4H290c0.2,3.1,2.1,5.1,4.8,5.1
				c1.4,0,2.5-0.5,3.6-1.2l0.9,1.6c-1.3,0.8-2.8,1.5-4.8,1.5C290.6,189,287.5,186.1,287.5,181.3z M297.7,180.1
				c0-2.9-1.3-4.5-3.6-4.5c-2,0-3.9,1.6-4.2,4.5H297.7z"/>
			<path class="st2" d="M302.4,181.3c0-4.8,3.2-7.7,6.5-7.7c3.7,0,5.8,2.7,5.8,6.9c0,0.5,0,1-0.1,1.4h-9.8c0.2,3.1,2.1,5.1,4.8,5.1
				c1.4,0,2.5-0.5,3.6-1.2l0.9,1.6c-1.3,0.8-2.8,1.5-4.8,1.5C305.5,189,302.4,186.1,302.4,181.3z M312.6,180.1
				c0-2.9-1.3-4.5-3.6-4.5c-2,0-3.9,1.6-4.2,4.5H312.6z"/>
			<path class="st2" d="M316.7,186.9l1.2-1.6c1.3,1,2.5,1.7,4.3,1.7c1.9,0,2.9-1,2.9-2.3c0-1.5-1.7-2.2-3.3-2.8
				c-2-0.7-4.3-1.8-4.3-4.2c0-2.3,1.9-4.1,5-4.1c1.8,0,3.4,0.7,4.5,1.6l-1.2,1.6c-1-0.7-2-1.3-3.3-1.3c-1.8,0-2.7,1-2.7,2.1
				c0,1.4,1.6,1.9,3.2,2.5c2.1,0.8,4.4,1.7,4.4,4.4c0,2.4-1.9,4.3-5.3,4.3C320.1,189,318.1,188.1,316.7,186.9z"/>
			<path class="st2" d="M336.9,174h2l0.2,1.7h0.1c1.3-1.1,3-2,4.6-2c3.8,0,5.8,2.9,5.8,7.4c0,5-3,7.9-6.3,7.9c-1.3,0-2.7-0.6-4-1.7
				l0.1,2.5v4.9h-2.5V174z M347.1,181.1c0-3.2-1.1-5.4-3.8-5.4c-1.2,0-2.5,0.7-3.9,2v7.7c1.3,1.1,2.6,1.5,3.5,1.5
				C345.3,186.9,347.1,184.7,347.1,181.1z"/>
			<path class="st2" d="M352.6,184.8c0-3.2,2.7-4.8,8.9-5.5c0-1.9-0.6-3.7-3-3.7c-1.7,0-3.2,0.8-4.3,1.6l-1-1.7
				c1.3-0.9,3.4-1.9,5.7-1.9c3.6,0,5.1,2.4,5.1,6v9h-2l-0.2-1.7h-0.1c-1.4,1.2-3,2.1-4.8,2.1C354.4,189,352.6,187.4,352.6,184.8z
				 M361.6,185V181c-4.9,0.6-6.5,1.8-6.5,3.7c0,1.7,1.1,2.3,2.6,2.3C359,187,360.2,186.3,361.6,185z"/>
			<path class="st2" d="M368.2,169.4c0-1,0.7-1.6,1.7-1.6c1,0,1.7,0.6,1.7,1.6c0,0.9-0.7,1.6-1.7,1.6
				C368.9,171,368.2,170.3,368.2,169.4z M368.6,174h2.5v14.6h-2.5V174z"/>
			<path class="st2" d="M375,181.3c0-4.7,3-7.7,6.3-7.7c1.7,0,2.8,0.6,4.1,1.7l-0.1-2.5v-5.6h2.5v21.4h-2l-0.2-1.7h-0.1
				c-1.1,1.1-2.7,2.1-4.4,2.1C377.3,189,375,186.2,375,181.3z M385.2,184.9v-7.7c-1.2-1.1-2.4-1.5-3.6-1.5c-2.3,0-4.2,2.3-4.2,5.6
				c0,3.5,1.4,5.6,4,5.6C382.8,186.9,384,186.2,385.2,184.9z"/>
			<path class="st2" d="M400.9,187.1L400.9,187.1l-0.3,1.5h-2v-21.4h2.5v5.9l-0.1,2.6c1.3-1.2,3-2,4.6-2c3.8,0,5.8,2.9,5.8,7.4
				c0,5-3,7.9-6.3,7.9C403.7,189,402.2,188.3,400.9,187.1z M408.8,181.1c0-3.2-1.1-5.4-3.8-5.4c-1.2,0-2.5,0.7-3.9,2v7.7
				c1.3,1.1,2.6,1.5,3.5,1.5C407,186.9,408.8,184.7,408.8,181.1z"/>
			<path class="st2" d="M413.7,194.6l0.5-2c0.3,0.1,0.7,0.2,1.1,0.2c1.6,0,2.7-1.3,3.3-3.1l0.3-1.1l-5.8-14.6h2.5l3,8.1
				c0.5,1.3,0.9,2.8,1.4,4.1h0.1c0.4-1.3,0.8-2.8,1.2-4.1l2.6-8.1h2.4l-5.5,15.8c-1,2.9-2.5,5.1-5.5,5.1
				C414.8,194.9,414.2,194.8,413.7,194.6z"/>
			<path class="st2" d="M435.6,184.1V176h-2.2v-1.9l2.3-0.1l0.3-4.1h2.1v4.1h3.9v2h-3.9v8.1c0,1.8,0.6,2.8,2.3,2.8
				c0.5,0,1.2-0.2,1.7-0.4l0.5,1.9c-0.8,0.3-1.8,0.5-2.7,0.5C436.7,189,435.6,187,435.6,184.1z"/>
			<path class="st2" d="M445.3,167.2h2.5v5.9l-0.1,3c1.4-1.3,2.8-2.4,4.8-2.4c3.1,0,4.4,2,4.4,5.7v9.3h-2.5v-8.9
				c0-2.7-0.8-3.9-2.7-3.9c-1.5,0-2.5,0.8-4,2.2v10.6h-2.5V167.2z"/>
			<path class="st2" d="M460.5,181.3c0-4.8,3.2-7.7,6.5-7.7c3.7,0,5.8,2.7,5.8,6.9c0,0.5,0,1-0.1,1.4H463c0.2,3.1,2.1,5.1,4.8,5.1
				c1.4,0,2.5-0.5,3.6-1.2l0.9,1.6c-1.3,0.8-2.8,1.5-4.8,1.5C463.6,189,460.5,186.1,460.5,181.3z M470.7,180.1
				c0-2.9-1.3-4.5-3.6-4.5c-2,0-3.9,1.6-4.2,4.5H470.7z"/>
			<path class="st2" d="M480.8,186.9l1.2-1.6c1.3,1,2.5,1.7,4.3,1.7c1.9,0,2.9-1,2.9-2.3c0-1.5-1.7-2.2-3.3-2.8
				c-2-0.7-4.3-1.8-4.3-4.2c0-2.3,1.9-4.1,5-4.1c1.8,0,3.4,0.7,4.5,1.6l-1.2,1.6c-1-0.7-2-1.3-3.3-1.3c-1.8,0-2.7,1-2.7,2.1
				c0,1.4,1.6,1.9,3.2,2.5c2.1,0.8,4.4,1.7,4.4,4.4c0,2.4-1.9,4.3-5.3,4.3C484.2,189,482.2,188.1,480.8,186.9z"/>
			<path class="st2" d="M495.4,184.1V176h-2.2v-1.9l2.3-0.1l0.3-4.1h2.1v4.1h3.9v2h-3.9v8.1c0,1.8,0.6,2.8,2.3,2.8
				c0.5,0,1.2-0.2,1.7-0.4l0.5,1.9c-0.8,0.3-1.8,0.5-2.7,0.5C496.5,189,495.4,187,495.4,184.1z"/>
			<path class="st2" d="M504.9,183.2V174h2.5v8.9c0,2.7,0.8,3.9,2.7,3.9c1.5,0,2.5-0.7,3.9-2.5V174h2.5v14.6h-2l-0.2-2.3h-0.1
				c-1.4,1.6-2.8,2.6-4.8,2.6C506.3,189,504.9,187,504.9,183.2z"/>
			<path class="st2" d="M520.4,181.3c0-4.7,3-7.7,6.3-7.7c1.7,0,2.8,0.6,4.1,1.7l-0.1-2.5v-5.6h2.5v21.4h-2l-0.2-1.7h-0.1
				c-1.1,1.1-2.7,2.1-4.4,2.1C522.8,189,520.4,186.2,520.4,181.3z M530.7,184.9v-7.7c-1.2-1.1-2.4-1.5-3.6-1.5
				c-2.3,0-4.2,2.3-4.2,5.6c0,3.5,1.4,5.6,4,5.6C528.3,186.9,529.5,186.2,530.7,184.9z"/>
			<path class="st2" d="M537,181.3c0-4.8,3.2-7.7,6.5-7.7c3.7,0,5.8,2.7,5.8,6.9c0,0.5,0,1-0.1,1.4h-9.8c0.2,3.1,2.1,5.1,4.8,5.1
				c1.4,0,2.5-0.5,3.6-1.2l0.9,1.6c-1.3,0.8-2.8,1.5-4.8,1.5C540.1,189,537,186.1,537,181.3z M547.2,180.1c0-2.9-1.3-4.5-3.6-4.5
				c-2,0-3.9,1.6-4.2,4.5H547.2z"/>
			<path class="st2" d="M552.9,174h2l0.2,2.1h0.1c1.4-1.4,2.9-2.5,4.9-2.5c3.1,0,4.4,2,4.4,5.7v9.3h-2.5v-8.9c0-2.7-0.8-3.9-2.7-3.9
				c-1.5,0-2.5,0.8-4,2.2v10.6h-2.5V174z"/>
			<path class="st2" d="M569.7,184.1V176h-2.2v-1.9l2.3-0.1l0.3-4.1h2.1v4.1h3.9v2h-3.9v8.1c0,1.8,0.6,2.8,2.3,2.8
				c0.5,0,1.2-0.2,1.7-0.4l0.5,1.9c-0.8,0.3-1.8,0.5-2.7,0.5C570.8,189,569.7,187,569.7,184.1z"/>
			<path class="st2" d="M578.9,187.1c0-1.1,0.8-1.9,1.8-1.9s1.8,0.8,1.8,1.9c0,1.1-0.8,1.9-1.8,1.9S578.9,188.2,578.9,187.1z"/>
		</g>
	</g>
</g>
<g>
	<path class="st3" d="M116.4,145c6,3.9,37.2,3.2,48.8-5c11.7-8.2,54.9-38.7,43-49.7c-11.9-11-44.8,1.5-56.3-3.2
		c-11.5-4.8-22.1-6.7-37.5-7.3C99.1,79,94.4,93.3,91.8,104.1c-2.6,10.8-0.6,17.1,9.7,23.8S107.1,139,116.4,145z"/>
	<g>
		<g>
			<g>
				<g>
					<polygon class="st4" points="76,153.6 115.3,150.9 115.3,106.6 76,105.9 					"/>
					<polygon class="st4" points="116.9,150.8 137.5,149.4 137.5,106.9 116.9,106.6 					"/>
				</g>
			</g>
		</g>
		<g>
			<g>
				<g>
					<path class="st5" d="M126.5,85l5.7,0.3v-1.9c0-1.9-1.4-3.6-3.2-3.7l-2.6-0.2V85z"/>
					<polygon class="st5" points="120.6,84.7 126.5,85 126.5,79.5 120.6,79.1 					"/>
					<polygon class="st5" points="114.6,84.3 120.6,84.7 120.6,79.1 114.6,78.7 					"/>
					<polygon class="st5" points="108.5,84 114.6,84.3 114.6,78.7 108.5,78.3 					"/>
					<polygon class="st5" points="102.2,83.6 108.5,84 108.5,78.3 102.2,77.9 					"/>
					<polygon class="st5" points="95.8,83.3 102.2,83.6 102.2,77.9 95.8,77.5 					"/>
					<polygon class="st5" points="89.2,82.9 95.8,83.3 95.8,77.5 89.2,77 					"/>
					<path class="st5" d="M82.4,82.5l6.8,0.4V77l-3-0.2c-2.1-0.1-3.8,1.5-3.8,3.6V82.5z"/>
				</g>
				<g>
					<path class="st5" d="M135.7,104.7l0.6,0c1.9,0,3.4-1.6,3.4-3.8v-3.3l-7.5-0.3v3.3C132.3,102.9,133.8,104.6,135.7,104.7z"/>
					<path class="st5" d="M128.1,104.5l0.6,0c1.9,0,3.5-1.7,3.5-3.8v-3.3l-7.7-0.3v3.4C124.6,102.7,126.2,104.5,128.1,104.5z"/>
					<path class="st5" d="M120.6,104.4L120.6,104.4c2.2,0,3.9-1.8,3.9-4.2v-3l-7.9-0.3v3.1C116.6,102.4,118.4,104.3,120.6,104.4z"/>
					<path class="st5" d="M112.3,104.2l0.6,0c2.1,0,3.7-1.7,3.7-3.9v-3.4l-8.2-0.3v3.5C108.5,102.3,110.2,104.2,112.3,104.2z"/>
					<path class="st5" d="M104.3,104.1L104.3,104.1c2.3,0,4.2-1.9,4.2-4.3v-3.1l-8.4-0.3v3.2C100.1,102,102,104,104.3,104.1z"/>
					<path class="st5" d="M95.4,103.9l0.7,0c2.2,0,4-1.8,4-4.1v-3.5L91.4,96v3.6C91.4,101.9,93.2,103.8,95.4,103.9z"/>
					<path class="st5" d="M86.6,103.7l0.7,0c2.3,0,4.1-1.8,4.1-4.1V96l-9-0.3v3.7C82.4,101.7,84.3,103.7,86.6,103.7z"/>
					<path class="st5" d="M77.4,103.5l0.7,0c2.3,0,4.2-1.8,4.2-4.2v-3.7l-9.3-0.3v3.7C73.1,101.5,75.1,103.5,77.4,103.5z"/>
				</g>
				<g>
					<polygon class="st5" points="139.7,97.6 132.3,85.3 126.5,85 132.3,97.4 					"/>
					<polygon class="st5" points="124.6,97.1 120.6,84.7 126.5,85 132.3,97.4 					"/>
					<polygon class="st5" points="124.6,97.1 120.6,84.7 114.6,84.3 116.6,96.9 					"/>
					<polygon class="st5" points="116.6,96.9 114.6,84.3 108.5,84 108.5,96.6 					"/>
					<polygon class="st5" points="100.1,96.3 108.5,96.6 108.5,84 102.2,83.6 					"/>
					<polygon class="st5" points="100.1,96.3 102.2,83.6 95.8,83.3 91.4,96 					"/>
					<polygon class="st5" points="95.8,83.3 89.2,82.9 82.4,95.7 91.4,96 					"/>
					<polygon class="st5" points="89.2,82.9 82.4,82.5 73.1,95.4 82.4,95.7 					"/>
				</g>
			</g>
		</g>
	</g>
	<defs>
		<filter id="Adobe_OpacityMaskFilter" filterUnits="userSpaceOnUse" x="73.6" y="76.1" width="130.7" height="86.2">
			<feColorMatrix  type="matrix" values="1 0 0 0 0  0 1 0 0 0  0 0 1 0 0  0 0 0 1 0"/>
		</filter>
	</defs>
	<mask maskUnits="userSpaceOnUse" x="73.6" y="76.1" width="130.7" height="86.2" id="SVGID_1_">
		<g class="st6">
			<g>
				<defs>
					<path id="SVGID_2_" d="M191.8,91.9c-11.5-11-37.1-18.6-52.6-14.9c-15.4,3.7-72.7,17.4-64.9,33.7s77,42.5,92.6,49.5
						c15.6,7,26.4-5.8,33.5-15.9C207.6,134.2,204.9,104.4,191.8,91.9z"/>
				</defs>
				<linearGradient id="SVGID_3_" gradientUnits="userSpaceOnUse" x1="119.0402" y1="119.1581" x2="249.7556" y2="119.1581">
					<stop  offset="0" style="stop-color:#FFFFFF"/>
					<stop  offset="1" style="stop-color:#000000"/>
				</linearGradient>
				<use xlink:href="#SVGID_2_"  style="overflow:visible;fill:url(#SVGID_3_);"/>
				<clipPath id="SVGID_4_">
					<use xlink:href="#SVGID_2_"  style="overflow:visible;"/>
				</clipPath>
				<linearGradient id="SVGID_5_" gradientUnits="userSpaceOnUse" x1="118.7715" y1="119.1581" x2="249.4868" y2="119.1581">
					<stop  offset="0" style="stop-color:#FFFFFF"/>
					<stop  offset="0.1857" style="stop-color:#FCFCFC"/>
					<stop  offset="0.3188" style="stop-color:#F3F3F3"/>
					<stop  offset="0.4354" style="stop-color:#E3E3E3"/>
					<stop  offset="0.5427" style="stop-color:#CDCDCD"/>
					<stop  offset="0.6435" style="stop-color:#B0B0B0"/>
					<stop  offset="0.7395" style="stop-color:#8D8D8D"/>
					<stop  offset="0.8317" style="stop-color:#636363"/>
					<stop  offset="0.9186" style="stop-color:#343434"/>
					<stop  offset="1" style="stop-color:#000000"/>
				</linearGradient>
				<path class="st7" d="M191.8,91.9c-11.5-11-37.1-18.6-52.6-14.9c-15.4,3.7-72.7,17.4-64.9,33.7s77,42.5,92.6,49.5
					c15.6,7,26.4-5.8,33.5-15.9C207.6,134.2,204.9,104.4,191.8,91.9z"/>
			</g>
		</g>
	</mask>
	<g class="st8">
		<defs>
			<path id="SVGID_6_" class="st9" d="M191.8,91.9c-11.5-11-37.1-18.6-52.6-14.9c-15.4,3.7-72.7,17.4-64.9,33.7s77,42.5,92.6,49.5
				c15.6,7,26.4-5.8,33.5-15.9C207.6,134.2,204.9,104.4,191.8,91.9z"/>
		</defs>
		<use xlink:href="#SVGID_6_"  style="overflow:visible;fill:#C09CDF;"/>
		<clipPath id="SVGID_7_">
			<use xlink:href="#SVGID_6_"  style="overflow:visible;"/>
		</clipPath>
		<path class="st10" d="M191.8,91.9c-11.5-11-37.1-18.6-52.6-14.9c-15.4,3.7-72.7,17.4-64.9,33.7s77,42.5,92.6,49.5
			c15.6,7,26.4-5.8,33.5-15.9C207.6,134.2,204.9,104.4,191.8,91.9z"/>
	</g>
	<g>
		<rect x="73.7" y="167.1" class="st11" width="136.8" height="0.5"/>
	</g>
	<g>
		<path class="st12" d="M104.2,111.1l-0.3,0v-13c0-0.6-0.5-1.2-1.1-1.2l-14.1-0.8c-0.6,0-1.2,0.5-1.2,1.1v13.5l-0.5,0
			c-1.4,0-2.6,1.1-2.6,2.6v30.1c0,1.4,1.2,2.6,2.6,2.5l17.2-1c1.3-0.1,2.4-1.3,2.4-2.6v-28.6C106.6,112.3,105.6,111.2,104.2,111.1z"
			/>
		<g>
			<g>
				<g>
					<path class="st13" d="M105.4,144.2l-17.1,0.9c-1.4,0.1-2.6-1-2.6-2.5v-30c0-1.4,1.2-2.6,2.6-2.5l17.1,0.4
						c1.3,0,2.4,1.2,2.4,2.5v28.5C107.8,143,106.7,144.2,105.4,144.2z"/>
				</g>
			</g>
			<g>
				<g>
					<path class="st2" d="M104.8,125L89,125.2c-1.1,0-2-0.9-2-2v-4.8c0-1.1,0.9-2,2-2l15.7,0.2c1,0,1.9,0.9,1.9,2v4.6
						C106.6,124.1,105.8,125,104.8,125z"/>
				</g>
			</g>
			<g>
				<g>
					<g>
						<path class="st2" d="M92.9,130.1l-3.1,0.1c-0.3,0-0.6-0.3-0.6-0.6v-1c0-0.3,0.3-0.6,0.6-0.6l3.1,0c0.3,0,0.6,0.3,0.6,0.6v1
							C93.5,129.8,93.2,130.1,92.9,130.1z"/>
					</g>
				</g>
				<g>
					<g>
						<path class="st2" d="M98.5,130l-3,0.1c-0.3,0-0.6-0.3-0.6-0.6v-1c0-0.3,0.3-0.6,0.6-0.6l3,0c0.3,0,0.6,0.3,0.6,0.6v1
							C99.1,129.7,98.9,130,98.5,130z"/>
					</g>
				</g>
				<g>
					<g>
						<path class="st2" d="M104,129.9l-2.9,0.1c-0.3,0-0.6-0.3-0.6-0.6v-1c0-0.3,0.3-0.6,0.6-0.6l2.9,0c0.3,0,0.6,0.3,0.6,0.6v1
							C104.6,129.6,104.3,129.8,104,129.9z"/>
					</g>
				</g>
				<g>
					<g>
						<path class="st2" d="M92.9,134l-3.1,0.1c-0.3,0-0.6-0.3-0.6-0.6v-1c0-0.3,0.3-0.6,0.6-0.6l3.1-0.1c0.3,0,0.6,0.3,0.6,0.6v1
							C93.5,133.7,93.2,134,92.9,134z"/>
					</g>
				</g>
				<g>
					<g>
						<path class="st2" d="M98.5,133.8l-3,0.1c-0.3,0-0.6-0.3-0.6-0.6v-1c0-0.3,0.3-0.6,0.6-0.6l3-0.1c0.3,0,0.6,0.3,0.6,0.6v1
							C99.1,133.5,98.9,133.8,98.5,133.8z"/>
					</g>
				</g>
				<g>
					<g>
						<path class="st2" d="M104,133.7l-2.9,0.1c-0.3,0-0.6-0.2-0.6-0.6v-1c0-0.3,0.3-0.6,0.6-0.6l2.9-0.1c0.3,0,0.6,0.3,0.6,0.6v1
							C104.6,133.4,104.3,133.7,104,133.7z"/>
					</g>
				</g>
				<g>
					<g>
						<path class="st2" d="M92.9,137.9l-3.1,0.1c-0.3,0-0.6-0.3-0.6-0.6v-1c0-0.3,0.3-0.6,0.6-0.6l3.1-0.1c0.3,0,0.6,0.3,0.6,0.6v1
							C93.5,137.6,93.2,137.9,92.9,137.9z"/>
					</g>
				</g>
				<g>
					<g>
						<path class="st2" d="M98.5,137.7l-3,0.1c-0.3,0-0.6-0.2-0.6-0.6v-1c0-0.3,0.3-0.6,0.6-0.6l3-0.1c0.3,0,0.6,0.2,0.6,0.6v1
							C99.1,137.4,98.9,137.7,98.5,137.7z"/>
					</g>
				</g>
				<g>
					<g>
						<path class="st2" d="M104,137.5l-2.9,0.1c-0.3,0-0.6-0.2-0.6-0.6v-1c0-0.3,0.3-0.6,0.6-0.6l2.9-0.1c0.3,0,0.6,0.2,0.6,0.6v1
							C104.6,137.2,104.3,137.5,104,137.5z"/>
					</g>
				</g>
				<g>
					<g>
						<path class="st2" d="M92.9,141.8l-3.1,0.1c-0.3,0-0.6-0.2-0.6-0.6v-1c0-0.3,0.3-0.6,0.6-0.6l3.1-0.1c0.3,0,0.6,0.2,0.6,0.6v1
							C93.5,141.5,93.2,141.8,92.9,141.8z"/>
					</g>
				</g>
				<g>
					<g>
						<path class="st14" d="M98.5,141.6l-3,0.1c-0.3,0-0.6-0.2-0.6-0.6v-1c0-0.3,0.3-0.6,0.6-0.6l3-0.1c0.3,0,0.6,0.2,0.6,0.6v1
							C99.1,141.3,98.9,141.6,98.5,141.6z"/>
					</g>
				</g>
				<g>
					<g>
						<path class="st15" d="M104,141.3l-2.9,0.1c-0.3,0-0.6-0.2-0.6-0.6v-1c0-0.3,0.3-0.6,0.6-0.6l2.9-0.1c0.3,0,0.6,0.2,0.6,0.6v1
							C104.6,141,104.3,141.3,104,141.3z"/>
					</g>
				</g>
				<g>
					<g>
						<g>
							<path class="st11" d="M92.9,130.3l-3.1,0.1c-0.1,0-0.2-0.1-0.2-0.2s0.1-0.2,0.2-0.2l3.1-0.1c0.2,0,0.4-0.2,0.4-0.4v-1
								c0-0.1,0.1-0.2,0.2-0.2c0.1,0,0.2,0.1,0.2,0.2v1C93.7,129.9,93.3,130.3,92.9,130.3z"/>
						</g>
					</g>
					<g>
						<g>
							<path class="st11" d="M98.5,130.2l-3,0.1c-0.1,0-0.2-0.1-0.2-0.2c0-0.1,0.1-0.2,0.2-0.2l3-0.1c0.2,0,0.4-0.2,0.4-0.4v-1
								c0-0.1,0.1-0.2,0.2-0.2c0.1,0,0.2,0.1,0.2,0.2v1C99.3,129.8,99,130.2,98.5,130.2z"/>
						</g>
					</g>
					<g>
						<g>
							<path class="st11" d="M104,130.1l-2.9,0.1c-0.1,0-0.2-0.1-0.2-0.2c0-0.1,0.1-0.2,0.2-0.2l2.9-0.1c0.2,0,0.4-0.2,0.4-0.4v-1
								c0-0.1,0.1-0.2,0.2-0.2c0.1,0,0.2,0.1,0.2,0.2v1C104.8,129.7,104.4,130,104,130.1z"/>
						</g>
					</g>
					<g>
						<g>
							<path class="st11" d="M92.9,134.2l-3.1,0.1c-0.1,0-0.2-0.1-0.2-0.2c0-0.1,0.1-0.2,0.2-0.2l3.1-0.1c0.2,0,0.4-0.2,0.4-0.4v-1
								c0-0.1,0.1-0.2,0.2-0.2c0.1,0,0.2,0.1,0.2,0.2v1C93.7,133.8,93.3,134.2,92.9,134.2z"/>
						</g>
					</g>
					<g>
						<g>
							<path class="st11" d="M98.5,134l-3,0.1c-0.1,0-0.2-0.1-0.2-0.2c0-0.1,0.1-0.2,0.2-0.2l3-0.1c0.2,0,0.4-0.2,0.4-0.4v-1
								c0-0.1,0.1-0.2,0.2-0.2c0.1,0,0.2,0.1,0.2,0.2v1C99.3,133.7,99,134,98.5,134z"/>
						</g>
					</g>
					<g>
						<g>
							<path class="st11" d="M104,133.9l-2.9,0.1c-0.1,0-0.2-0.1-0.2-0.2s0.1-0.2,0.2-0.2l2.9-0.1c0.2,0,0.4-0.2,0.4-0.4v-1
								c0-0.1,0.1-0.2,0.2-0.2c0.1,0,0.2,0.1,0.2,0.2v1C104.8,133.5,104.4,133.9,104,133.9z"/>
						</g>
					</g>
					<g>
						<g>
							<path class="st11" d="M92.9,138.1l-3.1,0.1c-0.1,0-0.2-0.1-0.2-0.2c0-0.1,0.1-0.2,0.2-0.2l3.1-0.1c0.2,0,0.4-0.2,0.4-0.4v-1
								c0-0.1,0.1-0.2,0.2-0.2c0.1,0,0.2,0.1,0.2,0.2v1C93.7,137.7,93.3,138.1,92.9,138.1z"/>
						</g>
					</g>
					<g>
						<g>
							<path class="st11" d="M98.5,137.9l-3,0.1c-0.1,0-0.2-0.1-0.2-0.2s0.1-0.2,0.2-0.2l3-0.1c0.2,0,0.4-0.2,0.4-0.4v-1
								c0-0.1,0.1-0.2,0.2-0.2c0.1,0,0.2,0.1,0.2,0.2v1C99.3,137.5,99,137.9,98.5,137.9z"/>
						</g>
					</g>
					<g>
						<g>
							<path class="st11" d="M104,137.7l-2.9,0.1c-0.1,0-0.2-0.1-0.2-0.2c0-0.1,0.1-0.2,0.2-0.2l2.9-0.1c0.2,0,0.4-0.2,0.4-0.4v-1
								c0-0.1,0.1-0.2,0.2-0.2c0.1,0,0.2,0.1,0.2,0.2v1C104.8,137.3,104.4,137.7,104,137.7z"/>
						</g>
					</g>
					<g>
						<g>
							<path class="st11" d="M92.9,142l-3.1,0.1c-0.1,0-0.2-0.1-0.2-0.2c0-0.1,0.1-0.2,0.2-0.2l3.1-0.1c0.2,0,0.4-0.2,0.4-0.4v-1
								c0-0.1,0.1-0.2,0.2-0.2c0.1,0,0.2,0.1,0.2,0.2v1C93.7,141.6,93.3,142,92.9,142z"/>
						</g>
					</g>
					<g>
						<g>
							<path class="st11" d="M98.5,141.8l-3,0.1c-0.1,0-0.2-0.1-0.2-0.2c0-0.1,0.1-0.2,0.2-0.2l3-0.1c0.2,0,0.4-0.2,0.4-0.4v-1
								c0-0.1,0.1-0.2,0.2-0.2c0.1,0,0.2,0.1,0.2,0.2v1C99.3,141.4,99,141.8,98.5,141.8z"/>
						</g>
					</g>
					<g>
						<g>
							<path class="st11" d="M104,141.5l-2.9,0.1c-0.1,0-0.2-0.1-0.2-0.2c0-0.1,0.1-0.2,0.2-0.2l2.9-0.1c0.2,0,0.4-0.2,0.4-0.4v-1
								c0-0.1,0.1-0.2,0.2-0.2c0.1,0,0.2,0.1,0.2,0.2v1C104.8,141.1,104.4,141.5,104,141.5z"/>
						</g>
					</g>
				</g>
			</g>
			<g>
				<g>
					<path class="st16" d="M105.9,113.5v0.3c0,0.4-0.3,0.7-0.7,0.8c0,0-0.1,0-0.1,0l-16.5-0.2c-0.5,0-0.8-0.4-0.8-0.8v-0.3
						c0-0.5,0.4-0.8,0.8-0.8l16.5,0.3c0,0,0.1,0,0.1,0C105.6,112.8,105.9,113.1,105.9,113.5z"/>
				</g>
			</g>
			<g>
				<g>
					<path class="st17" d="M96.8,124.2c-0.2,0-0.3-0.1-0.4-0.2l-2.8-3.5c-0.2-0.2-0.2-0.6,0.1-0.8c0.2-0.2,0.6-0.2,0.8,0.1l2.3,2.9
						l4.1-5.2c0.2-0.2,0.5-0.3,0.8-0.1c0.2,0.2,0.3,0.5,0.1,0.8l-4.5,5.7C97.1,124.1,96.9,124.2,96.8,124.2
						C96.8,124.2,96.8,124.2,96.8,124.2z"/>
				</g>
			</g>
			<g>
				<g>
					<path class="st2" d="M105.1,97.5v16.8l-16.3-0.3V96.7c0-0.6,0.5-1.1,1.2-1.1l14.1,0.8C104.6,96.4,105.1,96.9,105.1,97.5z"/>
				</g>
			</g>
			<g>
				<g>
					<polygon class="st11" points="103.5,98.6 90.6,98 90.6,97.7 103.5,98.4 					"/>
				</g>
			</g>
			<g>
				<g>
					<polygon class="st11" points="103.5,108 90.6,107.7 90.6,107.4 103.5,107.8 					"/>
				</g>
			</g>
			<g>
				<g>
					<polygon class="st11" points="103.5,112.1 90.6,111.9 90.6,111.6 103.5,111.9 					"/>
				</g>
			</g>
			<g>
				<g>
					<polygon class="st11" points="96.1,100.2 90.6,99.9 90.6,100.3 96.1,100.5 					"/>
				</g>
			</g>
			<g>
				<g>
					<polygon class="st11" points="95.4,101.2 90.6,101 90.6,101.3 95.4,101.5 					"/>
				</g>
			</g>
			<g>
				<g>
					<polygon class="st11" points="95.4,105.4 90.6,105.2 90.6,105.6 95.4,105.7 					"/>
				</g>
			</g>
			<g>
				<g>
					<polygon class="st11" points="103.4,105.7 100.8,105.6 100.8,105.9 103.4,106 					"/>
				</g>
			</g>
			<g>
				<g>
					<polygon class="st11" points="96.6,102.3 90.6,102 90.6,102.4 96.6,102.6 					"/>
				</g>
			</g>
			<g>
				<g>
					<polygon class="st11" points="94.6,103.3 90.6,103.1 90.6,103.4 94.6,103.6 					"/>
				</g>
			</g>
			<g>
				<g>
					<polygon class="st11" points="96.2,104.4 90.6,104.2 90.6,104.5 96.2,104.7 					"/>
				</g>
			</g>
			<g>
				<g>
					<polygon class="st11" points="103.2,100.5 100.9,100.4 100.9,100.8 103.2,100.9 					"/>
				</g>
			</g>
			<g>
				<g>
					<polygon class="st11" points="102.8,101.6 101.4,101.5 101.4,101.8 102.8,101.9 					"/>
				</g>
			</g>
			<g>
				<g>
					<polygon class="st11" points="95.4,109.5 90.6,109.4 90.6,109.8 95.4,109.9 					"/>
				</g>
			</g>
			<g>
				<g>
					<polygon class="st11" points="102.8,109.8 101.4,109.7 101.4,110.1 102.8,110.1 					"/>
				</g>
			</g>
			<g>
				<g>
					<polygon class="st11" points="103.4,102.7 100.8,102.5 100.8,102.9 103.4,103 					"/>
				</g>
			</g>
			<g>
				<g>
					<polygon class="st11" points="102.6,103.7 101.5,103.6 101.5,104 102.6,104 					"/>
				</g>
			</g>
			<g>
				<g>
					<polygon class="st11" points="103,104.8 101.1,104.7 101.1,105 103,105.1 					"/>
				</g>
			</g>
		</g>
	</g>
	<g>
		<g>
			<g>
				<g>
					<path class="st12" d="M191.4,139.9l-34.6-5.1c-1.3-0.2-2.4-1.6-2.4-3.2v-44c0-1.6,1-3,2.4-3.2l34.6-4.9
						c1.9-0.3,3.5,1.1,3.5,3.1v54.4C195,138.8,193.4,140.1,191.4,139.9z"/>
				</g>
				<g>
					<path class="st2" d="M189.7,139.1l-34.1-5c-1.3-0.2-2.3-1.6-2.3-3.2V87.2c0-1.6,1-3,2.3-3.2l34.1-4.9c1.9-0.3,3.4,1.1,3.4,3
						V136C193.1,138,191.6,139.3,189.7,139.1z"/>
				</g>
				<g>
					<path class="st13" d="M153.3,87.2c0-1.9,1.2-3.6,2.8-3.8l32.9-4.9c2.2-0.3,4.1,1.3,4.1,3.6v3.6l-39.8,4.4V87.2z"/>
				</g>
				<g>
					<path class="st2" d="M180.7,83.4c0-0.7-0.5-1.2-1.2-1.1c-0.6,0.1-1.2,0.7-1.2,1.4s0.5,1.2,1.2,1.1
						C180.2,84.7,180.7,84.1,180.7,83.4z"/>
					<path class="st2" d="M184.5,82.9c0-0.7-0.6-1.2-1.2-1.1c-0.7,0.1-1.2,0.7-1.2,1.5c0,0.7,0.5,1.2,1.2,1.1
						C183.9,84.3,184.5,83.6,184.5,82.9z"/>
					<path class="st2" d="M188.6,82.4c0-0.7-0.6-1.3-1.3-1.2c-0.7,0.1-1.3,0.8-1.3,1.5c0,0.7,0.6,1.2,1.3,1.2
						C188,83.8,188.6,83.1,188.6,82.4z"/>
				</g>
			</g>
		</g>
		<g>
			<path class="st18" d="M159.8,95l25.6-1.5c1.1-0.1,2.1,0.8,2.1,2v18c0,1.2-0.9,2-2.1,2l-25.6-1.6c-0.8-0.1-1.5-0.9-1.5-1.9V96.9
				C158.3,95.9,159,95,159.8,95z"/>
			<g>
				<g>
					<g>
						<path class="st13" d="M186.5,112.2V94.4c0-1.2-0.9-2-2.1-2L159.1,94c-0.8,0.1-1.5,0.9-1.5,1.9v15c0,1,0.7,1.8,1.5,1.9
							l25.3,1.4C185.5,114.3,186.5,113.4,186.5,112.2z"/>
					</g>
				</g>
				<g>
					<g>
						<path class="st2" d="M160.1,106.8l21.7,0.4c0.5,0,0.9-0.4,0.9-0.9l0,0c0-0.5-0.4-0.9-0.9-0.9l-21.7-0.2
							c-0.4,0-0.7,0.3-0.7,0.8l0,0C159.5,106.4,159.8,106.8,160.1,106.8z"/>
					</g>
				</g>
				<g>
					<g>
						<path class="st2" d="M176.2,111.4l6,0.3c0.3,0,0.6-0.2,0.6-0.6l0,0c0-0.3-0.3-0.6-0.6-0.6l-6-0.2c-0.3,0-0.5,0.2-0.5,0.6l0,0
							C175.6,111.1,175.8,111.4,176.2,111.4z"/>
					</g>
				</g>
				<g>
					<g>
						<path class="st2" d="M166.6,111l5.3,0.2c0.3,0,0.5-0.2,0.5-0.6l0,0c0-0.3-0.2-0.6-0.5-0.6l-5.3-0.2c-0.3,0-0.5,0.2-0.5,0.5
							l0,0C166.1,110.7,166.3,111,166.6,111z"/>
					</g>
				</g>
				<path class="st19" d="M178.3,101.2l4.7-0.1c0.2,0,0.3-0.1,0.3-0.3v-5c0-0.2-0.1-0.3-0.3-0.3l-4.7,0.2c-0.2,0-0.3,0.2-0.3,0.3
					v4.8C178,101.1,178.1,101.2,178.3,101.2z"/>
				<g>
					<g>
						<g>
							<path class="st2" d="M161.6,98.2l5.8-0.1c0.2,0,0.3-0.1,0.3-0.3l0,0c0-0.2-0.1-0.3-0.3-0.3l-5.8,0.2c-0.2,0-0.3,0.1-0.3,0.3
								l0,0C161.3,98.1,161.4,98.2,161.6,98.2z"/>
						</g>
					</g>
					<g>
						<g>
							<path class="st2" d="M161.6,99.5l5.8-0.1c0.2,0,0.3-0.1,0.3-0.3l0,0c0-0.2-0.1-0.3-0.3-0.3l-5.8,0.1c-0.2,0-0.3,0.1-0.3,0.3
								l0,0C161.3,99.4,161.4,99.5,161.6,99.5z"/>
						</g>
					</g>
					<g>
						<g>
							<path class="st2" d="M161.6,100.8l5.9-0.1c0.2,0,0.3-0.1,0.3-0.3l0,0c0-0.2-0.1-0.3-0.3-0.3l-5.8,0.1c-0.2,0-0.3,0.1-0.3,0.3
								l0,0C161.3,100.7,161.4,100.8,161.6,100.8z"/>
						</g>
					</g>
				</g>
			</g>
		</g>
		<g>
			<g>
				<path class="st18" d="M163.7,128.8l17.6,2.2c0.9,0.1,1.6-0.5,1.6-1.4l0.1-5.9c0-0.9-0.7-1.7-1.6-1.8l-17.7-1.4
					c-0.7-0.1-1.3,0.5-1.3,1.3l0,5.3C162.4,128,163,128.8,163.7,128.8z"/>
				<path class="st20" d="M163,127.9l17.5,2.1c0.9,0.1,1.6-0.5,1.6-1.4l0.1-5.9c0-0.9-0.7-1.7-1.6-1.7l-17.6-1.3
					c-0.7-0.1-1.3,0.6-1.3,1.4v5.3C161.7,127.2,162.3,127.9,163,127.9z"/>
			</g>
			<g>
				<path class="st2" d="M168,122.8c0.2,0,0.4,0,0.7,0c0.4,0,0.6,0.1,0.8,0.3c0.2,0.2,0.3,0.4,0.3,0.7c0,0.3-0.1,0.5-0.2,0.7
					c-0.2,0.2-0.5,0.3-0.9,0.3c-0.1,0-0.2,0-0.3-0.1l0,1.3l-0.4,0L168,122.8z M168.3,124.3c0.1,0,0.2,0.1,0.3,0.1
					c0.4,0,0.7-0.2,0.7-0.6c0-0.4-0.3-0.7-0.7-0.7c-0.2,0-0.3,0-0.3,0L168.3,124.3z"/>
				<path class="st2" d="M170.4,125.2l-0.3,1l-0.4-0.1l1-3.2l0.5,0l1.1,3.5l-0.4-0.1l-0.3-1.1L170.4,125.2z M171.4,124.9l-0.3-1
					c-0.1-0.2-0.1-0.4-0.2-0.6l0,0c0,0.2-0.1,0.4-0.2,0.6l-0.3,0.9L171.4,124.9z"/>
				<path class="st2" d="M173.1,126.6l0-1.5l-1-2.1l0.5,0l0.5,1c0.1,0.3,0.2,0.5,0.3,0.8l0,0c0.1-0.2,0.2-0.4,0.4-0.7l0.5-0.9l0.5,0
					l-1.2,2l0,1.5L173.1,126.6z"/>
			</g>
		</g>
	</g>
	<g>
		<defs>
			
				<rect id="SVGID_8_" x="150.8" y="140.8" transform="matrix(-1 -1.224647e-16 1.224647e-16 -1 354.8418 307.8599)" width="53.2" height="26.2"/>
		</defs>
		<clipPath id="SVGID_9_">
			<use xlink:href="#SVGID_8_"  style="overflow:visible;"/>
		</clipPath>
		<g class="st21">
			<path class="st22" d="M181.5,167.5c0.8-1.2,1.9-8.8-0.5-14c0,0,0.3,9.2-1,11.3c-1.3,2.2-1.8,3.1-1.8,3.1L181.5,167.5z"/>
			<path class="st17" d="M179.8,167.1c0.4-1.1-0.3-7.2-3.9-10.4c0,0,2.5,6.8,1.8,8.8s-1,2.9-1,2.9L179.8,167.1z"/>
			<path class="st22" d="M160.1,166.9c-0.4-1.1,0.3-7.2,3.9-10.4c0,0-2.5,6.8-1.8,8.8c0.7,2,1,2.9,1,2.9L160.1,166.9z"/>
			<path class="st17" d="M182.2,168.1c-0.4-1.5-1-10.6,1.9-17.7c2.9-7,3.2-6.8,3.2-6.8s-3.2,11.2-3.6,14.9c-0.2,2.4-0.2,9.7-0.2,9.7
				L182.2,168.1z"/>
			<path class="st17" d="M168.1,168.2c-0.3-0.7-0.7-5.2,1.4-8.6c2.1-3.4,2.3-3.3,2.3-3.3s-2.3,5.4-2.6,7.2c-0.2,1.2-0.2,4.7-0.2,4.7
				L168.1,168.2z"/>
			<path class="st22" d="M160.4,168.3c-0.7-0.3-4.2-3-5.3-6.9c-1.1-3.9-0.8-4-0.8-4s2.4,5.4,3.5,6.8c0.7,0.9,3.3,3.4,3.3,3.4
				L160.4,168.3z"/>
			<path class="st22" d="M172.5,167.4c-0.8-1.2-1.9-8.8,0.5-14c0,0-0.3,9.2,1,11.3c1.3,2.2,1.8,3.1,1.8,3.1L172.5,167.4z"/>
			<path class="st22" d="M174.3,167c-0.4-1.1,0.3-7.2,3.9-10.4c0,0-2.5,6.8-1.8,8.8c0.7,2,1,2.9,1,2.9L174.3,167z"/>
			<path class="st17" d="M194,166.8c0.4-1.1-0.3-7.2-3.9-10.4c0,0,2.5,6.8,1.8,8.8c-0.7,2-1,2.9-1,2.9L194,166.8z"/>
			<path class="st22" d="M187,167.6c-0.6-1.1-1.4-7.8,2.8-13c4.3-5.2,4.8-5,4.8-5s-4.7,8.2-5.3,11c-0.4,1.7-0.3,7.1-0.3,7.1
				L187,167.6z"/>
			<path class="st22" d="M171.7,168c0.6-1.5,1.4-10.6-2.8-17.7c-4.3-7-4.8-6.8-4.8-6.8s4.7,11.2,5.3,14.9c0.4,2.4,0.3,9.7,0.3,9.7
				L171.7,168z"/>
			<path class="st22" d="M185.9,168.1c0.3-0.7,0.7-5.2-1.4-8.6c-2.1-3.4-2.3-3.3-2.3-3.3s2.3,5.4,2.6,7.2c0.2,1.2,0.2,4.7,0.2,4.7
				L185.9,168.1z"/>
			<path class="st17" d="M193.6,168.2c0.7-0.3,4.2-3,5.3-6.9c1.1-3.9,0.8-4,0.8-4s-2.4,5.4-3.5,6.8c-0.7,0.9-3.3,3.4-3.3,3.4
				L193.6,168.2z"/>
		</g>
	</g>
	<g>
		<g>
			<g>
				<g>
					<g>
						<g>
							<g>
								<g>
									<g>
										<g>
											<g>
												<g>
													<g>
														<g>
															<path class="st23" d="M133.4,157c0,2.3-0.1,4.5-0.1,6.8c0.4,0.2,1,0.5,1.8,0.6c0.8,0.1,1.4,0.1,1.8,0
																c0.2-2.6,0.5-5.3,0.7-7.9C136.2,156.7,134.8,156.8,133.4,157z"/>
															<path class="st23" d="M136.1,164.6c-0.4,0-0.7,0-1.1-0.1c-0.7-0.1-1.3-0.3-1.9-0.6c0,0-0.1-0.1-0.1-0.1l0.1-6.8
																c0-0.1,0-0.1,0.1-0.1l4.3-0.5c0,0,0.1,0,0.1,0c0,0,0,0.1,0,0.1l-0.7,7.9c0,0.1-0.1,0.1-0.1,0.1
																C136.6,164.6,136.4,164.6,136.1,164.6z M133.3,163.7c0.5,0.3,1.1,0.5,1.7,0.6c0.6,0.1,1.1,0.1,1.7,0l0.7-7.7l-4,0.4
																L133.3,163.7z"/>
														</g>
													</g>
												</g>
											</g>
										</g>
									</g>
								</g>
							</g>
						</g>
					</g>
				</g>
				<g>
					<g>
						<g>
							<g>
								<g>
									<g>
										<g>
											<g>
												<g>
													<g>
														<g>
															<path class="st24" d="M144.4,166.5c0,0.3-0.4,0.5-1.3,0.7c-2.5-0.2-4.4,0-5.9,0.2c-0.1,0-0.1,0-0.2,0
																c-1.7-0.3-2.9-0.1-3.9-0.2c-0.2,0-0.4-0.1-0.6-0.2c-0.1-0.2-0.2-0.4-0.3-0.7c-0.1-0.3-0.1-0.6-0.1-0.7
																c0-1.3,0.9-2.1,1-2.3c0.6,0.8,1.5,1.1,2.4,0.9c0.8-0.2,1.2-0.8,1.3-1l3.9,1.8C143.2,165.5,144.4,166,144.4,166.5z"/>
														</g>
													</g>
												</g>
											</g>
										</g>
									</g>
								</g>
							</g>
						</g>
					</g>
				</g>
				<g>
					<g>
						<g>
							<g>
								<g>
									<g>
										<g>
											<g>
												<g>
													<g>
														<g>
															<path class="st24" d="M144.4,166.5l0,0.6c0,0-5.2,0.6-7.1,0.3c-0.1,0-0.1,0-0.2,0c-1.7-0.3-2.9-0.1-3.9-0.2
																c-0.2,0-0.4-0.1-0.6-0.2c-0.5-0.3-0.5-0.7-0.5-0.7s0.1,0,0.2,0C133.9,166.3,142.5,166.9,144.4,166.5z"/>
														</g>
													</g>
												</g>
											</g>
										</g>
									</g>
								</g>
							</g>
						</g>
					</g>
				</g>
			</g>
			<g>
				<g>
					<g>
						<g>
							<g>
								<g>
									<g>
										<g>
											<g>
												<g>
													<g>
														<g>
															<path class="st23" d="M123.3,157.1c0,2.3-0.1,4.5-0.1,6.8c0.4,0.2,1,0.5,1.8,0.6c0.8,0.1,1.4,0.1,1.8,0
																c0.2-2.6,0.5-5.3,0.7-7.9C126.1,156.8,124.7,156.9,123.3,157.1z"/>
															<path class="st23" d="M126,164.7c-0.4,0-0.7,0-1.1-0.1c-0.7-0.1-1.3-0.3-1.9-0.6c0,0-0.1-0.1-0.1-0.1l0.1-6.8
																c0-0.1,0-0.1,0.1-0.1l4.3-0.5c0,0,0.1,0,0.1,0c0,0,0,0.1,0,0.1l-0.7,7.9c0,0.1-0.1,0.1-0.1,0.1
																C126.6,164.7,126.3,164.7,126,164.7z M123.3,163.8c0.5,0.3,1.1,0.5,1.7,0.6c0.6,0.1,1.1,0.1,1.7,0l0.7-7.7l-4,0.4
																L123.3,163.8z"/>
														</g>
													</g>
												</g>
											</g>
										</g>
									</g>
								</g>
							</g>
						</g>
					</g>
				</g>
				<g>
					<g>
						<g>
							<g>
								<g>
									<g>
										<g>
											<g>
												<g>
													<g>
														<g>
															<path class="st24" d="M134.3,166.6c0,0.3-0.4,0.5-1.3,0.7c-2.5-0.2-4.4,0-5.9,0.2c-0.1,0-0.1,0-0.2,0
																c-1.7-0.3-2.9-0.1-3.9-0.2c-0.2,0-0.4-0.1-0.6-0.2c-0.1-0.2-0.2-0.4-0.3-0.7c-0.1-0.3-0.1-0.6-0.1-0.7
																c0-1.3,0.9-2.1,1-2.3c0.6,0.8,1.5,1.1,2.4,0.9c0.8-0.2,1.2-0.8,1.3-1l3.9,1.8C133.1,165.6,134.3,166.1,134.3,166.6z"
																/>
														</g>
													</g>
												</g>
											</g>
										</g>
									</g>
								</g>
							</g>
						</g>
					</g>
				</g>
				<g>
					<g>
						<g>
							<g>
								<g>
									<g>
										<g>
											<g>
												<g>
													<g>
														<g>
															<path class="st24" d="M134.3,166.6l0,0.6c0,0-5.2,0.6-7.1,0.3c-0.1,0-0.1,0-0.2,0c-1.7-0.3-2.9-0.1-3.9-0.2
																c-0.2,0-0.4-0.1-0.6-0.2c-0.5-0.3-0.5-0.7-0.5-0.7s0.1,0,0.2,0C123.8,166.4,132.4,167,134.3,166.6z"/>
														</g>
													</g>
												</g>
											</g>
										</g>
									</g>
								</g>
							</g>
						</g>
					</g>
				</g>
			</g>
			<g>
				<g>
					<path class="st25" d="M139.4,111.5c0.1,2.7,0.1,6.2,0.2,10.2c0,6.6-0.1,11.6-0.2,15.7c-0.1,3.8-0.2,6.7-0.4,10.5
						c-0.3,5.6-0.7,10.2-1,13.5c-0.4,0.3-1.3,1.1-2.7,1.4c-1.9,0.3-3.3-0.5-3.7-0.8c-0.2-3.6-0.3-6.8-0.3-9.6c0,0-0.1-6.3-0.1-12.2
						c0-1.1,0-0.8,0-3.1c0-4.6,0.1-6.9,0-8.6c0-2-0.1-4.9-0.4-8.3c-0.1,1.7-0.2,5.7-0.4,9.8c-0.1,2.1-0.2,4.1-0.2,4.2
						c-0.1,1.3-0.2,2.4-0.2,3.4c-0.3,4.3-0.7,11.6-1.4,24.7c-0.7,0.3-1.9,0.7-3.5,0.6c-1.7-0.1-2.9-0.6-3.6-0.9
						c-0.2-21.7-0.2-31.1-0.2-35.2c0-4.2,0.2-7.8,0.2-8.4c0.1-2.8,0.2-5.3,0.3-7.4C127.7,111.1,133.6,111.3,139.4,111.5z"/>
					<path class="st12" d="M139.4,111.5c0,0.7,0,1.4,0,2.2c-1.2,1-2.9,1.6-5.1,1.8c-3.3,0.3-7.6,0.6-10.5,0.3
						c-0.8-0.1-1.5-0.2-2.2-0.2c0.1-1.8,0.1-3.3,0.2-4.7C127.7,111.1,133.6,111.3,139.4,111.5z"/>
				</g>
				<path class="st12" d="M121.5,118.2c0.1-2.8,0.2-5.3,0.3-7.4c1.1,0,2.2,0.1,3.3,0.1c-1.2,6.7-2.3,18.9-2.4,23.2
					c-0.1,4.9,0,24.7,0,28.2c-0.5-0.2-0.9-0.4-1.2-0.5c-0.2-21.7-0.2-31.1-0.2-35.2C121.4,122.5,121.5,118.8,121.5,118.2z"/>
			</g>
			<g class="st26">
				<g>
					
						<linearGradient id="SVGID_10_" gradientUnits="userSpaceOnUse" x1="1007.6934" y1="136.621" x2="1025.939" y2="136.621" gradientTransform="matrix(-1 0 0 1 1147.2716 0)">
						<stop  offset="0" style="stop-color:#3490E8"/>
						<stop  offset="1" style="stop-color:#1C478D"/>
					</linearGradient>
					<path class="st27" d="M139.4,111.2c0.1,2.7,0.1,6.2,0.2,10.2c0,6.6-0.1,11.6-0.2,15.7c-0.1,3.8-0.2,6.7-0.4,10.5
						c-0.3,5.6-0.7,10.2-1,13.5c-0.4,0.3-1.3,1.1-2.7,1.4c-1.9,0.3-3.3-0.5-3.7-0.8c-0.2-3.6-0.3-6.8-0.3-9.6c0,0-0.1-6.3-0.1-12.2
						c0-1.1,0-0.8,0-3.1c0-4.6,0.1-6.9,0-8.6c0-2-0.1-4.9-0.4-8.3c-0.1,1.7-0.2,5.7-0.4,9.8c-0.1,2.1-0.2,4.1-0.2,4.2
						c-0.1,1.3-0.2,2.4-0.2,3.4c-0.3,4.3-0.7,11.6-1.4,24.7c-0.7,0.3-1.9,0.7-3.5,0.6c-1.7-0.1-2.9-0.6-3.6-0.9
						c-0.2-21.7-0.2-31.1-0.2-35.2c0-4.2,0.2-7.8,0.2-8.4c0.1-2.8,0.2-5.3,0.3-7.4C127.7,110.8,133.6,111,139.4,111.2z"/>
				</g>
			</g>
			<g>
				<path class="st2" d="M122.9,117.8c-0.1,0-0.1-0.1-0.1-0.1c0-0.1,0.1-0.1,0.1-0.1c0,0,2.1,0,3.2-1.2c0.5-0.6,0.8-1.3,0.8-2.2
					c0-0.1,0.1-0.1,0.1-0.1c0.1,0,0.1,0.1,0.1,0.1c0,0.9-0.3,1.7-0.8,2.3C125.1,117.8,123,117.8,122.9,117.8z"/>
			</g>
			<g>
				<path class="st28" d="M164.1,88.4c0.1-0.5-0.3-1.1-1-1.2c0.1,0,0.4,0,0.6-0.3c0.2-0.3,0.2-0.6,0.1-0.9c-0.2-0.4-0.7-0.6-1.2-0.3
					c0-0.1,0.1-0.2,0.1-0.4c0,0,0.1-0.4-0.4-1c-0.4-0.5-3.4,0.2-5.5,0.8c0,0,0,0,0,0c0.2-0.4,0.4-0.9,0.3-1.3c0-0.1,0-0.2-0.1-0.3
					c0-0.1-0.1-0.1-0.1-0.2c0-0.1-0.2-0.3-0.5-0.3c-0.1,0-0.2,0-0.3,0c-0.2,0-0.4,0.2-0.6,0.4c-0.1,0.1-0.1,0.1-0.2,0.2
					c-0.3,0.3-0.6,0.5-0.8,0.8c-0.6,0.5-0.9,0.9-1.2,1.1c-0.3,0.3-0.4,0.4-0.6,0.7c-0.1,0.2-0.3,0.4-0.4,0.7
					c-1.5,0.9-10.8,6.3-13.1,8.4c-3.7-2.3-7.5-4.7-11.2-7l-1,5.5c6.1,5.6,9.1,8.4,11.3,8.7c2.8,0.4,6.9-0.7,12.8-7.7
					c0.6-0.5,1.5-1.1,2.7-1.7c1.1-0.5,1.8-0.6,2.3-0.8c3.4,0.3,6.5-0.9,7.2-1.5c0.2-0.2,0.6-0.5,0.5-0.9c-0.1-0.4-0.5-0.6-0.7-0.6
					C163.7,89,164,88.7,164.1,88.4z"/>
				<path class="st28" d="M139.6,102.6c-0.4,0-0.7,0-1-0.1c-2.2-0.3-5.1-2.9-11.4-8.7c0,0,0-0.1,0-0.1l1-5.5c0,0,0-0.1,0.1-0.1
					c0,0,0.1,0,0.1,0l11.1,6.9c1.9-1.7,8-5.4,11.3-7.3c0.8-0.5,1.4-0.8,1.7-1c0.1-0.2,0.3-0.4,0.4-0.6c0.2-0.2,0.3-0.3,0.6-0.7
					c0.2-0.2,0.5-0.5,0.9-0.9l0.2-0.2c0.2-0.2,0.4-0.4,0.6-0.6l0.2-0.2c0.1,0,0.1-0.1,0.2-0.1c0.2-0.2,0.4-0.3,0.7-0.4
					c0.1,0,0.2,0,0.3,0c0.2,0,0.4,0.2,0.5,0.4c0.1,0.1,0.1,0.2,0.1,0.2c0,0.1,0.1,0.2,0.1,0.3c0,0.3-0.1,0.7-0.2,1.1
					c4.9-1.4,5.3-0.9,5.4-0.7c0.5,0.5,0.4,1,0.4,1.1c0,0,0,0.1,0,0.1c0.5-0.1,0.9,0.1,1.1,0.5c0.2,0.3,0.1,0.7-0.1,1
					c-0.1,0.1-0.2,0.2-0.3,0.2c0.2,0.1,0.3,0.2,0.4,0.4c0.2,0.2,0.2,0.5,0.2,0.8c-0.1,0.3-0.3,0.6-0.6,0.8c0.2,0.1,0.4,0.3,0.5,0.6
					c0.1,0.4-0.4,0.8-0.5,1c-0.6,0.6-3.7,1.9-7.2,1.5c-0.2,0.1-0.5,0.2-0.8,0.3c-0.4,0.1-0.9,0.3-1.5,0.6c-1,0.4-1.9,1-2.7,1.6
					C147,99.9,143.1,102.6,139.6,102.6z M127.3,93.6c5.8,5.3,9,8.3,11.2,8.6c3.7,0.6,7.9-2,12.7-7.7c0,0,0,0,0,0
					c0.8-0.7,1.8-1.3,2.7-1.7c0.6-0.3,1.1-0.4,1.5-0.6c0.3-0.1,0.6-0.2,0.8-0.3c0,0,0,0,0.1,0c3.4,0.3,6.5-0.9,7.1-1.5
					c0.2-0.1,0.5-0.5,0.5-0.8c-0.1-0.3-0.4-0.5-0.6-0.5c-0.1,0-0.1-0.1-0.1-0.1c0-0.1,0-0.1,0.1-0.1c0.4-0.1,0.7-0.4,0.7-0.7l0,0
					c0-0.2,0-0.4-0.2-0.6c-0.2-0.2-0.4-0.4-0.7-0.4c-0.1,0-0.1-0.1-0.1-0.1c0-0.1,0.1-0.1,0.1-0.1c0.1,0,0.3,0,0.5-0.3
					c0.2-0.2,0.2-0.5,0.1-0.7c-0.2-0.3-0.6-0.5-1.1-0.3c-0.1,0-0.1,0-0.1,0c0,0,0-0.1,0-0.2c0.1-0.1,0.1-0.2,0.1-0.3
					c0,0,0-0.4-0.3-0.9c-0.1-0.1-0.8-0.5-5.4,0.9c0,0-0.1,0-0.1,0c0,0,0-0.1,0-0.1c0.2-0.5,0.3-0.9,0.3-1.3c0-0.1,0-0.2-0.1-0.3
					c0-0.1-0.1-0.1-0.1-0.2c-0.1-0.2-0.2-0.3-0.4-0.3c-0.1,0-0.1,0-0.2,0c-0.2,0-0.4,0.2-0.6,0.3c-0.1,0-0.1,0.1-0.2,0.1l-0.2,0.2
					c-0.2,0.2-0.4,0.4-0.6,0.6l-0.2,0.2c-0.4,0.4-0.7,0.7-0.9,0.9c-0.3,0.3-0.4,0.4-0.6,0.6c-0.1,0.2-0.3,0.4-0.4,0.7c0,0,0,0,0,0
					c-0.3,0.2-0.9,0.5-1.7,1c-3.1,1.8-9.6,5.7-11.4,7.3c0,0-0.1,0-0.2,0l-11-6.9L127.3,93.6z"/>
			</g>
			<g>
				<g>
					<path class="st11" d="M130.4,87.9c0.8-0.1,1.8-0.1,2.8,0.1c4.2,1,5.9,5.7,6.1,6.3c-0.3,0.4-0.6,0.8-1,1.2
						c-1.7,1.6-3.7,2-4.7,2.1c-1-1.1-3-3.6-3.3-7.2C130.2,89.5,130.3,88.7,130.4,87.9z"/>
				</g>
			</g>
			<g>
				<g>
					<path class="st29" d="M139.9,113c-1,0.4-2.2,0.8-3.7,1.2c-0.3,0.1-0.5,0.1-0.8,0.2c-1.5,0.3-3.2,0.6-5.1,0.6
						c-1.1,0-2.2,0-3.2-0.1c0,0,0,0-0.1,0c-2.3-0.2-4.2-0.6-5.7-1c0-0.6,0-1.2,0-1.8c0-0.2,0-0.3,0-0.5c0-1.7,0-3.3,0.1-4.8
						c0-0.2,0-0.4,0-0.6c0.1-2.1,0.2-4,0.3-5.7c0-0.1,0-0.2,0-0.3l0,0c0,0,0,0,0-0.1c0,0,0,0,0,0c0,0,0,0,0,0c0-0.5,0.1-1.1,0.1-1.6
						c0-0.2,0-0.4,0-0.5c0-0.2,0-0.3,0-0.5c0-0.1,0-0.2,0-0.2c0.1-1.6,0.3-3,0.5-4.2c0-0.1,0.1-0.3,0.1-0.4c0,0,0,0,0,0
						c0,0,0-0.1,0-0.1c0.4-1.6,0.9-2.8,1.9-3.7c0.1-0.1,0.1-0.1,0.2-0.2c0.1,0,0.1-0.1,0.2-0.1c0.8-0.6,1.8-1.2,2.9-1.5
						c0.1,0,0.1,0,0.2,0c1.2-0.3,2.6-0.4,3.9,0c0.1,0,0.2,0,0.3,0.1c0,0,0.1,0,0.2,0.1c0.5,0.2,1.3,0.5,2.1,1.2
						c0.8,0.6,1.4,1.3,1.9,2.1c0.1,0.1,0.2,0.3,0.2,0.4c0.5,0.9,0.8,1.9,1.1,2.9c0.2,0.6,0.3,1.3,0.5,2c0,0.1,0.1,0.3,0.1,0.4
						c0.1,0.7,0.3,1.4,0.4,2.2c0.1,0.8,0.2,1.6,0.3,2.4c0,0.3,0.1,0.6,0.1,0.9c0,0.2,0,0.3,0.1,0.5c0.1,0.5,0.1,1.1,0.2,1.6
						c0,0.4,0.1,0.7,0.1,1.1c0,0.3,0.1,0.6,0.1,0.9c0,0.1,0,0.3,0,0.4c0.1,1.2,0.2,2.3,0.2,3.2c0,0.1,0,0.3,0,0.4
						C139.9,111.6,139.9,112.8,139.9,113z"/>
					<g>
						<defs>
							<path id="SVGID_11_" d="M139.9,113c-1,0.4-2.2,0.8-3.7,1.2c-0.3,0.1-0.5,0.1-0.8,0.2c-1.5,0.3-3.2,0.6-5.1,0.6
								c-1.1,0-2.2,0-3.2-0.1c0,0,0,0-0.1,0c-2.3-0.2-4.2-0.6-5.7-1c0-0.6,0-1.2,0-1.8c0-0.2,0-0.3,0-0.5c0-1.7,0-3.3,0.1-4.8
								c0-0.2,0-0.4,0-0.6c0.1-2.1,0.2-4,0.3-5.7c0-0.1,0-0.2,0-0.3l0,0c0,0,0,0,0-0.1c0,0,0,0,0,0c0,0,0,0,0,0
								c0-0.5,0.1-1.1,0.1-1.6c0-0.2,0-0.4,0-0.5c0-0.2,0-0.3,0-0.5c0-0.1,0-0.2,0-0.2c0.1-1.6,0.3-3,0.5-4.2c0-0.1,0.1-0.3,0.1-0.4
								c0,0,0,0,0,0c0,0,0-0.1,0-0.1c0.4-1.6,0.9-2.8,1.9-3.7c0.1-0.1,0.1-0.1,0.2-0.2c0.1,0,0.1-0.1,0.2-0.1
								c0.8-0.6,1.8-1.2,2.9-1.5c0.1,0,0.1,0,0.2,0c1.2-0.3,2.6-0.4,3.9,0c0.1,0,0.2,0,0.3,0.1c0,0,0.1,0,0.2,0.1
								c0.5,0.2,1.3,0.5,2.1,1.2c0.8,0.6,1.4,1.3,1.9,2.1c0.1,0.1,0.2,0.3,0.2,0.4c0.5,0.9,0.8,1.9,1.1,2.9c0.2,0.6,0.3,1.3,0.5,2
								c0,0.1,0.1,0.3,0.1,0.4c0.1,0.7,0.3,1.4,0.4,2.2c0.1,0.8,0.2,1.6,0.3,2.4c0,0.3,0.1,0.6,0.1,0.9c0,0.2,0,0.3,0.1,0.5
								c0.1,0.5,0.1,1.1,0.2,1.6c0,0.4,0.1,0.7,0.1,1.1c0,0.3,0.1,0.6,0.1,0.9c0,0.1,0,0.3,0,0.4c0.1,1.2,0.2,2.3,0.2,3.2
								c0,0.1,0,0.3,0,0.4C139.9,111.6,139.9,112.8,139.9,113z"/>
						</defs>
						<use xlink:href="#SVGID_11_"  style="overflow:visible;fill:#FE4F5A;"/>
						<clipPath id="SVGID_12_">
							<use xlink:href="#SVGID_11_"  style="overflow:visible;"/>
						</clipPath>
						<path class="st30" d="M120.4,94l8.8,1c2.1,0.2,4.2,0.2,6.2-0.3l3.8-0.8v-2.8l-3.8,0.8c-2,0.4-4.1,0.5-6.2,0.3l-8.8-1V94z"/>
						<path class="st30" d="M120.8,99.6l8.8,1c2.1,0.2,4.2,0.2,6.2-0.3l3.8-0.8v-2.8l-3.8,0.8c-2,0.4-4.1,0.5-6.2,0.3l-8.8-1V99.6z"
							/>
						<path class="st30" d="M121.4,106.1l5.4,1c0.1,0,0.2,0,0.3,0c2.2,0.2,7.3,0.1,9.3-0.3l3.8-0.8v-2.8l-3.8,0.8
							c-2,0.4-7.1,0.5-9.3,0.3c-0.1,0-0.2,0-0.3,0l-5.4-1V106.1z"/>
						<path class="st30" d="M121.4,111.8l5.4,1c0.1,0,0.2,0,0.3,0c2.2,0.2,7.3,0.1,9.3-0.3l3.8-0.8V109l-3.8,0.8
							c-2,0.4-7.2,0.5-9.3,0.3c-0.1,0-0.2,0-0.3,0l-5.4-1V111.8z"/>
					</g>
					<path class="st31" d="M138.1,101.7c0.8-0.2-8.8-9.5-8.8-9.5c-1.1-0.6-2.4-1-3.7-1.1c-0.3,0.5-0.5,1-0.8,1.6c0,0,0,0.1,0,0.1
						c0,0,0,0,0,0c0,0.1-0.1,0.3-0.1,0.4c-0.4,1-0.6,2.2-1,3.6c1.2,1.8,2.8,3.5,3.9,4.5C129.8,103.2,137.3,102,138.1,101.7z"/>
					
						<linearGradient id="SVGID_13_" gradientUnits="userSpaceOnUse" x1="112.3663" y1="100.926" x2="130.9138" y2="100.926" gradientTransform="matrix(1 0 0 1 9.0263 0)">
						<stop  offset="1.300000e-07" style="stop-color:#D43A44"/>
						<stop  offset="1" style="stop-color:#FE4F5A"/>
					</linearGradient>
					<path class="st32" d="M139.9,113c-1,0.4-2.2,0.8-3.7,1.2c-0.3,0.1-0.5,0.1-0.8,0.2c-1.5,0.3-3.2,0.6-5.1,0.6
						c-1.1,0-2.2,0-3.2-0.1c0,0,0,0-0.1,0c-2.3-0.2-4.2-0.6-5.7-1c0-0.6,0-1.2,0-1.8c0-0.2,0-0.3,0-0.5c0-1.7,0-3.3,0.1-4.8
						c0-0.2,0-0.4,0-0.6c0.1-2.1,0.2-4,0.3-5.7c0-0.1,0-0.2,0-0.3l0,0c0,0,0,0,0-0.1c0,0,0,0,0,0c0,0,0,0,0,0c0-0.5,0.1-1.1,0.1-1.6
						c0-0.2,0-0.4,0-0.5c0-0.2,0-0.3,0-0.5c0-0.1,0-0.2,0-0.2c0.1-1.6,0.3-3,0.5-4.2c0-0.1,0.1-0.3,0.1-0.4c0,0,0,0,0,0
						c0,0,0-0.1,0-0.1c0.4-1.6,0.9-2.8,1.9-3.7c0.1-0.1,0.1-0.1,0.2-0.2c0.1,0,0.1-0.1,0.2-0.1c0.8-0.6,1.8-1.2,2.9-1.5
						c0.1,0,0.1,0,0.2,0c1.2-0.3,2.6-0.4,3.9,0c0.1,0,0.2,0,0.3,0.1c0,0,0.1,0,0.2,0.1c0.5,0.2,1.3,0.5,2.1,1.2
						c0.8,0.6,1.4,1.3,1.9,2.1c0.1,0.1,0.2,0.3,0.2,0.4c0.5,0.9,0.8,1.9,1.1,2.9c0.2,0.6,0.3,1.3,0.5,2c0,0.1,0.1,0.3,0.1,0.4
						c0.1,0.7,0.3,1.4,0.4,2.2c0.1,0.8,0.2,1.6,0.3,2.4c0,0.3,0.1,0.6,0.1,0.9c0,0.2,0,0.3,0.1,0.5c0.1,0.5,0.1,1.1,0.2,1.6
						c0,0.4,0.1,0.7,0.1,1.1c0,0.3,0.1,0.6,0.1,0.9c0,0.1,0,0.3,0,0.4c0.1,1.2,0.2,2.3,0.2,3.2c0,0.1,0,0.3,0,0.4
						C139.9,111.6,139.9,112.8,139.9,113z"/>
				</g>
				<path class="st33" d="M124.1,103.9c0.1-3.2,0.9-8.7-0.8-13.5c-0.3,0.6-0.6,1.3-0.8,2.2c0,0,0,0.1,0,0.1c0,0,0,0,0,0
					c0,0.1-0.1,0.3-0.1,0.4c-0.2,1.2-0.4,2.6-0.5,4.2c0,0.1,0,0.2,0,0.2c0,0.2,0,0.3,0,0.5c0,0.2,0,0.4,0,0.5c0,0.5-0.1,1-0.1,1.6
					c0,0,0,0,0,0c0,0,0,0,0,0c0,0,0,0,0,0.1l0,0c0,0.1,0,0.1,0,0.3c-0.1,1.7-0.2,3.6-0.3,5.7c0,0.2,0,0.4,0,0.6
					c0,1.5-0.1,3.1-0.1,4.8c0,0.2,0,0.3,0,0.5c0,0.6,0,1.2,0,1.8c0.8,0.2,1.8,0.4,2.8,0.6C124,112,124.1,107.1,124.1,103.9z"/>
			</g>
			<g>
				<g>
					<path class="st2" d="M132,89.6c-0.1-0.1-0.3-0.2-0.4-0.1c-0.1,0.1-0.2,0.3-0.1,0.4c0.1,0.1,0.3,0.2,0.4,0.1
						C132,89.9,132.1,89.8,132,89.6z"/>
				</g>
				<g>
					<path class="st2" d="M132.5,91c-0.1-0.1-0.3-0.2-0.4-0.1c-0.1,0.1-0.2,0.3-0.1,0.4c0.1,0.1,0.3,0.2,0.4,0.1
						S132.5,91.1,132.5,91z"/>
				</g>
				<g>
					<path class="st2" d="M132.3,92.5l0-0.2c0.3,0,0.5-0.3,0.5-0.6c0-0.3-0.1-0.6-0.1-0.9l-0.6-2.1l0.2,0l0.6,2.1
						c0.1,0.3,0.2,0.6,0.1,1C132.9,92.1,132.7,92.5,132.3,92.5z"/>
				</g>
			</g>
			<g>
				<path class="st23" d="M152.3,90.2c-0.1,0-0.2-0.1-0.2-0.1c0,0,0,0,0,0c0,0,0,0,0,0c0,0,0,0,0-0.1c0.3-0.9-0.8-1.5-1-1.6
					c0,0,0,0,0,0c0,0,0,0,0,0c0,0,0,0,0-0.1c0,0,0-0.1,0-0.1c-0.1-0.4-0.4-0.7-0.7-0.9c-0.2-0.1-0.4-0.2-0.6-0.3c0,0-0.1,0-0.1,0
					c0.3-0.1,0.7-0.3,1.1-0.5c0.9-0.5,1.8-1.1,1.7-1.6c0-0.2-0.2-0.3-0.4-0.4c-1.2-0.7-3.4,0.7-4.1,1.1c-1.9,1.2-3.4,2.8-4.6,4.5
					c-2.6,2.2-5.1,4.4-7.7,6.6c0,0,0,0-0.1-0.1c-0.1-0.1-0.2-0.2-0.3-0.3c-1.1-0.8-2.8-2.2-5-3.9c-2.2-1.7-3.4-2.6-4.7-2.4
					c-0.9,0.2-1.9,0.8-2.2,1.7c-0.3,0.9,0.1,2,2.6,4.6c4,4.1,6.2,6.4,9.9,6.6c2.5,0.1,4.4-0.8,5.3-1.2c3.7-1.8,5.5-4.9,6.2-6.5
					c2.3-1.4,5.2-3.7,5.2-3.7C153.6,90.8,152.7,90.3,152.3,90.2z"/>
				<path class="st23" d="M136.4,103.3c-0.2,0-0.3,0-0.5,0c-3.7-0.2-6-2.5-10-6.6c-2.6-2.6-2.9-3.8-2.6-4.7c0.3-1,1.4-1.7,2.3-1.8
					c1.4-0.3,2.6,0.7,4.8,2.4c1.7,1.3,3.4,2.7,5,3.9c0.1,0.1,0.2,0.2,0.3,0.2l7.6-6.5c1.4-2,2.9-3.5,4.6-4.5c0.7-0.5,3-1.9,4.3-1.2
					c0.1,0.1,0.4,0.2,0.4,0.5c0.1,0.5-0.5,1-1.8,1.7c-0.2,0.1-0.5,0.3-0.8,0.4c0.1,0.1,0.3,0.1,0.4,0.2c0.4,0.3,0.7,0.6,0.7,1
					c0,0,0,0.1,0,0.1c0.3,0.2,1.3,0.8,1,1.7c0,0,0.1,0,0.1,0c0,0,0,0,0,0c0.3,0.1,0.7,0.3,0.8,0.7c0.1,0.3,0,0.6-0.4,1c0,0,0,0,0,0
					c0,0-2.9,2.4-5.2,3.7c-0.8,1.7-2.6,4.7-6.2,6.5C140.5,102.4,138.7,103.3,136.4,103.3z M126,90.4c-0.1,0-0.3,0-0.4,0
					c-0.8,0.2-1.8,0.8-2.1,1.6c-0.2,0.7,0,1.7,2.6,4.4c4,4.1,6.2,6.4,9.8,6.6c2.5,0.1,4.4-0.8,5.3-1.2c3.6-1.7,5.4-4.8,6.1-6.4
					c0,0,0,0,0.1-0.1c2.2-1.3,5-3.6,5.1-3.7c0.3-0.3,0.4-0.6,0.3-0.8c-0.1-0.3-0.5-0.5-0.7-0.5c-0.1,0-0.2-0.1-0.2-0.1
					c-0.1,0-0.1-0.1-0.1-0.1c0,0,0,0,0,0c0,0,0,0,0,0l0.1,0l0,0l-0.1,0c0,0,0,0,0,0c0.3-0.8-0.8-1.4-0.9-1.5c0,0,0,0,0,0
					c0,0-0.1-0.1-0.1-0.1l0,0c0,0,0-0.1,0-0.1c0-0.3-0.2-0.6-0.6-0.8c-0.2-0.1-0.4-0.2-0.6-0.3c0,0-0.1,0-0.1,0
					c-0.1,0-0.1-0.1-0.1-0.1c0-0.1,0-0.1,0.1-0.1c0.4-0.2,0.7-0.3,1.1-0.5c1.6-0.8,1.7-1.3,1.7-1.4c0-0.1-0.2-0.2-0.3-0.3
					c-1.2-0.6-3.3,0.7-4,1.1c-1.6,1-3.1,2.5-4.5,4.5c0,0,0,0,0,0l-7.7,6.6c0,0-0.1,0-0.2,0l-0.1-0.1c-0.1-0.1-0.2-0.2-0.3-0.3
					c-1.6-1.3-3.3-2.6-5-3.9C128.2,91.2,127.1,90.4,126,90.4z"/>
				<g>
					<path class="st28" d="M147.1,88.9C147.1,88.9,147.1,88.8,147.1,88.9c-0.1-0.1-0.1-0.2-0.1-0.2c0.1-0.1,1.6-1.3,2.6-1.6
						c0.1,0,0.1,0,0.2,0.1c0,0.1,0,0.1-0.1,0.2C148.8,87.6,147.2,88.8,147.1,88.9C147.2,88.9,147.2,88.9,147.1,88.9z"/>
				</g>
				<g>
					<path class="st28" d="M148.6,90.2C148.5,90.2,148.5,90.2,148.6,90.2c-0.1-0.1-0.1-0.2-0.1-0.2c0,0,1.3-1,2.4-1.6
						c0.1,0,0.1,0,0.2,0c0,0.1,0,0.1,0,0.2C149.9,89.2,148.7,90.2,148.6,90.2C148.6,90.2,148.6,90.2,148.6,90.2z"/>
				</g>
				<g>
					<path class="st28" d="M150,91.7C149.9,91.7,149.9,91.7,150,91.7c-0.1-0.1-0.1-0.1-0.1-0.2c0,0,0.8-0.9,2-1.4
						c0.1,0,0.1,0,0.2,0.1c0,0.1,0,0.1-0.1,0.2C150.8,90.8,150.1,91.7,150,91.7C150,91.7,150,91.7,150,91.7z"/>
				</g>
			</g>
			<g>
				<g>
					<path class="st11" d="M132.8,93.9c-1.2,2.2-4,5.5-5,5.9c-0.2,0.1-0.4,0.1-0.5,0c-0.2-0.1-0.6-0.3-1-0.6
						c-0.1-0.1-0.2-0.2-0.3-0.2c0,0,0,0-0.1,0c-2.9-2.3-3.5-3.9-3.5-3.9c-0.1-0.2-0.8-2.2,0.2-4c0.2-0.3,0.6-1.1,1.5-1.5
						c0.8-0.3,1.6-0.1,2.7,0.1c0.9,0.2,1.7,0.6,1.7,0.6c0.2,0.1,0.3,0.1,0.5,0.2c0.8,0.4,1.4,0.8,2,1.3c0.2,0.1,0.2,0.2,0.3,0.3
						C132.3,92.8,132.9,93.8,132.8,93.9z"/>
				</g>
				<g>
					<path class="st2" d="M126.3,99.2l-0.1-0.1c1.5-1,5.2-5.8,5.3-6.9l0.2,0C131.6,93.5,127.8,98.3,126.3,99.2z"/>
				</g>
			</g>
		</g>
		<g>
			<g>
				<path class="st11" d="M132.6,87.2c0.1,1.2-0.2,1.6-1.5,1.9c-1.2,0.3-3.4-0.7-3.6-2l3.5-0.4C131.4,86.8,132,86.9,132.6,87.2z"/>
			</g>
			<g>
				<path class="st2" d="M135.3,79.1c0.5,0.1,0.9-0.3,1.1-0.8c0.2-0.5,0.2-0.9-0.1-1.1c-0.1,0-0.1,0-0.2,0c0,0.1,0,0.1,0,0.2
					c0.2,0.1,0.2,0.5,0,0.8c-0.2,0.3-0.5,0.7-0.8,0.6c0,0,0,0,0,0c-0.1,0-0.1,0-0.1,0.1C135.2,79,135.2,79,135.3,79.1
					C135.3,79.1,135.3,79.1,135.3,79.1z"/>
			</g>
			<g>
				<g>
					<g>
						<path class="st28" d="M129,81.3l-0.5,5.7c0,0.5,0.4,1,1.1,1.1c0.3,0.1,0.5,0.1,0.9,0.1c0,0,0.1,0,0.1,0c0.7,0,1.2-0.4,1.3-0.9
							l0.5-5.7L129,81.3z"/>
						<path class="st28" d="M130.2,88.3c-0.2,0-0.3,0-0.5-0.1c-0.8-0.2-1.3-0.7-1.2-1.3l0.5-5.7c0-0.1,0.1-0.1,0.1-0.1l3.4,0.3
							c0.1,0,0.1,0.1,0.1,0.1l-0.5,5.7c0,0.6-0.6,1-1.4,1c0,0-0.1,0-0.1,0C130.4,88.3,130.3,88.3,130.2,88.3z M129.2,81.4l-0.5,5.5
							c0,0.5,0.4,0.9,1,1c0.3,0.1,0.6,0.1,0.8,0.1c0,0,0.1,0,0.1,0c0.6,0,1.1-0.4,1.2-0.8l0.5-5.5L129.2,81.4z"/>
					</g>
				</g>
			</g>
			<g>
				<g>
					<g>
						<path class="st24" d="M133.6,79.8c0.4-0.1,0.9-0.1,1.5-0.3c1.1-0.2,1.3-0.4,1.4-0.5c0.4-0.5,0.2-1.5-0.4-2
							c-0.5-0.4-1.2-0.4-1.8-0.2c0-0.1,0.3-0.7,0-1.3c-0.3-0.5-1.3-0.7-2.1-0.2c0-0.1-0.3-0.7-0.9-0.8c-0.6-0.1-1.3,0.4-1.5,1.2
							c-0.4,0.2-1.1,0.7-1.5,1.6c-0.4,0.8-0.4,1.5-0.4,2.5c0,0.6,0.1,1.8,0.8,3c0.1,0.1,0.1,0.2,0.2,0.3c0.1,0,0.3,0.1,0.4,0.1
							c0.1-0.2,0.3-0.6,0.4-1.1c0.2-0.8,0.1-1.1,0.2-1.4C130,80.3,130.8,79.8,133.6,79.8z"/>
					</g>
				</g>
			</g>
			<g>
				<path class="st23" d="M135.1,79.2c-0.3,0.3-0.5,0.4-0.7,0.4c-0.1,0-0.2,0-0.7-0.2c-0.5-0.2-0.6-0.2-0.7-0.3
					c-0.6-0.2-1.3,0.1-2.4,0.6c-0.3,0.1-0.4,0.2-0.5,0.3c-0.1,0-0.2,0.1-0.3,0.2c-0.1-0.1-0.3-0.2-0.4-0.2c-0.3,0-0.5,0.3-0.6,0.5
					c-0.1,0.3,0.1,0.7,0.2,0.9c0.1,0.1,0.2,0.4,0.5,0.6c0,0.1,0,0.2,0,0.3c0,0.5,0,0.7,0,0.9c0.2,0.7,0.7,1.1,1.2,1.5
					c0.6,0.5,1.2,0.9,1.9,0.8c0.4-0.1,0.6-0.3,0.8-0.5c0.6-0.5,0.9-1.3,1.1-2.3C134.9,81.9,135.1,80.7,135.1,79.2z"/>
				<path class="st23" d="M132.4,85.6c-0.6,0-1.1-0.4-1.6-0.8c-0.5-0.4-1.1-0.8-1.3-1.5c-0.1-0.2,0-0.5,0-0.9c0-0.1,0-0.1,0-0.2
					c-0.2-0.2-0.4-0.4-0.5-0.6c-0.2-0.3-0.3-0.6-0.2-1c0.1-0.3,0.4-0.6,0.7-0.6c0.1,0,0.3,0,0.4,0.2c0.1-0.1,0.1-0.1,0.2-0.1
					c0,0,0.1,0,0.1-0.1c0.1,0,0.2-0.1,0.4-0.2c1.1-0.5,1.8-0.8,2.5-0.6c0.1,0,0.1,0,0.2,0.1c0.1,0,0.2,0.1,0.5,0.2
					c0.4,0.1,0.5,0.2,0.6,0.2c0.2,0,0.4-0.1,0.6-0.3c0,0,0.1,0,0.1,0c0,0,0.1,0.1,0.1,0.1c0,1.2-0.1,2.4-0.4,3.5
					c-0.2,1-0.5,1.8-1.2,2.4c-0.2,0.2-0.5,0.4-0.9,0.5C132.6,85.6,132.5,85.6,132.4,85.6z M129.6,80.1
					C129.6,80.1,129.5,80.1,129.6,80.1c-0.2,0-0.4,0.2-0.5,0.4c-0.1,0.3,0.1,0.6,0.2,0.8c0.1,0.2,0.3,0.4,0.5,0.6c0,0,0,0.1,0,0.1
					c0,0.1,0,0.2,0,0.3c0,0.5,0,0.7,0,0.8c0.2,0.6,0.6,1,1.2,1.4c0.6,0.5,1.2,0.9,1.8,0.8c0.4-0.1,0.6-0.3,0.8-0.4
					c0.6-0.5,0.9-1.3,1.1-2.2c0.2-1,0.4-2.1,0.4-3.2c-0.2,0.1-0.3,0.2-0.5,0.2c-0.2,0-0.3,0-0.7-0.2c-0.3-0.1-0.4-0.2-0.5-0.2
					c-0.1,0-0.1,0-0.2-0.1c-0.6-0.2-1.2,0.1-2.3,0.6c-0.2,0.1-0.3,0.1-0.3,0.2c-0.1,0-0.1,0.1-0.2,0.1c-0.1,0-0.2,0.1-0.2,0.2
					c0,0-0.1,0-0.1,0c0,0-0.1,0-0.1,0C129.8,80.2,129.7,80.2,129.6,80.1z"/>
			</g>
			<g>
				<g>
					<g>
						<path class="st24" d="M130.5,79.3c0.2,0,0.3,0.2,0.2,0.3c-0.1,0.2-0.2,0.5-0.1,0.8c0.1,0.3,0.1,0.6,0.1,0.8
							c0,0.1-0.1,0.2-0.2,0.3l0,0c-0.1,0-0.2,0-0.3-0.2c-0.2-0.6-0.6-2.2-0.7-2.1C129.5,79.3,130.1,79.3,130.5,79.3z"/>
					</g>
				</g>
			</g>
			<g>
				<g>
					<path class="st24" d="M129.6,81.6C129.6,81.6,129.5,81.6,129.6,81.6c-0.4-0.4-0.4-0.7-0.3-0.9c0.1-0.2,0.3-0.3,0.6-0.2
						c0.1,0,0.1,0.1,0.1,0.2c0,0.1-0.1,0.1-0.2,0.1c-0.1,0-0.2,0-0.3,0.1c-0.1,0.1-0.1,0.3,0.2,0.6
						C129.7,81.5,129.7,81.5,129.6,81.6C129.7,81.6,129.6,81.6,129.6,81.6z"/>
				</g>
			</g>
			<g>
				<g>
					<path class="st24" d="M133.7,83.1C133.7,83.1,133.6,83.1,133.7,83.1c-0.2,0-0.2-0.1-0.2-0.2c0-0.1,0.1-0.2,0.2-0.1
						c0,0,0.2,0,0.3-0.1c0,0,0.1-0.1,0.1-0.2c0-0.3-0.3-1.3-0.4-1.6c0-0.1,0-0.2,0.1-0.2c0.1,0,0.2,0,0.2,0.1c0,0.1,0.4,1.3,0.4,1.8
						c0,0.2-0.1,0.3-0.2,0.4C134,83.1,133.8,83.1,133.7,83.1z"/>
				</g>
				<g>
					<path class="st24" d="M133.1,84.8C133,84.8,133,84.8,133.1,84.8c-0.5-0.1-0.4-0.9-0.4-1.1c0-0.1,0-0.1,0.1-0.1
						c0.1,0,0.1,0,0.2,0c0.1,0.1,0.3,0.2,0.4,0.3c0.2,0.1,0.4-0.1,0.4-0.1c0.1,0,0.2,0,0.2,0c0.1,0.1,0.1,0.1,0,0.2
						C133.8,84.3,133.4,84.8,133.1,84.8z M133,84c0,0.2,0.1,0.4,0.1,0.4c0.1,0,0.2-0.1,0.3-0.3c-0.1,0-0.1,0-0.2,0
						C133.1,84.1,133,84.1,133,84z"/>
				</g>
				<g>
					<path class="st24" d="M132.5,81.3c0,0.2,0.1,0.4,0.2,0.4c0.1,0,0.2-0.2,0.2-0.4c0-0.2-0.1-0.4-0.2-0.4
						C132.6,80.9,132.5,81.1,132.5,81.3z"/>
				</g>
				<g>
					<path class="st24" d="M134.3,81.3c0,0.2,0.1,0.4,0.2,0.4c0.1,0,0.2-0.2,0.2-0.4s-0.1-0.4-0.2-0.4
						C134.4,80.9,134.3,81.1,134.3,81.3z"/>
				</g>
				<g>
					<path class="st24" d="M133,80.1c-0.1-0.1-0.2-0.2-0.4-0.1c-0.1,0-0.5,0.3-0.5,0.4s0,0.1,0.1,0.1c0.1-0.1,0.3-0.2,0.5-0.2
						c0.1,0,0.3,0,0.3,0C133,80.2,133,80.1,133,80.1z"/>
				</g>
				<g>
					<path class="st24" d="M134.3,80.2c0.1-0.1,0.2-0.2,0.4-0.1c0.1,0,0.5,0.3,0.5,0.4c0.1,0.1,0,0.1-0.1,0.1
						c-0.1-0.1-0.3-0.2-0.5-0.2c-0.1,0-0.3,0-0.3,0C134.2,80.3,134.3,80.2,134.3,80.2z"/>
				</g>
			</g>
		</g>
		<g>
			<g>
				<g>
					<g>
						<path class="st24" d="M143.9,95.2c0.8,0.8,1.7,1.5,2.7,1.9c0.2-0.3,0.3-0.6,0.5-0.9c-0.9-0.4-1.8-1-2.5-1.8
							c-1.3-1.4-1.8-2.9-2-4c-0.3,0.3-0.6,0.6-0.8,0.9C142.2,92.6,142.8,94,143.9,95.2z"/>
					</g>
				</g>
			</g>
			<path class="st24" d="M144.5,94.9l-0.5,0.4c-0.4,0.3-0.9,0.2-1.1-0.2L142,94c-0.3-0.4-0.2-0.9,0.2-1.1l0.5-0.4
				c0.4-0.3,0.9-0.2,1.1,0.2l0.8,1.1C144.9,94.1,144.9,94.6,144.5,94.9z"/>
			<path class="st11" d="M144.5,95.1l-0.5,0.4c-0.4,0.3-0.9,0.2-1.1-0.2l-0.8-1.1c-0.3-0.4-0.2-0.9,0.2-1.1l0.5-0.4
				c0.4-0.3,0.9-0.2,1.1,0.2l0.8,1.1C144.9,94.3,144.9,94.8,144.5,95.1z"/>
		</g>
		<g>
			<g>
				<g>
					<path class="st2" d="M158,93.5l-4-2.4c-0.5-0.3-0.6-0.9-0.3-1.4l5.3-8.8c0.3-0.5,0.9-0.6,1.4-0.3l4,2.4
						c0.5,0.3,0.6,0.9,0.3,1.4l-5.3,8.8C159.1,93.6,158.5,93.8,158,93.5z"/>
				</g>
			</g>
			<g>
				<g>
					<path class="st16" d="M157.9,93.6l-4-2.4c-0.6-0.3-0.7-1.1-0.4-1.6l5.3-8.8c0.2-0.3,0.4-0.5,0.7-0.5c0.3-0.1,0.6,0,0.9,0.1
						l4,2.4c0.6,0.3,0.7,1.1,0.4,1.6l-5.3,8.8c-0.2,0.3-0.4,0.5-0.7,0.5c-0.1,0-0.2,0-0.3,0C158.3,93.8,158.1,93.7,157.9,93.6z
						 M159.7,80.6c-0.2,0.1-0.4,0.2-0.5,0.4l-5.3,8.8c-0.2,0.4-0.1,0.9,0.3,1.1l4,2.4c0.2,0.1,0.4,0.1,0.6,0.1
						c0.2-0.1,0.4-0.2,0.5-0.4l5.3-8.8c0.2-0.4,0.1-0.9-0.3-1.1l-4-2.4c-0.1-0.1-0.3-0.1-0.4-0.1C159.8,80.6,159.7,80.6,159.7,80.6z
						"/>
				</g>
			</g>
			<g>
				<g>
					<path class="st34" d="M158.9,82.7c0.3-0.2,0.6-0.4,0.9-0.4c0.6-0.2,1.4-0.1,2,0.2c0.3,0.2,0.6,0.4,0.8,0.7
						c0.2,0.3,0.4,0.6,0.5,0.9c0.1,0.3,0.1,0.7,0.1,1.1c0,0.1,0,0.2-0.1,0.3c0,0.1,0,0.2-0.1,0.3c0,0.1-0.1,0.2-0.1,0.3l-0.1,0.2
						c-0.2,0.3-0.4,0.6-0.7,0.8c-0.3,0.2-0.6,0.4-1,0.4c-0.1,0-0.2,0-0.3,0c-0.1,0-0.2,0-0.3,0c-0.1,0-0.2,0-0.3,0
						c-0.1,0-0.2,0-0.3,0c-0.3-0.1-0.7-0.2-1-0.4c-0.6-0.4-1-1-1.1-1.7c-0.1-0.3-0.1-0.7,0-1c0.1-0.3,0.2-0.6,0.3-0.9
						C158.4,83.1,158.6,82.9,158.9,82.7z M157.9,84.3c0,0.3,0,0.6,0,1c0.1,0.3,0.2,0.6,0.4,0.9c0.2,0.3,0.4,0.5,0.7,0.6
						c0.3,0.2,0.6,0.3,0.9,0.3c0.3,0,0.6,0,1,0c0.3-0.1,0.6-0.2,0.9-0.4c0.3-0.2,0.5-0.4,0.6-0.7c0.2-0.3,0.3-0.6,0.3-0.9
						c0.1-0.3,0-0.6,0-1c-0.1-0.3-0.2-0.6-0.4-0.9c-0.2-0.3-0.4-0.5-0.7-0.6c-0.3-0.2-0.6-0.3-0.9-0.3c-0.3-0.1-0.6,0-1,0
						c-0.3,0.1-0.6,0.2-0.9,0.4c-0.3,0.2-0.5,0.4-0.7,0.7C158.1,83.7,158,84,157.9,84.3z"/>
				</g>
			</g>
			<g>
				<g>
					<path class="st34" d="M156.6,87l3.9,2.4c0.1,0.1,0.3,0,0.4-0.1v0c0.1-0.1,0-0.3-0.1-0.4l-3.9-2.4c-0.1-0.1-0.3,0-0.4,0.1l0,0
						C156.4,86.7,156.4,86.9,156.6,87z"/>
				</g>
			</g>
			<g>
				<g>
					<path class="st34" d="M155.9,88.1l3.9,2.4c0.1,0.1,0.3,0,0.4-0.1l0,0c0.1-0.1,0-0.3-0.1-0.4l-3.9-2.4c-0.1-0.1-0.3,0-0.4,0.1v0
						C155.7,87.8,155.8,88,155.9,88.1z"/>
				</g>
			</g>
			<g>
				<g>
					<path class="st34" d="M155.2,89.1l3.9,2.4c0.1,0.1,0.3,0,0.4-0.1l0,0c0.1-0.1,0-0.3-0.1-0.4l-3.9-2.4c-0.1-0.1-0.3,0-0.4,0.1
						l0,0C155.1,88.9,155.1,89,155.2,89.1z"/>
				</g>
			</g>
			<g>
				<g>
					<path class="st34" d="M154.6,90.2l3.9,2.4c0.1,0.1,0.3,0,0.4-0.1v0c0.1-0.1,0-0.3-0.1-0.4l-3.9-2.4c-0.1-0.1-0.3,0-0.4,0.1l0,0
						C154.4,89.9,154.4,90.1,154.6,90.2z"/>
				</g>
			</g>
			<g>
				<g>
					<path class="st17" d="M159.6,86.1c-0.1,0-0.1-0.1-0.2-0.2l-0.5-2.4c0-0.2,0.1-0.3,0.2-0.4c0.2,0,0.3,0.1,0.4,0.2l0.4,2.1
						l3.4-1.5c0.2-0.1,0.3,0,0.4,0.2c0.1,0.2,0,0.3-0.2,0.4l-3.8,1.7C159.8,86.1,159.7,86.1,159.6,86.1
						C159.6,86.1,159.6,86.1,159.6,86.1z"/>
				</g>
			</g>
		</g>
	</g>
</g>
</svg>
