<?xml version="1.0" encoding="utf-8"?>
<!-- Generator: Adobe Illustrator 25.2.1, SVG Export Plug-In . SVG Version: 6.00 Build 0)  -->
<svg version="1.1" id="Layer_1" xmlns="http://www.w3.org/2000/svg" xmlns:xlink="http://www.w3.org/1999/xlink" x="0px" y="0px"
	 viewBox="0 0 332 93" style="enable-background:new 0 0 332 93;" xml:space="preserve">
<style type="text/css">
	.st0{fill:#00B2E7;}
	.st1{fill:#D8D8D8;stroke:#818388;stroke-width:4;}
	.st2{fill:#FD9702;}
	.st3{fill:#FDC666;}
	.st4{fill:#FDECDB;}
	.st5{fill:none;stroke:#FDC666;stroke-linecap:round;stroke-miterlimit:10;}
	.st6{fill:#F0B39C;}
	.st7{fill:#045170;}
	.st8{fill:#005681;}
	.st9{fill:#005384;}
	.st10{fill:#FDD6C0;}
	.st11{fill:#005684;}
	.st12{fill:#F7CBB4;}
	.st13{fill:none;stroke:#053F54;stroke-width:0.5;stroke-linecap:round;stroke-miterlimit:10;}
	.st14{fill:none;stroke:#FD9702;stroke-width:0.5;stroke-linecap:round;stroke-miterlimit:10;}
	.st15{fill:none;stroke:#FDC666;stroke-width:0.5;stroke-miterlimit:10;}
	.st16{fill:#FFFFFF;}
	.st17{fill:#FDECD0;}
</style>
<desc>Created with Sketch.</desc>
<g id="Page-1">
	<g id="block4m-dn">
		<path id="Rectangle-Copy-3" class="st0" d="M24,0h284c13.3,0,24,10.7,24,24v45c0,13.3-10.7,24-24,24H24C10.7,93,0,82.3,0,69V24
			C0,10.7,10.7,0,24,0z"/>
		<g id="Oval" transform="translate(20.000000, 9.000000)">
			<circle id="path-1" class="st1" cx="30" cy="30" r="30"/>
		</g>
		<g>
			<path class="st2" d="M34.1,38.7l2.3,0c0.4-7,5.9-12.8,13-13.4c7.8-0.7,14.8,5.1,15.4,13c0.7,7.8-5.1,14.8-13,15.4
				c-2.5,0.2-5-0.2-7.2-1.3c-0.6-0.3-0.8-1-0.6-1.5c0.3-0.6,1-0.8,1.5-0.6c1.9,0.9,4,1.2,6.1,1c6.6-0.6,11.5-6.4,10.9-13
				c-0.6-6.6-6.4-11.5-13-10.9c-6,0.5-10.5,5.3-10.9,11.1l2.2,0c0.3,0,0.5,0.3,0.4,0.6l-1.6,2.9L37.9,45c-0.1,0.3-0.6,0.3-0.7,0
				l-1.7-2.9l-1.7-2.9C33.6,39,33.8,38.7,34.1,38.7z"/>
			<g id="_x3C_Group_x3E__00000034791534703184507190000016995712744274724497_">
				<path id="_x3C_Path_x3E__00000167385906909606676070000017240972750715837592_" class="st3" d="M58.3,54.5
					c0,0.1-0.1,0.1-0.1,0.1H46.6c-0.9,0-1.5-0.6-1.5-1.3v-0.4c0-0.7,0.7-1.3,1.5-1.3h11.6c0.1,0,0.1,0.1,0.1,0.1v0
					c0,0.1-0.1,0.1-0.1,0.1H58v2.5h0.1C58.2,54.4,58.3,54.4,58.3,54.5L58.3,54.5z"/>
				<path id="_x3C_Path_x3E__00000112602075080695153720000011409952749078889858_" class="st4" d="M50.3,51.9H58v2.5h-7.8
					c-0.4,0-0.7-0.3-0.7-0.7v-1C49.5,52.3,49.8,51.9,50.3,51.9z"/>
				<path id="_x3C_Path_x3E__00000139272152309984407680000003669578909212855175_" class="st2" d="M47.5,53.2L47.5,53.2
					c0-0.1,0.1-0.3,0.2-0.3h0.9c0.1,0,0.2,0.1,0.2,0.2v0c0,0.1-0.1,0.2-0.2,0.2h-0.9C47.6,53.4,47.5,53.3,47.5,53.2z"/>
				
					<line id="_x3C_Path_x3E__00000178170872827958139860000005096117648890301874_" class="st5" x1="49.9" y1="52.3" x2="58" y2="52.3"/>
				
					<line id="_x3C_Path_x3E__00000093143134628764753640000006917930311914040973_" class="st5" x1="50.5" y1="52.6" x2="58" y2="52.6"/>
				
					<line id="_x3C_Path_x3E__00000124160763111552018890000003941713497465124528_" class="st5" x1="49.9" y1="53.3" x2="58" y2="53.3"/>
				
					<line id="_x3C_Path_x3E__00000146474926618906314040000008292262119583078046_" class="st5" x1="49.8" y1="54" x2="58" y2="54"/>
			</g>
			<g id="_x3C_Group_x3E__00000130613895940526032400000009354162714318327681_">
				<path id="_x3C_Path_x3E__00000100355916484724687010000017148839761101638809_" class="st2" d="M62.6,58.7
					c0,0.1-0.1,0.2-0.2,0.2H45.5c-1.3,0-2.3-0.8-2.3-1.9v-0.6c0-1,1-1.9,2.3-1.9h16.9c0.1,0,0.2,0.1,0.2,0.2v0
					c0,0.1-0.1,0.2-0.2,0.2h-0.2v3.6h0.2C62.5,58.6,62.6,58.7,62.6,58.7L62.6,58.7z"/>
				<path id="_x3C_Path_x3E__00000087392919549472076420000008445200967824670374_" class="st4" d="M50.8,54.9l11.4,0v3.6H50.8
					c-0.7,0-1.2-0.5-1.2-1.2v-1.4C49.7,55.4,50.2,54.9,50.8,54.9z"/>
				<path id="_x3C_Path_x3E__00000173125560280626251190000012190472355068770222_" class="st3" d="M47.9,57.9L47.9,57.9
					c-0.3,0-0.4-0.1-0.4-0.4v-1.3c0-0.2,0.1-0.4,0.4-0.4h0.1c0.2,0,0.4,0.1,0.4,0.4v1.3C48.2,57.8,48.1,57.9,47.9,57.9z"/>
				<path id="_x3C_Path_x3E__00000099625251517633073330000002193134208948347831_" class="st3" d="M46.7,57.9L46.7,57.9
					c-0.3,0-0.4-0.1-0.4-0.4v-1.3c0-0.2,0.1-0.4,0.4-0.4h0.1c0.2,0,0.4,0.1,0.4,0.4v1.3C47,57.8,46.9,57.9,46.7,57.9z"/>
				
					<line id="_x3C_Path_x3E__00000090981234388938485740000004232786686920309165_" class="st5" x1="50.9" y1="55.5" x2="62.2" y2="55.5"/>
				
					<line id="_x3C_Path_x3E__00000067948751744065027740000017808118004324651709_" class="st5" x1="52.5" y1="56.7" x2="62.2" y2="56.7"/>
				
					<line id="_x3C_Path_x3E__00000011733190973667769690000008688769274277810076_" class="st5" x1="50.1" y1="57.2" x2="62.2" y2="57.2"/>
				
					<line id="_x3C_Path_x3E__00000011711974012639607200000009520714666978372509_" class="st5" x1="50.6" y1="58.2" x2="62.2" y2="58.2"/>
			</g>
			<g>
				<polygon id="_x3C_Path_x3E__00000134939520172373192170000017487192426100516766_" class="st6" points="39.7,55.5 39.3,56.4 
					40.4,56.7 40.7,55.9 				"/>
				<path id="_x3C_Path_x3E__00000026861882546704235400000005430326698264313485_" class="st7" d="M40.4,56.7
					c-1-0.4-1.3-0.6-2.9-0.5c-0.2,0-0.3,0.3-0.1,0.4l2.3,1C40.1,57.7,40.4,56.7,40.4,56.7z"/>
				<polygon id="_x3C_Path_x3E__00000073703780457394651770000002645682704439587756_" class="st6" points="42.3,56 42.1,57 
					43.2,57.1 43.3,56.3 				"/>
				<path id="_x3C_Path_x3E__00000041279731810572686050000004280065745927387009_" class="st8" d="M43.2,57.1
					c-1.1-0.2-1.4-0.3-2.9,0.1c-0.2,0.1-0.2,0.4,0,0.4l2.5,0.5C43.1,58.2,43.2,57.1,43.2,57.1z"/>
				<path class="st9" d="M50.8,46.5c0,0,2.2-0.1,2.2-1.2c0-1-1-0.9-0.7-2.2c0.3-1.2-0.1-1.6-0.7-2.1c-0.9-0.7-0.2-1.3-0.8-2.1
					c-0.4-0.7-2.2-1.4-3-0.2c-1.2,1.7-1.2,1.8-1.3,2.4c0,1.2,1.2,0.8,0,2.7c-1.2,1.9,0.9,2.8,2.5,3.2C50.6,47.5,50.8,46.5,50.8,46.5
					z"/>
				<path class="st10" d="M49,39.3c-0.1-0.1-0.2-0.1-0.3-0.1c-0.3,0.2-0.8,0.8-0.7,1.5c0.1,0.8,0.1,1.2,0.6,1.2
					c0.1,0,0.2,0.1,0.2,0.2l0,0.5c0,0-0.1,0.1-0.1,0.1l-0.6,1c-0.1,0.1-0.1,0.2,0,0.3l0.7,0.8c0.1,0.1,0.3,0.1,0.4,0l1.1-2.1
					c0-0.1,0-0.1,0-0.2c-0.1-0.2-0.4-0.7,0.1-1.9c0-0.1,0.1-0.5-0.2-0.4c-0.1,0-0.1,0.2-0.2,0.1C49.6,40.2,49.6,39.6,49,39.3z"/>
				<path class="st11" d="M46.2,48.5l-3,0.7c-0.4,0.1-0.7,0.4-0.9,0.7l-2.7,5.7c-0.1,0.1,0,0.2,0.1,0.3l1,0.3c0.1,0,0.1,0,0.2-0.1
					l3.6-5.7c0,0,0.1-0.1,0.1-0.1l3.5-0.7c0.2,0,0.2-0.3,0-0.4l-1.9-0.7C46.2,48.5,46.2,48.5,46.2,48.5z"/>
				<path class="st12" d="M47.1,44.6l-0.6,2.2c0,0.1-0.1,0.1-0.1,0.2l-0.8,0.6c-0.1,0.1-0.2,0.3-0.1,0.4l0.1,0.1
					c0.1,0.2,0.3,0.2,0.5,0.1l1.1-0.6c0.1,0,0.1-0.1,0.2-0.2l1-2.4L47.1,44.6z"/>
				<path class="st11" d="M47.9,49C47.9,49,47.9,49,47.9,49l-2.8,0.6c-0.6,0.1-1.2,0.5-1.4,1.1c-0.5,1.4-1.5,4.6-1.6,5.3
					c0,0.1,0,0.1,0.1,0.2c0.2,0.1,0.7,0.3,1,0.4c0.1,0,0.1,0,0.2-0.1c0.3-0.7,1.7-3.8,1.9-4.3c0-0.1,0.1-0.3,0.3-0.3
					c0.8,0,5.9,0.5,5.8-1.5C51.3,50.3,48.4,49.2,47.9,49z"/>
				<path class="st3" d="M48.7,42.7c0,0-0.3,0.6,0.1,0.7c0.6,0.2,1.2-0.3,1.3-0.8c0,0,0-0.1,0.1-0.1c0.2,0,0.9,0,1.2,0.5
					c0.3,0.5,0.3,1.4,0.3,1.8c0,0.1-0.1,0.1-0.1,0.1l-1.1,0.1c-0.1,0-0.2,0.1-0.1,0.2c0.2,0.2,0.4,0.5,0.5,1
					c0.1,0.5,0.2,0.8,0.4,1.9c0.1,0.6,0.1,1.8,0.2,2.3c0,0.1-0.1,0.1-0.2,0.1c-0.5-0.1-1.8-0.5-2.5-0.8c-0.8-0.4-2.2-0.9-2.2-0.9
					s1.3-0.6,1.1-1.7c-0.1-1.1-0.3-1.5-0.1-2.3l-0.5-0.1c-0.1,0-0.1-0.1-0.1-0.1C47.1,44.1,47.3,42.8,48.7,42.7z"/>
				<path class="st10" d="M45.9,48.3c0,0,0.5-0.4,1-0.3c0.1,0,0.1,0,0.2,0c0.4-0.1,1.9-0.4,2.5-0.5c0.1,0,0.2-0.1,0.3-0.3l0.4-2.2
					l1.3-0.1c0,0-0.3,2.8-1.1,3.5c-0.1,0.1-0.1,0.1-0.2,0.1c-0.5,0-2.9,0.2-3.2,0.2c0,0,0,0-0.1,0c-0.1,0-0.2,0-0.3,0.1
					c-0.1,0.1-0.3,0-0.4-0.1L45.9,48.3z"/>
				<path class="st13" d="M42.3,50c0,0,0.5,0.1,0.9-0.1c0.4-0.3,0.2-0.7,0.2-0.7"/>
				<path class="st13" d="M43.2,52.3l0.5-1.5c0.2-0.5,0.6-0.9,1.1-1l2.3-0.6"/>
				<path class="st13" d="M50,50.3c0,0-0.4,0.5-0.1,1.2"/>
				<path class="st13" d="M44.6,50c0,0,0.4,0.7-0.7,0.9"/>
				<line class="st13" x1="39.8" y1="55.5" x2="40.7" y2="55.7"/>
				<line class="st13" x1="42.5" y1="56" x2="43.2" y2="56.2"/>
				<path class="st14" d="M50.8,42.9c0,0-0.9,0.1-0.7,2.2"/>
				<path class="st14" d="M48.1,43.4c0,0-0.5,0.7-0.6,1.4"/>
				<path class="st2" d="M43.2,49.1l-1.5-2.2c-0.1-0.1,0-0.2,0.1-0.2H45c0.1,0,0.1,0,0.1,0.1l1.3,2c0,0,0.1,0.1,0.1,0.1H48
					c0.1,0,0.1,0.1,0.1,0.1V49c0,0.1-0.1,0.1-0.1,0.1h-4.6C43.3,49.2,43.3,49.1,43.2,49.1z"/>
				<path class="st3" d="M44.4,47.8c0.1,0.2,0,0.4-0.1,0.5c-0.2,0.1-0.4,0-0.5-0.2c-0.1-0.2,0-0.4,0.1-0.5
					C44.1,47.5,44.3,47.6,44.4,47.8z"/>
			</g>
			<g>
				<g>
					<path id="Ellipse_00000136379507924437098770000012945547770115347108_" class="st3" d="M33.7,32c-0.1,5.3-7.9,5.3-8,0
						C25.8,26.7,33.6,26.7,33.7,32z"/>
					<path id="Ellipse_00000134245821283611012670000018029379682162067338_" class="st15" d="M34.1,32c-0.1,5.8-8.8,5.8-8.9,0
						C25.3,26.2,34,26.2,34.1,32z"/>
					<g>
						<path class="st16" d="M30.1,33.4c-0.1-0.7-0.7-0.2-0.7-0.2v-0.7h-0.7c0,0,0.1,0.1,0.2,0.3c0.1,0.2,0,0.4-0.4,0.4
							c-0.3,0-0.4-0.2-0.4-0.4c0-0.1,0.1-0.3,0.1-0.3h-0.8c0,1.9,0,1.9,2,1.9v-0.8C29.5,33.7,30.1,33.9,30.1,33.4z"/>
						<path class="st17" d="M31,31.7c-0.7,0-0.2,0.7-0.2,0.7h-0.7v0.7c0,0,0.7-0.4,0.7,0.2c0.1,0.5-0.6,0.4-0.7,0.2v0.8
							c1.9,0,1.9,0,1.9-1.9h-0.8C31.2,32.4,31.7,31.7,31,31.7z"/>
						<path class="st17" d="M28,31.9c-0.1,0.2,0.1,0.4,0.4,0.4c0.4,0,0.4-0.2,0.4-0.4c0-0.2-0.2-0.3-0.2-0.3h0.7v-0.7
							c0,0-0.4,0.4-0.7,0c-0.2-0.4,0.3-0.8,0.7-0.4v-0.8c-1.9,0-1.9,0-1.9,2h0.8C28.1,31.6,28,31.7,28,31.9z"/>
						<path class="st16" d="M30.1,29.7v0.8c-0.4-0.4-0.9,0-0.7,0.4c0.2,0.4,0.7,0,0.7,0v0.7h0.7c0,0-0.4-0.7,0.2-0.7
							c0.7,0,0.2,0.7,0.2,0.7H32C32,29.7,32,29.7,30.1,29.7z"/>
					</g>
				</g>
				<g>
					<g>
						<path id="Ellipse_00000119799063196535418470000005316615372584214440_" class="st3" d="M37.7,20.1c0.1,5.3,7.9,5.3,8,0
							C45.6,14.8,37.8,14.8,37.7,20.1z"/>
						<path id="Ellipse_00000164487718587078879910000011513968184989044156_" class="st15" d="M37.3,20.1c0.1,5.8,8.8,5.8,8.9,0
							C46.1,14.2,37.4,14.2,37.3,20.1z"/>
					</g>
					<g>
						<path class="st16" d="M44.3,20.1v-1c0-0.2-0.2-0.4-0.4-0.2L43,19.3l-0.9,0.5c-0.2,0.1-0.2,0.4,0,0.5l0.9,0.5l0.9,0.5
							c0.2,0.1,0.4,0,0.4-0.2V20.1z"/>
						<path class="st16" d="M41.4,20.1v-1c0-0.2-0.2-0.4-0.4-0.2l-0.9,0.5l-0.9,0.5c-0.2,0.1-0.2,0.4,0,0.5l0.9,0.5l0.9,0.5
							c0.2,0.1,0.4,0,0.4-0.2V20.1z"/>
					</g>
				</g>
				<g>
					<g>
						<path id="Ellipse_00000134939061983923778380000018339142568881601942_" class="st3" d="M65.4,20.6c-0.1,5.3-7.9,5.3-8,0
							C57.4,15.3,65.3,15.3,65.4,20.6z"/>
						<path id="Ellipse_00000121268876139808893230000005458147300034111674_" class="st15" d="M65.8,20.6c-0.1,5.8-8.8,5.8-8.9,0
							C57,14.8,65.7,14.8,65.8,20.6z"/>
					</g>
					<g>
						<path id="_x3C_Path_x3E__00000050628859999074497650000004359880380477883568_" class="st16" d="M60.7,17.8
							c1.6-0.6,2.9,1,2.7,2.2c-0.1,1.3-1.5,2-1.4,2.5c-0.3,0-0.9,0-1.2,0c0,0,0.1-0.2-0.2-0.5C59.3,21,58.5,18.7,60.7,17.8z"/>
						<path id="_x3C_Path_x3E_" class="st2" d="M61.9,22.5c0,0.6,0.1,1.3-0.7,1.2c-0.7,0-0.5-0.7-0.5-1.2H61.9z"/>
						<path class="st5" d="M61.6,22.5c0,0,0-1.9,0.1-2.4c0.2-0.5,0.5-0.9,0.7-0.5c0.5,1.4-2.1,1.8-2.3,0.5c-0.3-1.2,1.1-1.3,0.9,2.4
							"/>
					</g>
				</g>
			</g>
		</g>
	</g>
</g>
<g>
	<g>
		<path class="st16" d="M98.4,16.2h4.1l4.7,15.1h-3.6l-2-7.6c-0.4-1.5-0.8-3.3-1.2-4.9h-0.1c-0.4,1.6-0.8,3.4-1.2,4.9l-1.9,7.6h-3.5
			L98.4,16.2z M96.8,25h7.3v2.6h-7.3V25z"/>
		<path class="st16" d="M107.6,29.9l1.5-2.1c1,0.8,2,1.2,3,1.2c1,0,1.4-0.4,1.4-1c0-0.7-1.2-1.1-2.3-1.6c-1.4-0.6-3-1.5-3-3.4
			c0-2.1,1.7-3.6,4.4-3.6c1.8,0,3,0.7,4,1.4l-1.5,2c-0.8-0.6-1.6-1-2.4-1c-0.9,0-1.3,0.3-1.3,0.9c0,0.7,1.1,1,2.3,1.4
			c1.4,0.6,3.1,1.3,3.1,3.5c0,2.1-1.6,3.7-4.7,3.7C110.5,31.6,108.7,30.9,107.6,29.9z"/>
		<path class="st16" d="M117.8,29.9l1.5-2.1c1,0.8,2,1.2,3,1.2c1,0,1.4-0.4,1.4-1c0-0.7-1.2-1.1-2.3-1.6c-1.4-0.6-3-1.5-3-3.4
			c0-2.1,1.7-3.6,4.4-3.6c1.8,0,3,0.7,4,1.4l-1.5,2c-0.8-0.6-1.6-1-2.4-1c-0.9,0-1.3,0.3-1.3,0.9c0,0.7,1.1,1,2.3,1.4
			c1.4,0.6,3.1,1.3,3.1,3.5c0,2.1-1.6,3.7-4.7,3.7C120.7,31.6,119,30.9,117.8,29.9z"/>
		<path class="st16" d="M128.8,16.4c0-1.1,0.8-1.8,1.9-1.8c1.1,0,1.9,0.7,1.9,1.8s-0.8,1.8-1.9,1.8
			C129.6,18.1,128.8,17.4,128.8,16.4z M129,19.8h3.4v11.5H129V19.8z"/>
		<path class="st16" d="M134.7,33.3c0-1,0.6-1.7,1.6-2.3v-0.1c-0.6-0.4-1.1-1-1.1-1.9c0-0.8,0.6-1.6,1.3-2.2v-0.1
			c-0.8-0.6-1.5-1.6-1.5-3c0-2.8,2.3-4.2,4.7-4.2c0.6,0,1.2,0.1,1.8,0.3h4.2v2.5h-1.8c0.2,0.3,0.4,0.9,0.4,1.5c0,2.6-2,3.9-4.5,3.9
			c-0.4,0-0.9-0.1-1.4-0.2c-0.3,0.2-0.4,0.5-0.4,0.9c0,0.6,0.5,0.8,1.7,0.8h1.8c2.8,0,4.4,0.9,4.4,2.9c0,2.4-2.5,4.1-6.4,4.1
			C136.8,36.2,134.7,35.3,134.7,33.3z M142.7,32.6c0-0.7-0.6-0.9-1.8-0.9h-1.2c-0.8,0-1.2,0-1.6-0.1c-0.4,0.4-0.6,0.7-0.6,1.1
			c0,0.9,1,1.3,2.5,1.3C141.6,34,142.7,33.4,142.7,32.6z M141.3,23.7c0-1.2-0.6-1.8-1.6-1.8s-1.6,0.6-1.6,1.8c0,1.2,0.7,1.9,1.6,1.9
			C140.6,25.6,141.3,25,141.3,23.7z"/>
		<path class="st16" d="M147.7,19.8h2.8l0.2,1.4h0.1c1-0.9,2.1-1.7,3.7-1.7c2.5,0,3.6,1.8,3.6,4.6v7.2h-3.4v-6.7
			c0-1.7-0.5-2.2-1.4-2.2c-0.8,0-1.4,0.4-2.1,1.1v7.8h-3.4V19.8z"/>
		<path class="st16" d="M160.9,19.8h2.8l0.2,1.5h0.1c0.9-1,2-1.8,3.5-1.8c1.6,0,2.6,0.7,3.1,1.9c1-1.1,2.1-1.9,3.6-1.9
			c2.5,0,3.6,1.8,3.6,4.6v7.2h-3.4v-6.7c0-1.7-0.5-2.2-1.4-2.2c-0.6,0-1.2,0.4-1.9,1.1v7.8h-3.4v-6.7c0-1.7-0.5-2.2-1.4-2.2
			c-0.6,0-1.2,0.4-1.9,1.1v7.8H161L160.9,19.8L160.9,19.8z"/>
		<path class="st16" d="M180,25.6c0-3.7,2.6-6,5.4-6c3.3,0,4.9,2.4,4.9,5.5c0,0.6-0.1,1.2-0.1,1.5h-6.9c0.3,1.7,1.4,2.4,3,2.4
			c0.9,0,1.7-0.3,2.5-0.7l1.1,2c-1.2,0.8-2.7,1.3-4.1,1.3C182.5,31.6,180,29.3,180,25.6z M187.4,24.3c0-1.2-0.6-2.2-1.9-2.2
			c-1.1,0-2,0.7-2.2,2.2H187.4z"/>
		<path class="st16" d="M192.7,19.8h2.8l0.2,1.4h0.1c1-0.9,2.1-1.7,3.7-1.7c2.5,0,3.6,1.8,3.6,4.6v7.2h-3.4v-6.7
			c0-1.7-0.5-2.2-1.4-2.2c-0.8,0-1.4,0.4-2.1,1.1v7.8h-3.4L192.7,19.8L192.7,19.8z"/>
		<path class="st16" d="M206.3,27.1v-4.6h-1.6V20l1.8-0.1l0.4-3h2.8v3h2.7v2.7h-2.7v4.6c0,1.3,0.6,1.8,1.5,1.8
			c0.4,0,0.8-0.1,1.1-0.2l0.6,2.4c-0.6,0.2-1.4,0.4-2.5,0.4C207.4,31.6,206.3,29.8,206.3,27.1z"/>
		<path class="st16" d="M218.6,29.4l1.9-2.4c1.1,0.9,2.4,1.6,3.7,1.6c1.4,0,2.1-0.6,2.1-1.5c0-1-0.8-1.2-2.2-1.8l-1.9-0.8
			c-1.6-0.6-3-1.9-3-4.1c0-2.5,2.2-4.5,5.4-4.5c1.7,0,3.6,0.7,4.9,2l-1.7,2.2c-1-0.7-1.9-1.2-3.1-1.2c-1.2,0-1.9,0.5-1.9,1.3
			c0,0.9,1,1.2,2.3,1.8l1.9,0.8c1.8,0.7,3,2,3,4.1c0,2.5-2.1,4.7-5.7,4.7C222.2,31.6,220.1,30.8,218.6,29.4z"/>
		<path class="st16" d="M232.6,27.1v-4.6H231V20l1.8-0.1l0.4-3h2.8v3h2.7v2.7H236v4.6c0,1.3,0.6,1.8,1.5,1.8c0.4,0,0.8-0.1,1.1-0.2
			l0.6,2.4c-0.6,0.2-1.4,0.4-2.5,0.4C233.7,31.6,232.6,29.8,232.6,27.1z"/>
		<path class="st16" d="M240.4,28.1c0-2.4,1.9-3.7,6.5-4.2c0-1-0.6-1.7-1.8-1.7c-1,0-1.9,0.4-3,1l-1.2-2.2c1.4-0.9,3.1-1.5,4.9-1.5
			c2.9,0,4.5,1.7,4.5,5.2v6.6h-2.8l-0.2-1.2h-0.1c-1,0.8-2,1.4-3.3,1.4C241.8,31.6,240.4,30,240.4,28.1z M246.9,28v-2
			c-2.4,0.3-3.2,1-3.2,1.9c0,0.7,0.5,1.1,1.3,1.1C245.8,28.9,246.3,28.6,246.9,28z"/>
		<path class="st16" d="M253.6,27.1v-4.6H252V20l1.8-0.1l0.4-3h2.8v3h2.7v2.7H257v4.6c0,1.3,0.6,1.8,1.5,1.8c0.4,0,0.8-0.1,1.1-0.2
			l0.6,2.4c-0.6,0.2-1.4,0.4-2.5,0.4C254.7,31.6,253.6,29.8,253.6,27.1z"/>
		<path class="st16" d="M261.9,26.9v-7.2h3.4v6.7c0,1.7,0.5,2.2,1.4,2.2c0.8,0,1.4-0.4,2-1.2v-7.6h3.4v11.5h-2.8l-0.2-1.6H269
			c-1,1.2-2,1.8-3.6,1.8C262.9,31.6,261.9,29.8,261.9,26.9z"/>
		<path class="st16" d="M274.1,29.9l1.5-2.1c1,0.8,2,1.2,3,1.2c1,0,1.4-0.4,1.4-1c0-0.7-1.2-1.1-2.3-1.6c-1.4-0.6-3-1.5-3-3.4
			c0-2.1,1.7-3.6,4.4-3.6c1.8,0,3,0.7,4,1.4l-1.5,2c-0.8-0.6-1.6-1-2.4-1c-0.9,0-1.3,0.3-1.3,0.9c0,0.7,1.1,1,2.3,1.4
			c1.4,0.6,3.1,1.3,3.1,3.5c0,2.1-1.6,3.7-4.7,3.7C276.9,31.6,275.2,30.9,274.1,29.9z"/>
	</g>
</g>
<g>
	<g>
		<path class="st16" d="M97,44.1h-2.8v-1h6.7v1h-2.8v8.1H97L97,44.1L97,44.1z"/>
		<path class="st16" d="M102.4,42.3h1.2V45l0,1.4c0.6-0.6,1.3-1.1,2.2-1.1c1.4,0,2,0.9,2,2.6v4.3h-1.2v-4.1c0-1.2-0.4-1.8-1.2-1.8
			c-0.7,0-1.2,0.4-1.8,1v4.9h-1.2L102.4,42.3L102.4,42.3z"/>
		<path class="st16" d="M109.8,43.3c0-0.5,0.3-0.7,0.8-0.7c0.5,0,0.8,0.3,0.8,0.7c0,0.4-0.3,0.7-0.8,0.7
			C110.1,44.1,109.8,43.8,109.8,43.3z M109.9,45.5h1.2v6.7h-1.2V45.5z"/>
		<path class="st16" d="M112.6,51.5l0.6-0.7c0.6,0.5,1.2,0.8,2,0.8c0.9,0,1.3-0.5,1.3-1.1c0-0.7-0.8-1-1.5-1.3c-0.9-0.3-2-0.8-2-1.9
			c0-1.1,0.9-1.9,2.3-1.9c0.8,0,1.6,0.3,2.1,0.7l-0.6,0.7c-0.5-0.3-0.9-0.6-1.5-0.6c-0.8,0-1.2,0.5-1.2,1c0,0.6,0.7,0.9,1.5,1.2
			c1,0.4,2,0.8,2,2c0,1.1-0.9,2-2.4,2C114.2,52.4,113.3,52,112.6,51.5z"/>
		<path class="st16" d="M121.1,45.5h1.2l1,3.9c0.1,0.6,0.3,1.2,0.4,1.9h0c0.1-0.6,0.3-1.2,0.5-1.9l1-3.9h1.1l1.1,3.9
			c0.2,0.6,0.3,1.2,0.5,1.9h0c0.1-0.6,0.3-1.2,0.4-1.9l1-3.9h1.1l-1.8,6.7h-1.4l-1-3.7c-0.2-0.6-0.3-1.2-0.5-1.9h0
			c-0.1,0.7-0.3,1.3-0.5,1.9l-0.9,3.6H123L121.1,45.5z"/>
		<path class="st16" d="M131.7,43.3c0-0.5,0.3-0.7,0.8-0.7s0.8,0.3,0.8,0.7c0,0.4-0.3,0.7-0.8,0.7C132,44.1,131.7,43.8,131.7,43.3z
			 M131.9,45.5h1.2v6.7h-1.2V45.5z"/>
		<path class="st16" d="M135.3,50.9v-8.5h1.2V51c0,0.4,0.1,0.5,0.3,0.5c0,0,0.1,0,0.2,0l0.1,0.9c-0.2,0-0.4,0.1-0.6,0.1
			C135.6,52.4,135.3,51.8,135.3,50.9z"/>
		<path class="st16" d="M138.8,50.9v-8.5h1.2V51c0,0.4,0.1,0.5,0.3,0.5c0,0,0.1,0,0.2,0l0.1,0.9c-0.2,0-0.4,0.1-0.6,0.1
			C139.1,52.4,138.8,51.8,138.8,50.9z"/>
		<path class="st16" d="M144.6,48.8c0-2.2,1.4-3.6,2.9-3.6c0.8,0,1.3,0.3,1.9,0.8l0-1.2v-2.6h1.2v9.9h-0.9l-0.1-0.8h0
			c-0.5,0.5-1.2,1-2,1C145.7,52.4,144.6,51.1,144.6,48.8z M149.4,50.5v-3.6c-0.6-0.5-1.1-0.7-1.7-0.7c-1.1,0-1.9,1.1-1.9,2.6
			c0,1.6,0.6,2.6,1.8,2.6C148.3,51.4,148.8,51.1,149.4,50.5z"/>
		<path class="st16" d="M152.6,43.3c0-0.5,0.3-0.7,0.8-0.7s0.8,0.3,0.8,0.7c0,0.4-0.3,0.7-0.8,0.7C152.9,44.1,152.6,43.8,152.6,43.3
			z M152.8,45.5h1.2v6.7h-1.2V45.5z"/>
		<path class="st16" d="M155.5,51.5l0.6-0.7c0.6,0.5,1.2,0.8,2,0.8c0.9,0,1.3-0.5,1.3-1.1c0-0.7-0.8-1-1.5-1.3c-0.9-0.3-2-0.8-2-1.9
			c0-1.1,0.9-1.9,2.3-1.9c0.8,0,1.6,0.3,2.1,0.7l-0.6,0.7c-0.5-0.3-0.9-0.6-1.5-0.6c-0.8,0-1.2,0.5-1.2,1c0,0.6,0.7,0.9,1.5,1.2
			c1,0.4,2,0.8,2,2c0,1.1-0.9,2-2.4,2C157,52.4,156.1,52,155.5,51.5z"/>
		<path class="st16" d="M162,45.5h0.9l0.1,0.8h0c0.6-0.5,1.4-0.9,2.1-0.9c1.8,0,2.7,1.3,2.7,3.4c0,2.3-1.4,3.7-2.9,3.7
			c-0.6,0-1.2-0.3-1.8-0.8l0,1.2v2.3H162V45.5L162,45.5z M166.7,48.7c0-1.5-0.5-2.5-1.8-2.5c-0.6,0-1.2,0.3-1.8,0.9v3.6
			c0.6,0.5,1.2,0.7,1.6,0.7C165.9,51.4,166.7,50.4,166.7,48.7z"/>
		<path class="st16" d="M169.7,50.9v-8.5h1.2V51c0,0.4,0.1,0.5,0.3,0.5c0,0,0.1,0,0.2,0l0.1,0.9c-0.2,0-0.4,0.1-0.6,0.1
			C170.1,52.4,169.7,51.8,169.7,50.9z"/>
		<path class="st16" d="M172.8,50.5c0-1.5,1.2-2.2,4.1-2.5c0-0.9-0.3-1.7-1.4-1.7c-0.8,0-1.5,0.4-2,0.7l-0.5-0.8
			c0.6-0.4,1.6-0.9,2.6-0.9c1.7,0,2.4,1.1,2.4,2.8v4.2h-0.9l-0.1-0.8h0c-0.6,0.6-1.4,1-2.2,1C173.7,52.4,172.8,51.7,172.8,50.5z
			 M176.9,50.6v-1.9c-2.3,0.3-3,0.8-3,1.7c0,0.8,0.5,1.1,1.2,1.1C175.7,51.5,176.3,51.1,176.9,50.6z"/>
		<path class="st16" d="M179.5,55l0.2-0.9c0.1,0,0.3,0.1,0.5,0.1c0.7,0,1.2-0.6,1.5-1.4l0.1-0.5l-2.7-6.7h1.2l1.4,3.7
			c0.2,0.6,0.4,1.3,0.6,1.9h0c0.2-0.6,0.4-1.3,0.6-1.9l1.2-3.7h1.1l-2.5,7.3c-0.5,1.3-1.2,2.4-2.5,2.4C180,55.1,179.7,55.1,179.5,55
			z"/>
		<path class="st16" d="M189.7,50.1v-3.7h-1v-0.9l1.1,0l0.1-1.9h1v1.9h1.8v0.9h-1.8v3.7c0,0.8,0.3,1.3,1.1,1.3
			c0.2,0,0.6-0.1,0.8-0.2l0.2,0.9c-0.4,0.1-0.8,0.2-1.2,0.2C190.1,52.4,189.7,51.5,189.7,50.1z"/>
		<path class="st16" d="M194.1,42.3h1.2V45l0,1.4c0.6-0.6,1.3-1.1,2.2-1.1c1.4,0,2,0.9,2,2.6v4.3h-1.2v-4.1c0-1.2-0.4-1.8-1.2-1.8
			c-0.7,0-1.2,0.4-1.8,1v4.9H194L194.1,42.3L194.1,42.3z"/>
		<path class="st16" d="M201.2,48.8c0-2.2,1.5-3.6,3-3.6c1.7,0,2.7,1.2,2.7,3.2c0,0.2,0,0.5,0,0.6h-4.5c0.1,1.4,1,2.4,2.2,2.4
			c0.6,0,1.2-0.2,1.7-0.6l0.4,0.7c-0.6,0.4-1.3,0.7-2.2,0.7C202.6,52.4,201.2,51.1,201.2,48.8z M205.8,48.3c0-1.3-0.6-2.1-1.7-2.1
			c-0.9,0-1.8,0.7-1.9,2.1H205.8z"/>
		<path class="st16" d="M210.5,51.5l0.6-0.7c0.6,0.5,1.2,0.8,2,0.8c0.9,0,1.3-0.5,1.3-1.1c0-0.7-0.8-1-1.5-1.3c-0.9-0.3-2-0.8-2-1.9
			c0-1.1,0.9-1.9,2.3-1.9c0.8,0,1.6,0.3,2.1,0.7l-0.6,0.7c-0.5-0.3-0.9-0.6-1.5-0.6c-0.8,0-1.2,0.5-1.2,1c0,0.6,0.7,0.9,1.5,1.2
			c1,0.4,2,0.8,2,2c0,1.1-0.9,2-2.4,2C212.1,52.4,211.2,52,210.5,51.5z"/>
		<path class="st16" d="M217.3,50.1v-3.7h-1v-0.9l1.1,0l0.1-1.9h1v1.9h1.8v0.9h-1.8v3.7c0,0.8,0.3,1.3,1.1,1.3
			c0.2,0,0.6-0.1,0.8-0.2l0.2,0.9c-0.4,0.1-0.8,0.2-1.2,0.2C217.7,52.4,217.3,51.5,217.3,50.1z"/>
		<path class="st16" d="M221.3,50.5c0-1.5,1.2-2.2,4.1-2.5c0-0.9-0.3-1.7-1.4-1.7c-0.8,0-1.5,0.4-2,0.7l-0.5-0.8
			c0.6-0.4,1.6-0.9,2.6-0.9c1.7,0,2.4,1.1,2.4,2.8v4.2h-0.9l-0.1-0.8h0c-0.6,0.6-1.4,1-2.2,1C222.2,52.4,221.3,51.7,221.3,50.5z
			 M225.5,50.6v-1.9c-2.3,0.3-3,0.8-3,1.7c0,0.8,0.5,1.1,1.2,1.1C224.3,51.5,224.8,51.1,225.5,50.6z"/>
		<path class="st16" d="M228.9,50.1v-3.7h-1v-0.9l1.1,0l0.1-1.9h1v1.9h1.8v0.9h-1.8v3.7c0,0.8,0.3,1.3,1.1,1.3
			c0.2,0,0.6-0.1,0.8-0.2l0.2,0.9c-0.4,0.1-0.8,0.2-1.2,0.2C229.4,52.4,228.9,51.5,228.9,50.1z"/>
		<path class="st16" d="M233.3,49.8v-4.3h1.2v4.1c0,1.2,0.4,1.8,1.2,1.8c0.7,0,1.2-0.3,1.8-1.2v-4.8h1.2v6.7h-0.9l-0.1-1.1h0
			c-0.6,0.7-1.3,1.2-2.2,1.2C234,52.4,233.3,51.5,233.3,49.8z"/>
		<path class="st16" d="M240.2,51.5l0.6-0.7c0.6,0.5,1.2,0.8,2,0.8c0.9,0,1.3-0.5,1.3-1.1c0-0.7-0.8-1-1.5-1.3c-0.9-0.3-2-0.8-2-1.9
			c0-1.1,0.9-1.9,2.3-1.9c0.8,0,1.6,0.3,2.1,0.7l-0.6,0.7c-0.5-0.3-0.9-0.6-1.5-0.6c-0.8,0-1.2,0.5-1.2,1c0,0.6,0.7,0.9,1.5,1.2
			c1,0.4,2,0.8,2,2c0,1.1-0.9,2-2.4,2C241.8,52.4,240.8,52,240.2,51.5z"/>
		<path class="st16" d="M249,48.8c0-2.3,1.5-3.6,3.1-3.6s3.1,1.3,3.1,3.6c0,2.2-1.5,3.5-3.1,3.5S249,51.1,249,48.8z M254.1,48.8
			c0-1.5-0.8-2.6-1.9-2.6s-1.9,1.1-1.9,2.6c0,1.5,0.8,2.6,1.9,2.6C253.3,51.4,254.1,50.4,254.1,48.8z"/>
		<path class="st16" d="M256.3,45.6l1,0h2.5v0.9h-3.5V45.6z M257.2,44.4c0-1.4,0.6-2.3,2-2.3c0.4,0,0.8,0.1,1.1,0.2l-0.2,0.9
			c-0.3-0.1-0.5-0.2-0.8-0.2c-0.6,0-1,0.5-1,1.3v7.8h-1.2L257.2,44.4L257.2,44.4z"/>
		<path class="st16" d="M264,50.1v-3.7h-1v-0.9l1.1,0l0.1-1.9h1v1.9h1.8v0.9h-1.8v3.7c0,0.8,0.3,1.3,1.1,1.3c0.2,0,0.6-0.1,0.8-0.2
			l0.2,0.9c-0.4,0.1-0.8,0.2-1.2,0.2C264.5,52.4,264,51.5,264,50.1z"/>
		<path class="st16" d="M268.5,42.3h1.2V45l0,1.4c0.6-0.6,1.3-1.1,2.2-1.1c1.4,0,2,0.9,2,2.6v4.3h-1.2v-4.1c0-1.2-0.4-1.8-1.2-1.8
			c-0.7,0-1.2,0.4-1.8,1v4.9h-1.2L268.5,42.3L268.5,42.3z"/>
		<path class="st16" d="M275.5,48.8c0-2.2,1.5-3.6,3-3.6c1.7,0,2.7,1.2,2.7,3.2c0,0.2,0,0.5,0,0.6h-4.5c0.1,1.4,1,2.4,2.2,2.4
			c0.6,0,1.2-0.2,1.7-0.6l0.4,0.7c-0.6,0.4-1.3,0.7-2.2,0.7C277,52.4,275.5,51.1,275.5,48.8z M280.3,48.3c0-1.3-0.6-2.1-1.7-2.1
			c-0.9,0-1.8,0.7-1.9,2.1H280.3z"/>
		<path class="st16" d="M94.3,68.1l0.6-0.7c0.6,0.5,1.2,0.8,2,0.8c0.9,0,1.3-0.5,1.3-1.1c0-0.7-0.8-1-1.5-1.3c-0.9-0.3-2-0.8-2-1.9
			c0-1.1,0.9-1.9,2.3-1.9c0.8,0,1.6,0.3,2.1,0.7l-0.6,0.7c-0.5-0.3-0.9-0.6-1.5-0.6c-0.8,0-1.2,0.5-1.2,1c0,0.6,0.7,0.9,1.5,1.2
			c1,0.4,2,0.8,2,2c0,1.1-0.9,2-2.4,2C95.8,69.1,94.9,68.7,94.3,68.1z"/>
		<path class="st16" d="M101,66.8v-3.7h-1v-0.9l1.1,0l0.1-1.9h1v1.9h1.8v0.9h-1.8v3.7c0,0.8,0.3,1.3,1.1,1.3c0.2,0,0.6-0.1,0.8-0.2
			l0.2,0.9c-0.4,0.1-0.8,0.2-1.2,0.2C101.5,69.1,101,68.2,101,66.8z"/>
		<path class="st16" d="M105.4,66.4v-4.3h1.2v4.1c0,1.2,0.4,1.8,1.2,1.8c0.7,0,1.2-0.3,1.8-1.2v-4.8h1.2v6.7h-0.9l-0.1-1.1h0
			c-0.6,0.7-1.3,1.2-2.2,1.2C106,69.1,105.4,68.2,105.4,66.4z"/>
		<path class="st16" d="M112.5,65.5c0-2.2,1.4-3.6,2.9-3.6c0.8,0,1.3,0.3,1.9,0.8l0-1.2V59h1.2v9.9h-0.9l-0.1-0.8h0
			c-0.5,0.5-1.2,1-2,1C113.6,69.1,112.5,67.8,112.5,65.5z M117.3,67.2v-3.6c-0.6-0.5-1.1-0.7-1.7-0.7c-1.1,0-1.9,1.1-1.9,2.6
			c0,1.6,0.6,2.6,1.8,2.6C116.2,68.1,116.7,67.8,117.3,67.2z"/>
		<path class="st16" d="M120.2,65.5c0-2.2,1.5-3.6,3-3.6c1.7,0,2.7,1.2,2.7,3.2c0,0.2,0,0.5,0,0.6h-4.5c0.1,1.4,1,2.4,2.2,2.4
			c0.6,0,1.2-0.2,1.7-0.6l0.4,0.7c-0.6,0.4-1.3,0.7-2.2,0.7C121.6,69.1,120.2,67.7,120.2,65.5z M124.9,65c0-1.3-0.6-2.1-1.7-2.1
			c-0.9,0-1.8,0.7-1.9,2.1H124.9z"/>
		<path class="st16" d="M127.5,62.1h0.9l0.1,1h0c0.6-0.6,1.3-1.2,2.3-1.2c1.4,0,2,0.9,2,2.6v4.3h-1.2v-4.1c0-1.2-0.4-1.8-1.2-1.8
			c-0.7,0-1.2,0.4-1.8,1v4.9h-1.2L127.5,62.1L127.5,62.1z"/>
		<path class="st16" d="M135.4,66.8v-3.7h-1v-0.9l1.1,0l0.1-1.9h1v1.9h1.8v0.9h-1.8v3.7c0,0.8,0.3,1.3,1.1,1.3
			c0.2,0,0.6-0.1,0.8-0.2l0.2,0.9c-0.4,0.1-0.8,0.2-1.2,0.2C135.8,69.1,135.4,68.2,135.4,66.8z"/>
		<path class="st16" d="M139.6,62.4c0.7-0.5,1.1-0.9,1.1-1.8l-0.2-0.9l0.6,0.7c-0.2,0.2-0.3,0.2-0.6,0.2c-0.4,0-0.7-0.2-0.7-0.7
			s0.3-0.8,0.7-0.8c0.6,0,0.9,0.5,0.9,1.2c0,1.1-0.5,1.9-1.5,2.4L139.6,62.4z"/>
		<path class="st16" d="M142.5,68.1l0.6-0.7c0.6,0.5,1.2,0.8,2,0.8c0.9,0,1.3-0.5,1.3-1.1c0-0.7-0.8-1-1.5-1.3c-0.9-0.3-2-0.8-2-1.9
			c0-1.1,0.9-1.9,2.3-1.9c0.8,0,1.6,0.3,2.1,0.7l-0.6,0.7c-0.5-0.3-0.9-0.6-1.5-0.6c-0.8,0-1.2,0.5-1.2,1c0,0.6,0.7,0.9,1.5,1.2
			c1,0.4,2,0.8,2,2c0,1.1-0.9,2-2.4,2C144.1,69.1,143.2,68.7,142.5,68.1z"/>
		<path class="st16" d="M151.4,67.1c0-1.5,1.2-2.2,4.1-2.5c0-0.9-0.3-1.7-1.4-1.7c-0.8,0-1.5,0.4-2,0.7l-0.5-0.8
			c0.6-0.4,1.6-0.9,2.6-0.9c1.7,0,2.4,1.1,2.4,2.8v4.2h-0.9l-0.1-0.8h0c-0.6,0.6-1.4,1-2.2,1C152.3,69.1,151.4,68.3,151.4,67.1z
			 M155.6,67.2v-1.8c-2.3,0.3-3,0.8-3,1.7c0,0.8,0.5,1.1,1.2,1.1C154.3,68.2,154.9,67.8,155.6,67.2z"/>
		<path class="st16" d="M158.1,68.1l0.6-0.7c0.6,0.5,1.2,0.8,2,0.8c0.9,0,1.3-0.5,1.3-1.1c0-0.7-0.8-1-1.5-1.3c-0.9-0.3-2-0.8-2-1.9
			c0-1.1,0.9-1.9,2.3-1.9c0.8,0,1.6,0.3,2.1,0.7l-0.6,0.7c-0.5-0.3-0.9-0.6-1.5-0.6c-0.8,0-1.2,0.5-1.2,1c0,0.6,0.7,0.9,1.5,1.2
			c1,0.4,2,0.8,2,2c0,1.1-0.9,2-2.4,2C159.6,69.1,158.7,68.7,158.1,68.1z"/>
		<path class="st16" d="M163.9,68.1l0.6-0.7c0.6,0.5,1.2,0.8,2,0.8c0.9,0,1.3-0.5,1.3-1.1c0-0.7-0.8-1-1.5-1.3c-0.9-0.3-2-0.8-2-1.9
			c0-1.1,0.9-1.9,2.3-1.9c0.8,0,1.6,0.3,2.1,0.7l-0.6,0.7c-0.5-0.3-0.9-0.6-1.5-0.6c-0.8,0-1.2,0.5-1.2,1c0,0.6,0.7,0.9,1.5,1.2
			c1,0.4,2,0.8,2,2c0,1.1-0.9,2-2.4,2C165.4,69.1,164.5,68.7,163.9,68.1z"/>
		<path class="st16" d="M170.2,60c0-0.5,0.3-0.7,0.8-0.7s0.8,0.3,0.8,0.7c0,0.4-0.3,0.7-0.8,0.7C170.6,60.8,170.2,60.4,170.2,60z
			 M170.4,62.1h1.2v6.7h-1.2V62.1z"/>
		<path class="st16" d="M173.3,70.2c0-0.6,0.4-1.1,1-1.5v0c-0.3-0.2-0.6-0.6-0.6-1.1c0-0.6,0.4-1,0.7-1.2v0c-0.5-0.4-0.9-1-0.9-1.8
			c0-1.5,1.2-2.4,2.5-2.4c0.4,0,0.7,0.1,1,0.2h2.4v0.9H178c0.3,0.3,0.6,0.8,0.6,1.4c0,1.4-1.1,2.4-2.4,2.4c-0.3,0-0.7-0.1-1-0.2
			c-0.2,0.2-0.4,0.4-0.4,0.8c0,0.4,0.3,0.7,1.2,0.7h1.3c1.6,0,2.4,0.5,2.4,1.6c0,1.2-1.3,2.4-3.4,2.4
			C174.4,72,173.3,71.3,173.3,70.2z M178.4,69.8c0-0.6-0.5-0.8-1.3-0.8h-1.2c-0.3,0-0.6,0-0.9-0.1c-0.5,0.3-0.7,0.7-0.7,1.2
			c0,0.7,0.7,1.2,1.9,1.2C177.5,71.2,178.4,70.6,178.4,69.8z M177.5,64.4c0-1-0.6-1.6-1.4-1.6s-1.4,0.6-1.4,1.6c0,1,0.6,1.6,1.4,1.6
			S177.5,65.4,177.5,64.4z"/>
		<path class="st16" d="M180.8,62.1h0.9l0.1,1h0c0.6-0.6,1.3-1.2,2.3-1.2c1.4,0,2,0.9,2,2.6v4.3H185v-4.1c0-1.2-0.4-1.8-1.2-1.8
			c-0.7,0-1.2,0.4-1.8,1v4.9h-1.2L180.8,62.1L180.8,62.1z"/>
		<path class="st16" d="M188.4,62.1h0.9l0.1,1h0c0.6-0.6,1.3-1.2,2.1-1.2c1,0,1.6,0.5,1.8,1.3c0.7-0.7,1.4-1.3,2.2-1.3
			c1.4,0,2,0.9,2,2.6v4.3h-1.2v-4.1c0-1.2-0.4-1.8-1.2-1.8c-0.5,0-1.1,0.3-1.7,1v4.9h-1.2v-4.1c0-1.2-0.4-1.8-1.2-1.8
			c-0.5,0-1.1,0.3-1.7,1v4.9h-1.2v-6.7H188.4z"/>
		<path class="st16" d="M199.4,65.5c0-2.2,1.5-3.6,3-3.6c1.7,0,2.7,1.2,2.7,3.2c0,0.2,0,0.5,0,0.6h-4.5c0.1,1.4,1,2.4,2.2,2.4
			c0.6,0,1.2-0.2,1.7-0.6l0.4,0.7c-0.6,0.4-1.3,0.7-2.2,0.7C200.8,69.1,199.4,67.7,199.4,65.5z M204.1,65c0-1.3-0.6-2.1-1.7-2.1
			c-0.9,0-1.8,0.7-1.9,2.1H204.1z"/>
		<path class="st16" d="M206.7,62.1h0.9l0.1,1h0c0.6-0.6,1.3-1.2,2.3-1.2c1.4,0,2,0.9,2,2.6v4.3h-1.2v-4.1c0-1.2-0.4-1.8-1.2-1.8
			c-0.7,0-1.2,0.4-1.8,1v4.9h-1.2L206.7,62.1L206.7,62.1z"/>
		<path class="st16" d="M214.5,66.8v-3.7h-1v-0.9l1.1,0l0.1-1.9h1v1.9h1.8v0.9h-1.8v3.7c0,0.8,0.3,1.3,1.1,1.3
			c0.2,0,0.6-0.1,0.8-0.2l0.2,0.9c-0.4,0.1-0.8,0.2-1.2,0.2C215,69.1,214.5,68.2,214.5,66.8z"/>
		<path class="st16" d="M221,68.1l0.6-0.7c0.6,0.5,1.2,0.8,2,0.8c0.9,0,1.3-0.5,1.3-1.1c0-0.7-0.8-1-1.5-1.3c-0.9-0.3-2-0.8-2-1.9
			c0-1.1,0.9-1.9,2.3-1.9c0.8,0,1.6,0.3,2.1,0.7l-0.6,0.7c-0.5-0.3-0.9-0.6-1.5-0.6c-0.8,0-1.2,0.5-1.2,1c0,0.6,0.7,0.9,1.5,1.2
			c1,0.4,2,0.8,2,2c0,1.1-0.9,2-2.4,2C222.6,69.1,221.6,68.7,221,68.1z"/>
		<path class="st16" d="M227.4,66.4v-4.3h1.2v4.1c0,1.2,0.4,1.8,1.2,1.8c0.7,0,1.2-0.3,1.8-1.2v-4.8h1.2v6.7h-0.9l-0.1-1.1h0
			c-0.6,0.7-1.3,1.2-2.2,1.2C228.1,69.1,227.4,68.2,227.4,66.4z"/>
		<path class="st16" d="M236.1,68.2L236.1,68.2l-0.1,0.7h-0.9V59h1.2v2.7l0,1.2c0.6-0.6,1.4-0.9,2.1-0.9c1.8,0,2.7,1.3,2.7,3.4
			c0,2.3-1.4,3.7-2.9,3.7C237.4,69.1,236.7,68.8,236.1,68.2z M239.8,65.4c0-1.5-0.5-2.5-1.8-2.5c-0.6,0-1.2,0.3-1.8,0.9v3.6
			c0.6,0.5,1.2,0.7,1.6,0.7C239,68.1,239.8,67.1,239.8,65.4z"/>
		<path class="st16" d="M242.7,62.1h0.9l0.1,1h0c0.6-0.6,1.3-1.2,2.1-1.2c1,0,1.6,0.5,1.8,1.3c0.7-0.7,1.4-1.3,2.2-1.3
			c1.4,0,2,0.9,2,2.6v4.3h-1.2v-4.1c0-1.2-0.4-1.8-1.2-1.8c-0.5,0-1.1,0.3-1.7,1v4.9h-1.2v-4.1c0-1.2-0.4-1.8-1.2-1.8
			c-0.5,0-1.1,0.3-1.7,1v4.9h-1.2v-6.7H242.7z"/>
		<path class="st16" d="M254,60c0-0.5,0.3-0.7,0.8-0.7s0.8,0.3,0.8,0.7c0,0.4-0.3,0.7-0.8,0.7S254,60.4,254,60z M254.2,62.1h1.2v6.7
			h-1.2V62.1z"/>
		<path class="st16" d="M257.8,66.8v-3.7h-1v-0.9l1.1,0l0.1-1.9h1v1.9h1.8v0.9H259v3.7c0,0.8,0.3,1.3,1.1,1.3c0.2,0,0.6-0.1,0.8-0.2
			l0.2,0.9c-0.4,0.1-0.8,0.2-1.2,0.2C258.3,69.1,257.8,68.2,257.8,66.8z"/>
		<path class="st16" d="M262.5,66.8v-3.7h-1v-0.9l1.1,0l0.1-1.9h1v1.9h1.8v0.9h-1.8v3.7c0,0.8,0.3,1.3,1.1,1.3
			c0.2,0,0.6-0.1,0.8-0.2l0.2,0.9c-0.4,0.1-0.8,0.2-1.2,0.2C263,69.1,262.5,68.2,262.5,66.8z"/>
		<path class="st16" d="M266.5,65.5c0-2.2,1.5-3.6,3-3.6c1.7,0,2.7,1.2,2.7,3.2c0,0.2,0,0.5,0,0.6h-4.5c0.1,1.4,1,2.4,2.2,2.4
			c0.6,0,1.2-0.2,1.7-0.6l0.4,0.7c-0.6,0.4-1.3,0.7-2.2,0.7C267.9,69.1,266.5,67.7,266.5,65.5z M271.2,65c0-1.3-0.6-2.1-1.7-2.1
			c-0.9,0-1.8,0.7-1.9,2.1H271.2z"/>
		<path class="st16" d="M273.4,65.5c0-2.2,1.4-3.6,2.9-3.6c0.8,0,1.3,0.3,1.9,0.8l0-1.2V59h1.2v9.9h-0.9l-0.1-0.8h0
			c-0.5,0.5-1.2,1-2,1C274.4,69.1,273.4,67.8,273.4,65.5z M278.1,67.2v-3.6c-0.6-0.5-1.1-0.7-1.7-0.7c-1.1,0-1.9,1.1-1.9,2.6
			c0,1.6,0.6,2.6,1.8,2.6C277,68.1,277.5,67.8,278.1,67.2z"/>
		<path class="st16" d="M281.3,68.2c0-0.5,0.4-0.9,0.8-0.9s0.8,0.4,0.8,0.9c0,0.5-0.4,0.9-0.8,0.9S281.3,68.7,281.3,68.2z"/>
	</g>
</g>
</svg>
