<?xml version="1.0" encoding="utf-8"?>
<!-- Generator: Adobe Illustrator 25.2.1, SVG Export Plug-In . SVG Version: 6.00 Build 0)  -->
<svg version="1.1" id="bold" xmlns="http://www.w3.org/2000/svg" xmlns:xlink="http://www.w3.org/1999/xlink" x="0px" y="0px"
	 viewBox="0 0 68.5 68.5" style="enable-background:new 0 0 68.5 68.5;" xml:space="preserve">
<style type="text/css">
	.st0{fill:#FFFFFF;}
	.st1{opacity:0.5;fill:#FFFFFF;enable-background:new    ;}
	.st2{opacity:0.6;fill:#FFFFFF;enable-background:new    ;}
	.st3{opacity:0.3;fill:#FFFFFF;enable-background:new    ;}
	.st4{fill-rule:evenodd;clip-rule:evenodd;fill:#FFFFFF;}
	.st5{opacity:0.3;fill:#FFFFFF;}
	.st6{opacity:0.33;}
	.st7{opacity:0.53;}
	.st8{opacity:0.6;}
	.st9{opacity:0.41;}
	.st10{opacity:0.35;}
	.st11{opacity:0.31;}
	.st12{opacity:0.79;}
	.st13{opacity:0.28;}
	.st14{opacity:0.55;}
	.st15{opacity:0.45;}
	.st16{opacity:0.26;fill:#FFFFFF;}
</style>
<g>
	<path class="st0" d="M55.9,8V5.7H43.3c-0.6,0-1.1,0.5-1.1,1.1v38.8H33V48h9.2v13.7c0,0.6,0.5,1.1,1.1,1.1h12.6v-2.3h-9.2v-16h9.2
		v-2.3h-9.2V25.1h9.2v-2.3h-9.2V8H55.9z"/>
	<path class="st0" d="M32.1,67.4H9.2c-5,0-8.7-4.6-7.6-9.4c0.1-0.6,0.2-1.1,0.2-1.7L3.5,40c0-9.5,7.7-17.1,17.2-17.1
		S37.8,30.5,37.8,40l1.7,16.3c0,0.6,0.1,1.1,0.2,1.7C40.8,62.8,37.1,67.4,32.1,67.4L32.1,67.4z"/>
	<path class="st0" d="M5.8,6.7V8c0,8.2,6.7,14.9,14.9,14.9S35.5,16.2,35.5,8V6.7c0-2-2.5-3.1-3.9-1.6l-2.4,2.4
		c-0.9,0.9-2.5,0.9-3.4-0.1l-3.5-4.1c-0.9-1.1-2.6-1.1-3.5,0l-3.5,4.1c-0.9,1-2.4,1.1-3.4,0.1L9.7,5C8.2,3.6,5.8,4.6,5.8,6.7z"/>
	<path class="st0" d="M39.7,57.9c-0.1-0.6-0.2-1.1-0.2-1.7L37.8,40c0-6.8-4-12.7-9.7-15.4c3,3.1,4.9,7.3,4.9,12l1.7,16.3
		c0,0.6,0.1,1.1,0.2,1.7c1.1,4.8-2.6,9.4-7.6,9.4H4.4c-0.6,0-1.2-0.1-1.8-0.2c1.4,2.2,3.8,3.6,6.6,3.6h22.9
		C37.1,67.4,40.8,62.8,39.7,57.9L39.7,57.9z"/>
	<ellipse class="st0" cx="20.4" cy="46.8" rx="12.6" ry="12.6"/>
	<path class="st0" d="M34.2,4.6c0,8.2-6.7,14.8-14.9,14.8c-5.6,0-10.5-3.1-13-7.6c1.7,6.4,7.5,11.1,14.4,11.1
		c8.2,0,14.9-6.6,14.9-14.9V6.7C35.5,5.7,34.9,4.9,34.2,4.6z"/>
	<path class="st0" d="M21.9,23l0.7-0.7c2.3-2.3,3.6-5.4,3.6-8.6h-2.3c0,2.6-1,5.1-2.9,7l-1.1,1.1l-2.2-2.1c-1.8-1.8-2.5-4.4-1.9-6.8
		l-2.2-0.6c-0.8,3.2,0.2,6.6,2.5,9l1.5,1.5c-4.8,1.8-12.9,3.6-15.7-0.6L0,23.5c4.4,6.6,16.5,2.2,20,0.8c1.2,1.7,4.3,5.6,8.2,6.5
		l0.6-2.2C25.6,27.8,22.9,24.5,21.9,23L21.9,23z"/>
	<path class="st0" d="M21.6,37.8v-3.5h-2.3v3.5c-2.6,0.3-4.6,2.4-4.6,5.1c0,2.8,2.3,5.1,5.2,5.1H21c1.6,0,2.9,1.3,2.9,2.9
		c0,1.6-1.3,2.9-2.9,2.9h-1.1c-1.6,0-2.9-1.3-2.9-2.9v-0.6h-2.3v0.6c0,2.6,2,4.8,4.6,5.1v3.5h2.3v-3.5c2.6-0.3,4.6-2.4,4.6-5.1
		c0-2.8-2.3-5.1-5.2-5.1h-1.1c-1.6,0-2.9-1.3-2.9-2.9s1.3-2.9,2.9-2.9H21c1.6,0,2.9,1.3,2.9,2.9v0.6h2.3v-0.6
		C26.2,40.2,24.1,38,21.6,37.8z"/>
	<ellipse class="st0" cx="61.7" cy="6.9" rx="6.9" ry="6.9"/>
	<path class="st0" d="M67.4,54.8H55.9c-0.6,0-1.1,0.5-1.1,1.1v11.4c0,0.6,0.5,1.1,1.1,1.1h11.5c0.6,0,1.1-0.5,1.1-1.1V56
		C68.5,55.3,68,54.8,67.4,54.8z"/>
	<path class="st0" d="M68.2,20.9l-3.4-3.4c-0.2-0.2-0.5-0.3-0.8-0.3h-4.6c-0.3,0-0.6,0.1-0.8,0.3l-3.4,3.4c-0.2,0.2-0.3,0.5-0.3,0.8
		v4.6c0,0.3,0.1,0.6,0.3,0.8l3.4,3.4c0.2,0.2,0.5,0.3,0.8,0.3H64c0.3,0,0.6-0.1,0.8-0.3l3.4-3.4c0.2-0.2,0.3-0.5,0.3-0.8v-4.6
		C68.5,21.4,68.4,21.1,68.2,20.9z"/>
	<path class="st0" d="M68.3,42.7l-5.7-6.9c-0.4-0.5-1.3-0.5-1.8,0l-5.7,6.9c-0.4,0.4-0.4,1,0,1.5l5.7,6.9c0.2,0.3,0.5,0.4,0.9,0.4
		s0.7-0.2,0.9-0.4l5.7-6.9C68.6,43.7,68.6,43.1,68.3,42.7L68.3,42.7z"/>
	<path class="st0" d="M54.8,56v11.4c0,0.6,0.5,1.1,1.1,1.1h11.5C68,68.5,54.8,55.3,54.8,56z"/>
	<path class="st0" d="M60.8,35.8l-5.7,6.9c-0.4,0.4-0.4,1,0,1.5l5.7,6.9C61,51.3,61.2,35.3,60.8,35.8z"/>
	<path class="st0" d="M59.4,17.1c-0.3,0-0.6,0.1-0.8,0.3l-3.4,3.4c-0.2,0.2-0.3,0.5-0.3,0.8v4.6c0,0.3,0.1,0.6,0.3,0.8l3.4,3.4
		c0.2,0.2,0.5,0.3,0.8,0.3H64C64.3,30.8,59.4,17.1,59.4,17.1z"/>
	<path class="st0" d="M61.7,0c-3.8,0-6.9,3.1-6.9,6.9s3.1,6.9,6.9,6.9C65.5,13.7,65.5,0,61.7,0z"/>
</g>
</svg>
