<?xml version="1.0" encoding="utf-8"?>
<!-- Generator: Adobe Illustrator 25.2.1, SVG Export Plug-In . SVG Version: 6.00 Build 0)  -->
<svg version="1.1" id="bold" xmlns="http://www.w3.org/2000/svg" xmlns:xlink="http://www.w3.org/1999/xlink" x="0px" y="0px"
	 viewBox="0 0 68.5 68.5" style="enable-background:new 0 0 68.5 68.5;" xml:space="preserve">
<style type="text/css">
	.st0{fill:#FFFFFF;}
	.st1{opacity:0.5;fill:#FFFFFF;enable-background:new    ;}
	.st2{opacity:0.6;fill:#FFFFFF;enable-background:new    ;}
	.st3{opacity:0.3;fill:#FFFFFF;enable-background:new    ;}
	.st4{fill-rule:evenodd;clip-rule:evenodd;fill:#FFFFFF;}
	.st5{opacity:0.3;fill:#FFFFFF;}
	.st6{opacity:0.33;}
	.st7{opacity:0.53;}
	.st8{opacity:0.6;}
	.st9{opacity:0.41;}
	.st10{opacity:0.35;}
	.st11{opacity:0.31;}
	.st12{opacity:0.79;}
	.st13{opacity:0.28;}
	.st14{opacity:0.55;}
	.st15{opacity:0.45;}
	.st16{opacity:0.26;fill:#FFFFFF;}
</style>
<g>
	<path class="st0" d="M34.3,2.9C15.3,2.9,0,17.6,0,35.7c0,9.5,4.2,18.1,11,24.1l0.1-0.1v-2.9c0-0.3,0.3-0.6,0.6-0.6h16.7
		c0.3,0,0.6,0.3,0.6,0.6V68l0.1,0.2c1.6,0.2,3.3,0.3,5,0.3c18.9,0,34.3-14.7,34.3-32.8S53.2,2.9,34.3,2.9z"/>
	<g>
		<g>
			<path class="st0" d="M40.7,0.4v5.8L41,6.3h6.2l0.4-0.1V0.4c0-0.2-0.2-0.4-0.4-0.4h-6C40.9,0,40.7,0.2,40.7,0.4z"/>
		</g>
		<path class="st0" d="M43.5,0.4c0-0.2,0.2-0.4,0.4-0.4h-2.8c-0.2,0-0.4,0.2-0.4,0.4v5.8h2.8V0.4z"/>
		<path class="st0" d="M40.7,6.2h6.8v12.6h-6.8V6.2z"/>
		<path class="st0" d="M40.7,6.2h2.8v12.6h-2.8V6.2z"/>
		<g>
			<g>
				<g>
					<path class="st0" d="M10.8,5.7L8.5,9.4c-1.2,1.9,0.3,4.3,2.6,4.3s3.8-2.4,2.6-4.3l-2.3-3.8C11.3,5.4,10.9,5.4,10.8,5.7z"/>
				</g>
				<path class="st0" d="M10.8,9.4L12.3,7l-0.8-1.3c-0.2-0.3-0.5-0.3-0.7,0L8.5,9.4c-1.2,1.9,0.3,4.3,2.6,4.3c0.4,0,0.8-0.1,1.1-0.2
					C10.6,13,9.8,11,10.8,9.4z"/>
			</g>
			<g>
				<g>
					<g>
						<path class="st0" d="M26.5,44.7v-5.8h-4.5v-2.1c0-0.6-0.5-1-1.1-1H9.9c-1.8,0-3.2,1.4-3.2,3.1v8.3c0,1.4,0.6,2.6,1.5,3.6
							l3.4,3.2c0.6,0.6,1.1,1.4,1.3,2.2h14.4c0.2-0.8,0.7-1.6,1.4-2.2l0.9-0.9C27.7,50.8,26.5,47.9,26.5,44.7L26.5,44.7z"/>
						<path class="st0" d="M26.5,25.7C26,24.9,25,24.5,24,24.5c-1.8,0-3.2,1.4-3.2,3.1v-1.2c0-1.7-1.4-3.1-3.2-3.1
							c-1.8,0-3.2,1.4-3.2,3.1v-8c0-1.7-1.4-3.1-3.2-3.1s-3.2,1.4-3.2,3.1v18.3c0.5-0.5,1.2-0.7,2-0.7H21c0.5,0,0.9,0.4,0.9,0.9V39
							c0,0.6-0.2,1.1-0.5,1.5c0.6,0.7,1.5,1.2,2.6,1.2c1,0,1.9-0.5,2.5-1.2L26.5,25.7L26.5,25.7z"/>
						<g>
							<path class="st0" d="M17.5,35.8v-9.4c0-1.1,0.7-2.1,1.6-2.7c-0.5-0.3-1-0.4-1.6-0.4c-1.8,0-3.2,1.4-3.2,3.1v9.4L17.5,35.8
								L17.5,35.8z"/>
						</g>
						<g>
							<path class="st0" d="M24,38.7V27.6c0-1.1,0.7-2.1,1.6-2.7c-0.5-0.3-1-0.4-1.6-0.4c-1.8,0-3.2,1.4-3.2,3.1v8.3H21
								c0.6,0,1.1,0.5,1.1,1v2.1V39c0,0.6-0.2,1.2-0.5,1.7c0.6,0.7,1.5,1.1,2.5,1.1c0.6,0,1.1-0.2,1.6-0.4
								C24.7,40.8,24,39.9,24,38.7L24,38.7z"/>
							<path class="st0" d="M9.9,35.8h1.2V18.4c0-1.2,0.7-2.2,1.6-2.7c-0.5-0.3-1-0.4-1.6-0.4c-1.8,0-3.2,1.4-3.2,3.1v18.1
								C8.5,36.1,9.2,35.8,9.9,35.8L9.9,35.8z"/>
						</g>
					</g>
					<g>
						<path class="st0" d="M28.5,56.2H11.8c-0.4,0-0.8,0.3-0.8,0.7v2.9c5,4.4,11.3,7.4,18.3,8.4V56.9C29.3,56.5,28.9,56.2,28.5,56.2
							L28.5,56.2z"/>
					</g>
					<g>
						<path class="st0" d="M11,56.9v2.9c1.8,1.6,3.9,3.1,6.1,4.3v-7.2c0-0.4,0.3-0.7,0.8-0.7h-6.1C11.3,56.2,11,56.5,11,56.9z"/>
					</g>
				</g>
				<g>
					<g>
						<ellipse class="st0" cx="11.1" cy="18.6" rx="1.2" ry="1.2"/>
					</g>
				</g>
				<g>
					<path class="st0" d="M21,35.8H9.9c-1.8,0-3.2,1.4-3.2,3.1v8.3c0,1.4,0.6,2.6,1.5,3.6l3.4,3.2h1.3c3.4,0,6.1-2.6,6.1-5.8
						c0-1.9-1.1-3.6-2.8-4.5L12.8,42H19c1.7,0,3.1-1.3,3.1-3v-0.1v-2.1C22.1,36.3,21.6,35.8,21,35.8L21,35.8z"/>
				</g>
			</g>
		</g>
		<g>
			<g>
				<path class="st0" d="M47.2,58.6H41c-8,0-14.6-6.2-14.6-13.9V25.6c0-3.8,3.3-7,7.3-7h20.8c4,0,7.3,3.1,7.3,7v19.1
					C61.8,52.4,55.3,58.6,47.2,58.6z"/>
			</g>
			<path class="st0" d="M30.1,44.7V25.6c0-1.9,1.6-3.5,3.6-3.5h2.4c1.3-2.1,3.6-3.5,6.3-3.5h-8.7c-4,0-7.3,3.1-7.3,7v19.1
				c0,7.7,6.5,13.9,14.6,13.9h6.3c0.4,0,0.8,0,1.2,0c-3.2-0.3-6.2-1.5-8.5-3.5C34.4,54.6,30.1,50.1,30.1,44.7L30.1,44.7z"/>
			<g>
				<path class="st0" d="M41,55.1c-6,0-10.9-4.7-10.9-10.5V25.6c0-1.9,1.6-3.5,3.6-3.5h20.8c2,0,3.6,1.6,3.6,3.5v19.1
					c0,5.8-4.9,10.5-10.9,10.5L41,55.1z"/>
			</g>
			<path class="st0" d="M37.3,44.7v-1.8h-2.9c-0.8,0-1.5-0.6-1.5-1.4V27.8c0-0.8,0.7-1.4,1.5-1.4h2.9v-0.8c0-1.9,1.6-3.5,3.6-3.5
				h-7.3c-2,0-3.6,1.6-3.6,3.5v19.1c0,5.8,4.9,10.5,10.9,10.5h6.3c0.2,0,0.3,0,0.5,0C42,54.9,37.3,50.3,37.3,44.7L37.3,44.7z"/>
			<g>
				<g>
					<path class="st0" d="M37.9,50.8h-0.4c-1.6,0-2.9-1.2-2.9-2.8c0-1.5,1.3-2.8,2.9-2.8h0.4c1.6,0,2.9,1.2,2.9,2.8
						C40.8,49.6,39.5,50.8,37.9,50.8z"/>
				</g>
				<path class="st0" d="M37.5,48c0-1.1,0.7-2.1,1.7-2.5c-0.4-0.2-0.8-0.3-1.2-0.3h-0.4c-1.6,0-2.9,1.2-2.9,2.8
					c0,1.5,1.3,2.8,2.9,2.8h0.4c0.4,0,0.9-0.1,1.2-0.3C38.2,50.1,37.5,49.1,37.5,48z"/>
				<g>
					<path class="st0" d="M50.7,50.8h-0.4c-1.6,0-2.9-1.2-2.9-2.8c0-1.5,1.3-2.8,2.9-2.8h0.4c1.6,0,2.9,1.2,2.9,2.8
						C53.7,49.6,52.3,50.8,50.7,50.8z"/>
				</g>
				<path class="st0" d="M50.2,48c0-1.1,0.7-2.1,1.7-2.5c-0.4-0.2-0.8-0.3-1.2-0.3h-0.4c-1.6,0-2.9,1.2-2.9,2.8
					c0,1.5,1.3,2.8,2.9,2.8h0.4c0.4,0,0.8-0.1,1.2-0.3C50.9,50.1,50.2,49.2,50.2,48z"/>
			</g>
			<g>
				<path class="st0" d="M53.8,42.9H34.4c-0.8,0-1.5-0.6-1.5-1.4V27.8c0-0.8,0.7-1.4,1.5-1.4h19.4c0.8,0,1.5,0.6,1.5,1.4v13.8
					C55.3,42.3,54.6,42.9,53.8,42.9L53.8,42.9z"/>
			</g>
			<g>
				<path class="st0" d="M38.8,41.5V27.8c0-0.8,0.7-1.4,1.5-1.4h-5.8c-0.8,0-1.5,0.6-1.5,1.4v13.8c0,0.8,0.7,1.4,1.5,1.4h5.8
					C39.5,42.9,38.8,42.3,38.8,41.5z"/>
			</g>
		</g>
		<g>
			<g>
				<ellipse class="st0" cx="52.8" cy="40.6" rx="1" ry="1"/>
			</g>
			<g>
				<ellipse class="st0" cx="35.4" cy="40.6" rx="1" ry="1"/>
			</g>
			<g>
				<ellipse class="st0" cx="35.4" cy="37.8" rx="1" ry="1"/>
			</g>
		</g>
		<g>
			<path class="st0" d="M42.1,29.8H40c-1,0-1.7,0.7-1.7,1.7v2.4c0,0.9,0.8,1.7,1.7,1.7h1.7v1.7h-2.1c-0.6,0-1,0.4-1,1
				c0,0.6,0.5,1,1,1h2.5c1,0,1.7-0.7,1.7-1.7v-6.2C43.8,30.5,43.1,29.8,42.1,29.8L42.1,29.8z M41.7,33.5h-1.4v-1.7h1.4V33.5z"/>
			<g>
				<path class="st0" d="M48.2,39.3h-2.1c-1,0-1.7-0.7-1.7-1.7v-6.2c0-0.9,0.8-1.7,1.7-1.7h2.1c1,0,1.7,0.7,1.7,1.7v6.2
					C49.9,38.5,49.2,39.3,48.2,39.3z M46.5,37.3h1.4v-5.5h-1.4V37.3z"/>
			</g>
		</g>
	</g>
</g>
</svg>
