<?xml version="1.0" encoding="utf-8"?>
<!-- Generator: Adobe Illustrator 25.2.1, SVG Export Plug-In . SVG Version: 6.00 Build 0)  -->
<svg version="1.1" id="bold" xmlns="http://www.w3.org/2000/svg" xmlns:xlink="http://www.w3.org/1999/xlink" x="0px" y="0px"
	 viewBox="0 0 68.5 57.7" style="enable-background:new 0 0 68.5 57.7;" xml:space="preserve">
<style type="text/css">
	.st0{fill:#FC573B;}
	.st1{fill:#FD907E;}
	.st2{fill:#FFAC96;}
	.st3{fill:#FFBCAB;}
	.st4{fill:#006DF0;}
	.st5{fill:#D80027;}
	.st6{fill:#BD0022;}
	.st7{fill:#F1F2F2;}
	.st8{fill:#858585;}
	.st9{fill:#57A5FF;}
	.st10{fill:#4481C7;}
	.st11{fill:#FFD45A;}
	.st12{fill:#FFFFFF;}
	.st13{fill:#D64528;}
	.st14{fill:#FF914D;}
	.st15{fill:#3449A3;}
	.st16{fill:#2E872B;}
	.st17{fill:#D97B41;}
	.st18{fill:#226320;}
	.st19{fill:#2A3B85;}
	.st20{fill:#B53A22;}
	.st21{fill:url(#SVGID_1_);}
	.st22{fill:url(#SVGID_2_);}
	.st23{fill:url(#SVGID_3_);}
	.st24{fill:url(#SVGID_4_);}
	.st25{fill:url(#SVGID_5_);}
	.st26{opacity:0.5;fill:url(#SVGID_6_);enable-background:new    ;}
	.st27{fill:url(#SVGID_7_);}
	.st28{opacity:0.5;fill:url(#SVGID_8_);enable-background:new    ;}
	.st29{fill:url(#SVGID_9_);}
	.st30{fill:url(#SVGID_10_);}
	.st31{opacity:0.6;fill:url(#SVGID_11_);enable-background:new    ;}
	.st32{fill:url(#SVGID_12_);}
	.st33{fill:url(#SVGID_13_);}
	.st34{fill:url(#SVGID_14_);}
	.st35{fill:url(#SVGID_15_);}
	.st36{fill:url(#SVGID_16_);}
	.st37{opacity:0.5;fill:url(#SVGID_17_);enable-background:new    ;}
	.st38{fill:url(#SVGID_18_);}
	.st39{opacity:0.6;fill:url(#SVGID_19_);enable-background:new    ;}
	.st40{fill:url(#SVGID_20_);}
	.st41{fill:url(#SVGID_21_);}
	.st42{fill:url(#SVGID_22_);}
	.st43{opacity:0.3;fill:url(#SVGID_23_);enable-background:new    ;}
	.st44{fill:#23292E;}
	.st45{fill:#2E373D;}
	.st46{fill:#CECECE;}
	.st47{fill:#525E65;}
	.st48{fill:#627681;}
	.st49{fill:#E33400;}
	.st50{fill:#872E02;}
	.st51{fill:#82A5B9;}
	.st52{fill-rule:evenodd;clip-rule:evenodd;fill:#F9AC00;}
	.st53{fill-rule:evenodd;clip-rule:evenodd;fill:#FDC72E;}
	.st54{fill:#F9C795;}
	.st55{fill-rule:evenodd;clip-rule:evenodd;fill:#FDD7AD;}
	.st56{fill-rule:evenodd;clip-rule:evenodd;fill:#E6B17C;}
	.st57{fill:#2A92FA;}
	.st58{fill-rule:evenodd;clip-rule:evenodd;fill:#0E82F5;}
	.st59{fill-rule:evenodd;clip-rule:evenodd;fill:#F0414A;}
	.st60{fill-rule:evenodd;clip-rule:evenodd;fill:#FB545C;}
	.st61{fill-rule:evenodd;clip-rule:evenodd;fill:#3BD97D;}
	.st62{fill-rule:evenodd;clip-rule:evenodd;fill:#4FE88E;}
	.st63{fill-rule:evenodd;clip-rule:evenodd;fill:#2A92FA;}
	.st64{fill:#DDD3D3;}
	.st65{fill:#DB2C2C;}
	.st66{fill:#F13B3B;}
	.st67{fill:#CEC4C4;}
	.st68{fill:#332522;}
	.st69{fill:#47342F;}
	.st70{fill:#604843;}
	.st71{fill:#E5E3E3;}
	.st72{opacity:0.3;fill:#FFFFFF;}
	.st73{fill:#F8F8FF;}
	.st74{fill:#D8D7F9;}
	.st75{fill:#B889E0;}
	.st76{fill:#EFC7F9;}
	.st77{fill:#2D1164;}
	.st78{fill:#FFB6B1;}
	.st79{fill:#F47382;}
	.st80{fill:#C64F60;}
	.st81{opacity:0.33;}
	.st82{fill:#B9B9EA;}
	.st83{fill:#D3D3F4;}
	.st84{fill:#E8E8FC;}
	.st85{fill:#7E4DC4;}
	.st86{fill:#5642AD;}
	.st87{fill:#FEA046;}
	.st88{fill:#E15254;}
	.st89{opacity:0.53;}
	.st90{fill:#FFD1AB;}
	.st91{fill:#322277;}
	.st92{fill:#8AC9FE;}
	.st93{fill:#BFBFBF;}
	.st94{fill:#F8F6F6;}
	.st95{fill:#E2E2E2;}
	.st96{fill:#FE646F;}
	.st97{fill:#FD4755;}
	.st98{fill:#FED2A4;}
	.st99{fill:#FFBD86;}
	.st100{fill:#FFE5C2;}
	.st101{fill:#9C9C9C;}
	.st102{fill:#838383;}
	.st103{fill:#26A6FE;}
	.st104{fill:#0593FC;}
	.st105{fill:#EAF6FF;}
	.st106{fill:#0172FB;}
	.st107{fill:#25303F;}
	.st108{fill:#D33D48;}
	.st109{fill:#394456;}
	.st110{fill:#F4D72F;}
	.st111{fill:#FFA488;}
	.st112{fill:#E27466;}
	.st113{fill:#FFC4B6;}
	.st114{fill:#CC9D19;}
	.st115{fill:#EFCC3C;}
	.st116{fill:#FCE275;}
	.st117{fill:#EFBE35;}
	.st118{fill:#E0B52B;}
	.st119{fill:#76D6C4;}
	.st120{fill:#5B6A7F;}
	.st121{fill:#528432;}
	.st122{fill:#80BC50;}
	.st123{fill:#B2B8BF;}
	.st124{fill:#E2F2FA;}
	.st125{fill:#5BB3FF;}
	.st126{fill:#5CA7D9;}
	.st127{fill:#FF9D43;}
	.st128{fill:#00477F;}
	.st129{fill:#B6E0F4;}
	.st130{fill:#1C90CF;}
	.st131{fill:url(#SVGID_24_);}
	.st132{fill:#FFBCA5;}
	.st133{fill:#F8FBFF;}
	.st134{fill:#E0EFFF;}
	.st135{fill:#FFB59E;}
	.st136{fill:none;stroke:#000000;stroke-width:0.75;stroke-linecap:round;stroke-linejoin:round;stroke-miterlimit:10;}
	.st137{fill:#BEE9EB;}
	.st138{fill:#FFF6BC;}
	.st139{fill:#FF6E15;}
	.st140{fill:#7FCEED;}
	.st141{fill:#212121;}
	.st142{fill:#383838;}
	.st143{fill:#2A2A2A;}
	.st144{fill:#F5B0A6;}
	.st145{opacity:0.6;}
	.st146{fill:#F18A8B;}
	.st147{fill:#D37A7F;}
	.st148{fill:#0F0F0F;}
	.st149{fill:#202020;}
	.st150{fill:#1D1D1D;}
	.st151{fill:#2E6857;}
	.st152{fill:#255144;}
	.st153{fill:#40947E;}
	.st154{fill:#6FC183;}
	.st155{fill:#7A8DB0;}
	.st156{opacity:0.41;}
	.st157{fill:#243354;}
	.st158{fill:#EAEAEA;}
	.st159{fill:#2F4171;}
	.st160{fill:#2C4DA2;}
	.st161{fill:#99B1DA;}
	.st162{fill:#B5CAE8;}
	.st163{fill:#EDA9A2;}
	.st164{fill:#3D5891;}
	.st165{fill:#5681BF;}
	.st166{fill:#D1DBED;}
	.st167{opacity:0.35;}
	.st168{fill:#233F7C;}
	.st169{fill:#D2D2D2;}
	.st170{fill:#F19A6D;}
	.st171{fill:#7A7A7A;}
	.st172{fill:#F3CE90;}
	.st173{opacity:0.31;}
	.st174{fill:#292929;}
	.st175{fill:#515151;}
	.st176{fill:#3F3F3F;}
	.st177{fill-rule:evenodd;clip-rule:evenodd;fill:#D1DBED;}
	.st178{fill-rule:evenodd;clip-rule:evenodd;fill:#FFFFFF;}
	.st179{opacity:0.79;}
	.st180{opacity:0.28;}
	.st181{fill:#393939;}
	.st182{opacity:0.55;}
	.st183{fill:#A8A8A8;}
	.st184{fill:#B7B7B7;}
	.st185{fill:#EF7C59;}
	.st186{fill:#A0A0A0;}
	.st187{fill:#B9B9B9;}
	.st188{fill-rule:evenodd;clip-rule:evenodd;fill:#3D5891;}
	.st189{fill-rule:evenodd;clip-rule:evenodd;fill:#5681BF;}
	.st190{fill-rule:evenodd;clip-rule:evenodd;fill:#B5CAE8;}
	.st191{opacity:0.45;}
	.st192{fill-rule:evenodd;clip-rule:evenodd;fill:#99B1DA;}
	.st193{fill:#F0F0F0;}
	.st194{fill:#EACDB0;}
	.st195{fill:#A1BDCC;}
	.st196{fill:#8C9498;}
	.st197{fill:#3A3029;}
	.st198{fill:#59595B;}
	.st199{opacity:0.26;}
	.st200{fill:none;}
	.st201{fill:#6596C1;}
	.st202{fill:#5A8FB7;}
	.st203{fill:#C2969C;}
	.st204{fill:#754C3D;}
	.st205{fill:#F2D263;}
	.st206{fill:#AECCDC;}
	.st207{fill:#DEC2A7;}
	.st208{fill:#8AAD9F;}
	.st209{fill:#9E6652;}
	.st210{fill:#514943;}
	.st211{fill:#CAB5A1;}
	.st212{fill:#BCAC98;}
	.st213{fill:#D3C2A4;}
	.st214{fill:#37454D;}
	.st215{fill:#4F3C22;}
	.st216{fill:#DACAAF;}
	.st217{fill:#B26650;}
	.st218{fill:#2E4661;}
	.st219{fill:#FFFFF1;}
	.st220{fill:#FFD3A4;}
	.st221{fill:#FFBE84;}
	.st222{fill:#D65A2F;}
	.st223{fill:#A03914;}
	.st224{fill:#FFAF3E;}
	.st225{fill:#314652;}
	.st226{fill:#3C3A41;}
	.st227{fill:#FF9500;}
	.st228{fill:#E9336D;}
</style>
<g>
	<path class="st12" d="M14.2,12.2c-0.1,0-0.3-0.1-0.4-0.1c0.3-0.1,0.6-0.1,0.9-0.2l0,0C14.5,12,14.3,12.2,14.2,12.2z"/>
	<g>
		<path class="st12" d="M33.8,6.5C33.8,6.5,33.8,6.5,33.8,6.5c-0.3-0.2-0.6-0.4-1-0.4h-8.6c-1-0.8-2.4-1.8-3.5-2.6
			C20,3,19.4,2.6,19.2,2.5c-0.7-0.6-1.4-0.4-2.5-0.2c-0.2,0.1-0.5,0.1-0.8,0.2c-1.4,0.3-8,0.9-8.9,1L6.5,3.3C6.5,3,6.4,2.7,6.4,2.7
			c0-0.1-0.1-0.2-0.2-0.3L0.2,0C0.1,0,0.1,0,0,0v10.7l2.1,0.5c0.1,0,0.2,0,0.2,0c0,0,0.5-0.1,1.2-0.7l0,0c4,2.4,5.9,1.9,6.4,1.7
			c0.7,0.1,1.8,0,2.7-0.1c-0.3,0.1-0.6,0.2-0.7,0.3c-0.4,0.3-0.7,0.8-0.6,1.2c0.1,0.5,0.9,0.7,2.5,1.1c0.2,0,0.3,0.1,0.4,0.1
			c0.5,0.1,1.1,0,1.4-0.1c0.2,0.1,0.5,0.2,0.8,0.1c0.2-0.1,0.8-0.1,1.1-0.2c0.1,0,0.3,0.1,0.5,0.2c0.1,0.2,0.3,0.4,0.5,0.6
			c0.2,0.1,0.5,0.2,0.8,0.2h13.4c0.5,0,0.9-0.3,1.2-0.7c0.1-0.2,0.2-0.4,0.2-0.6v-7C34.2,7.1,34,6.8,33.8,6.5z M14.2,12.3
			c-0.4-0.1-0.7-0.2-0.9-0.2c0,0-0.1,0-0.1,0c0.6-0.1,1.2-0.2,1.5-0.3l0.1,0.1C14.5,12.1,14.3,12.2,14.2,12.3z"/>
		<g>
			<path class="st107" d="M2.2,10.9c0,0,1-0.3,2.9-2.3S6,2.8,6,2.8L2.6,4.1L2.2,10.9z"/>
			<g>
				<path class="st108" d="M32.8,15.3H19.4c-0.2,0-0.4-0.1-0.5-0.2c-0.3-0.2-0.4-0.4-0.4-0.7v-7c0-0.3,0.1-0.5,0.4-0.7
					c0.2-0.1,0.4-0.2,0.6-0.2h13.4c0.3,0,0.5,0.1,0.7,0.3c0.2,0.2,0.3,0.4,0.3,0.6v7c0,0.2,0,0.3-0.1,0.4
					C33.5,15.1,33.2,15.3,32.8,15.3z"/>
				<path class="st108" d="M18.5,9.3v5.1c0,0.3,0.2,0.6,0.4,0.7c0.2,0.1,0.3,0.2,0.5,0.2h13.4c0.4,0,0.7-0.2,0.8-0.5
					c0.1-0.1,0.1-0.3,0.1-0.4V9.3H18.5z"/>
				<rect x="18.5" y="8.4" class="st109" width="15.3" height="1.7"/>
				<g>
					<ellipse class="st12" cx="28.8" cy="13.2" rx="1.4" ry="1.3"/>
					<ellipse class="st110" cx="30.9" cy="13.2" rx="1.4" ry="1.3"/>
				</g>
			</g>
			<g>
				<path class="st111" d="M0,1.7l7,2.1c0,0,7.4-0.7,9-1c1.6-0.3,2.3-0.6,2.9-0.1c0.6,0.6,6.1,4.2,6.2,4.9s-0.3,3.7-0.7,4.2
					c-0.4,0.5-1.2,2.6-1.7,2.6s-1.6-1.4-0.1-3.2c0,0-0.1-1.3,0.3-2.4c0,0-1.2-0.6-1.6-0.9c0,0,0.8,2.7,0.7,3.6
					c-0.1,0.9-2.8,2.8-3.3,2.9c-0.5,0.1-1-0.2-1-0.2s-1,0.1-1.3,0.2c-0.3,0.1-0.7-0.2-0.7-0.2s-0.7,0.3-1.3,0.2
					c-0.6-0.1-2.5-0.5-2.6-0.9c-0.1-0.4,0.7-1.6,2.4-0.9c0,0,0.7-0.6,1.2-0.5l-0.5-0.9c0,0-3.4,0.8-5,0.5c0,0-1.7,1-6.2-1.7L0,9.7
					V1.7z"/>
				<path class="st111" d="M0,1.7l7,2.1c0,0,7.4-0.7,9-1c1.6-0.3,2.3-0.6,2.9-0.1c0.6,0.6,6.1,4.2,6.2,4.9s-0.3,3.7-0.7,4.2
					c-0.4,0.5-1.2,2.6-1.7,2.6s-1.6-1.4-0.1-3.2c0,0-0.1-1.3,0.3-2.4c0,0-1.2-0.6-1.6-0.9c0,0,0.8,2.7,0.7,3.6
					c-0.1,0.9-2.8,2.8-3.3,2.9c-0.5,0.1-1-0.2-1-0.2s-1,0.1-1.3,0.2c-0.3,0.1-0.7-0.2-0.7-0.2s-0.7,0.3-1.3,0.2
					c-0.6-0.1-2.5-0.5-2.6-0.9c-0.1-0.4,0.7-1.6,2.4-0.9c0,0,0.7-0.6,1.2-0.5l-0.5-0.9c0,0-3.4,0.8-5,0.5c0,0-1.7,1-6.2-1.7L0,9.7
					V1.7z"/>
				<path class="st112" d="M23.5,8.7c0,0-0.4,1.9-0.4,2.8c0,0-1.1,1.5-1,2.7c-0.3-0.4-0.5-1-0.2-1.7c0.2-0.6,0.4-0.9,0.6-1
					c0,0,0-0.1,0.1-0.1c0,0,0,0,0-0.1c0-0.2,0-0.3,0-0.5c0,0,0,0,0,0c0-0.5,0.1-1.2,0.3-1.8c0,0-1.2-0.6-1.6-0.9l-0.5-1.5L23.5,8.7z
					 M19,7.3c0,0,1.3,4.5,1.2,5c-0.1,0.4-2.5,2-2.5,2l0.4,0.1c0,0,2.5-1.6,2.5-2.1C20.7,11.9,19.9,8.5,19,7.3z M17,8.3
					c0,0,1.4,3.7,1,4.4c-0.4,0.8-2.3,1.6-2.3,1.6s0.1,0.2,0.4,0.2c0,0,2.3-1.5,2.3-2.2C18.5,11.6,17.8,9.1,17,8.3z M14.9,11.4
					c0,0-0.3-0.6-0.4-1c0,0-1.3,0-1.7-0.1c-0.3-0.2-0.6-1.1-0.6-1.1s0,0.7,0.3,1.1c0,0-2,1.4-2.5,1.5C9.9,11.9,10.7,12.4,14.9,11.4z
					"/>
				<path class="st113" d="M23.4,13.7c0,0-0.5-0.1-0.8-0.4c0,0-0.5,0.5-0.3,1.1C22.4,14.4,22.7,15,23.4,13.7z"/>
				<path class="st113" d="M11.8,13.6L11.8,13.6c0.1,0,0.8,0.3,1.1,0.4c0,0-0.1,0.1,0,0.2C13,14.2,11.9,14,11.8,13.6z"/>
				<path class="st112" d="M3.7,10.2c4.5,2.7,6.2,1.7,6.2,1.7c0.3,0,0.6,0.1,1,0.1l0.4-0.8c0,0-1.2,0-2.3,0.2c-1,0.2-4.6-1-5.1-2.6
					C3.3,7.1,5.1,3.6,5.1,3.6L4.2,3.7L0,6.7v3L3.7,10.2z"/>
			</g>
			<g>
				<path class="st109" d="M0,10.3l2.2,0.6c0,0,0.1-5.4,3.8-8.1L0,0.4V10.3z"/>
				<path class="st107" d="M0,7.4v2.9l2.2,0.6c0,0,0-1.2,0.4-2.7C1.9,8,0.9,7.7,0,7.4z"/>
			</g>
		</g>
	</g>
	<g>
		<path class="st12" d="M68.5,45l-5.8-0.3c-0.2,0-0.4,0.1-0.4,0.3c0,0-0.1,0.6-0.3,1.5l-1.6,0c-0.5-0.3-3-1.6-5.7-1.4
			c-1.3,0.1-2.4,0.5-3.2,0.9c-0.8-1.5-2.5-2.3-4.2-2c-0.1,0-0.2,0-0.3,0.1c-0.7-1.6-2.5-2.5-4.3-2.2c-2.1,0.4-3.5,2.3-3.2,4.3
			c0.1,0.3,0.2,0.7,0.3,1c-1.3,0.8-2,2.3-1.7,3.8c0,0.2,0.1,0.4,0.2,0.6c-0.5,0.2-0.9,0.4-1.1,0.7c-0.1,0.2-0.1,0.4-0.1,0.5
			c0,0.2,0.2,0.3,0.4,0.4c-1,0.1-1.6,0.6-1.7,0.9c-0.3,0.4-0.4,0.9-0.2,1.2c0.1,0.1,0.2,0.3,0.8,0.4c-0.2,0.1-0.3,0.2-0.4,0.3
			c-0.6,0.5-0.4,1-0.3,1.2c0.3,0.5,1.1,0.7,1.9,0.7c0.2,0,0.5,0,0.7,0c0.2,0,0.6-0.1,1-0.1c2.8-0.3,5.8-0.7,6.9-1.3
			c1.1-0.7,11.6-3.5,12.5-3.7c0.1,0,0.5,0,2.7,0.3c0,0.4,0,0.7,0,1c0,0.2,0.1,0.4,0.3,0.4l6.9,1.3c0,0,0.1,0,0.1,0V45z"/>
		<g>
			<g>
				<ellipse class="st114" cx="43.3" cy="45.3" rx="3.5" ry="3.3"/>
				<ellipse class="st115" cx="43.3" cy="45.3" rx="2.7" ry="2.6"/>
				<path class="st116" d="M46,44.9c-0.3-1.4-1.7-2.3-3.2-2.1c-1.3,0.2-2.2,1.3-2.2,2.5h5.5C46.1,45.2,46.1,45,46,44.9z"/>
				<ellipse class="st117" cx="43.3" cy="45.3" rx="2.5" ry="2.3"/>
				<path class="st118" d="M43.8,45.6c0-0.1-0.1-0.1-0.2-0.2c-0.1,0-0.2-0.1-0.3-0.1c0,0,0,0,0,0c0,0,0,0,0,0c0,0,0,0,0,0
					c0,0,0,0,0,0c-0.1,0-0.2,0-0.2-0.1c-0.1,0-0.1,0-0.1-0.1c0,0-0.1-0.1-0.1-0.2v0c0-0.1,0-0.2,0.1-0.2c0.1,0,0.2-0.1,0.3-0.1
					c0.1,0,0.1,0,0.2,0c0.1,0,0.1,0.1,0.2,0.1l0.2-0.2c-0.1,0-0.1-0.1-0.2-0.1c-0.1,0-0.1,0-0.2-0.1c0,0-0.1,0-0.1,0v-0.2h-0.3v0.2
					c-0.1,0-0.1,0-0.2,0c-0.1,0-0.2,0.1-0.2,0.2c0,0.1-0.1,0.2-0.1,0.3v0c0,0.1,0,0.2,0.1,0.3c0.1,0.1,0.1,0.1,0.2,0.1
					c0.1,0,0.2,0.1,0.3,0.1c0,0,0,0,0,0c0,0,0,0,0,0c0,0,0,0,0,0s0,0,0,0c0.1,0,0.1,0,0.2,0c0,0,0.1,0,0.1,0.1c0,0,0,0.1,0,0.1v0
					c0,0.1,0,0.2-0.1,0.2s-0.2,0.1-0.3,0.1c-0.1,0-0.2,0-0.3-0.1c-0.1,0-0.2-0.1-0.2-0.2l-0.2,0.2c0.1,0.1,0.1,0.1,0.2,0.2
					c0.1,0,0.1,0.1,0.2,0.1c0,0,0.1,0,0.1,0v0.2h0.3v-0.2c0.1,0,0.2,0,0.2,0c0.1,0,0.2-0.1,0.2-0.2c0.1-0.1,0.1-0.2,0.1-0.3v0
					C43.9,45.7,43.9,45.6,43.8,45.6z"/>
				<path class="st116" d="M43.9,45.4c0-0.1-0.1-0.1-0.2-0.2c-0.1,0-0.2-0.1-0.3-0.1c0,0,0,0,0,0c0,0,0,0,0,0c0,0,0,0,0,0
					c0,0,0,0,0,0c-0.1,0-0.2,0-0.2-0.1s-0.1,0-0.1-0.1c0,0-0.1-0.1-0.1-0.2v0c0-0.1,0-0.2,0.1-0.2c0.1,0,0.2-0.1,0.3-0.1
					c0.1,0,0.1,0,0.2,0c0.1,0,0.1,0.1,0.2,0.1l0.2-0.2c-0.1,0-0.1-0.1-0.2-0.1c-0.1,0-0.1,0-0.2-0.1c0,0-0.1,0-0.1,0v-0.2h-0.3v0.2
					c-0.1,0-0.1,0-0.2,0c-0.1,0-0.2,0.1-0.2,0.2c0,0.1-0.1,0.2-0.1,0.3v0c0,0.1,0,0.2,0.1,0.3c0.1,0.1,0.1,0.1,0.2,0.1
					c0.1,0,0.2,0.1,0.3,0.1c0,0,0,0,0,0c0,0,0,0,0,0c0,0,0,0,0,0s0,0,0,0c0.1,0,0.1,0,0.2,0c0,0,0.1,0,0.1,0.1c0,0,0,0.1,0,0.1v0
					c0,0.1,0,0.2-0.1,0.2c-0.1,0-0.2,0.1-0.3,0.1c-0.1,0-0.2,0-0.3-0.1c-0.1,0-0.2-0.1-0.2-0.2L42.7,46c0.1,0.1,0.1,0.1,0.2,0.2
					c0.1,0,0.1,0.1,0.2,0.1c0,0,0.1,0,0.1,0v0.2h0.3v-0.2c0.1,0,0.2,0,0.2,0c0.1,0,0.2-0.1,0.2-0.2c0.1-0.1,0.1-0.2,0.1-0.3v0
					C44,45.6,44,45.5,43.9,45.4z"/>
			</g>
			<g>
				<path class="st112" d="M49.5,51.2c-0.1,0-0.1,0-0.2,0c0-0.4-0.2-1-0.8-1c-0.6,0-2.1,0.9-2.9,1.4c-1.8,0.3-3.5,0.7-3.5,0.7
					c-2.7-1.3-4.8-0.2-4.7,0.3c0.1,0.5,2.8,0.9,3.5,1.1c0.6,0.1,1.9,0,1.9,0l4-0.3C46.9,53.3,50.8,51.6,49.5,51.2z"/>
				<path class="st112" d="M42.6,55.5c0,0-6.4-0.1-6.8-0.7c-0.3-0.4,0.8-2.3,4.5-1.1c0,0,3.2-1.3,4.7-0.9
					C46.5,53.3,42.6,55.5,42.6,55.5z"/>
			</g>
			<g>
				<ellipse class="st114" cx="47.9" cy="47.5" rx="3.5" ry="3.3"/>
				<path class="st115" d="M50.6,47c0.3,1.4-0.7,2.7-2.2,3c-1.5,0.3-2.9-0.7-3.2-2.1c-0.3-1.4,0.7-2.7,2.2-3
					C48.9,44.7,50.4,45.6,50.6,47z"/>
				<path class="st116" d="M50.6,47c-0.3-1.4-1.7-2.3-3.2-2.1c-1.3,0.2-2.2,1.3-2.2,2.5h5.5C50.7,47.3,50.7,47.2,50.6,47z"/>
				<path class="st117" d="M50.4,47.1c0.2,1.3-0.6,2.5-2,2.7c-1.3,0.2-2.6-0.6-2.9-1.9c-0.2-1.3,0.6-2.5,2-2.7S50.1,45.8,50.4,47.1z
					"/>
				<path class="st118" d="M48.5,47.7c0-0.1-0.1-0.1-0.2-0.2s-0.2-0.1-0.3-0.1c0,0,0,0,0,0c0,0,0,0,0,0c0,0,0,0,0,0c0,0,0,0,0,0
					c-0.1,0-0.2,0-0.2-0.1c-0.1,0-0.1,0-0.1-0.1c0,0-0.1-0.1-0.1-0.2v0c0-0.1,0-0.2,0.1-0.2c0.1,0,0.2-0.1,0.3-0.1
					c0.1,0,0.1,0,0.2,0c0.1,0,0.1,0.1,0.2,0.1l0.2-0.2c-0.1,0-0.1-0.1-0.2-0.1c-0.1,0-0.1,0-0.2-0.1c0,0-0.1,0-0.1,0v-0.2h-0.3v0.2
					c-0.1,0-0.1,0-0.2,0c-0.1,0-0.2,0.1-0.2,0.2c0,0.1-0.1,0.2-0.1,0.3v0c0,0.1,0,0.2,0.1,0.3c0.1,0.1,0.1,0.1,0.2,0.1
					s0.2,0.1,0.3,0.1c0,0,0,0,0,0c0,0,0,0,0,0c0,0,0,0,0,0c0,0,0,0,0,0c0.1,0,0.1,0,0.2,0c0,0,0.1,0,0.1,0.1c0,0,0,0.1,0,0.1v0
					c0,0.1,0,0.2-0.1,0.2c-0.1,0-0.2,0.1-0.3,0.1c-0.1,0-0.2,0-0.3-0.1c-0.1,0-0.2-0.1-0.2-0.2l-0.2,0.2c0.1,0.1,0.1,0.1,0.2,0.2
					c0.1,0,0.1,0.1,0.2,0.1c0,0,0.1,0,0.1,0v0.2H48v-0.2c0.1,0,0.2,0,0.2,0c0.1,0,0.2-0.1,0.2-0.2c0.1-0.1,0.1-0.2,0.1-0.3v0
					C48.5,47.9,48.5,47.8,48.5,47.7z"/>
				<path class="st116" d="M48.5,47.6c0-0.1-0.1-0.1-0.2-0.2c-0.1,0-0.2-0.1-0.3-0.1c0,0,0,0,0,0c0,0,0,0,0,0c0,0,0,0,0,0
					c0,0,0,0,0,0c-0.1,0-0.2,0-0.2-0.1s-0.1,0-0.1-0.1c0,0-0.1-0.1-0.1-0.2v0c0-0.1,0-0.2,0.1-0.2c0.1,0,0.2-0.1,0.3-0.1
					c0.1,0,0.1,0,0.2,0c0.1,0,0.1,0.1,0.2,0.1l0.2-0.2c-0.1,0-0.1-0.1-0.2-0.1c-0.1,0-0.1,0-0.2-0.1c0,0-0.1,0-0.1,0v-0.2h-0.3v0.2
					c-0.1,0-0.1,0-0.2,0c-0.1,0-0.2,0.1-0.2,0.2s-0.1,0.2-0.1,0.3v0c0,0.1,0,0.2,0.1,0.3c0.1,0.1,0.1,0.1,0.2,0.1
					c0.1,0,0.2,0.1,0.3,0.1c0,0,0,0,0,0c0,0,0,0,0,0c0,0,0,0,0,0c0,0,0,0,0,0c0.1,0,0.1,0,0.2,0c0,0,0.1,0,0.1,0.1c0,0,0,0.1,0,0.1
					v0c0,0.1,0,0.2-0.1,0.2c-0.1,0-0.2,0.1-0.3,0.1c-0.1,0-0.2,0-0.3-0.1c-0.1,0-0.2-0.1-0.2-0.2l-0.2,0.2c0.1,0.1,0.1,0.1,0.2,0.2
					c0.1,0,0.1,0.1,0.2,0.1c0,0,0.1,0,0.1,0v0.2h0.3v-0.2c0.1,0,0.2,0,0.2,0c0.1,0,0.2-0.1,0.2-0.2c0.1-0.1,0.1-0.2,0.1-0.3v0
					C48.6,47.7,48.6,47.6,48.5,47.6z"/>
			</g>
			<g>
				<ellipse class="st114" cx="42" cy="50.1" rx="3.5" ry="3.3"/>
				<ellipse class="st115" cx="42" cy="50.1" rx="2.7" ry="2.6"/>
				<path class="st116" d="M44.6,49.6c-0.3-1.4-1.7-2.3-3.2-2.1c-1.3,0.2-2.2,1.3-2.2,2.5h5.5C44.7,49.9,44.7,49.8,44.6,49.6z"/>
				<ellipse class="st117" cx="42" cy="50.1" rx="2.5" ry="2.3"/>
				<path class="st118" d="M42.5,50.3c0-0.1-0.1-0.1-0.2-0.2c-0.1,0-0.2-0.1-0.3-0.1c0,0,0,0,0,0c0,0,0,0,0,0c0,0,0,0,0,0
					c0,0,0,0,0,0c-0.1,0-0.2,0-0.2-0.1c-0.1,0-0.1,0-0.1-0.1c0,0-0.1-0.1-0.1-0.2v0c0-0.1,0-0.2,0.1-0.2c0.1,0,0.2-0.1,0.3-0.1
					c0.1,0,0.1,0,0.2,0c0.1,0,0.1,0.1,0.2,0.1l0.2-0.2c-0.1,0-0.1-0.1-0.2-0.1c-0.1,0-0.1,0-0.2-0.1c0,0-0.1,0-0.1,0V49h-0.3v0.2
					c-0.1,0-0.1,0-0.2,0c-0.1,0-0.2,0.1-0.2,0.2c0,0.1-0.1,0.2-0.1,0.3v0c0,0.1,0,0.2,0.1,0.3c0.1,0.1,0.1,0.1,0.2,0.1
					c0.1,0,0.2,0.1,0.3,0.1c0,0,0,0,0,0c0,0,0,0,0,0c0,0,0,0,0,0c0,0,0,0,0,0c0.1,0,0.1,0,0.2,0c0,0,0.1,0,0.1,0.1c0,0,0,0.1,0,0.1
					v0c0,0.1,0,0.2-0.1,0.2c-0.1,0-0.2,0.1-0.3,0.1c-0.1,0-0.2,0-0.3-0.1c-0.1,0-0.2-0.1-0.2-0.2l-0.2,0.2c0.1,0.1,0.1,0.1,0.2,0.2
					c0.1,0,0.1,0.1,0.2,0.1c0,0,0.1,0,0.1,0v0.2H42v-0.2c0.1,0,0.2,0,0.2,0c0.1,0,0.2-0.1,0.2-0.2c0.1-0.1,0.1-0.2,0.1-0.3v0
					C42.5,50.5,42.5,50.4,42.5,50.3z"/>
				<path class="st116" d="M42.6,50.1c0-0.1-0.1-0.1-0.2-0.2c-0.1,0-0.2-0.1-0.3-0.1c0,0,0,0,0,0c0,0,0,0,0,0c0,0,0,0,0,0
					c0,0,0,0,0,0c-0.1,0-0.2,0-0.2-0.1c-0.1,0-0.1,0-0.1-0.1c0,0-0.1-0.1-0.1-0.2v0c0-0.1,0-0.2,0.1-0.2c0.1,0,0.2-0.1,0.3-0.1
					c0.1,0,0.1,0,0.2,0c0.1,0,0.1,0.1,0.2,0.1l0.2-0.2c-0.1,0-0.1-0.1-0.2-0.1c-0.1,0-0.1,0-0.2-0.1c0,0-0.1,0-0.1,0v-0.2h-0.3v0.2
					c-0.1,0-0.1,0-0.2,0c-0.1,0-0.2,0.1-0.2,0.2c0,0.1-0.1,0.2-0.1,0.3v0c0,0.1,0,0.2,0.1,0.3c0.1,0.1,0.1,0.1,0.2,0.1
					c0.1,0,0.2,0.1,0.3,0.1c0,0,0,0,0,0c0,0,0,0,0,0c0,0,0,0,0,0c0,0,0,0,0,0c0.1,0,0.1,0,0.2,0c0,0,0.1,0,0.1,0.1c0,0,0,0.1,0,0.1
					v0c0,0.1,0,0.2-0.1,0.2c-0.1,0-0.2,0.1-0.3,0.1c-0.1,0-0.2,0-0.3-0.1c-0.1,0-0.2-0.1-0.2-0.2l-0.2,0.2c0.1,0.1,0.1,0.1,0.2,0.2
					s0.1,0.1,0.2,0.1c0,0,0.1,0,0.1,0v0.2h0.3V51c0.1,0,0.2,0,0.2,0c0.1,0,0.2-0.1,0.2-0.2c0.1-0.1,0.1-0.2,0.1-0.3v0
					C42.6,50.3,42.6,50.2,42.6,50.1z"/>
			</g>
			<g>
				<path class="st111" d="M68.5,46.9l-8.3-0.1c0,0-2.6-1.6-5.5-1.4c-2.9,0.2-4.9,2.2-6.3,2.6c-1.4,0.3-4.2,0.7-5.1,1.1
					c-0.9,0.4-0.9,1.7-0.2,1.9c0.7,0.2,4.9-0.2,4.9-0.2s-3.5,2.1-4.7,3.2c-0.5,0.5-0.8,0.7-0.8,0.7S37.2,55,36.1,56
					c-0.9,0.9,0.4,1.5,2,1.3c1.2-0.2,6.4-0.6,7.7-1.4c1.2-0.7,11.9-3.6,12.6-3.7c0.7-0.1,10.1,1.3,10.1,1.3V46.9z"/>
				<path class="st113" d="M44,49.2c0,0-0.8,0.1-0.9,0.3c-0.1,0.2,0,0.6,0,0.8c0,0.2-0.1,0.3,0,0.4s0.8,0,1.1,0
					C44.3,50.8,44.5,49.8,44,49.2z"/>
				<path class="st113" d="M36.2,57.1c0,0,0.6,0.3,1.3,0.2c0,0-0.2-0.4-0.1-0.6c0,0-0.9,0-1,0C36.3,56.7,36.1,56.8,36.2,57.1z"/>
				<path class="st112" d="M68.5,53.5v-2c-7.3-0.4-9.9-0.9-10.7-0.7c-0.7,0.2-11.1,3.8-12.1,4.7c-1,0.9-5,1.5-5,1.5
					c1.9-0.2,4.3-0.6,5-1c1.2-0.7,11.9-3.6,12.6-3.7C59.2,52.1,68.5,53.5,68.5,53.5z"/>
			</g>
			<g>
				<path class="st109" d="M68.5,45.3L62.7,45c0,0-1,4.2-1.1,8.9l6.9,1.3V45.3z"/>
				<path class="st107" d="M68.5,51.6L61.8,51c-0.1,0.9-0.2,2.1-0.2,2.9l6.9,1.3V51.6z"/>
			</g>
		</g>
	</g>
	<g>
		<path class="st119" d="M34.3,47.6c0.8,0,1.5,0,2.3-0.1v-2.6c-0.8,0.1-1.5,0.2-2.3,0.2c-9.1,0-16.4-6.9-16.4-15.5
			c0-2.4,0.6-4.7,1.7-6.8l0.1-0.2l2.1,0.8l-1.1-6.6l-5.5,4.2l2,0.7L17,21.9c-1.2,2.4-1.8,5-1.8,7.7C15.1,39.6,23.7,47.6,34.3,47.6z"
			/>
		<path class="st119" d="M53.5,38.3l-2-0.7l0.1-0.3c1.2-2.4,1.8-5,1.8-7.7c0-9.5-7.9-17.4-17.9-18v2.6c8.6,0.6,15.2,7.3,15.2,15.4
			c0,2.4-0.6,4.7-1.7,6.8L49,36.7l-2.1-0.8l1.1,6.6L53.5,38.3z"/>
	</g>
	<g>
		<path class="st12" d="M42,21.9h-1.1v-1.2c0-0.3-0.1-0.7-0.4-0.9c-0.3-0.2-0.6-0.4-1-0.4h-12c-0.2,0-0.4,0-0.5,0.1
			c-0.5,0.2-0.8,0.7-0.8,1.2v17.9c0,0.4,0.2,0.7,0.4,0.9c0.3,0.2,0.6,0.3,0.9,0.3h12c0.3,0,0.7-0.1,0.9-0.3c0.3-0.2,0.5-0.6,0.5-1
			v-1.1H42c0.2,0,0.4-0.2,0.4-0.4V22.2C42.4,22,42.2,21.9,42,21.9z"/>
		<g>
			<g>
				<g>
					<path class="st109" d="M39.5,39.4h-12c-0.2,0-0.5-0.1-0.6-0.2c-0.2-0.2-0.3-0.4-0.3-0.7V20.6c0-0.4,0.2-0.7,0.6-0.8
						c0.1,0,0.2-0.1,0.4-0.1h12c0.3,0,0.5,0.1,0.7,0.3c0.2,0.2,0.3,0.4,0.3,0.6v17.9c0,0.3-0.1,0.5-0.3,0.7
						C40,39.3,39.8,39.4,39.5,39.4z"/>
					<g>
						<rect x="40.5" y="22.2" class="st109" width="1.5" height="14.8"/>
						<rect x="40.5" y="22.2" class="st107" width="0.6" height="14.8"/>
					</g>
					<path class="st120" d="M40.2,20c-0.2-0.2-0.4-0.3-0.7-0.3h-12c-0.1,0-0.3,0-0.4,0.1c-0.3,0.1-0.6,0.5-0.6,0.8v0.5
						c0-0.4,0.2-0.7,0.6-0.8c0.1,0,0.2-0.1,0.4-0.1h12c0.3,0,0.5,0.1,0.7,0.3c0.2,0.2,0.3,0.4,0.3,0.6v-0.5
						C40.5,20.4,40.4,20.2,40.2,20z"/>
					<path class="st107" d="M40.2,39.2c-0.2,0.2-0.4,0.3-0.7,0.3h-12c-0.1,0-0.3,0-0.4-0.1c-0.3-0.1-0.6-0.5-0.6-0.8v-0.5
						c0,0.4,0.2,0.7,0.6,0.8c0.1,0,0.2,0.1,0.4,0.1h12c0.3,0,0.5-0.1,0.7-0.3c0.2-0.2,0.3-0.4,0.3-0.6v0.5
						C40.5,38.9,40.4,39.1,40.2,39.2z"/>
					<rect x="27.5" y="21.1" class="st107" width="12.1" height="10.6"/>
					<rect x="27.8" y="21.4" class="st121" width="11.5" height="10"/>
					<rect x="28.1" y="21.7" class="st122" width="10.8" height="9.4"/>
					<g>
						<rect x="28" y="32.3" class="st107" width="3" height="1.9"/>
						<rect x="32" y="32.3" class="st107" width="3" height="1.9"/>
						<rect x="36" y="32.3" class="st107" width="3" height="1.9"/>
						<rect x="28.3" y="32.5" class="st108" width="2.5" height="1.4"/>
						<rect x="32.3" y="32.5" class="st110" width="2.5" height="1.4"/>
						<rect x="36.3" y="32.5" class="st122" width="2.5" height="1.4"/>
					</g>
					<g>
						<g>
							<rect x="28" y="35" class="st107" width="2" height="1.2"/>
							<rect x="28.2" y="35.2" class="st123" width="1.6" height="0.8"/>
						</g>
						<g>
							<rect x="30.3" y="35" class="st107" width="2" height="1.2"/>
							<rect x="30.5" y="35.2" class="st123" width="1.6" height="0.8"/>
						</g>
						<g>
							<rect x="32.5" y="35" class="st107" width="2" height="1.2"/>
							<rect x="32.7" y="35.2" class="st123" width="1.6" height="0.8"/>
						</g>
						<g>
							<rect x="34.8" y="35" class="st107" width="2" height="1.2"/>
							<rect x="35" y="35.2" class="st123" width="1.6" height="0.8"/>
						</g>
						<g>
							<rect x="37" y="35" class="st107" width="2" height="1.2"/>
							<rect x="37.2" y="35.2" class="st123" width="1.6" height="0.8"/>
						</g>
					</g>
					<g>
						<g>
							<rect x="28" y="36.7" class="st107" width="2" height="1.2"/>
							<rect x="28.2" y="36.8" class="st123" width="1.6" height="0.8"/>
						</g>
						<g>
							<rect x="30.3" y="36.7" class="st107" width="2" height="1.2"/>
							<rect x="30.5" y="36.8" class="st123" width="1.6" height="0.8"/>
						</g>
						<g>
							<rect x="32.5" y="36.7" class="st107" width="2" height="1.2"/>
							<rect x="32.7" y="36.8" class="st123" width="1.6" height="0.8"/>
						</g>
						<g>
							<rect x="34.8" y="36.7" class="st107" width="2" height="1.2"/>
							<rect x="35" y="36.8" class="st123" width="1.6" height="0.8"/>
						</g>
						<g>
							<rect x="37" y="36.7" class="st107" width="2" height="1.2"/>
							<rect x="37.2" y="36.8" class="st123" width="1.6" height="0.8"/>
						</g>
					</g>
				</g>
				<g>
					<path class="st12" d="M32.9,25.2v-0.5c0-0.8-0.7-1.5-1.6-1.5c-0.9,0-1.6,0.7-1.6,1.5v0.5c0,0.8,0.7,1.5,1.6,1.5
						C32.2,26.6,32.9,26,32.9,25.2z M30.9,25.2v-0.5c0-0.3,0.2-0.5,0.5-0.5c0.3,0,0.5,0.2,0.5,0.5v0.5c0,0.3-0.2,0.5-0.5,0.5
						C31.1,25.6,30.9,25.4,30.9,25.2z M35.7,23.2l-2.9,6.3h-1.5l2.9-6.3H35.7z M35.6,26c-0.9,0-1.6,0.7-1.6,1.5V28
						c0,0.8,0.7,1.5,1.6,1.5c0.9,0,1.6-0.7,1.6-1.5v-0.5C37.2,26.7,36.5,26,35.6,26z M36.1,28c0,0.3-0.2,0.5-0.5,0.5
						c-0.3,0-0.5-0.2-0.5-0.5v-0.5c0-0.3,0.2-0.5,0.5-0.5c0.3,0,0.5,0.2,0.5,0.5V28z"/>
					<path class="st110" d="M32.7,29.3h-1.2l2.7-6h1.2L32.7,29.3z M32.8,25.2v-0.5c0-0.7-0.6-1.3-1.4-1.3c-0.8,0-1.4,0.6-1.4,1.3
						v0.5c0,0.7,0.6,1.3,1.4,1.3C32.2,26.5,32.8,25.9,32.8,25.2z M32,24.6v0.5c0,0.3-0.3,0.6-0.7,0.6c-0.4,0-0.7-0.3-0.7-0.6v-0.5
						c0-0.3,0.3-0.6,0.7-0.6C31.8,24,32,24.3,32,24.6z M37,28v-0.5c0-0.7-0.6-1.3-1.4-1.3c-0.8,0-1.4,0.6-1.4,1.3V28
						c0,0.7,0.6,1.3,1.4,1.3C36.4,29.3,37,28.7,37,28z M36.3,27.5V28c0,0.3-0.3,0.6-0.7,0.6c-0.4,0-0.7-0.3-0.7-0.6v-0.5
						c0-0.3,0.3-0.6,0.7-0.6C36,26.8,36.3,27.1,36.3,27.5z"/>
				</g>
			</g>
		</g>
	</g>
</g>
</svg>
