<?xml version="1.0" encoding="utf-8"?>
<!-- Generator: Adobe Illustrator 25.2.1, SVG Export Plug-In . SVG Version: 6.00 Build 0)  -->
<svg version="1.1" id="bold" xmlns="http://www.w3.org/2000/svg" xmlns:xlink="http://www.w3.org/1999/xlink" x="0px" y="0px"
	 viewBox="0 0 68.5 68.5" style="enable-background:new 0 0 68.5 68.5;" xml:space="preserve">
<style type="text/css">
	.st0{fill:#FFFFFF;}
	.st1{opacity:0.5;fill:#FFFFFF;enable-background:new    ;}
	.st2{opacity:0.6;fill:#FFFFFF;enable-background:new    ;}
	.st3{opacity:0.3;fill:#FFFFFF;enable-background:new    ;}
	.st4{fill-rule:evenodd;clip-rule:evenodd;fill:#FFFFFF;}
	.st5{opacity:0.3;fill:#FFFFFF;}
	.st6{opacity:0.33;}
	.st7{opacity:0.53;}
	.st8{opacity:0.6;}
	.st9{opacity:0.41;}
	.st10{opacity:0.35;}
	.st11{opacity:0.31;}
	.st12{opacity:0.79;}
	.st13{opacity:0.28;}
	.st14{opacity:0.55;}
	.st15{opacity:0.45;}
	.st16{opacity:0.26;fill:#FFFFFF;}
</style>
<g>
	<g>
		<path class="st4" d="M21,25.1c3.9,0,7.2,2.6,8.7,6.4c0.1,0.3,0.1,0.6-0.1,0.9c-0.2,0.3-0.5,0.4-0.8,0.4H13.2
			c-0.3,0-0.6-0.2-0.8-0.4c-0.2-0.3-0.2-0.6-0.1-0.9C13.7,27.8,17.1,25.1,21,25.1z"/>
		<path class="st4" d="M22.1,25.2c3.4,0.5,6.2,2.9,7.6,6.3c0.1,0.3,0.1,0.6-0.1,0.9c-0.2,0.3-0.5,0.4-0.8,0.4H15.5
			c-0.3,0-0.6-0.2-0.8-0.4c-0.2-0.3-0.2-0.6-0.1-0.9C15.9,28.1,18.7,25.7,22.1,25.2z"/>
		<ellipse class="st0" cx="21" cy="20.9" rx="4.2" ry="4.2"/>
		<path class="st4" d="M21.9,16.9c1.9,0.4,3.4,2.1,3.4,4.1s-1.4,3.7-3.4,4.1c-1.9-0.4-3.4-2.1-3.4-4.1S19.9,17.3,21.9,16.9z"/>
	</g>
	<g>
		<path class="st4" d="M12,37c1.1-0.9,3-0.9,4.7,0.9c2.8,3,3.8,4,6.9,6.7c2,1.7,2.2,4.4,2.2,7c0,4.4,0.3,6.7,1.2,11H13.8
			c0.6-6-0.8-8.2-3.7-11.3c-2.7-2.9-3.3-3.1-4.6-7.1L0.2,26c-1.3-4.6,3.9-5.2,5-1.5C6.6,29,9.7,35.7,11.1,38
			C11.3,37.6,11.6,37.3,12,37L12,37z"/>
		<path class="st4" d="M12,37c0.9-0.7,2.2-0.9,3.6,0c-0.7,0-1.4,0.3-1.9,0.7C13.2,38,13,38.4,13,38.9c-0.2,2.3,3.6,6.1,5.4,7.8
			c0.3,0.3,0.6,0.6,0.8,0.8c0.4,0.4,0.4,1,0,1.4c-0.4,0.4-1,0.4-1.4,0c-0.2-0.2-0.5-0.5-0.7-0.8c-3-3-6.1-6.4-5.9-9.4
			c0-0.3,0.1-0.5,0.1-0.8C11.3,37.6,11.6,37.3,12,37L12,37z M15.9,62.6l0.1-1.7c0.2-5.3-1.5-7.6-4.1-10.4c-0.4-0.4-0.7-0.8-1-1.1
			c-1.8-2-2.3-2.4-3.4-5.7L2,25c-0.4-1.3-0.1-2.3,0.7-2.6c0.3-0.1,0.7-0.1,1.1,0.1c-1.9-1.2-4.5,0-3.5,3.5l5.3,18.2
			c1.3,4,1.9,4.2,4.6,7.1c2.9,3.1,4.3,5.3,3.7,11.3L15.9,62.6L15.9,62.6z"/>
		<path class="st0" d="M12.4,62H28c0.7,0,1.2,0.5,1.2,1.2v4.2c0,0.7-0.5,1.2-1.2,1.2H12.4c-0.7,0-1.2-0.5-1.2-1.2v-4.2
			C11.2,62.5,11.8,62,12.4,62z"/>
		<path class="st4" d="M15.9,68.5h-3.5c-0.7,0-1.2-0.5-1.2-1.2v-4.2c0-0.6,0.5-1.2,1.2-1.2h3.5V68.5L15.9,68.5z"/>
	</g>
	<path class="st4" d="M34.3,2.6c-9.3-8.3-22.2,5.1,0,18.5C56.5,7.6,43.5-5.8,34.3,2.6z"/>
	<path class="st4" d="M34.3,2.6c-0.9-0.8-1.9-1.4-2.9-1.9C23.9-1,18.6,9.2,35.6,20.2C55.9,7.1,43.3-5.6,34.3,2.6L34.3,2.6z"/>
	<g>
		<path class="st4" d="M47.6,25.1c3.9,0,7.2,2.6,8.7,6.4c0.1,0.3,0.1,0.6-0.1,0.9c-0.2,0.3-0.5,0.4-0.8,0.4H39.8
			c-0.3,0-0.6-0.2-0.8-0.4c-0.2-0.3-0.2-0.6-0.1-0.9C40.3,27.8,43.7,25.1,47.6,25.1L47.6,25.1z"/>
		<path class="st4" d="M48.7,25.2c3.4,0.5,6.2,2.9,7.6,6.3c0.1,0.3,0.1,0.6-0.1,0.9c-0.2,0.3-0.5,0.4-0.8,0.4H42.1
			c-0.3,0-0.6-0.2-0.8-0.4c-0.2-0.3-0.2-0.6-0.1-0.9C42.5,28.1,45.3,25.7,48.7,25.2L48.7,25.2z"/>
		<ellipse class="st0" cx="47.6" cy="20.9" rx="4.2" ry="4.2"/>
		<path class="st4" d="M48.5,16.9c1.9,0.4,3.4,2.1,3.4,4.1s-1.4,3.7-3.4,4.1c-1.9-0.4-3.4-2.1-3.4-4.1S46.6,17.3,48.5,16.9z"/>
	</g>
	<path class="st4" d="M34.3,27.7c4.4,0,8.2,3,9.8,7.3c0.1,0.3,0.1,0.6-0.1,0.9c-0.2,0.3-0.5,0.4-0.8,0.4H25.4
		c-0.3,0-0.6-0.1-0.8-0.4c-0.2-0.3-0.2-0.6-0.1-0.9C26.1,30.7,29.9,27.7,34.3,27.7L34.3,27.7z"/>
	<path class="st4" d="M35.5,27.8c3.8,0.5,7.1,3.3,8.5,7.2c0.1,0.3,0.1,0.6-0.1,0.9s-0.5,0.4-0.8,0.4H28c-0.3,0-0.6-0.1-0.8-0.4
		C27,35.6,26.9,35.3,27,35C28.5,31.1,31.7,28.3,35.5,27.8z"/>
	<ellipse class="st0" cx="34.3" cy="23" rx="4.7" ry="4.7"/>
	<path class="st4" d="M35.4,18.5C37.5,19,39,20.8,39,23s-1.6,4.1-3.6,4.5c-2.1-0.5-3.6-2.3-3.6-4.5S33.3,19,35.4,18.5z"/>
	<g>
		<path class="st4" d="M56.6,37c-1.1-0.9-3-0.9-4.7,0.9c-2.8,3-3.8,4-6.9,6.7c-2,1.7-2.2,4.4-2.2,7c0,4.4-0.3,6.7-1.2,11h13.1
			c-0.6-6,0.8-8.2,3.7-11.3c2.7-2.9,3.3-3.1,4.6-7.1L68.3,26c1.3-4.6-3.9-5.2-5-1.5C61.9,29,58.9,35.7,57.4,38
			C57.2,37.6,57,37.3,56.6,37L56.6,37z"/>
		<path class="st4" d="M56.6,37c-0.9-0.7-2.2-0.9-3.6,0c0.7,0,1.4,0.3,1.9,0.7c0.4,0.3,0.7,0.7,0.7,1.2c0.2,2.3-3.6,6.1-5.4,7.8
			c-0.3,0.3-0.6,0.6-0.8,0.8c-0.4,0.4-0.4,1,0,1.4c0.4,0.4,1,0.4,1.4,0c0.2-0.2,0.5-0.5,0.7-0.8c3-3,6.1-6.4,5.9-9.4
			c0-0.3-0.1-0.5-0.1-0.8C57.2,37.6,57,37.3,56.6,37z M52.6,62.6l-0.1-1.7c-0.2-5.3,1.5-7.6,4.1-10.4c0.4-0.4,0.7-0.8,1-1.1
			c1.8-2,2.3-2.4,3.4-5.7L66.5,25c0.4-1.3,0.1-2.3-0.7-2.6c-0.3-0.1-0.7-0.1-1.1,0.1c1.9-1.2,4.5,0,3.5,3.5L63,44.2
			c-1.3,4-1.9,4.2-4.6,7.1c-2.9,3.1-4.3,5.3-3.7,11.3L52.6,62.6L52.6,62.6z"/>
		<path class="st0" d="M40.5,62h15.6c0.7,0,1.2,0.5,1.2,1.2v4.2c0,0.7-0.5,1.2-1.2,1.2H40.5c-0.7,0-1.2-0.5-1.2-1.2v-4.2
			C39.3,62.5,39.8,62,40.5,62L40.5,62z"/>
		<path class="st4" d="M52.6,68.5h3.5c0.7,0,1.2-0.5,1.2-1.2v-4.2c0-0.6-0.5-1.2-1.2-1.2h-3.5V68.5L52.6,68.5z"/>
	</g>
</g>
</svg>
