<?xml version="1.0" encoding="utf-8"?>
<!-- Generator: Adobe Illustrator 25.2.1, SVG Export Plug-In . SVG Version: 6.00 Build 0)  -->
<svg version="1.1" id="bold" xmlns="http://www.w3.org/2000/svg" xmlns:xlink="http://www.w3.org/1999/xlink" x="0px" y="0px"
	 viewBox="0 0 68.5 68.5" style="enable-background:new 0 0 68.5 68.5;" xml:space="preserve">
<style type="text/css">
	.st0{fill:#FFFFFF;}
	.st1{opacity:0.5;fill:#FFFFFF;enable-background:new    ;}
	.st2{opacity:0.6;fill:#FFFFFF;enable-background:new    ;}
	.st3{opacity:0.3;fill:#FFFFFF;enable-background:new    ;}
	.st4{fill-rule:evenodd;clip-rule:evenodd;fill:#FFFFFF;}
	.st5{opacity:0.3;fill:#FFFFFF;}
	.st6{opacity:0.33;}
	.st7{opacity:0.53;}
	.st8{opacity:0.6;}
	.st9{opacity:0.41;}
	.st10{opacity:0.35;}
	.st11{opacity:0.31;}
	.st12{opacity:0.79;}
	.st13{opacity:0.28;}
	.st14{opacity:0.55;}
	.st15{opacity:0.45;}
	.st16{opacity:0.26;fill:#FFFFFF;}
</style>
<g>
	<path class="st0" d="M59.2,6.3l-2.3,2.3C50.7,3.1,42.8,0,34.3,0C15.4,0,0,15.4,0,34.3c0,3.3,0.5,6.7,1.5,9.9
		c0.3,0.9,1.1,1.5,2.1,1.5c0.2,0,0.4,0,0.6-0.1c1.1-0.3,1.8-1.5,1.4-2.7c-0.9-2.8-1.3-5.7-1.3-8.7c0-16.5,13.5-30,30-30
		c7.3,0,14.2,2.7,19.6,7.4L52,13.5c-1.3,1.3-0.4,3.7,1.5,3.7h7.1c1.2,0,2.1-1,2.1-2.1V7.9C62.8,6,60.5,5,59.2,6.3L59.2,6.3z"/>
	<path class="st0" d="M67.1,24.4c-0.3-1.1-1.5-1.8-2.7-1.4c-1.1,0.3-1.8,1.5-1.4,2.7c0.8,2.8,1.3,5.7,1.3,8.7c0,16.5-13.5,30-30,30
		c-7.3,0-14.2-2.7-19.6-7.4l1.8-1.8c1.3-1.3,0.4-3.7-1.5-3.7H7.9c-1.2,0-2.1,1-2.1,2.1v7.1c0,1.9,2.3,2.9,3.7,1.5l2.3-2.3
		c6.2,5.5,14.1,8.6,22.6,8.6c18.9,0,34.3-15.4,34.3-34.3C68.5,30.9,68,27.6,67.1,24.4z"/>
	<path class="st0" d="M34.3,17.1c-9.4,0-17.1,7.4-17.1,16.4c0,1.2,1,2.1,2.1,2.1h12.9v12.5c0,1-0.8,1.8-1.8,1.8s-1.8-0.8-1.8-1.8
		v-0.4c0-1.2-1-2.1-2.1-2.1s-2.1,1-2.1,2.1v0.4c0,3.3,2.7,6.1,6.1,6.1c3.3,0,6.1-2.7,6.1-6.1V35.7h12.9c1.2,0,2.1-1,2.1-2.1
		C51.4,24.5,43.7,17.1,34.3,17.1z"/>
</g>
</svg>
