<?xml version="1.0" encoding="utf-8"?>
<!-- Generator: Adobe Illustrator 25.2.1, SVG Export Plug-In . SVG Version: 6.00 Build 0)  -->
<svg version="1.1" id="bold" xmlns="http://www.w3.org/2000/svg" xmlns:xlink="http://www.w3.org/1999/xlink" x="0px" y="0px"
	 viewBox="0 0 68.5 68.5" style="enable-background:new 0 0 68.5 68.5;" xml:space="preserve">
<style type="text/css">
	.st0{fill:#FFFFFF;}
	.st1{opacity:0.5;fill:#FFFFFF;enable-background:new    ;}
	.st2{opacity:0.6;fill:#FFFFFF;enable-background:new    ;}
	.st3{opacity:0.3;fill:#FFFFFF;enable-background:new    ;}
	.st4{fill-rule:evenodd;clip-rule:evenodd;fill:#FFFFFF;}
	.st5{opacity:0.3;fill:#FFFFFF;}
	.st6{opacity:0.33;}
	.st7{opacity:0.53;}
	.st8{opacity:0.6;}
	.st9{opacity:0.41;}
	.st10{opacity:0.35;}
	.st11{opacity:0.31;}
	.st12{opacity:0.79;}
	.st13{opacity:0.28;}
	.st14{opacity:0.55;}
	.st15{opacity:0.45;}
	.st16{opacity:0.26;fill:#FFFFFF;}
</style>
<g>
	<g>
		<path class="st0" d="M63.5,34.2c-1.2,0.7-1,2.9-1,2.9l1.1,0.2h-4.4v1.4c0.8,0,1.8,0,2.7,0h0l0,0c3.3-0.1,6.5-0.5,6.6-1.9
			C68.7,34,64.7,33.5,63.5,34.2z"/>
		<path class="st0" d="M5.1,34.2c1.2,0.7,1,2.9,1,2.9l-1.1,0.2h4.4v1.4c-0.8,0-1.8,0-2.7,0h0l0,0c-3.3-0.1-6.5-0.5-6.6-1.9
			C-0.1,34,3.8,33.5,5.1,34.2L5.1,34.2z"/>
		<ellipse class="st0" cx="65.3" cy="35.3" rx="1.9" ry="1.2"/>
		<ellipse class="st0" cx="3.3" cy="35.3" rx="1.9" ry="1.2"/>
		<path class="st0" d="M52.3,60.6V66c0,1.4,1.3,2.6,2.9,2.6H62c1.6,0,2.9-1.2,2.9-2.6v-5.4H52.3z"/>
		<path class="st1" d="M63.1,60.6c0,3.5-3.2,6.4-7.2,6.4h-2.5c-0.3,0-0.6-0.1-0.9-0.2c0.4,1,1.5,1.8,2.7,1.8H62
			c1.6,0,2.9-1.2,2.9-2.6v-5.4L63.1,60.6L63.1,60.6z"/>
		<path class="st0" d="M3.6,60.6V66c0,1.4,1.3,2.6,2.9,2.6h6.8c1.6,0,2.9-1.2,2.9-2.6v-5.4H3.6z"/>
		<path class="st1" d="M14.4,60.6c0,3.5-3.2,6.4-7.2,6.4H4.7c-0.3,0-0.6-0.1-0.9-0.2c0.4,1,1.5,1.8,2.7,1.8h6.8
			c1.6,0,2.9-1.2,2.9-2.6v-5.4L14.4,60.6L14.4,60.6z"/>
		<path class="st0" d="M6.8,38.2h54.9l5.7,6.5c0.8,0.9,1.2,2.1,1.2,3.2v11.1c0,2.6-2.4,4.7-5.3,4.7h-58c-2.9,0-5.3-2.1-5.3-4.7V48
			c0-1.2,0.4-2.3,1.2-3.2L6.8,38.2z"/>
		<path class="st0" d="M6.8,38.2l6.5-13.8c0.7-1.3,2.2-2.2,3.8-2.2h34.3c1.6,0,3.1,0.8,3.8,2.2l6.4,13.8L6.8,38.2L6.8,38.2z"/>
		<path class="st0" d="M58.2,34.9l-4.3-9.9c-0.2-0.5-0.7-0.7-1.2-0.7h-37c-0.5,0-1,0.3-1.2,0.7l-4.3,9.9c-0.4,0.8,0.3,1.7,1.2,1.7
			h45.6C58,36.6,58.6,35.7,58.2,34.9L58.2,34.9z"/>
		<path class="st2" d="M58.2,34.9l-4.3-9.9c-0.2-0.5-0.7-0.7-1.2-0.7h-3.2c1.9,4.4-1.4,9.3-6.3,9.3H10.9l-0.6,1.3
			c-0.4,0.8,0.3,1.7,1.2,1.7h45.6C58,36.6,58.6,35.7,58.2,34.9z"/>
		<g>
			<g>
				<path class="st0" d="M52.8,52.6c1.5-1,5.6-3.4,9.2-3.6c1.7-0.1,3.2,1,3.4,2.4c0.1,0.8,0,1.8-0.8,2.5c-1.4,1.3-8,1.2-11,1.1
					c-0.8,0-1.5-0.6-1.5-1.4C52.2,53.3,52.4,52.9,52.8,52.6L52.8,52.6z"/>
				<path class="st0" d="M52.8,52.6c0.5-0.4,1.4-0.9,2.4-1.4c-0.3,0.2-0.6,0.3-0.8,0.5c-0.4,0.3-0.6,0.7-0.6,1.1
					c0,0.7,0.6,1.3,1.5,1.4c2.4,0.1,7,0.2,9.5-0.5c-0.1,0.1-0.1,0.2-0.2,0.3c-1.4,1.3-8,1.2-11,1.1c-0.8,0-1.5-0.6-1.5-1.4
					C52.2,53.3,52.4,52.9,52.8,52.6L52.8,52.6z"/>
			</g>
			<g>
				<path class="st0" d="M15.7,52.6c-1.5-1-5.6-3.4-9.2-3.6c-1.7-0.1-3.2,1-3.4,2.4c-0.1,0.8,0,1.8,0.8,2.5c1.4,1.3,8,1.2,11,1.1
					c0.8,0,1.5-0.6,1.5-1.4C16.4,53.3,16.1,52.9,15.7,52.6L15.7,52.6z"/>
				<path class="st0" d="M15.7,52.6c-0.5-0.4-1.4-0.9-2.4-1.4c0.3,0.2,0.6,0.3,0.8,0.5c0.4,0.3,0.6,0.7,0.6,1.1
					c0,0.7-0.6,1.3-1.5,1.4c-2.4,0.1-7,0.2-9.5-0.5c0.1,0.1,0.1,0.2,0.2,0.3c1.4,1.3,8,1.2,11,1.1c0.8,0,1.5-0.6,1.5-1.4
					C16.4,53.3,16.1,52.9,15.7,52.6L15.7,52.6z"/>
			</g>
		</g>
		<path class="st0" d="M62.9,42.6l-1.8-2.3c-0.4-0.5-1.1-0.8-1.8-0.8H9.1c-0.8,0-1.5,0.3-1.9,0.9l-1.6,2.2c-0.6,1.1-0.1,2.5,0.9,2.8
			l8.2,2.8c1.6,0.5,3.2,0.8,4.9,0.8h13.8h1.8h13.8c1.7,0,3.3-0.3,4.9-0.8l8.2-2.8C63,45,63.5,43.6,62.9,42.6L62.9,42.6z"/>
		<path class="st0" d="M19.6,48.3c-1.6,0-3.1-0.3-4.7-0.8l-8.2-2.8c-0.2-0.1-0.4-0.3-0.5-0.6c-0.2-0.4-0.2-1,0.1-1.4l1.5-2.2
			c0.3-0.4,0.7-0.6,1.3-0.6h50.1c0.5,0,0.9,0.2,1.2,0.6l1.8,2.3c0.2,0.3,0.2,0.9,0,1.3c-0.1,0.3-0.3,0.5-0.5,0.6l-8.2,2.8
			c-1.5,0.5-3.1,0.8-4.7,0.8H19.6z"/>
		<path class="st0" d="M48.3,48.9H35.6h-2.7H20.3c-0.6,0-1,0.5-0.7,1l3.1,6.2c0.1,0.3,0.4,0.4,0.7,0.4h9.5h2.7h9.5
			c0.3,0,0.6-0.2,0.7-0.4l3.1-6.2C49.2,49.4,48.9,48.9,48.3,48.9L48.3,48.9z"/>
		<path class="st1" d="M48.3,48.9h-2.3c-1.7,3.5-5.7,5.7-10,5.7h-3h-2.7h-8.4l0.7,1.5c0.1,0.3,0.4,0.4,0.7,0.4h9.5h2.7h9.5
			c0.3,0,0.6-0.2,0.7-0.4l3.1-6.2C49.2,49.4,48.9,48.9,48.3,48.9L48.3,48.9z"/>
		<path class="st0" d="M59.2,59.8H9.4l-0.5,0.5c-0.4,0.4,0,1,0.5,1h24.9h24.9c0.6,0,0.9-0.6,0.5-1L59.2,59.8z"/>
		<path class="st2" d="M67.3,44.8l-5.7-6.5h-0.3l1.5,1.7c0.8,0.9,1.3,2.1,1.3,3.3c0,8.7-8,15.8-17.8,15.8H0.8c-0.3,0-0.5,0-0.8-0.1
			v0.2c0,2.6,2.4,4.7,5.3,4.7h58c2.9,0,5.3-2.1,5.3-4.7V48C68.5,46.8,68.1,45.7,67.3,44.8L67.3,44.8z"/>
	</g>
	<path class="st0" d="M52.4,6.9c0-1-0.8-1.9-1.9-2.2L36,0.3c-1.1-0.3-2.3-0.3-3.4,0L18.1,4.6c-1.2,0.4-1.9,1.2-1.9,2.2
		c0,5,1.4,19.6,18.1,25.7c0,0,0,0,0,0c0,0,0,0,0,0C51.1,26.5,52.4,11.8,52.4,6.9z"/>
	<path class="st0" d="M33,28.4C22.1,23.4,20.4,13.8,20.2,9.1c0-0.9,0.7-1.8,1.8-2.1l11.4-3.4c0.6-0.2,1.3-0.2,1.9,0L46.6,7
		c1.1,0.3,1.8,1.2,1.8,2.1c-0.2,4.6-2,14.3-12.8,19.3C34.8,28.7,33.8,28.7,33,28.4z"/>
	<g>
		<path class="st0" d="M33.2,19.7c-0.6,0-1.2-0.2-1.7-0.6l-2.7-2.3c-0.9-0.8-0.9-2.1,0-2.8c0.9-0.8,2.4-0.8,3.3,0l1,0.9l4.5-3.8
			c0.9-0.8,2.4-0.8,3.3,0c0.9,0.8,0.9,2.1,0,2.8l-6.2,5.2C34.4,19.5,33.8,19.7,33.2,19.7L33.2,19.7z"/>
	</g>
	<path class="st3" d="M50.5,4.6L36,0.3c-1.1-0.3-2.3-0.3-3.4,0c0,0-0.8,0.2-0.8,0.2c0.4-0.1,1.9,0.7,2.3,0.9
		c1.8,0.8,3.4,1.9,4.8,3.1c6.9,5.9,7.1,17.4,0.7,23.7c-0.6,0.6-4.9,4.5-5.9,4.1c0.2,0.1,0.4,0.2,0.7,0.3c16.7-6,18.1-20.7,18.1-25.7
		C52.4,5.9,51.6,5,50.5,4.6z"/>
</g>
</svg>
