<?xml version="1.0" encoding="utf-8"?>
<!-- Generator: Adobe Illustrator 25.2.1, SVG Export Plug-In . SVG Version: 6.00 Build 0)  -->
<svg version="1.1" id="bold" xmlns="http://www.w3.org/2000/svg" xmlns:xlink="http://www.w3.org/1999/xlink" x="0px" y="0px"
	 viewBox="0 0 68.5 68.5" style="enable-background:new 0 0 68.5 68.5;" xml:space="preserve">
<style type="text/css">
	.st0{fill:#FFFFFF;}
	.st1{opacity:0.5;fill:#FFFFFF;enable-background:new    ;}
	.st2{opacity:0.6;fill:#FFFFFF;enable-background:new    ;}
	.st3{opacity:0.3;fill:#FFFFFF;enable-background:new    ;}
	.st4{fill-rule:evenodd;clip-rule:evenodd;fill:#FFFFFF;}
	.st5{opacity:0.3;fill:#FFFFFF;}
	.st6{opacity:0.33;}
	.st7{opacity:0.53;}
	.st8{opacity:0.6;}
	.st9{opacity:0.41;}
	.st10{opacity:0.35;}
	.st11{opacity:0.31;}
	.st12{opacity:0.79;}
	.st13{opacity:0.28;}
	.st14{opacity:0.55;}
	.st15{opacity:0.45;}
	.st16{opacity:0.26;fill:#FFFFFF;}
</style>
<g id="healthcare-covid19-coronavirus-hand-hearth">
	<path class="st0" d="M14.9,32.2L9.5,16.7C9,14.9,7.1,13.7,5.2,14c-1.9,0.4-3.2,2.3-2.8,4.2c0,0.1,0,0.1,0,0.2l5.6,17L14.9,32.2z"/>
	<path class="st0" d="M53.7,32.2l5.4-15.4c0.5-1.9,2.3-3.1,4.2-2.7c1.9,0.4,3.2,2.3,2.8,4.2c0,0.1,0,0.1,0,0.2l-5.6,17L53.7,32.2z"
		/>
	<path class="st0" d="M26,38.6l-10.5-6.1c-1.5-0.9-3.4-0.5-4.5,0.8L7.1,21.5c-0.5-1.9-2.3-3.1-4.2-2.7C0.9,19.1-0.3,21,0.1,23
		c0,0.1,0,0.1,0,0.2l5.2,19.2C5.5,43.2,6,44,6.7,44.6l8.1,7.1c1,0.9,1.6,2.2,1.6,3.5v3.8h14.3V46.8C30.7,43.4,28.9,40.3,26,38.6z"/>
	<path class="st0" d="M65.7,18.7c-1.9-0.3-3.8,0.9-4.2,2.7l-3.8,11.8c-1.1-1.3-3-1.7-4.5-0.8l-10.5,6.1c-2.9,1.7-4.7,4.8-4.7,8.2
		v12.3h14.3v-3.8c0-1.4,0.6-2.6,1.6-3.5l8.1-7.1c0.7-0.6,1.2-1.4,1.4-2.3l5.2-19.2c0.5-1.9-0.6-3.8-2.5-4.3
		C65.8,18.8,65.8,18.7,65.7,18.7L65.7,18.7z"/>
	<path class="st0" d="M36.7,59.1v9.5h16.7v-9.5h-1.2H37.8H36.7z"/>
	<path class="st0" d="M31.9,59.1h-1.2H16.4h-1.2v9.5h16.7V59.1z"/>
	<path class="st0" d="M50.3,18.3l-0.8,0.8L34.3,34.2L19.1,19.2l-0.8-0.8C14,14.3,13.8,7.5,17.9,3.3S28.8-1.1,33.1,3
		c0.1,0.1,0.2,0.2,0.3,0.3l0.8,0.8l0.8-0.8C39.2-1,46-1.1,50.3,3s4.4,10.8,0.3,15.1C50.5,18.1,50.4,18.2,50.3,18.3z"/>
	<path class="st0" d="M50.3,3.3C48,1,44.7-0.1,41.5,0.2C47.4,0.9,51.6,6.1,51,12c-0.3,2.4-1.4,4.6-3.1,6.4l-0.8,0.8L33.1,33l1.2,1.2
		l15.2-15.1l0.8-0.8C54.5,14.2,54.5,7.4,50.3,3.3z"/>
	<path class="st0" d="M36.7,22.4v-4.7h4.8v-4.7h-4.8V8.2h-4.8v4.7h-4.8v4.7h4.8v4.7H36.7z"/>
	<g>
		<path class="st0" d="M56.7,36.2l-8,4.4c-0.5,0.3-0.7,0.9-0.4,1.3c0.3,0.5,0.9,0.7,1.4,0.5c0,0,0,0,0.1,0l6.9-3.8
			c1.5-0.9,2.2-2.7,1.6-4.3C58,35.1,57.4,35.8,56.7,36.2L56.7,36.2z"/>
		<path class="st0" d="M11.9,36.2l8,4.4c0.5,0.3,0.7,0.9,0.4,1.3c-0.3,0.5-0.9,0.7-1.4,0.5c0,0,0,0-0.1,0l-6.9-3.8
			c-1.5-0.9-2.2-2.7-1.6-4.3C10.6,35.1,11.1,35.8,11.9,36.2L11.9,36.2z"/>
	</g>
</g>
</svg>
