<?xml version="1.0" encoding="utf-8"?>
<!-- Generator: Adobe Illustrator 25.2.1, SVG Export Plug-In . SVG Version: 6.00 Build 0)  -->
<svg version="1.1" id="bold" xmlns="http://www.w3.org/2000/svg" xmlns:xlink="http://www.w3.org/1999/xlink" x="0px" y="0px"
	 viewBox="0 0 68.5 68.5" style="enable-background:new 0 0 68.5 68.5;" xml:space="preserve">
<style type="text/css">
	.st0{fill:#FC573B;}
	.st1{fill:#FD907E;}
	.st2{fill:#FFAC96;}
	.st3{fill:#FFBCAB;}
	.st4{fill:#006DF0;}
	.st5{fill:#D80027;}
	.st6{fill:#BD0022;}
	.st7{fill:#F1F2F2;}
	.st8{fill:#858585;}
	.st9{fill:#57A5FF;}
	.st10{fill:#4481C7;}
	.st11{fill:#FFD45A;}
	.st12{fill:#FFFFFF;}
	.st13{fill:#D64528;}
	.st14{fill:#FF914D;}
	.st15{fill:#3449A3;}
	.st16{fill:#2E872B;}
	.st17{fill:#D97B41;}
	.st18{fill:#226320;}
	.st19{fill:#2A3B85;}
	.st20{fill:#B53A22;}
	.st21{fill:url(#SVGID_1_);}
	.st22{fill:url(#SVGID_2_);}
	.st23{fill:url(#SVGID_3_);}
	.st24{fill:url(#SVGID_4_);}
	.st25{fill:url(#SVGID_5_);}
	.st26{opacity:0.5;fill:url(#SVGID_6_);enable-background:new    ;}
	.st27{fill:url(#SVGID_7_);}
	.st28{opacity:0.5;fill:url(#SVGID_8_);enable-background:new    ;}
	.st29{fill:url(#SVGID_9_);}
	.st30{fill:url(#SVGID_10_);}
	.st31{opacity:0.6;fill:url(#SVGID_11_);enable-background:new    ;}
	.st32{fill:url(#SVGID_12_);}
	.st33{fill:url(#SVGID_13_);}
	.st34{fill:url(#SVGID_14_);}
	.st35{fill:url(#SVGID_15_);}
	.st36{fill:url(#SVGID_16_);}
	.st37{opacity:0.5;fill:url(#SVGID_17_);enable-background:new    ;}
	.st38{fill:url(#SVGID_18_);}
	.st39{opacity:0.6;fill:url(#SVGID_19_);enable-background:new    ;}
	.st40{fill:url(#SVGID_20_);}
	.st41{fill:url(#SVGID_21_);}
	.st42{fill:url(#SVGID_22_);}
	.st43{opacity:0.3;fill:url(#SVGID_23_);enable-background:new    ;}
	.st44{fill:#23292E;}
	.st45{fill:#2E373D;}
	.st46{fill:#CECECE;}
	.st47{fill:#525E65;}
	.st48{fill:#627681;}
	.st49{fill:#E33400;}
	.st50{fill:#872E02;}
	.st51{fill:#82A5B9;}
	.st52{fill-rule:evenodd;clip-rule:evenodd;fill:#F9AC00;}
	.st53{fill-rule:evenodd;clip-rule:evenodd;fill:#FDC72E;}
	.st54{fill:#F9C795;}
	.st55{fill-rule:evenodd;clip-rule:evenodd;fill:#FDD7AD;}
	.st56{fill-rule:evenodd;clip-rule:evenodd;fill:#E6B17C;}
	.st57{fill:#2A92FA;}
	.st58{fill-rule:evenodd;clip-rule:evenodd;fill:#0E82F5;}
	.st59{fill-rule:evenodd;clip-rule:evenodd;fill:#F0414A;}
	.st60{fill-rule:evenodd;clip-rule:evenodd;fill:#FB545C;}
	.st61{fill-rule:evenodd;clip-rule:evenodd;fill:#3BD97D;}
	.st62{fill-rule:evenodd;clip-rule:evenodd;fill:#4FE88E;}
	.st63{fill-rule:evenodd;clip-rule:evenodd;fill:#2A92FA;}
	.st64{fill:#DDD3D3;}
	.st65{fill:#DB2C2C;}
	.st66{fill:#F13B3B;}
	.st67{fill:#CEC4C4;}
	.st68{fill:#332522;}
	.st69{fill:#47342F;}
	.st70{fill:#604843;}
	.st71{fill:#E5E3E3;}
	.st72{opacity:0.3;fill:#FFFFFF;}
	.st73{fill:#F8F8FF;}
	.st74{fill:#D8D7F9;}
	.st75{fill:#B889E0;}
	.st76{fill:#EFC7F9;}
	.st77{fill:#2D1164;}
	.st78{fill:#FFB6B1;}
	.st79{fill:#F47382;}
	.st80{fill:#C64F60;}
	.st81{opacity:0.33;}
	.st82{fill:#B9B9EA;}
	.st83{fill:#D3D3F4;}
	.st84{fill:#E8E8FC;}
	.st85{fill:#7E4DC4;}
	.st86{fill:#5642AD;}
	.st87{fill:#FEA046;}
	.st88{fill:#E15254;}
	.st89{opacity:0.53;}
	.st90{fill:#FFD1AB;}
	.st91{fill:#322277;}
	.st92{fill:#8AC9FE;}
	.st93{fill:#BFBFBF;}
	.st94{fill:#F8F6F6;}
	.st95{fill:#E2E2E2;}
	.st96{fill:#FE646F;}
	.st97{fill:#FD4755;}
	.st98{fill:#FED2A4;}
	.st99{fill:#FFBD86;}
	.st100{fill:#FFE5C2;}
	.st101{fill:#9C9C9C;}
	.st102{fill:#838383;}
	.st103{fill:#26A6FE;}
	.st104{fill:#0593FC;}
	.st105{fill:#EAF6FF;}
	.st106{fill:#0172FB;}
	.st107{fill:#25303F;}
	.st108{fill:#D33D48;}
	.st109{fill:#394456;}
	.st110{fill:#F4D72F;}
	.st111{fill:#FFA488;}
	.st112{fill:#E27466;}
	.st113{fill:#FFC4B6;}
	.st114{fill:#CC9D19;}
	.st115{fill:#EFCC3C;}
	.st116{fill:#FCE275;}
	.st117{fill:#EFBE35;}
	.st118{fill:#E0B52B;}
	.st119{fill:#76D6C4;}
	.st120{fill:#5B6A7F;}
	.st121{fill:#528432;}
	.st122{fill:#80BC50;}
	.st123{fill:#B2B8BF;}
	.st124{fill:#E2F2FA;}
	.st125{fill:#5BB3FF;}
	.st126{fill:#5CA7D9;}
	.st127{fill:#FF9D43;}
	.st128{fill:#00477F;}
	.st129{fill:#B6E0F4;}
	.st130{fill:#1C90CF;}
	.st131{fill:url(#SVGID_24_);}
	.st132{fill:#FFBCA5;}
	.st133{fill:#F8FBFF;}
	.st134{fill:#E0EFFF;}
	.st135{fill:#FFB59E;}
	.st136{fill:none;stroke:#000000;stroke-width:0.75;stroke-linecap:round;stroke-linejoin:round;stroke-miterlimit:10;}
	.st137{fill:#BEE9EB;}
	.st138{fill:#FFF6BC;}
	.st139{fill:#FF6E15;}
	.st140{fill:#7FCEED;}
	.st141{fill:#212121;}
	.st142{fill:#383838;}
	.st143{fill:#2A2A2A;}
	.st144{fill:#F5B0A6;}
	.st145{opacity:0.6;}
	.st146{fill:#F18A8B;}
	.st147{fill:#D37A7F;}
	.st148{fill:#0F0F0F;}
	.st149{fill:#202020;}
	.st150{fill:#1D1D1D;}
	.st151{fill:#2E6857;}
	.st152{fill:#255144;}
	.st153{fill:#40947E;}
	.st154{fill:#6FC183;}
	.st155{fill:#7A8DB0;}
	.st156{opacity:0.41;}
	.st157{fill:#243354;}
	.st158{fill:#EAEAEA;}
	.st159{fill:#2F4171;}
	.st160{fill:#2C4DA2;}
	.st161{fill:#99B1DA;}
	.st162{fill:#B5CAE8;}
	.st163{fill:#EDA9A2;}
	.st164{fill:#3D5891;}
	.st165{fill:#5681BF;}
	.st166{fill:#D1DBED;}
	.st167{opacity:0.35;}
	.st168{fill:#233F7C;}
	.st169{fill:#D2D2D2;}
	.st170{fill:#F19A6D;}
	.st171{fill:#7A7A7A;}
	.st172{fill:#F3CE90;}
	.st173{opacity:0.31;}
	.st174{fill:#292929;}
	.st175{fill:#515151;}
	.st176{fill:#3F3F3F;}
	.st177{fill-rule:evenodd;clip-rule:evenodd;fill:#D1DBED;}
	.st178{fill-rule:evenodd;clip-rule:evenodd;fill:#FFFFFF;}
	.st179{opacity:0.79;}
	.st180{opacity:0.28;}
	.st181{fill:#393939;}
	.st182{opacity:0.55;}
	.st183{fill:#A8A8A8;}
	.st184{fill:#B7B7B7;}
	.st185{fill:#EF7C59;}
	.st186{fill:#A0A0A0;}
	.st187{fill:#B9B9B9;}
	.st188{fill-rule:evenodd;clip-rule:evenodd;fill:#3D5891;}
	.st189{fill-rule:evenodd;clip-rule:evenodd;fill:#5681BF;}
	.st190{fill-rule:evenodd;clip-rule:evenodd;fill:#B5CAE8;}
	.st191{opacity:0.45;}
	.st192{fill-rule:evenodd;clip-rule:evenodd;fill:#99B1DA;}
	.st193{fill:#F0F0F0;}
	.st194{fill:#EACDB0;}
	.st195{fill:#A1BDCC;}
	.st196{fill:#8C9498;}
	.st197{fill:#3A3029;}
	.st198{fill:#59595B;}
	.st199{opacity:0.26;}
	.st200{fill:none;}
	.st201{fill:#6596C1;}
	.st202{fill:#5A8FB7;}
	.st203{fill:#C2969C;}
	.st204{fill:#754C3D;}
	.st205{fill:#F2D263;}
	.st206{fill:#AECCDC;}
	.st207{fill:#DEC2A7;}
	.st208{fill:#8AAD9F;}
	.st209{fill:#9E6652;}
	.st210{fill:#514943;}
	.st211{fill:#CAB5A1;}
	.st212{fill:#BCAC98;}
	.st213{fill:#D3C2A4;}
	.st214{fill:#37454D;}
	.st215{fill:#4F3C22;}
	.st216{fill:#DACAAF;}
	.st217{fill:#B26650;}
	.st218{fill:#2E4661;}
	.st219{fill:#FFFFF1;}
	.st220{fill:#FFD3A4;}
	.st221{fill:#FFBE84;}
	.st222{fill:#D65A2F;}
	.st223{fill:#A03914;}
	.st224{fill:#FFAF3E;}
	.st225{fill:#314652;}
	.st226{fill:#3C3A41;}
	.st227{fill:#FF9500;}
	.st228{fill:#E9336D;}
</style>
<g>
	<g>
		<path class="st52" d="M21,25.1c3.9,0,7.2,2.6,8.7,6.4c0.1,0.3,0.1,0.6-0.1,0.9c-0.2,0.3-0.5,0.4-0.8,0.4H13.2
			c-0.3,0-0.6-0.2-0.8-0.4c-0.2-0.3-0.2-0.6-0.1-0.9C13.7,27.8,17.1,25.1,21,25.1z"/>
		<path class="st53" d="M22.1,25.2c3.4,0.5,6.2,2.9,7.6,6.3c0.1,0.3,0.1,0.6-0.1,0.9c-0.2,0.3-0.5,0.4-0.8,0.4H15.5
			c-0.3,0-0.6-0.2-0.8-0.4c-0.2-0.3-0.2-0.6-0.1-0.9C15.9,28.1,18.7,25.7,22.1,25.2z"/>
		<ellipse class="st54" cx="21" cy="20.9" rx="4.2" ry="4.2"/>
		<path class="st55" d="M21.9,16.9c1.9,0.4,3.4,2.1,3.4,4.1s-1.4,3.7-3.4,4.1c-1.9-0.4-3.4-2.1-3.4-4.1S19.9,17.3,21.9,16.9z"/>
	</g>
	<g>
		<path class="st55" d="M12,37c1.1-0.9,3-0.9,4.7,0.9c2.8,3,3.8,4,6.9,6.7c2,1.7,2.2,4.4,2.2,7c0,4.4,0.3,6.7,1.2,11H13.8
			c0.6-6-0.8-8.2-3.7-11.3c-2.7-2.9-3.3-3.1-4.6-7.1L0.2,26c-1.3-4.6,3.9-5.2,5-1.5C6.6,29,9.7,35.7,11.1,38
			C11.3,37.6,11.6,37.3,12,37L12,37z"/>
		<path class="st56" d="M12,37c0.9-0.7,2.2-0.9,3.6,0c-0.7,0-1.4,0.3-1.9,0.7C13.2,38,13,38.4,13,38.9c-0.2,2.3,3.6,6.1,5.4,7.8
			c0.3,0.3,0.6,0.6,0.8,0.8c0.4,0.4,0.4,1,0,1.4c-0.4,0.4-1,0.4-1.4,0c-0.2-0.2-0.5-0.5-0.7-0.8c-3-3-6.1-6.4-5.9-9.4
			c0-0.3,0.1-0.5,0.1-0.8C11.3,37.6,11.6,37.3,12,37L12,37z M15.9,62.6l0.1-1.7c0.2-5.3-1.5-7.6-4.1-10.4c-0.4-0.4-0.7-0.8-1-1.1
			c-1.8-2-2.3-2.4-3.4-5.7L2,25c-0.4-1.3-0.1-2.3,0.7-2.6c0.3-0.1,0.7-0.1,1.1,0.1c-1.9-1.2-4.5,0-3.5,3.5l5.3,18.2
			c1.3,4,1.9,4.2,4.6,7.1c2.9,3.1,4.3,5.3,3.7,11.3L15.9,62.6L15.9,62.6z"/>
		<path class="st57" d="M12.4,62H28c0.7,0,1.2,0.5,1.2,1.2v4.2c0,0.7-0.5,1.2-1.2,1.2H12.4c-0.7,0-1.2-0.5-1.2-1.2v-4.2
			C11.2,62.5,11.8,62,12.4,62z"/>
		<path class="st58" d="M15.9,68.5h-3.5c-0.7,0-1.2-0.5-1.2-1.2v-4.2c0-0.6,0.5-1.2,1.2-1.2h3.5V68.5L15.9,68.5z"/>
	</g>
	<path class="st59" d="M34.3,2.6c-9.3-8.3-22.2,5.1,0,18.5C56.5,7.6,43.5-5.8,34.3,2.6z"/>
	<path class="st60" d="M34.3,2.6c-0.9-0.8-1.9-1.4-2.9-1.9C23.9-1,18.6,9.2,35.6,20.2C55.9,7.1,43.3-5.6,34.3,2.6L34.3,2.6z"/>
	<g>
		<path class="st61" d="M47.6,25.1c3.9,0,7.2,2.6,8.7,6.4c0.1,0.3,0.1,0.6-0.1,0.9c-0.2,0.3-0.5,0.4-0.8,0.4H39.8
			c-0.3,0-0.6-0.2-0.8-0.4c-0.2-0.3-0.2-0.6-0.1-0.9C40.3,27.8,43.7,25.1,47.6,25.1L47.6,25.1z"/>
		<path class="st62" d="M48.7,25.2c3.4,0.5,6.2,2.9,7.6,6.3c0.1,0.3,0.1,0.6-0.1,0.9c-0.2,0.3-0.5,0.4-0.8,0.4H42.1
			c-0.3,0-0.6-0.2-0.8-0.4c-0.2-0.3-0.2-0.6-0.1-0.9C42.5,28.1,45.3,25.7,48.7,25.2L48.7,25.2z"/>
		<ellipse class="st54" cx="47.6" cy="20.9" rx="4.2" ry="4.2"/>
		<path class="st55" d="M48.5,16.9c1.9,0.4,3.4,2.1,3.4,4.1s-1.4,3.7-3.4,4.1c-1.9-0.4-3.4-2.1-3.4-4.1S46.6,17.3,48.5,16.9z"/>
	</g>
	<path class="st58" d="M34.3,27.7c4.4,0,8.2,3,9.8,7.3c0.1,0.3,0.1,0.6-0.1,0.9c-0.2,0.3-0.5,0.4-0.8,0.4H25.4
		c-0.3,0-0.6-0.1-0.8-0.4c-0.2-0.3-0.2-0.6-0.1-0.9C26.1,30.7,29.9,27.7,34.3,27.7L34.3,27.7z"/>
	<path class="st63" d="M35.5,27.8c3.8,0.5,7.1,3.3,8.5,7.2c0.1,0.3,0.1,0.6-0.1,0.9s-0.5,0.4-0.8,0.4H28c-0.3,0-0.6-0.1-0.8-0.4
		C27,35.6,26.9,35.3,27,35C28.5,31.1,31.7,28.3,35.5,27.8z"/>
	<ellipse class="st54" cx="34.3" cy="23" rx="4.7" ry="4.7"/>
	<path class="st55" d="M35.4,18.5C37.5,19,39,20.8,39,23s-1.6,4.1-3.6,4.5c-2.1-0.5-3.6-2.3-3.6-4.5S33.3,19,35.4,18.5z"/>
	<g>
		<path class="st55" d="M56.6,37c-1.1-0.9-3-0.9-4.7,0.9c-2.8,3-3.8,4-6.9,6.7c-2,1.7-2.2,4.4-2.2,7c0,4.4-0.3,6.7-1.2,11h13.1
			c-0.6-6,0.8-8.2,3.7-11.3c2.7-2.9,3.3-3.1,4.6-7.1L68.3,26c1.3-4.6-3.9-5.2-5-1.5C61.9,29,58.9,35.7,57.4,38
			C57.2,37.6,57,37.3,56.6,37L56.6,37z"/>
		<path class="st56" d="M56.6,37c-0.9-0.7-2.2-0.9-3.6,0c0.7,0,1.4,0.3,1.9,0.7c0.4,0.3,0.7,0.7,0.7,1.2c0.2,2.3-3.6,6.1-5.4,7.8
			c-0.3,0.3-0.6,0.6-0.8,0.8c-0.4,0.4-0.4,1,0,1.4c0.4,0.4,1,0.4,1.4,0c0.2-0.2,0.5-0.5,0.7-0.8c3-3,6.1-6.4,5.9-9.4
			c0-0.3-0.1-0.5-0.1-0.8C57.2,37.6,57,37.3,56.6,37z M52.6,62.6l-0.1-1.7c-0.2-5.3,1.5-7.6,4.1-10.4c0.4-0.4,0.7-0.8,1-1.1
			c1.8-2,2.3-2.4,3.4-5.7L66.5,25c0.4-1.3,0.1-2.3-0.7-2.6c-0.3-0.1-0.7-0.1-1.1,0.1c1.9-1.2,4.5,0,3.5,3.5L63,44.2
			c-1.3,4-1.9,4.2-4.6,7.1c-2.9,3.1-4.3,5.3-3.7,11.3L52.6,62.6L52.6,62.6z"/>
		<path class="st57" d="M40.5,62h15.6c0.7,0,1.2,0.5,1.2,1.2v4.2c0,0.7-0.5,1.2-1.2,1.2H40.5c-0.7,0-1.2-0.5-1.2-1.2v-4.2
			C39.3,62.5,39.8,62,40.5,62L40.5,62z"/>
		<path class="st58" d="M52.6,68.5h3.5c0.7,0,1.2-0.5,1.2-1.2v-4.2c0-0.6-0.5-1.2-1.2-1.2h-3.5V68.5L52.6,68.5z"/>
	</g>
</g>
</svg>
