<?xml version="1.0" encoding="utf-8"?>
<!-- Generator: Adobe Illustrator 25.2.1, SVG Export Plug-In . SVG Version: 6.00 Build 0)  -->
<svg version="1.1" id="bold" xmlns="http://www.w3.org/2000/svg" xmlns:xlink="http://www.w3.org/1999/xlink" x="0px" y="0px"
	 viewBox="0 0 68.5 68.5" style="enable-background:new 0 0 68.5 68.5;" xml:space="preserve">
<style type="text/css">
	.st0{fill:#FFFFFF;}
	.st1{opacity:0.5;fill:#FFFFFF;enable-background:new    ;}
	.st2{opacity:0.6;fill:#FFFFFF;enable-background:new    ;}
	.st3{opacity:0.3;fill:#FFFFFF;enable-background:new    ;}
	.st4{fill-rule:evenodd;clip-rule:evenodd;fill:#FFFFFF;}
	.st5{opacity:0.3;fill:#FFFFFF;}
	.st6{opacity:0.33;}
	.st7{opacity:0.53;}
	.st8{opacity:0.6;}
	.st9{opacity:0.41;}
	.st10{opacity:0.35;}
	.st11{opacity:0.31;}
	.st12{opacity:0.79;}
	.st13{opacity:0.28;}
	.st14{opacity:0.55;}
	.st15{opacity:0.45;}
	.st16{opacity:0.26;fill:#FFFFFF;}
</style>
<g>
	<g>
		<polygon class="st0" points="34.5,25.4 34.6,26.5 34.1,27.3 33.2,27.2 33.1,25.8 34.3,25.3 		"/>
		<polygon class="st0" points="25.3,25.6 31.1,31.9 32.4,27 34.6,27.4 33.3,34.7 31.1,36.1 25.3,32.6 		"/>
		<g>
			<g>
				<g>
					<polygon class="st0" points="30.1,39.9 30.4,51.4 28.2,66.2 26.3,66.2 24.9,52.6 22.2,39 					"/>
					<polygon class="st0" points="26.3,66 26.3,66.9 28.4,67.8 29.4,66.9 28.3,66 					"/>
				</g>
				<polygon class="st0" points="19.9,66.4 21.5,67.7 21.1,68.4 18.2,67.8 18.2,66.4 				"/>
				<polygon class="st0" points="23.6,44.4 22.3,55.5 20.5,66.6 18,66.5 18.1,55 16.6,44.4 20.1,42.9 				"/>
			</g>
			<path class="st0" d="M18.5,24.8l4.9-0.8c0,0,3.3,1.9,5.9,7.7c2.6,5.9,2.2,14.8,2.2,14.8S18,46.6,15.8,46.7L17,34.3L18.5,24.8z"/>
			<g>
				<path class="st0" d="M21.8,24.8c-0.6,0-1.2,0-1.8-0.1c0-0.4,0-0.8,0-1.2c-0.5-0.1-1.1-0.3-1.2-0.8c0-0.1,0-0.3,0-0.4
					c0.1-0.6,0.1-1.2,0.2-1.8c0-0.2,0.1-0.4,0.2-0.6c0.2-0.3,0.6-0.5,1-0.6c1-0.2,2.1-0.1,3,0.5c0.2,0.1,0.4,0.3,0.5,0.5
					c0.2,0.3,0.1,0.7,0,1.1c-0.1,0.3-0.2,0.7-0.2,1c-0.1,0.4-0.2,0.8-0.6,1c-0.2,0.1-0.5,0.1-0.7,0.2C21.9,24,22,24.5,21.8,24.8z"/>
				<path class="st0" d="M27.1,18.7c0-0.4-0.1-0.8-0.2-1.2c-0.2-0.6-1.1-0.9-1.8-0.9c-1.6,0-3.1-0.6-4.6,0c-0.9,0.3-2,0.5-2.8,0.9
					c-0.3,0.2-0.6,0.4-0.7,0.7c-0.6,1-0.5,2.4,0.2,3.3c0.2,0.2,0.4,0.4,0.6,0.6c0.4,0.4,1,0.8,1.5,0.9c0-0.4-0.6-1.8-0.2-2.2
					c0.6-0.6,2-0.5,2.8-0.4c0.8,0.1,1.6,0.6,2.5,0.7c0.6,0,1.3-0.3,1.8-0.6C26.9,20.1,27.1,19.4,27.1,18.7z"/>
			</g>
			<path class="st0" d="M22,24.8l4.8,9.7l1.9,12l-6.8,0.1c0,0,0.8-8.9,0.5-10.1c-0.3-1.2-0.8-3.6-1.5-6.3c-0.1-0.6-1.2-5.4-1.2-5.4
				L22,24.8z"/>
		</g>
		<g>
			<g>
				<path class="st0" d="M35.7,1.3c0-0.2,0-0.4,0-0.6l-0.3-0.6c-0.1-0.1-0.3-0.1-0.3,0l-0.3,0.6v0.6c-0.3,0-0.7,0.2-0.7,0.4
					s0.2,0.4,0.5,0.4h0.2v21.1c0,1.2-0.7,2.2-1.7,2.2c-0.8,0-1.5-0.6-1.6-1.6c0-0.2-0.2-0.4-0.5-0.4h0c-0.3,0-0.5,0.2-0.5,0.5
					c0.2,1.4,1.4,2.4,2.6,2.4c0.9,0,1.7-0.4,2.1-1.1c0.5-0.8,0.5-1.8,0.5-2.7c0-0.9,0-1.8,0-2.6c0-1.2,0-2.4,0-3.7
					c0-1.4,0-2.8,0-4.2c0-1.4,0-2.8,0-4.2c0-1.2,0-2.4,0-3.6c0-0.7,0-1.4,0-2.1h0.1c0.3,0,0.5-0.2,0.5-0.4S36,1.3,35.7,1.3z"/>
				<polygon class="st16" points="35.7,14.5 34.8,13.7 34.8,12.3 35.7,12.3 				"/>
			</g>
			<g>
				<path class="st0" d="M41,13.7C41,13.7,41,13.7,41,13.7c0.1,0,0.2,0,0.2,0H41L41,13.7z"/>
				<path class="st0" d="M28.7,13.6l0.1-0.8c0.5-2.8,1.7-5.4,3.5-7.8l2.3-2.9C29,2.3,24.2,5.2,21.9,9.4c-0.7,1.3-1.2,2.7-1.4,4.2
					c1.2-0.3,2.6-0.5,4.1-0.5C26.1,13.1,27.4,13.3,28.7,13.6z"/>
				<path class="st0" d="M40.7,12l0.4,1.7h0.1c1.3-0.4,2.8-0.6,4.4-0.6c1.6,0,3.2,0.2,4.4,0.6c-0.3-1.9-1-3.6-2-5.2
					c-2.6-3.8-7.4-6.4-12.8-6.4c-0.2,0-0.3,0-0.5,0l1.8,2.4C38.9,6.9,39.9,9.4,40.7,12z"/>
				<path class="st0" d="M28.8,12.8l-0.1,0.8c0,0,0,0,0,0c1.5-0.6,3.7-1,6-1c2.5,0,4.7,0.4,6.3,1.1h0.1L40.7,12
					c-0.8-2.6-1.8-5.1-4-7.5l-1.8-2.4c-0.1,0-0.1,0-0.2,0L32.3,5C30.5,7.3,29.3,10,28.8,12.8z"/>
				<path class="st0" d="M28.7,13.6L28.7,13.6C28.7,13.6,28.7,13.6,28.7,13.6C28.7,13.6,28.7,13.6,28.7,13.6z"/>
			</g>
		</g>
		<polygon class="st0" points="32.5,27 32,26.1 32,24.8 32.5,24.9 32.7,25.6 33.7,26.4 33.4,27.2 		"/>
		<polygon class="st0" points="32.6,25.9 32.7,25 33.7,24.3 34.4,24.8 34.3,25.5 		"/>
		<polygon class="st0" points="18.5,24.8 16.5,26.2 11.5,34.2 14.2,37.1 15.8,36.7 19.7,28.9 		"/>
		<polygon class="st0" points="19,35.4 19.6,36.6 19.6,41.2 18.7,41.3 17.4,37.3 		"/>
		<polygon class="st0" points="21,34.7 22,35.5 23.2,40 22.4,40.4 20.4,36.8 19,35.8 19.3,34.7 		"/>
		<path class="st0" d="M13.2,28.1c0,0-0.5,0.1-0.8,0.6c-0.3,0.5-1.1,2.9-0.7,4.5c0.4,1.6,0.6,3.7,4.6,4.4c1.9,0.2,1.6-1.3,3.1-1.6
			c1.4-0.4,2.8-0.2,2.1-2.1c-0.7-2-2.2-2.1-3.5-4.2c-1.3-2.1-2.8-2.7-4.5-1.7L13.2,28.1z"/>
		<polygon class="st0" points="12.9,28.2 9.9,29.8 7.5,30.6 7.8,31.5 10.2,31.3 12.7,30.4 		"/>
		<polygon class="st0" points="15.8,27.4 18.3,27.7 20.2,26.7 20.6,27.2 19,28.8 17.2,29.2 		"/>
		<g>
			<path class="st0" d="M14.3,23.5c0,0,1.7,0.6,1.9,1.9c0,0,0.8-0.9,0.2-1.7c-0.6-0.9-1-1.2-2-0.8C13.3,23.2,14.3,23.5,14.3,23.5z"
				/>
			<path class="st0" d="M15.9,24.7c-0.6-1.9-3.3-1.3-3.9,0.3c-0.3,0.9,0,2.7,1.3,2.8c0,0.2,0.1,0.5,0.3,0.6c0.2,0.1,0.7-0.1,0.9-0.1
				c0.1,0,0.1,0,0.1-0.1c0,0,0-0.2,0-0.3c0.1,0,0.3-0.1,0.4-0.1c0.6-0.2,1-0.8,1.1-1.4C16.2,25.9,16.1,25.3,15.9,24.7z"/>
			<path class="st0" d="M14.7,23.9c-0.6,0.8-1.8,1.1-2.3,1.9c0,0-0.4,0.5,0,1.6c0,0-1.2,0.3-2.1-0.7c-0.8-1-0.1-3.4-0.1-3.4
				s1.3-1.2,3.3-1.2c0.7,0,1.4,0.3,1.4,1C15,23.4,14.9,23.7,14.7,23.9z"/>
		</g>
		<path class="st0" d="M12.9,28.2c0,0,0.1,1,0.7,1c0.6,0,1.9-0.5,2.1-0.7c0.3-0.3-0.2-1-0.2-1l0.4-0.2c0,0,2.9,3.2,1.4,4.1
			c-1.5,0.8-3.5,1.4-4.1,0.3c-0.6-1.1-0.6-3.3-0.6-3.3L12.9,28.2z"/>
		<polygon class="st0" points="19.7,41.1 20.5,41.7 20.3,42 18.9,41.7 18.7,41.2 		"/>
		<polygon class="st0" points="22.3,40.2 23.1,39.7 23.8,39.7 24,40.1 22.5,40.6 		"/>
		<polygon class="st0" points="11.6,34.1 14.5,33.8 21.6,35.1 21.6,36.5 14.2,37.2 11.9,36.5 		"/>
		<polygon class="st0" points="21.6,35.2 22.7,35.4 23.2,36.7 22.5,37.4 22.3,36.4 21.6,36.4 		"/>
		<polygon class="st0" points="7.6,30.7 6.3,30.6 6.3,30.9 7.3,31.3 7.1,31.5 7.3,31.6 7.8,31.3 		"/>
		<polygon class="st0" points="20.2,26.8 20.4,26.4 21,26.3 21.3,26.7 21.1,27.2 20.6,27.2 		"/>
	</g>
	<polygon class="st0" points="32.1,34.9 37.7,36.4 39.4,35.3 38.7,33.5 32.3,33.3 	"/>
	<polygon class="st0" points="53.4,39.8 54.5,40.7 54.3,41.8 52.8,41.6 52.3,40.6 	"/>
	<g>
		<path class="st0" d="M40.9,19.9c0,0-0.8,0.6-0.4,2.7c0.4,2.1,0.2,3.5,0.2,3.5s0.8,0.3,1.4,0c0.6-0.3,0.8-0.4,0.6-1.3
			c-0.2-0.9-0.7-5-0.7-5L40.9,19.9z"/>
		<polygon class="st0" points="42.1,26 41.4,25.8 39.9,26.5 35.7,35.5 37,36.9 40.6,32.8 		"/>
		<g>
			<polygon class="st0" points="48.5,66 48.6,66.7 47.2,67.6 46.3,67 47,66.2 48.5,65.3 			"/>
			<polygon class="st0" points="48.5,44.2 48.8,46.4 46.6,53.8 48.6,65.8 47.1,66.2 43.2,54.6 42.5,51.2 42.6,44 			"/>
		</g>
		<g>
			<polygon class="st0" points="37,46.6 40.2,66.6 41.6,66.6 41.8,53.8 44.4,44.8 			"/>
			<polygon class="st0" points="41.6,66.5 41.6,67.2 40,67.9 39.3,67.2 40,66.5 			"/>
		</g>
		<path class="st0" d="M48.8,38.1c-0.8-4.2-2.1-8.2-2.5-12.5c-1.2,0-2.9-0.5-4.1-0.2l0,0c0,0,0,0-0.1,0c-0.5,0.1-0.9,0.3-1.2,0.7
			c0,0,0,0,0,0c-0.4,0.4-1,1.1-1.4,2.1c-1.2,2.6-6.1,18.1-6.2,22.1c0,0,0,0,0,0c1,0.3,2.1,0.5,3.3,0.7c0,0,0,0,0,0h0
			c3.4,0.5,7.2,0.5,10.3,0.4c0.4,0,4.8,0.1,4.7-0.1C50.7,46.9,49.7,42.5,48.8,38.1z"/>
		<polygon class="st0" points="46.1,25.8 47.4,26.5 50.3,33.7 53.7,39.7 52.2,40.7 47.8,35.3 45.2,28 		"/>
		<path class="st0" d="M42.9,20.6c-0.9,0.2-1.6,1-1.7,1.8c-0.5-0.4-0.8-1-0.7-1.6s0.5-1.2,1.1-1.4C42.2,19.6,42.7,20.1,42.9,20.6
			L42.9,20.6z"/>
		<path class="st0" d="M41.1,21.7c0.5-2.2,3.6-1.8,4.5,0c0.5,1,0.4,3-1,3.3c0,0.2-0.1,0.6-0.2,0.7c-0.2,0.1-0.8,0-1,0
			c-0.1,0-0.1,0-0.2-0.1c-0.1-0.1-0.1-0.2-0.1-0.3c-0.2,0-0.3,0-0.5-0.1c-0.7-0.2-1.2-0.8-1.5-1.5C40.9,23.1,40.9,22.4,41.1,21.7z"
			/>
		<path class="st0" d="M41.7,19.3c0,0-0.3,1.2,1.4,1.5c1.7,0.3,2.9,1.5,2.6,2.8c-0.3,1.3-1.6,2.2-0.9,2.5c0.7,0.3,3.2,0,3.2,0
			s1.5-4.5-0.5-6.4C45.4,17.9,42.5,17.8,41.7,19.3z"/>
	</g>
	<g>
		<path class="st0" d="M11.5,65.2c0,0,0.1,0.7,1.1,0.7c1,0,1.4,0.6,0.5,0.6c-0.9,0-2,0.1-2.4-0.5C10.3,65.5,11.2,64.8,11.5,65.2z"/>
		<path class="st0" d="M8.4,62c0,0-0.4,0.1-0.5,0.7c-0.2,0.6-4.3-0.4-5.8,0.4c-1.4,0.9-1.6,1.6-1.8,2.9c-0.4,2.8,5.3,2.5,7.2,1.9
			c1.9-0.6,5.2-0.9,4.3-4C11.7,63.8,8.4,62,8.4,62z"/>
		<path class="st0" d="M12.1,63.6l-0.3,0.2c0,0-1.4,0.4-3-1.2c-0.6-0.9-0.4-1-0.4-1l0.4,0.1C8.7,61.7,9.4,63.6,12.1,63.6z"/>
		<path class="st0" d="M10.8,59.2c0,0,0.1-0.2,0.5-0.2c0.4,0,1,0.6,1.2,0.6c0.1,0,0.5,0.1,0.1,0.2C12.3,60,10.9,59.6,10.8,59.2z"/>
		<path class="st0" d="M9.4,60c0,0,0.6-0.8,1.6-0.8c0.6,0,1.1,0.2,1.5,0.5c0.2,0.2,0.4,0.4,0.6,0.5c0.1,0.1,0.3,0.2,0.4,0.3
			c0.3,0.3,0.5,0.8,0.3,1.2s0.4,1.5-1.1,1.8c-1.5,0.3-3.4-0.5-3.8-1.2C8.5,61.7,8.1,61,9.4,60z"/>
		<path class="st0" d="M9.6,60.1c0,0-0.4-0.2-0.8-0.1c-0.4,0.2-0.6,0.1-0.6,0.5c0,0.4-0.1,1.3,0.4,1.5c0.5,0.3,0.4-0.5,0.6-0.7
			C9.5,61,9.9,60.2,9.6,60.1z"/>
		<path class="st0" d="M11.5,65.4c0,0,0.1,1,0.7,1.1c0.6,0.1,2,0.6,1.7,0.9c-0.3,0.3-0.7,0-1.1,0s-1.6,0.1-2.7-0.2
			c-1-0.1-1.4,0.3-1.4,0.3L11.5,65.4z"/>
		<path class="st0" d="M0.9,64.6c-0.1,0-0.9-0.2-0.9-1c0-0.8,0.6-1.4,1.5-1.4c0.9,0,0.9,0.7,0.7,0.8C2,63.1,0.9,63.2,1,64.1
			C1.2,64.5,0.9,64.6,0.9,64.6z"/>
	</g>
	<g>
		<polygon class="st0" points="60.2,44.9 56.8,44.3 55,41.6 54.1,42.2 55.4,45.8 58.3,47.4 		"/>
		<polygon class="st0" points="57.2,57.6 57.2,65.8 58.6,65.8 59.5,60.8 60.3,57 		"/>
		<polygon class="st0" points="60.3,56.7 60.8,60.3 61.5,66 62.9,65.9 62.9,61.5 63.6,57 		"/>
		<path class="st0" d="M59.6,44.8c0,0-1.5-0.2-2.1,1.8c-0.6,2-2.3,7.9-2.4,11c-0.1,3.1,2.2,1.1,4.9,1.5c2.7,0.4,4.9,0.4,4.9-1
			C65,56.6,65.9,44.8,59.6,44.8z"/>
		<g>
			<g>
				<path class="st0" d="M58.8,40.8c1.2-1.9,4-0.7,4.2,1.2c0.1,1.1-0.7,2.9-2.2,2.8c-0.1,0.2-0.2,0.5-0.5,0.6
					c-0.2,0.1-0.7-0.2-0.9-0.3c-0.1,0-0.1-0.1-0.1-0.1c0-0.1,0-0.2,0.1-0.3c-0.2-0.1-0.3-0.1-0.4-0.2c-0.6-0.4-0.9-1.1-0.8-1.8
					C58.1,42,58.4,41.4,58.8,40.8z"/>
			</g>
			<path class="st0" d="M60.5,40.3c0,0,2,0.4,2,1.2c0,1.1,0.1,1.8,0,2.5l1.4-0.7l0.8-2c0,0-0.2-1.7-1.2-2c-1-0.3-3-0.6-3-0.6
				l-1.6,0.4L57.8,39l0.4,3.1C58.2,42.1,58.7,39.9,60.5,40.3z"/>
		</g>
		<polygon class="st0" points="61.1,45.1 63.6,45.8 65.8,50.6 67.5,54.1 66.5,54.6 63.8,51.2 		"/>
		<polygon class="st0" points="66.5,54.6 67.1,55.4 67.5,55.1 68.5,55.1 67.5,54.1 		"/>
		<polygon class="st0" points="57.2,65.8 56.4,66.4 56.8,66.9 58.4,66.4 58.4,65.8 		"/>
		<polygon class="st0" points="61.7,66 62,67 63,67.3 63.5,67.1 62.7,65.9 		"/>
	</g>
	<polygon class="st0" points="55,41.6 54.1,41.1 53,41.3 53.2,41.8 54.2,42.1 	"/>
	<polygon class="st0" points="54,42.1 54.3,41.5 53.7,41.1 52.7,41.3 52.9,41.7 	"/>
	<g>
		<polygon class="st0" points="51.8,68.4 16.9,68.5 16.8,46.8 34.2,38.1 51.7,46.6 		"/>
		<path class="st0" d="M58.6,45.2c-2.8-1.3-4.1-2-6.9-3.3c-4.5-2.2-9-4.4-13.5-6.5c-1.1-0.5-2.2-1.1-3.3-1.6c-0.7-0.3-1.4-0.3-2.1,0
			c-0.4,0.2-0.8,0.4-1.3,0.7c-4.1,2.1-8.2,4.3-12.2,6.4c-3.3,1.7-4.8,2.4-8.1,4.2c-0.1,0-0.1,0.1-0.2,0.1c-0.8,0.4-1.1,1.4-0.6,2.2
			c0.5,0.7,1.6,1,2.4,0.6c2.7-1.4,3.5-1.8,6.2-3.2c4.3-2.2,8.5-4.5,12.8-6.7c0.7-0.4,1.4-0.7,2.1-1.1c2.5,1.2,5,2.4,7.6,3.7
			c4.5,2.2,7.6,3.7,12.1,5.9c1,0.5,2.1,1,3.1,1.5c0.8,0.4,1.9,0.2,2.4-0.6C59.7,46.6,59.4,45.6,58.6,45.2z"/>
		<polygon class="st0" points="30.4,67.8 21.9,67.9 21.8,53.3 30.3,53.3 		"/>
		<g>
			<polygon class="st0" points="40.7,56.8 36.1,56.8 36.1,53.3 40.7,53.3 			"/>
			<polygon class="st0" points="46.8,56.7 42.1,56.8 42.1,53.3 46.7,53.2 			"/>
			<polygon class="st0" points="40.7,61.5 36.1,61.6 36.1,58.1 40.7,58 			"/>
			<polygon class="st0" points="46.8,61.5 42.2,61.5 42.1,58 46.8,58 			"/>
		</g>
	</g>
	<polygon class="st0" points="33.1,33.6 32.3,33.2 31,33.7 30.9,35 31.3,35.9 32.5,35.6 32.7,33.8 	"/>
</g>
</svg>
