<?xml version="1.0" encoding="utf-8"?>
<!-- Generator: Adobe Illustrator 25.2.1, SVG Export Plug-In . SVG Version: 6.00 Build 0)  -->
<svg version="1.1" id="Layer_1" xmlns="http://www.w3.org/2000/svg" xmlns:xlink="http://www.w3.org/1999/xlink" x="0px" y="0px"
	 viewBox="0 0 48 48" style="enable-background:new 0 0 48 48;" xml:space="preserve">
<style type="text/css">
	.st0{fill:#002541;}
	.st1{fill:#FDC00E;}
	.st2{fill:#004592;}
	.st3{fill:#4FC2D9;}
	.st4{fill:#96E0F4;}
	.st5{fill:#1490BD;}
	.st6{fill:#FCA710;}
	.st7{fill:#F28B0F;}
	.st8{fill:#F99C1D;}
</style>
<g>
	<g>
		<g>
			<path class="st0" d="M7.3,11.3v11.9c0,0,5.2,3.8,12.8,3.8c7.6,0,12.8-3.8,12.8-3.8V11.3H7.3z"/>
		</g>
		<g>
			<path class="st1" d="M2.8,10.1c-0.4,0-0.7,0.3-0.7,0.7v6.7c0,0.4,0.3,0.7,0.7,0.7s0.7-0.3,0.7-0.7v-6.7
				C3.5,10.5,3.2,10.1,2.8,10.1z"/>
		</g>
		<g>
			<polygon class="st2" points="20.1,4.6 0.3,10.5 20.1,17.2 39.8,10.5 			"/>
		</g>
	</g>
	<g>
		<polygon class="st3" points="47.7,22.7 17.9,22.7 17.9,43.4 41.7,43.4 47.7,37.4 		"/>
	</g>
	<g>
		<rect x="17.9" y="22.7" class="st4" width="14.9" height="20.6"/>
	</g>
	<g>
		<polygon class="st5" points="41.7,43.4 47.7,37.4 41.7,37.4 		"/>
	</g>
	<g>
		<g>
			<polygon class="st6" points="25.2,31.7 22.1,40.1 24.5,39 26.9,32.4 			"/>
		</g>
		<g>
			<polygon class="st7" points="26.3,31.7 29.3,40.1 27,39 24.5,32.4 			"/>
		</g>
		<g>
			<path class="st1" d="M26.3,26.2L26.3,26.2c0.2,0.4,0.6,0.5,1,0.3l0,0c0.5-0.3,1.1,0,1,0.6l0,0c0,0.4,0.3,0.8,0.7,0.7l0,0
				c0.6-0.1,0.9,0.6,0.6,1l0,0c-0.2,0.3-0.1,0.8,0.3,1l0,0c0.5,0.2,0.5,1,0,1.2l0,0c-0.4,0.2-0.5,0.6-0.3,1l0,0c0.3,0.5,0,1.1-0.6,1
				l0,0c-0.4,0-0.8,0.3-0.7,0.7l0,0c0.1,0.6-0.6,0.9-1,0.6l0,0c-0.3-0.2-0.8-0.1-1,0.3l0,0c-0.2,0.5-1,0.5-1.2,0l0,0
				c-0.2-0.4-0.6-0.5-1-0.3l0,0c-0.5,0.3-1.1,0-1-0.6l0,0c0-0.4-0.3-0.8-0.7-0.7l0,0c-0.6,0.1-0.9-0.6-0.6-1l0,0
				c0.2-0.3,0.1-0.8-0.3-1l0,0c-0.5-0.2-0.5-1,0-1.2l0,0c0.4-0.2,0.5-0.6,0.3-1l0,0c-0.3-0.5,0-1.1,0.6-1l0,0c0.4,0,0.8-0.3,0.7-0.7
				l0,0c-0.1-0.6,0.6-0.9,1-0.6l0,0c0.3,0.2,0.8,0.1,1-0.3l0,0C25.4,25.7,26.1,25.7,26.3,26.2z"/>
		</g>
		<g>
			<path class="st8" d="M29.9,29.8c-0.4-0.2-0.5-0.6-0.3-1c0.3-0.5,0-1.1-0.6-1l0,0c-0.4,0-0.8-0.3-0.7-0.7l0,0
				c0.1-0.6-0.6-0.9-1-0.6c-0.3,0.2-0.8,0.1-1-0.3l0,0c-0.1-0.3-0.4-0.4-0.6-0.4v9.1c0.2,0,0.5-0.1,0.6-0.4v0c0.2-0.4,0.6-0.5,1-0.3
				l0,0c0.5,0.3,1.1,0,1-0.6c0-0.4,0.3-0.8,0.7-0.7l0,0c0.6,0.1,0.9-0.6,0.6-1c-0.2-0.3-0.1-0.8,0.3-1C30.4,30.7,30.4,30,29.9,29.8z
				"/>
		</g>
	</g>
	<g>
		<rect x="35.4" y="27.2" class="st5" width="9.9" height="0.9"/>
	</g>
	<g>
		<rect x="35.4" y="29.5" class="st5" width="9.9" height="0.9"/>
	</g>
	<g>
		<rect x="35.4" y="31.7" class="st5" width="9.9" height="0.9"/>
	</g>
	<g>
		<rect x="35.4" y="33.9" class="st5" width="9.9" height="0.9"/>
	</g>
</g>
</svg>
