<?xml version="1.0" encoding="utf-8"?>
<!-- Generator: Adobe Illustrator 25.2.1, SVG Export Plug-In . SVG Version: 6.00 Build 0)  -->
<svg version="1.1" id="Layer_1" xmlns="http://www.w3.org/2000/svg" xmlns:xlink="http://www.w3.org/1999/xlink" x="0px" y="0px"
	 viewBox="0 0 48 48" style="enable-background:new 0 0 48 48;" xml:space="preserve">
<style type="text/css">
	.st0{fill:#FCDC97;}
	.st1{fill:#FCE5AC;}
	.st2{fill:#004592;}
	.st3{fill:#002541;}
	.st4{fill:#FDC00E;}
	.st5{fill:#4FC2D9;}
	.st6{fill:#80C3CE;}
	.st7{fill:#F99C1D;}
	.st8{fill:#96E0F4;}
</style>
<g>
	<g>
		<path class="st0" d="M16.2,27.2l4.2-3.4L20,18.2c0-0.6,0.1-1.1,0.3-1.7l2.3-4.8c0.5-1,1.7-1.4,2.7-0.9l0,0
			c0.9,0.5,1.3,1.5,0.9,2.5c-0.6,1.4-1.3,3.2-1.3,3.2l0.8,1c0.5,0.6,1.4,0.7,2,0.2l8.4-6.8c0.6-0.5,1.4-0.4,1.8,0.2l1,1.2l0.2-0.2
			c0.7-0.6,1.7-0.5,2.3,0.2l0.4,0.5c0.6,0.7,0.5,1.7-0.2,2.3l0,0l1,1.2c0.4,0.5,0.3,1.2-0.2,1.6L42,18.2l0.4,0.5
			c0.6,0.8,0.5,1.9-0.3,2.5l-10.5,8.5c-0.6,0.5-1.4,0.8-2.3,0.8l-3.6,0l-3.7,3L16.2,27.2z"/>
	</g>
	<g>
		<path class="st1" d="M41.2,12.2c-0.6-0.5-1.5-0.6-2.1,0L39,12.3L38,11c-0.5-0.6-1.3-0.6-1.8-0.2l-8.4,6.8c-0.6,0.5-1.5,0.4-2-0.2
			l-0.8-1c0,0,0.7-1.8,1.3-3.2c0.4-0.9,0-2-0.9-2.5l0,0c-1-0.5-2.2-0.1-2.7,0.9l-2.3,4.8c-0.2,0.5-0.4,1.1-0.3,1.7l0.4,5.6l-4.2,3.4
			l2.8,3L41.2,12.2z"/>
	</g>
	<g>
		
			<rect x="4.2" y="30.4" transform="matrix(0.7761 -0.6306 0.6306 0.7761 -18.5419 14.2217)" class="st2" width="13.1" height="5.7"/>
	</g>
	<g>
		
			<rect x="7.8" y="34.8" transform="matrix(0.7761 -0.6306 0.6306 0.7761 -20.5158 17.4607)" class="st3" width="13.1" height="5.7"/>
	</g>
	<g>
		<rect x="11.7" y="25.4" transform="matrix(0.7761 -0.6306 0.6306 0.7761 -14.7488 16.0467)" class="st4" width="7" height="6.8"/>
	</g>
	<g>
		<g>
			<path class="st5" d="M37.2,5.9c0.1,0.1,0.2,0.2,0.3,0.3l6.7,22.1c0.1,0.2,0,0.4-0.1,0.5C44,29,43.9,29,43.8,29.1L37.4,31L37.2,31
				l-4.6,1.4c-0.1,0-0.3,0-0.4,0c-0.1-0.1-0.2-0.2-0.3-0.3l-5.6-18.4l0-0.1l-1.1-3.6c-0.1-0.3,0.1-0.6,0.4-0.7l11.1-3.4
				C36.9,5.8,37,5.8,37.2,5.9z"/>
		</g>
		<g>
			<path class="st6" d="M37.9,14.9c-1.4-0.4-3-0.4-4.6,0.1c-1.6,0.5-2.9,1.3-3.8,2.4c0,0,0,0,0,0c-1,1.2-1.3,2.4-0.9,3.6
				c0.4,1.2,1.3,2,2.8,2.5c1.4,0.4,3,0.4,4.6-0.1c1.6-0.5,2.9-1.3,3.8-2.4c0,0,0,0,0,0c1-1.2,1.3-2.4,0.9-3.6
				C40.4,16.2,39.4,15.3,37.9,14.9z"/>
		</g>
		<g>
			<g>
				<path class="st3" d="M36.2,19c0.1,0.3,0.1,0.7,0.1,1l-0.8,0.2c0-0.2,0.1-0.4,0.1-0.6c0-0.2,0-0.4-0.1-0.6c0-0.1-0.1-0.2-0.1-0.3
					c0-0.1-0.1-0.1-0.2,0c-0.1,0-0.1,0-0.1,0.1c0,0.1,0,0.1-0.1,0.3c0,0.1,0,0.3,0,0.5c0,0.2,0,0.4-0.1,0.5
					c-0.1,0.1-0.1,0.3-0.2,0.4c-0.1,0.1-0.2,0.2-0.4,0.2c-0.3,0.1-0.5,0.1-0.7-0.1c-0.2-0.1-0.4-0.3-0.5-0.6L32.8,20l-0.1-0.5
					l0.3-0.1c-0.1-0.3-0.1-0.6-0.1-1l0.7,0.1c0,0.4,0,0.7,0,0.9c0,0.1,0.1,0.2,0.1,0.2c0,0,0.1,0.1,0.2,0c0.1,0,0.1,0,0.1-0.1
					c0,0,0-0.1,0.1-0.2c0-0.1,0-0.2,0-0.4c0-0.4,0.1-0.6,0.2-0.8c0.1-0.2,0.3-0.3,0.5-0.4c0.3-0.1,0.5-0.1,0.7,0.1
					c0.2,0.1,0.4,0.3,0.5,0.6l0.4-0.1l0.1,0.5L36.2,19z"/>
			</g>
		</g>
		<g>
			<g>
				<path class="st6" d="M31.5,28.6c-0.1,0-0.3,0.1-0.3,0.3c-0.1,0.1-0.1,0.3,0,0.4l0.8,2.8c0,0.1,0.1,0.3,0.3,0.3
					c0.1,0.1,0.3,0.1,0.4,0l2.8-0.8c0.1,0,0.2-0.1,0.3-0.2c0.1-0.1,0.2-0.3,0.1-0.5C35.2,29.1,33.3,28.1,31.5,28.6z"/>
			</g>
			<g>
				<path class="st6" d="M28.3,8.4l-2.8,0.8c-0.1,0-0.3,0.1-0.3,0.3c-0.1,0.1-0.1,0.3,0,0.4l0.8,2.8c0.1,0.3,0.4,0.5,0.7,0.4
					c0.6-0.2,1.2-0.6,1.6-1.1c0.2-0.2,0.3-0.4,0.4-0.6c0.4-0.8,0.5-1.7,0.3-2.6c0-0.1-0.1-0.3-0.3-0.3C28.6,8.4,28.5,8.3,28.3,8.4z"
					/>
			</g>
			<g>
				<path class="st6" d="M42.6,25.2c-0.9,0.3-1.6,0.9-2,1.7c-0.4,0.8-0.5,1.7-0.3,2.6c0.1,0.3,0.4,0.5,0.7,0.4l2.8-0.8
					c0.1,0,0.2-0.1,0.3-0.2c0,0,0-0.1,0.1-0.1c0.1-0.1,0.1-0.3,0-0.4l-0.8-2.8c0-0.1-0.1-0.3-0.3-0.3C42.9,25.2,42.7,25.2,42.6,25.2
					z"/>
			</g>
			<g>
				<path class="st6" d="M37.2,5.9c-0.1-0.1-0.3-0.1-0.4,0L34,6.7c-0.3,0.1-0.5,0.4-0.4,0.7c0.5,1.8,2.5,2.8,4.3,2.3
					c0.1,0,0.2-0.1,0.3-0.2c0,0,0-0.1,0.1-0.1c0.1-0.1,0.1-0.3,0-0.4l-0.8-2.8C37.4,6.1,37.3,6,37.2,5.9z"/>
			</g>
		</g>
	</g>
	<g>
		<rect x="16" y="30.7" transform="matrix(0.7761 -0.6306 0.6306 0.7761 -17.13 19.9542)" class="st7" width="7" height="6.8"/>
	</g>
	<g>
		<g>
			<path class="st8" d="M34.6,4.1c0.1,0.1,0.2,0.2,0.3,0.3l6.7,22.1c0.1,0.2,0,0.4-0.1,0.5c-0.1,0.1-0.2,0.1-0.3,0.2l-6.3,1.9
				l-0.2,0.1l-4.6,1.4c-0.1,0-0.3,0-0.4,0c-0.1-0.1-0.2-0.2-0.3-0.3l-5.6-18.4l0-0.1l-1.1-3.6c-0.1-0.3,0.1-0.6,0.4-0.7L34.2,4
				C34.4,4,34.5,4,34.6,4.1z"/>
		</g>
		<g>
			<path class="st5" d="M35.4,13.1c-1.4-0.4-3-0.4-4.6,0.1c-1.6,0.5-2.9,1.3-3.8,2.4c0,0,0,0,0,0c-1,1.2-1.3,2.4-0.9,3.6
				c0.4,1.2,1.3,2,2.8,2.5c1.4,0.4,3,0.4,4.6-0.1c1.6-0.5,2.9-1.3,3.8-2.4c0,0,0,0,0,0c1-1.2,1.3-2.4,0.9-3.6
				C37.8,14.4,36.9,13.5,35.4,13.1z"/>
		</g>
		<g>
			<g>
				<path class="st3" d="M33.7,17.1c0.1,0.3,0.1,0.7,0.1,1L33,18.4c0-0.2,0.1-0.4,0.1-0.6c0-0.2,0-0.4-0.1-0.6
					c0-0.1-0.1-0.2-0.1-0.3c0-0.1-0.1-0.1-0.2,0c-0.1,0-0.1,0.1-0.1,0.1c0,0.1,0,0.1-0.1,0.3c0,0.1,0,0.3,0,0.5c0,0.2,0,0.4-0.1,0.5
					c-0.1,0.1-0.1,0.3-0.2,0.4c-0.1,0.1-0.2,0.2-0.4,0.2c-0.3,0.1-0.5,0.1-0.7-0.1c-0.2-0.1-0.4-0.3-0.5-0.6l-0.3,0.1l-0.1-0.5
					l0.3-0.1c-0.1-0.3-0.1-0.6-0.1-1l0.7,0.1c0,0.4,0,0.7,0,0.9c0,0.1,0.1,0.2,0.1,0.2c0,0,0.1,0.1,0.2,0c0,0,0.1,0,0.1-0.1
					c0,0,0-0.1,0.1-0.2c0-0.1,0-0.2,0-0.4c0-0.4,0.1-0.6,0.2-0.8c0.1-0.2,0.3-0.3,0.5-0.4c0.3-0.1,0.5-0.1,0.7,0.1
					c0.2,0.1,0.4,0.3,0.5,0.6l0.4-0.1l0.1,0.5L33.7,17.1z"/>
			</g>
		</g>
		<g>
			<g>
				<path class="st5" d="M28.9,26.8c-0.1,0-0.3,0.1-0.3,0.3s-0.1,0.3,0,0.4l0.8,2.8c0,0.1,0.1,0.3,0.3,0.3c0.1,0.1,0.3,0.1,0.4,0
					l2.8-0.8c0.1,0,0.2-0.1,0.3-0.2c0.1-0.1,0.2-0.3,0.1-0.5C32.7,27.3,30.7,26.2,28.9,26.8z"/>
			</g>
			<g>
				<path class="st5" d="M25.8,6.6l-2.8,0.8c-0.1,0-0.3,0.1-0.3,0.3c-0.1,0.1-0.1,0.3,0,0.4l0.8,2.8c0.1,0.3,0.4,0.5,0.7,0.4
					c0.6-0.2,1.2-0.6,1.6-1.1c0.2-0.2,0.3-0.4,0.4-0.6c0.4-0.8,0.5-1.7,0.3-2.6c0-0.1-0.1-0.3-0.3-0.3C26.1,6.5,26,6.5,25.8,6.6z"/>
			</g>
			<g>
				<path class="st5" d="M40.1,23.4c-0.9,0.3-1.6,0.9-2,1.7c-0.4,0.8-0.5,1.7-0.3,2.6c0.1,0.3,0.4,0.5,0.7,0.4l2.8-0.8
					c0.1,0,0.2-0.1,0.3-0.2c0,0,0-0.1,0.1-0.1c0.1-0.1,0.1-0.3,0-0.4l-0.8-2.8c0-0.1-0.1-0.3-0.3-0.3C40.4,23.4,40.2,23.4,40.1,23.4
					z"/>
			</g>
			<g>
				<path class="st5" d="M34.6,4.1C34.5,4,34.4,4,34.2,4l-2.8,0.8C31.2,5,31,5.3,31.1,5.6c0.5,1.8,2.5,2.8,4.3,2.3
					c0.1,0,0.2-0.1,0.3-0.2c0,0,0-0.1,0.1-0.1c0.1-0.1,0.1-0.3,0-0.4l-0.8-2.8C34.9,4.3,34.8,4.1,34.6,4.1z"/>
			</g>
		</g>
	</g>
	<g>
		<path class="st1" d="M24.9,16.5c0,0,0.7-1.8,1.3-3.2c0.4-0.9,0-2-0.9-2.5l0,0c-1-0.5-2.2-0.1-2.7,0.9l-2.3,4.8
			c-0.2,0.5-0.4,1.1-0.3,1.7l0.4,5.6L24.9,16.5z"/>
	</g>
</g>
</svg>
