<?xml version="1.0" encoding="utf-8"?>
<!-- Generator: Adobe Illustrator 25.2.1, SVG Export Plug-In . SVG Version: 6.00 Build 0)  -->
<svg version="1.1" id="Layer_1" xmlns="http://www.w3.org/2000/svg" xmlns:xlink="http://www.w3.org/1999/xlink" x="0px" y="0px"
	 viewBox="0 0 48 48" style="enable-background:new 0 0 48 48;" xml:space="preserve">
<style type="text/css">
	.st0{fill:#FCDC97;}
	.st1{fill:#FCE5AC;}
	.st2{fill:#004592;}
	.st3{fill:#002541;}
	.st4{fill:#FDC00E;}
	.st5{fill:#4FC2D9;}
	.st6{fill:#80C3CE;}
	.st7{fill:#F99C1D;}
	.st8{fill:#96E0F4;}
</style>
<g>
	<g>
		<path class="st0" d="M16,19.9h5.7l3.4-4.8c0.3-0.5,0.8-0.9,1.4-1.1l5.1-2.4c1.1-0.5,2.3,0,2.8,1.1l0,0c0.4,1,0,2.1-0.9,2.6
			c-1.4,0.7-3.2,1.7-3.2,1.7v1.3c0,0.8,0.7,1.5,1.5,1.5h11.5c0.8,0,1.4,0.6,1.4,1.4v1.7h0.3c0.9,0,1.7,0.8,1.7,1.7v0.7
			c0,0.9-0.8,1.7-1.7,1.7l0,0v1.7c0,0.7-0.5,1.2-1.2,1.2h-0.6v0.7c0,1-0.8,1.9-1.9,1.9H27c-0.9,0-1.7-0.3-2.4-0.9l-3-2.5h-5.1
			L16,19.9z"/>
	</g>
	<g>
		<path class="st1" d="M46.6,24.2c-0.1-0.8-0.8-1.4-1.7-1.4h-0.3v-1.7c0-0.8-0.6-1.4-1.4-1.4H31.8c-0.8,0-1.5-0.7-1.5-1.5v-1.3
			c0,0,1.8-1,3.2-1.7c0.9-0.5,1.3-1.6,0.9-2.6l0,0c-0.5-1.1-1.7-1.6-2.8-1.1l-5.1,2.4c-0.5,0.3-1,0.7-1.4,1.1l-3.4,4.8H16l0.3,4.3
			H46.6z"/>
	</g>
	<g>
		<rect x="0.5" y="18.2" class="st2" width="13.9" height="6.1"/>
	</g>
	<g>
		<rect x="0.5" y="24.2" class="st3" width="13.9" height="6.1"/>
	</g>
	<g>
		<rect x="10.4" y="16.9" class="st4" width="7.4" height="7.2"/>
	</g>
	<g>
		<g>
			<path class="st5" d="M47.4,16.4c0.1,0.1,0.1,0.3,0,0.5l-9.3,22.7c-0.1,0.2-0.2,0.3-0.4,0.4c-0.1,0-0.2,0-0.3,0l-6.5-2.7l-0.2-0.1
				L26,35.1c-0.1-0.1-0.3-0.2-0.3-0.3c-0.1-0.1-0.1-0.3,0-0.5l7.7-18.9l0-0.1l1.5-3.7c0.1-0.3,0.5-0.4,0.8-0.3L47.1,16
				C47.2,16.1,47.4,16.2,47.4,16.4z"/>
		</g>
		<g>
			<path class="st6" d="M42,24.3c-0.8-1.2-2.2-2.3-3.8-2.9c-1.6-0.7-3.3-0.9-4.8-0.6c0,0,0,0,0,0c-1.6,0.3-2.7,1.1-3.2,2.3
				c-0.5,1.2-0.3,2.6,0.6,3.9c0.8,1.2,2.2,2.3,3.8,2.9c1.6,0.7,3.3,0.9,4.8,0.6c0,0,0,0,0,0c1.6-0.3,2.7-1.1,3.2-2.3
				C43.2,27,42.9,25.6,42,24.3z"/>
		</g>
		<g>
			<g>
				<path class="st3" d="M37.9,26.5c-0.2,0.3-0.4,0.6-0.6,0.9L36.5,27c0.2-0.1,0.3-0.3,0.5-0.5c0.1-0.2,0.3-0.4,0.3-0.5
					c0.1-0.1,0.1-0.2,0.1-0.3c0-0.1,0-0.1-0.1-0.2c-0.1,0-0.1,0-0.2,0c-0.1,0-0.1,0.1-0.2,0.2c-0.1,0.1-0.2,0.2-0.3,0.4
					c-0.2,0.2-0.3,0.3-0.4,0.4c-0.1,0.1-0.3,0.1-0.4,0.1c-0.1,0-0.3,0-0.5-0.1c-0.3-0.1-0.4-0.3-0.5-0.5c-0.1-0.2-0.1-0.5,0-0.9
					L34.4,25l0.2-0.5l0.3,0.1c0.1-0.3,0.3-0.6,0.6-0.8l0.6,0.6c-0.3,0.3-0.5,0.5-0.6,0.8c-0.1,0.1-0.1,0.2-0.1,0.3
					c0,0.1,0,0.1,0.1,0.1c0.1,0,0.1,0,0.2,0c0,0,0.1-0.1,0.2-0.1c0.1-0.1,0.2-0.2,0.3-0.3c0.2-0.3,0.5-0.5,0.7-0.5
					c0.2-0.1,0.4-0.1,0.7,0c0.3,0.1,0.4,0.3,0.5,0.5c0.1,0.2,0.1,0.5,0,0.9l0.5,0.2l-0.2,0.5L37.9,26.5z"/>
			</g>
		</g>
		<g>
			<g>
				<path class="st6" d="M27.6,31.2c-0.1-0.1-0.3-0.1-0.5,0c-0.1,0.1-0.3,0.2-0.3,0.3l-1.2,2.8c-0.1,0.1-0.1,0.3,0,0.5
					c0.1,0.1,0.2,0.3,0.3,0.3l2.8,1.2c0.1,0,0.2,0.1,0.3,0c0.2,0,0.4-0.2,0.4-0.4C30.3,34.1,29.4,32,27.6,31.2z"/>
			</g>
			<g>
				<path class="st6" d="M38.5,12.5l-2.8-1.2c-0.1-0.1-0.3-0.1-0.5,0c-0.1,0.1-0.3,0.2-0.3,0.3l-1.2,2.8c-0.1,0.3,0,0.6,0.3,0.8
					c0.7,0.3,1.4,0.3,2.1,0.2c0.2,0,0.5-0.1,0.7-0.2c0.9-0.4,1.6-1.1,2-2c0.1-0.1,0.1-0.3,0-0.5C38.8,12.7,38.7,12.6,38.5,12.5z"/>
			</g>
			<g>
				<path class="st6" d="M39,35.9c-0.9-0.4-1.9-0.4-2.8,0c-0.9,0.4-1.6,1.1-2,2c-0.1,0.3,0,0.6,0.3,0.8l2.8,1.2c0.1,0,0.2,0.1,0.3,0
					c0,0,0.1,0,0.1,0c0.1-0.1,0.3-0.2,0.3-0.3l1.2-2.8c0.1-0.1,0.1-0.3,0-0.5C39.2,36.1,39.1,35.9,39,35.9z"/>
			</g>
			<g>
				<path class="st6" d="M47.4,16.4c-0.1-0.1-0.2-0.3-0.3-0.3l-2.8-1.2c-0.3-0.1-0.6,0-0.8,0.3c-0.8,1.9,0.1,4,2,4.7
					c0.1,0,0.2,0.1,0.3,0c0,0,0.1,0,0.1,0c0.1-0.1,0.3-0.2,0.3-0.3l1.2-2.8C47.5,16.7,47.5,16.5,47.4,16.4z"/>
			</g>
		</g>
	</g>
	<g>
		<rect x="10.4" y="24.2" class="st7" width="7.4" height="7.2"/>
	</g>
	<g>
		<g>
			<path class="st8" d="M46.6,13.2c0.1,0.1,0.1,0.3,0,0.4l-9.3,22.7c-0.1,0.2-0.2,0.3-0.4,0.4c-0.1,0-0.2,0-0.3,0L30,34l-0.2-0.1
				L25.1,32c-0.1-0.1-0.3-0.2-0.3-0.3c-0.1-0.1-0.1-0.3,0-0.5l7.7-18.9l0-0.1l1.5-3.7c0.1-0.3,0.5-0.4,0.8-0.3l11.4,4.7
				C46.4,12.9,46.5,13,46.6,13.2z"/>
		</g>
		<g>
			<path class="st5" d="M41.2,21.1c-0.8-1.2-2.2-2.3-3.8-2.9c-1.6-0.7-3.3-0.9-4.8-0.6c0,0,0,0,0,0c-1.6,0.3-2.7,1.1-3.2,2.3
				c-0.5,1.2-0.3,2.6,0.6,3.9c0.8,1.2,2.2,2.3,3.8,2.9c1.6,0.7,3.3,0.9,4.8,0.6c0,0,0,0,0,0c1.6-0.3,2.7-1.1,3.2-2.3
				C42.3,23.8,42.1,22.4,41.2,21.1z"/>
		</g>
		<g>
			<g>
				<path class="st3" d="M37.1,23.3c-0.2,0.3-0.4,0.6-0.6,0.9l-0.8-0.3c0.2-0.1,0.3-0.3,0.5-0.5c0.1-0.2,0.3-0.4,0.3-0.5
					c0.1-0.1,0.1-0.2,0.1-0.3c0-0.1,0-0.1-0.1-0.2c-0.1,0-0.1,0-0.2,0c-0.1,0-0.1,0.1-0.2,0.2c-0.1,0.1-0.2,0.2-0.3,0.4
					c-0.2,0.2-0.3,0.3-0.4,0.4c-0.1,0.1-0.3,0.1-0.4,0.1c-0.1,0-0.3,0-0.5-0.1c-0.3-0.1-0.4-0.3-0.5-0.5c-0.1-0.2-0.1-0.5,0-0.9
					l-0.3-0.1l0.2-0.5l0.3,0.1c0.1-0.3,0.3-0.6,0.6-0.8l0.6,0.6c-0.3,0.3-0.5,0.5-0.6,0.8c-0.1,0.1-0.1,0.2-0.1,0.3
					c0,0.1,0,0.1,0.1,0.1c0.1,0,0.1,0,0.2,0c0,0,0.1-0.1,0.2-0.1c0.1-0.1,0.2-0.2,0.3-0.3c0.2-0.3,0.5-0.5,0.7-0.5
					c0.2-0.1,0.4-0.1,0.7,0c0.3,0.1,0.4,0.3,0.5,0.5c0.1,0.2,0.1,0.5,0,0.9l0.5,0.2l-0.2,0.5L37.1,23.3z"/>
			</g>
		</g>
		<g>
			<g>
				<path class="st5" d="M26.7,28c-0.1-0.1-0.3-0.1-0.5,0c-0.1,0.1-0.3,0.2-0.3,0.3l-1.2,2.8c-0.1,0.1-0.1,0.3,0,0.5
					c0.1,0.1,0.2,0.3,0.3,0.3l2.8,1.2c0.1,0,0.2,0.1,0.3,0c0.2,0,0.4-0.2,0.4-0.4C29.5,30.9,28.6,28.8,26.7,28z"/>
			</g>
			<g>
				<path class="st5" d="M37.6,9.4l-2.8-1.2c-0.1-0.1-0.3-0.1-0.5,0c-0.1,0.1-0.3,0.2-0.3,0.3l-1.2,2.8c-0.1,0.3,0,0.6,0.3,0.8
					c0.7,0.3,1.4,0.3,2.1,0.2c0.2,0,0.5-0.1,0.7-0.2c0.9-0.4,1.6-1.1,2-2C38,10,38,9.8,38,9.7C37.9,9.5,37.8,9.4,37.6,9.4z"/>
			</g>
			<g>
				<path class="st5" d="M38.1,32.7c-0.9-0.4-1.9-0.4-2.8,0c-0.9,0.4-1.6,1.1-2,2c-0.1,0.3,0,0.6,0.3,0.8l2.8,1.2
					c0.1,0,0.2,0.1,0.3,0c0,0,0.1,0,0.1,0c0.1-0.1,0.3-0.2,0.3-0.3l1.2-2.8c0.1-0.1,0.1-0.3,0-0.5C38.4,32.9,38.3,32.8,38.1,32.7z"
					/>
			</g>
			<g>
				<path class="st5" d="M46.6,13.2c-0.1-0.1-0.2-0.3-0.3-0.3l-2.8-1.2c-0.3-0.1-0.6,0-0.8,0.3c-0.8,1.9,0.1,4,2,4.7
					c0.1,0,0.2,0.1,0.3,0c0,0,0.1,0,0.1,0c0.1-0.1,0.3-0.2,0.3-0.3l1.2-2.8C46.6,13.5,46.6,13.3,46.6,13.2z"/>
			</g>
		</g>
	</g>
	<g>
		<path class="st1" d="M30.2,16.9c0,0,1.8-1,3.2-1.7c0.9-0.5,1.3-1.6,0.9-2.6l0,0c-0.5-1.1-1.7-1.6-2.8-1.1l-5.1,2.4
			c-0.5,0.3-1,0.7-1.4,1.1l-3.4,4.8L30.2,16.9z"/>
	</g>
</g>
</svg>
