<?xml version="1.0" encoding="utf-8"?>
<!-- Generator: Adobe Illustrator 25.2.1, SVG Export Plug-In . SVG Version: 6.00 Build 0)  -->
<svg version="1.1" id="Layer_1" xmlns="http://www.w3.org/2000/svg" xmlns:xlink="http://www.w3.org/1999/xlink" x="0px" y="0px"
	 viewBox="0 0 48 48" style="enable-background:new 0 0 48 48;" xml:space="preserve">
<style type="text/css">
	.st0{fill:#1490BD;}
	.st1{fill:#00609A;}
	.st2{fill:#96E0F4;}
	.st3{fill:#4FC2D9;}
	.st4{fill:#004592;}
	.st5{fill:#002541;}
	.st6{fill:#0E2830;}
	.st7{fill:#FDC00E;}
</style>
<g>
	<g>
		<rect x="7.6" y="4" class="st0" width="32.9" height="43"/>
	</g>
	<g>
		<rect x="24" y="4" class="st1" width="16.4" height="43"/>
	</g>
	<g>
		<rect x="10.5" y="7.4" class="st2" width="8" height="7.5"/>
	</g>
	<g>
		<rect x="20.1" y="7.4" class="st2" width="8" height="7.5"/>
	</g>
	<g>
		<rect x="29.6" y="7.4" class="st2" width="8" height="7.5"/>
	</g>
	<g>
		<rect x="24.1" y="7.4" class="st3" width="4" height="7.5"/>
	</g>
	<g>
		<rect x="14.5" y="7.4" class="st3" width="4" height="7.5"/>
	</g>
	<g>
		<rect x="33.6" y="7.4" class="st3" width="4" height="7.5"/>
	</g>
	<g>
		<rect x="10.5" y="16.5" class="st2" width="8" height="7.5"/>
	</g>
	<g>
		<rect x="20.1" y="16.5" class="st2" width="8" height="7.5"/>
	</g>
	<g>
		<rect x="29.6" y="16.5" class="st2" width="8" height="7.5"/>
	</g>
	<g>
		<rect x="24.1" y="16.5" class="st3" width="4" height="7.5"/>
	</g>
	<g>
		<rect x="14.5" y="16.5" class="st3" width="4" height="7.5"/>
	</g>
	<g>
		<rect x="33.6" y="16.5" class="st3" width="4" height="7.5"/>
	</g>
	<g>
		<rect x="10.5" y="25.6" class="st2" width="8" height="7.5"/>
	</g>
	<g>
		<rect x="20.1" y="25.6" class="st2" width="8" height="7.5"/>
	</g>
	<g>
		<rect x="29.6" y="25.6" class="st2" width="8" height="7.5"/>
	</g>
	<g>
		<rect x="24.1" y="25.6" class="st3" width="4" height="7.5"/>
	</g>
	<g>
		<rect x="14.5" y="25.6" class="st3" width="4" height="7.5"/>
	</g>
	<g>
		<rect x="33.6" y="25.6" class="st3" width="4" height="7.5"/>
	</g>
	<g>
		<rect x="10.5" y="34.8" class="st2" width="8" height="7.5"/>
	</g>
	<g>
		<rect x="29.6" y="34.8" class="st2" width="8" height="7.5"/>
	</g>
	<g>
		<rect x="14.5" y="34.8" class="st3" width="4" height="7.5"/>
	</g>
	<g>
		<rect x="33.6" y="34.8" class="st3" width="4" height="7.5"/>
	</g>
	<g>
		<rect x="6.1" y="1" class="st4" width="35.8" height="3"/>
	</g>
	<g>
		<rect x="24" y="1" class="st5" width="17.9" height="3"/>
	</g>
	<g>
		<rect x="17.6" y="37.1" class="st4" width="12.8" height="9.9"/>
	</g>
	<g>
		<rect x="24" y="37.1" class="st6" width="6.4" height="9.9"/>
	</g>
	<g>
		<rect x="15.8" y="31.9" class="st4" width="16.4" height="5.3"/>
	</g>
	<g>
		<rect x="24" y="31.9" class="st5" width="8.2" height="5.3"/>
	</g>
	<g>
		<rect x="20" y="38.5" class="st2" width="8" height="8.5"/>
	</g>
	<g>
		<rect x="24" y="38.5" class="st3" width="4" height="8.5"/>
	</g>
	<g>
		<path class="st7" d="M20,34.5c0,0.4-0.1,0.8-0.3,1c-0.2,0.2-0.5,0.3-0.9,0.3c-0.4,0-0.7-0.1-0.9-0.3c-0.2-0.2-0.3-0.6-0.3-1
			c0-0.4,0.1-0.8,0.3-1c0.2-0.2,0.5-0.3,0.9-0.3c0.4,0,0.7,0.1,0.9,0.3C19.9,33.7,20,34.1,20,34.5z M18.3,34.5
			c0,0.5,0.2,0.8,0.5,0.8c0.2,0,0.3-0.1,0.4-0.2c0.1-0.1,0.1-0.3,0.1-0.6c0-0.3,0-0.5-0.1-0.6c-0.1-0.1-0.2-0.2-0.4-0.2
			C18.4,33.7,18.3,34,18.3,34.5z"/>
		<path class="st7" d="M21.4,35.8h-0.7v-2.6h1.5v0.6h-0.8v0.5h0.8v0.6h-0.8V35.8z"/>
		<path class="st7" d="M23.5,35.8h-0.7v-2.6h1.5v0.6h-0.8v0.5h0.8v0.6h-0.8V35.8z"/>
		<path class="st7" d="M24.9,35.8v-2.6h0.7v2.6H24.9z"/>
		<path class="st7" d="M27.4,33.8c-0.2,0-0.3,0.1-0.4,0.2c-0.1,0.1-0.1,0.3-0.1,0.6c0,0.5,0.2,0.8,0.6,0.8c0.1,0,0.2,0,0.3,0
			c0.1,0,0.2-0.1,0.3-0.1v0.6c-0.2,0.1-0.5,0.1-0.7,0.1c-0.4,0-0.7-0.1-0.9-0.3c-0.2-0.2-0.3-0.6-0.3-1c0-0.3,0.1-0.5,0.2-0.7
			c0.1-0.2,0.2-0.4,0.4-0.5c0.2-0.1,0.4-0.2,0.7-0.2c0.3,0,0.5,0.1,0.8,0.2L28,33.9c-0.1,0-0.2-0.1-0.3-0.1
			C27.7,33.8,27.6,33.8,27.4,33.8z"/>
		<path class="st7" d="M30.3,35.8h-1.5v-2.6h1.5v0.6h-0.8v0.4h0.8v0.6h-0.8v0.5h0.8V35.8z"/>
	</g>
</g>
</svg>
