<?xml version="1.0" encoding="utf-8"?>
<!-- Generator: Adobe Illustrator 25.2.1, SVG Export Plug-In . SVG Version: 6.00 Build 0)  -->
<svg version="1.1" id="Layer_1" xmlns="http://www.w3.org/2000/svg" xmlns:xlink="http://www.w3.org/1999/xlink" x="0px" y="0px"
	 viewBox="0 0 48 48" style="enable-background:new 0 0 48 48;" xml:space="preserve">
<style type="text/css">
	.st0{fill:#09093C;}
	.st1{fill:#FFDD00;}
	.st2{fill:#FF3D9B;}
	.st3{fill:#00BAEB;}
	.st4{clip-path:url(#SVGID_2_);enable-background:new    ;}
	.st5{fill:#85A9FF;}
	.st6{fill:#C3DFF4;}
	.st7{fill:#E3F1FE;}
	.st8{fill:#608EEA;}
	.st9{clip-path:url(#SVGID_4_);enable-background:new    ;}
	.st10{fill:#D7E9FF;}
	.st11{fill:#6591EA;}
	.st12{enable-background:new    ;}
	.st13{fill:#5B7DC1;}
	.st14{fill:#7392DC;}
	.st15{fill:#ADD3EA;}
	.st16{fill:#AACFE5;}
	.st17{fill:#FCDA4C;}
	.st18{fill:#EA8A33;}
	.st19{fill:#FECC2F;}
	.st20{fill:#2D1D1F;}
	.st21{fill:#E92E2D;}
	.st22{fill:#F54945;}
	.st23{fill:#FFFFFF;}
	.st24{fill:#992E2B;}
	.st25{fill:#5BB0FF;}
	.st26{fill:#3D93FF;}
	.st27{fill:#223A7A;}
	.st28{fill:#2C4481;}
	.st29{fill:#FFAA83;}
	.st30{fill:#1AB8C2;}
	.st31{fill:#48D7F6;}
	.st32{fill:#F79F7C;}
	.st33{fill:#3A2528;}
</style>
<g>
	<g>
		<g>
			<defs>
				<path id="SVGID_1_" d="M38.6,35.1c-0.3,0.2,0.1-1-0.2-1c0,0,0,0,0,0c0.2,0,0.3-0.2,0.4-0.4l0.8-0.1C39.3,34.7,38.9,35,38.6,35.1
					z"/>
			</defs>
			<use xlink:href="#SVGID_1_"  style="overflow:visible;fill:#85A9FF;"/>
			<clipPath id="SVGID_2_">
				<use xlink:href="#SVGID_1_"  style="overflow:visible;"/>
			</clipPath>
			<g class="st4">
				<polygon class="st5" points="38.8,33.8 39.6,33.7 39.6,33.7 38.8,33.8 				"/>
				<path class="st5" d="M38.8,33.8l0.8-0.1c0,0,0,0,0,0L38.8,33.8C38.8,33.8,38.8,33.8,38.8,33.8z"/>
				<path class="st5" d="M38.8,33.8l0.8-0.1c0,0,0,0,0,0L38.8,33.8C38.8,33.8,38.8,33.8,38.8,33.8z"/>
				<path class="st5" d="M38.8,33.8l0.8-0.1c0,0,0,0,0,0L38.8,33.8C38.8,33.8,38.8,33.8,38.8,33.8z"/>
				<path class="st5" d="M38.8,33.9l0.8-0.1c0,0,0,0,0,0L38.8,33.9C38.8,33.9,38.8,33.9,38.8,33.9z"/>
				<path class="st5" d="M38.8,33.9l0.8-0.1c0,0,0,0,0,0L38.8,33.9C38.8,33.9,38.8,33.9,38.8,33.9z"/>
				<path class="st5" d="M38.8,33.9l0.8-0.1c0,0,0,0,0,0L38.8,33.9C38.7,33.9,38.8,33.9,38.8,33.9z"/>
				<path class="st5" d="M38.7,33.9l0.8-0.1c0,0,0,0,0,0L38.7,33.9C38.7,34,38.7,34,38.7,33.9z"/>
				<path class="st5" d="M38.7,34l0.8-0.1c0,0,0,0,0,0L38.7,34C38.7,34,38.7,34,38.7,34z"/>
				<path class="st5" d="M38.7,34l0.8-0.1c0,0,0,0,0,0L38.7,34C38.7,34,38.7,34,38.7,34z"/>
			</g>
		</g>
		<path class="st5" d="M23.9,4.4C23.9,4.4,23.9,4.4,23.9,4.4C23.9,4.4,23.9,4.4,23.9,4.4C23.9,4.4,23.8,4.4,23.9,4.4
			C23.8,4.4,23.8,4.4,23.9,4.4c-0.1,0-0.1,0-0.1,0c0,0,0,0,0,0c0,0,0,0,0,0c0,0,0,0,0,0c0,0,0,0,0,0c0,0,0,0,0,0c0,0,0,0,0,0
			c0,0,0,0,0,0c-0.2,0-0.4,0.1-0.6,0.1l-0.2,0c0,0,0,0,0,0c0,0,0.1,0,0.1,0c0,0,0,0,0,0c0,0,0.1,0,0.1,0.1l20.1,11.6L44,16L23.9,4.4
			z"/>
		<path class="st5" d="M44.3,16.7C44.3,16.7,44.3,16.7,44.3,16.7C44.3,16.7,44.3,16.7,44.3,16.7C44.3,16.6,44.3,16.6,44.3,16.7
			C44.3,16.6,44.3,16.6,44.3,16.7c0-0.1,0-0.1,0-0.1c0,0,0,0,0,0c0,0,0,0,0,0c0,0,0,0,0,0c0,0,0-0.1,0-0.1c0,0,0,0,0,0
			c0,0,0-0.1,0-0.1c0,0,0,0,0,0c0,0,0,0,0-0.1c0,0,0,0,0,0c0,0,0,0,0,0c0,0,0,0,0,0c0,0,0,0,0,0c0,0,0,0,0,0c0,0,0,0,0,0
			c0,0,0,0,0,0c0,0,0,0,0,0c0,0,0,0,0,0c0,0,0,0,0,0c0,0,0,0,0,0c0,0,0,0,0,0l-0.8,0.1c0,0,0,0,0,0c0,0,0.1,0,0.1,0.1c0,0,0,0,0,0
			c0,0,0.1,0.1,0.1,0.1c0,0,0,0,0,0c0,0,0,0.1,0.1,0.1c0,0,0,0.1,0,0.1c0,0,0,0,0,0c0,0,0,0.1,0,0.1c0,0,0,0,0,0c0,0,0,0,0,0
			c0,0,0,0.1,0,0.1c0,0,0,0,0,0c0,0,0,0.1,0,0.1c0,0,0,0,0,0c0,0,0,0.1,0,0.1l-4.7,16.7l0.8-0.1l4.7-16.7c0,0,0,0,0,0c0,0,0,0,0,0
			c0,0,0,0,0,0c0,0,0,0,0,0c0,0,0,0,0,0C44.3,16.8,44.3,16.8,44.3,16.7C44.3,16.7,44.3,16.7,44.3,16.7
			C44.3,16.7,44.3,16.7,44.3,16.7z"/>
		<g>
			<path class="st6" d="M43.2,16.1c0.3,0.2,0.4,0.6,0.3,0.9l-4.7,16.7c-0.1,0.4-0.4,0.5-0.7,0.4l-21.7-12c0,0,1-0.1,1.3-0.5
				l4.7-16.8c0.1-0.4,0.4-0.5,0.7-0.4L43.2,16.1z"/>
		</g>
		<g>
			<path class="st7" d="M42.3,16.5c0.3,0.2,0.4,0.6,0.3,0.9l-4.4,15.8c-0.1,0.3-0.4,0.5-0.7,0.3l-19-11c-0.3-0.2-0.4-0.6-0.3-0.9
				l4.4-15.8c0.1-0.3,0.4-0.5,0.7-0.3L42.3,16.5z"/>
		</g>
		<g>
			<path class="st5" d="M41.1,16.7c0.2,0.1,0.4,0.5,0.3,0.8L37.3,32c-0.1,0.3-0.4,0.5-0.6,0.3L19.3,22.3c-0.2-0.1-0.4-0.5-0.3-0.8
				l4.1-14.5c0.1-0.3,0.4-0.5,0.6-0.3L41.1,16.7z"/>
		</g>
		<g>
			<path class="st8" d="M41.1,16.7c0.2,0.1,0.4,0.5,0.3,0.8L37.3,32c-0.1,0.3-0.4,0.5-0.6,0.3L19.3,22.3c-0.2-0.1-0.4-0.5-0.3-0.8
				l4.1-14.5c0.1-0.3,0.4-0.5,0.6-0.3L41.1,16.7z"/>
		</g>
		<path class="st5" d="M41.4,17.5L37.3,32c-0.1,0.3-0.4,0.5-0.6,0.3L19.3,22.3c-0.1-0.1-0.2-0.2-0.2-0.3c0,0,0-0.1,0-0.1l4.1-14.7
			c0.1-0.3,0.4-0.5,0.6-0.3L41.4,17C41.4,17.2,41.5,17.3,41.4,17.5z"/>
		<g>
			<defs>
				<path id="SVGID_3_" d="M38.8,33.9l0,1c0,0.1-0.1,0.2-0.2,0.3l0-1C38.7,34.1,38.8,34,38.8,33.9z"/>
			</defs>
			<use xlink:href="#SVGID_3_"  style="overflow:visible;fill:#85A9FF;"/>
			<clipPath id="SVGID_4_">
				<use xlink:href="#SVGID_3_"  style="overflow:visible;"/>
			</clipPath>
			<g class="st9">
				<polygon class="st5" points="38.8,33.9 38.8,34.9 38.8,34.9 38.8,33.9 				"/>
				<path class="st5" d="M38.8,33.9l0,1c0,0,0,0,0,0L38.8,33.9C38.8,33.9,38.8,33.9,38.8,33.9z"/>
				<path class="st5" d="M38.7,33.9l0,1c0,0,0,0,0,0L38.7,33.9C38.7,34,38.7,33.9,38.7,33.9z"/>
				<path class="st5" d="M38.7,34l0,1c0,0,0,0,0,0L38.7,34C38.7,34,38.7,34,38.7,34z"/>
				<path class="st5" d="M38.7,34l0,1c0,0,0,0,0,0L38.7,34C38.7,34,38.7,34,38.7,34z"/>
				<path class="st5" d="M38.7,34.1l0,1c0,0,0,0,0,0L38.7,34.1C38.7,34.1,38.7,34.1,38.7,34.1z"/>
				<path class="st5" d="M38.6,34.1l0,1c0,0-0.1,0-0.1,0.1L38.6,34.1C38.6,34.2,38.6,34.1,38.6,34.1z"/>
				<polygon class="st5" points="38.6,34.2 38.5,35.2 38.5,35.2 38.5,34.2 				"/>
			</g>
		</g>
		<path class="st5" d="M25.3,41.9c0,0-0.1,0-0.1,0.1c0,0,0,0-0.1,0c0,0,0,0-0.1,0c0,0-0.1,0-0.1,0c0,0,0,0,0,0c0,0-0.1,0-0.1,0
			c0,0,0,0,0,0c0,0-0.1,0-0.1,0c0,0,0,0,0,0c0,0-0.1,0-0.1,0c0,0,0,0,0,0c0,0-0.1,0-0.1,0c0,0,0,0,0,0c0,0-0.1,0-0.1-0.1L3.9,30.1
			l0,1l20.4,11.8c0,0,0.1,0,0.1,0c0,0,0,0,0,0c0,0,0,0,0,0c0,0,0,0,0.1,0c0,0,0,0,0,0c0,0,0,0,0,0c0,0,0,0,0,0c0,0,0,0,0.1,0
			c0,0,0,0,0,0c0,0,0,0,0,0c0,0,0,0,0,0c0,0,0,0,0.1,0c0,0,0,0,0,0c0,0,0,0,0,0c0,0,0,0,0,0c0,0,0.1,0,0.1,0c0,0,0,0,0,0
			c0,0,0,0,0,0c0,0,0,0,0.1,0c0,0,0,0,0,0c0,0,0.1,0,0.1,0c0,0,0,0,0,0c0,0,0,0,0,0c0.1,0,0.1,0,0.1-0.1l13.2-7.7l0-1L25.3,41.9z"/>
		<g>
			<path class="st10" d="M38.5,33.6c0.3,0.2,0.3,0.4,0,0.6l-13.2,7.7c-0.3,0.2-0.7,0.2-1,0L3.9,30.1c-0.3-0.2-0.3-0.4,0-0.6
				l13.2-7.7c0.3-0.2,0.7-0.2,1,0L38.5,33.6z"/>
		</g>
		<path class="st8" d="M34.8,12.2c-0.1,0.1-0.2,0.1-0.3,0.1l-3.2-1.9c-0.1-0.1-0.1-0.2-0.1-0.3c0.1-0.1,0.2-0.1,0.3-0.1l3.2,1.9
			C34.9,12,34.9,12.1,34.8,12.2z"/>
		<path class="st5" d="M31.5,10l3.2,1.9c0.1,0.1,0.1,0.2,0.1,0.3c-0.1,0-0.1,0-0.2,0l-3.2-1.9c-0.1-0.1-0.1-0.2-0.1-0.3
			C31.4,10,31.5,10,31.5,10z"/>
		<g>
			<g>
				<polygon class="st11" points="14.3,26.9 13.1,27.6 11.4,26.6 12.6,25.9 				"/>
			</g>
			<g>
				<polygon class="st11" points="17.5,25 16.3,25.7 14.6,24.8 15.8,24.1 				"/>
			</g>
			<g>
				<polygon class="st11" points="15.9,26 14.7,26.7 13,25.7 14.2,25 				"/>
			</g>
			<g>
				<polygon class="st11" points="19.7,25 19,25.4 16.3,23.8 16.9,23.4 				"/>
			</g>
			<g>
				<polygon class="st11" points="22.9,26.9 22.2,27.3 19.4,25.7 20.1,25.3 				"/>
			</g>
			<g>
				<polygon class="st11" points="32.4,32.4 31.8,32.8 29,31.2 29.7,30.8 				"/>
			</g>
			<g class="st12">
				<g>
					<polygon class="st11" points="19.6,26.3 18.4,27 16.7,26 17.9,25.3 					"/>
				</g>
				<g>
					<polygon class="st11" points="18,27.2 16.8,27.9 15.2,26.9 16.4,26.2 					"/>
				</g>
				<g>
					<polygon class="st11" points="21.7,27.5 20.5,28.2 18.9,27.2 20.1,26.5 					"/>
				</g>
				<g>
					<polygon class="st11" points="16.4,28.1 15.2,28.8 13.6,27.9 14.8,27.2 					"/>
				</g>
				<g>
					<polygon class="st11" points="26.1,28.7 25.4,29.1 22.6,27.5 23.3,27.1 					"/>
				</g>
				<g>
					<polygon class="st11" points="20.1,28.4 18.9,29.1 17.3,28.2 18.5,27.5 					"/>
				</g>
				<g>
					<polygon class="st11" points="23.8,28.7 22.6,29.4 21,28.5 22.2,27.8 					"/>
				</g>
				<g>
					<polygon class="st11" points="15,29 13.8,29.6 12.2,28.7 13.3,28 					"/>
				</g>
				<g>
					<polygon class="st11" points="18.6,29.3 17.3,30 15.7,29.1 16.9,28.4 					"/>
				</g>
				<g>
					<polygon class="st11" points="22.3,29.6 21.1,30.3 19.4,29.4 20.6,28.7 					"/>
				</g>
				<g>
					<polygon class="st11" points="26,30 24.8,30.7 23.1,29.7 24.3,29 					"/>
				</g>
				<g>
					<polygon class="st11" points="29.3,30.6 28.6,31 25.8,29.4 26.5,29 					"/>
				</g>
				<g>
					<polygon class="st11" points="20.7,30.6 19.5,31.3 17.8,30.3 19,29.6 					"/>
				</g>
				<g>
					<polygon class="st11" points="24.4,30.9 23.2,31.6 21.5,30.6 22.7,29.9 					"/>
				</g>
				<g>
					<polygon class="st11" points="28.1,31.2 26.9,31.9 25.2,30.9 26.5,30.2 					"/>
				</g>
				<g>
					<polygon class="st11" points="22.8,31.8 21.6,32.5 19.9,31.5 21.2,30.8 					"/>
				</g>
				<g>
					<polygon class="st11" points="26.5,32.1 25.3,32.8 23.7,31.8 24.9,31.1 					"/>
				</g>
				<g>
					<polygon class="st11" points="24.9,33 23.7,33.7 22.1,32.8 23.3,32.1 					"/>
				</g>
				<g>
					<polygon class="st11" points="28.6,33.3 27.4,34 25.8,33.1 27,32.4 					"/>
				</g>
				<g>
					<polygon class="st11" points="27.1,34.3 25.9,35 24.2,34 25.4,33.3 					"/>
				</g>
				<g>
					<polygon class="st11" points="30.8,34.6 29.6,35.3 27.9,34.3 29.1,33.6 					"/>
				</g>
				<g>
					<polygon class="st11" points="34.6,34.9 33.4,35.6 30.1,33.7 31.3,33 					"/>
				</g>
				<g>
					<polygon class="st11" points="25.8,35.2 24.7,35.9 14.3,29.9 15.5,29.2 					"/>
				</g>
				<g>
					<polygon class="st11" points="29.2,35.5 28,36.2 26.5,35.3 26.3,35.2 27.5,34.5 					"/>
				</g>
				<g>
					<polygon class="st11" points="27.9,36.4 26.7,37.1 25.1,36.1 26.2,35.4 					"/>
				</g>
			</g>
			<g>
				<polygon class="st11" points="30,37.6 28.8,38.3 27.2,37.3 28.3,36.7 				"/>
			</g>
			<g>
				<polygon class="st11" points="12.8,27.7 11.7,28.4 10,27.4 11.2,26.8 				"/>
			</g>
			<g>
				<polygon class="st11" points="33,35.9 31.8,36.6 30,35.5 31.2,34.8 				"/>
			</g>
			<g>
				<polygon class="st11" points="31.4,36.8 30.2,37.5 26.5,35.3 28,36.2 29.2,35.5 				"/>
			</g>
			<g>
				<polygon class="st11" points="30.2,32.4 29,33.1 27.4,32.2 28.6,31.5 				"/>
			</g>
			<g>
				<polygon class="st11" points="35.6,34.3 35,34.6 32.2,33 32.9,32.7 				"/>
			</g>
		</g>
		<g>
			<g>
				<polygon class="st5" points="14.3,26.8 13.1,27.5 11.4,26.5 12.6,25.8 				"/>
			</g>
			<g>
				<polygon class="st5" points="17.5,25 16.3,25.7 14.6,24.7 15.8,24 				"/>
			</g>
			<g>
				<polygon class="st5" points="15.9,25.9 14.7,26.6 13,25.6 14.2,24.9 				"/>
			</g>
			<g>
				<polygon class="st5" points="19.7,25 19,25.3 16.3,23.7 16.9,23.4 				"/>
			</g>
			<g>
				<polygon class="st5" points="22.9,26.8 22.2,27.2 19.4,25.6 20.1,25.2 				"/>
			</g>
			<g>
				<polygon class="st5" points="32.4,32.3 31.8,32.7 29,31.1 29.7,30.7 				"/>
			</g>
			<g class="st12">
				<g>
					<polygon class="st5" points="19.6,26.2 18.4,26.9 16.7,25.9 17.9,25.2 					"/>
				</g>
				<g>
					<polygon class="st5" points="18,27.1 16.8,27.8 15.2,26.9 16.4,26.2 					"/>
				</g>
				<g>
					<polygon class="st5" points="21.7,27.4 20.5,28.1 18.9,27.2 20.1,26.5 					"/>
				</g>
				<g>
					<polygon class="st5" points="16.4,28 15.2,28.7 13.6,27.8 14.8,27.1 					"/>
				</g>
				<g>
					<polygon class="st5" points="26.1,28.6 25.4,29 22.6,27.4 23.3,27 					"/>
				</g>
				<g>
					<polygon class="st5" points="20.1,28.3 18.9,29 17.3,28.1 18.5,27.4 					"/>
				</g>
				<g>
					<polygon class="st5" points="23.8,28.6 22.6,29.3 21,28.4 22.2,27.7 					"/>
				</g>
				<g>
					<polygon class="st5" points="15,28.9 13.8,29.5 12.2,28.6 13.3,27.9 					"/>
				</g>
				<g>
					<polygon class="st5" points="18.6,29.3 17.3,30 15.7,29 16.9,28.3 					"/>
				</g>
				<g>
					<polygon class="st5" points="22.3,29.6 21.1,30.3 19.4,29.3 20.6,28.6 					"/>
				</g>
				<g>
					<polygon class="st5" points="26,29.9 24.8,30.6 23.1,29.6 24.3,28.9 					"/>
				</g>
				<g>
					<polygon class="st5" points="29.3,30.5 28.6,30.9 25.8,29.3 26.5,28.9 					"/>
				</g>
				<g>
					<polygon class="st5" points="20.7,30.5 19.5,31.2 17.8,30.2 19,29.5 					"/>
				</g>
				<g>
					<polygon class="st5" points="24.4,30.8 23.2,31.5 21.5,30.5 22.7,29.8 					"/>
				</g>
				<g>
					<polygon class="st5" points="28.1,31.1 26.9,31.8 25.2,30.8 26.5,30.1 					"/>
				</g>
				<g>
					<polygon class="st5" points="22.8,31.7 21.6,32.4 19.9,31.5 21.2,30.8 					"/>
				</g>
				<g>
					<polygon class="st5" points="26.5,32 25.3,32.7 23.7,31.8 24.9,31.1 					"/>
				</g>
				<g>
					<polygon class="st5" points="24.9,32.9 23.7,33.6 22.1,32.7 23.3,32 					"/>
				</g>
				<g>
					<polygon class="st5" points="28.6,33.2 27.4,33.9 25.8,33 27,32.3 					"/>
				</g>
				<g>
					<polygon class="st5" points="27.1,34.2 25.9,34.9 24.2,33.9 25.4,33.2 					"/>
				</g>
				<g>
					<polygon class="st5" points="30.8,34.5 29.6,35.2 27.9,34.2 29.1,33.5 					"/>
				</g>
				<g>
					<polygon class="st5" points="34.6,34.9 33.4,35.6 30.1,33.6 31.3,32.9 					"/>
				</g>
				<g>
					<polygon class="st5" points="25.8,35.1 24.7,35.8 14.3,29.8 15.5,29.2 					"/>
				</g>
				<g>
					<polygon class="st5" points="29.2,35.4 28,36.1 26.5,35.2 26.3,35.1 27.5,34.4 					"/>
				</g>
				<g>
					<polygon class="st5" points="27.9,36.3 26.7,37 25.1,36 26.2,35.4 					"/>
				</g>
			</g>
			<g>
				<polygon class="st5" points="30,37.5 28.8,38.2 27.2,37.3 28.3,36.6 				"/>
			</g>
			<g>
				<polygon class="st5" points="12.8,27.6 11.7,28.3 10,27.4 11.2,26.7 				"/>
			</g>
			<g>
				<polygon class="st5" points="33,35.8 31.8,36.5 30,35.4 31.2,34.7 				"/>
			</g>
			<g>
				<polygon class="st5" points="31.4,36.7 30.2,37.4 26.5,35.2 28,36.1 29.2,35.4 				"/>
			</g>
			<g>
				<polygon class="st5" points="30.2,32.3 29,33 27.4,32.1 28.6,31.4 				"/>
			</g>
			<g>
				<polygon class="st5" points="35.6,34.2 35,34.6 32.2,33 32.9,32.6 				"/>
			</g>
		</g>
		<g>
			<path class="st13" d="M19.9,34c0.2,0.1,0.2,0.3,0,0.5l-2.9,1.7c-0.2,0.1-0.6,0.1-0.8,0L12.6,34c-0.2-0.1-0.2-0.3,0-0.5l2.9-1.7
				c0.2-0.1,0.6-0.1,0.8,0L19.9,34z"/>
		</g>
		<g>
			<path class="st14" d="M19.9,34.5l-2.9,1.7c-0.2,0.1-0.6,0.1-0.8,0L12.6,34c-0.1,0-0.1-0.1-0.1-0.1c0,0,0.1-0.1,0.1-0.1l2.9-1.7
				c0.2-0.1,0.6-0.1,0.8,0l3.7,2.1c0.1,0,0.1,0.1,0.1,0.1C20,34.4,20,34.4,19.9,34.5z"/>
		</g>
		<g>
			<g>
				<path class="st10" d="M35.9,36.2C35.9,36.2,35.9,36.2,35.9,36.2C35.9,36.2,35.9,36.2,35.9,36.2C35.9,36.2,35.9,36.1,35.9,36.2
					C35.9,36.1,35.9,36.1,35.9,36.2C35.9,36.1,35.9,36.1,35.9,36.2C35.9,36.1,35.9,36.1,35.9,36.2C35.9,36.1,35.9,36.1,35.9,36.2
					C35.9,36.1,35.9,36.1,35.9,36.2C35.9,36.1,35.9,36.1,35.9,36.2C35.9,36.1,35.9,36.1,35.9,36.2C35.9,36.1,35.9,36.1,35.9,36.2
					C35.9,36.1,35.9,36.1,35.9,36.2C35.9,36.1,35.9,36.1,35.9,36.2C35.9,36.1,35.9,36.1,35.9,36.2c0-0.1,0-0.1,0-0.1c0,0,0,0,0,0
					c0,0,0,0,0,0c0,0,0,0,0,0c0,0,0,0,0,0c0,0,0,0,0,0c0,0,0,0,0,0c0,0,0,0,0,0c0,0,0,0,0,0c0,0,0,0,0,0c0,0,0,0,0,0c0,0,0,0,0,0
					c0,0,0,0,0,0c0,0,0,0,0,0c0,0,0,0,0,0c0,0,0,0,0,0c0,0,0,0,0,0c0,0,0,0,0,0c0,0,0,0,0,0c0,0,0,0,0,0c0,0,0,0,0,0c0,0,0,0,0,0
					c0,0,0,0,0,0l1.5-0.9c0,0,0,0,0,0c0,0,0,0,0,0c0,0,0,0,0,0c0,0,0,0,0,0c0,0,0,0,0,0c0,0,0,0,0,0c0,0,0,0,0,0c0,0,0,0,0,0
					c0,0,0,0,0,0c0,0,0,0,0,0c0,0,0,0,0,0c0,0,0,0,0,0c0,0,0,0,0,0c0,0,0,0,0,0c0,0,0,0,0,0c0,0,0,0,0,0l0.2,0.1c0,0,0,0,0,0
					c0,0,0,0-0.1,0L36.2,36c0,0,0,0-0.1,0c0,0,0,0,0,0.1c0,0,0,0,0,0c0,0,0,0,0,0.1c0,0,0,0,0,0c0,0,0,0,0,0.1c0,0,0,0,0,0.1v0
					c0,0,0,0,0,0l-0.2-0.1C35.9,36.3,35.9,36.3,35.9,36.2C35.9,36.2,35.9,36.2,35.9,36.2C35.9,36.2,35.9,36.2,35.9,36.2
					C35.9,36.2,35.9,36.2,35.9,36.2C35.9,36.2,35.9,36.2,35.9,36.2C35.9,36.2,35.9,36.2,35.9,36.2C35.9,36.2,35.9,36.2,35.9,36.2
					C35.9,36.2,35.9,36.2,35.9,36.2C35.9,36.2,35.9,36.2,35.9,36.2C35.9,36.2,35.9,36.2,35.9,36.2C35.9,36.2,35.9,36.2,35.9,36.2z"
					/>
				<g>
					<path class="st15" d="M36.2,36c-0.1,0-0.1,0.2-0.1,0.3c0,0.1,0.1,0.1,0.1,0.1l1.5-0.9c0.1,0,0.1-0.2,0.1-0.3
						c0-0.1-0.1-0.1-0.1-0.1L36.2,36z"/>
				</g>
			</g>
			<g>
				<path class="st10" d="M33.7,37.4C33.7,37.4,33.7,37.4,33.7,37.4C33.7,37.4,33.7,37.4,33.7,37.4C33.7,37.4,33.7,37.4,33.7,37.4
					C33.7,37.4,33.7,37.4,33.7,37.4C33.7,37.4,33.7,37.4,33.7,37.4C33.7,37.4,33.7,37.4,33.7,37.4C33.7,37.4,33.7,37.4,33.7,37.4
					C33.7,37.4,33.7,37.4,33.7,37.4C33.7,37.4,33.7,37.4,33.7,37.4C33.7,37.3,33.7,37.3,33.7,37.4C33.7,37.3,33.7,37.3,33.7,37.4
					C33.7,37.3,33.7,37.3,33.7,37.4C33.7,37.3,33.7,37.3,33.7,37.4C33.7,37.3,33.7,37.3,33.7,37.4c0-0.1,0-0.1,0-0.1c0,0,0,0,0,0
					c0,0,0,0,0,0c0,0,0,0,0,0c0,0,0,0,0,0c0,0,0,0,0,0c0,0,0,0,0,0c0,0,0,0,0,0c0,0,0,0,0,0c0,0,0,0,0,0c0,0,0,0,0,0c0,0,0,0,0,0
					c0,0,0,0,0,0c0,0,0,0,0,0c0,0,0,0,0,0c0,0,0,0,0,0c0,0,0,0,0,0c0,0,0,0,0,0c0,0,0,0,0,0c0,0,0,0,0,0c0,0,0,0,0,0c0,0,0,0,0,0
					c0,0,0,0,0,0l1.5-0.9c0,0,0,0,0,0c0,0,0,0,0,0c0,0,0,0,0,0c0,0,0,0,0,0c0,0,0,0,0,0c0,0,0,0,0,0c0,0,0,0,0,0c0,0,0,0,0,0
					c0,0,0,0,0,0c0,0,0,0,0,0c0,0,0,0,0,0c0,0,0,0,0,0c0,0,0,0,0,0c0,0,0,0,0,0c0,0,0,0,0,0c0,0,0,0,0,0l0.2,0.1c0,0,0,0,0,0
					c0,0,0,0-0.1,0L34,37.3c0,0,0,0-0.1,0c0,0,0,0,0,0.1c0,0,0,0,0,0c0,0,0,0,0,0.1v0c0,0,0,0,0,0.1c0,0,0,0,0,0.1c0,0,0,0,0,0
					l-0.2-0.1C33.7,37.5,33.7,37.5,33.7,37.4C33.7,37.5,33.7,37.5,33.7,37.4C33.7,37.5,33.7,37.5,33.7,37.4
					C33.7,37.5,33.7,37.5,33.7,37.4C33.7,37.5,33.7,37.5,33.7,37.4C33.7,37.5,33.7,37.5,33.7,37.4C33.7,37.4,33.7,37.4,33.7,37.4
					C33.7,37.4,33.7,37.4,33.7,37.4C33.7,37.4,33.7,37.4,33.7,37.4C33.7,37.4,33.7,37.4,33.7,37.4C33.7,37.4,33.7,37.4,33.7,37.4z"
					/>
				<g>
					<path class="st15" d="M34,37.3c-0.1,0-0.1,0.2-0.1,0.3c0,0.1,0.1,0.1,0.1,0.1l1.5-0.9c0.1,0,0.1-0.2,0.1-0.3
						c0-0.1-0.1-0.1-0.1-0.1L34,37.3z"/>
				</g>
			</g>
		</g>
		<g>
			<path class="st16" d="M35.5,32.3c0.3,0.2,0.3,0.5,0,0.6c-0.3,0.2-0.8,0.2-1.1,0l-2.1-1.2c-0.3-0.2-0.3-0.4,0-0.6
				c0.3-0.2,0.8-0.2,1.1,0L35.5,32.3z"/>
		</g>
		<path class="st6" d="M35.5,32.9c-0.3,0.2-0.8,0.2-1.1,0l-2.1-1.2c-0.1-0.1-0.2-0.1-0.2-0.2c0-0.1,0.1-0.1,0.2-0.2
			c0.3-0.2,0.8-0.2,1.1,0l2.1,1.2c0.1,0.1,0.2,0.1,0.2,0.2C35.7,32.8,35.6,32.8,35.5,32.9z"/>
		<g>
			<path class="st16" d="M21.7,24.3c0.3,0.2,0.3,0.5,0,0.6c-0.3,0.2-0.8,0.2-1.1,0l-2.1-1.2c-0.3-0.2-0.3-0.4,0-0.6
				c0.3-0.2,0.8-0.2,1.1,0L21.7,24.3z"/>
		</g>
		<path class="st6" d="M21.7,24.9c-0.3,0.2-0.8,0.2-1.1,0l-2.1-1.2c-0.1-0.1-0.2-0.1-0.2-0.2c0-0.1,0.1-0.1,0.2-0.2
			c0.3-0.2,0.8-0.2,1.1,0l2.1,1.2c0.1,0.1,0.2,0.1,0.2,0.2C21.9,24.8,21.8,24.9,21.7,24.9z"/>
		<g>
			<path class="st10" d="M39.6,17.9l-3.5,12.4c-0.1,0.3-0.3,0.4-0.5,0.3L20.7,22c-0.1-0.1-0.2-0.1-0.2-0.2c0,0,0-0.1,0-0.1L24,9.1
				c0.1-0.3,0.3-0.4,0.5-0.3l15,8.7C39.6,17.6,39.6,17.8,39.6,17.9z"/>
			<path class="st6" d="M37.8,19.1l-1.1,4c0,0.1-0.1,0.1-0.2,0.1l-4.8-2.8c0,0,0,0-0.1-0.1c0,0,0,0,0,0l1.1-4c0-0.1,0.1-0.1,0.2-0.1
				l4.8,2.8C37.8,19,37.8,19.1,37.8,19.1z"/>
			<path class="st6" d="M36.2,24.1l-1.1,4c0,0.1-0.1,0.1-0.2,0.1l-4.8-2.7c0,0,0,0-0.1-0.1c0,0,0,0,0,0l1.1-4c0-0.1,0.1-0.1,0.2-0.1
				l4.8,2.8C36.2,24.1,36.2,24.1,36.2,24.1z"/>
			<path class="st6" d="M29.4,14.3l-1.1,4c0,0.1-0.1,0.1-0.2,0.1l-4.8-2.8c0,0,0,0-0.1-0.1c0,0,0,0,0,0l1.1-4c0-0.1,0.1-0.1,0.2-0.1
				l4.8,2.8C29.4,14.2,29.4,14.3,29.4,14.3z"/>
			<path class="st6" d="M27.8,19.3l-1.1,4c0,0.1-0.1,0.1-0.2,0.1l-4.8-2.7c0,0,0,0-0.1-0.1c0,0,0,0,0,0l1.1-4c0-0.1,0.1-0.1,0.2-0.1
				l4.8,2.8C27.8,19.2,27.8,19.3,27.8,19.3z"/>
			<path class="st8" d="M24.6,8.8l15,8.7c0,0.1,0.1,0.3,0,0.4l-0.3,1l-15.5-9L24,9.1C24.1,8.8,24.3,8.7,24.6,8.8z"/>
			<path class="st6" d="M38.2,17.7c0,0.2,0.2,0.4,0.4,0.4c0.2,0,0.4-0.2,0.4-0.4c0-0.2-0.2-0.4-0.4-0.4
				C38.4,17.3,38.2,17.5,38.2,17.7z"/>
			<path class="st6" d="M37.3,17.3c0,0.2,0.2,0.4,0.4,0.4c0.2,0,0.4-0.2,0.4-0.4c0-0.2-0.2-0.4-0.4-0.4C37.5,16.9,37.3,17,37.3,17.3
				z"/>
			<path class="st6" d="M36.4,16.7c0,0.2,0.2,0.4,0.4,0.4c0.2,0,0.4-0.2,0.4-0.4c0-0.2-0.2-0.4-0.4-0.4
				C36.6,16.3,36.4,16.5,36.4,16.7z"/>
		</g>
	</g>
	<g>
		<g>
			<g>
				<path class="st17" d="M29.7,22c0.5,0.3,0.5,0.7,0,1l-1.1,0.7c-0.5,0.3-1.2,0.3-1.7,0l-8.3-4.8c-0.5-0.3-0.5-0.7,0-1l1.1-0.7
					c0.5-0.3,1.2-0.3,1.7,0L29.7,22z"/>
			</g>
			<path class="st18" d="M18.2,18.3l0,9.9c0,0.2,0.1,0.4,0.4,0.5l0-9.9C18.4,18.7,18.2,18.5,18.2,18.3z"/>
			<polygon class="st19" points="18.6,18.8 18.6,28.7 26.9,33.5 26.9,23.6 			"/>
			<path class="st18" d="M30.1,22.5c0,0,0,0.1,0,0.1c0,0,0,0,0,0c0,0,0,0.1-0.1,0.1c0,0,0,0,0,0c0,0-0.1,0.1-0.1,0.1
				c0,0-0.1,0-0.1,0.1c0,0,0,0-0.1,0.1l-1.1,0.7c-0.1,0-0.2,0.1-0.2,0.1c0,0-0.1,0-0.1,0c0,0-0.1,0-0.1,0c0,0-0.1,0-0.1,0
				c0,0,0,0,0,0c-0.1,0-0.1,0-0.2,0c0,0,0,0,0,0c-0.1,0-0.1,0-0.2,0c0,0,0,0,0,0c-0.1,0-0.1,0-0.2,0c0,0,0,0,0,0
				c-0.1,0-0.1,0-0.2-0.1c0,0,0,0,0,0c-0.1,0-0.1-0.1-0.2-0.1l0,9.9c0.1,0,0.1,0.1,0.2,0.1c0,0,0,0,0,0c0,0,0,0,0,0c0,0,0.1,0,0.1,0
				c0,0,0,0,0.1,0c0,0,0,0,0,0c0,0,0,0,0,0c0,0,0.1,0,0.1,0c0,0,0,0,0,0c0,0,0,0,0,0c0,0,0,0,0,0c0,0,0.1,0,0.1,0c0,0,0,0,0,0
				c0,0,0,0,0,0c0,0,0,0,0.1,0c0,0,0.1,0,0.1,0c0,0,0,0,0,0c0,0,0,0,0,0c0,0,0.1,0,0.1,0c0,0,0,0,0,0c0,0,0.1,0,0.1,0c0,0,0,0,0.1,0
				c0,0,0,0,0,0c0.1,0,0.2-0.1,0.2-0.1l1.1-0.7c0,0,0,0,0,0c0,0,0,0,0.1,0c0,0,0.1,0,0.1-0.1c0,0,0,0,0,0c0,0,0.1-0.1,0.1-0.1
				c0,0,0,0,0,0c0,0,0,0,0,0c0,0,0,0,0,0c0,0,0,0,0-0.1c0,0,0,0,0,0c0,0,0,0,0,0c0,0,0,0,0,0c0,0,0,0,0-0.1c0,0,0,0,0,0l0-8.6
				L30.1,22.5C30.1,22.5,30.1,22.5,30.1,22.5z"/>
			<path class="st19" d="M21.7,16.5c0-0.1,0-0.2,0-0.3c0,0,0,0,0,0c0-0.1,0-0.2,0.1-0.2c0,0,0,0,0,0c0-0.1,0-0.1,0.1-0.2
				c0,0,0,0,0,0c0-0.1,0.1-0.1,0.1-0.2c0,0,0,0,0,0c0-0.1,0.1-0.1,0.1-0.2c0,0,0,0,0,0c0,0,0.1-0.1,0.1-0.1c0,0,0,0,0,0
				c0,0,0.1-0.1,0.2-0.1c0,0-0.1,0.1-0.1,0.1c0,0,0,0,0,0c0,0,0,0,0,0l-0.7,0.4c-0.1,0-0.1,0.1-0.2,0.1c0,0,0,0,0,0
				c0,0-0.1,0.1-0.1,0.1c0,0,0,0,0,0c0,0-0.1,0.1-0.1,0.2c0,0,0,0,0,0c0,0,0,0,0,0c0,0,0,0.1-0.1,0.1c0,0,0,0,0,0c0,0,0,0,0,0
				c0,0,0,0.1,0,0.1c0,0,0,0.1,0,0.1c0,0,0,0,0,0c0,0,0,0,0,0c0,0,0,0.1,0,0.1c0,0,0,0,0,0.1c0,0,0,0,0,0c0,0,0,0,0,0
				c0,0,0,0.1,0,0.1c0,0,0,0.1,0,0.1c0,0,0,0,0,0c0,0,0,0,0,0c0,0,0,0.1,0,0.1c0,0,0,0.1,0,0.1c0,0,0,0,0,0l0,1.9l0.9-0.5l0-1.9
				C21.7,16.8,21.7,16.7,21.7,16.5C21.7,16.6,21.7,16.6,21.7,16.5z"/>
			<path class="st19" d="M28.6,20.2c0-0.1,0-0.1,0-0.2c0,0,0,0,0-0.1c0,0,0,0,0,0c0,0,0,0,0-0.1c0-0.1,0-0.1,0-0.2
				c0-0.1,0-0.1,0-0.2c0,0,0,0,0,0c0,0,0,0,0,0c0-0.1,0-0.1,0-0.2c0-0.1,0-0.1,0-0.2c0,0,0,0,0-0.1c0,0,0,0,0,0c0,0,0-0.1,0-0.1
				c0-0.1,0-0.1,0-0.2c0,0,0-0.1,0-0.1c0,0,0,0,0,0c0,0,0,0,0,0c0-0.1,0-0.1-0.1-0.2c0-0.1,0-0.1-0.1-0.2c0,0,0,0,0,0c0,0,0,0,0,0
				c0,0,0-0.1,0-0.1c0-0.1,0-0.1-0.1-0.2c0,0,0-0.1,0-0.1c0,0,0,0,0,0c0,0,0,0,0,0c0-0.1,0-0.1-0.1-0.2c0-0.1-0.1-0.1-0.1-0.2
				c0,0,0,0,0,0c0,0,0,0,0,0c0,0,0-0.1-0.1-0.1c0-0.1-0.1-0.1-0.1-0.2c0,0,0-0.1,0-0.1c0,0,0,0,0,0c0,0-0.1-0.1-0.1-0.1
				c0-0.1-0.1-0.1-0.1-0.2c0,0,0,0,0,0c-0.1-0.1-0.1-0.2-0.2-0.3c0-0.1-0.1-0.1-0.1-0.2c0-0.1-0.1-0.1-0.1-0.2c0,0,0,0,0,0
				c0,0,0,0,0,0c0-0.1-0.1-0.1-0.1-0.1c0,0-0.1-0.1-0.1-0.1c0,0,0,0,0,0c0,0,0,0,0,0c0,0-0.1-0.1-0.1-0.1c0,0-0.1-0.1-0.1-0.1
				c0,0,0,0,0,0c0,0,0,0,0,0c0,0,0,0-0.1-0.1c0,0-0.1-0.1-0.1-0.1c0,0,0,0-0.1-0.1c0,0,0,0,0,0c0,0,0,0,0,0c0,0-0.1-0.1-0.1-0.1
				c0,0-0.1,0-0.1-0.1c0,0,0,0,0,0c0,0,0,0,0,0c0,0-0.1-0.1-0.1-0.1c0,0-0.1-0.1-0.1-0.1c0,0,0,0,0,0l-1.4-0.8c0,0-0.1,0-0.1-0.1
				c0,0-0.1,0-0.1-0.1c0,0-0.1,0-0.1,0c0,0,0,0,0,0c0,0,0,0,0,0c0,0-0.1,0-0.1-0.1c0,0-0.1,0-0.1-0.1c0,0,0,0,0,0c0,0,0,0,0,0
				c0,0-0.1,0-0.1,0c0,0-0.1,0-0.1,0c0,0,0,0-0.1,0c0,0,0,0,0,0c0,0,0,0,0,0c0,0-0.1,0-0.1,0c0,0-0.1,0-0.1,0c0,0,0,0,0,0
				c0,0,0,0,0,0c-0.1,0-0.1,0-0.2,0c0,0,0,0-0.1,0c0,0,0,0-0.1,0c0,0,0,0-0.1,0c-0.1,0-0.1,0-0.2,0c0,0,0,0,0,0c0,0,0,0,0,0
				c-0.1,0-0.1,0-0.2,0.1c0,0,0,0,0,0c-0.1,0-0.2,0.1-0.3,0.1c-0.1,0.1-0.2,0.1-0.3,0.2c-0.1,0.1-0.3,0.1-0.4,0.2c0,0-0.1,0-0.1,0.1
				c0.1,0,0.2-0.1,0.3-0.1c0.1,0,0.1,0,0.2-0.1c0,0,0,0,0,0c0.1,0,0.2,0,0.2,0c0,0,0,0,0.1,0c0.1,0,0.2,0,0.2,0c0,0,0,0,0,0
				c0.1,0,0.2,0,0.3,0c0,0,0,0,0,0c0.1,0,0.2,0,0.3,0.1c0,0,0,0,0,0c0.1,0,0.2,0.1,0.3,0.1c0,0,0,0,0,0c0.1,0,0.2,0.1,0.3,0.2
				l1.4,0.8c0.1,0.1,0.2,0.1,0.3,0.2c0,0,0,0,0,0c0.1,0.1,0.2,0.1,0.3,0.2c0,0,0,0,0,0c0.1,0.1,0.2,0.2,0.3,0.2c0,0,0,0,0,0
				c0.1,0.1,0.2,0.2,0.3,0.3c0,0,0,0,0,0c0.1,0.1,0.2,0.2,0.3,0.3c0,0,0,0,0,0c0.1,0.1,0.2,0.2,0.3,0.3c0,0,0,0,0,0
				c0.1,0.1,0.2,0.2,0.2,0.3c0,0.1,0.1,0.1,0.1,0.2c0,0.1,0.1,0.1,0.1,0.2c0,0,0,0.1,0,0.1c0.1,0.1,0.1,0.2,0.2,0.3c0,0,0,0,0,0
				c0.1,0.1,0.1,0.3,0.2,0.4c0,0,0,0,0,0c0.1,0.1,0.1,0.3,0.2,0.4c0,0,0,0,0,0c0,0.1,0.1,0.3,0.1,0.4c0,0,0,0,0,0
				c0,0.1,0.1,0.3,0.1,0.4c0,0,0,0,0,0c0.1,0.3,0.1,0.5,0.1,0.8c0,0,0,0,0,0c0,0.1,0,0.3,0,0.4l0,2.4l0.9-0.5l0-2.4
				C28.6,20.3,28.6,20.2,28.6,20.2z"/>
			<g>
				<g>
					<g>
						<path class="st18" d="M24.4,15.2c1.8,1,3.3,3.6,3.3,5.7l0,2.4l-1.1-0.6l0-1.9c0-1.6-1.1-3.6-2.4-4.4l-1-0.6
							c-1.3-0.8-2.4,0-2.4,1.6l0,1.9l-1.1-0.6l0-2.4c0-2.1,1.5-2.9,3.3-1.9L24.4,15.2z"/>
					</g>
				</g>
			</g>
		</g>
		<g>
			<path class="st20" d="M22.5,24c-0.4-0.2-0.7,0-0.7,0.4c0,0.3,0.1,0.6,0.3,0.8l-0.3,2.2l1.5,0.9L23,25.8c0.2-0.1,0.3-0.2,0.3-0.5
				C23.3,24.8,22.9,24.2,22.5,24z"/>
		</g>
	</g>
	<g>
		<path class="st21" d="M31.6,16.7c0,0-0.1,0-0.1,0c0,0,0,0-0.1,0c0,0,0,0-0.1,0c0,0-0.1,0-0.1,0c0,0,0,0-0.1,0c0,0-0.1,0-0.1,0
			c0,0,0,0,0,0c0,0-0.1,0-0.1,0c0,0,0,0,0,0c0,0-0.1,0-0.1,0c0,0,0,0,0,0c0,0-0.1,0-0.1,0.1c0,0,0,0,0,0l0.3-0.2l0.4-0.2
			c0,0,0,0,0,0c0,0,0.1,0,0.1,0c0,0,0,0,0,0c0,0,0,0,0,0c0,0,0,0,0,0c0,0,0,0,0,0c0,0,0,0,0,0c0,0,0,0,0,0c0,0,0.1,0,0.1,0
			c0,0,0,0,0,0c0,0,0,0,0,0c0,0,0.1,0,0.1,0c0,0,0,0,0,0c0,0,0,0,0,0c0,0,0,0,0,0c0,0,0,0,0,0c0,0,0,0,0.1,0c0,0,0,0,0,0
			c0,0,0,0,0,0c0,0,0.1,0,0.1,0c0,0,0,0,0,0c0,0,0,0,0,0c0.1,0,0.1,0.1,0.2,0.1l9.3,5.4c0.1,0.1,0.2,0.1,0.3,0.2
			c0,0,0.1,0.1,0.1,0.1c0,0,0.1,0.1,0.1,0.1c0,0,0,0,0.1,0.1c0,0,0,0,0.1,0.1c0,0,0,0,0.1,0.1c0,0.1,0.1,0.1,0.1,0.2c0,0,0,0,0,0.1
			c0,0,0,0,0,0c0,0,0,0,0,0.1c0,0,0.1,0.1,0.1,0.1c0,0,0.1,0.1,0.1,0.1c0,0,0,0,0,0c0,0,0,0,0,0c0,0,0,0.1,0.1,0.1
			c0,0,0,0.1,0.1,0.1c0,0,0,0.1,0.1,0.1c0,0,0,0,0,0c0,0,0,0,0,0c0,0,0,0.1,0.1,0.1c0,0.1,0,0.1,0.1,0.2c0,0,0,0.1,0,0.1
			c0,0,0,0,0,0c0,0,0,0,0,0.1c0,0.1,0,0.1,0,0.2c0,0,0,0.1,0,0.1c0,0,0,0,0,0.1c0,0,0,0,0,0.1c0,0.1,0,0.2,0,0.3
			c0,0.5-0.2,0.9-0.5,1.1l-0.7,0.4c0.3-0.2,0.5-0.5,0.5-1.1c0-0.1,0-0.2,0-0.4c0,0,0,0,0-0.1c0-0.1,0-0.2-0.1-0.4c0,0,0,0,0,0
			c0-0.1-0.1-0.3-0.1-0.4c0,0,0,0,0,0c-0.1-0.1-0.1-0.3-0.2-0.4c0,0,0,0,0,0c-0.1-0.1-0.1-0.2-0.2-0.3c0,0,0,0,0,0
			c-0.1-0.1-0.2-0.2-0.2-0.3c0,0,0,0-0.1-0.1c-0.1-0.1-0.1-0.1-0.2-0.2c0,0-0.1-0.1-0.1-0.1c-0.1-0.1-0.2-0.2-0.3-0.2l-9.3-5.4
			C31.8,16.8,31.7,16.8,31.6,16.7C31.6,16.7,31.6,16.7,31.6,16.7z"/>
		<g>
			<path class="st22" d="M31.8,16.9c-0.9-0.5-1.6-0.1-1.6,0.9c0,1,0.7,2.3,1.6,2.8l9.3,5.4c0.9,0.5,1.6,0.1,1.6-0.9
				c0-1-0.7-2.3-1.6-2.8L31.8,16.9z"/>
		</g>
		<g>
			<g>
				<g>
					<polygon class="st23" points="39.5,22.4 39.2,22.5 39.5,23 39.5,23 39.1,22.7 39.1,23 39.5,23.2 39.5,23.2 39.2,23.4 
						39.5,23.7 39.6,23.3 39.7,23.3 39.8,23.9 40.1,23.9 39.8,23.3 39.8,23.3 40.2,23.6 40.2,23.3 39.8,23.2 39.8,23.2 40.1,22.9 
						39.8,22.6 39.7,23 39.6,23 					"/>
				</g>
				<g>
					<polygon class="st23" points="37.8,21.4 37.5,21.5 37.8,22 37.8,22 37.4,21.7 37.4,22 37.8,22.2 37.8,22.2 37.5,22.4 
						37.8,22.7 37.9,22.3 37.9,22.3 38.1,22.9 38.3,22.9 38,22.3 38,22.3 38.5,22.6 38.5,22.3 38,22.2 38,22.2 38.3,21.9 38.1,21.6 
						37.9,22 37.9,22 					"/>
				</g>
				<g>
					<polygon class="st23" points="36,20.4 35.8,20.5 36.1,21 36.1,21 35.6,20.7 35.6,21 36.1,21.2 36.1,21.2 35.8,21.4 36,21.7 
						36.2,21.3 36.2,21.3 36.3,21.9 36.6,21.9 36.3,21.3 36.3,21.3 36.7,21.6 36.7,21.3 36.3,21.2 36.3,21.2 36.6,20.9 36.3,20.6 
						36.2,21 36.2,21 					"/>
				</g>
				<g>
					<polygon class="st23" points="34.3,19.4 34.1,19.5 34.3,20 34.3,20 33.9,19.7 33.9,20 34.3,20.2 34.4,20.2 34,20.4 34.3,20.7 
						34.5,20.3 34.5,20.3 34.6,20.9 34.9,20.9 34.6,20.3 34.6,20.3 35,20.6 35,20.3 34.6,20.2 34.6,20.2 34.9,19.9 34.6,19.6 
						34.5,20 34.5,20 					"/>
				</g>
				<g>
					<polygon class="st23" points="32.6,18.4 32.3,18.5 32.6,19 32.6,19 32.2,18.7 32.2,19 32.6,19.2 32.6,19.2 32.3,19.4 
						32.6,19.7 32.7,19.3 32.7,19.3 32.9,19.9 33.1,19.9 32.8,19.3 32.8,19.3 33.3,19.6 33.3,19.3 32.8,19.2 32.8,19.2 33.1,18.9 
						32.9,18.6 32.7,19 32.7,19 					"/>
				</g>
			</g>
		</g>
	</g>
	<g>
		<g class="st12">
			<g>
				<polygon class="st21" points="20.9,10.2 21.3,9.9 22.4,9.2 21.9,9.4 				"/>
			</g>
			<g>
				<polygon class="st21" points="23.7,11 24.2,10.7 23,8.7 22.6,9 				"/>
			</g>
			<g>
				<polygon class="st24" points="20.8,5.9 21.3,5.6 20.6,6 20.1,6.3 				"/>
			</g>
			<g>
				<polygon class="st21" points="21.9,7.8 22.4,7.5 21.3,5.6 20.8,5.9 				"/>
			</g>
			<g>
				<polygon class="st21" points="22.6,9 23,8.7 24.1,8 23.7,8.2 				"/>
			</g>
			<g>
				<polygon class="st21" points="23.7,8.2 24.1,8 23.4,6.8 23,7.1 				"/>
			</g>
			<g>
				<polygon class="st22" points="23,7.1 21.9,7.8 20.8,5.9 20.1,6.3 21.3,8.3 20.2,9 20.9,10.2 21.9,9.4 23,11.3 23.7,11 22.6,9 
					23.7,8.2 				"/>
			</g>
		</g>
	</g>
	<g>
		<path class="st25" d="M11.8,41.7c0,0,1.4,0,1.1,0.4c-0.2,0.3-0.5,0.4-0.7,0.4c-0.2,0-0.6-0.1-0.7,0c-0.1,0.1-0.6,0.4-0.8,0.1
			c-0.1-0.1-0.1-0.2-0.1-0.3C10.7,42.1,11.6,41.7,11.8,41.7z"/>
		<path class="st26" d="M12.9,42.2c-0.2,0.3-0.5,0.4-0.7,0.4c-0.2,0-0.6-0.1-0.7,0c-0.1,0.1-0.6,0.4-0.8,0.1c0,0-0.1-0.1-0.1-0.2
			c0.2,0.3,0.6,0.2,0.8,0.1c0.1-0.1,0.4-0.1,0.5-0.1c0.2,0,0.6,0,0.8-0.2c0.1-0.1,0.1-0.2,0.1-0.3C12.9,41.9,13,42,12.9,42.2z"/>
		<path class="st25" d="M13.7,42.6c1-0.1,2,0,1.6,0.5c-0.2,0.3-0.6,0.4-0.9,0.4c-0.3,0-0.7-0.1-0.9-0.1c-0.1,0.1-0.7,0.4-1,0
			c-0.1-0.1-0.2-0.4-0.1-0.5C12.5,42.9,13.5,42.6,13.7,42.6z"/>
		<path class="st27" d="M10.8,31.4c0,0-0.7,1.4,0,3.4c0,0,0.6,1.7,0.5,2.2c-0.2,0.7-0.4,0.5-0.5,2.7c-0.1,2-0.1,1.7-0.1,2.4
			c0,0.2,0.9,0.4,1.1-0.2c0.4-1.5,1.3-4.6,1.1-6.3c-0.2-1.8-0.3-3.5-0.3-3.5S11.4,31.9,10.8,31.4z"/>
		<path class="st28" d="M11.7,32.3c0,0-0.4,1.6,0.7,3.3c0,0,0.9,1.9,0.8,2.5c-0.1,0.7-0.3,0.6-0.6,2.6c-0.1,1.3-0.2,1.6-0.1,2.4
			c0,0.3,1.2,0.3,1.3-0.1c0.2-1.5,1.4-4.7,1.2-6.5c-0.2-1.8-0.5-3.8-0.5-3.8S12.4,32.7,11.7,32.3z"/>
		<path class="st26" d="M15.4,43.2c-0.2,0.3-0.6,0.4-0.9,0.4c-0.3,0-0.7-0.1-0.9-0.1c-0.1,0.1-0.7,0.4-1,0c0,0-0.1-0.1-0.1-0.2
			c0.2,0.3,0.8,0.2,1,0.2c0.2-0.1,0.4-0.1,0.7-0.1c0.2,0,0.7,0,1-0.2c0.1-0.1,0.2-0.3,0.2-0.4C15.5,42.8,15.5,43,15.4,43.2z"/>
		<path class="st27" d="M14.9,36.5c0.2,1.8-1,5-1.2,6.5c0,0.2-0.3,0.3-0.6,0.3c0.5-1.3,1.2-5.2,1.4-5.7c0.1-0.6,0.3-2.9-0.5-3.2
			c-0.9-0.3-1.7-1.4-1.7-1.4l1.1-0.3c0.5,0,0.9,0,0.9,0S14.7,34.7,14.9,36.5z"/>
		<g>
			<path class="st29" d="M16.2,25.1c0,0,0.7-0.5,1.1-0.3c0.4,0.2,0.5,0.4,0.2,0.4c-0.2,0.1-0.9,0.2-0.8,0.3c0.1,0.1,0.3,0.1,0.3,0.2
				c-0.1,0.1-0.8,0-0.8,0l-0.4-0.4L16.2,25.1z"/>
			<g>
				<path class="st30" d="M11.3,26.3c0,0-0.8,0-0.8,0.8c0,0.9,1.8,0.6,1.8,0.6s1.5-0.2,2-0.3c0.6-0.3,2.2-1.6,2.2-1.6
					s-0.1-0.5-0.5-0.6c0,0-1.5,1-2.1,1.2C13.2,26.4,11.4,26.2,11.3,26.3z"/>
			</g>
		</g>
		<path class="st31" d="M14.4,28.2c0,0,0.2-0.9-1.4-1.5c-1.6-0.6-2.6-0.5-2.6,0.3c0,0.9,0.4,2.1,0.4,2.5c0,0.3,0.4,0.6,0,1.5
			c-0.4,0.9-0.9,1.7,1.5,2.2c0.4,0.1,2.3,0.3,2.1-0.8C14.2,31.1,14.2,29.3,14.4,28.2z"/>
		<path class="st29" d="M12.9,25.7c0,0-0.2,0.7,0.2,1.1c0.2,0.2-0.5,0.5-1.1,0.2c0,0-0.1-1.1-0.5-1.5L12.9,25.7z"/>
		<path class="st32" d="M12.9,26.1c0,0-0.4-0.1-0.6-0.2l0,0l-0.1,0.2L12,26.1c0,0,0.1,0.7,1,0.5C13,26.6,12.9,26.4,12.9,26.1z"/>
		<path class="st29" d="M13,23.2c0,0,0.5,0.1,0.7,1c0.1,0.8,0.4,1.5,0,1.8c-0.4,0.4-1.9,0.3-2.4-0.8C10.9,24.2,11.6,22.7,13,23.2z"
			/>
		<path class="st33" d="M13.9,24c0,0.1-0.1,0.4-0.3,0.5c-0.4,0.1-0.8,0.1-0.8,0.4c0,0.2-0.3,0.5,0.5,1.9c0.2,0.4-1.5,0.7-2.1-0.1
			c-0.2-0.3-0.5-2.1,0-3.1c0,0,0.4-0.8,1.4-0.6C12.5,22.9,14,23,13.9,24z"/>
		<path class="st29" d="M12.4,25.5c0.2,0.2,0.4,0.2,0.5,0.1c0.1-0.1,0.1-0.4-0.1-0.5c-0.2-0.2-0.4-0.2-0.5-0.1
			C12.2,25.1,12.2,25.3,12.4,25.5z"/>
		<g>
			<path class="st29" d="M17.8,31.3c0,0,0.8,0.2,1.2-0.2c0.3-0.4,0.3-0.5,0.1-0.5c-0.2,0-0.9,0.1-0.8,0c0.1-0.1,0.3-0.2,0.2-0.3
				c-0.1-0.1-0.7,0.3-0.7,0.3l-0.2,0.5L17.8,31.3z"/>
			<g>
				<g>
					<path class="st30" d="M14.2,27.5c0,0-0.5-0.7-1.1-0.2c-0.7,0.6,0.6,1.8,0.6,1.8s1,1.1,1.4,1.4c0.6,0.3,2.5,0.8,2.5,0.8
						s0.3-0.4,0.2-0.8c0,0-1.7-0.6-2.1-0.9C15.3,29.2,14.3,27.6,14.2,27.5z"/>
				</g>
			</g>
		</g>
	</g>
</g>
</svg>
