<?xml version="1.0" encoding="utf-8"?>
<!-- Generator: Adobe Illustrator 25.2.1, SVG Export Plug-In . SVG Version: 6.00 Build 0)  -->
<svg version="1.1" id="Layer_1" xmlns="http://www.w3.org/2000/svg" xmlns:xlink="http://www.w3.org/1999/xlink" x="0px" y="0px"
	 viewBox="0 0 48 48" style="enable-background:new 0 0 48 48;" xml:space="preserve">
<style type="text/css">
	.st0{fill-rule:evenodd;clip-rule:evenodd;fill:#F0F0F0;}
	.st1{fill-rule:evenodd;clip-rule:evenodd;fill:#FFFFFE;}
	.st2{fill-rule:evenodd;clip-rule:evenodd;fill:#F0206B;}
</style>
<g id="Layer_1_00000173881903378465085510000012463908809348207293_">
	<path class="st0" d="M41.1,33.9c-0.7-0.7-1.6-1.3-2.5-1.7V11h1.7l-1.7-1.7V8.5h-0.7L33.4,4V3.3h-0.7l-1.7-1.7v1.7H10.4
		c-1.6,0-2.8,1.3-2.8,2.8v34.3c0,1.6,1.3,2.8,2.8,2.8h19c1.4,2.2,3.8,3.5,6.4,3.5c4.2,0,7.6-3.4,7.6-7.6
		C43.4,37.2,42.6,35.3,41.1,33.9z"/>
	<path class="st1" d="M40.7,34.3C40,33.5,39,32.9,38,32.6V10.4H39L38,9.5V9.1h-0.4l-4.8-4.8V3.9h-0.4L31.5,3v0.9H10.4
		c-1.3,0-2.3,1-2.3,2.3v34.3c0,1.3,1,2.3,2.3,2.3h19.3c1.2,2.1,3.5,3.5,6.1,3.5c3.9,0,7-3.1,7-7C42.8,37.3,42.1,35.6,40.7,34.3z"/>
	<g>
		<path class="st2" d="M32.7,5.7v3.5c0,0,0,0,0,0h3.5L32.7,5.7z"/>
		<path class="st2" d="M21.2,8.9h-1.6l0.5,0.6c0.2,0.2,0.2,0.5-0.1,0.7c-0.1,0.1-0.9,0.7-0.6,2c0.3-0.8,0.9-1.3,1.9-1.6c0,0,0,0,0,0
			c0.1,0,1.6-0.4,2.6,0.5c0.9-0.4,2.1-0.4,2.7,0.8c0.1-0.5,0-1.1-0.5-1.9c0,0,0-0.1-0.1-0.1c0-0.1-0.7-2-4.8-1.1
			C21.3,8.9,21.2,8.9,21.2,8.9L21.2,8.9z"/>
		<path class="st2" d="M20.2,13.3V15c0,0.8,0.3,1.5,0.9,2.1c0.5,0.5,1.3,0.8,2,0.8h0c1.6,0,2.9-1.3,2.9-2.9v-1.2
			c0-0.4,0-0.8-0.1-1.2c-0.1-0.4-0.3-0.6-0.6-0.7c-0.5-0.2-1.1,0.1-1.3,0.2c-0.2,0.1-0.5,0.1-0.6-0.1c-0.6-0.7-1.7-0.5-1.9-0.5
			c-0.9,0.3-1.1,0.7-1.3,1.1C20.2,12.8,20.2,13.1,20.2,13.3z"/>
		<path class="st2" d="M23.1,18.9L23.1,18.9L23.1,18.9z M21.3,18.4v0.9c0,1.3,3.5,1.3,3.5,0l0-0.9c-0.5,0.3-1.1,0.4-1.8,0.4
			c0,0,0,0,0,0C22.5,18.9,21.9,18.7,21.3,18.4z"/>
		<path class="st2" d="M23.6,21.3V25h7.6c0.1,0,0.1,0,0.1-0.1v-1.2c0-1.1-0.7-2.1-1.7-2.5L25.7,20C25.4,20.7,24.7,21.2,23.6,21.3z"
			/>
		<path class="st2" d="M16.6,21.3c-1,0.4-1.7,1.4-1.7,2.5v1.2c0,0.1,0,0.1,0.1,0.1h7.6v-3.7c-1.1-0.1-1.9-0.6-2.1-1.3L16.6,21.3z"/>
		<path class="st2" d="M33.9,36.4l-1,1l1.5,1.5c0.2,0.2,0.2,0.5,0,0.7L33,41l1,1l1.5-1.5c0.2-0.2,0.5-0.2,0.7,0l1.5,1.5l1-1
			l-1.5-1.5c-0.2-0.2-0.2-0.5,0-0.7l1.5-1.5l-1-1l-1.5,1.5c-0.2,0.2-0.5,0.2-0.7,0L33.9,36.4z"/>
		<path class="st2" d="M35.8,33.4c-3.2,0-5.9,2.6-5.9,5.9c0,3.2,2.6,5.9,5.9,5.9c3.2,0,5.9-2.6,5.9-5.9S39,33.4,35.8,33.4L35.8,33.4
			z M39.3,36.7L39.3,36.7L39.3,36.7z M34.6,35.7l1.2,1.2l1.2-1.2c0.3-0.3,0.9-0.3,1.2,0l1.1,1.1c0.3,0.3,0.3,0.9,0,1.2l-1.2,1.2
			l1.2,1.2c0.3,0.3,0.3,0.9,0,1.2l-1.1,1.1c-0.2,0.2-0.4,0.3-0.6,0.3c-0.2,0-0.5-0.1-0.6-0.3l-1.2-1.2l-1.2,1.2
			c-0.3,0.3-0.9,0.3-1.2,0l-1.1-1.1c-0.3-0.3-0.3-0.9,0-1.2l1.2-1.2L32.2,38c-0.3-0.3-0.3-0.9,0-1.2l1.1-1.1
			C33.7,35.3,34.2,35.3,34.6,35.7z"/>
		<path class="st2" d="M32.9,30.2H15.5c-0.3,0-0.5-0.2-0.5-0.5s0.2-0.5,0.5-0.5h17.4c0.3,0,0.5,0.2,0.5,0.5
			C33.4,30,33.2,30.2,32.9,30.2L32.9,30.2z M18.5,7.9L18.5,7.9L18.5,7.9z M31.2,26H15c-0.6,0-1.1-0.5-1.1-1.1v-1.2
			c0-1.5,0.9-2.8,2.3-3.4l0,0l4.1-1.3v-1.3C19.6,17,19.2,16,19.2,15v-1.1c-1.4-2.1-0.7-3.5-0.1-4.1l-1-1.1C18,8.6,17.9,8.4,18,8.2
			c0.1-0.2,0.2-0.3,0.4-0.3h2.7c4.6-1.1,5.7,1.2,5.9,1.7c1.1,1.8,0.5,3,0.1,3.8c-0.1,0.2-0.1,0.3-0.2,0.5V15c0,1.1-0.4,2-1.1,2.7V19
			l4.1,1.3l0,0c1.4,0.5,2.3,1.9,2.3,3.4v1.2C32.3,25.5,31.8,26,31.2,26L31.2,26z M9.3,6.2v34.3c0,0.6,0.5,1.1,1.1,1.1h18.9
			C29.1,40.8,29,40,29,39.2c0-4.2,3.8-7.4,7.9-6.7V10.2h-4.2c-0.5,0-1-0.4-1-1V5H10.4C9.8,5,9.3,5.5,9.3,6.2L9.3,6.2z M15.5,38h11.3
			c0.3,0,0.5,0.2,0.5,0.5c0,0.3-0.2,0.5-0.5,0.5H15.5c-0.3,0-0.5-0.2-0.5-0.5C15,38.2,15.2,38,15.5,38L15.5,38z M15.5,33.6h13
			c0.3,0,0.5,0.2,0.5,0.5c0,0.3-0.2,0.5-0.5,0.5h-13c-0.3,0-0.5-0.2-0.5-0.5C15,33.8,15.2,33.6,15.5,33.6L15.5,33.6z M12.9,38.1
			c0.3-0.3,0.8-0.1,0.8,0.3c0,0.3-0.2,0.5-0.5,0.5C12.8,38.9,12.6,38.4,12.9,38.1L12.9,38.1z M13.7,34.2c0,0.2-0.2,0.4-0.5,0.4
			c-0.4,0-0.6-0.5-0.3-0.8C13.2,33.4,13.8,33.7,13.7,34.2L13.7,34.2z M13.7,29.9c0,0.2-0.2,0.4-0.5,0.4c-0.4,0-0.6-0.5-0.3-0.8
			C13.2,29.1,13.8,29.4,13.7,29.9z"/>
	</g>
</g>
</svg>
