<?xml version="1.0" encoding="utf-8"?>
<!-- Generator: Adobe Illustrator 25.2.1, SVG Export Plug-In . SVG Version: 6.00 Build 0)  -->
<svg version="1.1" id="Layer_1" xmlns="http://www.w3.org/2000/svg" xmlns:xlink="http://www.w3.org/1999/xlink" x="0px" y="0px"
	 viewBox="0 0 48 48" style="enable-background:new 0 0 48 48;" xml:space="preserve">
<style type="text/css">
	.st0{fill:#FCE5AC;}
	.st1{fill:#F99C1D;}
	.st2{fill:#002541;}
	.st3{fill:#004592;}
	.st4{fill:#4FC2D9;}
	.st5{fill:#96E0F4;}
	.st6{fill:#FDC00E;}
	.st7{fill:#1490BD;}
</style>
<g>
	<g>
		<rect x="3.9" y="4" class="st0" width="24.2" height="32.7"/>
	</g>
	<g>
		<rect x="9.8" y="7.8" class="st1" width="14.3" height="1.1"/>
	</g>
	<g>
		<rect x="9.8" y="10.3" class="st1" width="14.3" height="1.1"/>
	</g>
	<g>
		<rect x="9.8" y="12.8" class="st1" width="14.3" height="1.1"/>
	</g>
	<g>
		<rect x="9.8" y="15.2" class="st1" width="14.3" height="1.1"/>
	</g>
	<g>
		<rect x="9.8" y="17.7" class="st1" width="14.3" height="1.1"/>
	</g>
	<g>
		<rect x="9.8" y="20.2" class="st1" width="14.3" height="1.1"/>
	</g>
	<g>
		<rect x="9.8" y="22.7" class="st1" width="14.3" height="1.1"/>
	</g>
	<g>
		<rect x="9.8" y="25.2" class="st1" width="14.3" height="1.1"/>
	</g>
	<g>
		<rect x="9.8" y="27.7" class="st1" width="14.3" height="1.1"/>
	</g>
	<g>
		<g>
			<path class="st2" d="M31,18.6c7,0,12.7,5.7,12.7,12.7C43.7,38.3,38,44,31,44V18.6z"/>
		</g>
		<g>
			<path class="st3" d="M31,44c-7,0-12.7-5.7-12.7-12.7c0-7,5.7-12.7,12.7-12.7V44z"/>
		</g>
		<g>
			<path class="st4" d="M31,21.4c5.5,0,9.9,4.4,9.9,9.9c0,5.5-4.4,9.9-9.9,9.9V21.4z"/>
		</g>
		<g>
			<path class="st5" d="M31,41.2c-5.5,0-9.9-4.4-9.9-9.9c0-5.5,4.4-9.9,9.9-9.9V41.2z"/>
		</g>
		<g>
			<path class="st2" d="M31,23.7c4.2,0,7.6,3.4,7.6,7.6c0,4.2-3.4,7.6-7.6,7.6V23.7z"/>
		</g>
		<g>
			<path class="st3" d="M31,38.9c-4.2,0-7.6-3.4-7.6-7.6c0-4.2,3.4-7.6,7.6-7.6V38.9z"/>
		</g>
		<g>
			<path class="st4" d="M31,25.9c3,0,5.4,2.4,5.4,5.4c0,3-2.4,5.4-5.4,5.4V25.9z"/>
		</g>
		<g>
			<path class="st5" d="M31,36.7c-3,0-5.4-2.4-5.4-5.4c0-3,2.4-5.4,5.4-5.4V36.7z"/>
		</g>
		<g>
			<path class="st1" d="M31,28c1.8,0,3.3,1.5,3.3,3.3c0,1.8-1.5,3.3-3.3,3.3V28z"/>
		</g>
		<g>
			<path class="st6" d="M31,34.7c-1.8,0-3.3-1.5-3.3-3.3c0-1.8,1.5-3.3,3.3-3.3V34.7z"/>
		</g>
	</g>
	<g>
		<path class="st2" d="M8.4,8.3c0,0.5-0.4,0.8-0.8,0.8S6.8,8.8,6.8,8.3c0-0.5,0.4-0.8,0.8-0.8S8.4,7.9,8.4,8.3z"/>
	</g>
	<g>
		<path class="st2" d="M8.4,10.8c0,0.5-0.4,0.8-0.8,0.8s-0.8-0.4-0.8-0.8c0-0.5,0.4-0.8,0.8-0.8S8.4,10.4,8.4,10.8z"/>
	</g>
	<g>
		<path class="st2" d="M8.4,13.3c0,0.5-0.4,0.8-0.8,0.8s-0.8-0.4-0.8-0.8c0-0.5,0.4-0.8,0.8-0.8S8.4,12.8,8.4,13.3z"/>
	</g>
	<g>
		<path class="st2" d="M8.4,15.8c0,0.5-0.4,0.8-0.8,0.8s-0.8-0.4-0.8-0.8c0-0.5,0.4-0.8,0.8-0.8S8.4,15.3,8.4,15.8z"/>
	</g>
	<g>
		<path class="st2" d="M8.4,18.3c0,0.5-0.4,0.8-0.8,0.8s-0.8-0.4-0.8-0.8c0-0.5,0.4-0.8,0.8-0.8S8.4,17.8,8.4,18.3z"/>
	</g>
	<g>
		<path class="st2" d="M8.4,20.8c0,0.5-0.4,0.8-0.8,0.8s-0.8-0.4-0.8-0.8c0-0.5,0.4-0.8,0.8-0.8S8.4,20.3,8.4,20.8z"/>
	</g>
	<g>
		<path class="st2" d="M8.4,23.2c0,0.5-0.4,0.8-0.8,0.8s-0.8-0.4-0.8-0.8c0-0.5,0.4-0.8,0.8-0.8S8.4,22.8,8.4,23.2z"/>
	</g>
	<g>
		<path class="st2" d="M8.4,25.7c0,0.5-0.4,0.8-0.8,0.8s-0.8-0.4-0.8-0.8c0-0.5,0.4-0.8,0.8-0.8S8.4,25.3,8.4,25.7z"/>
	</g>
	<g>
		<path class="st2" d="M8.4,28.2C8.4,28.7,8,29,7.6,29s-0.8-0.4-0.8-0.8c0-0.5,0.4-0.8,0.8-0.8S8.4,27.8,8.4,28.2z"/>
	</g>
	<g>
		<g>
			<path class="st7" d="M34.7,27.9c-0.1,0-0.2,0-0.2-0.1c-0.1-0.1-0.1-0.3,0-0.4l9-9c0.1-0.1,0.3-0.1,0.4,0c0.1,0.1,0.1,0.3,0,0.4
				l-9,9C34.8,27.8,34.8,27.9,34.7,27.9z"/>
		</g>
		<g>
			<g>
				<polygon class="st7" points="36.7,28 31,31.3 34.3,25.5 				"/>
			</g>
		</g>
	</g>
	<g>
		<path class="st7" d="M43.9,20.1h-1.3c-0.2,0-0.3-0.1-0.3-0.3v-1.3c0-0.2,0.1-0.3,0.3-0.3c0.2,0,0.3,0.1,0.3,0.3v1h1
			c0.2,0,0.3,0.1,0.3,0.3C44.1,19.9,44,20.1,43.9,20.1z"/>
	</g>
	<g>
		<path class="st7" d="M43.1,20.8h-1.3c-0.2,0-0.3-0.1-0.3-0.3v-1.3c0-0.2,0.1-0.3,0.3-0.3c0.2,0,0.3,0.1,0.3,0.3v1h1
			c0.2,0,0.3,0.1,0.3,0.3C43.4,20.7,43.3,20.8,43.1,20.8z"/>
	</g>
</g>
</svg>
