<?xml version="1.0" encoding="utf-8"?>
<!-- Generator: Adobe Illustrator 25.2.1, SVG Export Plug-In . SVG Version: 6.00 Build 0)  -->
<svg version="1.1" id="Layer_1" xmlns="http://www.w3.org/2000/svg" xmlns:xlink="http://www.w3.org/1999/xlink" x="0px" y="0px"
	 viewBox="0 0 48 48" style="enable-background:new 0 0 48 48;" xml:space="preserve">
<style type="text/css">
	.st0{fill:#00B0FF;}
	.st1{fill:#2EBEFF;}
	.st2{font-family:'Roboto-Black';}
	.st3{font-size:5.1125px;}
	.st4{fill:#30302E;}
	.st5{fill:#FFFFFF;}
	.st6{fill:#59B5E6;}
	.st7{fill:#EBEBEB;}
	.st8{fill:#C4C4C4;}
	.st9{opacity:0.2;}
	.st10{fill:#69AB1D;}
	.st11{fill:#3C3C3C;}
	.st12{fill:#F94910;}
	.st13{opacity:0.3;fill:#FFFFFF;}
</style>
<g>
	<path class="st0" d="M47.2,22.9c-0.3-5.7-4.4-10.3-9.6-10.7c-0.9-0.1-1.8,0-2.7,0.2c-2.5-4.7-7.1-7.9-12.4-7.9
		c-6.3,0-11.6,4.4-13.6,10.6c-4.3-0.1-7.8,3.7-7.8,8.4v0.1c0,3,2.3,5.3,5,5.3h12.6v-5.1h9.5v5.1h14c2.7,0,5-2.4,5-5.4
		C47.2,23.3,47.2,23.1,47.2,22.9z M18.6,16.8h9.5v1h-9.5V16.8z M18.6,22.1v-2.7h9.5v2.7H18.6z"/>
	<path class="st1" d="M45,23.4c-0.2-5.2-4-9.4-8.7-9.7c-0.8-0.1-1.7,0-2.4,0.2c-2.3-4.3-6.5-7.1-11.3-7.1c-5.7,0-10.6,4-12.3,9.6
		c-3.9-0.1-7.1,3.4-7.1,7.6V24c0,2.7,2.1,4.8,4.5,4.8h11.6v-5h9.5v5h11.7c2.5,0,4.5-2.2,4.5-4.9C45,23.8,45,23.6,45,23.4z
		 M28.8,22.1h-9.5v-2.7h9.5V22.1z M28.8,17.8h-9.5v-1h9.5V17.8z"/>
	<text transform="matrix(1 0 0 1 1.2817 40.0117)" class="st0 st2 st3">DOWNLOAD NOW</text>
	<g>
		<g>
			<g>
				<g>
					<polygon class="st1" points="16.1,30.5 32.1,30.5 24.1,34.8 					"/>
				</g>
			</g>
		</g>
	</g>
	<path class="st4" d="M29.6,8.1v6.4h-11V8.1c0-0.3,0.2-0.5,0.5-0.5h10C29.4,7.7,29.6,7.9,29.6,8.1z"/>
	<rect x="19.1" y="8.1" class="st5" width="10" height="6"/>
	<rect x="19.1" y="8.1" class="st6" width="10" height="0.5"/>
	<polygon class="st7" points="30.3,15.3 18,15.3 18.6,14.6 29.6,14.6 	"/>
	<polygon class="st8" points="25.7,14.9 24.1,14.9 22.5,14.9 22.1,15.2 24.1,15.2 26.2,15.2 	"/>
	<path class="st4" d="M29.5,15.6H18.8c-0.4,0-0.8,0-0.8-0.3h12.3C30.3,15.6,29.9,15.6,29.5,15.6z"/>
	<polygon class="st9" points="19.3,8.3 29.2,8.3 29.2,8.1 19.1,8.1 19.1,14.1 19.3,14.1 	"/>
	<g>
		<g>
			<path class="st4" d="M22,10.4h-0.8V9.6H22V10.4z M21.3,10.3H22V9.7h-0.6V10.3z"/>
			<path class="st10" d="M22.2,9.5c-0.1,0.1-0.1,0.1-0.2,0.2c-0.1,0.1-0.2,0.2-0.3,0.3l-0.2-0.3l-0.2,0.1l0.3,0.4l0.1,0.1l0-0.1
				c0.1-0.1,0.2-0.3,0.3-0.4C22.1,9.7,22.2,9.6,22.2,9.5c0.1,0,0.1-0.1,0.2-0.1C22.3,9.4,22.3,9.5,22.2,9.5z"/>
		</g>
		<g>
			<path class="st4" d="M22,11.8h-0.8v-0.8H22V11.8z M21.3,11.8H22v-0.6h-0.6V11.8z"/>
			<path class="st10" d="M22.2,11c-0.1,0.1-0.1,0.1-0.2,0.2c-0.1,0.1-0.2,0.2-0.3,0.3l-0.2-0.3l-0.2,0.1l0.3,0.4l0.1,0.1l0-0.1
				c0.1-0.1,0.2-0.3,0.3-0.4C22.1,11.2,22.2,11.1,22.2,11c0.1,0,0.1-0.1,0.2-0.1C22.3,10.9,22.3,10.9,22.2,11z"/>
		</g>
		<g>
			<path class="st4" d="M22,13.3h-0.8v-0.8H22V13.3z M21.3,13.3H22v-0.6h-0.6V13.3z"/>
			<path class="st10" d="M22.2,12.5c-0.1,0.1-0.1,0.1-0.2,0.2c-0.1,0.1-0.2,0.2-0.3,0.3l-0.2-0.3l-0.2,0.1l0.3,0.4l0.1,0.1l0-0.1
				c0.1-0.1,0.2-0.3,0.3-0.4C22.1,12.6,22.2,12.6,22.2,12.5c0.1,0,0.1-0.1,0.2-0.1C22.3,12.4,22.3,12.4,22.2,12.5z"/>
		</g>
		<rect x="22.4" y="9.9" class="st11" width="4.6" height="0.3"/>
		<rect x="22.4" y="11.3" class="st11" width="4.6" height="0.3"/>
		<rect x="22.4" y="12.8" class="st11" width="4.6" height="0.3"/>
	</g>
	<g>
		<path class="st12" d="M23.9,11.1h-0.4l-0.1,0.4h-0.2l0.4-1.3h0.3l0.4,1.3H24L23.9,11.1z M23.8,10.9l0-0.2c0-0.1-0.1-0.3-0.1-0.4h0
			c0,0.1-0.1,0.3-0.1,0.4l0,0.2H23.8z"/>
		<path class="st12" d="M24.6,10.9h-0.4v-0.2h0.4v-0.4h0.2v0.4h0.4v0.2h-0.4v0.4h-0.2V10.9z"/>
	</g>
	<path class="st12" d="M25.3,12h-2.4V9.6h2.4V12z M23,12h2.3V9.7H23V12z"/>
	<path class="st13" d="M27.7,7.7l-4,6.9h-3.1V8.1c0-0.3,0.2-0.5,0.5-0.5H27.7z"/>
</g>
</svg>
