<?xml version="1.0" encoding="utf-8"?>
<!-- Generator: Adobe Illustrator 25.2.1, SVG Export Plug-In . SVG Version: 6.00 Build 0)  -->
<svg version="1.1" id="Layer_1" xmlns="http://www.w3.org/2000/svg" xmlns:xlink="http://www.w3.org/1999/xlink" x="0px" y="0px"
	 viewBox="0 0 48 48" style="enable-background:new 0 0 48 48;" xml:space="preserve">
<style type="text/css">
	.st0{fill:#59B5E6;}
	.st1{fill:#FFFFFF;}
	.st2{fill:#F7D419;}
	.st3{opacity:0.3;fill:#FFFFFF;}
	.st4{fill:#474747;}
	.st5{fill:#A3A3A3;}
	.st6{fill:#D1D1D1;}
	.st7{fill:#FFB600;}
	.st8{fill:#FFDAB7;}
	.st9{fill:#69AB1D;}
	.st10{fill:#6E4621;}
	.st11{fill:#FDD4A6;}
	.st12{fill:#F94910;}
	.st13{fill:#3C3C3C;}
	.st14{fill:#E5E5E5;}
</style>
<g>
	<rect x="8.7" y="14.4" class="st0" width="38.7" height="28.8"/>
	<rect x="10.1" y="16.5" class="st1" width="35.9" height="25.3"/>
	<g>
		<path class="st2" d="M13.5,11.6c0-2-1.4-3.6-3.3-4c-0.3,0-0.5-0.1-0.8-0.1c-2.3,0-4.1,1.8-4.1,4.1c0,0.9,0.3,1.7,0.7,2.3
			c0,0,0.3,0.3,0.4,0.5c1.1,1.3,1,2.5,1.3,3.8h3.4c0.3-1.3,0.2-2.5,1.3-3.8c0.1-0.1,0.4-0.5,0.4-0.5c0.4-0.6,0.7-1.3,0.7-2.1
			C13.5,11.7,13.5,11.6,13.5,11.6z"/>
		<path class="st3" d="M7.7,13.9c-0.1-0.2-0.3-0.6-0.3-0.6c-0.3-0.8-0.3-1.6-0.1-2.5c0.3-1.4,1.3-2.5,2.6-3c-0.1,0-0.2,0-0.3,0
			c-2.1,0-3.8,1.7-3.8,3.8c0,0.8,0.3,1.6,0.7,2.2c0,0,0.3,0.3,0.4,0.4c1,1.2,1.1,2.2,1.4,3.4C8.3,16.4,8.4,15.3,7.7,13.9z"/>
		<polygon class="st4" points="10.2,21.3 8.6,21.3 7.9,20.7 10.9,20.7 		"/>
		<polygon class="st5" points="10.9,18.6 7.9,18.6 7.7,18.2 11.1,18.2 		"/>
		<rect x="7.9" y="18.6" class="st6" width="3" height="2.1"/>
		<g>
			<path class="st5" d="M7.8,19.1C8.3,19,8.9,19,9.4,18.9c0.5-0.1,1.1-0.1,1.6-0.1c0.1,0,0.1,0,0.1,0.1c0,0,0,0.1-0.1,0.1
				c-0.4,0.1-1.1,0.2-1.6,0.2c-0.5,0.1-1.1,0.1-1.6,0.1c-0.1,0-0.1,0-0.1-0.1C7.7,19.2,7.8,19.2,7.8,19.1z"/>
			<path class="st5" d="M7.8,19.7c0.4-0.1,1.1-0.2,1.6-0.2c0.5-0.1,1.1-0.1,1.6-0.1c0.1,0,0.1,0,0.1,0.1c0,0,0,0.1-0.1,0.1
				c-0.4,0.1-1.1,0.2-1.6,0.2c-0.5,0.1-1.1,0.1-1.6,0.1c-0.1,0-0.1,0-0.1-0.1C7.7,19.8,7.8,19.7,7.8,19.7z"/>
			<path class="st5" d="M7.8,20.3c0.4-0.1,1.1-0.2,1.6-0.2c0.5-0.1,1.1-0.1,1.6-0.1c0.1,0,0.1,0,0.1,0.1c0,0.1,0,0.1-0.1,0.1
				c-0.4,0.1-1.1,0.2-1.6,0.2c-0.5,0.1-1.1,0.1-1.6,0.1c-0.1,0-0.1,0-0.1-0.1C7.7,20.3,7.8,20.3,7.8,20.3z"/>
		</g>
		<g>
			<path class="st2" d="M9.4,6.7c-0.3,0-0.5-0.2-0.5-0.5V4.3c0-0.3,0.2-0.5,0.5-0.5c0.3,0,0.5,0.2,0.5,0.5v1.9
				C9.9,6.4,9.7,6.7,9.4,6.7z"/>
			<path class="st2" d="M5.2,8.4c-0.1,0-0.3-0.1-0.4-0.2L3.5,6.9C3.4,6.8,3.4,6.7,3.4,6.5c0-0.1,0.1-0.3,0.2-0.4
				C3.6,6.1,3.7,6,3.9,6C4,6,4.2,6.1,4.3,6.2l1.3,1.3c0.1,0.1,0.2,0.2,0.2,0.4S5.7,8.1,5.6,8.2C5.5,8.3,5.4,8.4,5.2,8.4z"/>
			<path class="st2" d="M1.6,12.6c-0.3,0-0.5-0.2-0.5-0.5s0.2-0.5,0.5-0.5h1.9c0.3,0,0.5,0.2,0.5,0.5s-0.2,0.5-0.5,0.5H1.6z"/>
			<path class="st2" d="M3.9,18.1c-0.1,0-0.3-0.1-0.4-0.2c-0.1-0.1-0.2-0.2-0.2-0.4c0-0.1,0.1-0.3,0.2-0.4l1.3-1.3
				c0.1-0.1,0.2-0.2,0.4-0.2c0.1,0,0.3,0.1,0.4,0.2c0.1,0.1,0.2,0.2,0.2,0.4c0,0.1-0.1,0.3-0.2,0.4l-1.3,1.3C4.2,18,4,18.1,3.9,18.1
				z"/>
			<path class="st2" d="M14.9,18.1c-0.1,0-0.3-0.1-0.4-0.2l-1.3-1.3c-0.1-0.1-0.2-0.2-0.2-0.4c0-0.1,0.1-0.3,0.2-0.4
				c0.1-0.1,0.2-0.2,0.4-0.2c0.1,0,0.3,0.1,0.4,0.2l1.3,1.3c0.1,0.1,0.2,0.2,0.2,0.4c0,0.1-0.1,0.3-0.2,0.4
				C15.2,18,15,18.1,14.9,18.1z"/>
			<path class="st2" d="M15.3,12.6c-0.3,0-0.5-0.2-0.5-0.5s0.2-0.5,0.5-0.5h1.9c0.3,0,0.5,0.2,0.5,0.5s-0.2,0.5-0.5,0.5H15.3z"/>
			<path class="st2" d="M15.4,6.5c0-0.1-0.1-0.3-0.2-0.4C15.2,6.1,15,6,14.9,6c-0.1,0-0.3,0.1-0.4,0.2l-1.3,1.3
				c-0.1,0.1-0.2,0.2-0.2,0.4c0,0.1,0.1,0.3,0.2,0.4c0.1,0.1,0.2,0.2,0.4,0.2c0.1,0,0.3-0.1,0.4-0.2l1.3-1.3
				C15.4,6.8,15.4,6.7,15.4,6.5z"/>
		</g>
	</g>
	<g>
		<g>
			<g>
				<path class="st7" d="M15.2,30.7c-1.6,0-2.4,0.3-1.7,3.9H17C17.6,31.1,16.8,30.7,15.2,30.7z"/>
				<path class="st8" d="M17,33.7c0,1-0.8,1.7-1.7,1.7c-1,0-1.7-0.8-1.7-1.7c0-1,0.8-1.7,1.7-1.7C16.2,32,17,32.8,17,33.7z"/>
				<rect x="13.5" y="31.5" class="st7" width="3.4" height="1.6"/>
				<rect x="14.6" y="35.1" class="st8" width="1.2" height="1.1"/>
				<path class="st9" d="M12.2,39.5v-2.1c0-0.8,0.6-1.4,1.4-1.4h3.2c0.8,0,1.4,0.6,1.4,1.4v2.1H12.2z"/>
				<path class="st8" d="M15.2,36h-1.1c0,0,0.6,0.7,1.1,0.7c0.5,0,1.1-0.7,1.1-0.7H15.2z"/>
			</g>
		</g>
		<g>
			<g>
				<path class="st10" d="M15.2,18.7c-1.6,0-2.9,1.3-2.9,5h5.7C18.1,20.1,16.8,18.7,15.2,18.7z"/>
				<path class="st11" d="M17,21.8c0,1-0.8,1.7-1.7,1.7c-1,0-1.7-0.8-1.7-1.7c0-1,0.8-1.7,1.7-1.7C16.2,20,17,20.8,17,21.8z"/>
				<rect x="13.5" y="19.6" class="st10" width="3.4" height="1.6"/>
				<rect x="14.6" y="23.2" class="st8" width="1.2" height="1.1"/>
				<path class="st12" d="M12.2,27.6v-2.1c0-0.8,0.6-1.4,1.4-1.4h3.2c0.8,0,1.4,0.6,1.4,1.4v2.1H12.2z"/>
				<polygon class="st11" points="15.2,24.1 14.1,24.1 15.2,25.9 16.3,24.1 				"/>
			</g>
		</g>
		<g>
			<rect x="20" y="19.5" class="st12" width="17.9" height="0.7"/>
			<rect x="20" y="21.6" class="st13" width="17.9" height="0.7"/>
			<rect x="20" y="23.7" class="st13" width="17.9" height="0.7"/>
			<rect x="20" y="25.9" class="st13" width="11.7" height="0.7"/>
		</g>
		<g>
			<rect x="20" y="32" class="st9" width="17.9" height="0.7"/>
			<rect x="20" y="34.1" class="st13" width="17.9" height="0.7"/>
			<rect x="20" y="36.2" class="st13" width="17.9" height="0.7"/>
			<rect x="20" y="38.3" class="st13" width="15.4" height="0.7"/>
		</g>
		<g>
			<path class="st9" d="M41.5,37.2c0.6,0,1.1,0.5,1.1,1.2c0,0.7-0.5,1.2-1.1,1.2s-1.1-0.5-1.1-1.2C40.4,37.7,40.9,37.2,41.5,37.2z
				 M40.7,32.6L40.6,31h1.9l-0.1,1.7l-0.3,3.8h-1.2L40.7,32.6z"/>
		</g>
		<g>
			<path class="st12" d="M41.4,25.2c-0.6,0-1.1,0.5-1.1,1.2c0,0.7,0.5,1.2,1.1,1.2c0.6,0,1.1-0.5,1.1-1.2
				C42.5,25.7,42,25.2,41.4,25.2z M44,21c0-1.5-1.1-2.2-2.5-2.2c-0.9,0-1.7,0.5-2.3,1.2l1,0.9c0.3-0.3,0.7-0.6,1.2-0.6
				c0.5,0,0.8,0.3,0.8,0.8c0,0.9-1.8,1.7-1.6,3.4h1.6C42.1,23,44,22.5,44,21z"/>
		</g>
	</g>
	<g>
		<path class="st14" d="M47,16C47,16,46.9,16,47,16l-1-1c-0.1-0.1-0.1-0.1,0-0.2c0.1-0.1,0.1-0.1,0.2,0l0.9,0.9
			C47.2,15.8,47.2,15.9,47,16C47.1,16,47.1,16,47,16z"/>
		<path class="st14" d="M46.1,16C46,16,46,16,46.1,16c-0.1-0.1-0.1-0.2-0.1-0.2l0.9-0.9c0.1-0.1,0.1-0.1,0.2,0
			c0.1,0.1,0.1,0.1,0,0.2L46.1,16C46.1,16,46.1,16,46.1,16z"/>
	</g>
</g>
</svg>
