<?xml version="1.0" encoding="utf-8"?>
<!-- Generator: Adobe Illustrator 25.2.1, SVG Export Plug-In . SVG Version: 6.00 Build 0)  -->
<svg version="1.1" id="Layer_1" xmlns="http://www.w3.org/2000/svg" xmlns:xlink="http://www.w3.org/1999/xlink" x="0px" y="0px"
	 viewBox="0 0 48 48" style="enable-background:new 0 0 48 48;" xml:space="preserve">
<style type="text/css">
	.st0{fill:#38464E;}
	.st1{fill:#E65325;}
</style>
<g>
	<g>
		<g>
			<g>
				<path class="st0" d="M43.1,28.4c-0.3-1.2-1.8-1.7-2.9-1c-0.4,0.3-0.7,0.5-1.1,0.8c-1.9,1.3-3.7,2.7-5.6,4
					c-0.1,0.1-0.2,0.2-0.2,0.4c0.1,0.7,0,1.4-0.5,2c-0.7,0.9-1.7,1.3-2.9,1.2c-2-0.2-3.9-0.5-5.9-0.7c-0.1,0-0.2,0-0.3,0
					c-0.4-0.1-0.6-0.4-0.5-0.8c0.1-0.3,0.4-0.6,0.8-0.5c0.1,0,0.2,0,0.3,0c1.6,0.2,3.3,0.4,4.9,0.6c0.4,0,0.8,0.1,1.1,0.1
					c0.7,0,1.2-0.3,1.5-0.9c0.3-0.6,0.2-1.1-0.1-1.6c-0.4-0.5-0.9-0.7-1.5-0.8c-1.7-0.2-3.4-0.4-5.2-0.6c-0.3,0-0.5-0.2-0.8-0.4
					c-1.5-1.8-3.5-2.6-5.9-2.4c-2.2,0.2-3.9,1.3-5.1,3.1c-0.1,0.2-0.1,0.3,0,0.5c1.8,2.2,3.5,4.4,5.3,6.5c0.1,0.1,0.2,0.2,0.4,0.2
					c1.4,0.2,2.8,0.3,4.2,0.5c0,0,0,0,0,0c1.2,0.1,2.3,0.3,3.5,0.4c2,0.3,3.7-0.2,5.3-1.3c2.7-1.9,5.3-3.9,7.9-5.8
					c0.8-0.6,1.6-1.2,2.5-1.8C43,29.7,43.3,29.1,43.1,28.4z"/>
				<path class="st0" d="M17.8,39.2c-2.2-2.8-4.4-5.6-6.7-8.3c-0.3-0.4-0.6-0.5-1-0.1c-0.7,0.5-1.4,1-2,1.5c-1,0.7-1.9,1.4-2.9,2.1
					c-0.3,0.2-0.4,0.5-0.1,0.8c0,0.1,0.1,0.1,0.1,0.2c1.2,1.5,2.4,3,3.6,4.5c1.1,1.3,2.2,2.7,3.2,4c0.1,0.1,0.2,0.3,0.4,0.3
					c0.2,0,0.4-0.1,0.5-0.2c1.2-0.9,2.5-1.9,3.7-2.8c0.4-0.3,0.7-0.5,1.1-0.8c0.3-0.3,0.4-0.5,0.1-0.8
					C17.8,39.3,17.8,39.3,17.8,39.2z"/>
			</g>
			<g>
				<path class="st0" d="M39.1,22.1c0.1-0.4,0.1-0.9,0.1-1.3c0-0.4,0-0.9-0.1-1.3h-1.8c-0.1-0.4-0.2-0.7-0.3-1.1l0.8-0.5l0.8-0.5
					c-0.4-0.8-0.8-1.6-1.4-2.2l-0.8,0.5l-0.8,0.5c-0.3-0.3-0.6-0.5-0.9-0.7l0.4-0.8l0.4-0.9c-0.7-0.5-1.6-0.9-2.4-1.1l-0.4,0.9
					l-0.4,0.8c-0.5-0.1-0.9-0.2-1.4-0.2c-0.2,0-0.4,0-0.6,0l-0.3-0.9l-0.3-0.9c-0.9,0.1-1.8,0.4-2.6,0.8l0.3,0.9l0.3,0.9
					c-0.3,0.2-0.7,0.4-1,0.6L26,15l-0.7-0.6c-0.7,0.6-1.2,1.3-1.7,2l0.7,0.6l0.7,0.6c-0.3,0.6-0.5,1.2-0.7,1.8h-1.8
					c-0.1,0.4-0.1,0.9-0.1,1.3c0,0.4,0,0.9,0.1,1.3h1.8c0.1,0.4,0.2,0.7,0.3,1.1l-0.8,0.5L23,24.2c0.4,0.8,0.8,1.6,1.4,2.2l0.8-0.5
					l0.8-0.5c0.3,0.3,0.6,0.5,0.9,0.7L26.5,27l-0.4,0.9c0.7,0.5,1.6,0.9,2.4,1.1L29,28l0.4-0.8c0.5,0.1,0.9,0.2,1.4,0.2
					c0.2,0,0.4,0,0.6,0l0.3,0.9l0.3,0.9c0.9-0.1,1.8-0.4,2.6-0.8l-0.3-0.9l-0.3-0.9c0.3-0.2,0.7-0.4,1-0.6l0.7,0.6l0.7,0.6
					c0.7-0.6,1.2-1.3,1.7-2l-0.7-0.6l-0.7-0.6c0.3-0.6,0.5-1.2,0.7-1.8H39.1z M35,21.7c-0.1,0.4-0.2,0.8-0.4,1.2
					c-0.3,0.5-0.7,1-1.1,1.3c-0.2,0.1-0.4,0.3-0.6,0.4c-0.5,0.3-1.1,0.4-1.7,0.5c-0.1,0-0.2,0-0.4,0c-0.3,0-0.6,0-0.9-0.1
					c-0.6-0.1-1.1-0.4-1.6-0.7c-0.2-0.1-0.4-0.3-0.5-0.5c-0.4-0.4-0.7-0.9-1-1.5c-0.1-0.2-0.2-0.4-0.2-0.7c-0.1-0.3-0.1-0.6-0.1-0.9
					c0-0.3,0-0.6,0.1-0.9c0.1-0.4,0.2-0.8,0.4-1.2c0.3-0.5,0.7-1,1.1-1.3c0.2-0.2,0.4-0.3,0.6-0.4c0.5-0.3,1.1-0.4,1.7-0.5
					c0.1,0,0.2,0,0.4,0c0.3,0,0.6,0,0.9,0.1c0.6,0.1,1.1,0.4,1.6,0.7c0.2,0.1,0.4,0.3,0.5,0.5c0.4,0.4,0.7,0.9,1,1.5
					c0.1,0.2,0.2,0.4,0.2,0.7c0.1,0.3,0.1,0.6,0.1,0.9C35.1,21.1,35,21.4,35,21.7z"/>
			</g>
		</g>
	</g>
	<g>
		<g>
			<polygon class="st1" points="32.9,9.6 31,8.7 29.2,9.6 29.5,7.6 28,6.2 30,5.8 30.9,4 31.9,5.8 34,6.1 32.5,7.6 			"/>
			<g>
				<polygon class="st1" points="41.2,12.9 39.4,11.9 37.5,12.9 37.9,10.9 36.4,9.5 38.4,9.1 39.3,7.3 40.2,9.1 42.3,9.4 40.8,10.8 
									"/>
				<polygon class="st1" points="24.5,12.9 22.7,11.9 20.8,12.9 21.1,10.9 19.6,9.5 21.7,9.1 22.6,7.3 23.5,9.1 25.6,9.4 24.1,10.8 
									"/>
			</g>
		</g>
	</g>
</g>
</svg>
