<?xml version="1.0" encoding="utf-8"?>
<!-- Generator: Adobe Illustrator 25.2.1, SVG Export Plug-In . SVG Version: 6.00 Build 0)  -->
<svg version="1.1" id="Layer_1" xmlns="http://www.w3.org/2000/svg" xmlns:xlink="http://www.w3.org/1999/xlink" x="0px" y="0px"
	 viewBox="0 0 48 48" style="enable-background:new 0 0 48 48;" xml:space="preserve">
<style type="text/css">
	.st0{fill:#09093C;}
	.st1{fill:#FFDD00;}
	.st2{fill:#FF3D9B;}
	.st3{fill:#00BAEB;}
</style>
<g>
	<g>
		<path class="st0" d="M3.1,37.1c0.1,0.9,0.8,1.7,1.8,1.7H16v-1.7H3.1z"/>
		<path class="st0" d="M32,37.1v1.7h11.1c0.9,0,1.7-0.7,1.8-1.7H32z"/>
	</g>
	<g>
		<polygon class="st0" points="26.9,10.2 26.1,5.1 16.4,5.1 16.4,17.3 31.6,17.3 31.6,10.2 		"/>
		<polygon class="st0" points="31.6,8.9 27.3,5.1 27.9,8.8 		"/>
	</g>
	<g>
		<path class="st0" d="M14.7,10.1L14.7,10.1v7.2h-2.1v-5.2C12.6,11,13.6,10.1,14.7,10.1z"/>
		<path class="st0" d="M33.3,10.1L33.3,10.1v7.2h2.1v-5.2C35.4,11,34.4,10.1,33.3,10.1z"/>
	</g>
	<path class="st0" d="M43.1,19.2H4.9c-1,0-1.8,0.8-1.8,1.8v14.5H16v-1.8l-2.3,0l-4.4,0l3.4-2.8L23,22.3l1-0.8l1,0.9L35.3,31l3.4,2.8
		l-4.4,0l-2.2,0v1.7h12.8V21C44.9,20,44.1,19.2,43.1,19.2z M8.1,26H6.4c-0.5,0-0.8-0.4-0.8-0.8s0.4-0.8,0.8-0.8h1.7
		c0.5,0,0.8,0.4,0.8,0.8S8.6,26,8.1,26z M8.1,22.9H6.4c-0.5,0-0.8-0.4-0.8-0.8c0-0.5,0.4-0.8,0.8-0.8h1.7c0.5,0,0.8,0.4,0.8,0.8
		C9,22.5,8.6,22.9,8.1,22.9z"/>
	<g>
		<path class="st1" d="M27,26.1v16.9h-2.7V31.4c1-0.2,1.8-1.1,1.8-2.2s-0.8-2-1.8-2.2v-3.3L27,26.1z"/>
		<polygon class="st0" points="34.3,32.2 30.4,32.2 30.4,42.9 27.7,42.9 27.7,26.7 		"/>
		<path class="st2" d="M21.8,29.2c0,1.1,0.8,2,1.8,2.2v11.5H21V26.1l2.7-2.2v3.3C22.6,27.3,21.8,28.2,21.8,29.2z"/>
		<polygon class="st3" points="20.3,26.7 20.3,42.9 17.6,42.9 17.6,32.2 13.7,32.2 		"/>
	</g>
</g>
</svg>
