<?xml version="1.0" encoding="utf-8"?>
<!-- Generator: Adobe Illustrator 25.2.1, SVG Export Plug-In . SVG Version: 6.00 Build 0)  -->
<svg version="1.1" id="Layer_1" xmlns="http://www.w3.org/2000/svg" xmlns:xlink="http://www.w3.org/1999/xlink" x="0px" y="0px"
	 viewBox="0 0 48 48" style="enable-background:new 0 0 48 48;" xml:space="preserve">
<style type="text/css">
	.st0{opacity:0.3;fill:url(#SVGID_1_);}
	.st1{fill:url(#SVGID_2_);}
	.st2{fill:#FFFFFF;}
	.st3{fill:url(#SVGID_3_);}
	.st4{fill:url(#SVGID_4_);}
	.st5{fill:url(#SVGID_5_);}
	.st6{fill:#1F5AA9;}
	.st7{clip-path:url(#SVGID_7_);fill:url(#SVGID_8_);}
	.st8{clip-path:url(#SVGID_7_);fill:url(#SVGID_9_);}
	.st9{fill:url(#SVGID_10_);}
	.st10{opacity:0.8;}
	.st11{fill:url(#SVGID_11_);}
	.st12{fill:url(#SVGID_12_);}
	.st13{fill:url(#SVGID_13_);}
	.st14{fill:url(#SVGID_14_);}
	.st15{fill:url(#SVGID_15_);}
	.st16{fill:url(#SVGID_16_);}
	.st17{fill:url(#SVGID_17_);}
	.st18{fill:url(#SVGID_18_);}
	.st19{fill:url(#SVGID_19_);}
	.st20{fill:url(#SVGID_20_);}
	.st21{fill:url(#SVGID_21_);}
	.st22{fill:url(#SVGID_22_);}
	.st23{fill:url(#SVGID_23_);}
	.st24{fill:url(#SVGID_24_);}
	.st25{fill:url(#SVGID_25_);}
	.st26{fill:url(#SVGID_26_);}
	.st27{fill:url(#SVGID_27_);}
	.st28{fill:url(#SVGID_28_);}
	.st29{fill:url(#SVGID_29_);}
	.st30{fill:url(#SVGID_30_);}
	.st31{fill:url(#SVGID_31_);}
	.st32{fill:url(#SVGID_32_);}
	.st33{fill:url(#SVGID_33_);}
</style>
<g>
	<linearGradient id="SVGID_1_" gradientUnits="userSpaceOnUse" x1="49.6318" y1="56.4159" x2="13.7033" y2="11.7949">
		<stop  offset="0" style="stop-color:#B37CFF"/>
		<stop  offset="1" style="stop-color:#F895E7"/>
	</linearGradient>
	<path class="st0" d="M39.7,38.8c-0.8,0.9-1.6,1.4-2.2,1.9c-7.3,5.2-15.8,3.7-17.7,3.3c-2.7-0.5-7.9-1.6-11.7-6
		c-5.7-6.7-4.8-17.2-0.4-24.2c0.8-1.3,5.1-8.3,13.7-9.5C26.8,3.6,32.9,5,37.4,8.7C46.7,16.5,46,32.2,39.7,38.8z"/>
	<g>
		
			<linearGradient id="SVGID_2_" gradientUnits="userSpaceOnUse" x1="7067.1182" y1="-1020.8364" x2="7085.9473" y2="-1020.8364" gradientTransform="matrix(0.9613 0.2755 -0.2755 0.9613 -7072.1519 -950.5698)">
			<stop  offset="0" style="stop-color:#A737D5"/>
			<stop  offset="1" style="stop-color:#EF497A"/>
		</linearGradient>
		<path class="st1" d="M6,3.8C5.9,3.6,6.2,3.4,6.3,3.5c1.8,1.3,6.1,5.3,6,13.2c-0.1,9.9,2.4,13.2,5.1,15.1c0,0-3.6-0.6-6.2-4
			C4.9,19.6,7.2,7.4,6,3.8z"/>
		<path class="st2" d="M7.5,6.7c0.3,1.1,0.6,2.1,0.9,3.2c0.3,1.1,0.5,2.2,0.7,3.3c0.2,1.1,0.4,2.2,0.5,3.3c0.1,1.1,0.2,2.2,0.3,3.3
			c0.1,1.1,0.2,2.2,0.4,3.3c0.2,1.1,0.5,2.2,1.1,3.2c0.1,0.3,0.3,0.5,0.4,0.7c0.1,0.2,0.3,0.5,0.5,0.7c0.3,0.5,0.7,0.9,1.1,1.3
			c0.8,0.8,1.7,1.5,2.6,2.1c0.1,0.1,0.2,0,0.3-0.1c0.1-0.1,0-0.2-0.1-0.3l0,0c-0.2-0.1-0.5-0.3-0.7-0.5c-0.1-0.1-0.2-0.2-0.3-0.2
			C15,30.1,14.9,30,14.8,30c-0.4-0.3-0.8-0.7-1.2-1.1c-0.7-0.8-1.4-1.7-1.9-2.7c-0.2-0.5-0.5-1-0.6-1.5c-0.2-0.5-0.3-1-0.4-1.6
			c-0.2-1.1-0.3-2.2-0.4-3.3c-0.1-1.1-0.2-2.2-0.4-3.3c-0.1-0.6-0.2-1.1-0.3-1.7c0-0.3-0.1-0.6-0.1-0.8c-0.1-0.3-0.1-0.5-0.2-0.8
			C9.2,12,8.9,10.9,8.7,9.9C8.3,8.8,8,7.7,7.7,6.7C7.6,6.6,7.6,6.6,7.5,6.7C7.5,6.6,7.5,6.7,7.5,6.7z"/>
	</g>
	<g>
		<g>
			
				<linearGradient id="SVGID_3_" gradientUnits="userSpaceOnUse" x1="-3169.5444" y1="6725.1611" x2="-3146.447" y2="6725.1611" gradientTransform="matrix(0.1013 -0.995 0.995 0.1013 -6362.7759 -3796.594)">
				<stop  offset="0" style="stop-color:#CE1567"/>
				<stop  offset="1" style="stop-color:#7A1DBC"/>
			</linearGradient>
			<path class="st3" d="M14.3,38.5c-0.1,0.4-0.5,0.6-0.9,0.4c-1.9-1.2-6.8-5-7.7-12.5C5,20.1,4,16.7,3.4,15.2
				c-0.1-0.3,0.2-0.6,0.5-0.4C7.1,16.8,16.8,24.3,14.3,38.5z"/>
			<path class="st2" d="M13.7,38.6C13.7,38.6,13.7,38.6,13.7,38.6c-0.1,0.1-0.2,0-0.2,0c-0.1-0.1-5.2-8.3-6.7-17.1
				c0-0.1,0-0.2,0.1-0.2c0.1,0,0.2,0,0.2,0.1c1.4,8.7,6.6,16.9,6.6,16.9C13.8,38.5,13.8,38.6,13.7,38.6z"/>
		</g>
	</g>
	<g>
		<g>
			<g>
				
					<linearGradient id="SVGID_4_" gradientUnits="userSpaceOnUse" x1="-58.4699" y1="90.4239" x2="-32.6546" y2="90.4239" gradientTransform="matrix(0.9998 -2.190000e-02 2.190000e-02 0.9998 67.9559 -68.1191)">
					<stop  offset="0" style="stop-color:#2B3582"/>
					<stop  offset="1" style="stop-color:#150E42"/>
				</linearGradient>
				<path class="st4" d="M13.3,4.3c-1,0.1-1.8,0.9-1.8,1.9c0,6.1,0,27.3,0.4,34.8c0,0.8,0.7,1.4,1.5,1.4c3.9,0,15.3,0.1,21.7-0.3
					c1.3-0.1,2.4-1.2,2.4-2.5c0-6.4-0.1-24.6-1-32.9c-0.1-1-0.9-1.8-1.9-1.8C30.3,4.6,18.9,3.8,13.3,4.3z"/>
				
					<linearGradient id="SVGID_5_" gradientUnits="userSpaceOnUse" x1="1.3231" y1="21.4702" x2="55.6384" y2="97.6642" gradientTransform="matrix(1 -4.200000e-03 4.200000e-03 1 13.0081 -12.5488)">
					<stop  offset="0" style="stop-color:#FDF53F"/>
					<stop  offset="1" style="stop-color:#D93C65"/>
				</linearGradient>
				<path class="st5" d="M13.2,7.9c-0.1,5.3-0.3,22.7,0.1,29.2c0.1,0.9,0.8,1.7,1.7,1.7c3.7,0.1,13.3,0.4,18.7-0.2
					c1-0.1,1.7-1,1.8-2c0.1-5.4,0.5-21.6,0.1-28c-0.1-1-0.8-1.8-1.8-1.9c-4-0.3-14.4-0.9-19-0.5C13.8,6.2,13.2,7,13.2,7.9z"/>
				<path class="st6" d="M22.1,5.2c0,0.1,0.1,0.3,0.3,0.3c0.7,0,2.7,0.1,3.6,0.1c0.2,0,0.3-0.2,0.3-0.3c0,0,0-0.2-0.3-0.2
					c-0.6,0-2.5-0.2-3.7-0.1C22.2,5,22.1,5.3,22.1,5.2z"/>
			</g>
		</g>
		<g>
			<circle class="st2" cx="19.2" cy="14.7" r="4.9"/>
			<g>
				<defs>
					<circle id="SVGID_6_" cx="19.2" cy="14.7" r="4.4"/>
				</defs>
				<clipPath id="SVGID_7_">
					<use xlink:href="#SVGID_6_"  style="overflow:visible;"/>
				</clipPath>
				<linearGradient id="SVGID_8_" gradientUnits="userSpaceOnUse" x1="15.0024" y1="28.2978" x2="25.0393" y2="-6.384">
					<stop  offset="0" style="stop-color:#FDF53F"/>
					<stop  offset="1" style="stop-color:#D93C65"/>
				</linearGradient>
				<circle class="st7" cx="19.2" cy="13.6" r="1.9"/>
				<linearGradient id="SVGID_9_" gradientUnits="userSpaceOnUse" x1="16.5004" y1="28.7313" x2="26.5373" y2="-5.9506">
					<stop  offset="0" style="stop-color:#FDF53F"/>
					<stop  offset="1" style="stop-color:#D93C65"/>
				</linearGradient>
				<path class="st8" d="M16.4,19.4h6.1c0.4,0,0.6-0.5,0.4-0.8c-0.5-0.9-1.6-2.3-3.5-2.3c-1.8,0.1-2.9,1.3-3.4,2.2
					C15.7,18.8,16,19.4,16.4,19.4z"/>
			</g>
		</g>
		<linearGradient id="SVGID_10_" gradientUnits="userSpaceOnUse" x1="27.0789" y1="20.6721" x2="21.8182" y2="42.4229">
			<stop  offset="0" style="stop-color:#FDF53F"/>
			<stop  offset="1" style="stop-color:#D93C65"/>
		</linearGradient>
		<path class="st9" d="M25.9,36.4h-4.7c-0.6,0-1.1-0.5-1.1-1.1V35c0-0.6,0.5-1.1,1.1-1.1h4.7c0.6,0,1.1,0.5,1.1,1.1v0.3
			C27,35.9,26.5,36.4,25.9,36.4z"/>
		<g class="st10">
			<g>
				<path class="st2" d="M30.8,25H17.9c-0.3,0-0.6-0.3-0.6-0.6v-0.2c0-0.3,0.3-0.6,0.6-0.6h12.9c0.3,0,0.6,0.3,0.6,0.6v0.2
					C31.4,24.8,31.1,25,30.8,25z"/>
				<circle class="st2" cx="15.5" cy="24.4" r="0.8"/>
			</g>
			<g>
				<path class="st2" d="M30.8,27.6H17.9c-0.3,0-0.6-0.3-0.6-0.6v-0.2c0-0.3,0.3-0.6,0.6-0.6h12.9c0.3,0,0.6,0.3,0.6,0.6V27
					C31.4,27.3,31.1,27.6,30.8,27.6z"/>
				<circle class="st2" cx="15.5" cy="26.9" r="0.8"/>
			</g>
			<g>
				<path class="st2" d="M30.8,30.1H17.9c-0.3,0-0.6-0.3-0.6-0.6v-0.2c0-0.3,0.3-0.6,0.6-0.6h12.9c0.3,0,0.6,0.3,0.6,0.6v0.2
					C31.4,29.8,31.1,30.1,30.8,30.1z"/>
				<circle class="st2" cx="15.5" cy="29.4" r="0.8"/>
			</g>
			<g>
				<path class="st2" d="M30.8,32.6H17.9c-0.3,0-0.6-0.3-0.6-0.6v-0.2c0-0.3,0.3-0.6,0.6-0.6h12.9c0.3,0,0.6,0.3,0.6,0.6V32
					C31.4,32.4,31.1,32.6,30.8,32.6z"/>
				<circle class="st2" cx="15.5" cy="32" r="0.8"/>
			</g>
		</g>
		<path class="st2" d="M25.2,22.4h-9.9c-0.3,0-0.6-0.3-0.6-0.6v-0.2c0-0.3,0.3-0.6,0.6-0.6h9.9c0.3,0,0.6,0.3,0.6,0.6v0.2
			C25.8,22.1,25.5,22.4,25.2,22.4z"/>
	</g>
	<g>
		<g>
			<linearGradient id="SVGID_11_" gradientUnits="userSpaceOnUse" x1="50.01" y1="-8.9179" x2="25.5595" y2="18.0653">
				<stop  offset="0" style="stop-color:#53D8FF"/>
				<stop  offset="1" style="stop-color:#3840F7"/>
			</linearGradient>
			<path class="st11" d="M38,8.8c0-0.4-0.3-0.8-0.7-1l-5.2-2.5c-0.3-0.2-0.7-0.2-1.1,0l-5.2,2.5c-0.4,0.2-0.7,0.6-0.7,1
				c-0.5,7.6,4.4,10.4,6,11.1c0.3,0.1,0.7,0.1,1,0C33.6,19.2,38.5,16.4,38,8.8z"/>
			<path class="st2" d="M30,6.4c0,0-0.1,0-0.1-0.1c0-0.1,0-0.1,0.1-0.2l1.2-0.6c0.1,0,0.1,0,0.2,0.1c0,0.1,0,0.1-0.1,0.2L30,6.4
				C30,6.4,30,6.4,30,6.4z"/>
			<path class="st2" d="M25.5,10.5c-0.1,0-0.1-0.1-0.1-0.1c0-0.5,0-1,0-1.5c0-0.3,0.2-0.6,0.5-0.8l3.5-1.7c0.1,0,0.1,0,0.2,0.1
				c0,0.1,0,0.1-0.1,0.2L26,8.3c-0.2,0.1-0.4,0.3-0.4,0.6c0,0.5,0,1,0,1.5C25.6,10.4,25.5,10.5,25.5,10.5
				C25.5,10.5,25.5,10.5,25.5,10.5z"/>
			<linearGradient id="SVGID_12_" gradientUnits="userSpaceOnUse" x1="37.1224" y1="4.2115" x2="12.6719" y2="35.3834">
				<stop  offset="0" style="stop-color:#53D8FF"/>
				<stop  offset="1" style="stop-color:#3840F7"/>
			</linearGradient>
			<path class="st12" d="M36.7,9.1c0-0.1-0.1-0.2-0.2-0.3l-4.9-2.3c-0.1,0-0.2,0-0.3,0l-4.9,2.3c-0.1,0-0.2,0.1-0.2,0.3
				c-0.1,2.8,0.5,5.2,1.9,7c1.1,1.4,2.4,2.1,3.1,2.5c0.1,0,0.2,0,0.3,0c0.8-0.3,2-1.1,3.1-2.5C36.2,14.3,36.9,11.9,36.7,9.1z"/>
		</g>
		<linearGradient id="SVGID_13_" gradientUnits="userSpaceOnUse" x1="22.2028" y1="21.018" x2="38.5681" y2="6.8932">
			<stop  offset="0" style="stop-color:#A737D5"/>
			<stop  offset="1" style="stop-color:#EF497A"/>
		</linearGradient>
		<path class="st13" d="M28.4,12.2L28.4,12.2c0.4-0.3,0.9-0.1,1.2,0.3l1.1,1.9c0.1,0.2,0.4,0.2,0.5,0l2.6-6.1
			c0.1-0.3,0.6-0.2,0.6,0.1c0,1.8-0.4,5.4-3.3,8.4c0,0-1.6-0.6-3-3.4C27.9,12.9,28,12.4,28.4,12.2z"/>
	</g>
	<g>
		
			<linearGradient id="SVGID_14_" gradientUnits="userSpaceOnUse" x1="-3126.8345" y1="41.9089" x2="-3135.8831" y2="51.7512" gradientTransform="matrix(-1 0 0 1 -3090.8325 0)">
			<stop  offset="0" style="stop-color:#CB236D"/>
			<stop  offset="1" style="stop-color:#4C246D"/>
		</linearGradient>
		<path class="st14" d="M38.9,42.6c0,0,0.1,0.5,0.1,1.1c0,0.2-0.1,0.4-0.3,0.4c-0.7,0-2.2,0.1-2.7,0.1c-0.1,0-0.1-0.1-0.1-0.2l0,0
			c0-0.1,0.1-0.1,0.1-0.1l2.5-1.1L38.9,42.6z"/>
		
			<linearGradient id="SVGID_15_" gradientUnits="userSpaceOnUse" x1="-3129.7715" y1="42.6399" x2="-3128.9678" y2="42.6399" gradientTransform="matrix(-1 0 0 1 -3090.8325 0)">
			<stop  offset="0" style="stop-color:#F9B776"/>
			<stop  offset="1" style="stop-color:#F47960"/>
		</linearGradient>
		<path class="st15" d="M38.9,42.3L38.9,43c0,0-0.4,0.2-0.7,0l0.2-0.7L38.9,42.3z"/>
		
			<linearGradient id="SVGID_16_" gradientUnits="userSpaceOnUse" x1="-3131.6772" y1="36.4942" x2="-3129.0198" y2="36.4942" gradientTransform="matrix(-1 0 0 1 -3090.8325 0)">
			<stop  offset="0" style="stop-color:#2B3582"/>
			<stop  offset="1" style="stop-color:#150E42"/>
		</linearGradient>
		<path class="st16" d="M38.9,30.4c0,0.2,0.2,8.3-0.7,11.9c0,0.1,0,0.1,0.1,0.1c0.1,0.1,0.4,0.1,0.7,0.1c0.1,0,0.2-0.1,0.2-0.2
			c0.2-0.8,1.4-5.1,1.6-9.1c0.2-4.5,0-0.2,0-0.2l-0.1-2.8L38.9,30.4z"/>
		
			<linearGradient id="SVGID_17_" gradientUnits="userSpaceOnUse" x1="-3128.8643" y1="40.0426" x2="-3137.9131" y2="49.885" gradientTransform="matrix(-1 0 0 1 -3090.8325 0)">
			<stop  offset="0" style="stop-color:#CB236D"/>
			<stop  offset="1" style="stop-color:#4C246D"/>
		</linearGradient>
		<path class="st17" d="M41.7,42.9c0,0,0.1,0.3,0.3,1c0,0.1-0.1,0.3-0.2,0.3c-0.2,0-0.6,0.1-0.9,0c-0.1,0-0.2-0.1-0.2-0.2
			c0-0.3,0.1-0.7,0.4-1L41.7,42.9z"/>
		
			<linearGradient id="SVGID_18_" gradientUnits="userSpaceOnUse" x1="-3132.6682" y1="42.5987" x2="-3131.9741" y2="42.5987" gradientTransform="matrix(-1 0 0 1 -3090.8325 0)">
			<stop  offset="0" style="stop-color:#F9B776"/>
			<stop  offset="1" style="stop-color:#F47960"/>
		</linearGradient>
		<path class="st18" d="M41.8,42.1l-0.2,1c0,0-0.2,0.1-0.5,0l0.1-1L41.8,42.1z"/>
		
			<linearGradient id="SVGID_19_" gradientUnits="userSpaceOnUse" x1="-3133.416" y1="36.4072" x2="-3129.6433" y2="36.4072" gradientTransform="matrix(-1 0 0 1 -3090.8325 0)">
			<stop  offset="0" style="stop-color:#2B3582"/>
			<stop  offset="1" style="stop-color:#150E42"/>
		</linearGradient>
		<path class="st19" d="M42.3,30.6c0.7,4.3-0.2,10.6-0.4,11.8c0,0.1-0.1,0.1-0.2,0.1c-0.1,0-0.3,0-0.6,0c-0.1,0-0.1-0.1-0.1-0.2
			c0-1,0-7.1-0.6-9.5c0-0.1-0.1-0.2-0.2-0.3l-1.3-0.9l-0.1-1.5L42.3,30.6z"/>
		<g>
			<linearGradient id="SVGID_20_" gradientUnits="userSpaceOnUse" x1="40.0155" y1="23.6348" x2="35.6922" y2="35.2628">
				<stop  offset="0" style="stop-color:#CE1567"/>
				<stop  offset="1" style="stop-color:#7A1DBC"/>
			</linearGradient>
			<path class="st20" d="M37.8,22.5c2.1,0,4.5,0.6,4.5,0.6c0.6,3.7,0.1,8,0.1,8c-1.6,0.4-3.5-0.3-3.5-0.3c-0.3-1.5-1.5-5.9-1.5-5.9
				c-1-0.1-1.9-0.4-2.6-0.8c0.5-0.6,0.8-1.4,0.9-1.9C36.4,22.4,37.1,22.6,37.8,22.5z"/>
			
				<linearGradient id="SVGID_21_" gradientUnits="userSpaceOnUse" x1="-3126.4641" y1="21.6712" x2="-3122.3579" y2="21.6712" gradientTransform="matrix(-1 0 0 1 -3090.8325 0)">
				<stop  offset="0" style="stop-color:#F9B776"/>
				<stop  offset="1" style="stop-color:#F47960"/>
			</linearGradient>
			<path class="st21" d="M31.5,19.4c0.2-0.3,0.5-0.1,0.5-0.1c0.3,1.3,2,2.4,3.6,2.9c-0.1,0.5-0.4,1.3-0.9,1.9
				C31.9,22.5,31.5,19.4,31.5,19.4z"/>
		</g>
		<g>
			
				<linearGradient id="SVGID_22_" gradientUnits="userSpaceOnUse" x1="9909.0508" y1="20.9829" x2="9911.8057" y2="27.2519" gradientTransform="matrix(1 0 0 1 -9876.6104 0)">
				<stop  offset="0" style="stop-color:#F9B776"/>
				<stop  offset="1" style="stop-color:#F47960"/>
			</linearGradient>
			<path class="st22" d="M31.6,19.5c0,0.1,0.2,0.2,0.4-0.1c0-0.1,0.1-0.7,0-0.8c-0.4-0.6-1.3-1.3-1.3-1.3c-0.1,0.1,0,0.3,0,0.3
				l0.4,0.4c-0.1,0.2-0.2,0.3-0.2,0.5c0,0.1,0,0.3,0.1,0.4c0.1,0.1,0.2,0.3,0.3,0.4C31.3,19.5,31.6,19.5,31.6,19.5z"/>
			
				<linearGradient id="SVGID_23_" gradientUnits="userSpaceOnUse" x1="-3122.3777" y1="18.8951" x2="-3121.2278" y2="17.1274" gradientTransform="matrix(-1 0 0 1 -3090.8325 0)">
				<stop  offset="0" style="stop-color:#F9B776"/>
				<stop  offset="1" style="stop-color:#F47960"/>
			</linearGradient>
			<path class="st23" d="M31.3,18.2l0.4,0.3l0.1,0.3l-0.3,0.4c0,0-0.1-0.6-0.2-0.8C31.1,18.3,31.2,18.2,31.3,18.2z"/>
		</g>
		<linearGradient id="SVGID_24_" gradientUnits="userSpaceOnUse" x1="43.308" y1="24.8589" x2="38.9847" y2="36.487">
			<stop  offset="0" style="stop-color:#CE1567"/>
			<stop  offset="1" style="stop-color:#7A1DBC"/>
		</linearGradient>
		<path class="st24" d="M41.4,25.2l0.8-2.1c0,0,2,1.3,2.3,3.1c-0.4,0-1.1,0.1-1.7,0.5C42.7,25.8,41.4,25.2,41.4,25.2z"/>
		
			<linearGradient id="SVGID_25_" gradientUnits="userSpaceOnUse" x1="-3135.4492" y1="27.4875" x2="-3130.2529" y2="27.4875" gradientTransform="matrix(-1 0 0 1 -3090.8325 0)">
			<stop  offset="0" style="stop-color:#F9B776"/>
			<stop  offset="1" style="stop-color:#F47960"/>
		</linearGradient>
		<path class="st25" d="M39.7,27.1c0,0,2.2,1.3,3,0.2c0.2-0.2,0.2-0.4,0.2-0.7c0.7-0.3,1.3-0.4,1.7-0.5c0.1,0.5,0,1.1-0.3,1.6
			c-1.3,2.4-4.9-0.1-4.9-0.1L39.7,27.1z"/>
		<g>
			
				<linearGradient id="SVGID_26_" gradientUnits="userSpaceOnUse" x1="-3128.6807" y1="23.793" x2="-3125.8235" y2="35.6985" gradientTransform="matrix(-1 0 0 1 -3090.8325 0)">
				<stop  offset="0" style="stop-color:#9CFFFB"/>
				<stop  offset="1" style="stop-color:#9BFFFA"/>
			</linearGradient>
			<path class="st26" d="M40,28.7l-1.2-4.2c0,0-0.1-0.1-0.1-0.1c-0.2,0-0.9-0.1-1.6-0.2c-0.9-0.1-1.9-0.1-2.5-0.1
				c-0.1,0-0.1,0.1-0.1,0.2c0.4,0.7,1.8,3.6,2.5,4.5c0,0,0.1,0,0.1,0l2.8,0C39.9,28.8,40,28.8,40,28.7z"/>
			
				<linearGradient id="SVGID_27_" gradientUnits="userSpaceOnUse" x1="-3126.8918" y1="21.9163" x2="-3127.5002" y2="24.5886" gradientTransform="matrix(-1 0 0 1 -3090.8325 0)">
				<stop  offset="0" style="stop-color:#53D8FF"/>
				<stop  offset="1" style="stop-color:#3840F7"/>
			</linearGradient>
			<path class="st27" d="M36.9,23.8l-0.9-0.1c0,0-0.1,0-0.1,0.1l0.1,0.3c0,0,0,0,0.1,0l0.8,0.1c0,0,0.1,0,0.1-0.1L36.9,23.8
				C37,23.8,37,23.8,36.9,23.8z"/>
			
				<linearGradient id="SVGID_28_" gradientUnits="userSpaceOnUse" x1="-3127.2102" y1="23.0373" x2="-3127.5012" y2="24.7835" gradientTransform="matrix(-1 0 0 1 -3090.8325 0)">
				<stop  offset="0" style="stop-color:#53D8FF"/>
				<stop  offset="1" style="stop-color:#3840F7"/>
			</linearGradient>
			<path class="st28" d="M37.6,24.6l-0.1-0.4c0,0,0-0.1-0.1-0.1l-1.8-0.2c-0.1,0-0.1,0-0.1,0.1l0.1,0.5c0,0,0,0.1,0.1,0.1l1.7,0.1
				C37.6,24.7,37.6,24.6,37.6,24.6z"/>
			
				<linearGradient id="SVGID_29_" gradientUnits="userSpaceOnUse" x1="-3130.6387" y1="26.9426" x2="-3129.0198" y2="26.9426" gradientTransform="matrix(-1 0 0 1 -3090.8325 0)">
				<stop  offset="0" style="stop-color:#F9B776"/>
				<stop  offset="1" style="stop-color:#F47960"/>
			</linearGradient>
			<path class="st29" d="M39.7,27.7c0,0,0.2-0.7,0.1-0.9s-0.2-0.6-0.6-0.5s-1,0.3-1,0.3s0,0.3,0.4,0.2l-0.2,0.2c0,0,0,0.3,0.3,0.1
				l-0.2,0.2c0,0,0.1,0.2,0.3,0.1C39,27.1,39.1,27.7,39.7,27.7z"/>
		</g>
		
			<linearGradient id="SVGID_30_" gradientUnits="userSpaceOnUse" x1="-3131.4592" y1="21.9322" x2="-3129.4045" y2="21.9322" gradientTransform="matrix(-1 0 0 1 -3090.8325 0)">
			<stop  offset="0" style="stop-color:#F9B776"/>
			<stop  offset="1" style="stop-color:#F47960"/>
		</linearGradient>
		<path class="st30" d="M39.9,20.8l0.7,2c0,0,0,0.1,0,0.1c-0.2,0.1-0.8,0.4-1.6-0.1c-0.1-0.1-0.1-0.1-0.2-0.2l-0.2-1.7H39.9z"/>
		<g>
			
				<linearGradient id="SVGID_31_" gradientUnits="userSpaceOnUse" x1="-8391.7227" y1="-4128.5703" x2="-8392.4902" y2="-4131.1025" gradientTransform="matrix(-0.746 -0.6659 -0.6659 0.746 -8971.3564 -2487.5095)">
				<stop  offset="0" style="stop-color:#F9B776"/>
				<stop  offset="1" style="stop-color:#F47960"/>
			</linearGradient>
			<path class="st31" d="M38.5,19c0,0-0.7,1.4-0.6,2c0.1,0.6,1,0.5,1.8,0.1l0.6-1.5L38.5,19z"/>
			
				<linearGradient id="SVGID_32_" gradientUnits="userSpaceOnUse" x1="-8392.416" y1="-4132.9824" x2="-8391.7734" y2="-4129.3193" gradientTransform="matrix(-0.746 -0.6659 -0.6659 0.746 -8971.3564 -2487.5095)">
				<stop  offset="0" style="stop-color:#2B3582"/>
				<stop  offset="1" style="stop-color:#150E42"/>
			</linearGradient>
			<path class="st32" d="M39.6,20.3C39.6,20.3,39.6,20.2,39.6,20.3c0-0.2,0.1-0.4,0.2-0.5c0,0,0.1-0.1-0.3-0.2
				c-0.5-0.1-1.2-0.3-1.3-0.7c-0.1-0.4,0.2-1.4,0.8-0.6c0,0,0.1,0,0.1,0c0.1-0.1,0.4-0.4,0.7-0.2c0.3,0.2,0.4,0.4,0.4,0.5
				c0,0,0,0.1,0.1,0.1c0.2,0,0.6-0.1,0.8,0.4c0.2,0.3,0.1,0.5,0,0.6c0,0,0,0.1,0,0.1c0.1,0,0.3,0.1,0.2,0.4c0,0.4-0.4,0.3-0.5,0.3
				c0,0,0,0-0.1,0c-0.1,0.1-0.5,0.6-1,0.6c0,0-0.1,0-0.1-0.1l0.2-0.6c0,0,0-0.1,0-0.1L39.6,20.3z"/>
			
				<linearGradient id="SVGID_33_" gradientUnits="userSpaceOnUse" x1="-8392.5078" y1="-4128.582" x2="-8393.1982" y2="-4130.8604" gradientTransform="matrix(-0.746 -0.6659 -0.6659 0.746 -8971.3564 -2487.5095)">
				<stop  offset="0" style="stop-color:#F9B776"/>
				<stop  offset="1" style="stop-color:#F47960"/>
			</linearGradient>
			<path class="st33" d="M39.5,20.4c0,0,0.5-0.4,0.6-0.1s-0.5,0.4-0.7,0.3L39.5,20.4z"/>
		</g>
	</g>
</g>
</svg>
