<?xml version="1.0" encoding="utf-8"?>
<!-- Generator: Adobe Illustrator 25.2.1, SVG Export Plug-In . SVG Version: 6.00 Build 0)  -->
<svg version="1.1" id="Layer_1" xmlns="http://www.w3.org/2000/svg" xmlns:xlink="http://www.w3.org/1999/xlink" x="0px" y="0px"
	 viewBox="0 0 48 48" style="enable-background:new 0 0 48 48;" xml:space="preserve">
<style type="text/css">
	.st0{fill:#CCD9E2;}
	.st1{fill:#12223A;}
</style>
<g>
	<path class="st0" d="M26.8,35.8c-4.1,0-7.9-1.6-10.8-4.5c-2.9-2.9-4.5-6.7-4.5-10.8s1.6-7.9,4.5-10.8c2.9-2.9,6.7-4.5,10.8-4.5
		s7.9,1.6,10.8,4.5c2.9,2.9,4.5,6.7,4.5,10.8s-1.6,7.9-4.5,10.8C34.7,34.2,30.9,35.8,26.8,35.8z M26.8,8c-3.3,0-6.5,1.3-8.8,3.7
		c-2.4,2.4-3.7,5.5-3.7,8.8s1.3,6.5,3.7,8.8c2.4,2.4,5.5,3.7,8.8,3.7s6.5-1.3,8.8-3.7c2.4-2.4,3.7-5.5,3.7-8.8s-1.3-6.5-3.7-8.8
		C33.2,9.3,30.1,8,26.8,8z"/>
	<path class="st1" d="M16.4,33.4l-9.2,9.2c-0.4,0.4-0.9,0.4-1.3,0l-1.1-1.1c-0.4-0.4-0.4-0.9,0-1.3l9.2-9.2c0.4,0.4,0.7,0.9,1.1,1.3
		S15.9,33,16.4,33.4z"/>
	<path class="st1" d="M35.2,28.2c-0.1,0.1-0.2,0.2-0.4,0.4c-2.2,2.2-5,3.3-8.1,3.3s-5.9-1.2-8.1-3.3c-0.1-0.1-0.2-0.2-0.4-0.4
		c0.2-2,1-3.4,1.8-4.1c1.9-1.4,4.3-2,4.3-2l1.1,2.7l0.9-1.7L26,22.4c0,0,0.3,0.1,0.8,0.1c0.5,0,0.8-0.1,0.8-0.1l-0.5,0.8l0.9,1.7
		l1.1-2.7c0,0,2.4,0.6,4.3,2C34.2,24.8,35,26.3,35.2,28.2z"/>
	<path class="st1" d="M31.5,16.6c0,0.3-0.4,1.5-0.9,1.8c-0.2,1.4-1.1,2.6-2.2,3.3c0,0-0.7,0.3-1.6,0.3c-1.1,0-1.6-0.4-1.6-0.4
		c-1.1-0.6-2-1.8-2.2-3.2c-0.5-0.3-0.9-1.5-0.9-1.8c0-0.4,0.3-0.7,0.7-0.7c0,0,0.1,0,0.1,0c-0.1-0.8-0.3-1.7-0.1-2.6
		c0.2-0.9,0.7-1.8,1.5-2.1c0.8-0.3,1.6-0.4,2.4-0.4c1.1,0,2.3,0.1,3,0.6c0.9,0.6,1.5,1.4,1,4.5c0.1,0,0.1,0,0.2,0
		C31.2,15.9,31.5,16.2,31.5,16.6z"/>
</g>
</svg>
