<?xml version="1.0" encoding="utf-8"?>
<!-- Generator: Adobe Illustrator 25.2.1, SVG Export Plug-In . SVG Version: 6.00 Build 0)  -->
<svg version="1.1" id="Layer_1" xmlns="http://www.w3.org/2000/svg" xmlns:xlink="http://www.w3.org/1999/xlink" x="0px" y="0px"
	 viewBox="0 0 48 48" style="enable-background:new 0 0 48 48;" xml:space="preserve">
<style type="text/css">
	.st0{fill:#0098FF;}
</style>
<g>
	<path d="M43.8,15.6c-1.1-2.6-2.6-4.9-4.6-6.8c-2-2-4.3-3.5-6.8-4.6c-2.6-1.1-5.5-1.7-8.4-1.7s-5.7,0.6-8.4,1.7
		c-2.6,1.1-4.9,2.6-6.8,4.6c-2,2-3.5,4.3-4.6,6.8c-1.1,2.6-1.7,5.5-1.7,8.4c0,1.9,0.2,3.7,0.7,5.5c0.5,1.7,1.1,3.4,2,5
		C5.6,35.1,6.4,35.4,7,35c0.6-0.3,0.8-1.1,0.5-1.7c-0.8-1.4-1.4-2.9-1.8-4.4C5.2,27.3,5,25.7,5,24c0-2.6,0.5-5,1.5-7.4
		c1-2.3,2.3-4.3,4.1-6c1.7-1.7,3.8-3.1,6-4.1C19,5.5,21.4,5,24,5s5,0.5,7.4,1.5c2.3,1,4.3,2.3,6,4.1c1.7,1.7,3.1,3.8,4.1,6
		c1,2.3,1.5,4.8,1.5,7.4c0,2.6-0.5,5-1.5,7.4c-1,2.3-2.3,4.3-4.1,6c-1.7,1.7-3.8,3.1-6,4.1C29,42.5,26.6,43,24,43
		c-1.7,0-3.3-0.2-4.9-0.6c-1.5-0.4-3-1-4.4-1.8c-0.6-0.3-1.4-0.1-1.7,0.5c-0.3,0.6-0.1,1.4,0.5,1.7c1.6,0.9,3.3,1.6,5,2
		c1.8,0.5,3.7,0.7,5.5,0.7c2.9,0,5.7-0.6,8.4-1.7c2.6-1.1,4.9-2.6,6.8-4.6c2-2,3.5-4.3,4.6-6.8c1.1-2.6,1.7-5.5,1.7-8.4
		S44.9,18.3,43.8,15.6z"/>
	<path class="st0" d="M19.5,34.7c1.4,0.6,3,0.9,4.5,0.9s3.1-0.3,4.5-0.9c1.4-0.6,2.6-1.4,3.7-2.5c1.1-1.1,1.9-2.3,2.5-3.7
		c0.6-1.4,0.9-3,0.9-4.5c0-1.6-0.3-3.1-0.9-4.5c-0.6-1.4-1.4-2.6-2.5-3.7c-1.1-1.1-2.3-1.9-3.7-2.5c-1.4-0.6-3-0.9-4.5-0.9
		s-3.1,0.3-4.5,0.9c-1.4,0.6-2.6,1.4-3.7,2.5s-1.9,2.3-2.5,3.7c-0.6,1.4-0.9,3-0.9,4.5c0,1.6,0.3,3.1,0.9,4.5
		c0.3,0.7,0.7,1.4,1.1,2.1l-7.7,7.7c-0.8,0.8-0.8,2.1,0,3c0.4,0.4,0.9,0.6,1.5,0.6s1.1-0.2,1.5-0.6l7.7-7.7
		C18.1,34,18.7,34.4,19.5,34.7z M17.8,17.8c1.7-1.7,3.9-2.6,6.2-2.6s4.6,0.9,6.2,2.6c1.7,1.7,2.6,3.9,2.6,6.2c0,2.4-0.9,4.6-2.6,6.2
		c-1.7,1.7-3.9,2.6-6.2,2.6s-4.6-0.9-6.2-2.6c-1.7-1.7-2.6-3.9-2.6-6.2C15.2,21.6,16.1,19.4,17.8,17.8z"/>
	<path class="st0" d="M18.8,24c0-0.7,0.1-1.4,0.4-2c0.3-0.6,0.6-1.2,1.1-1.6c0.5-0.5,1-0.8,1.6-1.1c0.3-0.1,0.6-0.2,1-0.3
		c0.6-0.1,1-0.7,0.9-1.3c-0.1-0.6-0.7-1-1.3-0.9c-0.5,0.1-1,0.2-1.4,0.4c-0.9,0.4-1.7,0.9-2.3,1.6c-0.7,0.7-1.2,1.5-1.6,2.3
		C16.7,22,16.5,23,16.5,24c0,0.6,0.5,1.1,1.1,1.1S18.8,24.6,18.8,24z"/>
</g>
</svg>
