<?xml version="1.0" encoding="utf-8"?>
<!-- Generator: Adobe Illustrator 25.2.1, SVG Export Plug-In . SVG Version: 6.00 Build 0)  -->
<svg version="1.1" id="Layer_1" xmlns="http://www.w3.org/2000/svg" xmlns:xlink="http://www.w3.org/1999/xlink" x="0px" y="0px"
	 viewBox="0 0 48 48" style="enable-background:new 0 0 48 48;" xml:space="preserve">
<style type="text/css">
	.st0{fill:url(#SVGID_1_);}
	.st1{fill:url(#SVGID_2_);}
	.st2{fill:url(#SVGID_3_);}
	.st3{opacity:0.6;}
	.st4{filter:url(#Adobe_OpacityMaskFilter);}
	.st5{filter:url(#Adobe_OpacityMaskFilter_1_);}
	.st6{mask:url(#SVGID_4_);fill:url(#SVGID_5_);}
	.st7{fill:url(#SVGID_6_);}
	.st8{filter:url(#Adobe_OpacityMaskFilter_2_);}
	.st9{filter:url(#Adobe_OpacityMaskFilter_3_);}
	.st10{mask:url(#SVGID_7_);fill:url(#SVGID_8_);}
	.st11{fill:url(#SVGID_9_);}
	.st12{filter:url(#Adobe_OpacityMaskFilter_4_);}
	.st13{filter:url(#Adobe_OpacityMaskFilter_5_);}
	.st14{mask:url(#SVGID_10_);fill:url(#SVGID_11_);}
	.st15{fill:url(#SVGID_12_);}
	.st16{opacity:0.4;fill:url(#SVGID_13_);}
	.st17{opacity:0.4;fill:url(#SVGID_14_);}
	.st18{opacity:0.4;fill:url(#SVGID_15_);}
	.st19{fill:url(#SVGID_16_);}
	.st20{fill:url(#SVGID_17_);}
	.st21{filter:url(#Adobe_OpacityMaskFilter_6_);}
	.st22{filter:url(#Adobe_OpacityMaskFilter_7_);}
	.st23{mask:url(#SVGID_18_);fill:url(#SVGID_19_);}
	.st24{fill:url(#SVGID_20_);}
	.st25{filter:url(#Adobe_OpacityMaskFilter_8_);}
	.st26{filter:url(#Adobe_OpacityMaskFilter_9_);}
	.st27{mask:url(#SVGID_21_);fill:url(#SVGID_22_);}
	.st28{fill:url(#SVGID_23_);}
	.st29{opacity:0.5;}
	.st30{opacity:0.4;fill:url(#SVGID_24_);}
	.st31{filter:url(#Adobe_OpacityMaskFilter_10_);}
	.st32{filter:url(#Adobe_OpacityMaskFilter_11_);}
	.st33{mask:url(#SVGID_25_);fill:url(#SVGID_26_);}
	.st34{opacity:0.3;fill:url(#SVGID_27_);}
</style>
<g>
	<g>
		<radialGradient id="SVGID_1_" cx="23.2425" cy="0.2559" r="23.9725" gradientUnits="userSpaceOnUse">
			<stop  offset="0" style="stop-color:#00B6FF"/>
			<stop  offset="0.4667" style="stop-color:#0084FF"/>
			<stop  offset="1" style="stop-color:#0054B3"/>
		</radialGradient>
		<path class="st0" d="M23.3,8.4V10c1.9,0,3.7,0.7,5.2,2.1c1.4,1.4,2.1,3.2,2.1,5.1h1.6c0-2.2-0.9-4.5-2.6-6.2
			C27.8,9.2,25.5,8.3,23.3,8.4z"/>
		<radialGradient id="SVGID_2_" cx="23.2425" cy="0.256" r="23.9727" gradientUnits="userSpaceOnUse">
			<stop  offset="0" style="stop-color:#00B6FF"/>
			<stop  offset="0.4667" style="stop-color:#0084FF"/>
			<stop  offset="1" style="stop-color:#0054B3"/>
		</radialGradient>
		<path class="st1" d="M23.3,4.3v1.6c2.9,0,5.8,1.1,8,3.3c2.2,2.2,3.3,5,3.3,7.9l1.6,0c0-3.3-1.3-6.5-3.8-9
			C29.9,5.6,26.6,4.3,23.3,4.3z"/>
		<radialGradient id="SVGID_3_" cx="23.2425" cy="0.2563" r="23.972" gradientUnits="userSpaceOnUse">
			<stop  offset="0" style="stop-color:#00B6FF"/>
			<stop  offset="0.4667" style="stop-color:#0084FF"/>
			<stop  offset="1" style="stop-color:#0054B3"/>
		</radialGradient>
		<path class="st2" d="M35.2,5.3c-3.3-3.3-7.6-4.9-12-4.9v1.6c3.9,0,7.8,1.5,10.8,4.5c3,3,4.4,6.8,4.5,10.7h1.6
			C40.2,12.8,38.5,8.5,35.2,5.3z"/>
		<g class="st3">
			<defs>
				<filter id="Adobe_OpacityMaskFilter" filterUnits="userSpaceOnUse" x="23.3" y="8.4" width="7.8" height="6">
					<feFlood  style="flood-color:white;flood-opacity:1" result="back"/>
					<feBlend  in="SourceGraphic" in2="back" mode="normal"/>
				</filter>
			</defs>
			<mask maskUnits="userSpaceOnUse" x="23.3" y="8.4" width="7.8" height="6" id="SVGID_4_">
				<g class="st4">
					<defs>
						<filter id="Adobe_OpacityMaskFilter_1_" filterUnits="userSpaceOnUse" x="23.3" y="8.4" width="7.8" height="6">
							<feFlood  style="flood-color:white;flood-opacity:1" result="back"/>
							<feBlend  in="SourceGraphic" in2="back" mode="normal"/>
						</filter>
					</defs>
					<mask maskUnits="userSpaceOnUse" x="23.3" y="8.4" width="7.8" height="6" id="SVGID_4_">
						<g class="st5">
						</g>
					</mask>
					<linearGradient id="SVGID_5_" gradientUnits="userSpaceOnUse" x1="23.7989" y1="7.8247" x2="30.1133" y2="14.1391">
						<stop  offset="0" style="stop-color:#999999"/>
						<stop  offset="1" style="stop-color:#333333"/>
					</linearGradient>
					<path class="st6" d="M23.3,8.4V10c1.9,0,3.7,0.7,5.2,2.1c0.7,0.7,1.2,1.4,1.5,2.2c0.4-0.4,0.8-0.9,1.1-1.4
						c-0.4-0.7-0.9-1.4-1.5-2C27.8,9.2,25.5,8.3,23.3,8.4z"/>
				</g>
			</mask>
			<linearGradient id="SVGID_6_" gradientUnits="userSpaceOnUse" x1="23.7989" y1="7.8247" x2="30.1133" y2="14.1391">
				<stop  offset="0" style="stop-color:#FFFFFF"/>
				<stop  offset="1" style="stop-color:#FFFFFF"/>
			</linearGradient>
			<path class="st7" d="M23.3,8.4V10c1.9,0,3.7,0.7,5.2,2.1c0.7,0.7,1.2,1.4,1.5,2.2c0.4-0.4,0.8-0.9,1.1-1.4
				c-0.4-0.7-0.9-1.4-1.5-2C27.8,9.2,25.5,8.3,23.3,8.4z"/>
		</g>
		<g class="st3">
			<defs>
				<filter id="Adobe_OpacityMaskFilter_2_" filterUnits="userSpaceOnUse" x="23.3" y="4.3" width="9.6" height="6.1">
					<feFlood  style="flood-color:white;flood-opacity:1" result="back"/>
					<feBlend  in="SourceGraphic" in2="back" mode="normal"/>
				</filter>
			</defs>
			<mask maskUnits="userSpaceOnUse" x="23.3" y="4.3" width="9.6" height="6.1" id="SVGID_7_">
				<g class="st8">
					<defs>
						<filter id="Adobe_OpacityMaskFilter_3_" filterUnits="userSpaceOnUse" x="23.3" y="4.3" width="9.6" height="6.1">
							<feFlood  style="flood-color:white;flood-opacity:1" result="back"/>
							<feBlend  in="SourceGraphic" in2="back" mode="normal"/>
						</filter>
					</defs>
					<mask maskUnits="userSpaceOnUse" x="23.3" y="4.3" width="9.6" height="6.1" id="SVGID_7_">
						<g class="st9">
						</g>
					</mask>
					<linearGradient id="SVGID_8_" gradientUnits="userSpaceOnUse" x1="24.2156" y1="3.3955" x2="31.7804" y2="10.9603">
						<stop  offset="0" style="stop-color:#999999"/>
						<stop  offset="1" style="stop-color:#333333"/>
					</linearGradient>
					<path class="st10" d="M23.3,4.3v1.6c2.9,0,5.8,1.1,8,3.3c0.4,0.4,0.7,0.8,1,1.2c0.2-0.6,0.4-1.2,0.5-1.9
						c-0.1-0.2-0.3-0.3-0.4-0.5C29.9,5.6,26.6,4.3,23.3,4.3z"/>
				</g>
			</mask>
			<linearGradient id="SVGID_9_" gradientUnits="userSpaceOnUse" x1="24.2156" y1="3.3955" x2="31.7804" y2="10.9603">
				<stop  offset="0" style="stop-color:#FFFFFF"/>
				<stop  offset="1" style="stop-color:#FFFFFF"/>
			</linearGradient>
			<path class="st11" d="M23.3,4.3v1.6c2.9,0,5.8,1.1,8,3.3c0.4,0.4,0.7,0.8,1,1.2c0.2-0.6,0.4-1.2,0.5-1.9
				c-0.1-0.2-0.3-0.3-0.4-0.5C29.9,5.6,26.6,4.3,23.3,4.3z"/>
		</g>
		<g class="st3">
			<defs>
				<filter id="Adobe_OpacityMaskFilter_4_" filterUnits="userSpaceOnUse" x="23.3" y="0.3" width="9.9" height="5.2">
					<feFlood  style="flood-color:white;flood-opacity:1" result="back"/>
					<feBlend  in="SourceGraphic" in2="back" mode="normal"/>
				</filter>
			</defs>
			<mask maskUnits="userSpaceOnUse" x="23.3" y="0.3" width="9.9" height="5.2" id="SVGID_10_">
				<g class="st12">
					<defs>
						<filter id="Adobe_OpacityMaskFilter_5_" filterUnits="userSpaceOnUse" x="23.3" y="0.3" width="9.9" height="5.2">
							<feFlood  style="flood-color:white;flood-opacity:1" result="back"/>
							<feBlend  in="SourceGraphic" in2="back" mode="normal"/>
						</filter>
					</defs>
					<mask maskUnits="userSpaceOnUse" x="23.3" y="0.3" width="9.9" height="5.2" id="SVGID_10_">
						<g class="st13">
						</g>
					</mask>
					<linearGradient id="SVGID_11_" gradientUnits="userSpaceOnUse" x1="24.5367" y1="-0.9377" x2="32.058" y2="6.5836">
						<stop  offset="0" style="stop-color:#999999"/>
						<stop  offset="1" style="stop-color:#333333"/>
					</linearGradient>
					<path class="st14" d="M23.3,0.3v1.6c3.5,0,7,1.2,9.9,3.6c0-0.7-0.1-1.5-0.2-2.2C30.1,1.3,26.7,0.3,23.3,0.3z"/>
				</g>
			</mask>
			<linearGradient id="SVGID_12_" gradientUnits="userSpaceOnUse" x1="24.5367" y1="-0.9377" x2="32.058" y2="6.5836">
				<stop  offset="0" style="stop-color:#FFFFFF"/>
				<stop  offset="1" style="stop-color:#FFFFFF"/>
			</linearGradient>
			<path class="st15" d="M23.3,0.3v1.6c3.5,0,7,1.2,9.9,3.6c0-0.7-0.1-1.5-0.2-2.2C30.1,1.3,26.7,0.3,23.3,0.3z"/>
		</g>
		<linearGradient id="SVGID_13_" gradientUnits="userSpaceOnUse" x1="27.8062" y1="20.5901" x2="27.8062" y2="4.0855">
			<stop  offset="0" style="stop-color:#000000"/>
			<stop  offset="9.504858e-02" style="stop-color:#060606"/>
			<stop  offset="0.2196" style="stop-color:#161616"/>
			<stop  offset="0.3605" style="stop-color:#313131"/>
			<stop  offset="0.5134" style="stop-color:#575757"/>
			<stop  offset="0.6761" style="stop-color:#888888"/>
			<stop  offset="0.8443" style="stop-color:#C2C2C2"/>
			<stop  offset="1" style="stop-color:#FFFFFF"/>
		</linearGradient>
		<path class="st16" d="M31.2,16.6c-0.2,0-0.3-0.1-0.4-0.3c-0.1-1.8-0.9-3.4-2.2-4.7c-1.3-1.3-2.9-2-4.7-2.2c-0.2,0-0.3-0.2-0.3-0.4
			V8.8c0-0.1,0-0.2,0.1-0.3c0.1-0.1,0.2-0.1,0.3-0.1c2.1,0.1,4,1,5.5,2.5c1.4,1.4,2.3,3.3,2.5,5.4c0,0.1,0,0.2-0.1,0.3
			c-0.1,0.1-0.2,0.1-0.3,0.1H31.2z"/>
		<linearGradient id="SVGID_14_" gradientUnits="userSpaceOnUse" x1="29.8499" y1="18.5137" x2="29.8499" y2="2.1213">
			<stop  offset="0" style="stop-color:#000000"/>
			<stop  offset="9.504858e-02" style="stop-color:#060606"/>
			<stop  offset="0.2196" style="stop-color:#161616"/>
			<stop  offset="0.3605" style="stop-color:#313131"/>
			<stop  offset="0.5134" style="stop-color:#575757"/>
			<stop  offset="0.6761" style="stop-color:#888888"/>
			<stop  offset="0.8443" style="stop-color:#C2C2C2"/>
			<stop  offset="1" style="stop-color:#FFFFFF"/>
		</linearGradient>
		<path class="st17" d="M35.3,16.6c-0.2,0-0.4-0.2-0.4-0.4c-0.2-2.8-1.3-5.5-3.3-7.5c-2-2-4.7-3.2-7.6-3.3c-0.2,0-0.3-0.2-0.3-0.4
			V4.7c0-0.1,0-0.2,0.1-0.3c0.1-0.1,0.2-0.1,0.3-0.1c3.1,0.1,6.1,1.4,8.3,3.7c2.2,2.2,3.5,5.1,3.7,8.2c0,0.1,0,0.2-0.1,0.3
			c-0.1,0.1-0.2,0.1-0.3,0.1H35.3z"/>
		<linearGradient id="SVGID_15_" gradientUnits="userSpaceOnUse" x1="31.9853" y1="16.7768" x2="31.9853" y2="0.4431">
			<stop  offset="0" style="stop-color:#000000"/>
			<stop  offset="9.504858e-02" style="stop-color:#060606"/>
			<stop  offset="0.2196" style="stop-color:#161616"/>
			<stop  offset="0.3605" style="stop-color:#313131"/>
			<stop  offset="0.5134" style="stop-color:#575757"/>
			<stop  offset="0.6761" style="stop-color:#888888"/>
			<stop  offset="0.8443" style="stop-color:#C2C2C2"/>
			<stop  offset="1" style="stop-color:#FFFFFF"/>
		</linearGradient>
		<path class="st18" d="M39.5,16.7c-0.2,0-0.4-0.2-0.4-0.4c-0.2-3.9-1.8-7.5-4.5-10.3c-2.8-2.8-6.5-4.4-10.4-4.5
			c-0.2,0-0.4-0.2-0.4-0.4V0.8c0-0.1,0-0.2,0.1-0.3c0.1-0.1,0.2-0.1,0.3-0.1c4.2,0.1,8.2,1.9,11.2,4.8c3,3,4.7,6.9,4.8,11
			c0,0.1,0,0.2-0.1,0.3c-0.1,0.1-0.2,0.1-0.3,0.1H39.5z"/>
	</g>
	<g>
		<g>
			<radialGradient id="SVGID_16_" cx="13.6339" cy="28.2735" r="22.5432" gradientUnits="userSpaceOnUse">
				<stop  offset="0" style="stop-color:#00B6FF"/>
				<stop  offset="0.4667" style="stop-color:#0084FF"/>
				<stop  offset="1" style="stop-color:#0054B3"/>
			</radialGradient>
			<path class="st19" d="M22.1,34.7c-2.6,0-5.1-0.7-7.2-1.9l-1.7,14.8H24l-1.4-12.9C22.4,34.7,22.2,34.7,22.1,34.7z"/>
		</g>
		<g>
			<radialGradient id="SVGID_17_" cx="15.7073" cy="11.2755" r="38.6621" gradientUnits="userSpaceOnUse">
				<stop  offset="0" style="stop-color:#00B6FF"/>
				<stop  offset="0.4667" style="stop-color:#0084FF"/>
				<stop  offset="1" style="stop-color:#0054B3"/>
			</radialGradient>
			<path class="st20" d="M24.9,18.2c0.2,0,0.4,0.1,0.6,0c1.2-0.1,2.1-1.1,2-2.3c-0.1-1.2-1.1-2.1-2.3-2c-1.2,0.1-2.1,1.1-2,2.3
				c0,0.4,0.1,0.7,0.3,1l-1.4,2l-11.6-8.8c-1.6,2.4-2.5,5.2-2.5,8.3c0,8.3,6.7,15,15,15c4.6,0,8.7-2,11.4-5.3l-10.8-8.1L24.9,18.2z"
				/>
		</g>
	</g>
	<defs>
		<filter id="Adobe_OpacityMaskFilter_6_" filterUnits="userSpaceOnUse" x="9.1" y="12.2" width="11.8" height="18.2">
			<feFlood  style="flood-color:white;flood-opacity:1" result="back"/>
			<feBlend  in="SourceGraphic" in2="back" mode="normal"/>
		</filter>
	</defs>
	<mask maskUnits="userSpaceOnUse" x="9.1" y="12.2" width="11.8" height="18.2" id="SVGID_18_">
		<g class="st21">
			<defs>
				<filter id="Adobe_OpacityMaskFilter_7_" filterUnits="userSpaceOnUse" x="9.1" y="12.2" width="11.8" height="18.2">
					<feFlood  style="flood-color:white;flood-opacity:1" result="back"/>
					<feBlend  in="SourceGraphic" in2="back" mode="normal"/>
				</filter>
			</defs>
			<mask maskUnits="userSpaceOnUse" x="9.1" y="12.2" width="11.8" height="18.2" id="SVGID_18_">
				<g class="st22">
				</g>
			</mask>
			<linearGradient id="SVGID_19_" gradientUnits="userSpaceOnUse" x1="7.8728" y1="15.0793" x2="19.451" y2="26.6575">
				<stop  offset="0" style="stop-color:#666666"/>
				<stop  offset="0.1998" style="stop-color:#424242"/>
				<stop  offset="0.4039" style="stop-color:#252525"/>
				<stop  offset="0.6071" style="stop-color:#111111"/>
				<stop  offset="0.807" style="stop-color:#040404"/>
				<stop  offset="1" style="stop-color:#000000"/>
			</linearGradient>
			<path class="st23" d="M15.7,30.5c-4.1-2.5-6.6-6.9-6.6-11.7c0-2.3,0.6-4.5,1.6-6.5l10.1,7.7c-0.5,2.7-1.6,5.3-3.1,7.7
				C17.1,28.6,16.4,29.6,15.7,30.5z"/>
		</g>
	</mask>
	<linearGradient id="SVGID_20_" gradientUnits="userSpaceOnUse" x1="7.8728" y1="15.0793" x2="19.451" y2="26.6575">
		<stop  offset="0" style="stop-color:#FFFFFF"/>
		<stop  offset="0.1102" style="stop-color:#CBCBCB"/>
		<stop  offset="0.239" style="stop-color:#969696"/>
		<stop  offset="0.3696" style="stop-color:#686868"/>
		<stop  offset="0.4992" style="stop-color:#434343"/>
		<stop  offset="0.6276" style="stop-color:#252525"/>
		<stop  offset="0.7546" style="stop-color:#111111"/>
		<stop  offset="0.8795" style="stop-color:#040404"/>
		<stop  offset="1" style="stop-color:#000000"/>
	</linearGradient>
	<path class="st24" d="M15.7,30.5c-4.1-2.5-6.6-6.9-6.6-11.7c0-2.3,0.6-4.5,1.6-6.5l10.1,7.7c-0.5,2.7-1.6,5.3-3.1,7.7
		C17.1,28.6,16.4,29.6,15.7,30.5z"/>
	<defs>
		<filter id="Adobe_OpacityMaskFilter_8_" filterUnits="userSpaceOnUse" x="10.3" y="14.2" width="9.1" height="14.6">
			<feFlood  style="flood-color:white;flood-opacity:1" result="back"/>
			<feBlend  in="SourceGraphic" in2="back" mode="normal"/>
		</filter>
	</defs>
	<mask maskUnits="userSpaceOnUse" x="10.3" y="14.2" width="9.1" height="14.6" id="SVGID_21_">
		<g class="st25">
			<defs>
				<filter id="Adobe_OpacityMaskFilter_9_" filterUnits="userSpaceOnUse" x="10.3" y="14.2" width="9.1" height="14.6">
					<feFlood  style="flood-color:white;flood-opacity:1" result="back"/>
					<feBlend  in="SourceGraphic" in2="back" mode="normal"/>
				</filter>
			</defs>
			<mask maskUnits="userSpaceOnUse" x="10.3" y="14.2" width="9.1" height="14.6" id="SVGID_21_">
				<g class="st26">
				</g>
			</mask>
			<linearGradient id="SVGID_22_" gradientUnits="userSpaceOnUse" x1="9.0364" y1="16.3117" x2="18.4586" y2="25.7339">
				<stop  offset="0" style="stop-color:#666666"/>
				<stop  offset="0.1998" style="stop-color:#424242"/>
				<stop  offset="0.4039" style="stop-color:#252525"/>
				<stop  offset="0.6071" style="stop-color:#111111"/>
				<stop  offset="0.807" style="stop-color:#040404"/>
				<stop  offset="1" style="stop-color:#000000"/>
			</linearGradient>
			<path class="st27" d="M15.4,28.8c-3.2-2.3-5.1-6-5.1-10c0-1.6,0.3-3.1,0.9-4.6l8.3,6.3c-0.5,2.2-1.5,4.5-2.8,6.6
				C16.3,27.6,15.8,28.2,15.4,28.8z"/>
		</g>
	</mask>
	<linearGradient id="SVGID_23_" gradientUnits="userSpaceOnUse" x1="9.0364" y1="16.3117" x2="18.4586" y2="25.7339">
		<stop  offset="0" style="stop-color:#FFFFFF"/>
		<stop  offset="0.1102" style="stop-color:#CBCBCB"/>
		<stop  offset="0.239" style="stop-color:#969696"/>
		<stop  offset="0.3696" style="stop-color:#686868"/>
		<stop  offset="0.4992" style="stop-color:#434343"/>
		<stop  offset="0.6276" style="stop-color:#252525"/>
		<stop  offset="0.7546" style="stop-color:#111111"/>
		<stop  offset="0.8795" style="stop-color:#040404"/>
		<stop  offset="1" style="stop-color:#000000"/>
	</linearGradient>
	<path class="st28" d="M15.4,28.8c-3.2-2.3-5.1-6-5.1-10c0-1.6,0.3-3.1,0.9-4.6l8.3,6.3c-0.5,2.2-1.5,4.5-2.8,6.6
		C16.3,27.6,15.8,28.2,15.4,28.8z"/>
	<g class="st29">
		<linearGradient id="SVGID_24_" gradientUnits="userSpaceOnUse" x1="22.1204" y1="12.9054" x2="26.5099" y2="17.295">
			<stop  offset="0" style="stop-color:#FFFFFF"/>
			<stop  offset="0.1557" style="stop-color:#C2C2C2"/>
			<stop  offset="0.3239" style="stop-color:#888888"/>
			<stop  offset="0.4866" style="stop-color:#575757"/>
			<stop  offset="0.6395" style="stop-color:#313131"/>
			<stop  offset="0.7804" style="stop-color:#161616"/>
			<stop  offset="0.905" style="stop-color:#060606"/>
			<stop  offset="1" style="stop-color:#000000"/>
		</linearGradient>
		<path class="st30" d="M26.9,14.7C26.9,14.7,26.9,14.7,26.9,14.7c-0.4-0.5-1.1-0.8-1.8-0.8c-1.2,0.1-2.1,1.1-2,2.3
			c0,0.4,0.1,0.7,0.3,1l0,0.1c0.1,0,0.2,0,0.4,0C25.5,17.2,26.9,16.1,26.9,14.7z"/>
	</g>
	<g>
		<defs>
			<filter id="Adobe_OpacityMaskFilter_10_" filterUnits="userSpaceOnUse" x="23.8" y="14.3" width="2" height="1.7">
				<feFlood  style="flood-color:white;flood-opacity:1" result="back"/>
				<feBlend  in="SourceGraphic" in2="back" mode="normal"/>
			</filter>
		</defs>
		<mask maskUnits="userSpaceOnUse" x="23.8" y="14.3" width="2" height="1.7" id="SVGID_25_">
			<g class="st31">
				<defs>
					<filter id="Adobe_OpacityMaskFilter_11_" filterUnits="userSpaceOnUse" x="23.8" y="14.3" width="2" height="1.7">
						<feFlood  style="flood-color:white;flood-opacity:1" result="back"/>
						<feBlend  in="SourceGraphic" in2="back" mode="normal"/>
					</filter>
				</defs>
				<mask maskUnits="userSpaceOnUse" x="23.8" y="14.3" width="2" height="1.7" id="SVGID_25_">
					<g class="st32">
					</g>
				</mask>
				
					<linearGradient id="SVGID_26_" gradientUnits="userSpaceOnUse" x1="27.4765" y1="-67.0307" x2="27.8533" y2="-65.6972" gradientTransform="matrix(0.8727 -0.4882 0.4882 0.8727 32.9681 86.4815)">
					<stop  offset="0" style="stop-color:#FFFFFF"/>
					<stop  offset="9.187303e-02" style="stop-color:#F7F7F7"/>
					<stop  offset="0.2377" style="stop-color:#E0E0E0"/>
					<stop  offset="0.4193" style="stop-color:#BABABA"/>
					<stop  offset="0.6295" style="stop-color:#868686"/>
					<stop  offset="0.8609" style="stop-color:#454545"/>
					<stop  offset="1" style="stop-color:#1A1A1A"/>
				</linearGradient>
				<path class="st33" d="M25.7,14.6c0.2,0.4,0,0.9-0.5,1.2c-0.5,0.3-1.1,0.2-1.3-0.2c-0.2-0.4,0-0.9,0.5-1.2
					C24.9,14.2,25.5,14.3,25.7,14.6z"/>
			</g>
		</mask>
		
			<linearGradient id="SVGID_27_" gradientUnits="userSpaceOnUse" x1="27.4765" y1="-67.0307" x2="27.8533" y2="-65.6972" gradientTransform="matrix(0.8727 -0.4882 0.4882 0.8727 32.9681 86.4815)">
			<stop  offset="0" style="stop-color:#FFFFFF"/>
			<stop  offset="8.517178e-02" style="stop-color:#F7F7F7"/>
			<stop  offset="0.2204" style="stop-color:#E0E0E0"/>
			<stop  offset="0.3887" style="stop-color:#BABABA"/>
			<stop  offset="0.5836" style="stop-color:#868686"/>
			<stop  offset="0.798" style="stop-color:#444444"/>
			<stop  offset="1" style="stop-color:#000000"/>
		</linearGradient>
		<path class="st34" d="M25.7,14.6c0.2,0.4,0,0.9-0.5,1.2c-0.5,0.3-1.1,0.2-1.3-0.2c-0.2-0.4,0-0.9,0.5-1.2
			C24.9,14.2,25.5,14.3,25.7,14.6z"/>
	</g>
</g>
</svg>
