<?xml version="1.0" encoding="utf-8"?>
<!-- Generator: Adobe Illustrator 25.2.1, SVG Export Plug-In . SVG Version: 6.00 Build 0)  -->
<svg version="1.1" id="Layer_1" xmlns="http://www.w3.org/2000/svg" xmlns:xlink="http://www.w3.org/1999/xlink" x="0px" y="0px"
	 viewBox="0 0 48 48" style="enable-background:new 0 0 48 48;" xml:space="preserve">
<style type="text/css">
	.st0{fill:#DFE6FF;}
	.st1{fill-rule:evenodd;clip-rule:evenodd;fill:#00AEEF;}
	.st2{fill-rule:evenodd;clip-rule:evenodd;fill:#62CBEC;}
	.st3{fill-rule:evenodd;clip-rule:evenodd;fill:#FFFFFF;}
	.st4{fill:#2C7EFE;}
	.st5{fill-rule:evenodd;clip-rule:evenodd;fill:#2C7EFE;}
	.st6{fill:#FFFFFF;}
	.st7{fill-rule:evenodd;clip-rule:evenodd;fill:#BE96F8;}
	.st8{fill-rule:evenodd;clip-rule:evenodd;fill:#DFCFFD;}
	.st9{fill-rule:evenodd;clip-rule:evenodd;fill:#0643A3;}
	.st10{fill-rule:evenodd;clip-rule:evenodd;fill:#FF9966;}
	.st11{fill-rule:evenodd;clip-rule:evenodd;fill:#EA718B;}
	.st12{fill-rule:evenodd;clip-rule:evenodd;fill:#FFAB81;}
	.st13{fill-rule:evenodd;clip-rule:evenodd;fill:#060352;}
	.st14{fill-rule:evenodd;clip-rule:evenodd;fill:#84B2FE;}
	.st15{fill-rule:evenodd;clip-rule:evenodd;fill:#DFE6FF;}
	.st16{fill-rule:evenodd;clip-rule:evenodd;fill:#8183F1;}
	.st17{fill-rule:evenodd;clip-rule:evenodd;fill:#F9CE0D;}
	.st18{fill-rule:evenodd;clip-rule:evenodd;fill:#F19D21;}
	.st19{fill-rule:evenodd;clip-rule:evenodd;fill:#FAEC16;}
	.st20{fill-rule:evenodd;clip-rule:evenodd;fill:#EC8123;}
	.st21{fill-rule:evenodd;clip-rule:evenodd;fill:url(#XMLID_5_);}
	.st22{fill-rule:evenodd;clip-rule:evenodd;fill:url(#XMLID_6_);}
	.st23{fill-rule:evenodd;clip-rule:evenodd;fill:#153663;}
	.st24{fill:#153663;}
</style>
<g>
	<g>
		<ellipse class="st0" cx="24" cy="43.5" rx="24.2" ry="1.3"/>
		<g>
			<path id="XMLID_7217_" class="st1" d="M6.5,2L6.5,2c1.9,0,3.4,1.5,3.4,3.4v2.2H3V5.4C3,3.5,4.6,2,6.5,2L6.5,2z"/>
			<path id="XMLID_7216_" class="st2" d="M12.9,2h8.7h13.2c1.6,0,3,1.3,3,3v35c0,1.6-1.4,3-3,3H12.9c-1.5,0-2.8-1.1-3-2.6v-35
				c0-1.6-1.1-2.9-2.5-3.3C7.2,2,7,2,6.8,2H12.9z"/>
			<path id="XMLID_7215_" class="st3" d="M14.4,19.1H36c0,0,0.1,0,0.1,0.1v0.4c0,0,0,0.1-0.1,0.1H14.4c0,0-0.1,0-0.1-0.1L14.4,19.1
				C14.4,19.1,14.4,19.1,14.4,19.1L14.4,19.1z"/>
			<path id="XMLID_7214_" class="st3" d="M12.5,20.2H36c0,0,0.1,0,0.1,0.1v0.4c0,0,0,0.1-0.1,0.1H12.5c0,0-0.1,0-0.1-0.1L12.5,20.2
				C12.5,20.3,12.5,20.2,12.5,20.2L12.5,20.2z"/>
			<path id="XMLID_7213_" class="st3" d="M12.5,21.4H36c0,0,0.1,0,0.1,0.1v0.4c0,0,0,0.1-0.1,0.1H12.5c0,0-0.1,0-0.1-0.1L12.5,21.4
				C12.5,21.4,12.5,21.4,12.5,21.4L12.5,21.4z"/>
			<path id="XMLID_7212_" class="st3" d="M12.5,22.5H36c0,0,0.1,0,0.1,0.1V23c0,0,0,0.1-0.1,0.1H12.5c0,0-0.1,0-0.1-0.1L12.5,22.5
				C12.5,22.5,12.5,22.5,12.5,22.5L12.5,22.5z"/>
			<path id="XMLID_7211_" class="st3" d="M12.5,23.6H36c0,0,0.1,0,0.1,0.1v0.4c0,0,0,0.1-0.1,0.1H12.5c0,0-0.1,0-0.1-0.1L12.5,23.6
				C12.5,23.6,12.5,23.6,12.5,23.6L12.5,23.6z"/>
			<path id="XMLID_7210_" class="st3" d="M12.5,24.7H36c0,0,0.1,0,0.1,0.1v0.4c0,0,0,0.1-0.1,0.1H12.5c0,0-0.1,0-0.1-0.1L12.5,24.7
				C12.5,24.8,12.5,24.7,12.5,24.7L12.5,24.7z"/>
			<path id="XMLID_7209_" class="st3" d="M12.5,25.9H36c0,0,0.1,0,0.1,0.1v0.4c0,0,0,0.1-0.1,0.1H12.5c0,0-0.1,0-0.1-0.1L12.5,25.9
				C12.5,25.9,12.5,25.9,12.5,25.9L12.5,25.9z"/>
			<path id="XMLID_7208_" class="st3" d="M14.4,27H36c0,0,0.1,0,0.1,0.1v0.4c0,0,0,0.1-0.1,0.1H14.4c0,0-0.1,0-0.1-0.1L14.4,27
				C14.4,27,14.4,27,14.4,27L14.4,27z"/>
			<path id="XMLID_7207_" class="st3" d="M12.5,28.1H36c0,0,0.1,0,0.1,0.1v0.4c0,0,0,0.1-0.1,0.1H12.5c0,0-0.1,0-0.1-0.1L12.5,28.1
				C12.5,28.2,12.5,28.1,12.5,28.1L12.5,28.1z"/>
			<path id="XMLID_7206_" class="st3" d="M12.5,29.2H36c0,0,0.1,0,0.1,0.1v0.4c0,0,0,0.1-0.1,0.1H12.5c0,0-0.1,0-0.1-0.1L12.5,29.2
				C12.5,29.3,12.5,29.2,12.5,29.2L12.5,29.2z"/>
			<path id="XMLID_7205_" class="st3" d="M12.5,30.4H36c0,0,0.1,0,0.1,0.1v0.4c0,0,0,0.1-0.1,0.1H12.5c0,0-0.1,0-0.1-0.1L12.5,30.4
				C12.5,30.4,12.5,30.4,12.5,30.4L12.5,30.4z"/>
			<path id="XMLID_7204_" class="st3" d="M14.4,31.5H36c0,0,0.1,0,0.1,0.1V32c0,0,0,0.1-0.1,0.1H14.4c0,0-0.1,0-0.1-0.1L14.4,31.5
				C14.4,31.6,14.4,31.5,14.4,31.5L14.4,31.5z"/>
			<path id="XMLID_3_" class="st3" d="M12.5,32.6H36c0,0,0.1,0,0.1,0.1v0.4c0,0,0,0.1-0.1,0.1H12.5c0,0-0.1,0-0.1-0.1L12.5,32.6
				C12.5,32.7,12.5,32.6,12.5,32.6L12.5,32.6z"/>
			<path id="XMLID_2_" class="st3" d="M12.5,33.8H36c0,0,0.1,0,0.1,0.1v0.4c0,0,0,0.1-0.1,0.1H12.5c0,0-0.1,0-0.1-0.1L12.5,33.8
				C12.5,33.8,12.5,33.8,12.5,33.8L12.5,33.8z"/>
			<path id="XMLID_1_" class="st3" d="M12.5,34.9H36c0,0,0.1,0,0.1,0.1v0.4c0,0,0,0.1-0.1,0.1H12.5c0,0-0.1,0-0.1-0.1L12.5,34.9
				C12.5,34.9,12.5,34.9,12.5,34.9L12.5,34.9z"/>
			<path id="XMLID_7203_" class="st3" d="M21.7,10H36c0,0,0.1,0,0.1,0.1v0.4c0,0,0,0.1-0.1,0.1H21.7c0,0-0.1,0-0.1-0.1L21.7,10
				C21.6,10.1,21.6,10,21.7,10L21.7,10z"/>
			<path id="XMLID_7202_" class="st3" d="M21.7,11.1H36c0,0,0.1,0,0.1,0.1v0.4c0,0,0,0.1-0.1,0.1H21.7c0,0-0.1,0-0.1-0.1L21.7,11.1
				C21.6,11.1,21.6,11.1,21.7,11.1L21.7,11.1z"/>
			<path id="XMLID_7201_" class="st3" d="M21.7,12.1H36c0,0,0.1,0,0.1,0.1v0.4c0,0,0,0.1-0.1,0.1H21.7c0,0-0.1,0-0.1-0.1L21.7,12.1
				C21.6,12.1,21.6,12.1,21.7,12.1L21.7,12.1z"/>
			<path id="XMLID_7200_" class="st3" d="M21.7,13.1H36c0,0,0.1,0,0.1,0.1v0.4c0,0,0,0.1-0.1,0.1H21.7c0,0-0.1,0-0.1-0.1L21.7,13.1
				C21.6,13.2,21.6,13.1,21.7,13.1L21.7,13.1z"/>
			<path id="XMLID_7199_" class="st3" d="M21.7,14.1H36c0,0,0.1,0,0.1,0.1v0.4c0,0,0,0.1-0.1,0.1H21.7c0,0-0.1,0-0.1-0.1L21.7,14.1
				C21.6,14.1,21.6,14.1,21.7,14.1L21.7,14.1z"/>
			<path id="XMLID_7198_" class="st3" d="M21.7,15.1H36c0,0,0.1,0,0.1,0.1v0.4c0,0,0,0.1-0.1,0.1H21.7c0,0-0.1,0-0.1-0.1L21.7,15.1
				C21.6,15.2,21.6,15.1,21.7,15.1L21.7,15.1z"/>
			<path id="XMLID_7197_" class="st3" d="M21.7,16.2H36c0,0,0.1,0,0.1,0.1v0.4c0,0,0,0.1-0.1,0.1H21.7c0,0-0.1,0-0.1-0.1L21.7,16.2
				C21.6,16.2,21.6,16.2,21.7,16.2L21.7,16.2z"/>
			<path id="XMLID_7196_" class="st3" d="M13,10h7c0.2,0,0.5,0.2,0.5,0.5v5.8c0,0.2-0.2,0.5-0.5,0.5h-7c-0.2,0-0.5-0.2-0.5-0.5v-5.8
				C12.6,10.2,12.8,10,13,10L13,10z"/>
			<path id="XMLID_7164_" class="st1" d="M44.7,37.5c-0.1,3-2.6,5.5-5.7,5.5H14c3.1,0,5.6-2.4,5.7-5.5h24.7
				C44.5,37.5,44.6,37.5,44.7,37.5L44.7,37.5z"/>
			<g>
				<g>
					<polygon class="st4" points="11.7,16.9 11.4,16.7 12.8,15 16.5,14.9 17.8,12.1 20.7,10.1 20.9,10.3 18.1,12.3 16.7,15.2 
						12.9,15.3 					"/>
				</g>
				<g>
					<path class="st5" d="M11.3,16.4c0.3,0,0.6,0.3,0.6,0.6c0,0.3-0.2,0.6-0.6,0.6c-0.3,0-0.6-0.3-0.6-0.6
						C10.7,16.7,11,16.4,11.3,16.4L11.3,16.4z"/>
					<path class="st4" d="M11.4,17.6C11.3,17.6,11.3,17.6,11.4,17.6c-0.4,0-0.6-0.3-0.6-0.6c0-0.2,0.1-0.3,0.2-0.4
						c0.1-0.1,0.3-0.2,0.4-0.2l0,0c0.2,0,0.3,0.1,0.4,0.2c0.1,0.1,0.2,0.3,0.2,0.4c0,0.2-0.1,0.3-0.2,0.4
						C11.6,17.5,11.5,17.6,11.4,17.6z M11.3,16.4c-0.1,0-0.3,0.1-0.4,0.2c-0.1,0.1-0.2,0.3-0.2,0.4c0,0.3,0.3,0.6,0.6,0.6
						c0.2,0,0.3-0.1,0.4-0.2c0.1-0.1,0.2-0.3,0.2-0.4c0-0.2-0.1-0.3-0.2-0.4C11.6,16.5,11.5,16.4,11.3,16.4L11.3,16.4
						C11.3,16.4,11.3,16.4,11.3,16.4z"/>
				</g>
				<g>
					<path class="st3" d="M11.3,16.7c0.2,0,0.3,0.1,0.3,0.3c0,0.2-0.1,0.3-0.3,0.3c-0.2,0-0.3-0.1-0.3-0.3
						C11,16.8,11.1,16.7,11.3,16.7L11.3,16.7z"/>
					<path class="st6" d="M11.3,17.3C11.3,17.3,11.3,17.3,11.3,17.3c-0.2,0-0.3-0.1-0.3-0.3c0-0.2,0.1-0.3,0.3-0.3l0,0
						c0.1,0,0.2,0,0.2,0.1c0.1,0.1,0.1,0.1,0.1,0.2c0,0.1,0,0.2-0.1,0.2C11.5,17.3,11.4,17.3,11.3,17.3z M11.3,16.7
						c-0.2,0-0.3,0.1-0.3,0.3c0,0.2,0.1,0.3,0.3,0.3c0.1,0,0.2,0,0.2-0.1c0.1-0.1,0.1-0.1,0.1-0.2c0-0.1,0-0.2-0.1-0.2
						C11.5,16.7,11.4,16.7,11.3,16.7C11.3,16.7,11.3,16.7,11.3,16.7z"/>
				</g>
				<g>
					<path class="st5" d="M12.9,14.6c0.3,0,0.6,0.3,0.6,0.6c0,0.3-0.3,0.6-0.6,0.6c-0.3,0-0.6-0.3-0.6-0.6
						C12.3,14.9,12.6,14.6,12.9,14.6L12.9,14.6z"/>
					<path class="st4" d="M12.9,15.7C12.9,15.7,12.9,15.7,12.9,15.7c-0.2,0-0.3-0.1-0.4-0.2c-0.1-0.1-0.2-0.3-0.2-0.4
						c0-0.3,0.2-0.6,0.5-0.6c0,0,0,0,0,0c0.2,0,0.3,0.1,0.4,0.2c0.1,0.1,0.2,0.3,0.2,0.4c0,0.2-0.1,0.3-0.2,0.4
						C13.2,15.7,13.1,15.7,12.9,15.7z M12.8,14.6c-0.3,0-0.5,0.3-0.5,0.6c0,0.2,0.1,0.3,0.2,0.4c0.1,0.1,0.3,0.2,0.4,0.2
						c0.2,0,0.3-0.1,0.4-0.2c0.1-0.1,0.2-0.3,0.2-0.4c0-0.2-0.1-0.3-0.2-0.4C13.2,14.7,13,14.6,12.8,14.6
						C12.9,14.6,12.8,14.6,12.8,14.6z"/>
				</g>
				<g>
					<path class="st3" d="M12.9,14.9c0.2,0,0.3,0.1,0.3,0.3c0,0.2-0.1,0.3-0.3,0.3c-0.2,0-0.3-0.1-0.3-0.3
						C12.6,15,12.7,14.9,12.9,14.9L12.9,14.9z"/>
					<path class="st6" d="M12.9,15.5C12.9,15.5,12.9,15.5,12.9,15.5c-0.2,0-0.3-0.1-0.3-0.3c0-0.2,0.1-0.3,0.3-0.3h0
						c0.1,0,0.2,0,0.2,0.1c0.1,0.1,0.1,0.1,0.1,0.2c0,0.1,0,0.2-0.1,0.2C13,15.4,13,15.5,12.9,15.5z M12.9,14.9
						c-0.2,0-0.3,0.1-0.3,0.3c0,0.2,0.1,0.3,0.3,0.3c0.1,0,0.2,0,0.2-0.1c0.1-0.1,0.1-0.1,0.1-0.2c0-0.1,0-0.2-0.1-0.2
						C13,14.9,12.9,14.9,12.9,14.9C12.9,14.9,12.9,14.9,12.9,14.9z"/>
				</g>
				<g>
					<path class="st5" d="M16.6,14.5c0.3,0,0.6,0.3,0.6,0.6c0,0.3-0.3,0.6-0.6,0.6c-0.3,0-0.6-0.3-0.6-0.6
						C16,14.8,16.3,14.5,16.6,14.5L16.6,14.5z"/>
					<path class="st4" d="M16.7,15.6C16.7,15.6,16.6,15.6,16.7,15.6c-0.2,0-0.3-0.1-0.4-0.2c-0.1-0.1-0.2-0.3-0.2-0.4
						c0-0.2,0.1-0.3,0.2-0.4c0.1-0.1,0.3-0.2,0.4-0.2h0c0.3,0,0.6,0.3,0.6,0.6C17.2,15.4,17,15.6,16.7,15.6z M16.6,14.5
						c-0.1,0-0.3,0.1-0.4,0.2c-0.1,0.1-0.2,0.3-0.2,0.4c0,0.2,0.1,0.3,0.2,0.4c0.1,0.1,0.3,0.2,0.4,0.2c0.3,0,0.6-0.3,0.6-0.6
						C17.2,14.7,16.9,14.5,16.6,14.5C16.6,14.5,16.6,14.5,16.6,14.5z"/>
				</g>
				<g>
					<path class="st3" d="M16.6,14.8c0.2,0,0.3,0.1,0.3,0.3c0,0.2-0.1,0.3-0.3,0.3c-0.2,0-0.3-0.1-0.3-0.3
						C16.3,14.9,16.5,14.8,16.6,14.8L16.6,14.8z"/>
					<path class="st6" d="M16.6,15.4C16.6,15.4,16.6,15.4,16.6,15.4c-0.1,0-0.2,0-0.2-0.1c-0.1-0.1-0.1-0.1-0.1-0.2
						c0-0.2,0.1-0.3,0.3-0.3l0,0c0.2,0,0.3,0.1,0.3,0.3c0,0.1,0,0.2-0.1,0.2C16.8,15.3,16.7,15.4,16.6,15.4z M16.6,14.8
						c-0.2,0-0.3,0.1-0.3,0.3c0,0.1,0,0.2,0.1,0.2c0.1,0.1,0.1,0.1,0.2,0.1c0.1,0,0.2,0,0.2-0.1c0.1-0.1,0.1-0.1,0.1-0.2
						C16.9,14.9,16.8,14.8,16.6,14.8C16.6,14.8,16.6,14.8,16.6,14.8z"/>
				</g>
				<g>
					<path class="st5" d="M18,11.6c0.3,0,0.6,0.3,0.6,0.6c0,0.3-0.3,0.6-0.6,0.6c-0.3,0-0.6-0.3-0.6-0.6
						C17.4,11.9,17.7,11.6,18,11.6L18,11.6z"/>
					<path class="st4" d="M18,12.8C18,12.8,18,12.8,18,12.8c-0.2,0-0.3-0.1-0.4-0.2c-0.1-0.1-0.2-0.3-0.2-0.4c0-0.2,0.1-0.3,0.2-0.4
						c0.1-0.1,0.3-0.2,0.4-0.2l0,0c0.3,0,0.6,0.3,0.6,0.6C18.6,12.5,18.3,12.7,18,12.8z M18,11.6c-0.1,0-0.3,0.1-0.4,0.2
						c-0.1,0.1-0.2,0.3-0.2,0.4c0,0.2,0.1,0.3,0.2,0.4c0.1,0.1,0.3,0.2,0.4,0.2c0.3,0,0.6-0.3,0.6-0.6C18.6,11.9,18.3,11.6,18,11.6
						C18,11.6,18,11.6,18,11.6z"/>
				</g>
				<g>
					<path class="st3" d="M18,11.9c0.2,0,0.3,0.1,0.3,0.3c0,0.2-0.1,0.3-0.3,0.3c-0.2,0-0.3-0.1-0.3-0.3C17.7,12,17.8,11.9,18,11.9
						L18,11.9z"/>
					<path class="st6" d="M18,12.5C18,12.5,18,12.5,18,12.5c-0.1,0-0.2,0-0.2-0.1c-0.1-0.1-0.1-0.1-0.1-0.2c0-0.2,0.1-0.3,0.3-0.3
						l0,0c0.2,0,0.3,0.1,0.3,0.3c0,0.1,0,0.2-0.1,0.2C18.2,12.4,18.1,12.5,18,12.5z M18,11.9c-0.2,0-0.3,0.1-0.3,0.3
						c0,0.1,0,0.2,0.1,0.2c0.1,0.1,0.1,0.1,0.2,0.1c0.1,0,0.2,0,0.2-0.1c0.1-0.1,0.1-0.1,0.1-0.2C18.3,12,18.2,11.9,18,11.9
						C18,11.9,18,11.9,18,11.9z"/>
				</g>
				<g>
					<polygon class="st5" points="21.5,9.7 21.1,10.3 20.8,10.8 20.5,10.4 20.2,9.9 20.9,9.8 					"/>
					<path class="st4" d="M20.8,10.8l-0.6-0.9l0.6-0.1l0.7-0.1l-0.4,0.5L20.8,10.8z M20.2,9.9l0.5,0.9l0.4-0.5l0.4-0.5l-0.6,0.1
						L20.2,9.9z"/>
				</g>
			</g>
		</g>
		<g>
			<g>
				<rect id="XMLID_1615_" x="5.4" y="34.3" class="st7" width="0.5" height="9.3"/>
				<rect id="XMLID_1614_" x="11" y="34.3" class="st7" width="0.5" height="9.3"/>
				<rect id="XMLID_1613_" x="14.4" y="34.2" class="st7" width="0.5" height="9.3"/>
				<path id="XMLID_1612_" class="st7" d="M3.9,26.1c0.9,0,1.7,0,2.6,0c0.9,0,1.7,0,2.6,0c0.2,0,0.4,0.2,0.4,0.4
					c0.2,1.6,0.4,3.2,0.6,4.7c0.2,1.5,0.4,3.1,0.6,4.5c-1,0-1.9,0-2.9,0c-1,0-1.9,0-2.9,0c-0.2-1.5-0.5-3-0.7-4.6
					c-0.2-1.6-0.5-3.1-0.7-4.8C3.6,26.3,3.7,26.1,3.9,26.1L3.9,26.1z"/>
				<path id="XMLID_1611_" class="st8" d="M4.4,26.1c0.9,0,1.7,0,2.6,0c0.9,0,1.7,0,2.6,0c0.2,0,0.4,0.2,0.4,0.4
					c0.2,1.6,0.4,3.2,0.6,4.7c0.2,1.5,0.4,3.1,0.6,4.5c-1,0-1.9,0-2.9,0c-1,0-1.9,0-2.9,0c-0.2-1.5-0.5-3-0.7-4.6
					c-0.2-1.6-0.5-3.1-0.7-4.8C4,26.3,4.2,26.1,4.4,26.1L4.4,26.1z"/>
				<path id="XMLID_1610_" class="st7" d="M5.2,34.5h3.6H11h3.6l0.2,1.3c-1,0-1.9,0-2.9,0l-1.9,0l-1,0l0,0l-0.8,0l-1.9,0l-1,0
					L5.2,34.5z"/>
			</g>
			<g>
				<path id="XMLID_1609_" class="st9" d="M16,41.2l0.7,0.7c1,0.3,3.5,0.1,3.1,0.8c-1.4,0.2-2.8,0.5-4.1,0.7c-0.2-0.3-0.2-0.8,0-1.3
					L16,41.2z"/>
				<path id="XMLID_1608_" class="st10" d="M16.5,39.8L15.1,40l0.6,2.2c0.2,0.1,0.8,0.1,1-0.2L16.5,39.8z"/>
				<path id="XMLID_1607_" class="st10" d="M10.7,25.4l0.7-1.4l1.9,0.5c0.8-1.2,1.7-2.5,2.5-3.7c0.1-0.3,0.1-0.9,0.3-1
					c0.4-0.2,1.3-0.9,1.3-0.6c0,0.1-0.6,0.5-0.7,0.8c0.1,0.3,0.7,0.5,0.4,0.8l-0.7,0.5c-0.9,1.5-2,4.6-2.6,4.6
					C13.3,25.9,11.7,25.6,10.7,25.4L10.7,25.4z"/>
				<path id="XMLID_1606_" class="st11" d="M8.3,23.1l1.2,0.1c1,0.2,2.4,0.9,2.8,1c0.3,0.6,0,1.1-0.3,1.5c-0.4,0-1.2-0.1-1.7-0.2
					l0.2,6.6L6.7,32l0.2-5.6l0-0.6c0.3-2.3-0.8-2.1,0.4-2.4C7.6,23.2,7.7,23.2,8.3,23.1L8.3,23.1z"/>
				<path id="XMLID_1605_" class="st10" d="M8,21.6L9.3,22c0,0.4,0,0.9,0,1.3c-0.3,1.1-1.1,0.2-1.2,0L8,21.6z"/>
				<path id="XMLID_1604_" class="st12" d="M10.1,19.4c0.4,0.3,0.1,0.9,0.5,1.3c0.9,0.8-0.1,0.5-0.1,0.8c0,0.7-0.1,0.8-0.6,1.4
					c-0.2,0.3-1.4,0.6-2.1-0.7c-0.2-0.3-0.1-0.5-0.2-1.1c0-1.3,0-1.5,1.3-2.1C9.9,18.6,10.5,19.1,10.1,19.4L10.1,19.4z"/>
				<path id="XMLID_1603_" class="st3" d="M9.2,22c0.3,0.1,0.5,0.3,0.9,0.2C9.6,22.7,9.3,22.3,9.2,22L9.2,22z"/>
				<path id="XMLID_1602_" class="st5" d="M12.9,41.7l0.6,0.8c1,0.4,3.5,0.6,3,1.3c-1.4,0-2.8,0-4.2,0c-0.1-0.3-0.1-0.9,0.2-1.3
					L12.9,41.7z"/>
				<path id="XMLID_1601_" class="st10" d="M13.6,40.4l-1.4-0.1l0.2,2.2c0.2,0.1,0.7,0.3,1.1,0L13.6,40.4z"/>
				<path id="XMLID_1600_" class="st9" d="M12.3,34.5l-1.9-2.4c1.7,0.2,4.7,0.3,5.2,0.7c0.9,0.7,0.9,6.6,1.2,8.6l-1.6,0.1l-0.8-6.9
					H12.3z"/>
				<path id="XMLID_1599_" class="st5" d="M6.9,31.8c1.2,0,2.3,0.1,3.5,0.1c1.1,0.3,2.7,0.5,3,1.1c0.5,1.2,0.3,6.8,0.3,8.6l-1.5,0
					l-0.6-7.1H7.4C6.7,34.5,6.3,32.7,6.9,31.8L6.9,31.8z"/>
				<path id="XMLID_1598_" class="st10" d="M7.3,31.7L7.6,32c0.2,0.2,0.8,0.5,0.7,0.7c-0.1,0.1-0.4-0.2-0.6-0.1
					c-0.3,0.3,0.4,1.2,0.2,1.4c-0.4,0.3-1,0.2-1.2-0.2c-0.1-0.2,0.1-1,0.1-1.7L7.3,31.7z"/>
				<polygon id="XMLID_1597_" class="st10" points="7.5,25.9 6,25.9 6,28.3 6.9,32.4 7.7,32.3 7.2,28.4 				"/>
				<path id="XMLID_1596_" class="st11" d="M7.3,23.9c-0.2-0.1-0.2-0.4-0.4-0.4c-0.7,0.2-0.9,2.3-0.9,2.8c0.3,0.2,1.1,0.4,1.7,0.1
					L7.3,23.9z"/>
				<path id="XMLID_1595_" class="st13" d="M8.3,20c0.7-0.4,1.5,0,2-0.4c0.2-0.3,0.4-1.3-0.1-1.8c-0.6-0.4-1.8,0.8-3,1.2
					c-0.4,0.1-0.5,0.3-0.5,0.8c0,0.8,0.7,1.6,1.1,2C8.3,21.1,7.5,20.5,8.3,20L8.3,20z"/>
			</g>
			<g>
				<path id="XMLID_1594_" class="st14" d="M10.2,24.8c1,0,2.1,0,3.1,0c1,0,2.1,0,3.1,0c0.1,0,0.1,0.1,0.1,0.1
					c-0.1,0.9-0.3,1.7-0.4,2.5c-0.1,0.8-0.3,1.7-0.4,2.5c0,0.1-0.1,0.1-0.2,0.1c-1,0-2.1,0-3.1,0s-2.1,0-3.1,0
					c-0.1,0-0.1-0.1-0.1-0.1c0.1-0.8,0.3-1.7,0.4-2.5c0.1-0.8,0.3-1.7,0.4-2.6C10.1,24.8,10.1,24.8,10.2,24.8L10.2,24.8z"/>
				<path id="XMLID_1593_" class="st15" d="M10.5,24.8c1,0,2.1,0,3.1,0c1,0,2.1,0,3.1,0c0.1,0,0.1,0.1,0.1,0.1
					c-0.1,0.9-0.3,1.7-0.4,2.5c-0.1,0.8-0.3,1.7-0.4,2.5c0,0.1-0.1,0.1-0.2,0.1c-1,0-2.1,0-3.1,0c-1,0-2.1,0-3.1,0
					c-0.1,0-0.1-0.1-0.1-0.1c0.1-0.8,0.3-1.7,0.4-2.5c0.1-0.8,0.3-1.7,0.4-2.6C10.3,24.8,10.4,24.8,10.5,24.8L10.5,24.8z"/>
				<path id="XMLID_1592_" class="st3" d="M13.1,27.1C13.1,27.1,13.1,27.1,13.1,27.1C13.1,27.1,13.1,27.2,13.1,27.1
					c0.1,0.3,0.3,0.4,0.5,0.3c0,0,0,0,0.1,0c0,0.2-0.1,0.4-0.4,0.5c-0.3,0.1-0.5-0.1-0.5-0.3C12.7,27.4,12.8,27.2,13.1,27.1
					L13.1,27.1z"/>
			</g>
			<g>
				<g>
					<rect id="XMLID_1591_" x="20.6" y="31" class="st7" width="0.9" height="12.8"/>
					<rect id="XMLID_1590_" x="1.5" y="31" class="st7" width="0.9" height="12.8"/>
				</g>
				<rect id="XMLID_1589_" x="0.1" y="30.7" class="st16" width="22.8" height="1.4"/>
				<polygon id="XMLID_1588_" class="st7" points="-0.3,30 2.3,30 20.8,30 23.3,30 22.9,31 20.8,31 2.3,31 0.1,31 				"/>
			</g>
		</g>
		<g id="XMLID_2217_">
			<g id="XMLID_2176_">
				<path id="XMLID_2215_" class="st17" d="M43.5,26.2C43.5,26.2,43.5,26.3,43.5,26.2c0,0.5-1.9,1-4.2,1c-2.3,0-4.2-0.4-4.2-0.9
					c0,0,0,0,0,0v-1.1c2.3,0,2,0.6,4.2,0.6s2-0.5,4.2-0.6V26.2z"/>
				<path id="XMLID_2214_" class="st18" d="M43.5,26.2C43.5,26.2,43.5,26.3,43.5,26.2c0,0.5-1.4,0.9-3.3,0.9v-1.5
					c1.4-0.1,1.5-0.5,3.3-0.5V26.2z"/>
				<path id="XMLID_2213_" class="st19" d="M39.3,26.1c2.3,0,4.2-0.4,4.2-0.9c0-0.5-1.9-0.9-4.2-0.9c-2.3,0-4.2,0.4-4.2,0.9
					C35.1,25.7,37,26.1,39.3,26.1L39.3,26.1z"/>
				<path id="XMLID_2212_" class="st17" d="M39.3,25.9c2.2,0,3.9-0.3,3.9-0.7c0-0.4-1.8-0.7-3.9-0.7c-2.2,0-3.9,0.3-3.9,0.7
					C35.4,25.6,37.1,25.9,39.3,25.9L39.3,25.9z"/>
				<path id="XMLID_2211_" class="st19" d="M39.3,25.7c2,0,3.7-0.3,3.7-0.6c0-0.3-1.6-0.6-3.7-0.6c-2,0-3.7,0.3-3.7,0.6
					C35.6,25.5,37.3,25.7,39.3,25.7L39.3,25.7z"/>
				<path id="XMLID_2210_" class="st20" d="M40.7,25.3c0,0,0,0.1-0.1,0.1c-0.1,0-0.2,0.1-0.3,0.1c-0.1,0-0.3,0-0.5,0
					c-0.1,0-0.2,0-0.2,0v0c0,0,0,0-0.1,0h-0.3c0,0-0.1,0-0.1,0v0c-0.1,0-0.2,0-0.3,0c-0.1,0-0.2,0-0.3,0c-0.1,0-0.2,0-0.3,0
					c-0.1,0-0.1,0-0.2,0c0,0-0.1,0-0.1,0c0,0,0,0,0,0c0,0,0,0,0,0c0,0,0,0,0,0c0,0,0,0,0,0c0,0,0,0,0.1,0c0,0,0.1,0,0.1,0
					c0.1,0,0.1,0,0.2,0c0.1,0,0.2,0,0.3,0c0.1,0,0.3,0,0.4,0c0.1,0,0.2,0,0.3,0c0.1,0,0.2,0,0.3,0c0.1,0,0.1,0,0.2,0
					c0,0,0.1,0,0.1-0.1c0,0,0,0-0.1-0.1c-0.1,0-0.1,0-0.2,0c-0.1,0-0.2,0-0.3,0c-0.1,0-0.2,0-0.4,0c-0.1,0-0.2,0-0.4,0
					c-0.1,0-0.2,0-0.3,0c-0.1,0-0.2,0-0.2-0.1C38,25,38,25,38,25c0,0,0-0.1,0.1-0.1c0.1,0,0.2,0,0.3-0.1c0.1,0,0.3,0,0.5,0
					c0.1,0,0.2,0,0.2,0v0c0,0,0,0,0.1,0h0.3c0,0,0.1,0,0.1,0v0c0.1,0,0.1,0,0.2,0c0.1,0,0.2,0,0.3,0c0.1,0,0.2,0,0.2,0
					c0.1,0,0.1,0,0.1,0c0,0,0.1,0,0.1,0c0,0,0,0,0,0c0,0,0,0,0,0c0,0,0,0,0,0c0,0,0,0,0,0c0,0,0,0,0,0c0,0,0,0,0,0c0,0,0,0,0,0
					c0,0-0.1,0-0.1,0c-0.1,0-0.1,0-0.2,0c-0.1,0-0.2,0-0.3,0c-0.1,0-0.2,0-0.4,0c-0.1,0-0.2,0-0.3,0c-0.1,0-0.2,0-0.2,0
					c-0.1,0-0.1,0-0.1,0c0,0,0,0,0,0c0,0,0,0,0.1,0.1c0.1,0,0.1,0,0.2,0c0.1,0,0.2,0,0.3,0c0.1,0,0.2,0,0.4,0c0.1,0,0.3,0,0.4,0
					c0.1,0,0.2,0,0.3,0C40.5,25.2,40.6,25.2,40.7,25.3C40.7,25.3,40.7,25.3,40.7,25.3L40.7,25.3z"/>
				<path id="XMLID_2209_" class="st17" d="M44.3,24.8C44.3,24.8,44.3,24.8,44.3,24.8c0,0.5-1.9,1-4.2,1c-2.3,0-4.2-0.4-4.2-0.9
					c0,0,0,0,0,0v-1.1c2.3,0,2,0.6,4.2,0.6c2.3,0,2-0.5,4.2-0.6V24.8z"/>
				<path id="XMLID_2208_" class="st18" d="M44.3,24.8C44.3,24.8,44.3,24.8,44.3,24.8c0,0.5-1.4,0.9-3.3,0.9v-1.5
					c1.4-0.1,1.5-0.5,3.3-0.5V24.8z"/>
				<path id="XMLID_2207_" class="st19" d="M40.1,24.6c2.3,0,4.2-0.4,4.2-0.9c0-0.5-1.9-0.9-4.2-0.9s-4.2,0.4-4.2,0.9
					C35.9,24.2,37.7,24.6,40.1,24.6L40.1,24.6z"/>
				<path id="XMLID_2206_" class="st17" d="M40.1,24.5c2.2,0,3.9-0.3,3.9-0.7c0-0.4-1.8-0.7-3.9-0.7c-2.2,0-3.9,0.3-3.9,0.7
					C36.1,24.1,37.9,24.5,40.1,24.5L40.1,24.5z"/>
				<path id="XMLID_2205_" class="st19" d="M40.1,24.3c2,0,3.7-0.3,3.7-0.6c0-0.3-1.7-0.6-3.7-0.6c-2,0-3.7,0.3-3.7,0.6
					C36.4,24,38,24.3,40.1,24.3L40.1,24.3z"/>
				<path id="XMLID_2204_" class="st20" d="M41.5,23.9c0,0,0,0.1-0.1,0.1C41.3,24,41.2,24,41,24c-0.1,0-0.3,0-0.5,0
					c-0.1,0-0.1,0-0.2,0v0c0,0,0,0-0.1,0h-0.3c0,0-0.1,0-0.1,0v0c-0.1,0-0.2,0-0.3,0c-0.1,0-0.2,0-0.3,0c-0.1,0-0.2,0-0.3,0
					c-0.1,0-0.1,0-0.2,0c0,0-0.1,0-0.1,0c0,0,0,0,0,0c0,0,0,0,0,0c0,0,0,0,0,0c0,0,0,0,0,0c0,0,0,0,0.1,0c0,0,0.1,0,0.1,0
					c0.1,0,0.1,0,0.2,0c0.1,0,0.2,0,0.3,0c0.1,0,0.3,0,0.4,0c0.1,0,0.2,0,0.3,0c0.1,0,0.2,0,0.3,0c0.1,0,0.1,0,0.2,0
					c0,0,0.1,0,0.1-0.1c0,0,0,0-0.1-0.1c-0.1,0-0.1,0-0.2,0c-0.1,0-0.2,0-0.3,0c-0.1,0-0.2,0-0.4,0c-0.1,0-0.2,0-0.4,0
					c-0.1,0-0.2,0-0.3,0c-0.1,0-0.2,0-0.2-0.1c-0.1,0-0.1-0.1-0.1-0.1c0,0,0-0.1,0.1-0.1c0.1,0,0.2,0,0.3-0.1c0.1,0,0.3,0,0.5,0
					c0.1,0,0.2,0,0.2,0v0c0,0,0,0,0.1,0h0.3c0,0,0.1,0,0.1,0v0c0.1,0,0.1,0,0.2,0c0.1,0,0.2,0,0.3,0c0.1,0,0.2,0,0.2,0
					c0.1,0,0.1,0,0.1,0c0,0,0.1,0,0.1,0c0,0,0,0,0,0c0,0,0,0,0,0c0,0,0,0,0,0c0,0,0,0,0,0c0,0,0,0,0,0c0,0,0,0,0,0c0,0,0,0,0,0
					c0,0-0.1,0-0.1,0c-0.1,0-0.1,0-0.2,0c-0.1,0-0.2,0-0.3,0c-0.1,0-0.2,0-0.4,0c-0.1,0-0.2,0-0.3,0c-0.1,0-0.2,0-0.2,0
					c-0.1,0-0.1,0-0.1,0c0,0,0,0,0,0c0,0,0,0,0.1,0.1c0.1,0,0.1,0,0.2,0c0.1,0,0.2,0,0.3,0c0.1,0,0.2,0,0.4,0c0.1,0,0.2,0,0.4,0
					c0.1,0,0.2,0,0.3,0C41.3,23.8,41.3,23.8,41.5,23.9C41.4,23.8,41.5,23.8,41.5,23.9L41.5,23.9z"/>
				<path id="XMLID_2203_" class="st17" d="M43.5,23.2C43.5,23.2,43.5,23.2,43.5,23.2c0,0.5-1.9,1-4.2,1c-2.3,0-4.2-0.4-4.2-0.9
					c0,0,0,0,0,0v-1.1c2.3,0,2,0.6,4.2,0.6c2.3,0,2-0.5,4.2-0.6V23.2z"/>
				<path id="XMLID_2202_" class="st18" d="M43.5,23.2C43.5,23.2,43.5,23.2,43.5,23.2c0,0.5-1.4,0.9-3.3,0.9v-1.5
					c1.4-0.1,1.5-0.5,3.3-0.5V23.2z"/>
				<path id="XMLID_2201_" class="st19" d="M39.3,23c2.3,0,4.2-0.4,4.2-0.9c0-0.5-1.9-0.9-4.2-0.9c-2.3,0-4.2,0.4-4.2,0.9
					C35.1,22.6,37,23,39.3,23L39.3,23z"/>
				<path id="XMLID_2200_" class="st17" d="M39.3,22.9c2.2,0,3.9-0.3,3.9-0.7c0-0.4-1.8-0.7-3.9-0.7c-2.2,0-3.9,0.3-3.9,0.7
					C35.4,22.5,37.2,22.9,39.3,22.9L39.3,22.9z"/>
				<path id="XMLID_2199_" class="st19" d="M39.3,22.7c2,0,3.7-0.3,3.7-0.6c0-0.3-1.7-0.6-3.7-0.6c-2,0-3.7,0.3-3.7,0.6
					C35.7,22.4,37.3,22.7,39.3,22.7L39.3,22.7z"/>
				<path id="XMLID_2198_" class="st20" d="M40.8,22.3c0,0,0,0.1-0.1,0.1c-0.1,0-0.2,0.1-0.3,0.1c-0.1,0-0.3,0-0.5,0
					c-0.1,0-0.1,0-0.2,0v0c0,0,0,0-0.1,0h-0.3c0,0-0.1,0-0.1,0v0c-0.1,0-0.2,0-0.3,0c-0.1,0-0.2,0-0.3,0c-0.1,0-0.2,0-0.3,0
					c-0.1,0-0.1,0-0.2,0c0,0-0.1,0-0.1,0c0,0,0,0,0,0c0,0,0,0,0,0c0,0,0,0,0,0c0,0,0,0,0,0c0,0,0,0,0.1,0c0,0,0.1,0,0.1,0
					c0.1,0,0.1,0,0.2,0c0.1,0,0.2,0,0.3,0c0.1,0,0.3,0,0.4,0c0.1,0,0.2,0,0.3,0c0.1,0,0.2,0,0.3,0c0.1,0,0.1,0,0.2,0
					c0,0,0.1,0,0.1-0.1c0,0,0,0-0.1-0.1c-0.1,0-0.1,0-0.2,0c-0.1,0-0.2,0-0.3,0c-0.1,0-0.2,0-0.4,0c-0.1,0-0.2,0-0.4,0
					c-0.1,0-0.2,0-0.3,0c-0.1,0-0.2,0-0.2-0.1C38,22,38,22,38,21.9c0,0,0-0.1,0.1-0.1c0.1,0,0.2,0,0.3-0.1c0.1,0,0.3,0,0.5,0
					c0.1,0,0.2,0,0.2,0v0c0,0,0,0,0.1,0h0.3c0,0,0.1,0,0.1,0v0c0.1,0,0.1,0,0.2,0c0.1,0,0.2,0,0.3,0c0.1,0,0.2,0,0.2,0
					c0.1,0,0.1,0,0.1,0c0,0,0.1,0,0.1,0c0,0,0,0,0,0c0,0,0,0,0,0c0,0,0,0,0,0c0,0,0,0,0,0c0,0,0,0,0,0c0,0,0,0,0,0c0,0,0,0,0,0
					c0,0-0.1,0-0.1,0c-0.1,0-0.1,0-0.2,0c-0.1,0-0.2,0-0.3,0c-0.1,0-0.2,0-0.4,0c-0.1,0-0.2,0-0.3,0c-0.1,0-0.2,0-0.2,0
					c-0.1,0-0.1,0-0.1,0c0,0,0,0,0,0c0,0,0,0,0.1,0.1c0.1,0,0.1,0,0.2,0c0.1,0,0.2,0,0.3,0c0.1,0,0.2,0,0.4,0c0.1,0,0.2,0,0.4,0
					c0.1,0,0.2,0,0.3,0C40.5,22.2,40.6,22.2,40.8,22.3C40.7,22.2,40.8,22.2,40.8,22.3L40.8,22.3z"/>
				<path id="XMLID_2197_" class="st17" d="M43.5,21.5C43.5,21.5,43.5,21.5,43.5,21.5c0,0.5-1.9,1-4.2,1c-2.3,0-4.2-0.4-4.2-0.9
					c0,0,0,0,0,0v-1.1c2.3,0,2,0.6,4.2,0.6c2.3,0,2-0.5,4.2-0.6V21.5z"/>
				<path id="XMLID_2196_" class="st18" d="M43.5,21.5C43.5,21.5,43.5,21.5,43.5,21.5c0,0.5-1.4,0.9-3.3,0.9V21
					c1.4-0.1,1.5-0.5,3.3-0.5V21.5z"/>
				<path id="XMLID_2195_" class="st19" d="M39.3,21.4c2.3,0,4.2-0.4,4.2-0.9c0-0.5-1.9-0.9-4.2-0.9c-2.3,0-4.2,0.4-4.2,0.9
					C35.1,20.9,36.9,21.4,39.3,21.4L39.3,21.4z"/>
				<path id="XMLID_2194_" class="st17" d="M39.3,21.2c2.2,0,3.9-0.3,3.9-0.7c0-0.4-1.8-0.7-3.9-0.7c-2.2,0-3.9,0.3-3.9,0.7
					C35.3,20.8,37.1,21.2,39.3,21.2L39.3,21.2z"/>
				<path id="XMLID_2193_" class="st19" d="M39.3,21c2,0,3.7-0.3,3.7-0.6c0-0.3-1.7-0.6-3.7-0.6c-2,0-3.7,0.3-3.7,0.6
					C35.6,20.8,37.2,21,39.3,21L39.3,21z"/>
				<path id="XMLID_2192_" class="st20" d="M40.7,20.6c0,0,0,0.1-0.1,0.1c-0.1,0-0.2,0.1-0.3,0.1c-0.1,0-0.3,0-0.5,0
					c-0.1,0-0.1,0-0.2,0v0c0,0,0,0-0.1,0h-0.3c0,0-0.1,0-0.1,0v0c-0.1,0-0.2,0-0.3,0c-0.1,0-0.2,0-0.3,0c-0.1,0-0.2,0-0.3,0
					c-0.1,0-0.1,0-0.2,0c0,0-0.1,0-0.1,0c0,0,0,0,0,0c0,0,0,0,0,0c0,0,0,0,0,0c0,0,0,0,0,0c0,0,0,0,0.1,0c0,0,0.1,0,0.1,0
					c0.1,0,0.1,0,0.2,0c0.1,0,0.2,0,0.3,0c0.1,0,0.3,0,0.4,0c0.1,0,0.2,0,0.3,0c0.1,0,0.2,0,0.3,0c0.1,0,0.1,0,0.2,0
					c0,0,0.1,0,0.1-0.1c0,0,0,0-0.1-0.1c-0.1,0-0.1,0-0.2,0c-0.1,0-0.2,0-0.3,0c-0.1,0-0.2,0-0.4,0c-0.1,0-0.2,0-0.4,0
					c-0.1,0-0.2,0-0.3,0c-0.1,0-0.2,0-0.2-0.1c-0.1,0-0.1-0.1-0.1-0.1c0,0,0-0.1,0.1-0.1c0.1,0,0.2,0,0.3-0.1c0.1,0,0.3,0,0.5,0
					c0.1,0,0.2,0,0.2,0v0c0,0,0,0,0.1,0h0.3c0,0,0.1,0,0.1,0v0c0.1,0,0.1,0,0.2,0c0.1,0,0.2,0,0.3,0c0.1,0,0.2,0,0.2,0
					c0.1,0,0.1,0,0.1,0c0,0,0.1,0,0.1,0c0,0,0,0,0,0c0,0,0,0,0,0c0,0,0,0,0,0c0,0,0,0,0,0c0,0,0,0,0,0c0,0,0,0,0,0c0,0,0,0,0,0
					c0,0-0.1,0-0.1,0c-0.1,0-0.1,0-0.2,0c-0.1,0-0.2,0-0.3,0c-0.1,0-0.2,0-0.4,0c-0.1,0-0.2,0-0.3,0c-0.1,0-0.2,0-0.2,0
					c-0.1,0-0.1,0-0.1,0c0,0,0,0,0,0c0,0,0,0,0.1,0.1c0.1,0,0.1,0,0.2,0c0.1,0,0.2,0,0.3,0c0.1,0,0.2,0,0.4,0c0.1,0,0.2,0,0.4,0
					c0.1,0,0.2,0,0.3,0C40.5,20.5,40.5,20.5,40.7,20.6C40.7,20.5,40.7,20.6,40.7,20.6L40.7,20.6z"/>
				<path id="XMLID_2191_" class="st17" d="M44.2,20.1C44.2,20.1,44.2,20.1,44.2,20.1c0,0.5-1.9,1-4.2,1c-2.3,0-4.2-0.4-4.2-0.9
					c0,0,0,0,0,0V19c2.3,0,2,0.6,4.2,0.6s2-0.5,4.2-0.6V20.1z"/>
				<path id="XMLID_2190_" class="st18" d="M44.2,20.1C44.2,20.1,44.2,20.1,44.2,20.1c0,0.5-1.4,0.9-3.3,0.9v-1.5
					c1.4-0.1,1.5-0.5,3.3-0.5V20.1z"/>
				<path id="XMLID_2189_" class="st19" d="M40,19.9c2.3,0,4.2-0.4,4.2-0.9c0-0.5-1.9-0.9-4.2-0.9c-2.3,0-4.2,0.4-4.2,0.9
					C35.8,19.5,37.7,19.9,40,19.9L40,19.9z"/>
				<path id="XMLID_2188_" class="st17" d="M40,19.7c2.2,0,3.9-0.3,3.9-0.7c0-0.4-1.8-0.7-3.9-0.7c-2.2,0-3.9,0.3-3.9,0.7
					C36.1,19.4,37.9,19.7,40,19.7L40,19.7z"/>
				<path id="XMLID_2187_" class="st19" d="M40,19.6c2,0,3.7-0.3,3.7-0.6c0-0.3-1.6-0.6-3.7-0.6c-2,0-3.7,0.3-3.7,0.6
					C36.4,19.3,38,19.6,40,19.6L40,19.6z"/>
				<path id="XMLID_2186_" class="st20" d="M41.5,19.2c0,0,0,0.1-0.1,0.1c-0.1,0-0.2,0.1-0.3,0.1c-0.1,0-0.3,0-0.5,0
					c-0.1,0-0.1,0-0.2,0v0c0,0,0,0-0.1,0h-0.3c0,0-0.1,0-0.1,0v0c-0.1,0-0.2,0-0.3,0c-0.1,0-0.2,0-0.3,0c-0.1,0-0.2,0-0.3,0
					c-0.1,0-0.1,0-0.2,0c0,0-0.1,0-0.1,0c0,0,0,0,0,0c0,0,0,0,0,0c0,0,0,0,0,0c0,0,0,0,0,0c0,0,0,0,0.1,0c0,0,0.1,0,0.1,0
					c0.1,0,0.1,0,0.2,0c0.1,0,0.2,0,0.3,0c0.1,0,0.3,0,0.4,0c0.1,0,0.2,0,0.3,0c0.1,0,0.2,0,0.3,0c0.1,0,0.1,0,0.2,0
					c0,0,0.1,0,0.1-0.1c0,0,0,0-0.1-0.1c-0.1,0-0.1,0-0.2,0c-0.1,0-0.2,0-0.3,0c-0.1,0-0.2,0-0.4,0c-0.1,0-0.2,0-0.4,0
					c-0.1,0-0.2,0-0.3,0c-0.1,0-0.2,0-0.2-0.1c-0.1,0-0.1-0.1-0.1-0.1c0,0,0-0.1,0.1-0.1c0.1,0,0.2,0,0.3-0.1c0.1,0,0.3,0,0.5,0
					c0.1,0,0.2,0,0.2,0v0c0,0,0,0,0.1,0h0.3c0,0,0.1,0,0.1,0v0c0.1,0,0.1,0,0.2,0c0.1,0,0.2,0,0.3,0c0.1,0,0.2,0,0.2,0
					c0.1,0,0.1,0,0.1,0c0,0,0.1,0,0.1,0c0,0,0,0,0,0c0,0,0,0,0,0c0,0,0,0,0,0c0,0,0,0,0,0c0,0,0,0,0,0c0,0,0,0,0,0c0,0,0,0,0,0
					c0,0-0.1,0-0.1,0c-0.1,0-0.1,0-0.2,0c-0.1,0-0.2,0-0.3,0c-0.1,0-0.2,0-0.4,0c-0.1,0-0.2,0-0.3,0c-0.1,0-0.2,0-0.2,0
					c-0.1,0-0.1,0-0.1,0c0,0,0,0,0,0c0,0,0,0,0.1,0.1c0.1,0,0.1,0,0.2,0c0.1,0,0.2,0,0.3,0c0.1,0,0.2,0,0.4,0c0.1,0,0.3,0,0.4,0
					c0.1,0,0.2,0,0.3,0C41.2,19,41.3,19.1,41.5,19.2C41.4,19.1,41.5,19.1,41.5,19.2L41.5,19.2z"/>
				<path id="XMLID_2185_" class="st17" d="M43.5,18.5C43.5,18.5,43.5,18.5,43.5,18.5c0,0.5-1.9,1-4.2,1s-4.2-0.4-4.2-0.9
					c0,0,0,0,0,0v-1.1c2.3,0,2,0.6,4.2,0.6c2.3,0,2-0.5,4.2-0.6V18.5z"/>
				<path id="XMLID_2184_" class="st18" d="M43.5,18.5C43.5,18.5,43.5,18.5,43.5,18.5c0,0.5-1.4,0.9-3.3,0.9V18
					c1.4-0.1,1.5-0.5,3.3-0.5V18.5z"/>
				<path id="XMLID_2183_" class="st19" d="M39.3,18.3c2.3,0,4.2-0.4,4.2-0.9c0-0.5-1.9-0.9-4.2-0.9c-2.3,0-4.2,0.4-4.2,0.9
					C35.1,17.9,37,18.3,39.3,18.3L39.3,18.3z"/>
				<path id="XMLID_2182_" class="st17" d="M39.3,18.1c2.2,0,3.9-0.3,3.9-0.7c0-0.4-1.8-0.7-3.9-0.7s-3.9,0.3-3.9,0.7
					C35.4,17.8,37.2,18.1,39.3,18.1L39.3,18.1z"/>
				<path id="XMLID_2181_" class="st19" d="M39.3,18c2,0,3.7-0.3,3.7-0.6c0-0.3-1.6-0.6-3.7-0.6c-2,0-3.7,0.3-3.7,0.6
					C35.6,17.7,37.3,18,39.3,18L39.3,18z"/>
				<path id="XMLID_2180_" class="st20" d="M40.7,17.6c0,0,0,0.1-0.1,0.1c-0.1,0-0.2,0.1-0.3,0.1c-0.1,0-0.3,0-0.5,0
					c-0.1,0-0.1,0-0.2,0v0c0,0,0,0-0.1,0h-0.3c0,0-0.1,0-0.1,0v0c-0.1,0-0.2,0-0.3,0c-0.1,0-0.2,0-0.3,0c-0.1,0-0.2,0-0.3,0
					c-0.1,0-0.1,0-0.2,0c0,0-0.1,0-0.1,0c0,0,0,0,0,0c0,0,0,0,0,0c0,0,0,0,0,0c0,0,0,0,0,0c0,0,0,0,0.1,0c0,0,0.1,0,0.1,0
					c0.1,0,0.1,0,0.2,0c0.1,0,0.2,0,0.3,0c0.1,0,0.3,0,0.4,0c0.1,0,0.2,0,0.3,0c0.1,0,0.2,0,0.3,0c0.1,0,0.1,0,0.2,0
					c0,0,0.1,0,0.1-0.1c0,0,0,0-0.1-0.1c-0.1,0-0.1,0-0.2,0c-0.1,0-0.2,0-0.3,0c-0.1,0-0.2,0-0.4,0c-0.1,0-0.2,0-0.4,0
					c-0.1,0-0.2,0-0.3,0c-0.1,0-0.2,0-0.2-0.1c-0.1,0-0.1-0.1-0.1-0.1c0,0,0-0.1,0.1-0.1c0.1,0,0.2,0,0.3-0.1c0.1,0,0.3,0,0.5,0
					c0.1,0,0.2,0,0.2,0v0c0,0,0,0,0.1,0h0.3c0,0,0.1,0,0.1,0v0c0.1,0,0.1,0,0.2,0c0.1,0,0.2,0,0.3,0c0.1,0,0.2,0,0.2,0
					c0.1,0,0.1,0,0.1,0c0,0,0.1,0,0.1,0c0,0,0,0,0,0c0,0,0,0,0,0c0,0,0,0,0,0c0,0,0,0,0,0c0,0,0,0,0,0c0,0,0,0,0,0c0,0,0,0,0,0
					c0,0-0.1,0-0.1,0c-0.1,0-0.1,0-0.2,0c-0.1,0-0.2,0-0.3,0c-0.1,0-0.2,0-0.4,0c-0.1,0-0.2,0-0.3,0c-0.1,0-0.2,0-0.2,0
					c-0.1,0-0.1,0-0.1,0c0,0,0,0,0,0c0,0,0,0,0.1,0.1c0.1,0,0.1,0,0.2,0c0.1,0,0.2,0,0.3,0c0.1,0,0.2,0,0.4,0c0.1,0,0.2,0,0.4,0
					c0.1,0,0.2,0,0.3,0C40.5,17.4,40.6,17.5,40.7,17.6C40.7,17.5,40.7,17.5,40.7,17.6L40.7,17.6z"/>
				<polygon id="XMLID_2179_" class="st3" points="41.7,20.5 41.7,21.4 42.6,21.5 41.7,21.5 41.7,22.4 41.6,21.5 40.7,21.5 
					41.6,21.4 				"/>
				<polygon id="XMLID_2178_" class="st3" points="37.9,24.4 38,25.3 38.9,25.3 38,25.4 37.9,26.3 37.9,25.4 36.9,25.3 37.9,25.3 
									"/>
				<polygon id="XMLID_2177_" class="st3" points="37.4,18.7 37.4,19.6 38.4,19.7 37.4,19.7 37.4,20.6 37.3,19.7 36.4,19.7 
					37.3,19.6 				"/>
			</g>
			<g id="XMLID_2155_">
				<path id="XMLID_2175_" class="st17" d="M35.8,25.8C35.8,25.8,35.8,25.8,35.8,25.8c0,0.6-1.9,1-4.2,1c-2.3,0-4.2-0.4-4.2-0.9
					c0,0,0,0,0,0v-1.1c2.3,0,2,0.6,4.2,0.6s2-0.5,4.2-0.6V25.8z"/>
				<path id="XMLID_2174_" class="st18" d="M35.8,25.8C35.8,25.8,35.8,25.8,35.8,25.8c0,0.5-1.4,0.9-3.3,0.9v-1.5
					c1.4-0.1,1.5-0.5,3.3-0.5V25.8z"/>
				<path id="XMLID_2173_" class="st19" d="M31.6,25.6c2.3,0,4.2-0.4,4.2-0.9s-1.9-0.9-4.2-0.9s-4.2,0.4-4.2,0.9
					S29.3,25.6,31.6,25.6L31.6,25.6z"/>
				<path id="XMLID_2172_" class="st17" d="M31.6,25.4c2.2,0,3.9-0.3,3.9-0.7c0-0.4-1.8-0.7-3.9-0.7c-2.2,0-3.9,0.3-3.9,0.7
					C27.7,25.1,29.4,25.4,31.6,25.4L31.6,25.4z"/>
				<path id="XMLID_2171_" class="st19" d="M31.6,25.3c2,0,3.7-0.3,3.7-0.6s-1.6-0.6-3.7-0.6c-2,0-3.7,0.3-3.7,0.6
					S29.6,25.3,31.6,25.3L31.6,25.3z"/>
				<path id="XMLID_2170_" class="st20" d="M33,24.9c0,0,0,0.1-0.1,0.1c-0.1,0-0.2,0.1-0.3,0.1c-0.1,0-0.3,0-0.5,0
					c-0.1,0-0.1,0-0.2,0v0c0,0,0,0-0.1,0h-0.3c0,0-0.1,0-0.1,0v0c-0.1,0-0.2,0-0.3,0c-0.1,0-0.2,0-0.3,0c-0.1,0-0.2,0-0.3,0
					c-0.1,0-0.1,0-0.2,0c0,0-0.1,0-0.1,0c0,0,0,0,0,0c0,0,0,0,0,0c0,0,0,0,0,0c0,0,0,0,0,0c0,0,0,0,0.1,0c0,0,0.1,0,0.1,0
					c0.1,0,0.1,0,0.2,0c0.1,0,0.2,0,0.3,0c0.1,0,0.3,0,0.4,0c0.1,0,0.2,0,0.3,0c0.1,0,0.2,0,0.3,0c0.1,0,0.1,0,0.2,0
					c0,0,0.1,0,0.1-0.1c0,0,0,0-0.1-0.1c-0.1,0-0.1,0-0.2,0c-0.1,0-0.2,0-0.3,0c-0.1,0-0.2,0-0.4,0c-0.1,0-0.2,0-0.4,0
					c-0.1,0-0.2,0-0.3,0c-0.1,0-0.2,0-0.2-0.1c-0.1,0-0.1,0-0.1-0.1c0,0,0-0.1,0.1-0.1c0.1,0,0.2,0,0.3-0.1c0.1,0,0.3,0,0.5,0
					c0.1,0,0.2,0,0.2,0v0c0,0,0,0,0.1,0h0.3c0,0,0.1,0,0.1,0v0c0.1,0,0.1,0,0.2,0c0.1,0,0.2,0,0.3,0c0.1,0,0.2,0,0.2,0
					c0.1,0,0.1,0,0.1,0c0,0,0.1,0,0.1,0c0,0,0,0,0,0c0,0,0,0,0,0c0,0,0,0,0,0c0,0,0,0,0,0c0,0,0,0,0,0c0,0,0,0,0,0c0,0,0,0,0,0
					c0,0-0.1,0-0.1,0c-0.1,0-0.1,0-0.2,0c-0.1,0-0.2,0-0.3,0c-0.1,0-0.2,0-0.4,0c-0.1,0-0.2,0-0.3,0c-0.1,0-0.2,0-0.2,0
					c-0.1,0-0.1,0-0.1,0c0,0,0,0,0,0c0,0,0,0,0.1,0.1c0.1,0,0.1,0,0.2,0c0.1,0,0.2,0,0.3,0c0.1,0,0.2,0,0.4,0c0.1,0,0.2,0,0.4,0
					c0.1,0,0.2,0,0.3,0C32.8,24.7,32.9,24.8,33,24.9C33,24.8,33,24.8,33,24.9L33,24.9z"/>
				<path id="XMLID_2169_" class="st17" d="M36.6,24.3C36.6,24.3,36.6,24.4,36.6,24.3c0,0.5-1.9,1-4.2,1c-2.3,0-4.2-0.4-4.2-0.9
					c0,0,0,0,0,0v-1.1c2.3,0,2,0.6,4.2,0.6s2-0.5,4.2-0.6V24.3z"/>
				<path id="XMLID_2168_" class="st18" d="M36.6,24.3C36.6,24.3,36.6,24.4,36.6,24.3c0,0.5-1.4,0.9-3.3,0.9v-1.5
					c1.4-0.1,1.5-0.5,3.3-0.5V24.3z"/>
				<path id="XMLID_2167_" class="st19" d="M32.4,24.2c2.3,0,4.2-0.4,4.2-0.9c0-0.5-1.9-0.9-4.2-0.9c-2.3,0-4.2,0.4-4.2,0.9
					C28.2,23.8,30.1,24.2,32.4,24.2L32.4,24.2z"/>
				<path id="XMLID_2166_" class="st17" d="M32.4,24c2.2,0,3.9-0.3,3.9-0.7c0-0.4-1.8-0.7-3.9-0.7c-2.2,0-3.9,0.3-3.9,0.7
					C28.5,23.7,30.2,24,32.4,24L32.4,24z"/>
				<path id="XMLID_2165_" class="st19" d="M32.4,23.8c2,0,3.7-0.3,3.7-0.6c0-0.3-1.7-0.6-3.7-0.6c-2,0-3.7,0.3-3.7,0.6
					C28.7,23.6,30.4,23.8,32.4,23.8L32.4,23.8z"/>
				<path id="XMLID_2164_" class="st20" d="M33.8,23.4c0,0,0,0.1-0.1,0.1c-0.1,0-0.2,0.1-0.3,0.1c-0.1,0-0.3,0-0.5,0
					c-0.1,0-0.1,0-0.2,0v0c0,0,0,0-0.1,0h-0.3c0,0-0.1,0-0.1,0v0c-0.1,0-0.2,0-0.3,0c-0.1,0-0.2,0-0.3,0c-0.1,0-0.2,0-0.3,0
					c-0.1,0-0.1,0-0.2,0c0,0-0.1,0-0.1,0c0,0,0,0,0,0c0,0,0,0,0,0c0,0,0,0,0,0c0,0,0,0,0,0c0,0,0,0,0.1,0c0,0,0.1,0,0.1,0
					c0.1,0,0.1,0,0.2,0c0.1,0,0.2,0,0.3,0c0.1,0,0.3,0,0.4,0c0.1,0,0.2,0,0.3,0c0.1,0,0.2,0,0.3,0c0.1,0,0.1,0,0.2,0
					c0,0,0.1,0,0.1-0.1c0,0,0,0-0.1-0.1c-0.1,0-0.1,0-0.2,0c-0.1,0-0.2,0-0.3,0c-0.1,0-0.2,0-0.4,0c-0.1,0-0.2,0-0.4,0
					c-0.1,0-0.2,0-0.3,0c-0.1,0-0.2,0-0.2-0.1c-0.1,0-0.1,0-0.1-0.1c0,0,0-0.1,0.1-0.1c0.1,0,0.2,0,0.3-0.1c0.1,0,0.3,0,0.5,0
					c0.1,0,0.2,0,0.2,0v0c0,0,0,0,0.1,0h0.3c0,0,0.1,0,0.1,0v0c0.1,0,0.1,0,0.2,0c0.1,0,0.2,0,0.3,0c0.1,0,0.2,0,0.2,0
					c0.1,0,0.1,0,0.1,0c0,0,0.1,0,0.1,0c0,0,0,0,0,0c0,0,0,0,0,0c0,0,0,0,0,0c0,0,0,0,0,0c0,0,0,0,0,0c0,0,0,0,0,0c0,0,0,0,0,0
					c0,0-0.1,0-0.1,0c0,0-0.1,0-0.2,0c-0.1,0-0.2,0-0.3,0c-0.1,0-0.2,0-0.4,0c-0.1,0-0.2,0-0.3,0c-0.1,0-0.2,0-0.2,0
					c-0.1,0-0.1,0-0.1,0c0,0,0,0,0,0c0,0,0,0,0.1,0.1c0.1,0,0.1,0,0.2,0c0.1,0,0.2,0,0.3,0c0.1,0,0.2,0,0.4,0c0.1,0,0.3,0,0.4,0
					c0.1,0,0.2,0,0.3,0C33.6,23.3,33.7,23.3,33.8,23.4C33.8,23.4,33.8,23.4,33.8,23.4L33.8,23.4z"/>
				<path id="XMLID_2163_" class="st17" d="M35.9,22.7C35.9,22.8,35.9,22.8,35.9,22.7c0,0.5-1.9,1-4.2,1c-2.3,0-4.2-0.4-4.2-0.9
					c0,0,0,0,0,0v-1.1c2.3,0,2,0.6,4.2,0.6c2.3,0,2-0.5,4.2-0.6V22.7z"/>
				<path id="XMLID_2162_" class="st18" d="M35.9,22.7C35.9,22.8,35.9,22.8,35.9,22.7c0,0.5-1.4,0.9-3.3,0.9v-1.5
					c1.4-0.1,1.5-0.5,3.3-0.5V22.7z"/>
				<path id="XMLID_2161_" class="st19" d="M31.7,22.6c2.3,0,4.2-0.4,4.2-0.9c0-0.5-1.9-0.9-4.2-0.9s-4.2,0.4-4.2,0.9
					C27.5,22.2,29.4,22.6,31.7,22.6L31.7,22.6z"/>
				<path id="XMLID_2160_" class="st17" d="M31.7,22.4c2.2,0,3.9-0.3,3.9-0.7c0-0.4-1.8-0.7-3.9-0.7c-2.2,0-3.9,0.3-3.9,0.7
					C27.7,22.1,29.5,22.4,31.7,22.4L31.7,22.4z"/>
				<path id="XMLID_2159_" class="st19" d="M31.7,22.2c2,0,3.7-0.3,3.7-0.6c0-0.3-1.7-0.6-3.7-0.6c-2,0-3.7,0.3-3.7,0.6
					C28,22,29.6,22.2,31.7,22.2L31.7,22.2z"/>
				<path id="XMLID_2158_" class="st20" d="M33.1,21.8c0,0,0,0.1-0.1,0.1S32.8,22,32.6,22c-0.1,0-0.3,0-0.5,0c-0.1,0-0.1,0-0.2,0v0
					c0,0,0,0-0.1,0h-0.3c0,0-0.1,0-0.1,0v0c-0.1,0-0.2,0-0.3,0c-0.1,0-0.2,0-0.3,0c-0.1,0-0.2,0-0.3,0c-0.1,0-0.1,0-0.2,0
					c0,0-0.1,0-0.1,0c0,0,0,0,0,0c0,0,0,0,0,0c0,0,0,0,0,0c0,0,0,0,0,0c0,0,0,0,0.1,0c0,0,0.1,0,0.1,0c0.1,0,0.1,0,0.2,0
					c0.1,0,0.2,0,0.3,0c0.1,0,0.3,0,0.4,0c0.1,0,0.2,0,0.3,0c0.1,0,0.2,0,0.3,0c0.1,0,0.1,0,0.2,0c0,0,0.1,0,0.1-0.1
					c0,0,0,0-0.1-0.1c-0.1,0-0.1,0-0.2,0c-0.1,0-0.2,0-0.3,0c-0.1,0-0.2,0-0.4,0c-0.1,0-0.2,0-0.4,0c-0.1,0-0.2,0-0.3,0
					c-0.1,0-0.2,0-0.2-0.1c-0.1,0-0.1,0-0.1-0.1c0,0,0-0.1,0.1-0.1c0.1,0,0.2,0,0.3-0.1c0.1,0,0.3,0,0.5,0c0.1,0,0.2,0,0.2,0v0
					c0,0,0,0,0.1,0h0.3c0,0,0.1,0,0.1,0v0c0.1,0,0.1,0,0.2,0c0.1,0,0.2,0,0.3,0c0.1,0,0.2,0,0.2,0c0.1,0,0.1,0,0.1,0
					c0,0,0.1,0,0.1,0c0,0,0,0,0,0c0,0,0,0,0,0c0,0,0,0,0,0c0,0,0,0,0,0c0,0,0,0,0,0c0,0,0,0,0,0c0,0,0,0-0.1,0c0,0-0.1,0-0.1,0
					c0,0-0.1,0-0.2,0c-0.1,0-0.2,0-0.3,0c-0.1,0-0.2,0-0.4,0c-0.1,0-0.2,0-0.3,0c-0.1,0-0.2,0-0.2,0c-0.1,0-0.1,0-0.1,0c0,0,0,0,0,0
					c0,0,0,0,0.1,0.1c0.1,0,0.1,0,0.2,0c0.1,0,0.2,0,0.3,0c0.1,0,0.2,0,0.4,0c0.1,0,0.3,0,0.4,0c0.1,0,0.2,0,0.3,0
					C32.9,21.7,32.9,21.7,33.1,21.8C33.1,21.8,33.1,21.8,33.1,21.8L33.1,21.8z"/>
				<polygon id="XMLID_2157_" class="st3" points="33.2,23 33.2,23.9 34.2,24 33.2,24 33.2,24.9 33.1,24 32.2,24 33.1,23.9 				"/>
			</g>
		</g>
		<g>
			<path id="XMLID_1039_" class="st9" d="M28.2,42.4h2c0.3,0,0.6,0.3,0.6,0.6l0,0c0,0.3-0.3,0.6-0.6,0.6h-2c-0.3,0-0.6-0.3-0.6-0.6
				l0,0C27.5,42.7,27.8,42.4,28.2,42.4L28.2,42.4z"/>
			<path id="XMLID_1038_" class="st9" d="M42,42.4h2c0.3,0,0.6,0.3,0.6,0.6l0,0c0,0.3-0.3,0.6-0.6,0.6h-2c-0.3,0-0.6-0.3-0.6-0.6
				l0,0C41.3,42.7,41.6,42.4,42,42.4L42,42.4z"/>
			<linearGradient id="XMLID_5_" gradientUnits="userSpaceOnUse" x1="36.0502" y1="42.9052" x2="36.0502" y2="25.1171">
				<stop  offset="0" style="stop-color:#2C7EFE"/>
				<stop  offset="1" style="stop-color:#84B2FE"/>
			</linearGradient>
			<path id="XMLID_1037_" class="st21" d="M26.3,25.1h19.5c0.4,0,0.7,0.3,0.7,0.7v16.3c0,0.4-0.3,0.7-0.7,0.7H26.3
				c-0.4,0-0.7-0.3-0.7-0.7V25.8C25.6,25.4,25.9,25.1,26.3,25.1L26.3,25.1z"/>
			<path id="XMLID_1036_" class="st15" d="M27.7,26.4h16.7c0.3,0,0.6,0.3,0.6,0.6v14c0,0.3-0.3,0.6-0.6,0.6H27.7
				c-0.3,0-0.6-0.3-0.6-0.6V27C27.1,26.7,27.4,26.4,27.7,26.4L27.7,26.4z"/>
			<path id="XMLID_1035_" class="st9" d="M27.4,29.8v-0.9c0-0.1,0.1-0.1,0.1-0.1h0.3c0.1,0,0.1,0.1,0.1,0.1v0.9
				c0,0.1-0.1,0.1-0.1,0.1h-0.3C27.4,29.9,27.4,29.8,27.4,29.8L27.4,29.8z"/>
			<path id="XMLID_1034_" class="st9" d="M26.2,29.8v-0.9c0-0.1,0.1-0.1,0.1-0.1h0.3c0.1,0,0.1,0.1,0.1,0.1v0.9
				c0,0.1-0.1,0.1-0.1,0.1h-0.3C26.3,29.9,26.2,29.8,26.2,29.8L26.2,29.8z"/>
			<path id="XMLID_1033_" class="st5" d="M26.4,29.5v-0.3c0-0.1,0.1-0.1,0.1-0.1h1.2c0.1,0,0.1,0.1,0.1,0.1v0.3
				c0,0.1-0.1,0.1-0.1,0.1h-1.2C26.4,29.6,26.4,29.5,26.4,29.5L26.4,29.5z"/>
			<path id="XMLID_1032_" class="st9" d="M27.4,34.6v-0.9c0-0.1,0.1-0.1,0.1-0.1h0.3c0.1,0,0.1,0.1,0.1,0.1v0.9
				c0,0.1-0.1,0.1-0.1,0.1h-0.3C27.4,34.8,27.4,34.7,27.4,34.6L27.4,34.6z"/>
			<path id="XMLID_1031_" class="st9" d="M26.2,34.6v-0.9c0-0.1,0.1-0.1,0.1-0.1h0.3c0.1,0,0.1,0.1,0.1,0.1v0.9
				c0,0.1-0.1,0.1-0.1,0.1h-0.3C26.3,34.8,26.2,34.7,26.2,34.6L26.2,34.6z"/>
			<path id="XMLID_1030_" class="st5" d="M26.4,34.3V34c0-0.1,0.1-0.1,0.1-0.1h1.2c0.1,0,0.1,0.1,0.1,0.1v0.3c0,0.1-0.1,0.1-0.1,0.1
				h-1.2C26.4,34.5,26.4,34.4,26.4,34.3L26.4,34.3z"/>
			<path id="XMLID_1029_" class="st9" d="M27.4,39.2v-0.9c0-0.1,0.1-0.1,0.1-0.1h0.3c0.1,0,0.1,0.1,0.1,0.1v0.9
				c0,0.1-0.1,0.1-0.1,0.1h-0.3C27.4,39.3,27.4,39.3,27.4,39.2L27.4,39.2z"/>
			<path id="XMLID_1028_" class="st9" d="M26.2,39.2v-0.9c0-0.1,0.1-0.1,0.1-0.1h0.3c0.1,0,0.1,0.1,0.1,0.1v0.9
				c0,0.1-0.1,0.1-0.1,0.1h-0.3C26.3,39.3,26.2,39.3,26.2,39.2L26.2,39.2z"/>
			<path id="XMLID_1027_" class="st5" d="M26.4,38.9v-0.3c0-0.1,0.1-0.1,0.1-0.1h1.2c0.1,0,0.1,0.1,0.1,0.1v0.3
				c0,0.1-0.1,0.1-0.1,0.1h-1.2C26.4,39,26.4,39,26.4,38.9L26.4,38.9z"/>
			<linearGradient id="XMLID_6_" gradientUnits="userSpaceOnUse" x1="41.2149" y1="42.9052" x2="41.2149" y2="25.1171">
				<stop  offset="0" style="stop-color:#2C7EFE"/>
				<stop  offset="1" style="stop-color:#84B2FE"/>
			</linearGradient>
			<path id="XMLID_1026_" class="st22" d="M35.9,42.9V25.1h9.9c0.4,0,0.7,0.3,0.7,0.7v16.3c0,0.4-0.3,0.7-0.7,0.7H35.9z"/>
			<path id="XMLID_1025_" class="st3" d="M35.9,41.6V26.4h8.5c0.3,0,0.6,0.3,0.6,0.6v14c0,0.3-0.3,0.6-0.6,0.6H35.9z"/>
			<g>
				<path id="XMLID_1024_" class="st23" d="M42.9,34.8c0.5,0,1-0.4,1-1c0-0.5-0.4-1-1-1s-1,0.4-1,1C42,34.4,42.4,34.8,42.9,34.8
					L42.9,34.8z"/>
				<g id="XMLID_1021_">
					<path id="XMLID_1023_" class="st9" d="M42.9,34.5c0.4,0,0.6-0.3,0.6-0.6c0-0.4-0.3-0.6-0.6-0.6c-0.4,0-0.6,0.3-0.6,0.6
						C42.3,34.2,42.6,34.5,42.9,34.5L42.9,34.5z"/>
					<path id="XMLID_1022_" class="st9" d="M43.2,36.6l0.1-2.3h-0.3h-0.3c0,0.8,0.1,1.6,0.1,2.3l0,0c0,0,0,0,0,0c0,0,0.1,0,0.2,0
						S43.2,36.6,43.2,36.6C43.2,36.6,43.2,36.6,43.2,36.6L43.2,36.6z"/>
				</g>
			</g>
			<g>
				<path id="XMLID_1020_" class="st9" d="M35.8,37.6c1.7,0,3.1-1.4,3.1-3.1c0-1.7-1.4-3.1-3.1-3.1c-1.7,0-3.1,1.4-3.1,3.1
					C32.7,36.2,34.1,37.6,35.8,37.6L35.8,37.6z"/>
				<path id="XMLID_1019_" class="st5" d="M35.8,37c1.4,0,2.5-1.1,2.5-2.5c0-1.4-1.1-2.5-2.5-2.5c-1.4,0-2.5,1.1-2.5,2.5
					C33.3,35.8,34.5,37,35.8,37L35.8,37z"/>
				<path id="XMLID_1018_" class="st9" d="M35.8,35.5c0.6,0,1-0.5,1-1c0-0.6-0.5-1-1-1c-0.6,0-1,0.5-1,1
					C34.8,35,35.3,35.5,35.8,35.5L35.8,35.5z"/>
				<path id="XMLID_1017_" class="st5" d="M35.8,35.2c0.4,0,0.7-0.3,0.7-0.7c0-0.4-0.3-0.7-0.7-0.7c-0.4,0-0.7,0.3-0.7,0.7
					C35.1,34.9,35.4,35.2,35.8,35.2L35.8,35.2z"/>
				<polygon id="XMLID_1016_" class="st23" points="35.8,34.1 35.9,34.5 36,34.8 35.8,34.8 35.7,34.8 35.8,34.5 				"/>
				<g id="XMLID_883_">
					<g id="XMLID_1011_">
						<path id="XMLID_1015_" class="st23" d="M35.8,32.3L35.8,32.3C35.8,32.3,35.9,32.3,35.8,32.3l0,0.4c0,0,0,0,0,0l0,0
							c0,0,0,0,0,0L35.8,32.3C35.8,32.3,35.8,32.3,35.8,32.3L35.8,32.3z"/>
						<path id="XMLID_1012_" class="st24" d="M35.8,32.8C35.8,32.8,35.8,32.8,35.8,32.8l0-0.4c0,0,0,0,0,0c0,0,0,0,0,0L35.8,32.8
							C35.9,32.8,35.9,32.8,35.8,32.8z M35.8,32.3C35.8,32.3,35.8,32.3,35.8,32.3l0,0.4c0,0,0,0,0,0c0,0,0,0,0,0L35.8,32.3
							C35.9,32.3,35.8,32.3,35.8,32.3z"/>
					</g>
					<g id="XMLID_1006_">
						<path id="XMLID_1010_" class="st23" d="M35.8,36.2L35.8,36.2C35.8,36.2,35.9,36.2,35.8,36.2l0,0.4c0,0,0,0,0,0l0,0
							c0,0,0,0,0,0L35.8,36.2C35.8,36.2,35.8,36.2,35.8,36.2L35.8,36.2z"/>
						<path id="XMLID_1007_" class="st24" d="M35.8,36.6C35.8,36.6,35.8,36.6,35.8,36.6l0-0.4c0,0,0,0,0,0c0,0,0,0,0,0L35.8,36.6
							C35.9,36.6,35.9,36.6,35.8,36.6z M35.8,36.2C35.8,36.2,35.8,36.2,35.8,36.2l0,0.4c0,0,0,0,0,0c0,0,0,0,0,0L35.8,36.2
							C35.9,36.2,35.8,36.2,35.8,36.2z"/>
					</g>
					<g id="XMLID_1001_">
						<path id="XMLID_1005_" class="st23" d="M33.7,34.5L33.7,34.5C33.7,34.5,33.7,34.4,33.7,34.5l0.4,0c0,0,0,0,0,0l0,0
							c0,0,0,0,0,0L33.7,34.5C33.7,34.5,33.7,34.5,33.7,34.5L33.7,34.5z"/>
						<path id="XMLID_1002_" class="st24" d="M34.1,34.5h-0.4c0,0,0,0,0,0c0,0,0,0,0,0L34.1,34.5C34.1,34.4,34.2,34.5,34.1,34.5
							C34.2,34.5,34.1,34.5,34.1,34.5z M33.7,34.4C33.7,34.4,33.7,34.5,33.7,34.4C33.7,34.5,33.7,34.5,33.7,34.4l0.4,0c0,0,0,0,0,0
							c0,0,0,0,0,0H33.7z"/>
					</g>
					<g id="XMLID_996_">
						<path id="XMLID_1000_" class="st23" d="M37.5,34.5L37.5,34.5C37.5,34.5,37.5,34.4,37.5,34.5l0.4,0c0,0,0,0,0,0l0,0
							c0,0,0,0,0,0L37.5,34.5C37.5,34.5,37.5,34.5,37.5,34.5L37.5,34.5z"/>
						<path id="XMLID_997_" class="st24" d="M37.9,34.5h-0.4c0,0,0,0,0,0c0,0,0,0,0,0L37.9,34.5C38,34.4,38,34.5,37.9,34.5
							C38,34.5,38,34.5,37.9,34.5z M37.5,34.4C37.5,34.4,37.5,34.5,37.5,34.4C37.5,34.5,37.5,34.5,37.5,34.4l0.4,0c0,0,0,0,0,0
							c0,0,0,0,0,0H37.5z"/>
					</g>
					<g id="XMLID_991_">
						<path id="XMLID_995_" class="st23" d="M34.3,33L34.3,33C34.3,32.9,34.3,32.9,34.3,33l0.3,0.3c0,0,0,0,0,0l0,0c0,0,0,0,0,0
							L34.3,33C34.3,33,34.3,33,34.3,33L34.3,33z"/>
						<path id="XMLID_992_" class="st24" d="M34.6,33.3C34.6,33.3,34.6,33.3,34.6,33.3L34.3,33c0,0,0,0,0,0c0,0,0,0,0,0v0l0,0
							c0,0,0,0,0,0L34.6,33.3C34.7,33.2,34.7,33.3,34.6,33.3C34.6,33.3,34.6,33.3,34.6,33.3z M34.3,33L34.3,33L34.3,33
							C34.3,33,34.3,33,34.3,33C34.3,33,34.3,33,34.3,33l0.3,0.3c0,0,0,0,0,0c0,0,0,0,0,0L34.3,33C34.3,32.9,34.3,32.9,34.3,33z"/>
					</g>
					<g id="XMLID_986_">
						<path id="XMLID_990_" class="st23" d="M37,35.7L37,35.7C37,35.6,37.1,35.6,37,35.7l0.3,0.3c0,0,0,0,0,0l0,0c0,0,0,0,0,0
							L37,35.7C37,35.7,37,35.7,37,35.7L37,35.7z"/>
						<path id="XMLID_987_" class="st24" d="M37.3,36C37.3,36,37.3,36,37.3,36L37,35.7c0,0,0,0,0,0c0,0,0,0,0,0c0,0,0,0,0,0L37.3,36
							C37.4,35.9,37.4,36,37.3,36C37.4,36,37.4,36,37.3,36C37.3,36,37.3,36,37.3,36z M37,35.7L37,35.7C37,35.7,37,35.7,37,35.7
							L37,35.7C37,35.7,37,35.7,37,35.7C37,35.7,37,35.7,37,35.7l0.3,0.3c0,0,0,0,0,0c0,0,0,0,0,0c0,0,0,0,0,0L37,35.7
							C37.1,35.7,37.1,35.7,37,35.7z"/>
					</g>
					<g id="XMLID_981_">
						<path id="XMLID_985_" class="st23" d="M37.3,33L37.3,33C37.3,32.9,37.3,32.9,37.3,33L37,33.2c0,0,0,0,0,0l0,0c0,0,0,0,0,0
							L37.3,33C37.4,33,37.4,33,37.3,33L37.3,33z"/>
						<path id="XMLID_982_" class="st24" d="M37,33.3L37,33.3C37,33.3,37,33.3,37,33.3C37,33.3,37,33.2,37,33.3l0.3-0.3c0,0,0,0,0,0
							l0,0v0c0,0,0,0,0,0c0,0,0,0,0,0L37,33.3C37.1,33.3,37.1,33.3,37,33.3z M37.3,33C37.3,33,37.3,33,37.3,33L37,33.2c0,0,0,0,0,0
							c0,0,0,0,0,0c0,0,0,0,0,0c0,0,0,0,0,0L37.3,33C37.3,33,37.4,33,37.3,33C37.3,33,37.3,33,37.3,33L37.3,33L37.3,33
							C37.3,33,37.3,33,37.3,33z"/>
					</g>
					<g id="XMLID_974_">
						<path id="XMLID_980_" class="st23" d="M34.6,35.7L34.6,35.7C34.6,35.6,34.6,35.6,34.6,35.7l-0.3,0.3c0,0,0,0,0,0l0,0
							c0,0,0,0,0,0L34.6,35.7C34.7,35.7,34.7,35.7,34.6,35.7L34.6,35.7z"/>
						<path id="XMLID_977_" class="st24" d="M34.3,36C34.3,36,34.3,36,34.3,36C34.3,36,34.3,36,34.3,36C34.3,36,34.3,35.9,34.3,36
							l0.3-0.3c0,0,0,0,0,0l0,0c0,0,0,0,0,0L34.3,36C34.4,36,34.3,36,34.3,36z M34.6,35.7C34.6,35.7,34.6,35.7,34.6,35.7l-0.3,0.3
							c0,0,0,0,0,0c0,0,0,0,0,0c0,0,0,0,0,0L34.6,35.7C34.6,35.7,34.6,35.7,34.6,35.7C34.6,35.7,34.6,35.7,34.6,35.7z"/>
					</g>
					<g id="XMLID_969_">
						<path id="XMLID_973_" class="st23" d="M36.7,32.5L36.7,32.5C36.7,32.5,36.7,32.5,36.7,32.5l-0.1,0.4c0,0,0,0,0,0l0,0
							c0,0,0,0,0,0L36.7,32.5C36.7,32.5,36.7,32.5,36.7,32.5L36.7,32.5z"/>
						<path id="XMLID_970_" class="st24" d="M36.5,32.9C36.5,32.9,36.5,32.9,36.5,32.9C36.5,32.9,36.5,32.9,36.5,32.9
							C36.5,32.9,36.5,32.9,36.5,32.9l0.1-0.4c0,0,0,0,0,0c0,0,0,0,0,0c0,0,0,0,0,0L36.5,32.9C36.5,32.9,36.5,32.9,36.5,32.9
							C36.5,32.9,36.5,32.9,36.5,32.9z M36.7,32.5C36.7,32.5,36.7,32.5,36.7,32.5l-0.2,0.4c0,0,0,0,0,0c0,0,0,0,0,0c0,0,0,0,0,0
							c0,0,0,0,0,0L36.7,32.5C36.7,32.5,36.7,32.5,36.7,32.5C36.7,32.5,36.7,32.5,36.7,32.5L36.7,32.5
							C36.7,32.5,36.7,32.5,36.7,32.5z"/>
					</g>
					<g id="XMLID_964_">
						<path id="XMLID_968_" class="st23" d="M35.2,36L35.2,36C35.2,36,35.2,36,35.2,36L35,36.4c0,0,0,0,0,0l0,0c0,0,0,0,0,0L35.2,36
							C35.1,36,35.1,36,35.2,36L35.2,36z"/>
						<path id="XMLID_965_" class="st24" d="M35,36.4C35,36.4,35,36.4,35,36.4C35,36.4,35,36.4,35,36.4l0.1-0.4c0,0,0,0,0,0
							c0,0,0,0,0,0l0,0c0,0,0,0,0,0L35,36.4C35,36.4,35,36.4,35,36.4z M35.1,36C35.1,36,35.1,36,35.1,36C35.1,36,35.1,36,35.1,36
							L35,36.4c0,0,0,0,0,0c0,0,0,0,0,0L35.1,36C35.2,36,35.2,36,35.1,36C35.2,36,35.2,36,35.1,36z"/>
					</g>
					<g id="XMLID_959_">
						<path id="XMLID_963_" class="st23" d="M33.9,33.6L33.9,33.6C33.9,33.6,33.9,33.6,33.9,33.6l0.4,0.1c0,0,0,0,0,0l0,0
							c0,0,0,0,0,0L33.9,33.6C33.9,33.6,33.9,33.6,33.9,33.6L33.9,33.6z"/>
						<path id="XMLID_960_" class="st24" d="M34.3,33.8C34.3,33.8,34.3,33.8,34.3,33.8l-0.4-0.2c0,0,0,0,0,0c0,0,0,0,0,0
							c0,0,0,0,0,0c0,0,0,0,0,0L34.3,33.8C34.3,33.8,34.3,33.8,34.3,33.8C34.3,33.8,34.3,33.8,34.3,33.8
							C34.3,33.8,34.3,33.8,34.3,33.8z M33.9,33.6C33.9,33.6,33.9,33.6,33.9,33.6C33.9,33.6,33.9,33.6,33.9,33.6L33.9,33.6
							C33.9,33.6,33.9,33.6,33.9,33.6C33.9,33.6,33.9,33.6,33.9,33.6l0.4,0.2c0,0,0,0,0,0c0,0,0,0,0,0L33.9,33.6
							C33.9,33.6,33.9,33.6,33.9,33.6z"/>
					</g>
					<g id="XMLID_904_">
						<path id="XMLID_958_" class="st23" d="M37.4,35.1L37.4,35.1C37.4,35.1,37.4,35.1,37.4,35.1l0.4,0.1c0,0,0,0,0,0l0,0
							c0,0,0,0,0,0L37.4,35.1C37.4,35.2,37.4,35.2,37.4,35.1L37.4,35.1z"/>
						<path id="XMLID_905_" class="st24" d="M37.8,35.3C37.8,35.3,37.8,35.3,37.8,35.3l-0.4-0.2c0,0,0,0,0,0c0,0,0,0,0,0
							c0,0,0,0,0,0L37.8,35.3C37.8,35.3,37.8,35.3,37.8,35.3C37.8,35.3,37.8,35.3,37.8,35.3C37.8,35.3,37.8,35.3,37.8,35.3z
							 M37.4,35.1C37.4,35.1,37.4,35.1,37.4,35.1C37.4,35.1,37.4,35.1,37.4,35.1L37.4,35.1C37.4,35.2,37.4,35.2,37.4,35.1l0.4,0.2
							c0,0,0,0,0,0c0,0,0,0,0,0c0,0,0,0,0,0L37.4,35.1C37.4,35.1,37.4,35.1,37.4,35.1z"/>
					</g>
					<g id="XMLID_899_">
						<path id="XMLID_903_" class="st23" d="M35.1,32.5L35.1,32.5C35.1,32.5,35.1,32.5,35.1,32.5l0.2,0.4c0,0,0,0,0,0l0,0
							c0,0,0,0,0,0L35.1,32.5C35,32.5,35,32.5,35.1,32.5L35.1,32.5z"/>
						<path id="XMLID_900_" class="st24" d="M35.2,32.9C35.2,32.9,35.2,32.9,35.2,32.9L35,32.5c0,0,0,0,0,0c0,0,0,0,0,0c0,0,0,0,0,0
							L35.2,32.9C35.2,32.9,35.2,32.9,35.2,32.9C35.2,32.9,35.2,32.9,35.2,32.9z M35.1,32.5C35.1,32.5,35.1,32.5,35.1,32.5
							L35.1,32.5C35,32.5,35,32.5,35.1,32.5C35,32.5,35,32.5,35.1,32.5l0.1,0.4c0,0,0,0,0,0c0,0,0,0,0,0L35.1,32.5
							C35.1,32.5,35.1,32.5,35.1,32.5z"/>
					</g>
					<g id="XMLID_894_">
						<path id="XMLID_898_" class="st23" d="M36.5,36L36.5,36C36.5,36,36.5,36,36.5,36l0.2,0.4c0,0,0,0,0,0l0,0c0,0,0,0,0,0L36.5,36
							C36.4,36.1,36.4,36,36.5,36L36.5,36z"/>
						<path id="XMLID_895_" class="st24" d="M36.6,36.5C36.6,36.5,36.6,36.5,36.6,36.5l-0.2-0.4c0,0,0,0,0,0c0,0,0,0,0,0l0,0
							c0,0,0,0,0,0c0,0,0,0,0,0L36.6,36.5C36.6,36.4,36.6,36.5,36.6,36.5C36.6,36.5,36.6,36.5,36.6,36.5z M36.5,36
							C36.5,36,36.5,36,36.5,36L36.5,36C36.4,36,36.4,36,36.5,36C36.4,36.1,36.4,36.1,36.5,36l0.1,0.4c0,0,0,0,0,0c0,0,0,0,0,0
							L36.5,36C36.5,36,36.5,36,36.5,36C36.5,36,36.5,36,36.5,36z"/>
					</g>
					<g id="XMLID_889_">
						<path id="XMLID_893_" class="st23" d="M37.8,33.7L37.8,33.7C37.8,33.7,37.8,33.7,37.8,33.7l-0.4,0.1c0,0,0,0,0,0l0,0
							c0,0,0,0,0,0L37.8,33.7C37.8,33.7,37.8,33.7,37.8,33.7L37.8,33.7z"/>
						<path id="XMLID_890_" class="st24" d="M37.4,33.9C37.4,33.9,37.4,33.9,37.4,33.9C37.4,33.9,37.4,33.9,37.4,33.9
							C37.4,33.8,37.4,33.8,37.4,33.9C37.4,33.8,37.4,33.8,37.4,33.9l0.4-0.2c0,0,0,0,0,0l0,0c0,0,0,0,0,0L37.4,33.9
							C37.4,33.9,37.4,33.9,37.4,33.9z M37.8,33.7C37.8,33.7,37.8,33.7,37.8,33.7l-0.4,0.1c0,0,0,0,0,0c0,0,0,0,0,0c0,0,0,0,0,0
							L37.8,33.7C37.8,33.7,37.8,33.7,37.8,33.7C37.8,33.7,37.8,33.7,37.8,33.7z"/>
					</g>
					<g id="XMLID_884_">
						<path id="XMLID_888_" class="st23" d="M34.3,35.1L34.3,35.1C34.3,35.1,34.2,35.1,34.3,35.1l-0.4,0.1c0,0,0,0,0,0l0,0
							c0,0,0,0,0,0L34.3,35.1C34.3,35.1,34.3,35.1,34.3,35.1L34.3,35.1z"/>
						<path id="XMLID_885_" class="st24" d="M33.9,35.3C33.9,35.3,33.8,35.3,33.9,35.3C33.8,35.2,33.8,35.2,33.9,35.3l0.4-0.2
							c0,0,0,0,0,0l0,0c0,0,0,0,0,0L33.9,35.3C33.9,35.3,33.9,35.3,33.9,35.3z M34.2,35.1C34.2,35.1,34.2,35.1,34.2,35.1l-0.4,0.1
							c0,0,0,0,0,0c0,0,0,0,0,0L34.2,35.1C34.3,35.1,34.3,35.1,34.2,35.1C34.3,35.1,34.2,35.1,34.2,35.1z"/>
					</g>
				</g>
			</g>
		</g>
	</g>
</g>
</svg>
