<?xml version="1.0" encoding="utf-8"?>
<!-- Generator: Adobe Illustrator 25.2.1, SVG Export Plug-In . SVG Version: 6.00 Build 0)  -->
<svg version="1.1" id="Layer_1" xmlns="http://www.w3.org/2000/svg" xmlns:xlink="http://www.w3.org/1999/xlink" x="0px" y="0px"
	 viewBox="0 0 48 48" style="enable-background:new 0 0 48 48;" xml:space="preserve">
<style type="text/css">
	.st0{fill:none;stroke:#1B0050;stroke-width:0.5;stroke-linecap:round;stroke-miterlimit:10;}
	.st1{fill:#88CCFC;}
	.st2{fill:none;stroke:#FFFFFF;stroke-width:0.5;stroke-miterlimit:10;}
	.st3{fill:#1B0050;}
	.st4{fill:#FFFFFF;}
	.st5{fill:#A3D8F9;}
	.st6{fill:#39B7E3;}
	.st7{fill:#FF735D;}
	.st8{fill:#6EC2F3;}
	.st9{fill:#3B6CFF;}
	.st10{fill:#DEF0FF;}
	.st11{fill:#71C3F5;}
	.st12{opacity:0.35;fill:#88CCFC;enable-background:new    ;}
	.st13{clip-path:url(#SVGID_2_);fill:none;stroke:#71C3F5;stroke-width:0.5;stroke-linecap:round;stroke-miterlimit:10;}
	.st14{clip-path:url(#SVGID_4_);fill:none;stroke:#71C3F5;stroke-width:0.5;stroke-miterlimit:10;}
	.st15{clip-path:url(#SVGID_6_);fill:none;stroke:#71C3F5;stroke-width:0.5;stroke-linecap:round;stroke-miterlimit:10;}
	.st16{clip-path:url(#SVGID_8_);fill:none;stroke:#71C3F5;stroke-width:0.5;stroke-miterlimit:10;}
	.st17{fill:none;stroke:#002AA0;stroke-width:0.5;stroke-linecap:round;stroke-miterlimit:10;}
	.st18{fill:#1B1B26;}
	.st19{opacity:0.35;}
	.st20{fill:none;stroke:#3B6CFF;stroke-width:1.5236;stroke-linecap:round;stroke-miterlimit:10;}
	.st21{fill:#FF0017;}
	.st22{fill:none;stroke:#D50221;stroke-width:0.5;stroke-linecap:round;stroke-miterlimit:10;}
	.st23{fill:#FFC29F;}
	.st24{fill:#FF977A;}
	.st25{fill:#496BFF;}
	.st26{fill:none;stroke:#156297;stroke-width:0.5;stroke-linecap:round;stroke-miterlimit:10;}
	.st27{fill:#FFFDFB;}
	.st28{fill:none;stroke:#FF8884;stroke-width:0.5;stroke-linecap:round;stroke-miterlimit:10;}
	.st29{fill:none;stroke:#FFFFFF;stroke-width:0.5;stroke-linecap:round;stroke-miterlimit:10;}
	.st30{fill:none;stroke:#005684;stroke-width:0.5;stroke-linecap:round;stroke-miterlimit:10;}
</style>
<g>
	<line class="st0" x1="-0.4" y1="40.3" x2="47" y2="40.3"/>
	<g>
		<path class="st1" d="M5.9,47.7h5.3c2.7,0,5-2.3,5-5v-5.2H5.9L5.9,47.7z"/>
		<path class="st1" d="M5.9,37.5h10.3L13,34.9c-0.2-0.2-0.5-0.2-0.8-0.2H3.7c-0.2,0-0.3,0.2-0.1,0.5L5.9,37.5z"/>
		<path class="st1" d="M3.1,44.3v-8.8c0-0.7,0.5-0.8,0.5-0.8l-0.1,0.1c0,0.1,0,0.2,0.1,0.2l2.4,2.5v10.1l-2.6-2.6
			C3.2,44.8,3.1,44.6,3.1,44.3z"/>
		<path class="st2" d="M8.9,37.5H6.4c-0.2,0-0.5,0.2-0.5,0.5v2.6"/>
		<line class="st2" x1="5.9" y1="42.1" x2="5.9" y2="47.2"/>
		<line class="st2" x1="4.5" y1="36.1" x2="5.9" y2="37.5"/>
		<path class="st2" d="M3.4,34.7l-0.1,0.1c0,0.1,0,0.2,0.1,0.2l0.7,0.7"/>
	</g>
	<g>
		<path class="st3" d="M23.2,40.4L23.2,40.4c-5,0-8.9-3.9-8.9-8.9V15.4c0-5,3.9-8.9,8.9-8.9l0,0c5,0,8.9,3.9,8.9,8.9v16.1
			C32.2,36.4,28.1,40.4,23.2,40.4z"/>
		<path class="st4" d="M23.2,39.5L23.2,39.5c-4.5,0-8.1-3.6-8.1-8.1v-16c0-4.5,3.6-8.1,8.1-8.1l0,0c4.5,0,8.1,3.6,8.1,8.1v15.9
			C31.4,35.9,27.7,39.5,23.2,39.5z"/>
		<path class="st3" d="M24.9,9.2h-3.4c-1.2,0-2.3-1-2.3-2.3l0,0c0-0.1,0-0.1,0.1-0.1H27V7C27.1,8.2,26.1,9.2,24.9,9.2z"/>
	</g>
	<g>
		<g>
			<g>
				<g>
					<g>
						<g>
							<g>
								<path class="st5" d="M19.1,5.4c0,2.1-1.7,3.8-3.8,3.9c-2.1,0-3.8-1.7-3.9-3.8c0-2.1,1.7-3.8,3.8-3.9
									C17.4,1.6,19.1,3.3,19.1,5.4z"/>
							</g>
						</g>
					</g>
				</g>
				<g>
					<g>
						<g>
							<g>
								<path class="st6" d="M18.1,5.3c0,1.6-1.4,2.9-2.9,2.9s-2.9-1.4-2.9-2.9s1.4-2.9,2.9-2.9S18.1,3.7,18.1,5.3z"/>
							</g>
						</g>
					</g>
				</g>
				<g>
					<g>
						<g>
							<g>
								<path class="st7" d="M18.2,5.5c0,1.6-1.2,2.9-2.9,2.9c-1.6,0-2.9-1.2-2.9-2.9c0-1.6,1.4-2.9,2.9-2.9S18.2,3.8,18.2,5.5z"/>
							</g>
						</g>
					</g>
				</g>
				<g>
					<g>
						<g>
							<g>
								<path class="st8" d="M18.2,5.5c0,1.6-1.2,2.9-2.9,2.9c-1.6,0-2.9-1.2-2.9-2.9c0-1.6,1.4-2.9,2.9-2.9S18.2,3.8,18.2,5.5z"/>
							</g>
						</g>
					</g>
				</g>
				<g>
					<g>
						<g>
							<g>
								<g>
									<g>
										<path class="st6" d="M15.4,5.2V4.4l0,0c0.1,0,0.2,0,0.5,0.1c0.1,0.1,0.2,0.1,0.2,0.1l0,0l0.1-0.2V4.3l-0.1-0.1H16
											c-0.1-0.1-0.3-0.1-0.6-0.1V3.6l-0.1,0v0.1h-0.2v0.5c-0.6,0.1-0.9,0.3-0.8,0.8c0,0.6,0.5,0.7,0.9,0.8v0.8
											c-0.2,0-0.6-0.1-0.8-0.2l-0.1,0.3c0.2,0.1,0.6,0.2,0.9,0.3v0.3h-0.1l0.1-0.2h0.3V6.6c0.6-0.1,0.9-0.3,0.9-0.8
											C16.3,5.4,15.8,5.3,15.4,5.2z M15.2,5.2c-0.2-0.1-0.3-0.1-0.3-0.3c0-0.1,0.1-0.3,0.3-0.3V5.2z M15.4,4.5L15.4,4.5
											L15.4,4.5L15.4,4.5z M15.4,6.3V5.6c0.2,0.1,0.3,0.1,0.3,0.3C15.8,6.2,15.7,6.3,15.4,6.3z"/>
									</g>
								</g>
							</g>
						</g>
					</g>
				</g>
				<g>
					<g>
						<g>
							<g>
								<g>
									<path class="st4" d="M15.3,6.6v0.5h-0.3V6.6c-0.3,0-0.7-0.1-0.9-0.3L14.3,6c0.2,0.1,0.5,0.2,0.8,0.2V5.4
										c-0.5,0-0.9-0.1-0.9-0.7c0-0.3,0.2-0.7,0.8-0.8V3.5h0.3v0.5c0.2,0,0.6,0.1,0.8,0.2L16,4.5c-0.2-0.1-0.5-0.2-0.6-0.2v0.8
										c0.5,0.1,0.9,0.2,0.9,0.8C16.2,6.2,15.8,6.5,15.3,6.6z M14.9,5.1V4.4c-0.2,0-0.3,0.2-0.3,0.3C14.6,5,14.8,5,14.9,5.1z
										 M15.7,5.9c0-0.2-0.1-0.2-0.3-0.3v0.7C15.6,6.2,15.7,6.1,15.7,5.9z"/>
								</g>
							</g>
						</g>
					</g>
				</g>
			</g>
			<g>
				<g>
					<g>
						<g>
							<g>
								<path class="st5" d="M25.8,1.8c0,1.4-1.1,2.5-2.5,2.5s-2.5-1.1-2.5-2.5s1.1-2.5,2.5-2.5C24.6-0.7,25.8,0.5,25.8,1.8z"/>
							</g>
						</g>
					</g>
				</g>
				<g>
					<g>
						<g>
							<g>
								<ellipse class="st6" cx="23.3" cy="1.8" rx="1.9" ry="1.9"/>
							</g>
						</g>
					</g>
				</g>
				<g>
					<g>
						<g>
							<g>
								<path class="st7" d="M25.2,1.8c0,1-0.8,1.8-1.8,1.8s-1.8-0.8-1.8-1.8S22.4,0,23.4,0C24.3,0,25.2,0.8,25.2,1.8z"/>
							</g>
						</g>
					</g>
				</g>
				<g>
					<g>
						<g>
							<g>
								<path class="st8" d="M25.2,1.8c0,1-0.8,1.8-1.8,1.8s-1.8-0.8-1.8-1.8S22.4,0,23.4,0C24.3,0,25.2,0.8,25.2,1.8z"/>
							</g>
						</g>
					</g>
				</g>
				<g>
					<g>
						<g>
							<g>
								<g>
									<g>
										<path class="st6" d="M23.4,1.7V1.2l0,0c0.1,0,0.1,0,0.2,0.1c0.1,0,0.1,0.1,0.1,0.1l0,0l0.1-0.2l0,0l-0.1-0.1l0,0
											c-0.1,0-0.2-0.1-0.3-0.1V0.8l-0.1-0.1v0.1h-0.1V1c-0.3,0-0.6,0.2-0.6,0.5c0,0.3,0.2,0.5,0.6,0.5v0.5
											c-0.2,0-0.3-0.1-0.5-0.2l-0.1,0.2c0.2,0.2,0.3,0.2,0.7,0.3v0.2h-0.1L23.3,3h0.2V2.8c0.3,0,0.6-0.2,0.6-0.5
											C24,1.8,23.6,1.8,23.4,1.7z M23.2,1.7c-0.1,0-0.2-0.1-0.2-0.2c0-0.1,0.1-0.2,0.2-0.2V1.7z M23.4,1.2L23.4,1.2L23.4,1.2
											L23.4,1.2z M23.4,2.4V1.9c0.1,0,0.2,0.1,0.2,0.2C23.6,2.3,23.6,2.4,23.4,2.4z"/>
									</g>
								</g>
							</g>
						</g>
					</g>
				</g>
				<g>
					<g>
						<g>
							<g>
								<g>
									<path class="st4" d="M23.4,2.6v0.2h-0.2V2.6c-0.2,0-0.5-0.1-0.6-0.2l0.1-0.2c0.1,0.1,0.3,0.1,0.5,0.2V1.9
										c-0.2-0.1-0.6-0.1-0.6-0.5c0-0.2,0.2-0.5,0.6-0.5V0.8h0.2V1c0.2,0,0.3,0.1,0.5,0.1l-0.1,0.2c-0.1-0.1-0.2-0.1-0.3-0.1v0.5
										C23.6,1.8,24,1.8,24,2.1C23.8,2.4,23.7,2.6,23.4,2.6z M23.2,1.6V1.1c-0.1,0-0.2,0.1-0.2,0.2S23.1,1.6,23.2,1.6z M23.6,2.1
										c0-0.1-0.1-0.1-0.2-0.2v0.5C23.5,2.3,23.6,2.3,23.6,2.1z"/>
								</g>
							</g>
						</g>
					</g>
				</g>
			</g>
		</g>
		<g>
			<path class="st1" d="M44.5,25.7L44.5,25.7c1.9,0,3.5-1.6,3.5-3.5V22c0-1.9-1.6-3.5-3.5-3.5l0,0c-1.9,0-3.5,1.6-3.5,3.5v0.2
				C41,24.1,42.5,25.7,44.5,25.7z"/>
			<path class="st9" d="M45.8,18.6H43c-1.1,0-2,0.9-2,2l0,0h7l0,0C47.8,19.5,46.9,18.6,45.8,18.6z"/>
			<path class="st10" d="M46.5,22.4L46.5,22.4c0.3,0,0.6-0.2,0.6-0.6l0,0c0-0.3-0.2-0.6-0.6-0.6l0,0c-0.3,0-0.6,0.2-0.6,0.6l0,0
				C45.9,22.2,46.1,22.4,46.5,22.4z"/>
			<path class="st4" d="M45.1,22.4L45.1,22.4c0.3,0,0.6-0.2,0.6-0.6l0,0c0-0.3-0.2-0.6-0.6-0.6l0,0c-0.3,0-0.6,0.2-0.6,0.6l0,0
				C44.6,22.2,44.8,22.4,45.1,22.4z"/>
			<g>
				<path class="st11" d="M42.8,19.2c-0.1,0-0.2-0.1-0.2-0.2v-0.8c0-0.1,0.1-0.2,0.2-0.2c0.1,0,0.2,0.1,0.2,0.2v0.8
					C43,19,42.9,19.2,42.8,19.2z"/>
			</g>
			<g>
				<path class="st11" d="M43.9,19.2c-0.1,0-0.2-0.1-0.2-0.2v-0.8c0-0.1,0.1-0.2,0.2-0.2s0.2,0.1,0.2,0.2v0.8
					C44.1,19,44,19.2,43.9,19.2z"/>
			</g>
			<g>
				<path class="st11" d="M45,19.2c-0.1,0-0.2-0.1-0.2-0.2v-0.8c0-0.1,0.1-0.2,0.2-0.2c0.1,0,0.2,0.1,0.2,0.2v0.8
					C45.2,19,45.1,19.2,45,19.2z"/>
			</g>
			<path class="st10" d="M43.8,22.4L43.8,22.4c0.3,0,0.6-0.2,0.6-0.6l0,0c0-0.3-0.2-0.6-0.6-0.6l0,0c-0.3,0-0.6,0.2-0.6,0.6l0,0
				C43.2,22.2,43.4,22.4,43.8,22.4z"/>
			<path class="st10" d="M42.4,22.4L42.4,22.4c0.3,0,0.6-0.2,0.6-0.6l0,0c0-0.3-0.2-0.6-0.6-0.6l0,0c-0.3,0-0.6,0.2-0.6,0.6l0,0
				C41.9,22.2,42.1,22.4,42.4,22.4z"/>
			<path class="st10" d="M46.5,23.7L46.5,23.7c0.3,0,0.6-0.2,0.6-0.6l0,0c0-0.3-0.2-0.6-0.6-0.6l0,0c-0.3,0-0.6,0.2-0.6,0.6l0,0
				C45.8,23.4,46.1,23.7,46.5,23.7z"/>
			<path class="st4" d="M45.1,23.7L45.1,23.7c0.3,0,0.6-0.2,0.6-0.6l0,0c0-0.3-0.2-0.6-0.6-0.6l0,0c-0.3,0-0.6,0.2-0.6,0.6l0,0
				C44.6,23.4,44.8,23.7,45.1,23.7z"/>
			<path class="st10" d="M43.8,23.7L43.8,23.7c0.3,0,0.6-0.2,0.6-0.6l0,0c0-0.3-0.2-0.6-0.6-0.6l0,0c-0.3,0-0.6,0.2-0.6,0.6l0,0
				C43.2,23.4,43.4,23.7,43.8,23.7z"/>
			<path class="st10" d="M42.4,23.7L42.4,23.7c0.3,0,0.6-0.2,0.6-0.6l0,0c0-0.3-0.2-0.6-0.6-0.6l0,0c-0.3,0-0.6,0.2-0.6,0.6l0,0
				C41.9,23.4,42.1,23.7,42.4,23.7z"/>
			<path class="st10" d="M46.4,24.9L46.4,24.9c0.3,0,0.6-0.2,0.6-0.6l0,0c0-0.3-0.2-0.6-0.6-0.6l0,0c-0.3,0-0.6,0.2-0.6,0.6l0,0
				C45.8,24.7,46.1,24.9,46.4,24.9z"/>
			<path class="st4" d="M45.1,24.9L45.1,24.9c0.3,0,0.6-0.2,0.6-0.6l0,0c0-0.3-0.2-0.6-0.6-0.6l0,0c-0.3,0-0.6,0.2-0.6,0.6l0,0
				C44.6,24.7,44.8,24.9,45.1,24.9z"/>
			<path class="st10" d="M43.8,24.9L43.8,24.9c0.3,0,0.6-0.2,0.6-0.6l0,0c0-0.3-0.2-0.6-0.6-0.6l0,0c-0.3,0-0.6,0.2-0.6,0.6l0,0
				C43.2,24.7,43.4,24.9,43.8,24.9z"/>
			<path class="st10" d="M42.4,24.9L42.4,24.9c0.3,0,0.6-0.2,0.6-0.6l0,0c0-0.3-0.2-0.6-0.6-0.6l0,0c-0.3,0-0.6,0.2-0.6,0.6l0,0
				C41.9,24.7,42.1,24.9,42.4,24.9z"/>
			<g>
				<path class="st11" d="M46.1,19.2c-0.1,0-0.2-0.1-0.2-0.2v-0.8c0-0.1,0.1-0.2,0.2-0.2c0.1,0,0.2,0.1,0.2,0.2v0.8
					C46.4,19,46.3,19.2,46.1,19.2z"/>
			</g>
		</g>
		<g>
			<path class="st12" d="M36.3,13.5h-17c-0.6,0-1,0.5-1,1v0.1v8.7c0,0.6,0.5,1,1,1h17c0.6,0,1-0.5,1-1v-1.6v-7.2
				C37.4,14,36.9,13.5,36.3,13.5z"/>
			<g>
				<path class="st1" d="M31.5,24h-8.1c-3,0-5.4-2.5-5.4-5.4l0,0c0-3,2.5-5.4,5.4-5.4h8.1c3,0,5.4,2.5,5.4,5.4l0,0
					C36.9,21.5,34.4,24,31.5,24z"/>
				<path class="st11" d="M36.9,14.2c0-0.6-0.5-1-1-1h-17c-0.6,0-1,0.5-1,1v0.1c2,0.1,6.1,0.8,8.9,4.4c3.3,4.2,7.5,3.7,10,2.7v-7.2
					H36.9z"/>
				<path class="st4" d="M21.6,19.2h-1.1c-0.6,0-1-0.5-1-1l0,0c0-0.6,0.5-1,1-1h1.1c0.6,0,1,0.5,1,1l0,0
					C22.6,18.7,22.2,19.2,21.6,19.2z"/>
				<path class="st3" d="M35.2,15.1h-2.8c-0.2,0-0.5-0.2-0.5-0.5l0,0c0-0.2,0.2-0.5,0.5-0.5h2.8c0.2,0,0.5,0.2,0.5,0.5l0,0
					C35.8,14.9,35.6,15.1,35.2,15.1z"/>
				<path class="st4" d="M22.6,20.8h-2.9c-0.2,0-0.3-0.1-0.3-0.3l0,0c0-0.2,0.1-0.3,0.3-0.3h2.9c0.2,0,0.3,0.1,0.3,0.3l0,0
					C22.9,20.7,22.8,20.8,22.6,20.8z"/>
				<path class="st4" d="M26.8,20.8h-2.9c-0.2,0-0.3-0.1-0.3-0.3l0,0c0-0.2,0.1-0.3,0.3-0.3h2.9c0.2,0,0.3,0.1,0.3,0.3l0,0
					C27.1,20.7,27,20.8,26.8,20.8z"/>
				<path class="st4" d="M30.9,20.8H28c-0.2,0-0.3-0.1-0.3-0.3l0,0c0-0.2,0.1-0.3,0.3-0.3h2.9c0.2,0,0.3,0.1,0.3,0.3l0,0
					C31.3,20.7,31.2,20.8,30.9,20.8z"/>
				<path class="st4" d="M35.1,20.8h-2.9c-0.2,0-0.3-0.1-0.3-0.3l0,0c0-0.2,0.1-0.3,0.3-0.3h2.9c0.2,0,0.3,0.1,0.3,0.3l0,0
					C35.4,20.7,35.3,20.8,35.1,20.8z"/>
				<path class="st3" d="M23.6,23.1h-3.8c-0.1,0-0.2-0.1-0.2-0.2l0,0c0-0.1,0.1-0.2,0.2-0.2h3.8c0.1,0,0.2,0.1,0.2,0.2l0,0
					C23.7,23.1,23.7,23.1,23.6,23.1z"/>
				<path class="st3" d="M35.1,23.1h-1.9c-0.1,0-0.2-0.1-0.2-0.2l0,0c0-0.1,0.1-0.2,0.2-0.2h1.9c0.1,0,0.2,0.1,0.2,0.2l0,0
					C35.3,23.1,35.2,23.1,35.1,23.1z"/>
				<g>
					<g>
						<defs>
							<path id="SVGID_1_" d="M21.6,19.2h-1.1c-0.6,0-1-0.5-1-1l0,0c0-0.6,0.5-1,1-1h1.1c0.6,0,1,0.5,1,1l0,0
								C22.6,18.7,22.2,19.2,21.6,19.2z"/>
						</defs>
						<clipPath id="SVGID_2_">
							<use xlink:href="#SVGID_1_"  style="overflow:visible;"/>
						</clipPath>
						<path class="st13" d="M20,17.1c0.2,0.3,0.7,1.1,0,2.1"/>
					</g>
					<g>
						<defs>
							<path id="SVGID_3_" d="M21.6,19.2h-1.1c-0.6,0-1-0.5-1-1l0,0c0-0.6,0.5-1,1-1h1.1c0.6,0,1,0.5,1,1l0,0
								C22.6,18.7,22.2,19.2,21.6,19.2z"/>
						</defs>
						<clipPath id="SVGID_4_">
							<use xlink:href="#SVGID_3_"  style="overflow:visible;"/>
						</clipPath>
						<line class="st14" x1="19.3" y1="18.1" x2="20.5" y2="18.1"/>
					</g>
					<g>
						<defs>
							<path id="SVGID_5_" d="M21.6,19.2h-1.1c-0.6,0-1-0.5-1-1l0,0c0-0.6,0.5-1,1-1h1.1c0.6,0,1,0.5,1,1l0,0
								C22.6,18.7,22.2,19.2,21.6,19.2z"/>
						</defs>
						<clipPath id="SVGID_6_">
							<use xlink:href="#SVGID_5_"  style="overflow:visible;"/>
						</clipPath>
						<path class="st15" d="M21.9,17.1c-0.2,0.3-0.7,1.1,0,2.1"/>
					</g>
					<g>
						<defs>
							<path id="SVGID_7_" d="M21.6,19.2h-1.1c-0.6,0-1-0.5-1-1l0,0c0-0.6,0.5-1,1-1h1.1c0.6,0,1,0.5,1,1l0,0
								C22.6,18.7,22.2,19.2,21.6,19.2z"/>
						</defs>
						<clipPath id="SVGID_8_">
							<use xlink:href="#SVGID_7_"  style="overflow:visible;"/>
						</clipPath>
						<line class="st16" x1="22.7" y1="18.1" x2="21.6" y2="18.1"/>
					</g>
				</g>
			</g>
		</g>
		<g>
			<g>
				<path class="st4" d="M39,6.1c-0.9-0.9-0.9-1.2,0.5-2.5c1.4-1.4,1.1-3.2,1.1-3.2H38l0,0h-0.1h-0.1l0,0h-2.6c0,0-0.2,1.8,1.1,3.2
					c1.4,1.4,1.2,1.6,0.5,2.5c-0.9,0.9-2,1.8-1.9,3.4h2.9h0.1h2.9C41,7.9,39.8,7,39,6.1z"/>
				<path class="st9" d="M41.1,10h-6.2c-0.2,0-0.3-0.1-0.3-0.3l0,0c0-0.2,0.1-0.3,0.3-0.3h6.2c0.2,0,0.3,0.1,0.3,0.3l0,0
					C41.4,9.8,41.2,10,41.1,10z"/>
				<path class="st9" d="M41.1,0.8h-6.2c-0.2,0-0.3-0.1-0.3-0.3l0,0c0-0.2,0.1-0.3,0.3-0.3h6.2c0.2,0,0.3,0.1,0.3,0.3l0,0
					C41.4,0.7,41.2,0.8,41.1,0.8z"/>
			</g>
			<path class="st1" d="M36.7,3.2H39c0.1,0,0.1,0.1,0.1,0.1L38,4.5c0,0,0,0,0,0.1v3.7c0,0,0,0.1,0.1,0.1h2c0,0,0.1,0,0.1,0.1L40.4,9
				c0,0.1,0,0.1-0.1,0.1h-5c-0.1,0-0.1,0-0.1-0.1l0.1-0.5c0,0,0-0.1,0.1-0.1h2.1c0,0,0.1,0,0.1-0.1V4.6c0,0,0,0,0-0.1l-1.1-1.2
				C36.6,3.3,36.7,3.2,36.7,3.2z"/>
		</g>
		<g>
			<g id="_x3C_Group_x3E__00000129189239097836037190000007050095679799202437_">
				<path id="_x3C_Path_x3E__00000127004766677986551730000003523047634743146890_" class="st9" d="M37.4,35.5c0,0,0-2.8,1.8-3
					c1.8-0.2,2.4,0.3,2.6,0.5c0.2,0.1-0.3,0.2-0.9,0.8c-0.6,0.6-0.6,1.1-1.7,1.4c-1.2,0.2-1.7,1.1-1.7,1.1L37.4,35.5z"/>
				<path id="_x3C_Path_x3E__00000111154163654685330060000017324678429827178412_" class="st17" d="M37.4,36.1c0,0,0.6-2.9,3.3-3"
					/>
			</g>
			<g id="_x3C_Group_x3E__00000057841454533619677480000010332105292027553204_">
				<path id="_x3C_Path_x3E__00000023249338477839663100000012025947548543048616_" class="st9" d="M37.5,34.5c0,0,0.2-2.5-1.2-2.8
					c-1.5-0.3-2,0-2.3,0.1c-0.2,0.1,0.3,0.2,0.7,0.8c0.5,0.5,0.3,1,1.4,1.4c1,0.3,1.4,1.1,1.4,1.1L37.5,34.5z"/>
				<path id="_x3C_Path_x3E__00000169522446785322816250000014805843895233261489_" class="st17" d="M37.4,35c0,0-0.2-2.6-2.5-2.9"
					/>
			</g>
			<g>
				<g>
					<path class="st3" d="M37.7,29L37.7,29L37.7,29c0,0.1,0,0.2,0,0.2s0,0.1,0,0.2c0,0.2,0,0.7,0,1.2c0,0.5-0.1,1.1-0.2,1.8
						c-0.1,0.7-0.1,1.4-0.2,2.1c0,1.6,0.1,2.9,0.3,3.9c0.1,0.5,0.2,0.9,0.2,1.1c0,0.1,0.1,0.2,0.1,0.3v0.1l0,0c0,0-0.2-0.6-0.5-1.6
						c-0.2-1-0.5-2.4-0.3-3.9c0-0.8,0.1-1.5,0.2-2.1c0.1-0.7,0.1-1.2,0.2-1.8c0-0.5,0-0.9,0-1.2c0-0.1,0-0.1,0-0.2
						C37.7,29.1,37.7,29.1,37.7,29L37.7,29L37.7,29z"/>
				</g>
			</g>
			<path class="st18" d="M39,37.4h-2.9c-0.2,0-0.3-0.1-0.3-0.3l0,0c0-0.2,0.1-0.3,0.3-0.3H39c0.2,0,0.3,0.1,0.3,0.3l0,0
				C39.5,37.2,39.3,37.4,39,37.4z"/>
			<path class="st18" d="M38.6,40.3h-1.7c-0.1,0-0.2-0.1-0.3-0.2l-0.5-2.8h3.2l-0.3,2.8C38.8,40.2,38.7,40.3,38.6,40.3z"/>
			<g id="_x3C_Group_x3E__00000115516425068506358190000013653754119552492980_">
				<path id="_x3C_Path_x3E__00000147186917931563912930000002552327294493076893_" class="st9" d="M37.6,31.5c0,0,0.2-1.8,1.4-1.8
					c1.1,0,1.5,0.3,1.7,0.5c0.1,0.1-0.2,0.1-0.7,0.5c-0.3,0.3-0.5,0.7-1.2,0.8c-0.8,0-1.1,0.6-1.1,0.6L37.6,31.5z"/>
				<path id="_x3C_Path_x3E__00000035504799823082130360000001693996610431302034_" class="st17" d="M37.6,31.9c0,0,0.6-1.9,2.4-1.7
					"/>
			</g>
			<g id="_x3C_Group_x3E__00000059307280953920876490000003870961844426934919_">
				<path id="_x3C_Path_x3E__00000167366550571504357660000007572623739909767103_" class="st9" d="M37.8,30.1c0,0,0.5-1.8-0.7-2.3
					s-1.6-0.1-1.7-0.1c-0.1,0,0.2,0.2,0.5,0.7c0.2,0.5,0.1,0.8,0.9,1.1c0.8,0.3,0.9,1,0.9,1L37.8,30.1z"/>
				<path id="_x3C_Path_x3E__00000167355882994394677020000015208752568880680116_" class="st17" d="M37.7,30.5c0,0,0.1-1.9-1.6-2.5
					"/>
			</g>
		</g>
		<g>
			<path class="st9" d="M9.8,10c0-0.2-0.2-0.5-0.5-0.5H3c-0.2,0-0.5,0.2-0.5,0.5v3.5C2.5,13.7,2.8,14,3,14h5.3l0.5,0.7
				c0.1,0.2,0.5,0.2,0.6,0l0.5-0.8c0-0.1,0.1-0.1,0.1-0.2V10H9.8z"/>
			<path class="st4" d="M8.6,11.2h-5c-0.1,0-0.1-0.1-0.1-0.1l0,0c0-0.1,0.1-0.1,0.1-0.1h4.8c0.1,0,0.1,0.1,0.1,0.1l0,0
				C8.7,11,8.6,11.2,8.6,11.2z"/>
			<path class="st4" d="M7.2,11.7H3.8c-0.1,0-0.1-0.1-0.1-0.1l0,0c0-0.1,0.1-0.1,0.1-0.1h3.4c0.1,0,0.1,0.1,0.1,0.1l0,0
				C7.3,11.7,7.2,11.7,7.2,11.7z"/>
			<path class="st4" d="M8,12.4H3.7c-0.1,0-0.1-0.1-0.1-0.1l0,0c0-0.1,0.1-0.1,0.1-0.1h4.2C8,12.2,8,12.3,8,12.3l0,0
				C8.1,12.4,8,12.4,8,12.4z"/>
		</g>
		<g>
			<g class="st19">
				<g>
					<g>
						<g>
							<ellipse class="st1" cx="23.7" cy="32.3" rx="3.8" ry="3.8"/>
						</g>
					</g>
				</g>
			</g>
			<g>
				<g>
					<g>
						<g>
							<g>
								<ellipse class="st5" cx="23.4" cy="32" rx="3.8" ry="3.8"/>
							</g>
						</g>
					</g>
				</g>
				<g>
					<g>
						<g>
							<g>
								<ellipse class="st6" cx="23.4" cy="31.9" rx="2.9" ry="2.9"/>
							</g>
						</g>
					</g>
				</g>
				<g>
					<g>
						<g>
							<g>
								<path class="st7" d="M26.3,32c0,1.6-1.2,2.9-2.8,2.9c-1.6,0-2.9-1.2-2.9-2.8c0-1.6,1.2-2.9,2.8-2.9
									C25.1,29.2,26.3,30.4,26.3,32z"/>
							</g>
						</g>
					</g>
				</g>
				<g>
					<g>
						<g>
							<g>
								<path class="st8" d="M26.3,32c0,1.6-1.2,2.9-2.8,2.9c-1.6,0-2.9-1.2-2.9-2.8c0-1.6,1.2-2.9,2.8-2.9
									C25.1,29.2,26.3,30.4,26.3,32z"/>
							</g>
						</g>
					</g>
				</g>
				<g>
					<g>
						<g>
							<g>
								<g>
									<g>
										<path class="st6" d="M23.6,31.8V31l0,0c0.1,0,0.2,0,0.3,0.1c0.1,0,0.2,0.1,0.2,0.1l0,0l0.1-0.2v-0.1l-0.1-0.1h-0.1
											c-0.1-0.1-0.3-0.1-0.6-0.1v-0.5l-0.1-0.1v0.1h-0.2v0.5c-0.6,0.1-0.8,0.3-0.8,0.8c0,0.6,0.5,0.7,0.9,0.8v0.7
											c-0.2,0-0.6-0.1-0.8-0.2L22.4,33c0.2,0.1,0.6,0.2,0.9,0.3v0.3h-0.1l0.1,0.1h0.3v-0.5c0.6-0.1,0.9-0.3,0.8-0.8
											C24.4,32,24,31.9,23.6,31.8z M23.3,31.8c-0.2-0.1-0.3-0.1-0.3-0.3c0-0.1,0.1-0.3,0.3-0.3V31.8z M23.6,31.1L23.6,31.1
											L23.6,31.1L23.6,31.1z M23.6,32.9v-0.7c0.2,0.1,0.3,0.1,0.3,0.3C24,32.7,23.8,32.8,23.6,32.9z"/>
									</g>
								</g>
							</g>
						</g>
					</g>
				</g>
				<g>
					<g>
						<g>
							<g>
								<g>
									<path class="st4" d="M23.5,33.2v0.5h-0.3v-0.5c-0.3,0-0.7-0.1-0.9-0.3l0.1-0.3c0.2,0.1,0.5,0.2,0.8,0.2v-0.7
										c-0.5-0.1-0.8-0.2-0.9-0.8c0-0.3,0.2-0.7,0.8-0.8v-0.5h0.3v0.5c0.2,0,0.6,0.1,0.8,0.2l-0.1,0.3c-0.2-0.1-0.5-0.2-0.6-0.2
										v0.8c0.5,0.1,0.9,0.2,0.9,0.7C24.3,32.8,24.1,33.1,23.5,33.2z M23.2,31.7V31c-0.2,0-0.3,0.2-0.3,0.3
										C22.8,31.4,22.9,31.5,23.2,31.7z M23.8,32.4c0-0.2-0.1-0.2-0.3-0.3v0.7C23.7,32.8,23.8,32.6,23.8,32.4z"/>
								</g>
							</g>
						</g>
					</g>
				</g>
			</g>
			<g>
				<circle class="st10" cx="26.3" cy="29.2" r="1.6"/>
				<path class="st20" d="M25.8,29.2l0.2,0.5c0,0,0.1,0.1,0.1,0l0.8-0.9"/>
				<circle class="st2" cx="26.3" cy="29.2" r="1.4"/>
			</g>
		</g>
	</g>
	<g>
		<path class="st21" d="M5.6,17.2c0,0,0.5-1.4,2.5-0.8c1.4,0.3,2.1,1.5,2,3C10,21.2,11,20.6,10.4,23c-0.5,1.6,1.6,2.9-0.2,5.4
			c-1.5,2-9.6,0.9-9.5-2.7c0-1.7,1.5-0.9,1.5-3.6c0-1.1,2.3-0.8,1.9-2.5C4.1,18.8,4.8,17.1,5.6,17.2z"/>
		<path class="st22" d="M8.1,22.3c0,0,0.6,0.3,0.5,1.1c-0.1,0.8-0.2,1.5,0.5,1.9"/>
		<path class="st22" d="M9.5,20.6c0.1,0.6,0.3,1,0,1.8c-0.8,1.7,0.8,2,0,3.6c-0.2,0.6-0.3,1-0.5,1.5"/>
		<polygon class="st23" points="9.9,29 12.5,29 11.7,28.2 10,28.4 		"/>
		<path class="st22" d="M5.3,21.5c0,0-0.8,0.5-0.7,1.1c0.1,1-0.9,1.2-0.7,1.8"/>
		<path class="st22" d="M4.9,18.8c0,0-0.3,0.7-0.2,1.4C4.8,21.5,3,21.5,3,22.9c0,0.8-0.7,1.4-1.1,1.8"/>
		<polygon id="_x3C_Path_x3E__00000020362313313429574110000009973829366033665680_" class="st24" points="17.4,44.3 17.4,45.9 
			16,45.9 15.7,44.6 		"/>
		<polygon id="_x3C_Path_x3E__00000137118393383351872080000006894182123488554369_" class="st24" points="13.1,44.8 12.9,46.5 
			11.3,46.6 11.1,45.4 		"/>
		<path class="st25" d="M6.7,33.3c1.7,0.9,5.1,2.6,7.1,3c0.1,0,0.3,0.1,0.3,0.3l1.2,8.1c0,0.1,0.1,0.2,0.2,0.3
			c0.5,0.1,1.5,0.3,2.3-0.6c0.1-0.1,0.1-0.2,0.1-0.3c-0.1-1.2-0.7-8.9-1-9.9c-0.5-1-6-2.1-6.6-2.3h-0.1l-3.3,0.6
			C6.4,32.7,6.4,33.1,6.7,33.3z"/>
		<path class="st25" d="M4.2,33.8c0,0-1.4,2.6,5.4,3.2c0.1,0,0.2,0.1,0.2,0.3l0.9,8.1c0,0.1,0.1,0.2,0.2,0.2
			c0.5,0.1,1.5,0.3,2.4-0.5c0.1-0.1,0.1-0.1,0.1-0.2c0-1.2-0.2-8.9-0.6-9.9s-5.3-2.3-6.4-2.5c-0.1,0-0.2,0-0.3,0.1L4.2,33.8z"/>
		<path class="st26" d="M11.1,45.2"/>
		<path class="st26" d="M9.2,37.1"/>
		<path class="st27" d="M4,23.4c2.1-0.7,4.6-0.1,5.1,0c0.5,0.1,1.1,0.7,1.7,2c0.7,1.2,0.7,1.2,0.7,1.2L10.2,27v5l0,0
			c-1.1,1-2.5,1.7-4.1,1.9l-1.7,0.3c-0.1,0-0.3-0.1-0.3-0.2l0.2-6.2l-2.1,0.1C2.1,27.9,2,24,4,23.4z"/>
		<path class="st23" d="M8.3,27.9l-3.9,1.1l-0.1-1.2l-1.8,0.1c0,0-0.5,3.2,0.7,3.3c1.7,0.1,5.9-2,5.9-2L8.3,27.9z"/>
		<path class="st23" d="M7.7,18.1c0.2-0.1,0.6,0,0.7,0.1c0.5,0.5,1,1.2,0.8,2.3c-0.2,1.2-0.5,1.9-1.1,1.9c-0.2,0-0.3,0.1-0.3,0.3
			v0.7l0,0c-0.2,1.1-1.8,1.2-2.3,0.2l-0.1-0.1c0-0.1,0-0.2,0-0.3c0.2-0.5,0.7-1.1,0.1-2.6c0-0.1-0.2-0.5-0.1-0.7
			c0.1-0.2,0.3-0.2,0.6-0.1c0,0,0.1,0,0.2,0C6.5,19.5,6.5,18.6,7.7,18.1z"/>
		<path class="st21" d="M7.8,18c0,0,0,0.5,0.7,0.8c0.8,0.5,0.3,0.9,0.7,1.5c0.5,0.7,0-0.6,0-0.6l-0.1-1.4c-0.2-0.9-0.6-1.5-1.5-1.2
			c-0.5,0.1-0.9,0.2-1.1,0.6c-0.7,0.8-0.8,2.6-0.8,2.6s0.7,0,1-0.9C7.3,18.5,7.3,18.4,7.8,18z"/>
		<path class="st3" d="M10.9,29.1L10.9,29.1c-0.6,0-1-0.5-1-1v-1.8c0-0.6,0.5-1,1-1l0,0c0.6,0,1,0.5,1,1v1.8
			C11.9,28.6,11.4,29.1,10.9,29.1z"/>
		<g>
			<g>
				<g>
					<g>
						<path class="st23" d="M13,27.8L13,27.8c-0.5-0.6-1-1.7-1.2-1.7c-0.1,0-0.1,0.1-0.1,0.3c0.1,0.7,0.3,0.8-0.2,0.7
							c-0.1,0-0.6-0.1-0.8-0.1s-0.3,0.1-0.2,0.3c0,0,0,0.1,0.1,0.1c0,0-0.1,0.5,0.2,0.6c0,0,0,0.5,0.3,0.5c0,0,0.3,0.2,1,0.5l0,0
							c0.3,0.2,0.7,0.1,0.9-0.1v-0.1C13.3,28.4,13.3,28.1,13,27.8z"/>
					</g>
				</g>
			</g>
			<path class="st28" d="M10.5,27.4c0.2,0.1,0.6,0.2,0.8,0.1"/>
			<path class="st28" d="M10.8,27.9c0,0,0.3,0.1,0.7,0.1"/>
		</g>
		<g>
			<g>
				<g>
					<path class="st23" d="M8.3,27.9l0.5-0.3c0.3-0.7,1-1.9,1.1-1.9c0.1,0.1,0.1,0.2,0.1,0.5c-0.2,0.7-0.1,1,0.2,0.9
						c0.1,0,1.2,0,1.2,0s0.2,0.2-0.1,0.5c0,0,0.1,0.5-0.3,0.5c0,0-0.1,0.5-0.5,0.5c0,0-0.3,0.1-1,0.3L9,29L8.3,27.9z"/>
				</g>
			</g>
		</g>
		<path class="st28" d="M11.2,27.7c-0.2,0-0.6,0.1-0.8,0"/>
		<path class="st28" d="M11,28.2c0,0-0.5,0.1-0.7,0"/>
		<g>
			<g>
				<g>
					<path class="st28" d="M9.9,25.8C10,25.9,10,26,10,26.3c-0.2,0.7-0.1,1,0.2,0.9c0.1,0,1.2,0,1.2,0s0.2,0.2-0.1,0.5
						c0,0,0.1,0.5-0.3,0.5c0,0-0.1,0.5-0.5,0.5c0,0-0.3,0.1-1,0.3"/>
				</g>
			</g>
		</g>
		<g>
			<g>
				<g>
					<path class="st28" d="M11.1,28.4c0.1,0.1,0.7,0.3,1,0.5l0,0"/>
				</g>
			</g>
		</g>
		<path class="st3" d="M17.5,45.6c0,0-0.5,0.3-1.8,0.2c0,0-0.1,0.8-0.5,1.2c-0.3,0.5,0.7,0.9,1.5,0.7c0.8-0.2,1.4,0.3,2.1,0.2
			c0.8-0.1,1.8-0.9,1.5-1.1c-0.5-0.2-1.8-0.2-2.3-0.8C17.9,45.6,17.5,45.6,17.5,45.6z"/>
		<path class="st29" d="M18.5,47.7c0.7,0.2,1.5-0.6,1.5-0.6"/>
		<path class="st29" d="M15.6,47.2c0,0,0.2,0.3,0.9,0.2c0.7-0.1,1.2,0,1.9,0.2"/>
		<path class="st3" d="M13.1,46.2c0,0-0.7,0.6-2,0.2c0,0,0,0.8-0.3,1.1c-0.3,0.5,0.6,1,1.4,0.8c0.8-0.2,1.4,0.5,2.1,0.3
			c0.8,0,1.9-0.8,1.5-1.1c-0.3-0.2-2-0.5-2.3-1C13.3,46.3,13.1,46.2,13.1,46.2z"/>
		<path class="st29" d="M13.9,48.4c0.7,0.2,1.5-0.6,1.5-0.6"/>
		<path class="st29" d="M11.1,47.8c0,0,0.2,0.3,0.9,0.3c0.7,0,1.2,0.1,1.9,0.3"/>
		<path class="st29" d="M13,36.6c-0.1-0.8-0.1-1.4-0.2-1.6c-0.2-0.6-1.9-1.2-3.5-1.7"/>
		<path class="st29" d="M13,40.6c0-1.1-0.1-2.4-0.2-3.5"/>
		<path class="st29" d="M11.7,45.5c0.5,0,0.9-0.1,1.4-0.6c0.1-0.1,0.1-0.1,0.1-0.2c0-0.3,0-1.5-0.1-2.7"/>
		<path class="st2" d="M10,32"/>
		<path class="st2" d="M11.2,35c0,0,0,1.1,1.2,1.5"/>
		<path class="st2" d="M15.4,34.1c0,0,0.2,1,1.4,1.6"/>
		<path class="st2" d="M15.7,44.6c0,0,1,0,1.8-0.6"/>
		<path class="st30" d="M5.1,23.7c0,0,0.2,1.2,1.9,0.9"/>
		<path class="st30" d="M7.8,23.8c0,0,0,0.3-0.5,0.7"/>
		<line class="st30" x1="2.3" y1="27.6" x2="3.7" y2="27.6"/>
		<line class="st30" x1="4.2" y1="27.7" x2="4.4" y2="26.8"/>
		<path class="st30" d="M6.4,33.3c-0.6,0.1-1.1,0.2-1.8,0.3"/>
		<path class="st30" d="M9.6,31.8c0,0-0.8,0.7-2.4,1.4"/>
		<path class="st30" d="M7.5,32.3c-0.3,0.1-0.7,0.2-1,0.2"/>
		<path class="st30" d="M9.5,31.1c0,0-0.6,0.6-1.4,1"/>
		<path class="st2" d="M6.6,34.3c0,0,0.5,0.9-0.3,1.7"/>
	</g>
</g>
</svg>
