<?xml version="1.0" encoding="utf-8"?>
<!-- Generator: Adobe Illustrator 25.2.1, SVG Export Plug-In . SVG Version: 6.00 Build 0)  -->
<svg version="1.1" id="Layer_1" xmlns="http://www.w3.org/2000/svg" xmlns:xlink="http://www.w3.org/1999/xlink" x="0px" y="0px"
	 viewBox="0 0 48 48" style="enable-background:new 0 0 48 48;" xml:space="preserve">
<style type="text/css">
	.st0{fill:#FFC261;}
	.st1{fill:#EFA94D;}
	.st2{fill:#E29E4B;}
	.st3{fill:#FFD371;}
	.st4{fill:#F2BD5F;}
	.st5{fill:#FFE4AE;}
	.st6{fill:#FFD9B0;}
	.st7{fill:#FFE9C2;}
	.st8{fill:#FFFFFF;}
	.st9{fill:#F7F7F7;}
	.st10{fill:#489BFF;}
	.st11{opacity:0.2;fill:#0655B5;}
	.st12{clip-path:url(#SVGID_2_);}
	.st13{fill-rule:evenodd;clip-rule:evenodd;fill:#76CBCD;}
	.st14{fill-rule:evenodd;clip-rule:evenodd;fill:#FFFFFF;}
	.st15{fill-rule:evenodd;clip-rule:evenodd;fill:#F0C272;}
	.st16{fill-rule:evenodd;clip-rule:evenodd;fill:#FFDA92;}
	.st17{fill-rule:evenodd;clip-rule:evenodd;fill:#555554;}
	.st18{fill-rule:evenodd;clip-rule:evenodd;fill:#EB5050;}
	.st19{fill-rule:evenodd;clip-rule:evenodd;fill:#6C5B4F;}
	.st20{opacity:0.3;fill-rule:evenodd;clip-rule:evenodd;fill:#BE672A;}
	.st21{fill:#D1D1D1;}
	.st22{fill:#E5AB4E;}
</style>
<g>
	<g>
		<path class="st0" d="M14.3,13.3l5-0.4c0.6,0,1.2,0.1,1.6,0.5l4.2,3c0.3,0.3,0.6,0.6,0.7,1l0.6,1.6c0.2,0.6-0.3,1.2-0.9,1.1h0
			c-0.9-0.1-1.7-0.5-2.3-1.2L23,18.5c-0.1-0.1-0.3-0.3-0.5-0.3l-3.2-1.6c-0.3-0.2-0.7-0.2-1-0.2l-3.5,0.5L14.3,13.3z"/>
		<g>
			<path class="st0" d="M13.2,17.4l0.4-2.4l5.9,1.1c0.8,0.1,1.4,0.6,1.8,1.3l1.4,3.5c0.3,0.8-0.3,1.6-1.1,1.5l0,0
				c-0.8-0.1-1.6-0.5-2-1.1l-1.1-1.4c-0.3-0.4-0.7-0.6-1.2-0.6l-3.5,0.1L13.2,17.4z"/>
			<path class="st1" d="M18.6,19.8l1.1,1.4c0.5,0.6,1.1,1,1.9,1.1c-0.7-1.5-1.6-3-2.2-3.7c-1-1-4-1-5.6-0.9l0.1,1.6l3.5-0.1
				C17.9,19.2,18.3,19.4,18.6,19.8z"/>
			<path class="st1" d="M19.4,15.4c-0.6,0-3.2,0-4.9,0l0.2,1.8l3.7-0.5c0.4-0.1,0.8,0,1.1,0.2l3.4,1.6c0.2,0.1,0.4,0.2,0.5,0.4
				l0.3,0.4c0.6,0.7,1.5,1.2,2.4,1.3c0.6,0.1,1.1-0.5,0.9-1.1l-1.6-1.3C25.5,18.1,20.2,15.4,19.4,15.4z"/>
			<path class="st2" d="M23.7,18.2c0,0-3.6-1.5-4-1.8c-0.4-0.2-0.3-0.7-0.3-0.7C19,15.9,19,16.3,19,16.3c-0.4-0.2-3.2,0.3-4.3,0.5
				l0,0.4l3.7-0.5c0.4-0.1,0.8,0,1.1,0.2l3.4,1.6c0.2,0.1,0.4,0.2,0.5,0.4l0.3,0.4c0.2,0.3,0.5,0.5,0.8,0.7L23.7,18.2z"/>
			<path class="st0" d="M15.1,9l6.1-0.6c0.5,0,0.9,0,1.3,0.3l4.9,2.6c0.5,0.3,0.9,0.8,1.1,1.3l0.8,2.7c0.2,0.6-0.3,1.2-0.9,1.1l0,0
				c-0.8,0-1.5-0.4-1.9-1.1L26.2,15c-0.3-0.4-0.7-0.8-1.3-0.9l-4.7-1.3c-0.4-0.1-0.8-0.1-1.2,0.1l-5.4,1.9L12.1,11L15.1,9z"/>
			<path class="st1" d="M25,14.2c0.3,0.1,0.5,0.2,0.7,0.3l-0.5-1.7c0,0-3.6-1.7-4.2-1.9c-0.7-0.2-6.9,1.1-6.9,1.1l-0.5,2.2l0.3,0.8
				l5.4-1.9c0.4-0.1,0.8-0.2,1.2-0.1L25,14.2z"/>
			<path class="st2" d="M23.2,13.3c0,0-2.5-0.4-2.8-0.9c-0.3-0.5,0-0.9,0-0.9s-0.8,0.2-0.7,0.9l-4.8,1.4l0.1,0.5l4.1-1.5
				c0.4-0.1,0.8-0.2,1.2-0.1l4.7,1.3c0.3,0.1,0.5,0.2,0.7,0.3l-0.2-0.8l-0.5-0.1L23.2,13.3z"/>
			<path class="st2" d="M19.7,20.6c-0.5-0.5-0.9-1.2-1.2-1.6c-0.3-0.4,0-0.7,0-0.7s-0.4,0.1-0.5,0.6l-4.2-0.3l0,0.6
				c0,0,0.1,0.1,0.1,0.1l3.4-0.1c0.5,0,0.9,0.2,1.2,0.6l1.1,1.4c0.4,0.6,1.1,0.9,1.8,1.1C21.3,22.1,20.1,21.1,19.7,20.6z"/>
		</g>
		<path class="st3" d="M0,28.9c0-0.1,1.4-0.2,2.8-2.5c1-1.6,0.4-4.4,0.9-6.2L6,12.9c0.3-0.9,0.8-1.7,1.4-2.3l6.8-6.4
			c0.4-0.4,1-0.7,1.6-0.8l6.4-1.2c0.4-0.1,0.8-0.1,1.1,0.1l4.7,1.3c0.9,0.3,0.8,1,0.5,1.4l0,0c-0.8,0.8-1.8,1.2-2.8,1.2
			c-1.1,0-2.7,0-3.3,0c-0.2,0-0.4,0-0.6,0.1l-3.4,1.4c-0.5,0.1-0.9,0.5-1.2,0.9l-2.4,4.6c0,0,1.3,3,2.1,8.5l1.1,0.4l3.4-1.8
			c2.2-1.2,4.6-1.7,7.1-1.6l0,0c0.9-0.1,1.7,0.3,2.2,1.1l0.1,0.2c0.3,0.5,0.1,1.2-0.4,1.5L28.1,23c-1.2,0.8-2.4,1.7-3.5,2.6
			l-5.1,3.9c-2.4,2.2-8.5,4.3-8.5,4.3L4.8,44.9H0L0,28.9z"/>
		<path class="st4" d="M13.8,4.6l-6.4,6c-0.7,0.6-1.2,1.4-1.4,2.3l-2.1,7.2c-0.6,1.8-1,3.9-1.5,5c-1.2,2.4-2.2,3.6-2.3,3.7l0,5.6
			c1.8-1.5,2.5-2.1,3.6-3.2c1.9-2,2-5.3,2.6-8.1C7,20.2,7.5,15,7.5,14c0-1,0.3-2.2,1.4-2.9S13.8,4.6,13.8,4.6L13.8,4.6z"/>
		<path class="st5" d="M26.6,3.4c0.1,0.2,1.6,0.7,1.7,0.6c0,0,0.1-0.1,0.2-0.3c-0.1-0.1-0.2-0.1-0.3-0.2l-1.5-0.4
			C26.5,3.3,26.5,3.4,26.6,3.4z"/>
		<path class="st6" d="M27.1,3.3l-0.5-0.2c0,0.1-0.1,0.2,0,0.2c0,0,0.2,0.1,0.3,0.2C27,3.5,27.1,3.4,27.1,3.3z"/>
		<path class="st4" d="M22,5.7c-0.5-0.5-0.3-1-0.3-1s-0.5,0.5,0.1,1.4c0,0-3.6,1.1-4.2,1.3c-0.6,0.1-1.4-0.6-1.4-0.6
			s0.3,0.7,0.9,1.1c0,0-2.2,5-3.7,4.5c0,0,0.1,0.4,0.7,0.6c0,0,0,0,0,0c0.4,0.4,0.5,1,0.4,1.6c-0.1,0.6-0.4,1.4-0.7,2.4
			c-0.5,1.5-1.3,2.6-1.3,2.6s2.5,1.7,4.2,2.2c0-2.2-0.6-2.7-0.6-3.9c0-2.2-0.9-3.8-1.5-4.6l0,0l2.4-4.6c0.3-0.5,0.7-0.8,1.2-0.9
			l3.4-1.4c0.2-0.1,0.4-0.1,0.6-0.1c0.1,0,0.1,0,0.2,0C22.4,6,22.2,5.9,22,5.7z"/>
		<path class="st7" d="M22.8,2.4c-0.2,0.2-0.3,0.5-0.2,0.8c0,0,0,0,0,0c0-0.1,0-0.3,0.1-0.4C22.7,2.7,22.8,2.6,22.8,2.4
			C22.9,2.4,22.8,2.4,22.8,2.4z"/>
		<path class="st7" d="M22.5,2.4C22.5,2.3,22.5,2.3,22.5,2.4c-0.1,0.1-0.2,0.2-0.2,0.4c0,0.1,0,0.2,0,0.3c0,0,0.1,0,0,0
			c-0.1-0.1,0-0.2,0-0.3C22.5,2.6,22.5,2.5,22.5,2.4z"/>
		<path class="st7" d="M26.1,21.3c-0.2-0.3-0.3-0.6-0.2-1c0,0,0-0.1-0.1,0C25.6,20.7,25.8,21.1,26.1,21.3
			C26,21.4,26.1,21.4,26.1,21.3z"/>
		<path class="st7" d="M24.8,23.1c-0.1-0.3-0.3-0.5-0.3-0.8c0-0.1-0.1,0-0.1,0C24.5,22.6,24.6,22.9,24.8,23.1
			C24.8,23.2,24.9,23.1,24.8,23.1z"/>
		<path class="st7" d="M18.8,22.4C18.7,22.4,18.7,22.5,18.8,22.4C18.9,22.5,18.9,22.4,18.8,22.4z"/>
		<path class="st7" d="M17,22.6c-0.7-0.4-1.4-0.8-2.1-1.2c-0.8-0.4-1.6-0.8-2.2-1.3c0,0-0.1,0,0,0c0.6,0.6,1.2,1.2,2,1.6
			c0.8,0.5,1.5,0.7,2.4,1C17,22.8,17.1,22.6,17,22.6z"/>
		<path class="st7" d="M29,18.7c-1.2-0.6-2.8-0.1-4,0.2c-1.4,0.5-2.8,1.2-4,2c0,0,0,0.1,0,0.1c1.2-0.6,2.5-1.1,3.8-1.5
			c1.3-0.4,2.7-1,4.1-0.7C29,18.8,29.1,18.7,29,18.7z"/>
		<path class="st7" d="M20.6,2.9c-0.9,0-1.7,0.3-2.5,0.4c-0.7,0.1-1.6,0.1-2.2,0.6c0,0,0,0,0,0c0.7-0.3,1.6-0.1,2.3-0.3
			C19,3.4,19.8,3.1,20.6,2.9C20.6,2.9,20.6,2.9,20.6,2.9z"/>
		<path class="st7" d="M25.5,3.2c-0.6-0.5-1.4-0.3-2-0.6c-0.1,0-0.1,0.1,0,0.1c0.7,0.3,1.3,0.5,2,0.6C25.6,3.3,25.6,3.2,25.5,3.2z"
			/>
		<path class="st7" d="M25.7,3.3C25.7,3.3,25.7,3.3,25.7,3.3C25.7,3.3,25.7,3.3,25.7,3.3z"/>
		<path class="st3" d="M20,8.9c-0.4,0-0.8,0-1.2,0C18.4,9,18,9.1,17.6,9.2c0,0,0,0.1,0,0.1c0.4,0,0.9,0.1,1.3,0
			C19.3,9.2,19.7,9.1,20,8.9C20.1,9,20.1,8.9,20,8.9z"/>
		<path class="st3" d="M21.5,8.5c-0.3,0.1-0.3,0.5-0.3,0.8c0,0.1,0.2,0.1,0.2,0c0-0.1,0-0.2,0.1-0.4C21.5,8.8,21.6,8.7,21.5,8.5
			C21.6,8.6,21.6,8.5,21.5,8.5z"/>
		<path class="st3" d="M21.8,9.1c-0.1,0-0.1,0.2,0,0.2C21.9,9.3,21.9,9.1,21.8,9.1z"/>
		<path class="st3" d="M20,13.1c-0.1,0-0.2,0-0.3,0c-0.1,0,0,0.1,0,0.1c0.1,0,0.1,0,0.2,0c0.1,0,0.1,0.1,0.2,0.1c0,0,0.1,0,0.1-0.1
			C20.2,13.2,20.1,13.1,20,13.1z"/>
		<path class="st3" d="M20.3,13.6c-0.1,0-0.2,0.1-0.3,0.2c-0.1,0.1-0.1,0.3-0.1,0.4c0,0.1,0.1,0.1,0.1,0c0-0.1,0.1-0.2,0.1-0.3
			c0,0,0.1-0.1,0.1-0.1C20.3,13.7,20.3,13.7,20.3,13.6C20.3,13.6,20.3,13.6,20.3,13.6z"/>
		<path class="st3" d="M20.4,14.1c-0.1,0-0.1,0.1,0,0.1C20.5,14.2,20.5,14.1,20.4,14.1z"/>
		<path class="st3" d="M22.1,14.8c-0.1-0.2-0.3-0.3-0.5-0.5c-0.2-0.1-0.4-0.3-0.6-0.4c-0.1,0-0.2,0.1-0.1,0.1
			c0.2,0.2,0.3,0.3,0.5,0.5c0.2,0.1,0.3,0.3,0.5,0.4C22.1,14.9,22.1,14.8,22.1,14.8z"/>
		<path class="st3" d="M21.9,19.4c-0.1-0.3-0.2-0.6-0.3-0.9c-0.1-0.3-0.2-0.6-0.4-0.8c0,0-0.1,0-0.1,0c0,0.3,0.2,0.5,0.3,0.8
			c0.1,0.3,0.3,0.6,0.4,0.9C21.8,19.6,22,19.5,21.9,19.4z"/>
	</g>
	<g>
		<g>
			<rect x="21.6" y="4.6" class="st8" width="25.8" height="15.8"/>
			<polygon class="st9" points="37.9,20.5 21.6,20.5 21.6,4.6 33.4,4.6 			"/>
			<g>
				<path class="st10" d="M47.4,10.3H33.6c-0.5,0-1-0.3-1.2-0.7l0,0c-0.2-0.4-0.7-0.7-1.2-0.7h-8.3c-0.8,0-1.4-0.6-1.4-1.4V4.6h25.8
					V10.3z"/>
				<g>
					<path class="st11" d="M39.6,4.6h-18v2.9c0,0.8,0.6,1.4,1.4,1.4h8.3c0.5,0,1,0.3,1.2,0.7c0.2,0.4,0.7,0.7,1.2,0.7h10.8L39.6,4.6
						z"/>
					<path class="st11" d="M47.4,4.6H21.6v2.9c0,0.8,0.6,1.4,1.4,1.4h8.3c0.5,0,1,0.3,1.2,0.7c0.2,0.4,0.7,0.7,1.2,0.7h2.3l11.5-3.8
						V4.6z"/>
					<path class="st11" d="M33.4,4.6H21.6v2.9c0,0.8,0.6,1.4,1.4,1.4h8.3c0.5,0,1,0.3,1.2,0.7c0.2,0.4,0.7,0.7,1.2,0.7h1.3
						C34.4,8.4,33.9,6.4,33.4,4.6z"/>
				</g>
			</g>
		</g>
		<g>
			<g>
				<defs>
					<path id="SVGID_1_" d="M26.5,17.5L26.5,17.5c-0.8,0-1.5-0.3-2.1-0.8c-0.6-0.5-0.9-1.3-0.9-2.2v-1.2c0-1,0.5-1.9,1.2-2.4
						c0.5-0.4,1.1-0.6,1.8-0.6h0c0.8,0,1.6,0.3,2.1,0.9c0.5,0.5,0.9,1.3,0.9,2.1v1.2c0,1.1-0.5,2-1.4,2.5
						C27.7,17.3,27.1,17.5,26.5,17.5z"/>
				</defs>
				<clipPath id="SVGID_2_">
					<use xlink:href="#SVGID_1_"  style="overflow:visible;"/>
				</clipPath>
				<g class="st12">
					<g>
						<rect x="23.4" y="9.9" class="st8" width="6.3" height="7.9"/>
						<rect x="23.5" y="10" class="st13" width="6.1" height="7.7"/>
					</g>
					<g>
						<g>
							<path class="st14" d="M25.5,16l0.3,1.6c0,0,1.5,0,1.5,0s0.3-1.6,0.3-1.6l-1.3-0.4L25.5,16z"/>
							<polygon class="st15" points="27.2,15.6 26.6,16.2 25.9,15.6 25.9,14.8 27.2,14.8 							"/>
							<path class="st16" d="M28.7,13.2c-0.1-0.3-0.4-0.2-0.6-0.1c-0.2-0.9-0.8-1.5-1.6-1.5s-1.4,0.6-1.6,1.5
								c-0.2-0.1-0.5-0.2-0.6,0.1c-0.2,0.4,0.3,1,0.7,1c0.2,0.7,0.8,1.2,1.5,1.2c0.7,0,1.3-0.5,1.5-1.2
								C28.4,14.2,28.9,13.6,28.7,13.2z"/>
							<polygon class="st14" points="25.9,15.6 25.5,16 25.7,17 26.6,16.2 							"/>
							<polygon class="st14" points="27.2,15.6 27.6,16 27.4,17 26.6,16.2 							"/>
							<polygon class="st17" points="25.5,16 23.5,16.7 23.5,17.7 25.8,17.7 							"/>
							<polygon class="st17" points="27.6,16 29.6,16.7 29.6,17.7 27.3,17.7 							"/>
							<polygon class="st18" points="26.9,16.6 26.6,16.2 26.2,16.6 26.3,17 26.2,17.7 26.6,17.7 26.9,17.7 26.8,17 							"/>
							<path class="st19" d="M26.6,11.1c0,0-2-0.1-1.8,2c0,0,0.3,0,0.4,0.7h0.1c0,0,0-0.6,0-0.9c0.1-0.4,0.4-0.5,0.6-0.4
								c0,0,0.4,0.2,0.7,0.2v0c0.3,0,0.7-0.2,0.7-0.2c0.1-0.1,0.5,0,0.6,0.4c0,0.3,0,0.9,0,0.9H28c0.1-0.7,0.4-0.7,0.4-0.7
								C28.6,11,26.6,11.1,26.6,11.1z"/>
						</g>
						<path class="st20" d="M26.6,11.1c0,0-2-0.1-1.8,2c-0.1,0-0.3,0-0.3,0.2c-0.2,0.4,0.3,1,0.7,1c0.1,0.5,0.4,0.8,0.8,1.1v0.3
							L25.5,16l-2,0.6v1h2.3c0,0,0.2,0,0.4,0c0.1,0,0.2,0,0.4,0c0,0,0,0,0,0V11.1z M24.7,13.1C24.7,13.1,24.7,13.1,24.7,13.1
							C24.7,13.1,24.7,13.1,24.7,13.1z"/>
					</g>
				</g>
			</g>
		</g>
		<g>
			<g>
				<path class="st8" d="M23,6.9l0.8,0.7l0.8-0.7l-0.8-0.7L23,6.9z M23.8,7.4l-0.5-0.5l0.5-0.5l0.5,0.5L23.8,7.4z"/>
				<polygon class="st8" points="23.7,6.8 23.5,6.9 23.7,7.1 23.8,7.2 23.9,7.1 24.1,6.9 23.9,6.8 23.8,6.6 				"/>
				<rect x="25.2" y="6.5" class="st8" width="4.8" height="0.4"/>
				<rect x="25.2" y="7.1" class="st8" width="3.4" height="0.3"/>
			</g>
			<g>
				<rect x="31.2" y="11.8" class="st21" width="3.5" height="0.8"/>
				<rect x="37.4" y="11.8" class="st21" width="8.4" height="0.8"/>
				<g>
					<rect x="35.7" y="11.8" class="st21" width="0.3" height="0.3"/>
					<rect x="35.7" y="12.4" class="st21" width="0.3" height="0.3"/>
				</g>
			</g>
			<g>
				<rect x="31.2" y="13.8" class="st21" width="3.5" height="0.8"/>
				<rect x="37.4" y="13.8" class="st21" width="8.4" height="0.8"/>
				<g>
					<rect x="35.7" y="13.8" class="st21" width="0.3" height="0.3"/>
					<rect x="35.7" y="14.4" class="st21" width="0.3" height="0.3"/>
				</g>
			</g>
			<g>
				<rect x="31.2" y="15.9" class="st21" width="3.5" height="0.8"/>
				<rect x="37.4" y="15.9" class="st21" width="8.4" height="0.8"/>
				<g>
					<rect x="35.7" y="15.9" class="st21" width="0.3" height="0.3"/>
					<rect x="35.7" y="16.4" class="st21" width="0.3" height="0.3"/>
				</g>
			</g>
			<rect x="34.7" y="18.4" class="st21" width="11" height="0.4"/>
			<rect x="34.7" y="6.3" class="st8" width="11" height="1.1"/>
			<rect x="36.3" y="8" class="st8" width="7.7" height="0.4"/>
		</g>
	</g>
	<g>
		<g>
			<path class="st3" d="M24.6,25.6c1.1-0.9,2.3-1.8,3.5-2.6l2.3-1.6c0.5-0.3,0.7-0.9,0.4-1.5l-0.1-0.2c-0.4-0.7-1-1.4-2-1.5
				c-0.2,0-0.4,0-0.6,0c-0.9,0.1-4,0.5-6.6,2l-3.4,1.8L17,21.7l-6,12c0,0,6.1-2.1,8.5-4.3L24.6,25.6z"/>
			<path class="st4" d="M30.5,21.4c0.5-0.3,0.7-0.9,0.5-1.4c-0.4,0.3-1.2,0.5-1.9,1c-1.2,0.9-2.2,0.7-2.8,1.6
				c-0.4,0.6-1.1,0.8-2.2,1.3c-1,0.4-5,3.4-6.3,3.6c-1.3,0.2-7.2,2.9-7.9,3.7C9.1,32,4.5,41.5,1.8,44.9h2.9L11,33.7
				c0,0,6.1-2.1,8.5-4.3l5.1-3.9c1.1-0.9,2.3-1.8,3.5-2.6L30.5,21.4z"/>
			<path class="st22" d="M28.8,22.3c0,0-1.6,1-2.1,1.1c-0.4,0-1.1,0-1.1,0s0.4,0.7,0,1.1c-0.4,0.4-4.6,3.4-6.5,4.8
				c-1.9,1.4-3.1,0.6-3.1,0.6s0.3,0.5,1,0.6s-3,1.8-4.1,2c-1.1,0.2-2.3,1.2-2.9,1.5c-0.6,0.3-0.9,0.6-0.9,0.6
				c0.9-0.5,0.8,0.3,0.8,0.3c-0.5,1-4.4,8.1-5.5,10.1h0.4L11,33.7c0,0,6.1-2.1,8.5-4.3l5.1-3.9c1.1-0.9,2.3-1.8,3.5-2.6l0.7-0.5
				L28.8,22.3z"/>
		</g>
		<path class="st5" d="M28.2,19.5c-0.8,0.2-2.1,0.6-2,1.1c0,0.4,0.7,2,1.7,2.5C28,23.1,28,23,28.1,23l2.2-1.5c0-0.2,0-0.4-0.1-0.7
			C29.9,20,29.2,19.2,28.2,19.5z"/>
		<path class="st6" d="M26.2,20.7c0,0.4,0.7,2,1.7,2.5c0.1,0,0.1-0.1,0.2-0.2c0.1-1.6-1.2-2.4-1.7-2.7
			C26.3,20.4,26.2,20.5,26.2,20.7z"/>
		<path class="st7" d="M25.3,23.3c-0.1-0.2-0.3-0.3-0.4-0.5c-0.1-0.2-0.2-0.4-0.3-0.6c0,0-0.1,0-0.1,0
			C24.7,22.6,24.9,23.1,25.3,23.3C25.3,23.4,25.4,23.4,25.3,23.3z"/>
		<path class="st7" d="M25.7,23.1c-0.1-0.2-0.3-0.3-0.4-0.5c-0.1-0.2-0.2-0.4-0.3-0.6c0,0-0.1,0-0.1,0
			C25.1,22.3,25.3,22.9,25.7,23.1C25.7,23.2,25.7,23.1,25.7,23.1z"/>
	</g>
</g>
</svg>
