<?xml version="1.0" encoding="utf-8"?>
<!-- Generator: Adobe Illustrator 25.2.1, SVG Export Plug-In . SVG Version: 6.00 Build 0)  -->
<svg version="1.1" id="Layer_1" xmlns="http://www.w3.org/2000/svg" xmlns:xlink="http://www.w3.org/1999/xlink" x="0px" y="0px"
	 viewBox="0 0 48 48" style="enable-background:new 0 0 48 48;" xml:space="preserve">
<style type="text/css">
	.st0{fill:#9C9B9B;}
	.st1{fill:#00B0C2;}
	.st2{fill:#868686;}
	.st3{fill:#FFFFFF;}
	.st4{fill:#576171;}
	.st5{fill:#E5332A;}
	.st6{fill:#C6C6C5;}
	.st7{fill:#D32A26;}
	.st8{fill:#8B1F14;}
	.st9{fill:#F6C6AD;}
	.st10{fill:#D9D9D9;}
	.st11{opacity:0.5;fill:#FFFFFF;}
	.st12{fill:#ECECEC;}
	.st13{fill:#BD1622;}
	.st14{fill:#422918;}
	.st15{fill:#DDDDDD;}
</style>
<g>
	<ellipse class="st0" cx="19.9" cy="40.1" rx="10.4" ry="1.5"/>
	<g>
		<g>
			<path class="st1" d="M14.6,16.2c0,2.4-1.9,4.3-4.3,4.3c-2.4,0-4.3-1.9-4.3-4.3c0-2.4,1.9-4.3,4.3-4.3
				C12.6,11.9,14.6,13.8,14.6,16.2z"/>
			<g>
				<path class="st2" d="M13.9,16.2C13.9,16.2,13.9,16.2,13.9,16.2C13.9,16.2,13.9,16.2,13.9,16.2c0.1-0.1,0.2-0.1,0.2-0.1
					c0,0-0.1-0.1-0.2-0.1c0,0,0,0-0.1,0c0,0,0,0,0.1,0c0.1,0,0.2,0,0.2-0.1c0,0-0.1-0.1-0.2-0.1c0,0,0,0-0.1,0c0,0,0,0,0.1,0
					c0.1,0,0.2-0.1,0.2-0.1c0,0-0.1,0-0.2-0.1c0,0,0,0-0.1,0c0,0,0,0,0.1,0c0.1,0,0.2-0.1,0.1-0.1c0,0-0.1,0-0.2,0c0,0-0.1,0-0.1,0
					c0,0,0,0,0.1,0c0.1-0.1,0.1-0.1,0.1-0.1c0,0-0.1,0-0.2,0c0,0-0.1,0-0.1,0c0,0,0,0,0.1-0.1c0.1-0.1,0.1-0.1,0.1-0.2
					c0,0-0.1,0-0.2,0c0,0-0.1,0-0.1,0c0,0,0,0,0-0.1c0.1-0.1,0.1-0.1,0.1-0.2c0,0-0.1,0-0.2,0.1c0,0,0,0-0.1,0c0,0,0-0.1,0-0.1
					c0-0.1,0.1-0.2,0-0.2c0,0-0.1,0-0.2,0.1c0,0,0,0-0.1,0.1c0,0,0-0.1,0-0.1c0-0.1,0-0.2,0-0.2c0,0-0.1,0-0.1,0.1c0,0,0,0,0,0.1
					c0,0,0-0.1,0-0.1c0-0.1,0-0.2-0.1-0.2c0,0-0.1,0-0.1,0.2c0,0,0,0.1,0,0.1c0,0,0,0,0-0.1c0-0.1,0-0.2-0.1-0.2c0,0,0,0,0,0
					c0,0-0.1,0.1-0.1,0.2c0,0,0,0.1,0,0.1c0,0,0,0,0,0l0,0c-0.9-0.9-2.3-0.9-2.5-0.9c0,0,0,0,0,0c0,0,0,0,0,0c0,0,0,0,0,0
					c0,0,0,0,0,0c-0.2,0-1.7,0-2.6,1.1c0,0-0.4,0.4-0.3,0.9h1.2l0,0.1H7.4c0,0.1,0,0.1,0.1,0.2h0.8h0.1h0.1l-0.4,1.9
					c0,0.1,0.1,0.3,0.3,0.3H12c0.2,0,0.3-0.1,0.3-0.3l0-0.2c0,0,0,0,0,0c0,0,0.1,0,0.1-0.2c0,0,0,0,0,0c0,0,0,0,0,0
					c0,0.1,0,0.2,0.1,0.2c0,0,0,0,0,0c0,0,0.1,0,0.1-0.2c0,0,0,0,0,0c0,0,0,0,0,0c0,0.1,0,0.2,0.1,0.2c0,0,0-0.1,0.1-0.2
					c0,0,0,0,0,0c0,0,0,0,0,0c0,0.1,0.1,0.2,0.1,0.2c0,0,0-0.1,0.1-0.2c0,0,0,0,0,0c0,0,0,0,0,0c0,0.1,0.1,0.2,0.1,0.1
					c0,0,0-0.1,0-0.2c0,0,0,0,0,0c0,0,0,0,0,0c0.1,0.1,0.1,0.1,0.1,0.1c0,0,0-0.1,0-0.2c0,0,0,0,0-0.1c0,0,0,0,0,0
					c0.1,0.1,0.1,0.1,0.1,0.1c0,0,0-0.1,0-0.2c0,0,0,0,0-0.1c0,0,0,0,0,0c0.1,0.1,0.1,0.1,0.2,0.1c0,0,0-0.1,0-0.2c0,0,0,0,0,0
					c0,0,0,0,0,0c0.1,0.1,0.1,0.1,0.2,0.1c0,0,0-0.1-0.1-0.2c0,0,0,0,0,0c0,0,0,0,0,0c0.1,0.1,0.2,0.1,0.2,0c0,0,0-0.1-0.1-0.2
					c0,0,0,0,0,0c0,0,0,0,0,0c0.1,0,0.2,0.1,0.2,0c0,0,0-0.1-0.1-0.1c0,0,0,0,0,0c0,0,0,0,0,0c0.1,0,0.2,0,0.2,0c0,0,0-0.1-0.1-0.1
					c0,0,0,0,0,0c0,0,0,0,0,0c0.1,0,0.2,0,0.2,0c0,0,0-0.1-0.1-0.1c0,0,0,0-0.1,0c0,0,0,0,0,0c0.1,0,0.2,0,0.2-0.1
					c0,0,0-0.1-0.1-0.1c0,0-0.1,0-0.1,0c0,0,0,0,0.1,0c0.1,0,0.2,0,0.2-0.1c0,0,0-0.1-0.2-0.1c0,0,0,0-0.1,0c0,0,0,0,0.1,0
					c0.1,0,0.2,0,0.2-0.1C14.1,16.2,14,16.2,13.9,16.2z M10.2,14.6L10.2,14.6C10.2,14.6,10.2,14.6,10.2,14.6
					C10.2,14.6,10.2,14.6,10.2,14.6L10.2,14.6c1.9-0.1,1.4,0.4,1.4,0.4s-0.1,0.1-0.2,0.4h-0.3c0.2-0.2,0.1-0.6,0.1-0.6H11h-0.2
					c0.1,0.1,0,0.3,0,0.3h-0.4H10H9.6c0,0-0.1-0.2,0-0.3H9.4H9.2c0,0-0.1,0.4,0.1,0.6H9.2C9.1,15.1,8.9,15,8.9,15
					S8.3,14.5,10.2,14.6z M10.2,17.9c-0.6,0-1.1-0.5-1.1-1.1c0-0.6,0.5-1.1,1.1-1.1c0.6,0,1.1,0.5,1.1,1.1
					C11.3,17.4,10.8,17.9,10.2,17.9z M13.9,16.3c-0.1,0-0.2,0-0.2,0.1c0,0,0.1,0.1,0.2,0.1c0,0,0,0,0.1,0c0,0-0.1,0-0.1,0
					c-0.1,0-0.2,0-0.2,0.1c0,0,0,0.1,0.2,0.1c0,0,0,0,0.1,0c0,0-0.1,0-0.1,0c-0.1,0-0.2,0-0.2,0.1c0,0,0,0.1,0.2,0.1c0,0,0,0,0,0
					c0,0,0,0,0,0c-0.1,0-0.2,0-0.2,0c0,0,0,0.1,0.1,0.1c0,0,0,0,0,0c0,0,0,0,0,0c-0.1,0-0.2,0-0.2,0c0,0,0,0.1,0.1,0.1c0,0,0,0,0,0
					c0,0,0,0,0,0c-0.1,0-0.2-0.1-0.2,0c0,0,0,0.1,0.1,0.2c0,0,0,0,0,0c0,0,0,0,0,0c-0.1-0.1-0.1-0.1-0.2,0c0,0,0,0.1,0.1,0.2
					c0,0,0,0,0,0c0,0,0,0,0,0c-0.1-0.1-0.1-0.1-0.2-0.1c0,0,0,0.1,0,0.2c0,0,0,0,0,0c0,0,0,0,0,0c-0.1-0.1-0.1-0.1-0.2-0.1
					c0,0,0,0.1,0,0.2c0,0,0,0,0,0c0,0,0,0,0,0c-0.1-0.1-0.1-0.1-0.1-0.1c0,0,0,0.1,0,0.2c0,0,0,0,0,0c0,0,0,0,0,0
					C13,17.6,13,17.5,13,17.5c0,0,0,0.1,0,0.2c0,0,0,0,0,0c0,0,0,0,0,0c0-0.1-0.1-0.2-0.1-0.1c0,0,0,0.1,0,0.2c0,0,0,0,0,0
					c0,0,0,0,0,0c0-0.1,0-0.2-0.1-0.2c0,0,0,0.1-0.1,0.2c0,0,0,0,0,0c0,0,0,0,0,0c0-0.1,0-0.2-0.1-0.2c0,0,0,0,0,0
					c0,0-0.1,0-0.1,0.2c0,0,0,0,0,0c0,0,0,0,0,0c0-0.1,0-0.2-0.1-0.2c0,0-0.1,0-0.1,0.2c0,0,0,0,0,0c0,0,0,0,0,0
					c0-0.1,0-0.2-0.1-0.2c0,0,0,0,0,0l-0.3-1.4h0.2h0.1h0.8c0-0.1,0-0.1,0.1-0.2h-1.3l0-0.1h1.3c0.1-0.6-0.3-0.9-0.3-0.9
					c0,0-0.1-0.1-0.1-0.1c0,0,0-0.1,0-0.2c0,0,0,0,0-0.1c0,0,0,0,0,0.1c0,0.1,0,0.2,0.1,0.2c0,0,0,0,0,0c0,0,0.1,0,0.1-0.2
					c0,0,0,0,0,0c0,0,0,0,0,0.1c0,0.1,0,0.2,0.1,0.2c0,0,0.1,0,0.1-0.1c0,0,0,0,0,0c0,0,0,0,0,0c0,0.1,0,0.2,0,0.2
					c0,0,0.1,0,0.2-0.1c0,0,0,0,0,0c0,0,0,0,0,0c0,0.1-0.1,0.2,0,0.2c0,0,0.1,0,0.2-0.1c0,0,0,0,0,0c0,0,0,0,0,0
					c-0.1,0.1-0.1,0.1-0.1,0.2c0,0,0.1,0,0.2,0c0,0,0,0,0,0c0,0,0,0,0,0c-0.1,0.1-0.1,0.1-0.1,0.2c0,0,0.1,0,0.2,0c0,0,0,0,0.1,0
					c0,0,0,0,0,0c-0.1,0.1-0.1,0.1-0.1,0.1c0,0,0.1,0,0.2,0c0,0,0,0,0.1,0c0,0,0,0-0.1,0c-0.1,0-0.2,0.1-0.1,0.1c0,0,0.1,0,0.2,0.1
					c0,0,0,0,0.1,0c0,0,0,0-0.1,0c-0.1,0-0.2,0.1-0.2,0.1c0,0,0.1,0.1,0.2,0.1c0,0,0,0,0.1,0c0,0,0,0-0.1,0c-0.1,0-0.2,0-0.2,0.1
					c0,0,0.1,0.1,0.2,0.1c0,0,0,0,0.1,0c0,0,0,0-0.1,0c-0.1,0-0.2,0-0.2,0.1C13.7,16.2,13.8,16.2,13.9,16.3
					C13.9,16.3,13.9,16.3,13.9,16.3C13.9,16.3,13.9,16.3,13.9,16.3z"/>
				<path class="st2" d="M12.1,18.5H8.3c-0.1,0-0.2,0-0.2-0.1v0.3c0,0.2,0.1,0.3,0.3,0.3H12c0.2,0,0.3-0.1,0.3-0.3v-0.3
					C12.2,18.5,12.2,18.5,12.1,18.5z"/>
				<path class="st2" d="M9.4,16.9C9.4,16.9,9.4,16.9,9.4,16.9C9.4,16.9,9.4,16.9,9.4,16.9C9.4,16.9,9.4,16.9,9.4,16.9
					C9.5,16.9,9.5,16.9,9.4,16.9C9.5,16.9,9.5,16.9,9.4,16.9c0.1,0,0.1-0.1,0.1-0.1c0-0.1,0-0.1-0.1-0.1c0,0,0,0,0,0c0,0,0,0,0,0
					c-0.1,0-0.1,0.1-0.1,0.1C9.3,16.9,9.3,16.9,9.4,16.9C9.4,16.9,9.4,16.9,9.4,16.9z"/>
				<path class="st2" d="M9.5,16.6C9.5,16.6,9.5,16.6,9.5,16.6C9.5,16.6,9.5,16.6,9.5,16.6C9.5,16.6,9.5,16.6,9.5,16.6
					C9.6,16.5,9.6,16.5,9.5,16.6C9.6,16.5,9.6,16.5,9.5,16.6C9.6,16.5,9.6,16.5,9.5,16.6c0.1,0,0.1-0.1,0.1-0.1c0-0.1,0-0.1-0.1-0.1
					l0,0c0,0,0,0,0,0c-0.1,0-0.1,0.1-0.1,0.1C9.4,16.5,9.4,16.6,9.5,16.6z"/>
				<path class="st2" d="M9.6,17.2c0-0.1,0-0.1-0.1-0.1c0,0,0,0,0,0c0,0,0,0,0,0c-0.1,0-0.1,0.1-0.1,0.1c0,0.1,0.1,0.1,0.1,0.1
					c0,0,0,0,0,0c0,0,0,0,0,0c0,0,0,0,0,0c0,0,0,0,0,0c0,0,0,0,0,0c0,0,0,0,0,0C9.6,17.3,9.6,17.2,9.6,17.2z"/>
				<path class="st2" d="M9.8,17.3L9.8,17.3C9.8,17.3,9.7,17.3,9.8,17.3c-0.1,0-0.2,0.1-0.2,0.1c0,0.1,0.1,0.1,0.1,0.1c0,0,0,0,0,0
					c0,0,0,0,0,0c0,0,0,0,0,0c0,0,0,0,0,0c0,0,0,0,0,0c0,0,0,0,0,0c0,0,0.1-0.1,0.1-0.1C9.9,17.4,9.8,17.3,9.8,17.3z"/>
				<path class="st2" d="M9.8,16.3C9.8,16.3,9.8,16.3,9.8,16.3C9.8,16.3,9.8,16.3,9.8,16.3C9.8,16.3,9.8,16.3,9.8,16.3
					C9.8,16.3,9.8,16.3,9.8,16.3C9.8,16.3,9.8,16.3,9.8,16.3C9.8,16.3,9.8,16.3,9.8,16.3c0.1,0,0.1-0.1,0.1-0.1c0-0.1,0-0.1-0.1-0.1
					l0,0c0,0,0,0,0,0c-0.1,0-0.1,0.1-0.1,0.1C9.6,16.2,9.7,16.3,9.8,16.3z"/>
				<path class="st2" d="M10.1,16.1C10.1,16.1,10.1,16.1,10.1,16.1C10.2,16.1,10.2,16.1,10.1,16.1C10.2,16.1,10.2,16.1,10.1,16.1
					C10.2,16.1,10.2,16.1,10.1,16.1C10.2,16.1,10.2,16.1,10.1,16.1C10.2,16.1,10.2,16.1,10.1,16.1c0.1,0,0.1-0.1,0.1-0.1
					c0-0.1,0-0.1-0.1-0.1c0,0,0,0,0,0c-0.1,0-0.1,0.1-0.1,0.1C10,16.1,10.1,16.1,10.1,16.1z"/>
				<path class="st2" d="M10.6,16.2C10.6,16.2,10.6,16.2,10.6,16.2C10.6,16.2,10.6,16.2,10.6,16.2C10.6,16.2,10.6,16.2,10.6,16.2
					C10.6,16.2,10.6,16.2,10.6,16.2C10.6,16.2,10.6,16.2,10.6,16.2C10.6,16.2,10.6,16.2,10.6,16.2c0.1,0,0.1-0.1,0.1-0.1
					c0-0.1,0-0.1-0.1-0.1c0,0,0,0,0,0c-0.1,0-0.1,0.1-0.1,0.1C10.4,16.1,10.5,16.2,10.6,16.2z"/>
				<path class="st2" d="M10.9,16.1C10.9,16.1,10.9,16.1,10.9,16.1C10.8,16.1,10.8,16.1,10.9,16.1c-0.1,0-0.2,0.1-0.2,0.1
					c0,0.1,0.1,0.1,0.1,0.1c0,0,0,0,0,0c0,0,0,0,0,0c0,0,0,0,0,0c0,0,0,0,0,0c0,0,0,0,0,0c0,0,0,0,0,0c0,0,0.1-0.1,0.1-0.1
					C11,16.2,10.9,16.2,10.9,16.1z"/>
				<path class="st2" d="M10.9,16.6c0,0.1,0.1,0.1,0.1,0.1c0,0,0,0,0,0c0,0,0,0,0,0c0,0,0,0,0,0c0,0,0,0,0,0c0,0,0,0,0,0
					c0,0,0,0,0,0c0,0,0,0,0,0c0,0,0,0,0,0c0,0,0.1-0.1,0.1-0.1c0-0.1,0-0.1-0.1-0.1c0,0,0,0,0,0c0,0,0,0,0,0c0,0,0,0,0,0
					c0,0,0,0,0,0C10.9,16.5,10.9,16.6,10.9,16.6z"/>
				<path class="st2" d="M10.2,17.5L10.2,17.5C10.1,17.5,10.1,17.5,10.2,17.5c-0.1,0-0.2,0.1-0.2,0.1c0,0.1,0.1,0.1,0.1,0.1
					c0,0,0,0,0,0c0,0,0,0,0,0c0,0,0,0,0,0c0,0,0,0,0,0c0,0,0,0,0,0c0,0,0,0,0,0c0,0,0.1-0.1,0.1-0.1C10.3,17.6,10.2,17.5,10.2,17.5z
					"/>
				<path class="st2" d="M10.2,16.2c-0.3,0-0.6,0.3-0.6,0.6c0,0.3,0.3,0.6,0.6,0.6c0.3,0,0.6-0.3,0.6-0.6
					C10.8,16.5,10.5,16.2,10.2,16.2z"/>
			</g>
			<g>
				<path class="st3" d="M13.6,15.9C13.6,15.9,13.6,15.9,13.6,15.9C13.6,15.9,13.6,15.9,13.6,15.9c0.1-0.1,0.2-0.1,0.2-0.1
					c0,0-0.1-0.1-0.2-0.1c0,0,0,0-0.1,0c0,0,0,0,0.1,0c0.1,0,0.2,0,0.2-0.1c0,0-0.1-0.1-0.2-0.1c0,0,0,0-0.1,0c0,0,0,0,0.1,0
					c0.1,0,0.2-0.1,0.2-0.1c0,0-0.1,0-0.2-0.1c0,0,0,0-0.1,0c0,0,0,0,0.1,0c0.1,0,0.2-0.1,0.1-0.1c0,0-0.1,0-0.2,0c0,0-0.1,0-0.1,0
					c0,0,0,0,0.1,0c0.1-0.1,0.1-0.1,0.1-0.1c0,0-0.1,0-0.2,0c0,0-0.1,0-0.1,0c0,0,0,0,0.1-0.1c0.1-0.1,0.1-0.1,0.1-0.2
					c0,0-0.1,0-0.2,0c0,0-0.1,0-0.1,0c0,0,0,0,0-0.1c0.1-0.1,0.1-0.1,0.1-0.2c0,0-0.1,0-0.2,0.1c0,0,0,0-0.1,0c0,0,0-0.1,0-0.1
					c0-0.1,0.1-0.2,0-0.2c0,0-0.1,0-0.2,0.1c0,0,0,0-0.1,0.1c0,0,0-0.1,0-0.1c0-0.1,0-0.2,0-0.2c0,0-0.1,0-0.1,0.1c0,0,0,0,0,0.1
					c0,0,0-0.1,0-0.1c0-0.1,0-0.2-0.1-0.2c0,0-0.1,0-0.1,0.2c0,0,0,0.1,0,0.1c0,0,0,0,0-0.1c0-0.1,0-0.2-0.1-0.2c0,0,0,0,0,0
					c0,0-0.1,0.1-0.1,0.2c0,0,0,0.1,0,0.1c0,0,0,0,0,0l0,0c-0.9-0.9-2.3-0.9-2.5-0.9c0,0,0,0,0,0c0,0,0,0,0,0c0,0,0,0,0,0
					c0,0,0,0,0,0c-0.2,0-1.7,0-2.6,1.1c0,0-0.4,0.4-0.3,0.9h1.2l0,0.1H7.1c0,0.1,0,0.1,0.1,0.2h0.8h0.1h0.1l-0.4,1.9
					c0,0.1,0.1,0.3,0.3,0.3h3.6c0.2,0,0.3-0.1,0.3-0.3l0-0.2c0,0,0,0,0,0c0,0,0.1,0,0.1-0.2c0,0,0,0,0,0c0,0,0,0,0,0
					c0,0.1,0,0.2,0.1,0.2c0,0,0,0,0,0c0,0,0.1,0,0.1-0.2c0,0,0,0,0,0c0,0,0,0,0,0c0,0.1,0,0.2,0.1,0.2c0,0,0-0.1,0.1-0.2
					c0,0,0,0,0,0c0,0,0,0,0,0c0,0.1,0.1,0.2,0.1,0.2c0,0,0-0.1,0.1-0.2c0,0,0,0,0,0c0,0,0,0,0,0c0,0.1,0.1,0.2,0.1,0.1
					c0,0,0-0.1,0-0.2c0,0,0,0,0,0c0,0,0,0,0,0c0.1,0.1,0.1,0.1,0.1,0.1c0,0,0-0.1,0-0.2c0,0,0,0,0-0.1c0,0,0,0,0,0
					c0.1,0.1,0.1,0.1,0.1,0.1c0,0,0-0.1,0-0.2c0,0,0,0,0-0.1c0,0,0,0,0,0c0.1,0.1,0.1,0.1,0.2,0.1c0,0,0-0.1,0-0.2c0,0,0,0,0,0
					c0,0,0,0,0,0c0.1,0.1,0.1,0.1,0.2,0.1c0,0,0-0.1-0.1-0.2c0,0,0,0,0,0c0,0,0,0,0,0c0.1,0.1,0.2,0.1,0.2,0c0,0,0-0.1-0.1-0.2
					c0,0,0,0,0,0c0,0,0,0,0,0c0.1,0,0.2,0.1,0.2,0c0,0,0-0.1-0.1-0.1c0,0,0,0,0,0c0,0,0,0,0,0c0.1,0,0.2,0,0.2,0c0,0,0-0.1-0.1-0.1
					c0,0,0,0,0,0c0,0,0,0,0,0c0.1,0,0.2,0,0.2,0c0,0,0-0.1-0.1-0.1c0,0,0,0-0.1,0c0,0,0,0,0,0c0.1,0,0.2,0,0.2-0.1
					c0,0,0-0.1-0.1-0.1c0,0-0.1,0-0.1,0c0,0,0,0,0.1,0c0.1,0,0.2,0,0.2-0.1c0,0,0-0.1-0.2-0.1c0,0,0,0-0.1,0c0,0,0,0,0.1,0
					c0.1,0,0.2,0,0.2-0.1C13.8,15.9,13.7,15.9,13.6,15.9z M9.9,14.3L9.9,14.3C9.9,14.3,9.9,14.3,9.9,14.3
					C9.9,14.3,9.9,14.3,9.9,14.3L9.9,14.3c1.9-0.1,1.4,0.4,1.4,0.4s-0.1,0.1-0.2,0.4h-0.3c0.2-0.2,0.1-0.6,0.1-0.6h-0.2h-0.2
					c0.1,0.1,0,0.3,0,0.3h-0.4H9.7H9.3c0,0-0.1-0.2,0-0.3H9.1H8.9c0,0-0.1,0.4,0.1,0.6H8.9c-0.1-0.2-0.2-0.4-0.2-0.4
					S8,14.2,9.9,14.3z M9.9,17.6c-0.6,0-1.1-0.5-1.1-1.1c0-0.6,0.5-1.1,1.1-1.1c0.6,0,1.1,0.5,1.1,1.1C11,17.1,10.5,17.6,9.9,17.6z
					 M13.6,16c-0.1,0-0.2,0-0.2,0.1c0,0,0.1,0.1,0.2,0.1c0,0,0,0,0.1,0c0,0-0.1,0-0.1,0c-0.1,0-0.2,0-0.2,0.1c0,0,0,0.1,0.2,0.1
					c0,0,0,0,0.1,0c0,0-0.1,0-0.1,0c-0.1,0-0.2,0-0.2,0.1c0,0,0,0.1,0.2,0.1c0,0,0,0,0,0c0,0,0,0,0,0c-0.1,0-0.2,0-0.2,0
					c0,0,0,0.1,0.1,0.1c0,0,0,0,0,0c0,0,0,0,0,0c-0.1,0-0.2,0-0.2,0c0,0,0,0.1,0.1,0.1c0,0,0,0,0,0c0,0,0,0,0,0
					c-0.1,0-0.2-0.1-0.2,0c0,0,0,0.1,0.1,0.2c0,0,0,0,0,0c0,0,0,0,0,0c-0.1-0.1-0.1-0.1-0.2,0c0,0,0,0.1,0.1,0.2c0,0,0,0,0,0
					c0,0,0,0,0,0c-0.1-0.1-0.1-0.1-0.2-0.1c0,0,0,0.1,0,0.2c0,0,0,0,0,0c0,0,0,0,0,0c-0.1-0.1-0.1-0.1-0.2-0.1c0,0,0,0.1,0,0.2
					c0,0,0,0,0,0c0,0,0,0,0,0c-0.1-0.1-0.1-0.1-0.1-0.1c0,0,0,0.1,0,0.2c0,0,0,0,0,0c0,0,0,0,0,0c-0.1-0.1-0.1-0.1-0.1-0.1
					c0,0,0,0.1,0,0.2c0,0,0,0,0,0c0,0,0,0,0,0c0-0.1-0.1-0.2-0.1-0.1c0,0,0,0.1,0,0.2c0,0,0,0,0,0c0,0,0,0,0,0c0-0.1,0-0.2-0.1-0.2
					c0,0,0,0.1-0.1,0.2c0,0,0,0,0,0c0,0,0,0,0,0c0-0.1,0-0.2-0.1-0.2c0,0,0,0,0,0c0,0-0.1,0-0.1,0.2c0,0,0,0,0,0c0,0,0,0,0,0
					c0-0.1,0-0.2-0.1-0.2c0,0-0.1,0-0.1,0.2c0,0,0,0,0,0c0,0,0,0,0,0c0-0.1,0-0.2-0.1-0.2c0,0,0,0,0,0l-0.3-1.4h0.2H12h0.8
					c0-0.1,0-0.1,0.1-0.2h-1.3l0-0.1h1.3c0.1-0.6-0.3-0.9-0.3-0.9c0,0-0.1-0.1-0.1-0.1c0,0,0-0.1,0-0.2c0,0,0,0,0-0.1c0,0,0,0,0,0.1
					c0,0.1,0,0.2,0.1,0.2c0,0,0,0,0,0c0,0,0.1,0,0.1-0.2c0,0,0,0,0,0c0,0,0,0,0,0.1c0,0.1,0,0.2,0.1,0.2c0,0,0.1,0,0.1-0.1
					c0,0,0,0,0,0c0,0,0,0,0,0c0,0.1,0,0.2,0,0.2c0,0,0.1,0,0.2-0.1c0,0,0,0,0,0c0,0,0,0,0,0c0,0.1-0.1,0.2,0,0.2c0,0,0.1,0,0.2-0.1
					c0,0,0,0,0,0c0,0,0,0,0,0c-0.1,0.1-0.1,0.1-0.1,0.2c0,0,0.1,0,0.2,0c0,0,0,0,0,0c0,0,0,0,0,0c-0.1,0.1-0.1,0.1-0.1,0.2
					c0,0,0.1,0,0.2,0c0,0,0,0,0.1,0c0,0,0,0,0,0c-0.1,0.1-0.1,0.1-0.1,0.1c0,0,0.1,0,0.2,0c0,0,0,0,0.1,0c0,0,0,0-0.1,0
					c-0.1,0-0.2,0.1-0.1,0.1c0,0,0.1,0,0.2,0.1c0,0,0,0,0.1,0c0,0,0,0-0.1,0c-0.1,0-0.2,0.1-0.2,0.1c0,0,0.1,0.1,0.2,0.1
					c0,0,0,0,0.1,0c0,0,0,0-0.1,0c-0.1,0-0.2,0-0.2,0.1c0,0,0.1,0.1,0.2,0.1c0,0,0,0,0.1,0c0,0,0,0-0.1,0c-0.1,0-0.2,0-0.2,0.1
					C13.4,15.9,13.5,15.9,13.6,16C13.6,16,13.6,16,13.6,16C13.6,16,13.6,16,13.6,16z"/>
				<path class="st3" d="M11.8,18.2H8c-0.1,0-0.2,0-0.2-0.1v0.3c0,0.2,0.1,0.3,0.3,0.3h3.6c0.2,0,0.3-0.1,0.3-0.3v-0.3
					C12,18.2,11.9,18.2,11.8,18.2z"/>
				<path class="st3" d="M9.1,16.6C9.1,16.6,9.1,16.6,9.1,16.6C9.1,16.6,9.1,16.6,9.1,16.6C9.2,16.6,9.2,16.6,9.1,16.6
					C9.2,16.6,9.2,16.6,9.1,16.6C9.2,16.6,9.2,16.6,9.1,16.6c0.1,0,0.1-0.1,0.1-0.1c0-0.1,0-0.1-0.1-0.1c0,0,0,0,0,0c0,0,0,0,0,0
					C9,16.4,9,16.4,9,16.5C9,16.6,9,16.6,9.1,16.6C9.1,16.6,9.1,16.6,9.1,16.6z"/>
				<path class="st3" d="M9.2,16.3C9.2,16.3,9.2,16.3,9.2,16.3C9.2,16.3,9.2,16.3,9.2,16.3C9.2,16.3,9.2,16.3,9.2,16.3
					C9.3,16.3,9.3,16.3,9.2,16.3C9.3,16.3,9.3,16.3,9.2,16.3C9.3,16.2,9.3,16.2,9.2,16.3c0.1,0,0.1-0.1,0.1-0.1c0-0.1,0-0.1-0.1-0.1
					l0,0c0,0,0,0,0,0c-0.1,0-0.1,0.1-0.1,0.1C9.1,16.2,9.1,16.3,9.2,16.3z"/>
				<path class="st3" d="M9.3,16.9c0-0.1,0-0.1-0.1-0.1c0,0,0,0,0,0c0,0,0,0,0,0c-0.1,0-0.1,0.1-0.1,0.1C9.1,17,9.1,17,9.2,17
					c0,0,0,0,0,0c0,0,0,0,0,0c0,0,0,0,0,0c0,0,0,0,0,0c0,0,0,0,0,0c0,0,0,0,0,0C9.3,17,9.3,16.9,9.3,16.9z"/>
				<path class="st3" d="M9.5,17L9.5,17C9.5,17,9.5,17,9.5,17c-0.1,0-0.2,0.1-0.2,0.1c0,0.1,0.1,0.1,0.1,0.1c0,0,0,0,0,0
					c0,0,0,0,0,0c0,0,0,0,0,0c0,0,0,0,0,0c0,0,0,0,0,0c0,0,0,0,0,0c0,0,0.1-0.1,0.1-0.1C9.6,17.1,9.5,17,9.5,17z"/>
				<path class="st3" d="M9.5,16C9.5,16,9.5,16,9.5,16C9.5,16,9.5,16,9.5,16C9.5,16,9.5,16,9.5,16C9.5,16,9.5,16,9.5,16
					C9.5,16,9.5,16,9.5,16C9.5,16,9.5,16,9.5,16c0.1,0,0.1-0.1,0.1-0.1c0-0.1,0-0.1-0.1-0.1l0,0c0,0,0,0,0,0c-0.1,0-0.1,0.1-0.1,0.1
					C9.3,15.9,9.4,16,9.5,16z"/>
				<path class="st3" d="M9.8,15.9C9.8,15.9,9.9,15.8,9.8,15.9C9.9,15.8,9.9,15.8,9.8,15.9C9.9,15.8,9.9,15.8,9.8,15.9
					C9.9,15.8,9.9,15.8,9.8,15.9C9.9,15.8,9.9,15.8,9.8,15.9C9.9,15.8,9.9,15.8,9.8,15.9c0.1,0,0.1-0.1,0.1-0.1c0-0.1,0-0.1-0.1-0.1
					c0,0,0,0,0,0c-0.1,0-0.1,0.1-0.1,0.1C9.7,15.8,9.8,15.9,9.8,15.9z"/>
				<path class="st3" d="M10.3,15.9C10.3,15.9,10.3,15.9,10.3,15.9C10.3,15.9,10.3,15.9,10.3,15.9C10.3,15.9,10.3,15.9,10.3,15.9
					C10.3,15.9,10.3,15.9,10.3,15.9C10.3,15.9,10.3,15.9,10.3,15.9C10.3,15.9,10.3,15.9,10.3,15.9c0.1,0,0.1-0.1,0.1-0.1
					c0-0.1,0-0.1-0.1-0.1c0,0,0,0,0,0c-0.1,0-0.1,0.1-0.1,0.1C10.1,15.8,10.2,15.9,10.3,15.9z"/>
				<path class="st3" d="M10.6,15.9C10.6,15.9,10.6,15.9,10.6,15.9C10.6,15.9,10.5,15.9,10.6,15.9c-0.1,0-0.2,0.1-0.2,0.1
					c0,0.1,0.1,0.1,0.1,0.1c0,0,0,0,0,0c0,0,0,0,0,0c0,0,0,0,0,0c0,0,0,0,0,0c0,0,0,0,0,0c0,0,0,0,0,0c0,0,0.1-0.1,0.1-0.1
					C10.7,15.9,10.6,15.9,10.6,15.9z"/>
				<path class="st3" d="M10.6,16.3c0,0.1,0.1,0.1,0.1,0.1c0,0,0,0,0,0c0,0,0,0,0,0c0,0,0,0,0,0c0,0,0,0,0,0c0,0,0,0,0,0
					c0,0,0,0,0,0c0,0,0,0,0,0c0,0,0,0,0,0c0,0,0.1-0.1,0.1-0.1c0-0.1,0-0.1-0.1-0.1c0,0,0,0,0,0c0,0,0,0,0,0c0,0,0,0,0,0
					c0,0,0,0,0,0C10.6,16.2,10.6,16.3,10.6,16.3z"/>
				<path class="st3" d="M9.9,17.2L9.9,17.2C9.9,17.2,9.8,17.2,9.9,17.2c-0.1,0-0.2,0.1-0.2,0.1c0,0.1,0.1,0.1,0.1,0.1c0,0,0,0,0,0
					c0,0,0,0,0,0c0,0,0,0,0,0c0,0,0,0,0,0c0,0,0,0,0,0c0,0,0,0,0,0c0,0,0.1-0.1,0.1-0.1C10,17.3,9.9,17.2,9.9,17.2z"/>
				<path class="st3" d="M9.9,15.9c-0.3,0-0.6,0.3-0.6,0.6c0,0.3,0.3,0.6,0.6,0.6c0.3,0,0.6-0.3,0.6-0.6
					C10.5,16.2,10.2,15.9,9.9,15.9z"/>
			</g>
		</g>
		<g>
			<path class="st4" d="M23.4,10.6c0,2.4-1.9,4.3-4.3,4.3c-2.4,0-4.3-1.9-4.3-4.3c0-2.4,1.9-4.3,4.3-4.3
				C21.5,6.3,23.4,8.3,23.4,10.6z"/>
			<g>
				<path class="st2" d="M22.1,11.1c0-0.1,0-0.2,0-0.2c0-0.1,0-0.2,0-0.2c-0.6-0.2-0.6-0.5-0.2-0.9c-0.1-0.1-0.1-0.3-0.2-0.4
					C21,9.4,20.8,9.2,21,8.7c-0.1-0.1-0.3-0.2-0.4-0.2c-0.5,0.4-0.7,0.3-0.9-0.2c-0.1,0-0.2,0-0.2,0c-0.1,0-0.2,0-0.2,0
					c-0.2,0.6-0.5,0.6-0.9,0.2c-0.1,0.1-0.3,0.1-0.4,0.2c0.1,0.6-0.1,0.8-0.7,0.7c-0.1,0.1-0.2,0.3-0.2,0.4c0.4,0.5,0.3,0.7-0.2,0.9
					c0,0.1,0,0.2,0,0.2c0,0.1,0,0.2,0,0.2c0.6,0.2,0.6,0.5,0.2,0.9c0.1,0.1,0.1,0.3,0.2,0.4c0.6-0.1,0.8,0.1,0.7,0.7
					c0.1,0.1,0.3,0.2,0.4,0.2c0.5-0.4,0.7-0.3,0.9,0.2c0.1,0,0.2,0,0.2,0c0.1,0,0.2,0,0.2,0c0.2-0.6,0.5-0.6,0.9-0.2
					c0.1-0.1,0.3-0.1,0.4-0.2c-0.1-0.6,0.1-0.8,0.7-0.7c0.1-0.1,0.2-0.3,0.2-0.4C21.5,11.6,21.5,11.3,22.1,11.1z M19.4,12.8
					c-1.1,0-1.9-0.9-1.9-1.9c0-1.1,0.9-1.9,1.9-1.9c1.1,0,1.9,0.9,1.9,1.9C21.3,11.9,20.5,12.8,19.4,12.8z"/>
				<path class="st2" d="M19.4,9.3c-0.9,0-1.6,0.7-1.6,1.6c0,0.9,0.7,1.6,1.6,1.6c0.9,0,1.6-0.7,1.6-1.6C21,10,20.3,9.3,19.4,9.3z
					 M19.4,12c-0.6,0-1.1-0.5-1.1-1.1c0-0.6,0.5-1.1,1.1-1.1c0.6,0,1.1,0.5,1.1,1.1C20.5,11.5,20,12,19.4,12z"/>
			</g>
			<g>
				<path class="st3" d="M21.8,10.9c0-0.1,0-0.2,0-0.2c0-0.1,0-0.2,0-0.2c-0.6-0.2-0.6-0.5-0.2-0.9c-0.1-0.1-0.1-0.3-0.2-0.4
					c-0.6,0.1-0.8-0.1-0.7-0.7c-0.1-0.1-0.3-0.2-0.4-0.2c-0.5,0.4-0.7,0.3-0.9-0.2c-0.1,0-0.2,0-0.2,0c-0.1,0-0.2,0-0.2,0
					c-0.2,0.6-0.5,0.6-0.9,0.3c-0.1,0.1-0.3,0.1-0.4,0.2c0.1,0.6-0.1,0.8-0.7,0.7c-0.1,0.1-0.2,0.3-0.2,0.4c0.4,0.5,0.3,0.7-0.2,0.9
					c0,0.1,0,0.2,0,0.2c0,0.1,0,0.2,0,0.2c0.6,0.2,0.6,0.5,0.2,0.9c0.1,0.1,0.1,0.3,0.2,0.4c0.6-0.1,0.8,0.1,0.7,0.7
					c0.1,0.1,0.3,0.2,0.4,0.2c0.5-0.4,0.7-0.3,0.9,0.2c0.1,0,0.2,0,0.2,0c0.1,0,0.2,0,0.2,0c0.2-0.6,0.5-0.6,0.9-0.2
					c0.1-0.1,0.3-0.1,0.4-0.2c-0.1-0.6,0.1-0.8,0.7-0.7c0.1-0.1,0.2-0.3,0.2-0.4C21.2,11.3,21.2,11.1,21.8,10.9z M19.1,12.6
					c-1.1,0-1.9-0.9-1.9-1.9c0-1.1,0.9-1.9,1.9-1.9c1.1,0,1.9,0.9,1.9,1.9C21,11.7,20.2,12.6,19.1,12.6z"/>
				<path class="st3" d="M19.1,9c-0.9,0-1.6,0.7-1.6,1.6c0,0.9,0.7,1.6,1.6,1.6c0.9,0,1.6-0.7,1.6-1.6C20.7,9.8,20,9,19.1,9z
					 M19.1,11.7c-0.6,0-1.1-0.5-1.1-1.1c0-0.6,0.5-1.1,1.1-1.1c0.6,0,1.1,0.5,1.1,1.1C20.2,11.3,19.7,11.7,19.1,11.7z"/>
			</g>
		</g>
		<g>
			
				<ellipse transform="matrix(0.9997 -2.293103e-02 2.293103e-02 0.9997 -0.2362 0.6704)" class="st1" cx="29.1" cy="10.6" rx="4.3" ry="4.3"/>
			<path class="st2" d="M31.7,8.3h-4.6c-0.3,0-0.5,0.2-0.5,0.5v2.9c0,0.3,0.2,0.5,0.5,0.5h0.7c0.2,0.3,0.5,0.8,0.2,1.2
				c0,0,1.3-0.4,1.5-1.2h2.3c0.3,0,0.5-0.2,0.5-0.5V8.8C32.2,8.5,32,8.3,31.7,8.3z M31.4,11.2h-4c-0.1,0-0.1-0.1-0.1-0.1
				c0-0.1,0.1-0.1,0.1-0.1h4c0.1,0,0.1,0.1,0.1,0.1C31.5,11.2,31.5,11.2,31.4,11.2z M31.4,10.3h-4c-0.1,0-0.1-0.1-0.1-0.1
				c0-0.1,0.1-0.1,0.1-0.1h4c0.1,0,0.1,0.1,0.1,0.1C31.5,10.3,31.5,10.3,31.4,10.3z M31.4,9.5h-4c-0.1,0-0.1-0.1-0.1-0.1
				c0-0.1,0.1-0.1,0.1-0.1h4c0.1,0,0.1,0.1,0.1,0.1C31.5,9.4,31.5,9.5,31.4,9.5z"/>
			<path class="st3" d="M31.4,8.1h-4.6c-0.3,0-0.5,0.2-0.5,0.5v2.9c0,0.3,0.2,0.5,0.5,0.5h0.7c0.2,0.3,0.5,0.8,0.2,1.2
				c0,0,1.3-0.4,1.5-1.2h2.3c0.3,0,0.5-0.2,0.5-0.5V8.5C31.9,8.3,31.7,8.1,31.4,8.1z M31.1,11h-4C27,11,27,10.9,27,10.8
				c0-0.1,0.1-0.1,0.1-0.1h4c0.1,0,0.1,0.1,0.1,0.1C31.2,10.9,31.2,11,31.1,11z M31.1,10.1h-4C27,10.1,27,10,27,10
				c0-0.1,0.1-0.1,0.1-0.1h4c0.1,0,0.1,0.1,0.1,0.1C31.2,10,31.2,10.1,31.1,10.1z M31.1,9.2h-4C27,9.2,27,9.2,27,9.1
				C27,9,27,9,27.1,9h4c0.1,0,0.1,0.1,0.1,0.1C31.2,9.2,31.2,9.2,31.1,9.2z"/>
		</g>
		<g>
			<path class="st4" d="M42,16.2c0,2.4-1.9,4.3-4.3,4.3s-4.3-1.9-4.3-4.3s1.9-4.3,4.3-4.3S42,13.8,42,16.2z"/>
			<g>
				<g>
					<path class="st2" d="M39.1,14.4c0,0.1-0.1,0.2-0.2,0.2h-1.9c-0.1,0-0.2-0.1-0.2-0.2v-0.6c0-0.1,0.1-0.2,0.2-0.2H39
						c0.1,0,0.2,0.1,0.2,0.2V14.4z"/>
					<path class="st2" d="M38,13c-0.3,0-0.6,0.2-0.6,0.6c0,0.3,0.2,0.6,0.6,0.6s0.6-0.2,0.6-0.6C38.6,13.3,38.3,13,38,13z M38,13.8
						c-0.1,0-0.3-0.1-0.3-0.3c0-0.1,0.1-0.3,0.3-0.3c0.1,0,0.3,0.1,0.3,0.3C38.3,13.7,38.2,13.8,38,13.8z"/>
				</g>
				<g>
					<path class="st2" d="M39.5,14.9C39.5,14.9,39.5,14.9,39.5,14.9l-3,0c0,0,0,0,0,0l0,0c0,0,0,0,0,0L39.5,14.9
						C39.5,14.8,39.5,14.8,39.5,14.9L39.5,14.9z"/>
					<path class="st2" d="M39.5,15.3C39.5,15.3,39.5,15.3,39.5,15.3l-3,0c0,0,0,0,0,0l0,0c0,0,0,0,0,0L39.5,15.3
						C39.5,15.3,39.5,15.3,39.5,15.3L39.5,15.3z"/>
					<path class="st2" d="M39.5,15.7C39.5,15.8,39.5,15.8,39.5,15.7l-3,0c0,0,0,0,0,0l0,0c0,0,0,0,0,0L39.5,15.7
						C39.5,15.7,39.5,15.7,39.5,15.7L39.5,15.7z"/>
					<path class="st2" d="M39.5,16.2C39.5,16.2,39.5,16.2,39.5,16.2l-3,0c0,0,0,0,0,0l0,0c0,0,0,0,0,0L39.5,16.2
						C39.5,16.1,39.5,16.2,39.5,16.2L39.5,16.2z"/>
					<path class="st2" d="M39.5,16.6C39.5,16.6,39.5,16.7,39.5,16.6l-3,0c0,0,0,0,0,0l0,0c0,0,0,0,0,0L39.5,16.6
						C39.5,16.6,39.5,16.6,39.5,16.6L39.5,16.6z"/>
					<path class="st2" d="M39.5,17.1C39.5,17.1,39.5,17.1,39.5,17.1l-3,0c0,0,0,0,0,0l0,0c0,0,0,0,0,0L39.5,17.1
						C39.5,17,39.5,17,39.5,17.1L39.5,17.1z"/>
					<path class="st2" d="M39.5,17.5C39.5,17.5,39.5,17.5,39.5,17.5l-3,0c0,0,0,0,0,0l0,0c0,0,0,0,0,0L39.5,17.5
						C39.5,17.4,39.5,17.5,39.5,17.5L39.5,17.5z"/>
					<path class="st2" d="M39.5,17.9C39.5,18,39.5,18,39.5,17.9l-3,0c0,0,0,0,0,0l0,0c0,0,0,0,0,0L39.5,17.9
						C39.5,17.9,39.5,17.9,39.5,17.9L39.5,17.9z"/>
					<path class="st2" d="M39.5,18.4C39.5,18.4,39.5,18.4,39.5,18.4l-3,0c0,0,0,0,0,0l0,0c0,0,0,0,0,0L39.5,18.4
						C39.5,18.3,39.5,18.3,39.5,18.4L39.5,18.4z"/>
					<path class="st2" d="M39.5,18.8C39.5,18.8,39.5,18.9,39.5,18.8l-3,0c0,0,0,0,0,0l0,0c0,0,0,0,0,0L39.5,18.8
						C39.5,18.8,39.5,18.8,39.5,18.8L39.5,18.8z"/>
				</g>
				<path class="st2" d="M40,13.9h-0.6v0.4h0.3c0.1,0,0.2,0.1,0.2,0.2v4.7c0,0.1-0.1,0.2-0.2,0.2h-3.3c-0.1,0-0.2-0.1-0.2-0.2v-4.7
					c0-0.1,0.1-0.2,0.2-0.2h0.3v-0.4h-0.6c-0.1,0-0.2,0.1-0.2,0.2v5.3c0,0.1,0.1,0.2,0.2,0.2H40c0.1,0,0.2-0.1,0.2-0.2v-5.3
					C40.2,14,40.1,13.9,40,13.9z"/>
			</g>
			<g>
				<g>
					<path class="st3" d="M38.8,14.1c0,0.1-0.1,0.2-0.2,0.2h-1.9c-0.1,0-0.2-0.1-0.2-0.2v-0.6c0-0.1,0.1-0.2,0.2-0.2h1.9
						c0.1,0,0.2,0.1,0.2,0.2V14.1z"/>
					<path class="st3" d="M37.7,12.7c-0.3,0-0.6,0.2-0.6,0.6c0,0.3,0.2,0.6,0.6,0.6c0.3,0,0.6-0.2,0.6-0.6
						C38.3,13,38,12.7,37.7,12.7z M37.7,13.5c-0.1,0-0.3-0.1-0.3-0.3c0-0.1,0.1-0.3,0.3-0.3c0.1,0,0.3,0.1,0.3,0.3
						C38,13.4,37.9,13.5,37.7,13.5z"/>
				</g>
				<g>
					<path class="st3" d="M39.2,14.6C39.2,14.6,39.2,14.6,39.2,14.6l-3,0c0,0,0,0,0,0l0,0c0,0,0,0,0,0L39.2,14.6
						C39.2,14.5,39.2,14.6,39.2,14.6L39.2,14.6z"/>
					<path class="st3" d="M39.2,15C39.2,15,39.2,15.1,39.2,15l-3,0c0,0,0,0,0,0l0,0c0,0,0,0,0,0L39.2,15C39.2,15,39.2,15,39.2,15
						L39.2,15z"/>
					<path class="st3" d="M39.2,15.5C39.2,15.5,39.2,15.5,39.2,15.5l-3,0c0,0,0,0,0,0l0,0c0,0,0,0,0,0L39.2,15.5
						C39.2,15.4,39.2,15.4,39.2,15.5L39.2,15.5z"/>
					<path class="st3" d="M39.2,15.9C39.2,15.9,39.2,15.9,39.2,15.9l-3,0c0,0,0,0,0,0l0,0c0,0,0,0,0,0L39.2,15.9
						C39.2,15.9,39.2,15.9,39.2,15.9L39.2,15.9z"/>
					<path class="st3" d="M39.2,16.3C39.2,16.4,39.2,16.4,39.2,16.3l-3,0c0,0,0,0,0,0l0,0c0,0,0,0,0,0L39.2,16.3
						C39.2,16.3,39.2,16.3,39.2,16.3L39.2,16.3z"/>
					<path class="st3" d="M39.2,16.8C39.2,16.8,39.2,16.8,39.2,16.8l-3,0c0,0,0,0,0,0l0,0c0,0,0,0,0,0L39.2,16.8
						C39.2,16.7,39.2,16.8,39.2,16.8L39.2,16.8z"/>
					<path class="st3" d="M39.2,17.2C39.2,17.2,39.2,17.3,39.2,17.2l-3,0c0,0,0,0,0,0l0,0c0,0,0,0,0,0L39.2,17.2
						C39.2,17.2,39.2,17.2,39.2,17.2L39.2,17.2z"/>
					<path class="st3" d="M39.2,17.7C39.2,17.7,39.2,17.7,39.2,17.7l-3,0c0,0,0,0,0,0l0,0c0,0,0,0,0,0L39.2,17.7
						C39.2,17.6,39.2,17.6,39.2,17.7L39.2,17.7z"/>
					<path class="st3" d="M39.2,18.1C39.2,18.1,39.2,18.1,39.2,18.1l-3,0c0,0,0,0,0,0l0,0c0,0,0,0,0,0L39.2,18.1
						C39.2,18.1,39.2,18.1,39.2,18.1L39.2,18.1z"/>
					<path class="st3" d="M39.2,18.5C39.2,18.6,39.2,18.6,39.2,18.5l-3,0c0,0,0,0,0,0l0,0c0,0,0,0,0,0L39.2,18.5
						C39.2,18.5,39.2,18.5,39.2,18.5L39.2,18.5z"/>
				</g>
				<path class="st3" d="M39.7,13.6H39V14h0.3c0.1,0,0.2,0.1,0.2,0.2v4.7c0,0.1-0.1,0.2-0.2,0.2h-3.3c-0.1,0-0.2-0.1-0.2-0.2v-4.7
					c0-0.1,0.1-0.2,0.2-0.2h0.3v-0.4h-0.6c-0.1,0-0.2,0.1-0.2,0.2v5.3c0,0.1,0.1,0.2,0.2,0.2h3.9c0.1,0,0.2-0.1,0.2-0.2v-5.3
					C39.9,13.7,39.8,13.6,39.7,13.6z"/>
			</g>
		</g>
	</g>
	<g>
		<g>
			<g>
				<g>
					<path class="st5" d="M30.2,20.9L30.2,20.9c2.4,0.8,4.1,3.5,4.1,6.2c0,3.3-2.7,5.9-5.9,5.9c-3.2,0-5.8-2.5-5.9-5.6
						c0,0.1,0,0.2,0,0.4c0,3.8,3.1,6.9,6.9,6.9c3.8,0,6.9-3.1,6.9-6.9C36.2,24.3,33.6,21.3,30.2,20.9z"/>
					<path class="st6" d="M30.2,20.9L30.2,20.9c2.9,0.5,5.1,3.4,5.1,6.5c0,3.4-2.8,6.2-6.2,6.2c-1.6,0-3.1-0.6-4.2-1.6
						c-1.4-1-2.4-2.7-2.5-4.5c0,0.1,0,0.2,0,0.4c0,3.8,3.1,6.9,6.9,6.9c3.8,0,6.9-3.1,6.9-6.9C36.2,24.3,33.6,21.3,30.2,20.9z"/>
					<polygon class="st5" points="24.3,28.8 22.3,26.6 20.8,29.2 22.4,28.1 					"/>
				</g>
				<g>
					<path class="st5" d="M28.5,22.4v-0.6c0,0-0.1,0-0.1,0c0,0-0.1,0-0.1,0v0.6H28.5z"/>
					<path class="st5" d="M28.3,31.5v0.6c0,0,0.1,0,0.1,0c0,0,0.1,0,0.1,0v-0.6H28.3z"/>
					<path class="st5" d="M32.9,27h0.6c0,0,0-0.1,0-0.1c0,0,0-0.1,0-0.1h-0.6V27z"/>
					<path class="st5" d="M23.8,26.9h-0.6c0,0,0,0.1,0,0.1c0,0,0,0.1,0,0.1h0.6V26.9z"/>
					<path class="st5" d="M30.8,30.9l0.3,0.5c0.1,0,0.1-0.1,0.2-0.1l-0.3-0.5L30.8,30.9z"/>
					<path class="st5" d="M26,23.1l-0.3-0.5c-0.1,0-0.1,0.1-0.2,0.1l0.3,0.5L26,23.1z"/>
					<path class="st5" d="M24.5,24.5L24,24.2c0,0.1-0.1,0.1-0.1,0.2l0.6,0.3L24.5,24.5z"/>
					<path class="st5" d="M32.3,29.4l0.5,0.3c0-0.1,0.1-0.1,0.1-0.2l-0.5-0.3L32.3,29.4z"/>
					<path class="st5" d="M30.9,23.1l0.3-0.5c-0.1,0-0.1-0.1-0.2-0.1L30.7,23L30.9,23.1z"/>
					<path class="st5" d="M25.9,30.8l-0.3,0.5c0.1,0,0.1,0.1,0.2,0.1l0.3-0.5L25.9,30.8z"/>
					<path class="st5" d="M32.3,24.7l0.5-0.3c0-0.1-0.1-0.1-0.1-0.2l-0.5,0.3L32.3,24.7z"/>
					<path class="st5" d="M24.5,29.2l-0.5,0.3c0,0.1,0.1,0.1,0.1,0.2l0.5-0.3L24.5,29.2z"/>
				</g>
				<g>
					<path class="st3" d="M25.3,28.2c0-0.5,0.1-0.8,0.8-1.3c0.4-0.3,0.5-0.4,0.5-0.6c0-0.3-0.2-0.3-0.4-0.3c-0.2,0-0.4,0.1-0.4,0.5
						h-0.5c0-0.6,0.3-0.9,0.8-0.9c0.5,0,0.9,0.2,0.9,0.8c0,0.4-0.2,0.6-0.8,1c-0.2,0.1-0.3,0.3-0.4,0.5H27v0.4H25.3z"/>
					<path class="st3" d="M28.1,28.2v-0.6h-1v-0.4l0.9-1.6h0.6v1.6h0.3v0.4h-0.3v0.6H28.1z M28.1,26.4l-0.5,0.9h0.5V26.4z"/>
					<path class="st3" d="M28.9,28.2l0.7-2.6h0.4l-0.8,2.6H28.9z"/>
					<path class="st3" d="M30.4,28.2c0.1-0.7,0.4-1.5,0.9-2.2h-1.3v-0.5h1.8V26c-0.6,0.6-0.9,1.4-0.9,2.2H30.4z"/>
				</g>
			</g>
			<g>
				<g>
					<path class="st7" d="M21.3,24.5c0,0-0.3,1.2,0.8,2.1l1.3-0.8l0.2-0.1l1.3-0.8c-0.3-1.4-1.6-1.7-1.6-1.7s-1.5-0.2,1.6-1.9
						l-0.6-1C24.3,20.2,21.7,21.8,21.3,24.5z"/>
					<path class="st6" d="M24.4,24.4c-0.3,0.3-0.7,0.6-1.1,0.8c-0.4,0.2-0.7,0.2-1.1,0c-0.2-0.1-0.9-0.4-0.8-0.8
						c0,0-0.3,1.2,0.8,2.1l2.7-1.7c-0.1-0.3-0.2-0.5-0.3-0.7C24.5,24.2,24.5,24.3,24.4,24.4z"/>
					<g>
						<path class="st8" d="M21.9,26.3C21.9,26.4,21.9,26.4,21.9,26.3l0.1,0.2c0.1,0.1,0.3,0.2,0.4,0.1l2.5-1.5
							C25,25,25,24.8,25,24.7l-0.1-0.2c0,0,0,0,0,0L21.9,26.3z"/>
						<path class="st6" d="M23.5,25.7c-0.3,0.1-0.6,0.2-0.9,0.2c0,0-0.1,0-0.2,0l-0.6,0.4c0,0,0,0,0,0.1l0.1,0.2
							c0.1,0.1,0.3,0.2,0.4,0.1l2.5-1.5C25,25,25,24.9,25,24.7l-0.1-0.1c-0.1,0.2-0.3,0.4-0.4,0.5C24.2,25.4,23.9,25.6,23.5,25.7z"
							/>
					</g>
					<path class="st3" d="M21.9,26.3l2.9-1.8c0,0,0-0.1-0.1-0.1l-2.9,1.9C21.8,26.3,21.8,26.3,21.9,26.3z"/>
					<path class="st3" d="M23.2,23.5l-0.5,0.3c0.4,0.2,0.8,0.4,1.1,0.9c0.3-0.2,0.4-0.5,0.4-0.5C24,23.6,23.2,23.5,23.2,23.5z"/>
				</g>
				<g>
					<path class="st7" d="M29.5,19.3c0,0,1.2,0.3,1.6,1.7l-1.3,0.8l-0.2,0.1l-1.3,0.8c-1.1-0.9-0.8-2.1-0.8-2.1s0.3-1.4-2.6,0.7
						l-0.6-1C24.2,20.3,27,18.5,29.5,19.3z"/>
					<path class="st6" d="M28.1,22c0.4-0.1,0.9-0.3,1.2-0.7c0.3-0.3,0.5-0.6,0.5-1c0-0.3,0.1-1-0.3-1.1c0,0,1.2,0.3,1.6,1.7
						l-2.7,1.7c-0.2-0.2-0.4-0.4-0.5-0.6C27.9,22.1,28,22.1,28.1,22z"/>
					<g>
						<path class="st8" d="M31,20.6C31,20.6,31,20.6,31,20.6l0.1,0.2c0.1,0.1,0,0.3-0.1,0.4l-2.5,1.5c-0.1,0.1-0.3,0-0.4-0.1
							L28,22.5c0,0,0,0,0-0.1L31,20.6z"/>
						<path class="st6" d="M29.7,21.8c0.2-0.2,0.4-0.4,0.6-0.7c0,0,0-0.1,0.1-0.1l0.7-0.4c0,0,0,0,0,0l0.1,0.2
							c0.1,0.1,0,0.3-0.1,0.4l-2.5,1.5c-0.1,0.1-0.3,0-0.4-0.1l-0.1-0.1c0.2,0,0.4-0.1,0.6-0.1C29.1,22.3,29.4,22.1,29.7,21.8z"/>
					</g>
					<path class="st3" d="M31,20.6L28,22.5c0,0-0.1-0.1-0.1-0.1l2.9-1.9C30.9,20.5,30.9,20.6,31,20.6z"/>
					<path class="st3" d="M27.8,20.6l0.5-0.3c0,0.4,0,0.9,0.3,1.4c-0.3,0.1-0.6,0.1-0.6,0.1C27.6,21.3,27.8,20.6,27.8,20.6z"/>
				</g>
			</g>
		</g>
		<g>
			<g>
				<path class="st9" d="M28,39.9c-0.1-6-3.5-6.1-3.5-6.1c-1.9-0.2-2.8-0.8-3-0.9h-3.3c-0.2,0.1-1.1,0.7-3,0.9c0,0-3.4,0.1-3.5,6.1
					H28z"/>
				<path class="st3" d="M28,39.9c-0.1-6-3.5-6.1-3.5-6.1c-1.3-0.1-2.2-0.5-2.6-0.7c0,0-0.1,1.6-2,2c0,0-2.1-0.3-2.1-2
					c-0.5,0.2-1.3,0.5-2.6,0.7c0,0-3.4,0.1-3.5,6.1H28z"/>
				<g>
					<rect x="18.2" y="31.1" class="st9" width="3.4" height="2.5"/>
					<path class="st10" d="M18.2,31.8L18.2,31.8c0,0,0.1,0.1,0.1,0.1c0.1,0.1,0.2,0.2,0.3,0.3c0,0,0,0,0,0c0,0,0.1,0.1,0.1,0.1
						c0.1,0,0.1,0.1,0.2,0.1c0.1,0.1,0.2,0.1,0.3,0.2c0,0,0.1,0,0.1,0.1c0.1,0,0.2,0.1,0.3,0.1c0.1,0,0.2,0.1,0.3,0.1
						c0,0,0.3,0,0.2,0c0.2,0,0.5,0,0.7,0c0.1,0,0.2,0,0.3,0c0,0,0.2,0,0.2,0c0.1,0,0.2,0,0.3-0.1v-1.7h-3.4V31.8
						C18.2,31.8,18.2,31.8,18.2,31.8z"/>
				</g>
				<path class="st9" d="M23.8,26.6c0,2.9-1.7,5.3-3.9,5.3c-2.1,0-3.9-2.4-3.9-5.3c0-2.9,1.7-4.8,3.9-4.8
					C22,21.8,23.8,23.6,23.8,26.6z"/>
				<path class="st11" d="M17.8,24.2C17.8,24.2,17.8,24.2,17.8,24.2c0.6-0.7,1.3-1,2.1-1c1.7,0,3,1.4,3,3.7c0,1.5-0.6,2.9-1.5,3.6
					C21.5,30.5,16.4,29.9,17.8,24.2z"/>
				<path class="st12" d="M19.3,30.8c-1.3-0.8-2-2.3-2.2-3.8c-0.2-1.4,0.2-3,1.1-4.2c0.3-0.4,0.7-0.7,1.2-1
					c-1.9,0.3-3.3,2.1-3.3,4.7c0,2.9,1.7,5.3,3.9,5.3c0.6,0,1.2-0.2,1.7-0.6C20.8,31.4,20,31.2,19.3,30.8z"/>
				<polygon class="st13" points="20.8,39.9 20.3,36.1 19.3,36.1 18.9,39.9 				"/>
				<path class="st10" d="M19.9,39.9c-0.3-0.7-0.3-1.4-0.4-2.2c0-0.6,0-1.1,0.2-1.6l-0.3,0l-0.4,3.8H19.9z"/>
				<g>
					<path class="st13" d="M19,35h1.7c0,0,0.1,0.9-0.6,1.3h-0.6C19.5,36.3,18.8,35.7,19,35z"/>
					<path class="st10" d="M20.7,35h-0.3c0,0.1,0,0.1,0,0.2c0,0.3-0.3,0.6-0.6,0.6h0c-0.3,0-0.6-0.3-0.6-0.6c0-0.1,0-0.1,0-0.2H19
						c-0.2,0.7,0.5,1.3,0.5,1.3h0.6C20.7,35.9,20.7,35,20.7,35z"/>
				</g>
				<path class="st14" d="M19.9,22.9c0,0,3.4-2,3.8,4.9c0,0,1.2-3.4-0.9-5.9c0,0-2.2-2.4-5.7-0.2c0,0-0.7,0.4-1.3,0.2
					c0,0,0.3,0.6,0.8,0.7c0,0-0.6,0.4-1.3,0.3c0,0,0.3,0.8,0.8,0.9c0,0-0.9,1.5,0.1,4C16.1,27.8,16.1,21.2,19.9,22.9z"/>
				<path class="st6" d="M23.6,24.1C23.6,24.1,23.5,24,23.6,24.1c-0.1-0.2-0.1-0.3-0.1-0.4c0-0.1-0.1-0.3-0.2-0.4
					c0-0.1-0.1-0.2-0.1-0.2C23.1,23,23,22.9,23,22.8c-0.1-0.1-0.1-0.2-0.2-0.3c0,0-0.1-0.1-0.1-0.1c0,0-0.1-0.1-0.1-0.1
					c0,0,0,0-0.1-0.1c0,0,0,0-0.1-0.1c0,0-0.1-0.1-0.1-0.1c-0.1-0.1-0.2-0.2-0.3-0.2c-0.1-0.1-0.2-0.1-0.3-0.2
					c-0.1-0.1-0.2-0.1-0.4-0.2l-0.1,0c0,0-0.1,0-0.1,0c-0.1,0-0.1,0-0.2-0.1c-0.1,0-0.1,0-0.2,0l-0.1,0l-0.1,0c0,0-0.1,0-0.1,0
					c-0.1,0-0.3,0-0.4,0c-0.1,0-0.3,0-0.4,0c0,0-0.1,0-0.1,0l0,0l0,0c-0.1,0-0.1,0-0.2,0c-0.1,0-0.1,0-0.2,0c-0.1,0-0.1,0-0.2,0.1
					c-0.3,0.1-0.5,0.2-0.7,0.3c-0.1,0-0.1,0.1-0.2,0.1c-0.1,0-0.1,0.1-0.2,0.1c-0.1,0.1-0.2,0.1-0.3,0.2c-0.2,0.1-0.4,0.2-0.5,0.3
					c-0.2,0.1-0.3,0.1-0.5,0.1c0,0-0.1,0-0.1,0c0,0-0.1,0-0.1,0c0,0-0.1,0-0.1-0.1c-0.1,0-0.1-0.1-0.1-0.1s0,0,0.1,0
					c0,0,0.1,0,0.1,0c0,0,0,0,0.1,0c0,0,0.1,0,0.1,0c0.1,0,0.3,0,0.4-0.1c0.2-0.1,0.3-0.2,0.5-0.3c0.2-0.1,0.4-0.3,0.6-0.4
					c0.2-0.1,0.5-0.2,0.7-0.3c0.1,0,0.1,0,0.2-0.1c0.1,0,0.1,0,0.2-0.1c0.1,0,0.1,0,0.2,0l0.1,0l0.1,0c0,0,0.1,0,0.1,0
					c0.1,0,0.3,0,0.4,0c0.1,0,0.3,0,0.4,0c0,0,0.1,0,0.1,0l0.1,0l0.1,0c0.1,0,0.1,0,0.2,0c0.1,0,0.1,0,0.2,0.1c0,0,0.1,0,0.1,0
					l0.1,0c0.1,0.1,0.3,0.1,0.4,0.2c0.1,0.1,0.2,0.2,0.3,0.2c0.1,0.1,0.2,0.2,0.3,0.3c0,0,0.1,0.1,0.1,0.1c0,0,0,0,0.1,0.1
					c0,0,0,0,0.1,0.1c0,0,0.1,0.1,0.1,0.1c0,0.1,0.1,0.1,0.1,0.1c0.1,0.1,0.1,0.2,0.2,0.3c0.1,0.1,0.1,0.2,0.1,0.3
					c0,0.1,0.1,0.2,0.1,0.3c0,0.1,0.1,0.2,0.1,0.2c0,0.1,0,0.1,0.1,0.2c0,0.1,0.1,0.2,0.1,0.3C23.5,24,23.6,24.1,23.6,24.1z"/>
				<path class="st6" d="M23.1,24.3C23.1,24.3,23.1,24.2,23.1,24.3c0-0.1-0.1-0.2-0.1-0.3c0-0.1,0-0.1-0.1-0.2
					c0-0.1-0.1-0.1-0.1-0.2c0-0.1-0.1-0.1-0.1-0.2c0-0.1-0.1-0.2-0.1-0.2c-0.1-0.2-0.2-0.3-0.4-0.5c-0.1-0.1-0.1-0.2-0.2-0.2
					c0,0-0.1-0.1-0.1-0.1c0,0,0,0-0.1-0.1c0,0,0,0-0.1-0.1c-0.2-0.1-0.4-0.3-0.6-0.4l-0.1,0c0,0-0.1,0-0.1,0c-0.1,0-0.1,0-0.2-0.1
					c-0.1,0-0.1,0-0.2,0c0,0-0.1,0-0.1,0l-0.1,0c-0.2,0-0.5,0-0.7,0c0,0-0.1,0-0.1,0l0,0l0,0l0,0c-0.1,0-0.1,0-0.2,0
					c-0.1,0-0.1,0-0.2,0c-0.1,0-0.1,0-0.2,0.1c-0.2,0.1-0.4,0.2-0.6,0.2c-0.2,0.1-0.4,0.2-0.5,0.3c-0.2,0.1-0.3,0.2-0.5,0.2
					c-0.2,0.1-0.3,0.1-0.4,0.1c-0.1,0-0.2-0.1-0.3-0.1c-0.1,0-0.1-0.1-0.1-0.1s0,0,0.1,0c0,0,0.1,0,0.1,0c0,0,0,0,0.1,0
					c0,0,0,0,0.1,0c0.1,0,0.2,0,0.4-0.1c0.1-0.1,0.3-0.2,0.4-0.3c0.2-0.1,0.3-0.2,0.5-0.3c0.2-0.1,0.4-0.2,0.6-0.3
					c0.1,0,0.1,0,0.2-0.1c0.1,0,0.1,0,0.2-0.1c0.1,0,0.1,0,0.2,0l0,0l0,0l0,0c0,0,0.1,0,0.1,0c0.3,0,0.5,0,0.8,0l0.1,0
					c0,0,0.1,0,0.1,0c0.1,0,0.1,0,0.2,0c0.1,0,0.1,0,0.2,0.1c0,0,0.1,0,0.1,0l0.1,0c0.2,0.1,0.5,0.3,0.6,0.4c0,0,0,0,0.1,0.1
					c0,0,0,0,0.1,0.1c0,0,0.1,0.1,0.1,0.1c0.1,0.1,0.2,0.2,0.2,0.3c0.1,0.2,0.2,0.4,0.3,0.5c0,0.1,0.1,0.2,0.1,0.3
					c0,0.1,0.1,0.2,0.1,0.2c0,0.1,0,0.1,0.1,0.2c0,0.1,0,0.1,0.1,0.2C23.1,24,23.1,24.1,23.1,24.3C23.1,24.2,23.1,24.3,23.1,24.3z"
					/>
				<path class="st6" d="M15.8,23c0,0,0,0.1,0.1,0.1c0,0,0,0,0,0.1c0,0,0,0,0,0c0,0,0,0,0,0l0.1,0l0.1,0c0,0,0,0,0.1,0
					c0,0,0,0,0.1,0c0,0,0,0,0.1,0l0.1,0l0.1,0l0,0l0,0l0.1,0c0,0,0,0,0.1,0l0.1,0l0.4-0.1l-0.4,0.2c0,0-0.1,0-0.1,0.1
					c0,0-0.1,0-0.1,0.1c0,0.1-0.1,0.1-0.1,0.2l-0.1,0.1c0,0,0,0.1,0,0.1c0,0.1-0.1,0.1-0.1,0.2c0,0.1,0,0.1-0.1,0.2c0,0,0,0.1,0,0.1
					c0,0,0,0.1,0,0.1c0,0.1,0,0.1,0,0.2l0,0.2c0,0.1,0,0.2,0,0.2c0,0.1,0,0.2,0,0.2c0,0.1,0,0.2,0,0.2l0,0.1c0,0,0,0.1,0,0.1l0,0.2
					c0,0.1,0,0.2,0,0.2c0,0.2,0,0.3,0,0.5c0-0.2-0.1-0.3-0.1-0.5c0-0.1,0-0.2,0-0.2l0-0.2c0-0.1,0-0.2,0-0.2c0-0.1,0-0.2,0-0.2
					c0-0.1,0-0.2,0-0.2c0-0.1,0-0.2,0-0.2l0-0.2c0-0.1,0-0.2,0-0.2c0,0,0-0.1,0-0.1c0,0,0-0.1,0-0.1c0-0.1,0-0.2,0.1-0.2l0-0.1
					c0,0,0-0.1,0.1-0.1c0,0,0-0.1,0.1-0.1l0.1-0.1c0-0.1,0.1-0.1,0.2-0.2c0,0,0.1-0.1,0.1-0.1c0,0,0.1,0,0.1-0.1l0,0.1l-0.1,0
					c0,0,0,0-0.1,0l-0.1,0l0,0l0,0l-0.1,0l-0.1,0c0,0,0,0-0.1,0c0,0,0,0-0.1,0c0,0,0,0-0.1,0l-0.1,0c0,0,0,0,0-0.1c0,0,0,0,0-0.1
					c0,0-0.1-0.1-0.1-0.1C15.8,23.1,15.8,23,15.8,23z"/>
				<path class="st15" d="M18,33c0,0-1.6,0.6-0.8,2.5c0,0,0.2-2,2.7,0.2c0,0,0.2-1.7-0.8-2.1C19.1,33.6,18,33.5,18,33z"/>
				<path class="st15" d="M21.8,33c0,0,1.4,0.5,0.6,2.3c0,0-0.8-1.8-2.5,0.5c0,0-0.2-1.9,0.8-2.1C20.7,33.6,21.8,33.5,21.8,33z"/>
			</g>
		</g>
	</g>
</g>
</svg>
