<?xml version="1.0" encoding="utf-8"?>
<!-- Generator: Adobe Illustrator 25.2.1, SVG Export Plug-In . SVG Version: 6.00 Build 0)  -->
<svg version="1.1" id="Layer_1" xmlns="http://www.w3.org/2000/svg" xmlns:xlink="http://www.w3.org/1999/xlink" x="0px" y="0px"
	 viewBox="0 0 48 48" style="enable-background:new 0 0 48 48;" xml:space="preserve">
<style type="text/css">
	.st0{fill:#FFB800;}
	.st1{fill:#FFFFFF;}
	.st2{fill:#F04E23;}
	.st3{fill:#103458;}
	.st4{fill:#00B2E2;}
</style>
<g>
	<g>
		<g>
			<g>
				<path class="st0" d="M38.9,16.8c0,0,0.6-0.8,1-1.2c0.4-0.4,0.8-0.6,0.9-0.8c0.3-0.3,0.6,0,0,0.5c-0.4,0.3-0.4,0.4-0.4,0.6
					c-0.1,0.2,0.1,1.4-1,1.6C38.6,17.7,38.7,17,38.9,16.8z"/>
			</g>
			<g>
				<g>
					<path class="st1" d="M24,45.8c-0.2-0.8-0.3-1.6-0.4-2.5c0-0.3,0-0.6,0-0.8c0,0,0,0.1,0,0.1c-0.2-0.1-0.4-0.3-0.5-0.4
						c0-0.1-0.1-0.1-0.1-0.2c0,0.1,0.1,0.1,0.1,0.2c0.2,0.2,0.4,0.3,0.6,0.4c0,0.3,0,0.6,0.1,0.9C23.9,44.1,24,45,24,45.8L24,45.8z"
						/>
				</g>
				<g>
					<path class="st1" d="M22.9,39.7c0.1,0.3,0.1,0.6,0.1,0.9c0,0.3,0,0.6-0.1,0.9c-0.1-0.3-0.1-0.6-0.1-0.9
						C22.9,40.2,22.9,39.9,22.9,39.7L22.9,39.7z"/>
				</g>
				<g>
					<path class="st1" d="M24.2,39.7c0,0.4,0,0.7,0,1.1c0,0.4-0.1,0.7-0.2,1.1c0-0.4,0-0.7,0-1.1C24.1,40.4,24.1,40.1,24.2,39.7
						L24.2,39.7z"/>
				</g>
				<g>
					<path class="st1" d="M29.6,39.6c0.1,0.2,0.2,0.4,0.3,0.5c0,0.1,0.1,0.1,0.1,0.2c-0.1,0-0.1-0.1-0.2-0.1
						C29.6,40.1,29.6,39.8,29.6,39.6L29.6,39.6z"/>
				</g>
				<g>
					<path class="st1" d="M29,39.7c0.2,0.4,0.4,0.7,0.7,1c0.1,0.1,0.2,0.1,0,0.1C29.3,40.6,29,40.2,29,39.7L29,39.7z"/>
				</g>
				<g>
					<path class="st1" d="M17.9,39.2c0,0.2-0.1,0.4-0.3,0.6c-0.1,0-0.1,0.1-0.2,0.1c0-0.1,0.1-0.1,0.1-0.2
						C17.7,39.6,17.8,39.4,17.9,39.2L17.9,39.2z"/>
				</g>
				<g>
					<path class="st1" d="M18.5,39.4c0,0.4-0.4,0.9-0.8,1c0,0-0.1,0-0.1,0c0.1,0,0.1-0.1,0.2-0.1C18,40.1,18.3,39.7,18.5,39.4
						L18.5,39.4z"/>
				</g>
			</g>
			<g>
				<g>
					<path class="st2" d="M24.3,20.9c-0.5,0-1,0-1.4,0.1c-1.1,0.2-3.2,0.7-4,1.3c-1.2,0.9-1.2,5.1-1,7.7c0.2,2.6,0.3,3.6,0.2,5.2
						c-0.2,1.6-0.8,4.3-0.8,4.3s5.9,1.9,13.1,0.4c0,0-0.4-2.7-0.5-4.4c-0.1-1.6,0.1-2.6,0.5-5.2c0.4-2.6,0.6-6.8-0.5-7.8
						c-0.8-0.7-2.8-1.3-3.9-1.6C25.3,21,24.8,21,24.3,20.9L24.3,20.9z"/>
				</g>
				<g>
					<g>
						<path class="st3" d="M19.8,39.2c1.3,0.1,3,0.2,4.3,0.2c1.2,0,2.5,0,3.7-0.1c-0.2,0-0.4,0.1-0.6,0.1c0,0-0.1,0-0.2,0
							c-0.9,0.1-1.8,0.2-2.8,0.2C22.8,39.6,21.3,39.5,19.8,39.2L19.8,39.2z"/>
					</g>
					<g>
						<path class="st3" d="M21,34.9c2.3-0.6,4.5-1.3,6.5-2.4c0.3-0.2,0.6-0.3,0.8-0.5c-0.3,0.2-0.5,0.4-0.8,0.6
							c-0.8,0.6-1.8,1-2.7,1.4C23.6,34.3,22.3,34.7,21,34.9L21,34.9z"/>
					</g>
					<g>
						<path class="st3" d="M20.6,31.4c0.7-0.1,1.6-0.2,2.3-0.2c0.8-0.1,1.6-0.1,2.3-0.3C24.2,31.5,21.8,31.5,20.6,31.4L20.6,31.4z"
							/>
					</g>
				</g>
			</g>
			<g>
				<g>
					<path class="st2" d="M26.9,22.6c0.8-0.3,1.5-0.4,2.4-0.3c2.1,0.4,3.6,1.9,5.2,3.1c1.1,0.8,2.2,1.6,3.3,2.4c0,0,0.2,0.6,0.1,1.1
						c0,0.1-0.1,0.4-0.3,0.7c-0.2,0.2-0.4,0.4-0.7,0.5c-0.1,0.1-0.4,0.2-0.6,0.3c0,0-0.6,0.2-1.4,0c-1.5-0.4-2.9-1.2-4.3-1.8
						c-0.9-0.4-1.8-0.9-2.7-1.3c-0.8-0.3-1.5-0.8-2-1.5c-0.3-0.4-0.5-0.9-0.6-1.3c-0.1-0.3-0.1-0.6,0.1-0.8c0.1-0.3,0.4-0.4,0.7-0.6
						C26.3,22.9,26.6,22.7,26.9,22.6z"/>
				</g>
			</g>
			<g>
				<g>
					<path class="st2" d="M19.3,22.1c-0.8,0.1-1.6,0.3-2.3,0.9c-1.7,1.3-2.3,3.3-3.2,5.1c-0.6,1.2-1.2,2.4-1.9,3.6
						c0,0,0.1,0.6,0.4,1c0.1,0.1,0.3,0.3,0.6,0.5c0.3,0.1,0.5,0.1,0.9,0.1c0.2,0,0.4,0,0.7,0c0,0,0.6-0.1,1.3-0.7
						c1.2-1,2.1-2.4,3-3.6c0.6-0.8,1.2-1.6,1.9-2.4c0.6-0.6,1-1.4,1.1-2.3c0.1-0.4,0-1-0.1-1.5c-0.1-0.3-0.2-0.6-0.4-0.7
						c-0.3-0.2-0.6-0.2-0.9-0.2C20,22,19.7,22,19.3,22.1z"/>
				</g>
			</g>
			<g>
				<g>
					<g>
						<g>
							<path class="st0" d="M39.1,17.8c0.3,0,0.7-0.1,1-0.2c0.1,0,1.2,0,1-0.3c0-0.1-0.1-0.1-0.2,0c-0.1,0-0.2,0-0.2-0.1
								c0-0.1,0-0.1,0.1-0.2c0.1,0,0.1,0,0.2,0c0.1,0,0.1,0,0.1-0.1c0-0.1-0.1-0.2-0.2-0.1c-0.1,0-0.2,0-0.3,0c0-0.1,0-0.2,0.1-0.2
								s0.2,0,0.2-0.1c0.1,0,0.1-0.1,0.1-0.2c0-0.1-0.1-0.1-0.2-0.1c-0.1,0-0.2,0-0.2-0.1c0-0.1,0.1-0.1,0.2-0.1
								c0.1,0,0.2,0,0.2-0.1c0-0.1,0-0.2-0.1-0.2s-0.2,0-0.2,0c-0.2,0-0.3,0-0.4,0.1c-0.2,0.1-0.5,0.3-0.7,0.4
								c-0.3,0.2-0.7,0.4-1,0.7C38.5,17.5,39.1,17.8,39.1,17.8z"/>
						</g>
					</g>
					<g>
						<g id="forearm_left_00000079450488164033322130000014262559378992032151_">
							<g>
								<path class="st0" d="M35.3,30.4c1.5,0.2,3.4-1.3,3.9-4.5c0.6-3.9,0.1-8.8,0.1-8.8l-0.7,0c0,0-4.3,5.1-5.2,8.5
									C32.9,27.8,33.5,30.1,35.3,30.4z"/>
							</g>
						</g>
						<g>
							<g>
								<g>
									<path class="st2" d="M33.5,25.5c-0.6,2.3-0.1,4.8,1.7,5c1.5,0.2,3.8-0.9,4.5-4.6c0.4-2.2,0.3-4.7,0.3-6.5l-2.6-0.7
										C36,20.6,34,23.4,33.5,25.5z"/>
								</g>
							</g>
							<g id="forearm_left_00000053511315287823708200000015837375842882337175_">
								<g>
									<path class="st3" d="M33.9,24.5c-0.3,1-0.4,2-0.6,3.1C33.2,26.6,33.4,25.3,33.9,24.5L33.9,24.5z"/>
								</g>
							</g>
							<g>
								<path class="st3" d="M37.1,19.3c0.4,0,0.8,0.1,1.1,0.2c0.4,0.1,0.7,0.2,1.1,0.4c-0.4,0-0.8-0.1-1.1-0.2
									C37.9,19.6,37.5,19.5,37.1,19.3L37.1,19.3z"/>
							</g>
						</g>
					</g>
				</g>
			</g>
			<g>
				<g>
					<g>
						<g id="forearm_left_00000129198868887555934320000009492547079688145831_">
							<g>
								<path class="st0" d="M14,33.4c-1.4,0.4-3.5-0.8-4.4-4c-1.1-3.8-1.3-8.7-1.3-8.7L9,20.6c0,0,4.9,4.6,6.2,7.8
									C16.1,30.5,15.8,32.9,14,33.4z"/>
							</g>
						</g>
						<g>
							<g>
								<g>
									<path class="st2" d="M15.2,28.3c0.9,2.2,0.7,4.7-1.1,5.2c-1.4,0.4-3.9-0.4-5-4c-0.6-2.1-0.9-4.6-1.1-6.4l2.5-1
										C12.1,23.7,14.4,26.3,15.2,28.3z"/>
								</g>
							</g>
							<g id="forearm_left_00000083779741057634845200000011929601113734783679_">
								<g>
									<path class="st3" d="M14.7,27.4c0.6,0.8,0.9,2,1,3C15.3,29.3,15.1,28.3,14.7,27.4L14.7,27.4z"/>
								</g>
							</g>
							<g>
								<path class="st3" d="M10.8,22.7c-0.3,0.2-0.7,0.4-1,0.5c-0.4,0.2-0.7,0.3-1.1,0.4c0.3-0.2,0.7-0.4,1-0.5
									C10.1,22.9,10.4,22.8,10.8,22.7L10.8,22.7z"/>
							</g>
						</g>
					</g>
					<g>
						<path class="st0" d="M8.9,20.4c0,0-0.5-0.9-0.8-1.4c-0.3-0.4-0.6-0.8-0.8-0.9C7,17.8,6.7,18,7.2,18.6c0.3,0.4,0.3,0.5,0.3,0.6
							c0,0.2-0.4,1.4,0.7,1.8C8.9,21.3,9,20.6,8.9,20.4z"/>
					</g>
					<g>
						<g>
							<path class="st0" d="M8.5,21.3c-0.2-0.1-0.5-0.1-0.7-0.2c-0.2-0.1-0.4-0.1-0.5-0.2c-0.2-0.1-0.4-0.1-0.5-0.2c0,0,0-0.1,0-0.1
								c0-0.1,0.1-0.1,0.2-0.1s0.2,0,0.2-0.1c0-0.1,0-0.1-0.1-0.2c-0.1,0-0.1,0-0.2-0.1c-0.1,0-0.1-0.1-0.1-0.1
								c0-0.1,0.1-0.2,0.2-0.2c0,0,0.1,0,0.1,0c0,0,0.1,0,0.1-0.1c0-0.1,0-0.1-0.1-0.1s-0.1,0-0.2,0c-0.1,0-0.1-0.1-0.1-0.1
								c0-0.1,0.1-0.1,0.2-0.1c0.1,0,0.1,0,0.2,0c0-0.2-0.2-0.2-0.3-0.2c-0.1,0-0.1-0.1-0.1-0.2C6.8,19,6.9,19,7,19
								c0.2,0,0.4,0.1,0.6,0.2c0.2,0.2,0.4,0.3,0.6,0.5C8.5,20,8.8,20.3,9,20.6C9.2,21.2,8.5,21.3,8.5,21.3z"/>
						</g>
					</g>
				</g>
			</g>
			<g>
				<g>
					<path class="st3" d="M26.8,15.6C26.8,15.6,26.8,15.6,26.8,15.6c0.3-0.4,0.4-0.8,0.4-1.2c0-0.2,0.1-0.4,0.1-0.6
						c-0.1-0.5-0.5-0.5-0.8-0.8c-0.1-0.1-0.1-0.7-0.2-0.8c-0.3-0.6-1-1.1-1.7-1.1c-0.5,0-0.9,0.3-1.3,0.5c-0.4,0.2-0.9,0.4-1.3,0.5
						c-0.4,0-1-0.2-1.3,0.1c-0.3,0.2-0.4,0.8-0.2,1.1c0.1,0.2,0.3,0.3,0.5,0.5c0.3,0.4,0,0.9,0.1,1.3c0.1,0.3,0.4,0.4,0.6,0.6
						c0.3,0.3,0.4,0.8,0.6,1.1c0.3,0.4,0.6,0.8,0.9,1.1c0.3,0.4,0.7,0.7,1.2,0.8c0.5,0,1-0.2,1.3-0.6c0.3-0.4,0.5-0.8,0.7-1.3
						C26.3,16.4,26.5,16,26.8,15.6z"/>
				</g>
				<g>
					<path class="st0" d="M22.3,21.6C22.3,21.6,22.3,21.6,22.3,21.6c0-0.2,0.1-0.4,0.1-0.5c0.1-0.8,0.1-1.6,0.1-2.4
						c0-0.1,0-0.1,0-0.2c0,0,0-0.1,0-0.1c0,0,0,0,0,0l3.3-0.1c0,0.2,0,0.3,0,0.5c0,0.3,0,0.7,0,1c0,0.4,0,0.7,0,1.1
						c0,0.1,0,0.2,0,0.3c0,0.1,0,0.1,0,0.2c0,0,0,0.1,0,0.1c0,0,0,0-0.1,0c-0.2,0.1-0.4,0.1-0.6,0.2c-0.3,0.1-0.6,0.1-0.9,0.2
						c-0.6,0.1-1.2,0-1.8-0.2C22.4,21.7,22.3,21.7,22.3,21.6z"/>
				</g>
				<g>
					<path class="st3" d="M22.8,19.2c0,0,0.2,0.9,1.3,0.9c1.1,0,1.5-1.1,1.5-1.1L22.8,19.2z"/>
				</g>
				<g>
					<path class="st0" d="M27.9,15.7c-0.1-0.3-0.4-0.4-0.7-0.4c-0.3,0-0.5,0.2-0.7,0.4l-0.1,1c0.4,0.1,0.8,0,1.1-0.2
						c0.1-0.1,0.3-0.2,0.3-0.3c0-0.1,0-0.1,0-0.2C27.9,15.9,27.9,15.8,27.9,15.7z"/>
					<g>
						<path class="st3" d="M26.7,16.3c0.1-0.2,0.2-0.3,0.4-0.4c0.2-0.1,0.4,0,0.5,0.2C27.3,15.9,27,16.1,26.7,16.3L26.7,16.3z"/>
					</g>
				</g>
				<g>
					<path class="st0" d="M21.7,15.7c-0.2-0.2-0.4-0.4-0.7-0.4c-0.3,0-0.6,0.1-0.7,0.4c0,0.1,0,0.2,0,0.3c0,0.1,0,0.1,0,0.2
						c0.1,0.1,0.2,0.3,0.3,0.3c0.3,0.2,0.8,0.3,1.1,0.2L21.7,15.7z"/>
					<g>
						<path class="st3" d="M21.4,16.2c-0.3-0.2-0.5-0.4-0.9-0.2c0.1-0.2,0.3-0.2,0.5-0.1C21.2,15.9,21.4,16,21.4,16.2L21.4,16.2z"/>
					</g>
				</g>
				<g>
					<path class="st0" d="M21.6,15.6c0,0.5,0,0.9,0.1,1.3c0.1,0.9,0.4,1.8,1.2,2.3c0.3,0.2,0.7,0.3,1.1,0.3c0.8,0.1,1.4-0.3,1.8-0.9
						c0.6-1,0.7-2.3,0.7-3.4c0-0.6-0.1-1.2-0.4-1.8c-0.4-0.8-1.1-1.3-2-1.3c0,0-0.1,0-0.1,0c-0.8,0-1.4,0.4-1.8,1.1
						C21.8,13.9,21.7,14.8,21.6,15.6z"/>
				</g>
				<g>
					<path class="st1" d="M24.9,17.6c0,0-0.3,0.1-1.6,0c0,0,0,0.6,0.7,0.6C24.8,18.4,24.9,18,24.9,17.6z"/>
				</g>
				<g>
					<path class="st3" d="M25.9,15.5c-0.2,0-0.5,0-0.7,0c-0.2,0-0.4,0-0.7,0C24.9,15.1,25.6,15.2,25.9,15.5L25.9,15.5z"/>
				</g>
				<g>
					<path class="st3" d="M22.3,15.4c0.3-0.3,1.1-0.4,1.3,0c-0.2,0-0.4,0-0.7,0C22.8,15.4,22.5,15.4,22.3,15.4L22.3,15.4z"/>
				</g>
				<g>
					
						<ellipse transform="matrix(3.224015e-02 -0.9995 0.9995 3.224015e-02 8.3145 40.7909)" class="st3" cx="25.2" cy="16.1" rx="0.3" ry="0.2"/>
				</g>
				<g>
					
						<ellipse transform="matrix(3.224015e-02 -0.9995 0.9995 3.224015e-02 6.3067 38.5788)" class="st3" cx="23.1" cy="16" rx="0.3" ry="0.2"/>
				</g>
				<g>
					<path class="st3" d="M23.9,15.9c0,0.3,0,0.5-0.1,0.8c0,0,0,0.1,0,0.2c0,0,0,0.1,0,0.1c0,0,0.1,0,0.1,0.1c0,0-0.1,0-0.1,0
						c-0.1,0-0.2-0.1-0.2-0.2c0,0,0-0.1,0-0.1C23.7,16.5,23.8,16.2,23.9,15.9L23.9,15.9z"/>
				</g>
				<g>
					<path class="st3" d="M26.5,15.8c0,0-0.1-0.2-0.1-0.3c0-0.1-0.4-1.7-0.3-1.8c-0.3,0-0.7-0.1-0.9,0.1c-0.3,0.1-0.6,0.3-0.9,0.5
						c-0.6,0.3-1.3,0.4-2,0.1c0,0-0.1,0-0.1,0c0,0-0.1,0.1-0.1,0.1c-0.1,0.2-0.2,0.5-0.3,0.7c-0.1,0.2-0.2,0.5-0.1,0.7
						c0,0-0.6-1-0.3-1.9c0.3-0.9,0.8-2.1,3.1-2C25.8,11.9,27.2,13.2,26.5,15.8z"/>
				</g>
				<g>
					<g>
						<path class="st1" d="M22.9,17c-0.6,0-1-0.5-1-1.1c0-0.6,0.5-1,1.1-1c0.6,0,1,0.5,1,1.1C24,16.6,23.5,17,22.9,17z M22.9,15
							c-0.5,0-0.9,0.4-1,0.9c0,0.5,0.4,0.9,0.9,1c0.5,0,0.9-0.4,1-0.9C23.9,15.5,23.5,15.1,22.9,15z"/>
					</g>
					<g>
						<path class="st1" d="M25.2,17.1c-0.6,0-1-0.5-1-1.1c0-0.6,0.5-1,1.1-1c0.6,0,1,0.5,1,1.1C26.3,16.7,25.8,17.1,25.2,17.1z
							 M25.3,15.1c-0.5,0-0.9,0.4-1,0.9c0,0.5,0.4,0.9,0.9,1c0.5,0,0.9-0.4,1-0.9C26.2,15.6,25.8,15.1,25.3,15.1z"/>
					</g>
					<g>
						<path class="st1" d="M24.3,16.1C24.3,16.1,24.2,16.1,24.3,16.1C24.2,16,24.1,16,24.1,16c0,0,0,0,0,0C24,16,24,16,24,16
							c0,0-0.1,0-0.1,0c0,0,0-0.1,0-0.1c0,0,0.1-0.1,0.2-0.1c0,0,0,0,0,0c0.1,0,0.2,0,0.2,0.1C24.3,16,24.3,16,24.3,16.1
							C24.3,16.1,24.3,16.1,24.3,16.1z"/>
					</g>
				</g>
				<g>
					<path class="st3" d="M25.4,13.6c-0.3,0.6-1,1-1.6,1c0,0-0.1,0-0.1,0l0.1,0c0.5-0.1,0.9-0.3,1.2-0.7c0.1-0.1,0.2-0.3,0.3-0.4
						C25.3,13.6,25.4,13.6,25.4,13.6L25.4,13.6z"/>
				</g>
			</g>
			<g>
				<g>
					<path class="st1" d="M22.4,20.7c0,0,0.7,0.8,1.6,1.3l-0.6,1.2c0,0-1.7-1.1-1.7-1.8L22.4,20.7z"/>
				</g>
				<g>
					<path class="st1" d="M25.8,20.8c0,0-0.7,0.7-1.7,1.2l0.5,1.2c0,0,1.8-1,1.8-1.6L25.8,20.8z"/>
				</g>
			</g>
		</g>
		<g>
			<g>
				<g>
					<path class="st3" d="M7.2,7.7l33.8,0l0-2.3c0-2.8-2.2-5-5-5l-23.8,0c-2.8,0-5,2.2-5,5L7.2,7.7z"/>
				</g>
				<g>
					<g>
						<circle class="st2" cx="11.4" cy="4.7" r="0.6"/>
					</g>
					<g>
						<circle class="st0" cx="13" cy="4.7" r="0.6"/>
					</g>
					<g>
						<circle class="st4" cx="14.6" cy="4.7" r="0.6"/>
					</g>
				</g>
			</g>
			<g>
				<path class="st4" d="M7.2,7.7l33.8,0l0,37c0,1.6-1.3,2.9-2.9,2.9l-27.9,0c-1.6,0-2.9-1.3-2.9-2.9L7.2,7.7z M24.1,10.1
					c-3.6,0-6.5,2.9-6.5,6.5s2.9,6.5,6.5,6.5s6.5-2.9,6.5-6.5C30.6,13,27.7,10.1,24.1,10.1z"/>
			</g>
			<g>
				<g>
					<g>
						<path class="st1" d="M36.2,28.9l-24.3,0c-0.9,0-1.6-0.7-1.6-1.6l0-1.4c0-0.9,0.7-1.6,1.6-1.6l24.3,0c0.9,0,1.6,0.7,1.6,1.6
							l0,1.4C37.8,28.2,37.1,28.9,36.2,28.9z"/>
					</g>
				</g>
				<g>
					<g>
						<path class="st1" d="M36.2,35.7l-24.3,0c-0.9,0-1.6-0.7-1.6-1.6l0-1.4c0-0.9,0.7-1.6,1.6-1.6l24.3,0c0.9,0,1.6,0.7,1.6,1.6
							l0,1.4C37.8,35,37.1,35.7,36.2,35.7z"/>
					</g>
				</g>
				<g>
					<g>
						<rect x="11.3" y="38.1" class="st3" width="25.6" height="0.8"/>
					</g>
					<g>
						<rect x="17.8" y="41.5" class="st3" width="12.7" height="0.8"/>
					</g>
				</g>
			</g>
		</g>
		<g>
			<g>
				<path class="st0" d="M40.9,15.8C40.9,15.8,40.9,15.8,40.9,15.8c-0.1,0-0.1,0.1-0.2,0.1c0,0.1,0,0.1,0,0.2c0,0,0.1,0.1,0.2,0.1
					c0.1,0,0.2,0,0.3,0c0.1,0,0.2-0.1,0.1-0.2C41.3,15.6,41,15.7,40.9,15.8z"/>
			</g>
			<g>
				<path class="st0" d="M40.8,17.2C40.8,17.2,40.8,17.2,40.8,17.2c-0.1,0-0.1,0.1-0.2,0.1c0,0.1,0,0.1,0,0.2c0,0,0.1,0.1,0.2,0.1
					c0.1,0,0.2,0,0.3,0c0.1,0,0.2-0.1,0.1-0.2C41.3,17.1,41,17.2,40.8,17.2z"/>
			</g>
			<g>
				<path class="st0" d="M40.7,16.2C40.7,16.2,40.7,16.2,40.7,16.2c-0.1,0-0.1,0.1-0.2,0.1c0,0.1,0,0.1,0,0.2c0,0,0.1,0.1,0.2,0.1
					c0.1,0,0.4,0,0.5,0c0.1,0,0.2-0.1,0.1-0.2C41.4,16.1,40.9,16.2,40.7,16.2z"/>
			</g>
			<g>
				<path class="st0" d="M40.7,16.7C40.7,16.7,40.7,16.7,40.7,16.7c-0.1,0-0.1,0.1-0.2,0.1c0,0.1,0,0.1,0,0.2c0,0,0.1,0.1,0.2,0.1
					c0.1,0,0.3,0,0.4,0c0.1,0,0.2-0.1,0.1-0.2C41.3,16.6,40.9,16.6,40.7,16.7z"/>
			</g>
		</g>
		<g>
			<g>
				<path class="st0" d="M7.2,19C7.2,19,7.2,19,7.2,19c0.1,0,0.1,0.1,0.1,0.1c0,0.1,0,0.1,0,0.2c0,0-0.1,0.1-0.2,0.1
					c-0.1,0-0.2,0-0.3-0.1c-0.1,0-0.1-0.1-0.1-0.2C6.7,18.8,7,18.9,7.2,19z"/>
			</g>
			<g>
				<path class="st0" d="M7.1,20.5C7.1,20.5,7.1,20.5,7.1,20.5c0.1,0,0.1,0.1,0.1,0.1c0,0.1,0,0.1,0,0.2c0,0-0.1,0.1-0.2,0.1
					c-0.1,0-0.2,0-0.3-0.1c-0.1,0-0.1-0.1-0.1-0.2C6.7,20.3,7,20.4,7.1,20.5z"/>
			</g>
			<g>
				<path class="st0" d="M7.3,19.4C7.3,19.4,7.3,19.4,7.3,19.4c0.1,0,0.1,0.1,0.1,0.1c0,0.1,0,0.1,0,0.2s-0.1,0.1-0.2,0.1
					c-0.1,0-0.4,0-0.5-0.1c-0.1,0-0.1-0.1-0.1-0.2C6.6,19.3,7.1,19.4,7.3,19.4z"/>
			</g>
			<g>
				<path class="st0" d="M7.2,19.9C7.2,19.9,7.3,19.9,7.2,19.9C7.3,20,7.4,20,7.4,20c0,0.1,0,0.1,0,0.2c0,0-0.1,0.1-0.2,0.1
					c-0.1,0-0.3,0-0.4-0.1c-0.1,0-0.1-0.1-0.1-0.2C6.7,19.8,7.1,19.9,7.2,19.9z"/>
			</g>
		</g>
	</g>
</g>
</svg>
