<?xml version="1.0" encoding="utf-8"?>
<!-- Generator: Adobe Illustrator 25.2.1, SVG Export Plug-In . SVG Version: 6.00 Build 0)  -->
<svg version="1.1" id="Layer_1" xmlns="http://www.w3.org/2000/svg" xmlns:xlink="http://www.w3.org/1999/xlink" x="0px" y="0px"
	 viewBox="0 0 48 48" style="enable-background:new 0 0 48 48;" xml:space="preserve">
<style type="text/css">
	.st0{fill:#F2F7FC;}
	.st1{fill:#E3ECF7;}
	.st2{fill:none;stroke:#97BCE8;stroke-width:2;stroke-miterlimit:10;}
	.st3{fill:#97BCE8;}
	.st4{fill:#7CA8DC;}
	.st5{fill:#6194CF;}
	.st6{fill:#F2AF01;}
	.st7{fill:#F29F01;}
	.st8{fill:#FFFFFF;}
	.st9{font-family:'Montserrat-Bold';}
	.st10{font-size:2.5631px;}
	.st11{fill:#F15A24;}
	.st12{fill:#CEDEF2;}
	.st13{fill:none;stroke:#6194CF;stroke-width:3;stroke-linecap:round;stroke-linejoin:round;stroke-miterlimit:10;}
	.st14{font-size:2.6786px;}
	.st15{fill:none;stroke:#6194CF;stroke-linecap:round;stroke-linejoin:round;stroke-miterlimit:10;}
	.st16{fill:none;stroke:#E3ECF7;stroke-miterlimit:10;}
</style>
<g>
	<path class="st0" d="M5.9,44.1C6,44,6.2,43.9,6.4,44c0.2,0,0.3-0.2,0.3-0.4c0-0.2-0.1-0.4-0.1-0.5c0.1-0.5,0.8-0.5,1-0.9
		c0.2-0.3,0.1-0.6,0.2-0.9c0.1-0.5,0.6-0.8,1-0.9c0.5-0.1,1,0,1.5,0.1c-0.1-0.4,0.1-0.9,0.5-1c0.4-0.2,0.8-0.1,1.2,0
		c0.5,0.2,1,0.4,1.4,0.8c0.4-1.5,1.6-2.6,3.1-3.2c1.4-0.6,3-0.6,4.5-0.4c0.7,0.1,1.3,0.2,1.9,0.6c0.6,0.4,1,0.9,0.9,1.6
		c0.7-0.3,1.5,0.1,2.1,0.6c0.7,0.6,1.1,1.6,1.2,2.5s-0.4,1.9-1,2.6L5.7,44.5C5.7,44.3,5.8,44.1,5.9,44.1z"/>
	<path class="st1" d="M42,43.9c-0.2-0.1-0.4-0.1-0.7-0.1c-0.2,0-0.5,0-0.7-0.2c-0.2-0.1-0.3-0.4-0.4-0.5c-0.2-0.2-0.5-0.2-0.7-0.2
		c-0.1,0-0.1,0-0.2,0c0.1-0.1,0.2-0.2,0.2-0.3c0.1-0.3,0-0.7-0.3-0.8c-0.3-0.2-0.7-0.2-0.9,0c0.3-0.9-0.1-2-1-2.5
		c-0.8-0.5-2-0.3-2.7,0.4c0.4-1.1,0-2.4-0.9-3.2s-2.1-1.1-3.3-0.9c-1,0.2-2,0.7-2.6,1.6c-0.6,0.9-0.8,2-0.4,2.9
		c-1.6-0.5-3.3-0.3-4.7,0.6c-1.4,0.8-2.5,2.3-2.8,3.9l22.1-0.1C42.2,44.3,42.1,44,42,43.9z"/>
	<g>
		<g>
			<path class="st2" d="M16.4,33.6c-1.8,0.6-1.9,2.7-0.8,2.8c1.1,0.1,1-0.9,0.3-0.9c-0.7,0-1.8,0.6-2,1.5c-0.2,0.9,0.6,1.5,1.4,1.5
				c0.7,0,0.9-0.9,0-0.8c-0.9,0-1.4,1-1.4,1.7c0.1,0.6,0.9,1.3,1.8,1.1c0.9-0.2,0.6-1-0.2-0.8c-0.8,0.2-1.5,1.3-0.9,2.3
				c0.7,0.9,1.8,0.7,2.3,0.3c0.4-0.4,0.1-0.8-0.4-0.4c-0.6,0.4-0.2,1.7,1.3,1.9c1.5,0.2,2.2-0.6,2.3-1c0.3-0.8-0.8-1-0.9-0.2
				c-0.1,0.8,0.4,0.9,1,1c0.6,0.1,1.4,0.4,1.4,1.2"/>
			<path class="st3" d="M16.5,34l-0.4,0.3l-0.3,0.2c-0.5-0.2-0.6-0.8-0.6-0.8c0.1-0.1,0.2-0.1,0.3-0.2c0.2-0.1,0.5-0.3,0.5-0.3
				C16.1,33.4,16.5,33.9,16.5,34z"/>
			<path class="st4" d="M16.5,34l-0.4,0.3c-0.2-0.2-0.5-0.6-0.6-0.8c0.2-0.1,0.5-0.3,0.5-0.3C16.1,33.4,16.5,33.9,16.5,34z"/>
			<g>
				<g>
					<path class="st4" d="M33.7,13.9c-0.4,1-2,3.6-3,4.6c-0.7,0.7-1.2,1-2.2,0.2c-0.1,0-0.1-0.1-0.2-0.2c-0.4-0.3-0.8-0.6-1.3-0.7
						c-0.9-0.2-2,0.1-3,1.4c-1.6,2-2.8,4.3-3.3,6.2c-0.5,1.8,0.5,2.6,1.5,2.9c0.1,0,0.1,0,0.2,0.1c1.1,0.3,1.5,0.9,0.8,2.3
						c-0.6,1.4-1.9,3.3-2.6,4.2c-0.6,0.7-1.4,1-2.2,0.8c-0.2-0.1-0.4-0.1-0.7-0.3c-0.1,0-0.2-0.1-0.3-0.2c-0.5-0.3-0.9-0.6-1.2-1
						c-0.1-0.1-0.2-0.3-0.3-0.4c-0.1-0.1-0.2-0.2-0.3-0.4c-1.4-2.1-1.7-5.2-0.4-8.2c1.8-4.1,6.3-10.5,8.2-12.3
						c1.9-1.8,4.5-3,9.4-1.3c0,0,0,0,0,0C34.4,12.1,34,13.1,33.7,13.9z"/>
					<path class="st5" d="M23.3,30.7c-0.6,1.4-1.9,3.3-2.6,4.2c-0.6,0.7-1.4,1-2.2,0.8c-0.2-0.1-0.4-0.1-0.7-0.3
						c-0.1,0-0.2-0.1-0.3-0.2c0.9-0.3,2.1-1.8,3.2-3.5c0.1-0.1,0.2-0.2,0.2-0.4v0c0.9-1.5,1.4-2.7,1.3-3.1c0.1,0,0.1,0,0.2,0.1
						C23.6,28.6,23.9,29.2,23.3,30.7z"/>
					<path class="st5" d="M33.7,13.9c-0.4,1-2,3.6-3,4.6c-0.7,0.7-1.2,1-2.2,0.2c0.9-0.5,2.7-3.2,3-3.8c0.3-0.6,1.4-2.5,1.3-3.4
						c0,0,0,0,0,0C34.4,12.1,34,13.1,33.7,13.9z"/>
				</g>
			</g>
		</g>
	</g>
	<g>
		<g>
			<path class="st6" d="M34.8,29.2c0,0.3-0.1,0.7-0.2,1c-0.5,1.7-2,2.9-3.8,3c-1.2,0.1-2.3-0.4-3.1-1.2c-0.6-0.6-1.3-0.9-2.2-0.9
				c0,0-0.1,0-0.1,0c0.7-0.3,1.1-1,1-1.7c0-0.3,0-0.5,0-0.8c0.1-0.9,0.5-1.7,1.1-2.3c0.7-0.7,1.6-1.2,2.6-1.3
				C32.7,24.7,34.9,26.7,34.8,29.2z"/>
			<path class="st7" d="M34.6,30.2c-0.5,1.7-2,2.9-3.8,3c-1.2,0.1-2.3-0.4-3.1-1.2c-0.6-0.6-1.3-0.9-2.2-0.9c0,0-0.1,0-0.1,0
				c0.7-0.3,1.1-1,1-1.7c0-0.3,0-0.5,0-0.8c0.1-0.9,0.5-1.7,1.1-2.3c-0.2,0.7-0.3,1.5-0.2,2.2c0.1,0.6,0.4,1.3,0.8,1.8
				c0.9,1.2,2.5,1.8,3.9,1.5C33.1,31.6,34,31,34.6,30.2z"/>
			<g>
				<text transform="matrix(1 0 0 1 29.4609 29.9395)" class="st8 st9 st10">c</text>
				<rect x="31.5" y="28.9" class="st8" width="0.7" height="0.2"/>
			</g>
			<path class="st6" d="M11,27.7c0,0.2,0.1,0.4,0.2,0.6c-0.5-0.2-1-0.2-1.4,0c-0.3,0.1-0.6,0.1-0.9,0.1c-1.4,0-2.5-1-2.7-2.4
				c0-0.2,0-0.4,0-0.6c0.1-1.4,1.2-2.5,2.6-2.6c0.6,0,1.1,0.1,1.6,0.4c0.8,0.5,1.3,1.4,1.3,2.4c0,0.6-0.2,1.1-0.5,1.6
				C11.1,27.3,11,27.5,11,27.7z"/>
			<polygon class="st8" points="9.9,24.8 9.6,24.5 8.9,25.3 8.2,24.5 7.9,24.8 8.6,25.6 7.9,26.3 8.2,26.6 8.9,25.9 9.6,26.6 
				9.9,26.3 9.2,25.6 			"/>
			<path class="st6" d="M18.1,15c0,1.3-0.8,2.5-2,2.9c-0.3,0.1-0.5,0.4-0.5,0.7c0,0.1,0,0.2,0.1,0.3l-0.3-0.2
				c-0.6-0.4-1.4-0.6-2.1-0.6h-2c-0.9,0-1.7-0.4-2.3-0.9c-0.6-0.6-0.9-1.4-0.9-2.3c0-0.1,0-0.1,0-0.2c0.1-1.7,1.5-3,3.2-3h3.5
				c0.5,0,0.9,0.1,1.3,0.3c0.4,0.2,0.7,0.4,1,0.7C17.8,13.3,18.1,14.1,18.1,15z"/>
			<path class="st7" d="M18.1,15c0,1.3-0.8,2.5-2,2.9c-0.3,0.1-0.5,0.4-0.5,0.7c0,0.1,0,0.2,0.1,0.3l-0.3-0.2
				c-0.6-0.4-1.4-0.6-2.1-0.6h-2c-0.9,0-1.7-0.4-2.3-0.9c-0.6-0.6-0.9-1.4-0.9-2.3c0-0.1,0-0.1,0-0.2c0.1,0.4,0.3,0.8,0.6,1.2
				c0.2,0.2,0.5,0.4,0.8,0.5c0.9,0.4,1.9,0.3,2.8,0.3l2-0.1c0.7,0,1.5-0.1,2.1-0.6c0.5-0.5,0.6-1.2,0.5-1.8
				c-0.1-0.8-0.4-1.5-0.8-2.2c0.4,0.2,0.7,0.4,1,0.7C17.8,13.3,18.1,14.1,18.1,15z"/>
			<path class="st6" d="M42.5,18.3c-0.9,2-3.2,2.8-5.1,1.8c-0.4-0.2-0.7-0.4-1-0.7c-0.5-0.5-1.1-0.8-1.7-0.9
				c0.4-0.2,0.7-0.6,0.7-1.1c0-0.1,0-0.1,0-0.2c-0.1-0.7,0-1.5,0.4-2.2c0.2-0.4,0.5-0.8,0.8-1.1c1.2-1.1,3-1.3,4.4-0.4
				c1.1,0.7,1.7,1.8,1.8,3.1C42.9,17.2,42.8,17.8,42.5,18.3z"/>
			<path class="st6" d="M26.8,8.9c0,0.3,0.1,0.6,0.3,0.8l-0.7-0.2c-0.3-0.1-0.6-0.1-0.9,0.1c-0.5,0.2-1.1,0.4-1.7,0.4
				c-2.2,0-4-1.9-3.9-4.2c0-0.2,0-0.4,0.1-0.6c0.4-1.6,1.8-2.9,3.5-3C25.2,2,26.7,3,27.4,4.4c0.2,0.5,0.3,1,0.3,1.6
				c0,0.8-0.3,1.6-0.7,2.2C26.9,8.5,26.8,8.7,26.8,8.9z"/>
			<path class="st7" d="M26.8,8.9c0,0.3,0.1,0.6,0.3,0.8l-0.7-0.2c-0.3-0.1-0.6-0.1-0.9,0.1c-0.5,0.2-1.1,0.4-1.7,0.4
				c-2.2,0-4-1.9-3.9-4.2c0-0.2,0-0.4,0.1-0.6c0,0.4,0.1,0.9,0.2,1.3c0.3,0.7,0.9,1.2,1.5,1.4c0.8,0.3,1.7,0.2,2.5,0.1
				c0.6-0.1,1.3-0.1,1.9-0.4c0.6-0.3,1.1-0.7,1.3-1.4c0.1-0.5,0-1,0-1.5c0-0.1,0-0.2-0.1-0.4c0.2,0.5,0.3,1,0.3,1.6
				c0,0.8-0.3,1.6-0.7,2.2C26.9,8.5,26.8,8.7,26.8,8.9z"/>
			<g>
				<path class="st11" d="M21.5,5.6l0.1,0.3c0,0,0,0,0,0l0.3,0C22,5.9,22,6,22,6l-0.2,0.2c0,0,0,0,0,0l0.1,0.3c0,0,0,0.1-0.1,0
					l-0.2-0.2c0,0,0,0,0,0l-0.2,0.2c0,0-0.1,0-0.1,0l0.1-0.3c0,0,0,0,0,0L21,6c0,0,0-0.1,0-0.1l0.3,0c0,0,0,0,0,0L21.5,5.6
					C21.4,5.6,21.5,5.6,21.5,5.6z"/>
				<path class="st8" d="M23,5.6l0.1,0.3c0,0,0,0,0,0l0.3,0c0,0,0.1,0.1,0,0.1l-0.2,0.2c0,0,0,0,0,0l0.1,0.3c0,0,0,0.1-0.1,0L23,6.4
					c0,0,0,0,0,0l-0.2,0.2c0,0-0.1,0-0.1,0l0.1-0.3c0,0,0,0,0,0L22.5,6c0,0,0-0.1,0-0.1l0.3,0c0,0,0,0,0,0L23,5.6
					C23,5.6,23,5.6,23,5.6z"/>
				<path class="st8" d="M24.6,5.6l0.1,0.3c0,0,0,0,0,0l0.3,0C25,5.9,25,6,25,6l-0.2,0.2c0,0,0,0,0,0l0.1,0.3c0,0,0,0.1-0.1,0
					l-0.2-0.2c0,0,0,0,0,0l-0.2,0.2c0,0-0.1,0-0.1,0l0.1-0.3c0,0,0,0,0,0L24,6c0,0,0-0.1,0-0.1l0.3,0c0,0,0,0,0,0L24.6,5.6
					C24.5,5.6,24.5,5.6,24.6,5.6z"/>
				<path class="st8" d="M26.1,5.6l0.1,0.3c0,0,0,0,0,0l0.3,0c0,0,0.1,0.1,0,0.1l-0.2,0.2c0,0,0,0,0,0l0.1,0.3c0,0,0,0.1-0.1,0
					l-0.2-0.2c0,0,0,0,0,0l-0.2,0.2c0,0-0.1,0-0.1,0l0.1-0.3c0,0,0,0,0,0L25.5,6c0,0,0-0.1,0-0.1l0.3,0c0,0,0,0,0,0L26.1,5.6
					C26,5.6,26.1,5.6,26.1,5.6z"/>
			</g>
		</g>
	</g>
	<path class="st1" d="M25.2,22c0,0.1-0.1,0.1-0.1,0.1c-0.1,0-0.1-0.1-0.1-0.1c0-0.1,0.1-0.1,0.1-0.1C25.2,21.9,25.2,22,25.2,22z"/>
	<path class="st1" d="M25.4,33.6c0,0.1-0.1,0.2-0.2,0.2c-0.1,0-0.2-0.1-0.2-0.2c0-0.1,0.1-0.2,0.2-0.2
		C25.4,33.5,25.4,33.5,25.4,33.6z"/>
	<path class="st1" d="M20,38.6c0,0.1-0.1,0.2-0.2,0.2c-0.1,0-0.2-0.1-0.2-0.2c0-0.1,0.1-0.2,0.2-0.2C20,38.4,20,38.5,20,38.6z"/>
	<circle class="st1" cx="11.9" cy="30" r="0.2"/>
	<path class="st1" d="M6.9,36.6c0,0.1-0.1,0.2-0.2,0.2c-0.1,0-0.2-0.1-0.2-0.2c0-0.1,0.1-0.2,0.2-0.2C6.8,36.4,6.9,36.5,6.9,36.6z"
		/>
	<path class="st1" d="M7.5,20.6c0,0.1-0.1,0.2-0.2,0.2c-0.1,0,0-0.1,0-0.2c0-0.1-0.1-0.2,0-0.2C7.4,20.4,7.5,20.5,7.5,20.6z"/>
	<path class="st1" d="M3.9,10.5c0,0.1-0.1,0.2-0.2,0.2c-0.1,0-0.2-0.1-0.2-0.2s0.1-0.2,0.2-0.2C3.8,10.3,3.9,10.4,3.9,10.5z"/>
	<path class="st1" d="M16.3,4.6C16.3,4.7,16.2,4.7,16.3,4.6c-0.1,0.1-0.2,0-0.2,0C16.1,4.6,16.1,4.5,16.3,4.6
		C16.2,4.5,16.3,4.6,16.3,4.6z"/>
	<path class="st1" d="M32.6,5.3c0,0.1-0.1,0.2-0.2,0.2s-0.2-0.1-0.2-0.2c0-0.1,0.1-0.2,0.2-0.2S32.6,5.2,32.6,5.3z"/>
	<path class="st1" d="M36.2,6.5c0,0.1-0.1,0.1-0.1,0.1s-0.1-0.1-0.1-0.1s0.1-0.1,0.1-0.1S36.2,6.4,36.2,6.5z"/>
	<circle class="st1" cx="41.7" cy="10.9" r="0.1"/>
	<g id="_x30__1_">
		<path class="st1" d="M32,20.6L32,20.6c-0.1,0-0.2,0-0.2-0.1v-0.1c0,0,0-0.1-0.1-0.1c-0.1,0-0.1,0-0.1,0.1v0.1c0,0.1,0,0.1-0.1,0.1
			h-0.1c0,0-0.1,0-0.1,0.1c0,0.1,0,0.1,0.1,0.1h0.1c0.1,0,0.1,0,0.1,0.1V21c0,0,0,0.1,0.1,0.1c0.1,0,0.1,0,0.1-0.1v-0.1
			c0-0.1,0-0.1,0.1-0.1H32C32.1,20.8,32.1,20.8,32,20.6C32.1,20.7,32.1,20.6,32,20.6z"/>
	</g>
	<g id="_x30__8_">
		<path class="st1" d="M11.3,35.4h-0.1c-0.1,0-0.1,0-0.1-0.1v-0.1c0-0.1,0-0.1-0.1-0.1c-0.1,0-0.1,0-0.1,0.1v0.1
			c0,0.1,0,0.1-0.1,0.1h-0.1c-0.1,0-0.1,0-0.1,0.1c0,0.1,0,0.1,0.1,0.1h0.1c0.1,0,0.1,0,0.1,0.1v0.1c0,0.1,0,0.1,0.1,0.1
			c0.1,0,0.1,0,0.1-0.1v-0.1c0-0.1,0-0.1,0.1-0.1h0.1c0.1,0,0.1-0.1,0.1-0.1C11.4,35.4,11.4,35.4,11.3,35.4z"/>
	</g>
	<g id="_x30__2_">
		<path class="st1" d="M20.7,11L20.7,11c-0.1,0-0.2,0-0.2-0.1v-0.1c0,0,0-0.1-0.1-0.1c-0.1,0-0.1,0-0.1,0.1v0.1c0,0,0,0.1-0.1,0.1
			h-0.1c0,0-0.1,0-0.1,0.1c0,0.1,0,0.1,0.1,0.1h0.1c0,0,0.1,0,0.1,0.1v0.1c0,0,0,0.1,0.1,0.1c0.1,0,0.1,0,0.1-0.1v-0.1
			c0,0,0-0.1,0.1-0.1h0.1C20.7,11.2,20.8,11.1,20.7,11C20.7,11,20.7,11,20.7,11z"/>
	</g>
	<g>
		<g id="_x30__4_">
			<g>
				<path class="st12" d="M8.1,33.1h2c0.1,0,0.2-0.1,0.2-0.2l0,0c0-0.1-0.1-0.2-0.2-0.2h-2c-0.1,0-0.2,0.1-0.2,0.2l0,0
					C7.9,33,8,33.1,8.1,33.1z"/>
				<path class="st12" d="M7.2,33.1h0.2c0.1,0,0.2-0.1,0.2-0.2l0,0c0-0.1-0.1-0.2-0.2-0.2H7.2c-0.1,0-0.2,0.1-0.2,0.2l0,0
					C7,33,7.1,33.1,7.2,33.1z"/>
				<path class="st12" d="M6,33.1L6,33.1c0.2,0,0.2-0.1,0.2-0.2l0,0c0-0.1-0.1-0.2-0.2-0.2h0c-0.1,0-0.2,0.1-0.2,0.2l0,0
					C5.8,33,5.9,33.1,6,33.1z"/>
			</g>
		</g>
		<g id="_x30__5_">
			<g>
				<path class="st1" d="M37.6,23.9H36c-0.1,0-0.2-0.1-0.2-0.2l0,0c0-0.1,0.1-0.2,0.2-0.2h1.6c0.1,0,0.2,0.1,0.2,0.2l0,0
					C37.8,23.9,37.7,23.9,37.6,23.9z"/>
				<path class="st1" d="M38.4,23.9h-0.2c-0.1,0-0.2-0.1-0.2-0.2l0,0c0-0.1,0.1-0.2,0.2-0.2h0.2c0.1,0,0.2,0.1,0.2,0.2l0,0
					C38.5,23.9,38.5,23.9,38.4,23.9z"/>
				<path class="st1" d="M39.3,23.9L39.3,23.9c-0.1,0-0.2-0.1-0.2-0.2l0,0c0-0.1,0.1-0.2,0.2-0.2h0c0.1,0,0.2,0.1,0.2,0.2l0,0
					C39.5,23.9,39.4,23.9,39.3,23.9z"/>
			</g>
		</g>
		<g id="_x30__6_">
			<g>
				<path class="st12" d="M36.9,8.4h-3c-0.1,0-0.2-0.1-0.2-0.2l0,0c0-0.1,0.1-0.2,0.2-0.2h3c0.1,0,0.2,0.1,0.2,0.2l0,0
					C37.1,8.4,37,8.4,36.9,8.4z"/>
				<path class="st12" d="M37.9,8.4L37.9,8.4c-0.1,0-0.2-0.1-0.2-0.2l0,0c0-0.1,0.1-0.2,0.2-0.2h0C38,8.1,38,8.2,38,8.3l0,0
					C38,8.4,38,8.4,37.9,8.4z"/>
			</g>
		</g>
		<g id="_x30__7_">
			<g>
				<path class="st12" d="M12.2,8.1h4.2c0.1,0,0.1-0.1,0.1-0.1l0,0c0-0.1-0.1-0.1-0.1-0.1h-4.2C12.1,7.8,12,7.9,12,8l0,0
					C12,8.1,12.1,8.1,12.2,8.1z"/>
				<path class="st12" d="M11.5,8.1h0.2c0.1,0,0.1-0.1,0.1-0.1l0,0c0-0.1-0.1-0.1-0.1-0.1h-0.2c-0.1,0-0.1,0.1-0.1,0.1l0,0
					C11.4,8.1,11.4,8.1,11.5,8.1z"/>
				<path class="st12" d="M10.7,8.1L10.7,8.1c0.1,0,0.2-0.1,0.2-0.1l0,0c0-0.1-0.1-0.1-0.1-0.1h0c-0.1,0-0.1,0.1-0.1,0.1l0,0
					C10.5,8.1,10.6,8.1,10.7,8.1z"/>
			</g>
		</g>
	</g>
	<g id="_x30__3_">
		<path class="st1" d="M4.5,23.9L4.5,23.9c-0.1,0-0.1,0-0.1-0.1v-0.1c0,0,0-0.1-0.1-0.1c0,0-0.1,0-0.1,0.1v0.1c0,0,0,0.1-0.1,0.1
			H4.1c0,0-0.1,0-0.1,0.1c0,0,0,0.1,0.1,0.1h0.1c0,0,0.1,0,0.1,0.1v0.1c0,0,0,0.1,0.1,0.1c0,0,0.1,0,0.1-0.1v-0.1c0,0,0-0.1,0.1-0.1
			h0.1C4.6,24,4.6,24,4.5,23.9C4.6,23.9,4.6,23.9,4.5,23.9z"/>
	</g>
	<line class="st13" x1="3.6" y1="44.5" x2="44.5" y2="44.5"/>
	<path class="st8" d="M39.3,15.3l0.3,0.8c0,0,0.1,0.1,0.1,0.1l0.8,0.1c0.1,0,0.2,0.2,0.1,0.2L40,17c0,0-0.1,0.1,0,0.1l0.2,0.8
		c0,0.1-0.1,0.2-0.2,0.1l-0.7-0.4c0,0-0.1,0-0.1,0l-0.7,0.4c-0.1,0.1-0.2,0-0.2-0.1l0.2-0.8c0,0,0-0.1,0-0.1l-0.6-0.5
		c-0.1-0.1,0-0.2,0.1-0.2l0.8-0.1c0,0,0.1,0,0.1-0.1l0.3-0.8C39.1,15.2,39.3,15.2,39.3,15.3z"/>
	<text transform="matrix(1 0 0 1 10.769 15.9683)" class="st8 st9 st14">1/10</text>
	<path class="st7" d="M42.5,18.3c-0.9,2-3.2,2.8-5.1,1.8c-0.4-0.2-0.7-0.4-1-0.7c-0.5-0.5-1.1-0.8-1.7-0.9c0.4-0.2,0.7-0.6,0.7-1.1
		c0-0.1,0-0.1,0-0.2c-0.1-0.7,0-1.5,0.4-2.2c0.2-0.4,0.5-0.8,0.8-1.1c0,0,0,0,0,0c-0.1,0.4-0.2,0.7-0.3,1c-0.1,0.4-0.1,0.8,0,1.2
		c0.1,0.9,0.7,1.7,1.5,2c0.6,0.3,1.4,0.3,2,0.2c0.8-0.1,1.6-0.3,2.2-0.8c0.4-0.3,0.6-0.7,0.8-1.1C42.9,17.2,42.8,17.8,42.5,18.3z"/>
	<path class="st7" d="M11,27.7c0,0.2,0.1,0.4,0.2,0.6c-0.5-0.2-1-0.2-1.4,0c-0.3,0.1-0.6,0.1-0.9,0.1c-1.4,0-2.5-1-2.7-2.4
		c0.2,0.5,0.7,0.9,1.2,1.1c0.3,0.2,0.7,0.2,1.1,0.2c1.1,0,2.2-0.9,2.4-2c0.2-0.7,0-1.5-0.5-2.1c0.8,0.5,1.3,1.4,1.3,2.4
		c0,0.6-0.2,1.1-0.5,1.6C11.1,27.3,11,27.5,11,27.7z"/>
	<path class="st15" d="M15.3,27.3c0.1-0.3,0.1-0.6,0.2-0.9"/>
	<path class="st15" d="M17.5,34.4c-1.3-1-2.6-3.2-2.4-6.2"/>
	<path class="st16" d="M41.5,30.2c0,0.1-0.1,0.3-0.3,0.3c-0.1,0-0.3-0.1-0.3-0.3c0-0.1,0.1-0.3,0.3-0.3
		C41.4,29.9,41.5,30.1,41.5,30.2z"/>
	<circle class="st1" cx="38.8" cy="33.6" r="0.2"/>
	<path class="st11" d="M32.2,18.3c0.1-0.1,0.9,0.6,0.6,0.8C32.5,19.4,32.1,18.4,32.2,18.3z"/>
	<path class="st11" d="M33.4,16.8c0.1-0.1,1,0.2,0.8,0.5C34.1,17.6,33.3,17,33.4,16.8z"/>
	<path class="st11" d="M34.2,14.8c-0.1,0.2,0.9,0.4,1,0.1C35.3,14.7,34.3,14.7,34.2,14.8z"/>
</g>
</svg>
