<?xml version="1.0" encoding="utf-8"?>
<!-- Generator: Adobe Illustrator 25.2.1, SVG Export Plug-In . SVG Version: 6.00 Build 0)  -->
<svg version="1.1" id="Layer_1" xmlns="http://www.w3.org/2000/svg" xmlns:xlink="http://www.w3.org/1999/xlink" x="0px" y="0px"
	 viewBox="0 0 48 48" style="enable-background:new 0 0 48 48;" xml:space="preserve">
<style type="text/css">
	.st0{fill:none;stroke:#FFFFFF;stroke-width:0.25;stroke-miterlimit:10;}
	.st1{fill:#CDD7FB;stroke:#FFFFFF;stroke-width:0.25;stroke-miterlimit:10;}
	.st2{fill:#FFFFFF;}
	.st3{fill:#829CF8;}
	.st4{fill:#0F31AC;}
	.st5{opacity:0.1;}
	.st6{opacity:0.5;}
	.st7{display:none;}
	.st8{display:inline;fill:#FDC538;}
	.st9{display:inline;fill:#FDB606;}
	.st10{display:inline;fill:#FFFFFF;}
	.st11{display:inline;opacity:0.5;fill:#FFFFFF;}
	.st12{display:inline;}
	.st13{fill:#FDB606;}
	.st14{opacity:0.5;fill:#FFFFFF;}
	.st15{fill:#FDC538;}
	.st16{fill:#DB965F;}
	.st17{fill:#040C2B;}
	.st18{opacity:0.15;}
	.st19{fill:#C9885B;}
	.st20{fill:#262C84;}
	.st21{fill:#ACBCF8;}
	.st22{fill:none;stroke:#E3E9F7;stroke-width:0.25;stroke-miterlimit:10;}
	.st23{fill:none;stroke:#E3E9F7;stroke-width:0.25;stroke-miterlimit:10;stroke-dasharray:45.0083,45.0083,45.0083,45.0083;}
	
		.st24{fill:none;stroke:#E3E9F7;stroke-width:0.25;stroke-miterlimit:10;stroke-dasharray:45.0083,45.0083,45.0083,45.0083,45.0083,45.0083;}
	.st25{fill:none;stroke:#E3E9F7;stroke-width:0.25;stroke-miterlimit:10;stroke-dasharray:28.5804,28.5804,28.5804,28.5804;}
	
		.st26{fill:none;stroke:#E3E9F7;stroke-width:0.25;stroke-miterlimit:10;stroke-dasharray:28.5804,28.5804,28.5804,28.5804,28.5804,28.5804;}
	.st27{fill:none;stroke:#E3E9F7;stroke-width:0.25;stroke-miterlimit:10;stroke-dasharray:12,12;}
</style>
<g>
	<g>
		<g>
			<path class="st0" d="M40.3,5.2C40.2,5.1,40.1,5,40,4.9"/>
			<path class="st0" d="M39.4,4.4c-1.5-1-3.9-1.7-6.9,1"/>
			<path class="st0" d="M32.1,5.7C32,5.8,31.9,5.9,31.8,6"/>
			<g>
				<polygon class="st1" points="40.5,4.5 40.2,5.1 39.5,5.3 41,6 				"/>
			</g>
		</g>
	</g>
	<g>
		<path class="st2" d="M34.2,4.9v38.4c0,1.5-1.3,2.7-2.8,2.7H14.8c-1.6,0-2.8-1.2-2.8-2.7V4.9c0-1.5,1.3-2.7,2.8-2.7h16.6
			C32.9,2.2,34.2,3.4,34.2,4.9z"/>
		<path class="st3" d="M32.2,2.3c-0.1,0-0.2,0-0.3-0.1c-0.2,0-0.4-0.1-0.6-0.1H14.8c-0.1,0-0.2,0-0.3,0c-0.3,0-0.6,0.1-0.9,0.2
			c-0.2,0.1-0.3,0.2-0.5,0.3c-0.5,0.4-0.9,0.9-1.1,1.5c0,0.1,0,0.2-0.1,0.3c0,0.2,0,0.3,0,0.5v38.4c0,0.2,0,0.3,0,0.5c0,0,0,0,0,0
			c0,0,0,0,0,0v0c0.1,0.3,0.2,0.6,0.4,0.9c0.2,0.2,0.3,0.5,0.6,0.7c0.1,0.1,0.3,0.2,0.4,0.3c0.4,0.2,0.9,0.4,1.4,0.4h16.6
			c1.6,0,2.8-1.2,2.8-2.7V4.9C34.2,3.7,33.4,2.6,32.2,2.3z M33.8,43.2c0,1.3-1,2.4-2.2,2.4H14.7c-0.5,0-0.9-0.2-1.3-0.5
			c-0.2-0.1-0.3-0.3-0.4-0.4c-0.3-0.4-0.5-1-0.5-1.5V5c0-0.2,0-0.4,0.1-0.6c0-0.1,0-0.2,0.1-0.3c0.1-0.3,0.3-0.6,0.6-0.9
			c0.1-0.1,0.3-0.3,0.5-0.3c0.3-0.1,0.6-0.2,0.9-0.3c0.1,0,0.1,0,0.2,0h7c0.3,0,0.5,0.2,0.5,0.5v0.1c0,0.2,0,0.3,0.1,0.5
			c0.1,0.2,0.3,0.4,0.6,0.5c0.1,0,0.1,0,0.2,0c0.2,0,0.5-0.1,0.6-0.3C23.9,3.7,24,3.5,24,3.2V3.2c0-0.3,0.2-0.5,0.5-0.5h7
			c0.1,0,0.3,0,0.4,0c0.1,0,0.2,0,0.3,0.1C33.1,3.1,33.8,4,33.8,5V43.2z"/>
		<g>
			<ellipse class="st4" cx="23.1" cy="3.2" rx="0.3" ry="0.3"/>
			<image style="overflow:visible;" width="2" height="2" xlink:href="CE74901E.png"  transform="matrix(1 0 0 1 22 2)">
			</image>
		</g>
		<g>
			<g>
				
					<rect x="13.1" y="4.8" transform="matrix(-1.836970e-16 1 -1 -1.836970e-16 18.2905 -8.2682)" class="st3" width="0.4" height="0.3"/>
				
					<rect x="13.4" y="4.7" transform="matrix(-1.836970e-16 1 -1 -1.836970e-16 18.6565 -8.8503)" class="st3" width="0.6" height="0.3"/>
				
					<rect x="13.8" y="4.6" transform="matrix(-1.836970e-16 1 -1 -1.836970e-16 19.0089 -9.4461)" class="st3" width="0.9" height="0.3"/>
			</g>
			<g>
				<g>
					<path class="st3" d="M32.9,5.3h-2.1V4.3h2.1V5.3z M30.9,5.2h2V4.4h-2V5.2z"/>
				</g>
				
					<rect x="30.7" y="4.6" transform="matrix(-1.836970e-16 1 -1 -1.836970e-16 35.9068 -26.3121)" class="st3" width="0.7" height="0.3"/>
				
					<rect x="31.1" y="4.6" transform="matrix(-1.836970e-16 1 -1 -1.836970e-16 36.2796 -26.6849)" class="st3" width="0.7" height="0.3"/>
				
					<rect x="31.5" y="4.6" transform="matrix(-1.836970e-16 1 -1 -1.836970e-16 36.6524 -27.0577)" class="st3" width="0.7" height="0.3"/>
				<rect x="32.9" y="4.6" class="st3" width="0.2" height="0.4"/>
			</g>
		</g>
		<g>
			<path class="st3" d="M27.8,38.9h-9.3c-0.8,0-1.4-0.6-1.4-1.4v-0.2c0-0.8,0.6-1.4,1.4-1.4h9.3c0.8,0,1.4,0.6,1.4,1.4v0.2
				C29.2,38.3,28.6,38.9,27.8,38.9z"/>
			<g>
				<path class="st2" d="M21.1,37.8c0,0.2-0.1,0.3-0.2,0.4c-0.1,0.1-0.3,0.1-0.5,0.1c-0.2,0-0.4,0-0.5-0.1v-0.4
					c0.1,0.1,0.2,0.1,0.3,0.1c0.1,0,0.2,0,0.2,0c0.1,0,0.1,0,0.2,0c0,0,0.1-0.1,0.1-0.1c0,0,0-0.1,0-0.1c0,0,0-0.1-0.1-0.1
					c0,0-0.1-0.1-0.2-0.1c-0.1-0.1-0.2-0.1-0.2-0.1c-0.1,0-0.1-0.1-0.1-0.2c0-0.1,0-0.1,0-0.2c0-0.2,0.1-0.3,0.2-0.4
					c0.1-0.1,0.3-0.1,0.4-0.1c0.1,0,0.2,0,0.3,0c0.1,0,0.2,0.1,0.3,0.1l-0.1,0.3c-0.1,0-0.2-0.1-0.2-0.1c-0.1,0-0.1,0-0.2,0
					c-0.1,0-0.1,0-0.2,0.1c0,0-0.1,0.1-0.1,0.1c0,0,0,0.1,0,0.1c0,0,0,0,0.1,0.1c0,0,0.1,0.1,0.2,0.1c0.2,0.1,0.3,0.2,0.3,0.2
					C21,37.6,21.1,37.7,21.1,37.8z"/>
				<path class="st2" d="M22.4,38.3h-1v-1.8h1v0.3h-0.7v0.4h0.6v0.3h-0.6V38h0.7V38.3z"/>
				<path class="st2" d="M24.4,38.3h-0.5l-0.8-1.4h0c0,0.2,0,0.4,0,0.5v0.8h-0.3v-1.8h0.5l0.8,1.3h0c0-0.2,0-0.4,0-0.5v-0.9h0.3
					V38.3z"/>
				<path class="st2" d="M26.3,37.4c0,0.3-0.1,0.5-0.3,0.7c-0.2,0.2-0.4,0.2-0.7,0.2h-0.5v-1.8h0.6c0.3,0,0.5,0.1,0.7,0.2
					C26.3,36.9,26.3,37.1,26.3,37.4z M25.9,37.4c0-0.4-0.2-0.6-0.5-0.6h-0.2V38h0.2C25.8,38,25.9,37.8,25.9,37.4z"/>
			</g>
		</g>
		<path class="st3" d="M23.7,30.4h-1.1c-4.3,0-7.7-3.5-7.7-7.7v-3.1c0-4.3,3.5-7.7,7.7-7.7h1.1c4.3,0,7.7,3.5,7.7,7.7v3.1
			C31.4,26.9,27.9,30.4,23.7,30.4z"/>
		<g>
			<polygon class="st2" points="27.6,22.5 27.6,22.5 23.3,27.7 22.2,25.6 20.6,26.6 20.6,26.6 20.6,26.6 21,24.5 21,24.5 18.4,23.2 
				27.5,22.5 			"/>
			<polygon class="st5" points="27.9,22.4 27.6,22.5 22,25.2 21.8,25.2 20.6,26.6 21,24.5 21,24.5 27.5,22.5 			"/>
			<polygon class="st6" points="22.2,25.6 20.6,26.6 21.8,25.2 			"/>
		</g>
		<g class="st7">
			<circle class="st8" cx="23.6" cy="19.9" r="4"/>
			<circle class="st9" cx="23.6" cy="19.9" r="3.6"/>
			<g>
				<path class="st10" d="M20.4,20.2c0-0.1,0-0.2,0-0.3c0-0.1,0-0.2,0-0.3c0-0.2,0.1-0.4,0.1-0.7c0.1-0.2,0.2-0.4,0.3-0.6
					c0.1-0.2,0.3-0.4,0.4-0.5c0.2-0.2,0.3-0.3,0.5-0.4c0.2-0.1,0.4-0.2,0.6-0.3c0.4-0.2,0.9-0.3,1.3-0.2c-0.4,0-0.9,0.1-1.3,0.3
					c-0.2,0.1-0.4,0.2-0.6,0.3c-0.2,0.1-0.3,0.3-0.5,0.4c0,0,0,0-0.1,0.1l-0.1,0.1c0,0-0.1,0.1-0.1,0.1c0,0-0.1,0.1-0.1,0.1l0,0.1
					c0,0,0,0,0,0.1c-0.1,0.2-0.2,0.4-0.3,0.6c-0.1,0.2-0.1,0.4-0.2,0.6c0,0.1,0,0.2,0,0.3c0,0.1,0,0.1,0,0.2
					C20.4,20.1,20.4,20.2,20.4,20.2z"/>
			</g>
			<path class="st11" d="M20.4,20.2c-0.1-0.4,0-0.9,0.1-1.3c0.1-0.2,0.2-0.4,0.3-0.6c0.1-0.2,0.3-0.4,0.4-0.5
				c0.2-0.2,0.3-0.3,0.5-0.4c0.2-0.1,0.4-0.2,0.6-0.3c0.4-0.2,0.9-0.2,1.3-0.2c-0.4,0-0.9,0.1-1.3,0.3c-0.2,0.1-0.4,0.2-0.6,0.3
				c-0.2,0.1-0.3,0.3-0.5,0.4c0,0-0.1,0.1-0.1,0.1c0,0-0.1,0.1-0.1,0.1c0,0-0.1,0.1-0.1,0.1c0,0-0.1,0.1-0.1,0.1
				c-0.1,0.2-0.2,0.4-0.3,0.6C20.5,19.3,20.4,19.8,20.4,20.2z"/>
			<g class="st12">
				<path class="st2" d="M23.5,21.8v-0.5c-0.3,0-0.6-0.1-0.8-0.2l0.1-0.3c0.2,0.1,0.4,0.2,0.7,0.2c0.4,0,0.6-0.2,0.6-0.5
					c0-0.3-0.2-0.4-0.6-0.6c-0.5-0.2-0.8-0.4-0.8-0.9c0-0.4,0.3-0.7,0.8-0.8v-0.5h0.3v0.5c0.3,0,0.5,0.1,0.7,0.2l-0.1,0.3
					c-0.1-0.1-0.3-0.2-0.6-0.2c-0.4,0-0.5,0.2-0.5,0.4c0,0.3,0.2,0.4,0.6,0.6c0.5,0.2,0.8,0.5,0.8,0.9c0,0.4-0.3,0.8-0.8,0.8v0.5
					H23.5z"/>
			</g>
		</g>
		<g>
			<path class="st13" d="M26.3,20.3c0,2.1-1.3,3.7-3.2,3.8c-2.1,0.1-3.5-1.7-3.5-3.8c0-0.3,0-0.5,0.1-0.8c0-0.2,0.1-0.4,0.2-0.6
				c0-0.1,0-0.1,0.1-0.2c0,0,0-0.1,0.1-0.1c0,0,0-0.1,0-0.1c0,0,0,0,0,0c0,0,0-0.1,0-0.1c0.1-0.2,0.2-0.3,0.3-0.4
				c0.6-0.9,1.6-1.5,2.7-1.5C24.8,16.5,26.3,18.2,26.3,20.3z"/>
			<path class="st14" d="M20.3,18.9l-0.2,0.7l-0.5,0c0-0.2,0.1-0.4,0.2-0.6L20.3,18.9z"/>
			<path class="st14" d="M20.8,18l-0.4,0.5l-0.4,0c0,0,0-0.1,0-0.1c0.1-0.2,0.2-0.3,0.3-0.4L20.8,18z"/>
			<ellipse class="st15" cx="23.3" cy="20.3" rx="3.4" ry="3.8"/>
			<ellipse class="st13" cx="23.3" cy="20.3" rx="3" ry="3.4"/>
			<g>
				<path class="st2" d="M23.2,22v-0.5c-0.2,0-0.5-0.1-0.6-0.2l0.1-0.3c0.2,0.1,0.4,0.2,0.6,0.2c0.3,0,0.5-0.2,0.5-0.5
					c0-0.3-0.2-0.4-0.5-0.6c-0.4-0.2-0.7-0.4-0.7-0.8c0-0.4,0.3-0.7,0.6-0.8v-0.5h0.3v0.5c0.3,0,0.4,0.1,0.6,0.2l-0.1,0.3
					c-0.1-0.1-0.3-0.2-0.5-0.2c-0.3,0-0.5,0.2-0.5,0.4c0,0.2,0.2,0.4,0.5,0.5c0.4,0.2,0.7,0.4,0.7,0.9c0,0.4-0.2,0.7-0.7,0.8V22
					H23.2z"/>
			</g>
		</g>
	</g>
	<g>
		<path class="st16" d="M11.5,31.4c0.3,0.1,0.7-0.5,1-1.1l1.7-4c0.1-0.2,0.1-0.4,0-0.6l-1-2.4l-1.2,1l1.1,1.9l-1,3
			C11.6,29.5,11.6,30.4,11.5,31.4z"/>
		<g>
			<path class="st17" d="M7.1,35.7L7.1,35.7l2.5-6.7l0.1-0.3l-3.3-1.2l-1.3,5.8l-0.3,1.7c0,0.2,0.1,0.4,0.3,0.4L7.1,35.7z"/>
			<path class="st16" d="M7.9,41.8c0,0,0.6,1.8,0.5,2.3l1.7,0l-1.1-2.9L7.9,41.8z"/>
			<path class="st17" d="M8.7,45.2c0,0-1.2,0.6-2.3,0.6c-0.2,0-0.3-0.1-0.3-0.3c0-0.2,0.1-0.5,0.6-0.7c0,0,1.3-1,1.6-1.6
				c0,0,0.9,0.3,1.3-0.2c0,0,0.4,0.2,0.6,0.7c0.1,0.4-0.1,0.8-0.4,1C9.4,44.9,8.9,45.1,8.7,45.2z"/>
			<polygon class="st17" points="7,34.7 9.2,41.7 8.9,41.8 7.6,42.3 4.8,35.1 			"/>
			<polygon class="st18" points="6.6,35.2 8.9,41.8 9.2,41.7 7.2,35.2 9.5,28.9 8.6,28.2 8,30.1 			"/>
		</g>
		<path class="st16" d="M9.3,42.4c0,0,0,1.9-0.3,2.3l1.6,0.5l-0.1-3.1L9.3,42.4z"/>
		<path class="st17" d="M8.9,46.1c0,0-1.4,0.2-2.3-0.2c-0.1-0.1-0.2-0.2-0.2-0.4c0.1-0.2,0.3-0.4,0.8-0.4c0,0,1.5-0.5,2-1
			c0,0,0.8,0.4,1.4,0.2c0,0,0.3,0.4,0.3,1c0,0.4-0.3,0.8-0.7,0.8C9.7,46.1,9.1,46.1,8.9,46.1z"/>
		<path class="st17" d="M8.5,36.8L9,43.1l1.7,0.1l0.4-7.4l0.6-3.7c0.1-0.3,0.4-0.9,0.4-1.2c0.2-1-0.1-1.5-0.1-2c0-0.7-0.1-1-0.1-1
			l-2.8-0.7l-0.6,6.1C8.4,34.5,8.4,35.6,8.5,36.8z"/>
		<path class="st16" d="M6.4,26.3l0.1-0.2L7.3,24l-0.6-0.1l-0.3,0l-0.6-0.1l-0.3,1.2l-0.1,0.3l-3-0.9c0,0-0.2-0.5-0.6-1
			c-0.1,0-0.2,0.2-0.1,0.3l0.2,0.3c0,0-0.7-0.5-1.2-0.3l0.9,1.6l0.2,0l4.2,1.3C6.1,26.6,6.3,26.5,6.4,26.3L6.4,26.3"/>
		<path class="st19" d="M10.6,20.8l0,1.3l-2,0.4l-1.1-0.6L8,21.3l0.3-0.4c0.1-0.1,0.1-0.2,0.1-0.3l-0.2-1.5l1.9-0.9l-0.2,1.2l0,0.2
			C9.7,20.3,10.6,20.8,10.6,20.8z"/>
		<path class="st18" d="M10,18.3l-0.2,1.4c-0.7,1.2-1.5,1.5-1.8,1.6l0.3-0.4c0.1-0.1,0.1-0.2,0.1-0.3l-0.2-1.5L10,18.3z"/>
		<path class="st16" d="M7.2,18c0,0,0.2,2.7,1,2.6c0,0,0.9-0.2,1.8-1.6l0.2-0.6l-0.7-0.7L7.2,18z"/>
		<path d="M8.5,16.6c0,0-2.4,0.4-1.2,2.1c0,0,0.2,0,0.5-0.7c0,0,0.2,0.8,1.5,0.4c0,0,0,0.5,0.1,0.6h0.1c0,0,0-0.5,0.4-0.6
			c0,0,0.5-0.1,0.2,0.6l-0.2,0.3l0,0.5c0,0,0.5-1,0.6-1.6c0,0,0.2-1-0.6-1.5C9.8,16.7,9.1,16.2,8.5,16.6z"/>
		<path class="st4" d="M6.8,25.3l-0.4-0.1l-0.8-0.3l-0.2-0.1c0.5-2.5,0.9-3,1.1-3.1c0.1,0,0.1,0,0.1,0l0.1,2.2L6.8,25.3z"/>
		<path class="st18" d="M7.3,24l-0.8,2.1l-0.2-0.9l0-1.3l0.1-2.1c0.1,0,0.1,0,0.1,0l0.1,2.1L7.3,24z"/>
		<path class="st4" d="M6.4,28.9c0.2,0,0.7,0.2,1,0.3c0.3,0.1,0.8,0.1,1.2,0.2h0c1.1,0.1,2.3,0.1,3.3-0.3c0.1,0,0.1-0.1,0.1-0.1
			c0.1-0.1,0.1-0.2,0.1-0.3l0-0.2l0.1-4c0,0,0,0,0,0l0-0.4l-0.1-2.2l-1.4-1l-0.1,0l-0.4-0.3c0,0,0.3,0.6-1,1.2
			c-0.1,0.1-0.2,0.1-0.3,0.1c0,0-0.1,0-0.1,0c-0.1,0-0.2,0-0.3-0.1c-0.2-0.1-0.4-0.4-0.2-0.8l-0.5,0.2l0,0l-1.2,0.6
			c-0.1,0-0.1,0.1-0.1,0.2l0.1,3.9c0,0,0,0,0,0.1l-0.4,2.7C6.1,28.6,6.2,28.8,6.4,28.9z"/>
		<path class="st18" d="M11.6,23.4l0.5,5.5c0.1-0.1,0.1-0.2,0.1-0.3l0-0.2l0.1-4c0,0,0,0,0,0l0-0.4L11.6,23.4z"/>
		<path class="st4" d="M11.9,21.8c0,0,0.8-0.3,2,2.7l-1.3,1C12.6,25.5,10.5,22.5,11.9,21.8z"/>
		<path class="st18" d="M8.9,21.8l-0.2,7.4H8.6v0L8.9,21.8L8.9,21.8C8.8,21.8,8.9,21.8,8.9,21.8z"/>
		<path class="st18" d="M8.8,21.8c0,0-0.2,0.3-0.3,0.2l-0.1,0.4c0,0-0.7-0.2-0.7-1.3l0,0c0,0.3,0,0.8,0.6,1.2l0.1-0.4
			C8.5,21.9,8.6,22,8.8,21.8z"/>
		<path class="st18" d="M9,22c-0.1,0-0.1-0.2-0.1-0.2C8.9,21.9,9,22,9,22z"/>
		<path class="st18" d="M10.7,20.9c-0.2,0.4-0.5,1-1.4,1.5l-0.1-0.3c0,0-0.1,0-0.1-0.1c0,0,0.1,0,0.2,0l0.1,0.3
			C9.3,22.3,10.4,21.7,10.7,20.9L10.7,20.9z"/>
		<g>
			<path class="st17" d="M2.4,25.5l-0.7-0.1l-1.4-3.2c0,0,0,0,0-0.1l0,0c0,0,0,0,0.1,0l0.1,0L2.4,25.5C2.5,25.4,2.5,25.4,2.4,25.5
				L2.4,25.5C2.5,25.5,2.4,25.5,2.4,25.5z"/>
			<polygon class="st2" points="0.4,22.1 1.1,22.4 2.5,25.5 1.8,25.3 			"/>
		</g>
		<path class="st16" d="M1.5,25.2L1.7,25c0.3-0.6,0-1.1-0.3-1.4c-0.1-0.1-0.3-0.2-0.4-0.2l-0.1,0c-0.2,0-0.3,0.1-0.3,0.3
			C0.6,24.1,0.7,24.6,1.5,25.2z"/>
	</g>
	<g>
		<g>
			<polygon class="st16" points="38.2,43.6 38,45 38.8,45.4 39.4,44.8 39.2,43.5 			"/>
			<path class="st17" d="M38.9,44.4c0,0,0.2-0.3,0.3-0.4c0,0,1.4,1.1,1.5,1.4c0,0,0.7,0.7-0.7,0.7l-1.4-0.4c0,0-1.2-0.1-0.8-1.2
				l0.2-0.2C38.1,44.4,38.3,44.9,38.9,44.4z"/>
			<path class="st17" d="M40.7,34.3l-0.6,4L39.3,44l-1-0.1l-0.3,0l0.2-5.7l-0.6-8.8l2.6-0.2C40.3,29.2,41,31.7,40.7,34.3z"/>
			<path class="st18" d="M39,32.8c0,0,2,5.1,0,6.8l-0.7,4.3l-0.3,0l0.2-5.7l-0.6-8.8l1.7-0.1L39,32.8z"/>
			<g>
				<polygon class="st16" points="35.7,41.5 35,42.4 35.9,43.4 36.1,43.2 36.5,41.7 				"/>
				<path class="st17" d="M34.6,42.3c0,0-0.2,0.3-0.1,1c0,0,0.1,0.2,0,0.6c0,0,0,1.1,1,1.6c0,0,0.5,0.1,0.6-0.9c0,0,0.1-1.2,0.2-1.9
					c0,0-0.6,0.2-1-0.7C35.3,42,35.1,41.8,34.6,42.3z"/>
				<path class="st17" d="M35.9,28.8c0,0-1,2.1,0,4.5l1.7,4c0.1,0.3,0.1,0.6-0.1,0.9l-2.1,3.4l0.9,0.7l2.6-3.1
					c0.5-0.6,0.7-1.4,0.5-2.2l-0.9-4.3l0.6-3.6L35.9,28.8z"/>
			</g>
		</g>
		<path d="M36.5,18.5c0,0-0.8,2.8-0.5,3.6c0.3,0.9,0.4,0.9,0.4,0.9s1.3,0.3,1.3,0.3s1.6-1.4,1.6-1.4l-0.4-2.7l-1.3-0.9L36.5,18.5z"
			/>
		<path class="st19" d="M39.2,22.2l-0.2,1.2l-0.7,0l-1.3,0l-0.5-0.6c0.1-0.1,0.1-0.3,0.2-0.5c0-0.2,0.1-0.4,0.1-0.7
			c0-0.7,0-1.5,0-1.5l1.8,0.6C38.6,21.7,39.2,22.2,39.2,22.2z"/>
		<path class="st16" d="M36.6,18.8c0,0-0.8,2.5,1,3.1c0.1,0,0.2,0,0.2,0c0.3-0.1,1.2-0.6,1.1-2.4C38.9,19.5,38.1,16.6,36.6,18.8z"/>
		<polygon class="st20" points="40,22.5 40,25.2 39.9,25.2 39.8,22.4 		"/>
		<polygon class="st16" points="41.1,28 40.5,28.3 40.1,28.5 40.1,28.5 40.1,28.4 40.1,28.1 40.1,27.5 40.2,25.5 40.2,24.9 
			40.8,24.7 41,27.2 41.1,27.7 		"/>
		<path class="st16" d="M45.2,26.2c-0.2,0.5-1.1,0.9-1.1,0.9l-2.8,2c-0.2,0.1-0.4,0.1-0.6,0.1c-0.2-0.1-0.3-0.2-0.4-0.4l-0.1-0.3
			l-0.1-0.1L40,28.1l0.1,0l0.3-0.1l0.7-0.3l1.6-0.7c0.3-0.2,0.5-0.4,0.7-0.6c0.1-0.1,0.2-0.2,0.2-0.3c0.1-0.2,0.3-0.5,0.5-0.6
			c0.2-0.2,0.3-0.3,0.3-0.3c0.1,0.1,0.1,0.2,0,0.3l-0.3,0.4l0.4-0.2c0.1-0.1,0.3-0.1,0.4-0.1C45.4,25.6,45.2,26.2,45.2,26.2z"/>
		<path class="st4" d="M41.8,27L41,27.2l-0.7,0.2l-0.2,0.1l-0.1,0l-0.1,0l0.1-2.1l0.1-2.8c0.8,0.3,0.9,1.2,0.9,1.2L41.8,27z"/>
		<path class="st18" d="M40.5,28.3c0-0.1,0-0.2-0.1-0.4c0-0.2-0.1-0.4-0.1-0.6c-0.1-1.2-0.1-1.4-0.1-1.4l-0.1-0.4l-0.1-0.8
			c0,0.4,0.1,1.7,0.1,2.6l0,0l0,0l0,0.6l-0.1,0l0.1,0.2l0,0.2l0.1,0l0.1,0.3c0,0.1,0.1,0.2,0.1,0.2c0.1,0.1,0.2,0.2,0.3,0.2
			C40.6,28.9,40.5,28.6,40.5,28.3z"/>
		<path class="st4" d="M40.6,30.7c-0.1-0.6-0.1-1.2-0.2-1.7c-0.1-0.7-0.2-1.2-0.2-1.2c0,0,0,0,0,0c0-0.1,0-0.2,0-0.3
			c0,0,0-0.8,0-0.8c0-0.7,0-0.8,0-1c0-0.2,0-0.3,0-0.5l0-0.3l0.1-2.2l0-0.1c0,0-0.1,0-0.1,0c0,0,0,0-0.1,0l0,0l-0.2-0.1l-0.6-0.2
			c0,0-0.4,0.6-1,0.8c-0.4,0.1-0.9-0.1-1.5-0.6c0,0,0,0,0,0l-1,0.4l-0.2,0.1l-0.3,0.1c0,0,0,0,0,0c0.1,0.3,0.3,0.9,0.5,1.6
			c0.1,0.5,0.2,1.2,0.1,1.9c-0.1,0.1-0.1,0.2-0.1,0.2c0,0,0,0,0,0c0,0.4,0,0.7,0,1.1l0,0.3l0,0c0,0.5,0,1,0,1.4
			c0,0.6-0.2,1.2-0.1,1.5L40.6,30.7z"/>
		<path class="st18" d="M35.8,27.9c0,0.5-0.1,1-0.2,1.4c0-0.4,0-0.9,0-1.4l0,0l0-0.3c0-0.3,0-0.7,0-1.1c0,0,0-0.1,0.1-0.2
			c0-0.7,0-1.3-0.1-1.9l0,0c0,0,0.1,0.7,0.2,1.7C35.8,26.7,35.8,27.3,35.8,27.9z"/>
		<polygon class="st16" points="34.7,24.3 34.5,28.1 35.5,28.3 35.6,25.8 		"/>
		<path class="st4" d="M35.6,26.8l0,1.2l0,0l-2.1-0.8l0.9-2.6c0.3-1.2,0.7-1.6,0.8-1.6C35.3,23.5,35.8,25,35.6,26.8z"/>
		<g>
			<g>
				<g>
					<g>
						<polygon class="st3" points="42.4,11.6 45.3,10.6 47.3,16.4 44.4,17.4 						"/>
					</g>
				</g>
				<g>
					<g>
						<path class="st2" d="M45.3,16.9l1-0.3c-0.1-0.4,0.1-0.9,0.5-1c0,0,0,0,0,0l-1.4-3.9c0,0,0,0,0,0c-0.4,0.1-0.9-0.1-1-0.5
							l-0.9,0.3c0,0,0,0,0,0c0.1,0.4-0.1,0.9-0.5,1l1.4,3.9C44.7,16.2,45.2,16.5,45.3,16.9z"/>
					</g>
				</g>
				<g>
					<g>
						<g>
							<path class="st3" d="M45.7,13.7c-0.2-0.5-0.7-0.7-1.2-0.6c-0.5,0.2-0.7,0.7-0.5,1.2c0.2,0.5,0.7,0.7,1.2,0.6
								C45.7,14.7,45.9,14.2,45.7,13.7z M44.8,14.3c-0.1,0-0.1-0.1-0.1-0.1l-0.1,0l0-0.1l0.1,0c0-0.1,0-0.2,0.1-0.3l0.1,0.1
								c-0.1,0-0.1,0.1,0,0.2c0,0,0,0.1,0,0.1c0,0,0,0,0.1,0c0,0,0,0,0,0c0,0,0-0.1,0-0.1c0-0.1,0-0.2,0-0.2c0,0,0.1-0.1,0.1-0.1
								c0.1,0,0.1,0,0.2,0c0,0,0.1,0.1,0.1,0.1l0.1,0l0,0.1l-0.1,0c0,0.1,0,0.2-0.1,0.3L45.1,14c0,0,0.1-0.1,0-0.1
								c0-0.1-0.1-0.1-0.1-0.1c0,0,0,0,0,0c0,0,0,0,0,0.1c0,0.1,0,0.1,0,0.2c0,0,0,0.1,0,0.1c0,0-0.1,0.1-0.1,0.1
								C44.9,14.3,44.8,14.3,44.8,14.3z"/>
						</g>
					</g>
					<g>
						<g>
							<path class="st3" d="M43.6,14.1L43.2,13c0,0,0-0.1,0-0.1l0,0c0,0,0.1,0,0.1,0.1l0.4,1.1C43.7,14.1,43.7,14.1,43.6,14.1
								L43.6,14.1C43.6,14.2,43.6,14.1,43.6,14.1z"/>
						</g>
					</g>
					<g>
						<g>
							<path class="st3" d="M44.2,15.9l-0.3-0.8c0,0,0-0.1,0-0.1l0,0c0,0,0.1,0,0.1,0.1l0.3,0.8C44.3,15.9,44.3,15.9,44.2,15.9
								L44.2,15.9C44.2,15.9,44.2,15.9,44.2,15.9z"/>
						</g>
					</g>
					<g>
						<g>
							<path class="st3" d="M45.6,12.6l-0.3-0.8c0,0,0-0.1,0-0.1l0,0c0,0,0.1,0,0.1,0.1l0.3,0.8C45.7,12.6,45.7,12.7,45.6,12.6
								L45.6,12.6C45.6,12.7,45.6,12.7,45.6,12.6z"/>
						</g>
					</g>
					<g>
						<g>
							<path class="st3" d="M43.8,14.8l-0.2-0.5c0,0,0-0.1,0-0.1l0,0c0,0,0.1,0,0.1,0.1l0.2,0.5C43.9,14.8,43.9,14.9,43.8,14.8
								L43.8,14.8C43.9,14.9,43.8,14.9,43.8,14.8z"/>
						</g>
					</g>
				</g>
			</g>
			<g>
				<g>
					<g>
						<polygon class="st3" points="42.6,27.5 40.7,25.1 45.5,21.3 47.4,23.7 						"/>
					</g>
				</g>
				<g>
					<g>
						<path class="st2" d="M46.6,23L46,22.2c-0.3,0.3-0.9,0.2-1.1-0.1c0,0,0,0,0,0l-3.2,2.6c0,0,0,0,0,0c0.3,0.4,0.2,0.9-0.1,1.1
							l0.6,0.8c0,0,0,0,0,0c0.3-0.3,0.9-0.2,1.1,0.1l3.2-2.5C46.2,23.8,46.2,23.3,46.6,23z"/>
					</g>
				</g>
				<g>
					<g>
						<g>
							<path class="st3" d="M43.4,23.7c-0.4,0.3-0.5,0.9-0.2,1.3c0.3,0.4,0.9,0.4,1.3,0.1c0.4-0.3,0.5-0.9,0.2-1.3
								S43.8,23.3,43.4,23.7z M44.3,24.4c0,0.1,0,0.1-0.1,0.2l0.1,0.1l-0.1,0.1l-0.1-0.1c-0.1,0.1-0.2,0.1-0.3,0l0.1-0.1
								c0.1,0,0.1,0,0.2,0c0,0,0,0,0.1-0.1c0,0,0,0,0-0.1c0,0,0,0,0,0c0,0-0.1,0-0.1,0c-0.1,0-0.2,0.1-0.2,0.1c0,0-0.1,0-0.1-0.1
								c0,0,0-0.1,0-0.1c0-0.1,0-0.1,0.1-0.1L43.6,24l0.1-0.1l0.1,0.1c0.1-0.1,0.2-0.1,0.3,0l-0.1,0.1c0,0-0.1,0-0.1,0
								c-0.1,0-0.1,0.1,0,0.1c0,0,0,0,0,0c0,0,0,0,0.1,0c0.1,0,0.1-0.1,0.1-0.1c0,0,0.1,0,0.1,0s0.1,0,0.1,0.1
								C44.3,24.3,44.3,24.3,44.3,24.4z"/>
						</g>
					</g>
					<g>
						<g>
							<path class="st3" d="M44.5,25.6l-0.9,0.7c0,0-0.1,0-0.1,0h0c0,0,0-0.1,0-0.1L44.5,25.6C44.5,25.5,44.5,25.5,44.5,25.6
								L44.5,25.6C44.6,25.5,44.6,25.6,44.5,25.6z"/>
						</g>
					</g>
					<g>
						<g>
							<path class="st3" d="M46,24.4L45.3,25c0,0-0.1,0-0.1,0l0,0c0,0,0-0.1,0-0.1L46,24.4C46,24.3,46,24.3,46,24.4L46,24.4
								C46,24.4,46,24.4,46,24.4z"/>
						</g>
					</g>
					<g>
						<g>
							<path class="st3" d="M42.5,24.2l-0.7,0.5c0,0-0.1,0-0.1,0l0,0c0,0,0-0.1,0-0.1L42.5,24.2C42.4,24.1,42.5,24.1,42.5,24.2
								L42.5,24.2C42.5,24.1,42.5,24.1,42.5,24.2z"/>
						</g>
					</g>
					<g>
						<g>
							<path class="st3" d="M45.1,25.1l-0.4,0.3c0,0-0.1,0-0.1,0l0,0c0,0,0-0.1,0-0.1L45.1,25.1C45.1,25,45.1,25,45.1,25.1
								L45.1,25.1C45.2,25.1,45.2,25.1,45.1,25.1z"/>
						</g>
					</g>
				</g>
			</g>
			<g>
				<circle class="st15" cx="40.3" cy="24.7" r="1"/>
				<circle class="st13" cx="40.3" cy="24.7" r="0.9"/>
				<path class="st14" d="M39.6,24.7c0-0.1,0-0.2,0-0.3c0-0.1,0-0.1,0.1-0.2c0,0,0.1-0.1,0.1-0.1c0,0,0.1-0.1,0.1-0.1
					c0,0,0.1-0.1,0.1-0.1c0.1,0,0.2-0.1,0.3-0.1c-0.1,0-0.2,0-0.3,0.1c0,0-0.1,0-0.1,0.1c0,0-0.1,0.1-0.1,0.1c0,0,0,0,0,0
					c0,0,0,0,0,0c0,0,0,0,0,0c0,0,0,0,0,0c0,0-0.1,0.1-0.1,0.1C39.6,24.5,39.6,24.6,39.6,24.7z"/>
				<g>
					<path class="st2" d="M40.3,25.1V25c-0.1,0-0.1,0-0.2-0.1l0-0.1c0,0,0.1,0.1,0.2,0.1c0.1,0,0.1,0,0.1-0.1c0-0.1,0-0.1-0.1-0.1
						c-0.1,0-0.2-0.1-0.2-0.2c0-0.1,0.1-0.2,0.2-0.2v-0.1h0.1v0.1c0.1,0,0.1,0,0.2,0l0,0.1c0,0-0.1,0-0.2,0c-0.1,0-0.1,0.1-0.1,0.1
						c0,0.1,0,0.1,0.2,0.1c0.1,0.1,0.2,0.1,0.2,0.2c0,0.1-0.1,0.2-0.2,0.2L40.3,25.1L40.3,25.1z"/>
				</g>
			</g>
			<g>
				<circle class="st15" cx="42" cy="24.1" r="1"/>
				<circle class="st13" cx="42" cy="24.1" r="0.9"/>
				<path class="st14" d="M41.3,24.1c0-0.1,0-0.2,0-0.3c0-0.1,0-0.1,0.1-0.2c0,0,0.1-0.1,0.1-0.1c0,0,0.1-0.1,0.1-0.1
					c0,0,0.1-0.1,0.1-0.1c0.1,0,0.2-0.1,0.3-0.1c-0.1,0-0.2,0-0.3,0.1c0,0-0.1,0-0.1,0.1c0,0-0.1,0.1-0.1,0.1c0,0,0,0,0,0
					c0,0,0,0,0,0c0,0,0,0,0,0c0,0,0,0,0,0c0,0-0.1,0.1-0.1,0.1C41.3,23.9,41.3,24,41.3,24.1z"/>
				<g>
					<path class="st2" d="M42,24.5v-0.1c-0.1,0-0.1,0-0.2-0.1l0-0.1c0,0,0.1,0.1,0.2,0.1c0.1,0,0.1,0,0.1-0.1c0-0.1,0-0.1-0.1-0.1
						c-0.1,0-0.2-0.1-0.2-0.2c0-0.1,0.1-0.2,0.2-0.2v-0.1h0.1v0.1c0.1,0,0.1,0,0.2,0l0,0.1c0,0-0.1,0-0.2,0c-0.1,0-0.1,0.1-0.1,0.1
						c0,0.1,0,0.1,0.2,0.1c0.1,0.1,0.2,0.1,0.2,0.2c0,0.1-0.1,0.2-0.2,0.2L42,24.5L42,24.5z"/>
				</g>
			</g>
			<g>
				<circle class="st15" cx="45.2" cy="19.8" r="1"/>
				<circle class="st13" cx="45.2" cy="19.8" r="0.9"/>
				<path class="st14" d="M44.4,19.9c0-0.1,0-0.2,0-0.3c0-0.1,0-0.1,0.1-0.2c0,0,0.1-0.1,0.1-0.1c0,0,0.1-0.1,0.1-0.1
					c0,0,0.1-0.1,0.1-0.1c0.1,0,0.2-0.1,0.3-0.1c-0.1,0-0.2,0-0.3,0.1c0,0-0.1,0-0.1,0.1c0,0-0.1,0.1-0.1,0.1c0,0,0,0,0,0
					c0,0,0,0,0,0c0,0,0,0,0,0c0,0,0,0,0,0c0,0-0.1,0.1-0.1,0.1C44.5,19.7,44.4,19.8,44.4,19.9z"/>
				<g>
					<path class="st2" d="M45.2,20.3v-0.1c-0.1,0-0.1,0-0.2-0.1l0-0.1c0,0,0.1,0.1,0.2,0.1c0.1,0,0.1,0,0.1-0.1c0-0.1,0-0.1-0.1-0.1
						c-0.1,0-0.2-0.1-0.2-0.2c0-0.1,0.1-0.2,0.2-0.2v-0.1h0.1v0.1c0.1,0,0.1,0,0.2,0l0,0.1c0,0-0.1,0-0.2,0c-0.1,0-0.1,0.1-0.1,0.1
						c0,0.1,0,0.1,0.2,0.1c0.1,0.1,0.2,0.1,0.2,0.2c0,0.1-0.1,0.2-0.2,0.2L45.2,20.3L45.2,20.3z"/>
				</g>
			</g>
			<g>
				<circle class="st15" cx="42.3" cy="8.5" r="1"/>
				<circle class="st13" cx="42.3" cy="8.5" r="0.9"/>
				<path class="st14" d="M41.5,8.6c0-0.1,0-0.2,0-0.3c0-0.1,0-0.1,0.1-0.2c0,0,0.1-0.1,0.1-0.1c0,0,0.1-0.1,0.1-0.1
					c0,0,0.1-0.1,0.1-0.1c0.1,0,0.2-0.1,0.3-0.1c-0.1,0-0.2,0-0.3,0.1c0,0-0.1,0-0.1,0.1c0,0-0.1,0.1-0.1,0.1c0,0,0,0,0,0
					c0,0,0,0,0,0c0,0,0,0,0,0c0,0,0,0,0,0c0,0-0.1,0.1-0.1,0.1C41.5,8.4,41.5,8.5,41.5,8.6z"/>
				<g>
					<path class="st2" d="M42.3,9V8.9c-0.1,0-0.1,0-0.2-0.1l0-0.1c0,0,0.1,0.1,0.2,0.1c0.1,0,0.1,0,0.1-0.1c0-0.1,0-0.1-0.1-0.1
						c-0.1,0-0.2-0.1-0.2-0.2c0-0.1,0.1-0.2,0.2-0.2V8h0.1v0.1c0.1,0,0.1,0,0.2,0l0,0.1c0,0-0.1,0-0.2,0c-0.1,0-0.1,0.1-0.1,0.1
						c0,0.1,0,0.1,0.2,0.1c0.1,0.1,0.2,0.1,0.2,0.2c0,0.1-0.1,0.2-0.2,0.2L42.3,9L42.3,9z"/>
				</g>
			</g>
			<g>
				<path class="st21" d="M47.1,25v6.4c0,0.2-0.2,0.4-0.4,0.4h-8.9c-0.2,0-0.4-0.2-0.4-0.4V25c0-0.2,0.2-0.4,0.4-0.4h8.9
					C46.9,24.6,47.1,24.8,47.1,25z"/>
				<g>
					<g>
						<line class="st22" x1="37.4" y1="25.1" x2="37.9" y2="25.1"/>
						<line class="st23" x1="38.6" y1="25.1" x2="41.3" y2="25.1"/>
						<line class="st24" x1="41.7" y1="25.1" x2="45.8" y2="25.1"/>
						<polyline class="st22" points="46.2,25.1 46.6,25.1 46.6,25.5 						"/>
						<line class="st25" x1="46.6" y1="26" x2="46.6" y2="27.7"/>
						<line class="st26" x1="46.6" y1="27.9" x2="46.6" y2="30.6"/>
						<polyline class="st22" points="46.6,30.8 46.6,31.2 46.2,31.2 						"/>
						<line class="st23" x1="45.4" y1="31.2" x2="42.8" y2="31.2"/>
						<line class="st24" x1="42.4" y1="31.2" x2="38.2" y2="31.2"/>
						<line class="st22" x1="37.9" y1="31.2" x2="37.4" y2="31.2"/>
					</g>
				</g>
				<path class="st3" d="M47.6,27.4v1.5c0,0,0,0.1,0,0.1c0,0-0.1,0.1-0.1,0.1h-2.7c-0.5,0-0.9-0.4-0.9-0.9c0-0.3,0.1-0.5,0.3-0.6
					c0.2-0.2,0.4-0.3,0.6-0.3h2.7c0.1,0,0.1,0,0.1,0.1C47.6,27.4,47.6,27.4,47.6,27.4z"/>
				<path class="st27" d="M47.5,29h-2.8c-0.5,0-0.9-0.4-0.9-0.8c0-0.5,0.4-0.8,0.9-0.8h2.8"/>
				<g>
					<g>
						<circle class="st2" cx="44.8" cy="28.2" r="0.5"/>
					</g>
				</g>
			</g>
		</g>
		<path class="st16" d="M40,28.8c-0.4,0.3-1.4,0.3-1.4,0.3l-3.4,0.5c-0.2,0-0.4-0.1-0.6-0.2c-0.1-0.1-0.2-0.4-0.2-0.6l0-0.3l0-0.2
			l0-0.2l0.1,0l0.3,0l0.7,0.1l1.7,0.1c0.3,0,0.7-0.1,0.9-0.2c0.1,0,0.2-0.1,0.3-0.2c0.2-0.2,0.5-0.3,0.7-0.4
			c0.2-0.1,0.4-0.1,0.4-0.1c0,0.1,0,0.2-0.1,0.3L39.1,28l0.4,0c0.1,0,0.3,0,0.4,0.1C40.5,28.3,40,28.8,40,28.8z"/>
		<path d="M37,18.8c0,0,0.7,1.1,1.7,0.8c0,0,0.2,0.6-0.3,1.9c0,0-0.3,0.8-0.1,1.8c0,0,1.5-0.6,1.3-2.3c0,0-0.3-4.1-2.3-3.4
			c0,0-1-0.2-1.5,1.9c0,0-0.9,3,0.9,3.7c0,0-0.4-1-0.1-2.7C36.5,20.6,37.2,19.3,37,18.8z"/>
		<path class="st16" d="M36.8,20.6c0,0.2,0,0.3-0.1,0.4s-0.2-0.1-0.3-0.3c0-0.2,0-0.3,0.1-0.4C36.6,20.3,36.8,20.4,36.8,20.6z"/>
		<path d="M39.6,21.2c0,0,0,1.2-0.4,1.8C39.2,23,39.7,22.5,39.6,21.2z"/>
		<path d="M35.7,20.3c0,0-0.3,2,0.3,3C36.1,23.4,35.3,22.4,35.7,20.3z"/>
	</g>
</g>
</svg>
