<?xml version="1.0" encoding="utf-8"?>
<!-- Generator: Adobe Illustrator 25.2.1, SVG Export Plug-In . SVG Version: 6.00 Build 0)  -->
<svg version="1.1" id="Layer_1" xmlns="http://www.w3.org/2000/svg" xmlns:xlink="http://www.w3.org/1999/xlink" x="0px" y="0px"
	 viewBox="0 0 48 48" style="enable-background:new 0 0 48 48;" xml:space="preserve">
<style type="text/css">
	.st0{opacity:0.25;}
	.st1{fill:#000A24;}
	.st2{fill-rule:evenodd;clip-rule:evenodd;fill:#000A24;}
	.st3{opacity:0.3;fill:#000A24;}
	.st4{fill:#800200;}
	.st5{fill:#EFA935;}
	.st6{fill-rule:evenodd;clip-rule:evenodd;fill:#090909;}
	.st7{opacity:0.3;fill:#800200;}
	.st8{fill:#5C0100;}
	.st9{opacity:0.5;fill:#000A24;}
	.st10{opacity:0.2;fill:#000A24;}
	.st11{fill:#090909;}
	.st12{fill:#FFFFFF;}
	.st13{fill:#F9A18E;}
	.st14{fill:#C55E57;}
	.st15{fill:#E08A83;}
	.st16{opacity:0.5;fill:#C55E57;}
	.st17{opacity:0.2;fill:#090909;}
	.st18{fill-rule:evenodd;clip-rule:evenodd;fill:#FFFFFF;}
</style>
<g>
	<g id="BAG">
		<g class="st0">
			<path class="st1" d="M12.7,11.5c0,0,0.3-1,1.1-1c0.8,0,1.3,0.6,2.1,0.5c0.8,0,1.7-1.1,2.7-0.9c0.9,0.1,2,0.7,1.8,1.4
				C20.2,12.2,14.6,13.5,12.7,11.5z"/>
			<path class="st1" d="M29.6,29.7c-0.7-7.8-7.8-10.4-9.5-11.9c-1.3-1.3-0.9-2.8-0.6-3.3c0.7-1.2,2.2-1.5,2.3-2.5
				c0-1-1.8-1.4-2.6-0.5c-0.7,0.9-1.6-0.2-2-1.2c-0.4-0.9-1.3,0-1.6,0.9c-0.3,0.9-0.9,1.3-1.4,0.8c-0.5-0.5-0.8-0.7-2.1-0.3
				c-1.3,0.4-1,1.7-0.3,1.8c0.6,0.1,1.5,0.2,2,1.4l0,0c0.2,0.7,0.3,1.9-0.8,3c-1.7,1.6-8.7,4.1-9.5,11.9c-0.7,7,4.3,10.3,11.8,10.7
				c0,0,0,0,0,0c0.4,0,0.8,0,1.2,0c0.4,0,0.8,0,1.2,0c0,0,0,0,0,0C25.4,40,30.3,36.7,29.6,29.7z"/>
			<path class="st2" d="M21.5,24.9v-1.3h-6.1H14h-0.8v0.1v1.2h1.1H15h0.2c0.9,0,1.7,0.6,2,1.5h-4v1.3h4.1v0.2c0,1.2-0.9,2.1-2.1,2.1
				H15h-0.7h-0.4l0,0l0,0h-0.7v0.7v0.5v0c0,0,0,0,0,0l3.5,3.5l1.2,1.2h1.8l0,0l-4.6-4.6h0.2c1.8,0,3.2-1.4,3.2-3.2v-0.4h2.9v-1.3
				h-2.9c-0.1-0.5-0.3-1-0.6-1.5h0.5H21.5z"/>
			<path class="st3" d="M29.6,29.7c-0.1-0.9-0.3-1.7-0.5-2.5l0,0c0,0-1.2-2.8-5.1-2.1c-3.9,0.7-7.4,6.8-11.3,7.4
				c-3.9,0.6-7.5-1.3-8.5,2c1.6,3.7,5.7,5.5,11.2,5.8c0,0,0,0,0,0c0.4,0,0.8,0,1.2,0c0.4,0,0.8,0,1.2,0c0,0,0,0,0,0
				C25.4,40,30.3,36.7,29.6,29.7z"/>
			<path class="st3" d="M19.3,15.1c0.1-0.3,0.1-0.5,0.2-0.7c0.7-1.2,2.2-1.5,2.3-2.5c0-0.2,0-0.3-0.1-0.5l0,0c0,0-0.2,0.9-1.3,1.1
				c-1.1,0.2-2.1,0.7-2.5,1.6c-0.4,0.8-1.3,0.3-1.5,0c-0.1-0.3-1.3-0.9-1.5-0.4c-0.2,0.4-1.5-0.1-2.2-0.4c-0.7-0.2-1.2,0-1.2,0l0,0
				c0.1,0.1,0.2,0.1,0.3,0.1c0.6,0.1,1.5,0.2,2,1.4c0,0.1,0.1,0.2,0.1,0.3l2.3,0.6L19.3,15.1z"/>
			<path class="st1" d="M19.3,16.5C19.3,16.5,19.3,16.5,19.3,16.5c-3.1-0.4-5.5-1.2-5.6-1.2c-0.2-0.1-0.2-0.2-0.2-0.4
				c0.1-0.2,0.2-0.2,0.4-0.2c0,0,2.4,0.8,5.4,1.1c0.2,0,0.3,0.2,0.3,0.3C19.6,16.4,19.4,16.5,19.3,16.5z"/>
			<path class="st1" d="M13.8,16.7c-0.1,0-0.3-0.1-0.3-0.3c0-0.2,0.1-0.3,0.3-0.3c3.4-0.5,5.4-1.1,5.4-1.1c0.2-0.1,0.3,0,0.4,0.2
				c0.1,0.2,0,0.3-0.2,0.4C19.3,15.6,17.3,16.2,13.8,16.7C13.8,16.7,13.8,16.7,13.8,16.7z"/>
			<path class="st1" d="M7.8,30.2c-0.2,0-0.3-0.1-0.3-0.3c-0.1-3.2,3.1-7.1,5-9.5c1.8-2.3,3.3-5.3,3.3-5.3c0.1-0.1,0.2-0.2,0.4-0.1
				c0.1,0.1,0.2,0.2,0.1,0.4c0,0-1.5,3-3.4,5.4C11.2,23,8,27,8.1,29.9C8.1,30.1,8,30.2,7.8,30.2C7.8,30.2,7.8,30.2,7.8,30.2z"/>
			<path class="st3" d="M13.9,15.5c0,0,0.5,0.3,1.5,0.4c1,0.2,2.7,0,2.7,0s1-0.1,1.1-0.2c0-0.2,0-0.4,0-0.4s-1.9,0.5-2.2,0.4
				c-0.3-0.1-3.2-0.6-3.2-0.6L13.9,15.5z"/>
			<path class="st3" d="M13.7,16.9c0,0,0.1,0.1,1.5-0.2c1.4-0.3,1.8-0.3,1.8-0.3s1.9,0.3,2.4,0.3c0,0-0.1-0.2-0.1-0.4
				c0-0.1-2.5-0.3-2.5-0.3l-3,0.5L13.7,16.9z"/>
			<path class="st3" d="M16,16.5c0,0-0.8,2.2-3,4.7c-2.2,2.6-4.3,5.8-4.5,7.3c-0.2,1.4,0,1.7-0.5,2c-0.5,0.3-0.5-0.9-0.4-1.3
				c0.1-0.5,1.7-4.3,3.8-6.9c2.1-2.6,3.7-5.1,4.4-6.2C16.2,15.6,16,16.5,16,16.5z"/>
			<path class="st1" d="M16.3,15.4l0.1,0c0,0-0.4,0.8-0.5,0.9c-0.1,0-0.1,0-0.1,0S16.2,15.6,16.3,15.4z"/>
			<polygon class="st1" points="16.1,15.9 17,16.1 16.8,16.2 16,16.1 			"/>
			<polygon class="st1" points="15,16.5 15.2,16.2 14.8,16.5 			"/>
			<polygon class="st1" points="17,15.5 18.5,15.8 18.6,15.8 17.2,15.5 			"/>
		</g>
		<g>
			<g>
				<path class="st4" d="M12.7,7.5c0,0,0.3-1,1.1-1C14.6,6.5,15,7,15.8,7c0.8,0,1.7-1.1,2.7-0.9c0.9,0.1,2,0.7,1.8,1.4
					C20.2,8.2,14.6,9.5,12.7,7.5z"/>
				<path class="st5" d="M29.6,25.7c-0.7-7.8-7.8-10.4-9.5-11.9c-1.3-1.3-0.9-2.8-0.6-3.3c0.7-1.2,2.2-1.5,2.3-2.5
					c0-1-1.8-1.4-2.6-0.5c-0.7,0.9-1.6-0.2-2-1.2c-0.4-0.9-1.3,0-1.6,0.9c-0.3,0.9-0.9,1.3-1.4,0.8c-0.5-0.5-0.8-0.7-2.1-0.3
					c-1.3,0.4-1,1.7-0.3,1.8c0.6,0.1,1.5,0.2,2,1.4l0,0c0.2,0.7,0.3,1.9-0.8,3c-1.7,1.6-8.7,4.1-9.5,11.9c-0.7,7,4.3,10.3,11.8,10.7
					c0,0,0,0,0,0c0.4,0,0.8,0,1.2,0c0.4,0,0.8,0,1.2,0c0,0,0,0,0,0C25.4,36,30.3,32.7,29.6,25.7z"/>
				<path class="st6" d="M21.5,20.9v-1.3h-6.1H14h-0.8v0.1v1.2h1.1H15h0.2c0.9,0,1.7,0.6,2,1.5h-4v1.3h4.1v0.2
					c0,1.2-0.9,2.1-2.1,2.1H15h-0.7h-0.4l0,0l0,0h-0.7v0.7v0.5v0c0,0,0,0,0,0l3.5,3.5l1.2,1.2h1.8l0,0l-4.6-4.6h0.2
					c1.8,0,3.2-1.4,3.2-3.2v-0.4h2.9v-1.3h-2.9c-0.1-0.5-0.3-1-0.6-1.5h0.5H21.5z"/>
				<path class="st7" d="M29.6,25.7c-0.1-0.9-0.3-1.7-0.5-2.5l0,0c0,0-1.2-2.8-5.1-2.1c-3.9,0.7-7.4,6.8-11.3,7.4
					c-3.9,0.6-7.5-1.3-8.5,2c1.6,3.7,5.7,5.5,11.2,5.8c0,0,0,0,0,0c0.4,0,0.8,0,1.2,0c0.4,0,0.8,0,1.2,0c0,0,0,0,0,0
					C25.4,36,30.3,32.7,29.6,25.7z"/>
				<path class="st7" d="M19.3,11.1c0.1-0.3,0.1-0.5,0.2-0.7c0.7-1.2,2.2-1.5,2.3-2.5c0-0.2,0-0.3-0.1-0.5l0,0c0,0-0.2,0.9-1.3,1.1
					c-1.1,0.2-2.1,0.7-2.5,1.6c-0.4,0.8-1.3,0.3-1.5,0c-0.1-0.3-1.3-0.9-1.5-0.4c-0.2,0.4-1.5-0.1-2.2-0.4c-0.7-0.2-1.2,0-1.2,0l0,0
					c0.1,0.1,0.2,0.1,0.3,0.1c0.6,0.1,1.5,0.2,2,1.4c0,0.1,0.1,0.2,0.1,0.3l2.3,0.6L19.3,11.1z"/>
				<g id="TIE_9_">
					<path class="st4" d="M19.3,12.5C19.3,12.5,19.3,12.5,19.3,12.5c-3.1-0.4-5.5-1.2-5.6-1.2c-0.2-0.1-0.2-0.2-0.2-0.4
						c0.1-0.2,0.2-0.2,0.4-0.2c0,0,2.4,0.8,5.4,1.1c0.2,0,0.3,0.2,0.3,0.3C19.6,12.4,19.4,12.5,19.3,12.5z"/>
					<path class="st4" d="M13.8,12.7c-0.1,0-0.3-0.1-0.3-0.3c0-0.2,0.1-0.3,0.3-0.3c3.4-0.5,5.4-1.1,5.4-1.1c0.2-0.1,0.3,0,0.4,0.2
						c0.1,0.2,0,0.3-0.2,0.4C19.3,11.6,17.3,12.2,13.8,12.7C13.8,12.7,13.8,12.7,13.8,12.7z"/>
					<path class="st4" d="M7.8,26.2c-0.2,0-0.3-0.1-0.3-0.3c-0.1-3.2,3.1-7.1,5-9.5c1.8-2.3,3.3-5.3,3.3-5.3
						c0.1-0.1,0.2-0.2,0.4-0.1c0.1,0.1,0.2,0.2,0.1,0.4c0,0-1.5,3-3.4,5.4C11.2,19,8,23,8.1,25.9C8.1,26.1,8,26.2,7.8,26.2
						C7.8,26.2,7.8,26.2,7.8,26.2z"/>
					<path class="st7" d="M13.9,11.5c0,0,0.5,0.3,1.5,0.4c1,0.2,2.7,0,2.7,0s1-0.1,1.1-0.2c0-0.2,0-0.4,0-0.4s-1.9,0.5-2.2,0.4
						c-0.3-0.1-3.2-0.6-3.2-0.6L13.9,11.5z"/>
					<path class="st7" d="M13.7,12.9c0,0,0.1,0.1,1.5-0.2c1.4-0.3,1.8-0.3,1.8-0.3s1.9,0.3,2.4,0.3c0,0-0.1-0.2-0.1-0.4
						c0-0.1-2.5-0.3-2.5-0.3l-3,0.5L13.7,12.9z"/>
					<path class="st7" d="M16,12.5c0,0-0.8,2.2-3,4.7c-2.2,2.6-4.3,5.8-4.5,7.3c-0.2,1.4,0,1.7-0.5,2c-0.5,0.3-0.5-0.9-0.4-1.3
						c0.1-0.5,1.7-4.3,3.8-6.9c2.1-2.6,3.7-5.1,4.4-6.2C16.2,11.6,16,12.5,16,12.5z"/>
					<path class="st8" d="M16.3,11.4l0.1,0c0,0-0.4,0.8-0.5,0.9c-0.1,0-0.1,0-0.1,0S16.2,11.6,16.3,11.4z"/>
					<polygon class="st8" points="16.1,11.9 17,12.1 16.8,12.2 16,12.1 					"/>
					<polygon class="st8" points="15,12.5 15.2,12.2 14.8,12.5 					"/>
					<polygon class="st8" points="17,11.5 18.5,11.8 18.6,11.8 17.2,11.5 					"/>
				</g>
			</g>
		</g>
	</g>
	<g id="ARM_x2F_HAND">
		<g class="st0">
			<path class="st1" d="M47.8,25.2c-3.3,2-7.6,4.6-16.7,7.8c-2.1,0.7-4,1.3-4,1.3s3.2,9.6,3.4,10.3c0.2,0,8.3-1.4,17.2-5.7V25.2z"/>
			<path class="st1" d="M31.8,42.3c0.8-0.3,1.1,1,0.4,1.2C31.5,43.7,31,42.6,31.8,42.3z"/>
			<path class="st1" d="M33.9,41.8c0.8-0.3,1.1,1,0.4,1.2C33.6,43.1,33.1,42.1,33.9,41.8z"/>
			<path class="st1" d="M27.9,38.3c0,0-1.7-1-4.4-0.6c-2.7,0.4-4.3,0.9-6.6,0.6c-1.9-0.3-4-0.7-5.2,0.1c-1.2,0.8-0.8,1.2-0.8,1.2
				s-1.6-0.7-2.2-1c-0.5-0.3-1.5-1.6-3.3-2.1C3.7,36,2.1,36,2.5,37c-0.6-0.2-0.9-0.4-1.6-0.4c-0.7,0-0.6,1.6,2,2.9
				c2.6,1.4,3.9,2.3,4.9,2.9c1,0.6,3.7,2.6,5.4,2.8c1.6,0.2,8-0.1,11.2-1c3.2-1,4.8-1.7,4.8-1.7l-1.2-4"/>
			<path class="st1" d="M2.5,37c0,0,0.6,0.5,1.6,1.1c1,0.6,2.8,1.7,3.2,2.1c0.5,0.4,2.1,0.8,3.4,1.6c1.2,0.8,2.5,1.2,2.5,1.2
				s-1,0-1.9-0.5c-0.9-0.5-1.8-1.1-2.8-1.4c-1-0.4-2.4-1.5-3-1.9c-0.6-0.4-2.7-1.8-3.3-2.4C2.5,37,2.5,37,2.5,37z"/>
			<path class="st1" d="M11.7,38.4c0,0,1.2-0.3,2.5,0c-0.7-0.5-1.5-0.4-1.5-0.4s-0.3,0.1-0.5,0.1C12,38.2,11.7,38.4,11.7,38.4z"/>
			<path class="st1" d="M10.9,39.2c0,0,0.3,0.8,2.4,1.4h-0.7c0.3,0.2,1.3,0.8,2.3,0.9s2.1,0.1,2.5,0.3c0.5,0.2,1.8,0.4,2.3,0.3
				c-0.2,0.2-1.5,0-2.4-0.1c-0.9-0.1-2.5-0.1-3.9-0.7c-1.4-0.6-2.5-1.8-2.5-1.8S10.8,39.4,10.9,39.2z"/>
			<path class="st1" d="M21.8,42.9c0,0-0.1,0.9-1.5,1.1C20.9,44.3,22.3,44,21.8,42.9z"/>
			<path class="st9" d="M24.4,44.2c3.2-1,4.8-1.7,4.8-1.7l-0.7-2.1c-0.7,0-2.7,0.2-3.7,0.8c-1.2,0.7-2.8,2.3-4.2,2.8
				c-1.4,0.5-7-0.5-9.1-1.4c0,0-1.7-0.8-2.6-1.1c-0.8-0.3-2.6-1.5-3.3-1.9s-3.2-2.4-3.2-2.4S2.5,37,2.4,37c-0.6-0.2-0.9-0.4-1.6-0.3
				c-0.7,0-0.6,1.6,2,2.9c2.6,1.4,3.9,2.3,4.9,2.9c1,0.6,3.7,2.6,5.4,2.8C14.8,45.5,21.2,45.2,24.4,44.2z"/>
			<polygon class="st1" points="27.4,35 25.3,35.6 28,44.3 30.4,43.9 			"/>
			<path class="st1" d="M28.7,42.2c0.8-0.3,1.1,1,0.4,1.2C28.3,43.6,27.8,42.5,28.7,42.2z"/>
			<path class="st1" d="M47.8,31.3c0,0-9.3,9.3-18.3,10.2c0.8,2.4,1,3.1,1,3.1s9.2-1.4,17.2-5.7C47.8,34.6,47.8,31.3,47.8,31.3z"/>
			<path class="st10" d="M27.4,35l-0.3,0.1c0,0,1.4,6.9,0.5,8.3c0.2,0.8,0.3,0.9,0.3,0.9l2.4-0.4L27.4,35z"/>
		</g>
		<g>
			<g>
				<path class="st11" d="M47.8,20.3c-3.3,2-7.6,4.6-16.7,7.8c-2.1,0.7-4,1.3-4,1.3s3.2,9.6,3.4,10.3c0.2,0,8.3-1.4,17.2-5.7V20.3z"
					/>
				<g>
					<path class="st12" d="M31.8,37.5c0.8-0.3,1.1,1,0.4,1.2C31.5,38.8,31,37.8,31.8,37.5z"/>
				</g>
				<g>
					<path class="st12" d="M33.9,36.9c0.8-0.3,1.1,1,0.4,1.2C33.6,38.3,33.1,37.2,33.9,36.9z"/>
				</g>
				<path class="st13" d="M27.9,33.4c0,0-1.7-1-4.4-0.6c-2.7,0.4-4.3,0.9-6.6,0.6c-1.9-0.3-4-0.7-5.2,0.1c-1.2,0.8-0.8,1.2-0.8,1.2
					s-1.6-0.7-2.2-1c-0.5-0.3-1.5-1.6-3.3-2.1c-1.8-0.5-3.3-0.5-2.9,0.6c-0.6-0.2-0.9-0.4-1.6-0.4c-0.7,0-0.6,1.6,2,2.9
					c2.6,1.4,3.9,2.3,4.9,2.9c1,0.6,3.7,2.6,5.4,2.8c1.6,0.2,8-0.1,11.2-1s4.8-1.7,4.8-1.7l-1.2-4"/>
				<path class="st14" d="M2.5,32.2c0,0,0.6,0.5,1.6,1.1c1,0.6,2.8,1.7,3.2,2.1c0.5,0.4,2.1,0.8,3.4,1.6c1.2,0.8,2.5,1.2,2.5,1.2
					s-1,0-1.9-0.5c-0.9-0.5-1.8-1.1-2.8-1.4c-1-0.4-2.4-1.5-3-1.9C4.8,34,2.7,32.6,2.1,32C2.5,32.2,2.5,32.2,2.5,32.2z"/>
				<path class="st14" d="M11.7,33.5c0,0,1.2-0.3,2.5,0c-0.7-0.5-1.5-0.4-1.5-0.4s-0.3,0.1-0.5,0.1C12,33.4,11.7,33.5,11.7,33.5z"/>
				<path class="st14" d="M10.9,34.4c0,0,0.3,0.8,2.4,1.4h-0.7c0.3,0.2,1.3,0.8,2.3,0.9c1,0.1,2.1,0.1,2.5,0.3
					c0.5,0.2,1.8,0.4,2.3,0.3c-0.2,0.2-1.5,0-2.4-0.1c-0.9-0.1-2.5-0.1-3.9-0.7c-1.4-0.6-2.5-1.8-2.5-1.8S10.8,34.6,10.9,34.4z"/>
				<path class="st15" d="M21.8,38c0,0-0.1,0.9-1.5,1.1C20.9,39.5,22.3,39.2,21.8,38z"/>
				<path class="st16" d="M24.4,39.4c3.2-1,4.8-1.7,4.8-1.7l-0.7-2.1c-0.7,0-2.7,0.2-3.7,0.8C23.6,37,22,38.6,20.6,39
					c-1.4,0.5-7-0.5-9.1-1.4c0,0-1.7-0.8-2.6-1.1c-0.8-0.3-2.6-1.5-3.3-1.9c-0.7-0.4-3.2-2.4-3.2-2.4s-0.1,0-0.2-0.1
					c-0.6-0.2-0.9-0.4-1.6-0.3c-0.7,0-0.6,1.6,2,2.9c2.6,1.4,3.9,2.3,4.9,2.9c1,0.6,3.7,2.6,5.4,2.8C14.8,40.7,21.2,40.4,24.4,39.4z
					"/>
				<g>
					<polygon class="st12" points="27.4,30.2 25.3,30.8 28,39.5 30.4,39.1 					"/>
				</g>
				<path class="st11" d="M28.7,37.4c0.8-0.3,1.1,1,0.4,1.2C28.3,38.8,27.8,37.7,28.7,37.4z"/>
				<path d="M47.8,26.5c0,0-9.3,9.3-18.3,10.2c0.8,2.4,1,3.1,1,3.1s9.2-1.4,17.2-5.7C47.8,29.8,47.8,26.5,47.8,26.5z"/>
				<path class="st17" d="M27.4,30.2l-0.3,0.1c0,0,1.4,6.9,0.5,8.3c0.2,0.8,0.3,0.9,0.3,0.9l2.4-0.4L27.4,30.2z"/>
			</g>
		</g>
	</g>
	<g id="SPARKLE">
		<g class="st0">
			<path class="st2" d="M10.4,17.1C10.4,17.1,10.3,17.1,10.4,17.1l-0.5-0.9c0-0.1-0.1-0.1-0.2-0.2l-0.9-0.4c-0.1,0-0.1-0.1,0-0.1
				l0.9-0.4c0.1,0,0.1-0.1,0.2-0.2l0.4-0.9c0-0.1,0.1-0.1,0.1,0l0.4,0.9c0,0.1,0.1,0.1,0.2,0.2l0.9,0.4c0.1,0,0.1,0.1,0,0.1L10.9,16
				c-0.1,0-0.1,0.1-0.2,0.2L10.4,17.1z"/>
			<path class="st2" d="M9.2,18.9C9.2,18.9,9.1,18.9,9.2,18.9l-0.3-0.6c0,0-0.1-0.1-0.1-0.1l-0.6-0.2c0,0,0,0,0-0.1l0.6-0.3
				c0,0,0.1-0.1,0.1-0.1l0.3-0.6c0,0,0,0,0.1,0l0.2,0.6c0,0,0.1,0.1,0.1,0.1l0.6,0.2c0,0,0,0,0,0.1l-0.6,0.2c0,0-0.1,0.1-0.1,0.1
				L9.2,18.9z"/>
		</g>
		<g>
			<g>
				<g>
					<path class="st18" d="M10.4,13.1C10.4,13.1,10.3,13.1,10.4,13.1l-0.5-0.9c0-0.1-0.1-0.1-0.2-0.2l-0.9-0.4c-0.1,0-0.1-0.1,0-0.1
						l0.9-0.4c0.1,0,0.1-0.1,0.2-0.2l0.4-0.9c0-0.1,0.1-0.1,0.1,0l0.4,0.9c0,0.1,0.1,0.1,0.2,0.2l0.9,0.4c0.1,0,0.1,0.1,0,0.1
						L10.9,12c-0.1,0-0.1,0.1-0.2,0.2L10.4,13.1z"/>
				</g>
				<g>
					<path class="st18" d="M9.2,14.9C9.2,14.9,9.1,14.9,9.2,14.9l-0.3-0.6c0,0-0.1-0.1-0.1-0.1l-0.6-0.2c0,0,0,0,0-0.1l0.6-0.3
						c0,0,0.1-0.1,0.1-0.1l0.3-0.6c0,0,0,0,0.1,0l0.2,0.6c0,0,0.1,0.1,0.1,0.1l0.6,0.2c0,0,0,0,0,0.1l-0.6,0.2c0,0-0.1,0.1-0.1,0.1
						L9.2,14.9z"/>
				</g>
			</g>
		</g>
	</g>
</g>
</svg>
