<?xml version="1.0" encoding="utf-8"?>
<!-- Generator: Adobe Illustrator 25.2.1, SVG Export Plug-In . SVG Version: 6.00 Build 0)  -->
<svg version="1.1" id="Layer_1" xmlns="http://www.w3.org/2000/svg" xmlns:xlink="http://www.w3.org/1999/xlink" x="0px" y="0px"
	 viewBox="0 0 48 48" style="enable-background:new 0 0 48 48;" xml:space="preserve">
<style type="text/css">
	.st0{fill:#1490BD;}
	.st1{fill:#00609A;}
	.st2{fill:#FFFFFF;}
	.st3{fill:#96E0F4;}
	.st4{fill:#FDC00E;}
	.st5{fill:#4FC2D9;}
	.st6{fill:#F99C1D;}
	.st7{fill:#FCE5AC;}
	.st8{fill:#FCDC97;}
	.st9{fill:#002541;}
	.st10{fill:#004592;}
</style>
<g>
	<g>
		<rect x="6" y="5.8" class="st0" width="36" height="23.1"/>
	</g>
	<g>
		<rect x="24" y="5.8" class="st1" width="18" height="23.1"/>
	</g>
	<g>
		<rect x="9.3" y="8.7" class="st2" width="29.4" height="17.3"/>
	</g>
	<g>
		<rect x="24" y="8.7" class="st3" width="14.7" height="17.3"/>
	</g>
	<g>
		<polygon class="st3" points="6,28.9 2.4,34.9 45.6,34.9 42,28.9 		"/>
	</g>
	<g>
		<rect x="2.4" y="34.9" class="st0" width="43.3" height="3.2"/>
	</g>
	<g>
		<rect x="13.9" y="2.9" class="st4" width="20.1" height="23.1"/>
	</g>
	<g>
		<rect x="24" y="34.9" class="st1" width="21.7" height="3.2"/>
	</g>
	<g>
		<polygon class="st5" points="24,34.9 45.6,34.9 42,28.9 24,28.9 		"/>
	</g>
	<g>
		<rect x="24" y="2.9" class="st6" width="10" height="23.1"/>
	</g>
	<g>
		<rect x="16" y="5.9" class="st7" width="15.9" height="6.5"/>
	</g>
	<g>
		<rect x="24" y="5.9" class="st8" width="7.9" height="6.5"/>
	</g>
	<g>
		<rect x="16" y="14.1" class="st7" width="15.9" height="6.5"/>
	</g>
	<g>
		<rect x="24" y="14.1" class="st8" width="7.9" height="6.5"/>
	</g>
	<g>
		<rect x="16" y="22.3" class="st7" width="15.9" height="3.7"/>
	</g>
	<g>
		<rect x="24" y="22.3" class="st8" width="7.9" height="3.7"/>
	</g>
	<g>
		<rect x="22.4" y="7.3" class="st2" width="8" height="0.7"/>
	</g>
	<g>
		<rect x="22.4" y="8.8" class="st2" width="8" height="0.7"/>
	</g>
	<g>
		<rect x="22.4" y="10.3" class="st2" width="8" height="0.7"/>
	</g>
	<g>
		<rect x="22.4" y="15.5" class="st2" width="8" height="0.7"/>
	</g>
	<g>
		<rect x="22.4" y="17" class="st2" width="8" height="0.7"/>
	</g>
	<g>
		<rect x="22.4" y="18.5" class="st2" width="8" height="0.7"/>
	</g>
	<g>
		<rect x="22.4" y="23.7" class="st2" width="8" height="0.7"/>
	</g>
	<g>
		<rect x="17.4" y="7.3" class="st2" width="3.7" height="3.7"/>
	</g>
	<g>
		<rect x="17.4" y="15.5" class="st2" width="3.7" height="3.7"/>
	</g>
	<g>
		<rect x="17.4" y="23.7" class="st2" width="3.7" height="2.3"/>
	</g>
	<g>
		<g>
			<path class="st4" d="M8.2,41.7c-0.1,0-0.2,0-0.3-0.1c-0.2-0.2-0.2-0.5,0-0.7l5-5.8c0.2-0.2,0.5-0.2,0.7,0c0.2,0.2,0.2,0.5,0,0.7
				l-5,5.8C8.4,41.6,8.3,41.7,8.2,41.7z"/>
		</g>
		<g>
			<path class="st9" d="M5.1,44.7L5.1,44.7c-0.5-0.5-0.6-1.3-0.1-1.8l3.5-4.2c0.5-0.5,1.3-0.6,1.8-0.1l0,0c0.5,0.5,0.6,1.3,0.1,1.8
				l-3.5,4.2C6.4,45.2,5.6,45.2,5.1,44.7z"/>
		</g>
		<g>
			<path class="st10" d="M21.6,25.7c-3-2.6-7.6-2.3-10.2,0.7c-2.6,3-2.3,7.6,0.7,10.2c3,2.6,7.6,2.3,10.2-0.7
				C25,32.9,24.6,28.3,21.6,25.7z M13.8,34.7c-2-1.7-2.2-4.7-0.5-6.6c1.7-2,4.7-2.2,6.6-0.5c2,1.7,2.2,4.7,0.5,6.6
				C18.7,36.2,15.7,36.4,13.8,34.7z"/>
		</g>
	</g>
</g>
</svg>
