<?xml version="1.0" encoding="utf-8"?>
<!-- Generator: Adobe Illustrator 25.2.1, SVG Export Plug-In . SVG Version: 6.00 Build 0)  -->
<svg version="1.1" id="Layer_1" xmlns="http://www.w3.org/2000/svg" xmlns:xlink="http://www.w3.org/1999/xlink" x="0px" y="0px"
	 viewBox="0 0 48 48" style="enable-background:new 0 0 48 48;" xml:space="preserve">
<style type="text/css">
	.st0{fill:#09093C;}
	.st1{fill:#FFDD00;}
	.st2{fill:#FF3D9B;}
	.st3{fill:#00BAEB;}
	.st4{fill:#1490BD;}
	.st5{fill:#00609A;}
	.st6{fill:#004592;}
	.st7{fill:#002541;}
	.st8{fill:#FDC00E;}
	.st9{fill:#FCE5AC;}
	.st10{fill:#F99C1D;}
</style>
<g>
	<g>
		<path class="st4" d="M46.1,11.6v18.9c0,2.3-1.8,4.1-4.1,4.1H14.9c-2.3,0-4.1-1.8-4.1-4.1V11.6c0-2.3,1.8-4.1,4.1-4.1H42
			C44.3,7.5,46.1,9.3,46.1,11.6z"/>
	</g>
	<g>
		<path class="st5" d="M42,7.5H28.5v27.1H42c2.3,0,4.1-1.8,4.1-4.1V11.6C46.1,9.3,44.3,7.5,42,7.5z"/>
	</g>
	<g>
		<rect x="24.3" y="4.1" class="st4" width="0.5" height="3.9"/>
	</g>
	<g>
		<rect x="31.8" y="4.1" class="st5" width="0.5" height="3.9"/>
	</g>
	<g>
		<path class="st6" d="M46.1,11.6v2.3c-3.5,4-9.1,7.9-17.7,7.9c-8.9,0-14.4-4.2-17.7-8.4v-1.8c0-2.3,1.8-4.1,4.1-4.1H42
			C44.3,7.5,46.1,9.3,46.1,11.6z"/>
	</g>
	<g>
		<path class="st7" d="M42,7.5H28.4v14.3c0,0,0,0,0,0c8.6,0,14.2-3.9,17.7-7.9v-2.3C46.1,9.3,44.3,7.5,42,7.5z"/>
	</g>
	<g>
		<g>
			<polygon class="st8" points="17.4,20.6 1.9,20.6 1.9,41.7 14.5,41.7 17.4,38.8 			"/>
		</g>
		<g>
			<polygon class="st9" points="20.3,23.5 4.7,23.5 4.7,44.6 17.4,44.6 20.3,41.7 			"/>
		</g>
		<g>
			<polygon class="st8" points="17.4,44.6 20.3,41.7 17.4,41.7 			"/>
		</g>
		<g>
			<rect x="6.7" y="31.5" class="st10" width="12" height="0.4"/>
		</g>
		<g>
			<rect x="6.7" y="32.6" class="st10" width="12" height="0.4"/>
		</g>
		<g>
			<rect x="6.7" y="33.6" class="st10" width="12" height="0.4"/>
		</g>
		<g>
			<rect x="6.7" y="34.7" class="st10" width="12" height="0.4"/>
		</g>
		<g>
			<rect x="6.7" y="26.2" class="st10" width="12" height="0.4"/>
		</g>
		<g>
			<rect x="6.7" y="27.3" class="st10" width="12" height="0.4"/>
		</g>
		<g>
			<rect x="6.7" y="28.4" class="st10" width="12" height="0.4"/>
		</g>
		<g>
			<rect x="6.7" y="29.4" class="st10" width="12" height="0.4"/>
		</g>
		<g>
			<rect x="6.7" y="36.4" class="st10" width="12" height="0.4"/>
		</g>
		<g>
			<rect x="6.7" y="37.5" class="st10" width="12" height="0.4"/>
		</g>
		<g>
			<rect x="6.7" y="38.5" class="st10" width="12" height="0.4"/>
		</g>
		<g>
			<rect x="6.7" y="39.6" class="st10" width="12" height="0.4"/>
		</g>
	</g>
	<g>
		<path class="st8" d="M30,19.3h-3c-0.7,0-1.4,0.6-1.4,1.4V23c0,0.7,0.6,1.4,1.4,1.4h3c0.7,0,1.4-0.6,1.4-1.4v-2.3
			C31.3,19.9,30.7,19.3,30,19.3z M30.3,23c0,0.2-0.2,0.3-0.3,0.3h-3c-0.2,0-0.3-0.2-0.3-0.3v-2.3c0-0.2,0.2-0.3,0.3-0.3h3
			c0.2,0,0.3,0.2,0.3,0.3V23z"/>
	</g>
	<g>
		<path class="st10" d="M30,19.3h-1.5v1H30c0.2,0,0.3,0.2,0.3,0.3V23c0,0.2-0.2,0.3-0.3,0.3h-1.5v1H30c0.7,0,1.4-0.6,1.4-1.4v-2.3
			C31.3,19.9,30.7,19.3,30,19.3z"/>
	</g>
	<g>
		<path class="st8" d="M32.6,5.4h-8.4c-0.5,0-1-0.4-1-1l0,0c0-0.5,0.4-1,1-1h8.4c0.5,0,1,0.4,1,1l0,0C33.6,4.9,33.1,5.4,32.6,5.4z"
			/>
	</g>
	<g>
		<path class="st10" d="M32.6,3.4h-4.2v1.9h4.2c0.5,0,1-0.4,1-1C33.6,3.9,33.1,3.4,32.6,3.4z"/>
	</g>
</g>
</svg>
