<?xml version="1.0" encoding="utf-8"?>
<!-- Generator: Adobe Illustrator 25.2.1, SVG Export Plug-In . SVG Version: 6.00 Build 0)  -->
<svg version="1.1" id="Layer_1" xmlns="http://www.w3.org/2000/svg" xmlns:xlink="http://www.w3.org/1999/xlink" x="0px" y="0px"
	 viewBox="0 0 48 48" style="enable-background:new 0 0 48 48;" xml:space="preserve">
<style type="text/css">
	.st0{fill:#1490BD;}
	.st1{fill:#00609A;}
	.st2{fill:#FFFFFF;}
	.st3{fill:#96E0F4;}
	.st4{fill:#FDC00E;}
	.st5{fill:#4FC2D9;}
	.st6{fill:#F99C1D;}
	.st7{fill:#FCE5AC;}
	.st8{fill:#FCDC97;}
</style>
<g>
	<g>
		<rect x="5.5" y="8.9" class="st0" width="37" height="23.8"/>
	</g>
	<g>
		<rect x="24" y="8.9" class="st1" width="18.5" height="23.8"/>
	</g>
	<g>
		<rect x="8.9" y="11.9" class="st2" width="30.2" height="17.8"/>
	</g>
	<g>
		<rect x="24" y="11.9" class="st3" width="15.1" height="17.8"/>
	</g>
	<g>
		<polygon class="st3" points="5.5,32.7 1.8,38.8 46.2,38.8 42.5,32.7 		"/>
	</g>
	<g>
		<rect x="1.8" y="38.8" class="st0" width="44.5" height="3.2"/>
	</g>
	<g>
		<rect x="13.7" y="6" class="st4" width="20.6" height="23.7"/>
	</g>
	<g>
		<rect x="24" y="38.8" class="st1" width="22.2" height="3.2"/>
	</g>
	<g>
		<polygon class="st5" points="24,38.8 46.2,38.8 42.5,32.7 24,32.7 		"/>
	</g>
	<g>
		<rect x="24" y="6" class="st6" width="10.3" height="23.7"/>
	</g>
	<g>
		<rect x="15.8" y="9" class="st7" width="16.3" height="6.7"/>
	</g>
	<g>
		<rect x="24" y="9" class="st8" width="8.2" height="6.7"/>
	</g>
	<g>
		<rect x="15.8" y="17.5" class="st7" width="16.3" height="6.7"/>
	</g>
	<g>
		<rect x="24" y="17.5" class="st8" width="8.2" height="6.7"/>
	</g>
	<g>
		<rect x="15.8" y="25.9" class="st7" width="16.3" height="3.8"/>
	</g>
	<g>
		<rect x="24" y="25.9" class="st8" width="8.2" height="3.8"/>
	</g>
	<g>
		<rect x="22.3" y="10.5" class="st2" width="8.2" height="0.7"/>
	</g>
	<g>
		<rect x="22.3" y="12" class="st2" width="8.2" height="0.7"/>
	</g>
	<g>
		<rect x="22.3" y="13.6" class="st2" width="8.2" height="0.7"/>
	</g>
	<g>
		<rect x="22.3" y="18.9" class="st2" width="8.2" height="0.7"/>
	</g>
	<g>
		<rect x="22.3" y="20.4" class="st2" width="8.2" height="0.7"/>
	</g>
	<g>
		<rect x="22.3" y="22" class="st2" width="8.2" height="0.7"/>
	</g>
	<g>
		<rect x="22.3" y="27.3" class="st2" width="8.2" height="0.7"/>
	</g>
	<g>
		<rect x="17.2" y="10.5" class="st2" width="3.8" height="3.8"/>
	</g>
	<g>
		<rect x="17.2" y="18.9" class="st2" width="3.8" height="3.8"/>
	</g>
	<g>
		<rect x="17.2" y="27.3" class="st2" width="3.8" height="2.3"/>
	</g>
</g>
</svg>
